<!-- Generated by IcoMoon.io -->
<svg version="1.1" xmlns="http://www.w3.org/2000/svg" width="32" height="32" viewBox="0 0 32 32">
<title>10</title>
<path fill="#444" d="M8.258 2.216v22.166c0 2.636 1.128 3.954 3.381 3.954h0.573v1.503h-11.806v-1.503h0.759c2.167 0 3.252-1.318 3.252-3.954v-14.537c0-2.672-0.947-4.009-2.842-4.009h-1.169v-1.505h0.446c2.302 0 4.381-0.705 6.236-2.115l1.169 0zM12.547 16.862c0-3.453 0.723-6.628 2.171-9.522 1.82-3.6 4.309-5.402 7.463-5.402 3.046 0 5.459 1.542 7.24 4.621 1.448 2.526 2.173 5.441 2.173 8.744 0 3.454-0.724 6.609-2.173 9.468-1.82 3.528-4.288 5.291-7.406 5.291-3.007 0-5.402-1.523-7.186-4.568-1.522-2.561-2.282-5.439-2.282-8.633zM16.556 15.246c0 2.936 0.316 5.571 0.947 7.908 0.965 3.601 2.542 5.403 4.733 5.403 3.564 0 5.346-3.712 5.346-11.138 0-9.171-1.931-13.755-5.793-13.755-3.49 0-5.235 3.562-5.235 10.691l0.001 0.891z"></path>
</svg>
