<!-- Generated by IcoMoon.io -->
<svg version="1.1" xmlns="http://www.w3.org/2000/svg" width="58" height="32" viewBox="0 0 58 32">
<title>100</title>
<path fill="#444" d="M9.096 0v25.643c0 3.068 1.29 4.602 3.875 4.602h0.674v1.755h-13.644v-1.755h0.856c2.499 0 3.748-1.533 3.748-4.602v-16.821c0-3.103-1.079-4.657-3.232-4.657h-1.372v-1.699h0.495c2.664 0 5.076-0.823 7.232-2.466l1.369 0z"></path>
<path fill="#444" d="M13.188 16.971c0-3.915 0.824-7.525 2.476-10.829 2.047-4.094 4.849-6.142 8.405-6.142 3.519 0 6.266 1.744 8.242 5.226 1.651 2.874 2.476 6.215 2.476 10.021 0 3.952-0.826 7.526-2.476 10.721-2.012 4.023-4.814 6.032-8.404 6.032-3.412 0-6.122-1.723-8.134-5.17-1.723-2.944-2.584-6.23-2.584-9.859zM17.712 15.193c0 5.17 0.772 9.194 2.318 12.067 1.076 2.010 2.458 3.016 4.147 3.016 4.058 0 6.088-4.202 6.088-12.607 0-3.698-0.324-6.824-0.969-9.374-1.114-4.202-2.999-6.304-5.658-6.304-3.952 0-5.926 4.060-5.926 12.177v1.024z"></path>
<path fill="#444" d="M35.928 16.971c0-3.915 0.824-7.525 2.476-10.829 2.047-4.094 4.849-6.142 8.405-6.142 3.519 0 6.267 1.744 8.242 5.226 1.651 2.874 2.476 6.215 2.476 10.021 0 3.952-0.826 7.526-2.476 10.721-2.012 4.023-4.814 6.032-8.404 6.032-3.412 0-6.122-1.723-8.134-5.17-1.723-2.944-2.584-6.23-2.584-9.859zM40.452 15.193c0 5.17 0.772 9.194 2.318 12.067 1.076 2.010 2.458 3.016 4.147 3.016 4.058 0 6.089-4.202 6.089-12.607 0-3.698-0.324-6.824-0.969-9.374-1.114-4.202-2.999-6.304-5.658-6.304-3.952 0-5.926 4.060-5.926 12.177v1.024z"></path>
</svg>
