<!-- Generated by IcoMoon.io -->
<svg version="1.1" xmlns="http://www.w3.org/2000/svg" width="32" height="32" viewBox="0 0 32 32">
<title>11</title>
<path fill="#444" d="M11.204 1.926v22.586c0 2.687 1.118 4.029 3.348 4.029h0.568v1.532h-12.031v-1.532h0.794c2.27 0 3.406-1.342 3.406-4.029v-14.811c0-2.725-0.965-4.085-2.896-4.085h-1.192v-1.532h0.455c2.346 0 4.463-0.718 6.355-2.157l1.192-0zM25.62 1.926v22.586c0 2.687 1.116 4.029 3.348 4.029h0.568v1.532h-12.033v-1.532h0.794c2.272 0 3.406-1.342 3.406-4.029v-14.811c0-2.725-0.965-4.085-2.893-4.085h-1.191v-1.532h0.453c2.346 0 4.463-0.718 6.357-2.157l1.192-0z"></path>
</svg>
