<!-- Generated by IcoMoon.io -->
<svg version="1.1" xmlns="http://www.w3.org/2000/svg" width="32" height="32" viewBox="0 0 32 32">
<title>13</title>
<path fill="#444" d="M8.547 1.956v22.567c0 2.653 1.129 3.977 3.385 3.977h0.534v1.544h-11.995v-1.544h0.773c2.296 0 3.443-1.324 3.443-3.977v-14.789c0-2.73-0.971-4.098-2.909-4.098h-1.189v-1.542h0.476c2.334 0 4.434-0.714 6.295-2.139h1.187zM18.643 16.921l-0.713-1.308 0.536-0.298c1.781-1.106 3.434-2.224 4.959-3.354 1.522-1.128 2.286-2.403 2.286-3.83 0-0.99-0.377-1.812-1.128-2.464-0.752-0.655-1.585-0.981-2.494-0.981-2.298 0-4.712 1.386-7.247 4.158l-1.187-0.892c2.612-3.959 5.819-5.94 9.619-5.94 1.663 0 3.069 0.416 4.217 1.248 1.346 0.913 2.020 2.159 2.020 3.743 0 1.11-0.476 2.197-1.426 3.264-0.556 0.595-1.505 1.406-2.851 2.436l-0.534 0.476c0.237-0.038 0.534-0.060 0.892-0.060 1.742 0 3.166 0.665 4.275 1.988 1.109 1.326 1.662 2.842 1.662 4.542 0 3.010-1.266 5.504-3.801 7.483-2.296 1.899-4.968 2.852-8.015 2.852-2.813 0-5.009-0.595-6.592-1.783l0.831-1.187c1.861 0.87 3.562 1.308 5.105 1.308 2.218 0 4.198-0.732 5.939-2.199 1.742-1.463 2.612-3.286 2.612-5.463 0-1.464-0.435-2.71-1.305-3.74-0.873-1.030-2.020-1.544-3.446-1.544-1.265 0-2.672 0.516-4.216 1.545z"></path>
</svg>
