<!-- Generated by IcoMoon.io -->
<svg version="1.1" xmlns="http://www.w3.org/2000/svg" width="32" height="32" viewBox="0 0 32 32">
<title>14</title>
<path fill="#444" d="M8.282 2.279v22.045c0 2.602 1.082 3.903 3.245 3.903h0.515v1.493h-11.623v-1.493h0.742c2.202 0 3.303-1.301 3.303-3.903v-14.467c0-2.642-0.932-3.962-2.791-3.962h-1.14v-1.492h0.456c2.239 0 4.272-0.707 6.094-2.123l1.2-0zM27.48 21.913v2.296c0 2.565 0.89 3.847 2.677 3.847h0.739v1.49h-10.881v-1.49h0.855c1.785 0 2.678-1.264 2.678-3.789v-2.355h-10.939v-2.296l11.565-16.994h3.306v17.338h0.285c1.102 0 1.917-0.878 2.448-2.639h1.367l-0.684 4.593-3.417-0zM24.46 19.617v-14.466l-9.685 14.466h9.685z"></path>
</svg>
