<!-- Generated by IcoMoon.io -->
<svg version="1.1" xmlns="http://www.w3.org/2000/svg" width="32" height="32" viewBox="0 0 32 32">
<title>15</title>
<path fill="#444" d="M9.223 2.258v21.921c0 2.606 1.085 3.911 3.25 3.911h0.551v1.485h-11.675v-1.485h0.771c2.203 0 3.305-1.304 3.305-3.911v-14.377c0-2.643-0.936-3.965-2.81-3.965h-1.156v-1.487h0.441c2.277 0 4.332-0.697 6.168-2.092h1.157zM16.935 2.807h9.969c1.287 0 2.057-0.145 2.315-0.44h1.432l-0.827 3.746h-12.172l-1.156 5.397c1.724-0.697 3.267-1.047 4.626-1.047 2.644 0 4.874 0.883 6.692 2.645s2.725 3.964 2.725 6.609c0 3.084-1.174 5.561-3.523 7.436-2.205 1.725-4.868 2.589-7.988 2.589-1.836 0-3.635-0.276-5.397-0.827l0.549-1.376c1.468 0.403 2.773 0.605 3.911 0.605 2.277 0 4.27-0.751 5.976-2.257s2.559-3.38 2.559-5.619c0-1.945-0.632-3.544-1.898-4.792-1.268-1.248-2.855-1.873-4.765-1.873-1.799 0-3.469 0.625-5.012 1.873l-0.935-0.165 2.917-12.505z"></path>
</svg>
