<!-- Generated by IcoMoon.io -->
<svg version="1.1" xmlns="http://www.w3.org/2000/svg" width="32" height="32" viewBox="0 0 32 32">
<title>16</title>
<path fill="#444" d="M9.528 2.3v21.921c0 2.607 1.085 3.911 3.25 3.911h0.551v1.485h-11.675v-1.485h0.771c2.203 0 3.305-1.304 3.305-3.911v-14.377c0-2.643-0.936-3.965-2.81-3.965h-1.156v-1.487h0.441c2.277 0 4.332-0.697 6.168-2.092h1.157z"></path>
<path fill="#444" d="M16.943 14.223c2.026-1.904 4.067-2.856 6.125-2.856 2.241 0 4.039 0.89 5.391 2.671 1.257 1.629 1.888 3.592 1.888 5.897 0 2.519-0.737 4.729-2.211 6.633-1.628 2.088-3.655 3.133-6.080 3.133-2.918 0-5.252-1.26-7.001-3.778-1.567-2.212-2.35-4.837-2.35-7.878 0-3.223 0.89-6.194 2.671-8.912 1.78-2.717 4.16-4.644 7.138-5.78 1.689-0.645 3.472-0.969 5.344-0.969v1.429c-3.992 0.215-6.971 1.812-8.937 4.791-1.010 1.537-1.671 3.409-1.978 5.621zM16.665 16.986c-0.029 0.552-0.045 1.106-0.045 1.658 0 2.118 0.368 4.084 1.105 5.897 0.951 2.363 2.35 3.546 4.193 3.546 1.596 0 2.793-0.813 3.592-2.442 0.614-1.258 0.921-2.778 0.921-4.56 0-1.902-0.293-3.531-0.875-4.882-0.799-1.842-2.027-2.763-3.685-2.763-2.026-0-3.762 1.183-5.205 3.546z"></path>
</svg>
