<!-- Generated by IcoMoon.io -->
<svg version="1.1" xmlns="http://www.w3.org/2000/svg" width="32" height="32" viewBox="0 0 32 32">
<title>17</title>
<path fill="#444" d="M9.619 2.341v21.921c0 2.606 1.085 3.911 3.25 3.911h0.551v1.485h-11.675v-1.485h0.771c2.203 0 3.305-1.304 3.305-3.911v-14.377c0-2.643-0.936-3.965-2.81-3.965h-1.156v-1.487h0.441c2.277 0 4.332-0.697 6.168-2.092h1.157z"></path>
<path fill="#444" d="M22.494 29.659h-3.976v-0.423c0-2.525 0.795-5.689 2.383-9.495 2.402-5.736 4.617-10.132 6.643-13.189l0.281-0.421h-9.307c-1.342 0-2.363 0.28-3.065 0.841-0.703 0.562-1.223 1.498-1.566 2.807h-1.543l1.682-7.438h0.984c0.592 0.312 1.619 0.468 3.087 0.468h12.159v2.105c-0.435 0.625-0.996 1.622-1.682 2.994-1.311 2.556-2.511 5.534-3.604 8.934-1.62 5.020-2.446 9.291-2.477 12.816z"></path>
</svg>
