<!-- Generated by IcoMoon.io -->
<svg version="1.1" xmlns="http://www.w3.org/2000/svg" width="32" height="32" viewBox="0 0 32 32">
<title>18</title>
<path fill="#444" d="M9.465 2.341v21.921c0 2.606 1.085 3.911 3.25 3.911h0.551v1.485h-11.675v-1.485h0.771c2.203 0 3.305-1.304 3.305-3.911l-0-14.377c0-2.643-0.936-3.965-2.81-3.965h-1.156v-1.487h0.441c2.277 0 4.332-0.697 6.168-2.092h1.157z"></path>
<path fill="#444" d="M18.256 15.817l-0.608-0.414c-1.784-1.196-2.959-2.161-3.521-2.899-0.72-0.919-1.079-1.991-1.079-3.219 0-2.085 0.891-3.786 2.675-5.104 1.658-1.226 3.582-1.84 5.773-1.84 2.063 0 3.895 0.537 5.49 1.609 1.813 1.196 2.722 2.775 2.722 4.738 0 2.392-1.707 4.323-5.115 5.794 3.878 1.84 5.818 4.399 5.818 7.68 0 2.361-0.922 4.23-2.77 5.612-1.656 1.257-3.738 1.884-6.24 1.884-2.346 0-4.364-0.581-6.055-1.748-1.94-1.317-2.909-3.065-2.909-5.241s1.032-3.971 3.097-5.382c0.563-0.367 1.471-0.857 2.722-1.471zM19.849 16.47c-2.815 1.256-4.22 3.232-4.22 5.928 0 1.746 0.57 3.148 1.713 4.205 1.142 1.058 2.604 1.585 4.388 1.585 1.594 0 2.948-0.421 4.058-1.262s1.666-2.012 1.666-3.51c0-2.262-1.522-4.098-4.564-5.505l-3.041-1.441zM22.995 13.747c2.47-1.072 3.707-2.682 3.707-4.828 0-1.473-0.525-2.652-1.571-3.543-1.049-0.889-2.34-1.334-3.872-1.334-1.284 0-2.393 0.338-3.332 1.012-1.033 0.736-1.548 1.718-1.548 2.943 0 1.502 0.719 2.714 2.158 3.634 0.28 0.183 1.532 0.781 3.754 1.793l0.703 0.322z"></path>
</svg>
