<!-- Generated by IcoMoon.io -->
<svg version="1.1" xmlns="http://www.w3.org/2000/svg" width="32" height="32" viewBox="0 0 32 32">
<title>19</title>
<path fill="#444" d="M9.613 2.341v21.921c0 2.606 1.085 3.911 3.25 3.911h0.551v1.485h-11.675v-1.485h0.771c2.203 0 3.305-1.304 3.305-3.911v-14.377c0-2.643-0.936-3.965-2.81-3.965h-1.156v-1.487h0.441c2.277 0 4.332-0.697 6.168-2.092h1.157z"></path>
<path fill="#444" d="M26.032 17.886c-2.022 1.901-4.063 2.852-6.116 2.852-2.238 0-4.032-0.889-5.381-2.668-1.258-1.625-1.886-3.588-1.886-5.887 0-2.483 0.735-4.704 2.206-6.667 1.595-2.117 3.604-3.174 6.026-3.174 2.944 0 5.289 1.273 7.036 3.818 1.565 2.238 2.345 4.889 2.345 7.957 0 4.352-1.442 8.024-4.321 11.014-2.882 2.988-6.485 4.498-10.808 4.528v-1.426c1.318-0.060 2.374-0.214 3.175-0.459 4.412-1.349 6.989-4.644 7.724-9.888zM26.309 15.126c0.029-0.582 0.044-1.134 0.044-1.655 0-2.146-0.367-4.109-1.103-5.887-0.982-2.362-2.39-3.542-4.229-3.542-1.597 0-2.774 0.814-3.543 2.438-0.614 1.258-0.919 2.775-0.919 4.553 0 1.901 0.291 3.525 0.874 4.874 0.796 1.839 2.023 2.76 3.68 2.76 2.021 0 3.753-1.181 5.196-3.542z"></path>
</svg>
