<!-- Generated by IcoMoon.io -->
<svg version="1.1" xmlns="http://www.w3.org/2000/svg" width="32" height="32" viewBox="0 0 32 32">
<title>2</title>
<path fill="#444" d="M26.95 24.041l-2.358 7.959h-19.596v-1.702c0.952-1.061 3.038-3.2 6.258-6.421 1.94-1.941 3.86-3.989 5.763-6.148 0.951-1.060 1.684-1.977 2.195-2.745 1.134-1.646 1.702-3.328 1.702-5.050 0-1.682-0.52-3.165-1.563-4.445-1.043-1.282-2.388-1.923-4.036-1.923-3.548 0-6.329 2.399-8.342 7.192l-1.758-0.659c2.379-6.732 6.128-10.1 11.252-10.1 2.525 0 4.675 0.86 6.45 2.579s2.662 3.842 2.662 6.368c0 3.221-1.847 6.367-5.543 9.44l-3.842 3.182c-2.452 2.051-4.485 3.972-6.092 5.765-0.112 0.109-0.33 0.366-0.659 0.768h10.208c1.573 0 2.763-0.31 3.567-0.934 0.694-0.549 1.374-1.592 2.032-3.128h1.7z"></path>
</svg>
