<!-- Generated by IcoMoon.io -->
<svg version="1.1" xmlns="http://www.w3.org/2000/svg" width="32" height="32" viewBox="0 0 32 32">
<title>20</title>
<path fill="#444" d="M17.013 22.597l-1.828 6.53h-15.185v-1.396c0.738-0.87 2.354-2.626 4.85-5.268 1.503-1.592 2.991-3.273 4.466-5.044 0.737-0.87 1.305-1.622 1.701-2.252 0.879-1.35 1.319-2.73 1.319-4.143 0-1.38-0.403-2.597-1.211-3.647-0.808-1.051-1.851-1.578-3.127-1.578-2.75 0-4.905 1.968-6.464 5.901l-1.362-0.54c1.843-5.523 4.749-8.286 8.72-8.286 1.957 0 3.623 0.705 4.998 2.116s2.063 3.152 2.063 5.225c0 2.643-1.431 5.224-4.296 7.745l-2.977 2.611c-1.9 1.683-3.475 3.259-4.721 4.73-0.087 0.090-0.256 0.301-0.51 0.63h7.911c1.219 0 2.141-0.255 2.764-0.766 0.538-0.45 1.064-1.306 1.575-2.567h1.317z"></path>
<path fill="#444" d="M16.341 16.797c0-3.212 0.598-6.174 1.795-8.885 1.484-3.359 3.516-5.039 6.093-5.039 2.551 0 4.543 1.431 5.975 4.287 1.197 2.358 1.795 5.099 1.795 8.221 0 3.243-0.599 6.174-1.795 8.796-1.459 3.301-3.49 4.949-6.093 4.949-2.474 0-4.438-1.413-5.897-4.242-1.249-2.416-1.874-5.112-1.874-8.088zM19.62 15.338c0 4.242 0.56 7.543 1.68 9.901 0.78 1.649 1.782 2.475 3.006 2.475 2.942 0 4.414-3.448 4.414-10.344 0-3.034-0.235-5.598-0.702-7.691-0.808-3.447-2.174-5.172-4.102-5.172-2.865 0-4.297 3.331-4.297 9.991v0.84z"></path>
</svg>
