<!-- Generated by IcoMoon.io -->
<svg version="1.1" xmlns="http://www.w3.org/2000/svg" width="32" height="32" viewBox="0 0 32 32">
<title>3</title>
<path fill="#444" d="M11.824 17.025l-0.807-1.508 0.535-0.323c2.070-1.258 3.961-2.532 5.676-3.825s2.571-2.766 2.571-4.419c0-1.111-0.412-2.045-1.234-2.799-0.824-0.757-1.789-1.134-2.898-1.134-2.576 0-5.294 1.6-8.157 4.796l-1.342-1.024c2.981-4.526 6.626-6.79 10.936-6.79 1.903 0 3.518 0.467 4.849 1.401 1.508 1.043 2.262 2.461 2.262 4.257 0 1.292-0.54 2.55-1.616 3.77-0.611 0.719-1.69 1.653-3.233 2.802l-0.646 0.485c0.287-0.036 0.629-0.054 1.024-0.054 1.975 0 3.599 0.755 4.875 2.263s1.913 3.268 1.913 5.278c0 3.413-1.438 6.267-4.31 8.566-2.659 2.155-5.73 3.231-9.213 3.231-3.196 0-5.71-0.699-7.543-2.1l0.972-1.348c2.155 1.043 4.112 1.563 5.872 1.563 2.549 0 4.82-0.844 6.813-2.532 1.995-1.688 2.99-3.788 2.99-6.302 0-1.653-0.502-3.062-1.508-4.23-1.006-1.166-2.317-1.75-3.933-1.75-1.474 0.001-3.089 0.575-4.849 1.724z"></path>
</svg>
