<!-- Generated by IcoMoon.io -->
<svg version="1.1" xmlns="http://www.w3.org/2000/svg" width="32" height="32" viewBox="0 0 32 32">
<title>6</title>
<path fill="#444" d="M10.632 13.87c2.374-2.231 4.764-3.345 7.175-3.345 2.625 0 4.731 1.042 6.315 3.128 1.473 1.908 2.212 4.208 2.212 6.908 0 2.95-0.863 5.539-2.59 7.77-1.907 2.445-4.281 3.669-7.123 3.669-3.419 0-6.152-1.476-8.201-4.425-1.836-2.591-2.753-5.667-2.753-9.228 0-3.776 1.043-7.256 3.13-10.44 2.085-3.183 4.873-5.441 8.362-6.771 1.979-0.755 4.067-1.136 6.26-1.136v1.674c-4.676 0.252-8.165 2.123-10.469 5.612-1.183 1.8-1.958 3.993-2.317 6.584zM10.307 17.107c-0.034 0.647-0.053 1.295-0.053 1.943 0 2.481 0.431 4.784 1.294 6.907 1.114 2.769 2.753 4.154 4.911 4.154 1.869 0 3.272-0.952 4.208-2.86 0.719-1.474 1.079-3.254 1.079-5.342 0-2.228-0.343-4.137-1.025-5.719-0.936-2.158-2.374-3.237-4.317-3.237-2.373-0-4.407 1.386-6.097 4.154z"></path>
</svg>
