<!-- Generated by IcoMoon.io -->
<svg version="1.1" xmlns="http://www.w3.org/2000/svg" width="32" height="32" viewBox="0 0 32 32">
<title>7</title>
<path fill="#444" d="M17.425 32h-4.657v-0.495c0-2.958 0.931-6.664 2.792-11.123 2.814-6.72 5.408-11.869 7.781-15.45l0.329-0.493h-10.903c-1.572 0-2.768 0.328-3.59 0.985-0.824 0.658-1.433 1.755-1.834 3.289h-1.808l1.97-8.713h1.152c0.694 0.366 1.897 0.548 3.616 0.548h14.244v2.466c-0.51 0.732-1.167 1.9-1.97 3.507-1.535 2.994-2.941 6.483-4.221 10.465-1.897 5.881-2.865 10.884-2.901 15.013z"></path>
</svg>
