<!-- Generated by IcoMoon.io -->
<svg version="1.1" xmlns="http://www.w3.org/2000/svg" width="32" height="32" viewBox="0 0 32 32">
<title>8</title>
<path fill="#444" d="M12.289 15.785l-0.713-0.484c-2.089-1.401-3.466-2.532-4.125-3.396-0.843-1.076-1.264-2.332-1.264-3.77 0-2.442 1.044-4.435 3.134-5.98 1.942-1.436 4.196-2.155 6.762-2.155 2.417 0 4.563 0.629 6.431 1.885 2.124 1.401 3.189 3.251 3.189 5.55 0 2.802-1.999 5.064-5.992 6.787 4.543 2.155 6.816 5.154 6.816 8.997 0 2.766-1.080 4.956-3.244 6.574-1.94 1.473-4.379 2.207-7.309 2.207-2.748 0-5.112-0.681-7.092-2.048-2.273-1.542-3.407-3.59-3.407-6.14s1.209-4.652 3.628-6.304c0.66-0.43 1.724-1.004 3.188-1.723zM14.155 16.55c-3.298 1.471-4.943 3.786-4.943 6.944 0 2.045 0.667 3.687 2.007 4.926 1.338 1.239 3.051 1.857 5.14 1.857 1.867 0 3.453-0.493 4.753-1.478s1.951-2.356 1.951-4.112c0-2.65-1.782-4.8-5.346-6.449l-3.562-1.688zM17.841 13.361c2.893-1.256 4.343-3.142 4.343-5.656 0-1.725-0.615-3.106-1.841-4.15-1.229-1.041-2.741-1.562-4.536-1.562-1.504 0-2.804 0.396-3.903 1.186-1.21 0.862-1.813 2.012-1.813 3.448 0 1.76 0.842 3.179 2.529 4.257 0.329 0.215 1.794 0.914 4.398 2.1l0.824 0.377z"></path>
</svg>
