<!-- Generated by IcoMoon.io -->
<svg version="1.1" xmlns="http://www.w3.org/2000/svg" width="32" height="32" viewBox="0 0 32 32">
<title>9</title>
<path fill="#444" d="M21.36 18.209c-2.369 2.227-4.759 3.341-7.164 3.341-2.622 0-4.724-1.042-6.303-3.126-1.474-1.903-2.209-4.203-2.209-6.896 0-2.909 0.861-5.511 2.584-7.81 1.869-2.48 4.222-3.718 7.059-3.718 3.449 0 6.195 1.491 8.242 4.472 1.833 2.622 2.747 5.728 2.747 9.321 0 5.098-1.69 9.399-5.062 12.903-3.376 3.501-7.597 5.27-12.661 5.304v-1.67c1.544-0.070 2.781-0.25 3.719-0.538 5.169-1.58 8.188-5.44 9.048-11.583zM21.685 14.977c0.034-0.682 0.052-1.329 0.052-1.938 0-2.514-0.43-4.814-1.292-6.896-1.15-2.766-2.8-4.15-4.954-4.15-1.87 0-3.25 0.954-4.15 2.856-0.719 1.473-1.076 3.25-1.076 5.334 0 2.226 0.341 4.13 1.024 5.71 0.933 2.155 2.37 3.233 4.311 3.233 2.368 0 4.396-1.383 6.087-4.149z"></path>
</svg>
