<!-- Generated by IcoMoon.io -->
<svg version="1.1" xmlns="http://www.w3.org/2000/svg" width="26" height="32" viewBox="0 0 26 32">
<title>ability-companion</title>
<path fill="#444" d="M14.102 9.956c0.573-3.026 2.054-4.979 4.182-6.754 1.223 2.16 1.855 3.603 2.347 6.021 0.733 3.599-2.287 5.722-4.746 4.486-1.293-0.65-2.050-2.348-1.784-3.753zM0.045 11.95c-0.139 2.362-0.021 4.962 1.349 7.020 0.701 1.052 2.108 1.697 3.631 1.052 1.73-0.733 1.516-3.293 0.541-4.492-1.538-1.891-3.406-2.854-5.522-3.58zM8.242 18.587c-1.080 1.712-2.675 2.835-3.581 4.853-0.836 1.863 0.605 3.845 2.062 4.997 1.721-0.793 3.526-2.079 6.010-2.079 2.596 0 4.166 1.189 5.917 2.055 0.012 0.006 0.026 0.010 0.039 0.015 1.73-0.704 2.594-3.253 1.949-5-0.762-2.075-2.162-2.995-3.319-4.841-1.022-1.452-2.197-3.902-4.586-3.894-2.357 0.008-3.379 2.177-4.491 3.894zM11.432 9.712c0.266 1.405-0.49 3.103-1.784 3.753-2.458 1.236-5.478-0.887-4.746-4.486 0.492-2.418 1.123-3.861 2.347-6.021 2.129 1.775 3.609 3.728 4.182 6.754zM25.58 11.962c0.139 2.362 0.021 4.962-1.349 7.020-0.701 1.052-2.108 1.697-3.631 1.052-1.73-0.733-1.517-3.293-0.541-4.492 1.538-1.891 3.406-2.854 5.522-3.58z"></path>
</svg>
