<!-- Generated by IcoMoon.io -->
<svg version="1.1" xmlns="http://www.w3.org/2000/svg" width="31" height="32" viewBox="0 0 31 32">
<title>ability-combat-condition</title>
<path fill="#444" d="M15.785 2.232c0.825 0.121 1.415 0.567 1.869 1.246l12.94 22.51c0.967 1.682-0.247 3.78-2.187 3.78h-25.88c-1.94 0-3.154-2.098-2.187-3.78l12.94-22.51c0.666-1.030 1.336-1.246 2.505-1.246zM15.467 4.735l-12.94 22.51h25.88l-12.94-22.51zM13.525 24.152q0 0.768 0.555 1.261t1.386 0.493 1.386-0.493 0.555-1.261-0.555-1.261-1.386-0.493-1.386 0.493-0.555 1.261zM16.3 20.933c0 0 0.619-0.025 0.639-0.689s0.391-9.151 0.391-9.151 0.045-0.491-0.518-0.491l-2.601 0c0 0-0.563 0-0.557 0.502l0.417 9.116c0 0-0.034 0.687 0.608 0.712h1.622z"></path>
</svg>
