<!-- Generated by IcoMoon.io -->
<svg version="1.1" xmlns="http://www.w3.org/2000/svg" width="23" height="32" viewBox="0 0 23 32">
<title>ability-triggered</title>
<path fill="#444" d="M11.762 1c0.703 0 1.272 0.57 1.272 1.272v11.97c0.856 0.505 1.298 1.35 1.347 2.327-0.015 0.294 0.004 0.185-0.025 0.329l7.92 7.92c0.497 0.497 0.497 1.303 0 1.8s-1.303 0.497-1.8 0l-7.628-7.628c-0.359 0.199-0.76 0.253-1.162 0.274-1.488 0-2.695-1.206-2.695-2.695 0.026-0.978 0.558-2.009 1.497-2.406v-11.891c0-0.703 0.57-1.272 1.272-1.272zM18.076 26.331l-1.709-1.709c-1.436 0.734-2.971 1.266-4.606 1.231-1.2-0.058-2.413-0.201-3.517-0.708v-3.876l-5.24 4.94 5.24 4.791v-3.267c0.346 0.087 0.687 0.197 1.037 0.26 1.226 0.221 1.384 0.205 2.406 0.254 2.258-0.057 4.512-0.613 6.389-1.916zM8.993 7.718v-2.503c-5.225 1.202-8.911 6.022-8.982 11.355 0.054 2.136 0.545 4.304 1.73 6.114l1.806-1.806c-0.716-1.319-1.061-2.811-1.069-4.308 0.103-4.056 2.566-7.651 6.515-8.852zM14.382 5.214v2.457c3.907 1.214 6.651 4.769 6.663 8.898-0.036 1.424-0.296 2.864-0.975 4.134l1.716 1.715c1.048-1.929 1.567-3.633 1.579-5.849-0.135-5.335-3.617-10.21-8.982-11.355z"></path>
</svg>
