<!-- Generated by IcoMoon.io -->
<svg version="1.1" xmlns="http://www.w3.org/2000/svg" width="31" height="32" viewBox="0 0 31 32">
<title>ability-ninjutsu</title>
<path fill="#444" d="M17.289 12.499c1.959 1.21 3.856 2.525 5.821 3.722 2.278-1.377 5.018-1.616 7.61-1.902-1.296 1.528-2.464 3.166-3.839 4.631 1.215 2.794 2.063 5.738 2.731 8.707-1.896-1.431-3.584-3.117-5.519-4.496-2.082 1.427-4.651 1.562-7.058 1.997 0.515-0.862 0.31-0.587 0.91-1.518 2.894-0.74 3.846-1.364 3.731-1.726-0.28-0.885-1.727-2.008-1.747-2.022-1.155-2.357-1.94-4.869-2.64-7.391zM23.425 18.5c-0.755 0-1.366 0.612-1.366 1.366s0.612 1.366 1.366 1.366c0.755 0 1.366-0.612 1.366-1.366s-0.612-1.366-1.366-1.366zM10.49 19.124c1.025 0 1.856 0.831 1.856 1.856s-0.831 1.856-1.856 1.856c-1.025 0-1.856-0.831-1.856-1.856s0.831-1.856 1.856-1.856zM11.7 9.547c-1.851 2.984-3.535 6.094-4.793 9.377-2.318 0.094-4.604 0.498-6.907 0.708 2.365 1.862 4.814 3.881 7.803 4.589 0.65 2.575 1.148 5.192 1.783 7.772 1.589-2.816 3.021-5.748 4.012-8.831 2.14-0.477 4.316-0.797 6.435-1.384-2.334-1.589-4.557-3.556-7.426-4.064-0.477-2.701-0.503-5.454-0.907-8.165zM21.662 4.987c0.511 0.511 0.511 1.341 0 1.852s-1.341 0.511-1.852 0c-0.511-0.511-0.511-1.341 0-1.852s1.341-0.511 1.852 0zM27.043 0.813c-2.412 0.565-4.803 1.277-7.069 2.287-1.203-1.109-2.546-2.048-3.799-3.092 0.251 2.109 0.466 4.338 1.604 6.182-0.96 1.609-2.017 3.163-2.988 4.767 2.198-0.612 4.374-1.36 6.407-2.404 1.305 0.829 2.551 1.755 3.901 2.519-0.371-1.957-0.5-4.047-1.677-5.732 1.109-1.585 2.47-2.972 3.621-4.526z"></path>
</svg>
