<!-- Generated by IcoMoon.io -->
<svg version="1.1" xmlns="http://www.w3.org/2000/svg" width="29" height="32" viewBox="0 0 29 32">
<title>ability-adventure</title>
<path fill="#444" d="M2.739 3.283c4.091 0.419 7.979 2.391 10.467 5.7 0.469 0.598 0.646 1.352 0.61 2.102-0.022 5.021-0.037 10.045-0.030 15.070-1.094-1.009-2.143-2.080-3.366-2.93-2.309-1.492-5.050-2.052-7.682-2.694v-17.248zM1.358 7.24c-0.455 0.057-0.905 0.146-1.358 0.212v17.921c1.295-0.271 2.603-0.479 3.918-0.618 0.037-0.879 0.037-1.759 0.041-2.638-0.857-0.089-1.714-0.163-2.571-0.259-0.096-4.873 0.037-9.746-0.030-14.619zM27.249 7.217l0.002 14.603-0.069 0.009c-1.548 0.222-3.125 0.299-4.629 0.765-1.984 0.599-3.742 1.781-5.25 3.181 1.722-0.41 3.44-0.894 5.217-1.034 0.5-0.047 0.589-0.064 1.197-0.055 1.698 0.026 3.356 0.447 5.033 0.657v-17.804c-1.002-0.209-0.501-0.102-1.501-0.32zM4.99 22.224c-0.070 2.8-0.004 5.601-0.004 8.405 0.499-1.057 1.082-2.073 1.685-3.070 0.658 0.979 1.264 1.999 1.748 3.077-0.015-2.394 0.063-4.788-0.015-7.186-1.108-0.491-2.242-0.913-3.414-1.227zM9.477 25.213c0 0 0.007 0.001 0.034 0.005 0.86 0.155 2.162 0.899 2.162 0.899l0.091 0.038-0.067-0.065c0 0-1.271-1.687-2.202-2.134-0.011-0.005-0.033-0.019-0.033-0.019l0.001 0.043 0.013 1.186 0.001 0.047zM26.012 3.283v17.248c-2.632 0.642-5.372 1.202-7.682 2.694-1.223 0.85-2.272 1.921-3.366 2.93 0.007-5.024-0.007-10.049-0.030-15.070-0.037-0.75 0.14-1.504 0.61-2.102 2.489-3.309 6.376-5.281 10.467-5.7z"></path>
</svg>
