<!-- Generated by IcoMoon.io -->
<svg version="1.1" xmlns="http://www.w3.org/2000/svg" width="25" height="32" viewBox="0 0 25 32">
<title>ability-the-ring-tempts-you</title>
<path fill="#444" d="M9.648 29.891c-3.848-0.007-7.399-2.268-8.942-5.898-0.794-1.869-0.884-3.228-0.441-5.295 1.078-5.031 3.703-9.006 7.546-12.567 2.138-1.984 6.123-4.404 9.19-3.97 5.166 0.73 9.339 6.348 7.877 11.563-0.943 3.37-2.413 6.062-4.48 8.812-2.344 3.123-6.522 7.363-10.75 7.355zM8.904 27.978c2.557 0.713 5.998-2.187 7.779-3.98 2.493-2.506 4.362-5.432 5.606-8.778 0.798-2.148 1.866-7.642-2.060-7.225-0.088 0.010-0.132 0.059-0.132 0.147 0.005 2.193-0.365 4.064-1.11 5.614-2.476 5.158-6.023 9.515-11.583 11.445-0.078 0.028-0.122 0.083-0.132 0.167-0.142 1.232 0.414 2.273 1.631 2.611zM16.607 9.42c-4.475 3.204-8.112 8.122-9.371 13.544-0.029 0.127 0.020 0.18 0.149 0.157 0.431-0.078 0.898-0.254 1.401-0.527 4.129-2.239 6.814-5.773 8.8-10.135 0.509-1.119 0.713-2.317 0.61-3.596-0.005-0.062-0.057-0.11-0.12-0.11-0.009 0-0.017 0.001-0.025 0.003-0.511 0.118-0.993 0.339-1.445 0.664z"></path>
</svg>
