<!-- Generated by IcoMoon.io -->
<svg version="1.1" xmlns="http://www.w3.org/2000/svg" width="28" height="32" viewBox="0 0 28 32">
<title>ability-vigilance</title>
<path fill="#444" d="M24.819 1.054c0.393 0 1.711-0.010 2.105-0.016 0.367 0.492 0.756 0.983 1.076 1.522-0.285 0.569-0.668 1.076-1.025 1.594-0.404 0.005-1.748 0.010-2.151 0.016-0.010-1.040-0.010-2.075-0.005-3.115zM3.716 16.223c2.308-3.638 6.277-6.717 10.785-6.391 4.104 0.166 7.442 3.074 9.662 6.309-1.858 3.193-4.958 5.651-8.627 6.345-0.005 1.139-0.021 2.282-0.052 3.426-0.999-0.021-1.998-0.047-2.986-0.083-0.036-1.118-0.047-2.236-0.062-3.348-3.711-0.605-6.759-3.146-8.72-6.257zM1.527 5.215c0.569 5.584 1.242 11.199 0.668 16.814 0.621 0.274 1.258 0.549 1.889 0.828-0.662 0.228-1.314 0.461-1.967 0.693 0.756 0.88 1.563 1.744 2.613 2.272 3.235 1.729 6.459 3.478 9.678 5.242 3.276-1.951 6.707-3.648 9.921-5.708 1.713-0.994 1.408-3.146 1.366-4.818-0.88-0.057-1.749-0.109-2.619-0.166 0.844-0.181 1.682-0.347 2.536-0.507-0.217-2.51-0.031-5.025 0.047-7.54-0.538-0.305-1.082-0.595-1.625-0.869 0.574-0.145 1.159-0.29 1.744-0.43 0.254-1.91 0.587-3.9 0.696-5.82-1.19 0.16-2.167 0.348-3.666 0.396-6.542 0.209-11.8 0.317-17.834 0.043-0.917-0.042-2.406-0.25-3.447-0.431zM5.693 1.041v3.126h16.545v-3.126h-16.545zM3.181 1.054c0.005 1.040 0.005 2.075-0.005 3.115-0.404-0.005-1.748-0.010-2.151-0.016-0.357-0.518-0.74-1.025-1.025-1.594 0.321-0.538 0.709-1.030 1.076-1.522 0.393 0.005 1.711 0.016 2.105 0.016zM13.834 11.475c-0.295 1.424-0.661 2.967 0.284 4.223 1.035 1.062 2.31-0.080 2.989-0.935 0.605 1.604 0.887 3.6-0.542 4.874-1.869 1.981-5.559 0.988-6.186-1.662-0.519-2.679 1.315-5.106 3.454-6.501zM14 11.219c-2.92 0-5.286 2.367-5.286 5.286s2.367 5.287 5.286 5.287c2.92 0 5.286-2.367 5.286-5.287s-2.367-5.286-5.286-5.286z"></path>
</svg>
