<!-- Generated by IcoMoon.io -->
<svg version="1.1" xmlns="http://www.w3.org/2000/svg" width="28" height="32" viewBox="0 0 28 32">
<title>ability-improvise</title>
<path fill="#444" d="M1.507 13.987c0.317-1.956 1.087-3.76 2.199-5.301l-1.068-1.068 2.847-2.847 1.068 1.068c1.542-1.112 3.346-1.882 5.301-2.199v-1.507h4.026v1.507c1.955 0.317 3.76 1.087 5.301 2.199l1.068-1.068 2.847 2.847-1.068 1.068c1.112 1.542 1.882 3.346 2.199 5.301h1.507v4.026h-1.507c-0.317 1.956-1.087 3.76-2.199 5.301l1.068 1.068-2.847 2.847-1.068-1.068c-1.542 1.112-3.346 1.882-5.301 2.199v1.507h-4.026v-1.507c-1.955-0.317-3.76-1.087-5.301-2.199l-1.068 1.068-2.847-2.847 1.068-1.068c-1.112-1.542-1.882-3.346-2.199-5.301h-1.507v-4.026h1.507zM22.524 20.050c0.577-1.23 0.899-2.603 0.899-4.050 0-5.274-4.282-9.556-9.556-9.556s-9.556 4.282-9.556 9.556c0 5.274 4.282 9.556 9.556 9.556 1.45 0 2.826-0.324 4.058-0.903l-4.616-4.64c-0.118-0.115-0.259-0.184-0.422-0.209-1.337-0.2-2.071-0.503-2.737-1.008-0.096-0.073-1.145-1.059-1.728-1.637-1.012-0.998-1.066-2.233-1.243-3.544-0.027-0.193 0.050-0.327 0.231-0.399l0.431-0.172c0.163-0.067 0.307-0.038 0.431 0.086l2.578 2.587c0.139 0.139 0.307 0.213 0.504 0.209 0.779-0.016 1.266-0.15 1.811-0.642l0.091-0.107c0.379-0.418 0.662-1.048 0.546-1.689-0.035-0.193-0.069-0.365-0.209-0.504l-2.587-2.578c-0.124-0.124-0.153-0.268-0.086-0.431l0.172-0.431c0.072-0.181 0.206-0.259 0.399-0.231 1.312 0.177 2.546 0.231 3.544 1.244 0.579 0.584 1.565 1.633 1.637 1.728 0.505 0.666 0.809 1.4 1.008 2.737 0.024 0.163 0.094 0.304 0.209 0.422l4.633 4.608z"></path>
</svg>
