<!-- Generated by IcoMoon.io -->
<svg version="1.1" xmlns="http://www.w3.org/2000/svg" width="26" height="32" viewBox="0 0 26 32">
<title>ability-disturb</title>
<path fill="#444" d="M20.149 20.541v4.542c2.137 1.346 1.771 3.082 1.144 3.755l-1.791 1.918c-0.577 0.491-1.494 0.821-2.050 0.737l-15.006-3.246c-0.4-0.112-0.623-0.488-0.665-0.89-0.013-0.122-0.023-0.402 0.147-0.566 0.575-0.552 1.492 0.266 2.112 0.406s13.411 2.346 13.411 2.346c0.556 0.084 1.292-0.078 1.868-0.569l1.011-1.055c0.25-0.434-0.043-0.772-0.388-1.029-0.119 0.166-0.311 0.213-0.503 0.233-0.392 0-0.709-0.325-0.709-0.726l-0-4.672c1.123-0.882 0.662-0.474 1.418-1.184z"></path>
<path fill="#444" d="M17.398 22.673c-0.015 1.985-0.002 0.497-0.055 4.463 0 0.075-6.309-0.596-6.559-0.596l-0.701-0.349c2.593-0.814 5.040-2.045 7.316-3.517z"></path>
<path fill="#444" d="M21.363 14.068c0.252 0.064 0.405 0.299 0.539 0.505 1.255 2-1.013 3.589-2.403 4.99-2.557 2.579-9.436 6.283-14.352 6.437-2.591 0.081-6.636 0.066-4.588-3.818 0.492-0.932 2.558-2.528 2.030-0.922-1.014 3.086 0.549 3.15 3.131 2.91 4.791-0.278 11.565-3.96 13.691-5.952 2.182-2.046 1.536-2.6 1.527-3.191 0-0.235 0.028-0.893 0.349-0.957 0.025-0.005 0.051-0.002 0.077-0.002z"></path>
<path fill="#444" d="M8.964 2.724l0.776 0c4.062 0.186 7.342 3.541 7.566 6.969l0.022 0.891c-1.024 0.62-2.196 1.152-3.299 1.608-0.61 0.252-1.123 0.559-1.302 1.148-0.355 1.165 0.594 1.761 1.709 1.701 1.022-0.078 2.023-0.274 2.979-0.638l0.010 3.901c-3.477 2.35-7.55 4.288-11.773 4.706l-0.040 0.003c-0.725 0.067-1.191 0.092-1.565 0.077l-0.113-0.008c-0.067-0.036-0.137-0.069-0.195-0.119-0.224-11.218-0.783-13.792-0.783-13.752l0.267-0.215c1.585 1.413 3.479 2.657 5.564 3.153 1.496 0.356 2.806 0.123 3.187-0.953 0.423-1.194-0.289-2.315-1.88-2.496l-0.267-0.052c-2.155-0.518-4.675-1.323-5.45-3.639 0.051-0.261-0.001-0.148 0.143-0.345 0.846-0.814 1.858-1.432 3.003-1.726 0.469-0.121 0.959-0.142 1.438-0.212z"></path>
<path fill="#444" d="M20.121 12.711l0.037 3.048c-0.248 0.863-0.793 1.244-1.423 1.533l0.002-3.692c0.432-0.363 0.943-0.484 1.384-0.889z"></path>
<path fill="#444" d="M21.805 0.959c2.71-0.020 4.225 2.314 3.661 4.868-1.164 4.491-7.637 7.855-11.091 8.11-0.932 0.050-0.471-0.664 0-0.8 2.836-0.818 7.546-3.582 8.564-6.182 0.968-2.472 0.673-5.364-4.246-4.018l-0.409 0.127c-0.574 0.090-0.955-0.232-0.091-0.8 1.152-0.744 2.238-1.21 3.612-1.304z"></path>
<path fill="#444" d="M5.059 1.151c0.049-0.007 0.023 0.011 0.005 0.022-2.073 1.091-3.673 6.509 4.582 8.328l0.259 0.050c1.352 0.301 0.838 2.074-0.935 1.726-2.096-0.461-10.095-4.503-5.606-9.331 0.41-0.377 1.138-0.698 1.695-0.794z"></path>
<path fill="#444" d="M11.291 0.571c0.787-0.003 1.569 0.121 2.314 0.377 3.064 1.054 5.222 4.1 6.21 7.108 0 0 0.107 0.302 0.196 0.8 0.011 0.062 0.063 0.251 0.007 0.299-0.373 0.32-0.423 0.38-1.159 0.711-0.058 0.026-0.181 0.064-0.166-0.124 0.024-0.302-0.062-0.603-0.122-0.9-2.603-7.595-8.142-7.705-12.326-6.671 0.151-0.091 0.3-0.179 0.449-0.261 1.224-0.671 2.559-1.176 3.958-1.307 0.212-0.020 0.426-0.021 0.639-0.032z"></path>
</svg>
