<!-- Generated by IcoMoon.io -->
<svg version="1.1" xmlns="http://www.w3.org/2000/svg" width="19" height="32" viewBox="0 0 19 32">
<title>ability-revolt</title>
<path fill="#444" d="M2.022 4.614c0.004-0.014 0.008-0.036 0.009-0.051 0.137-1.427 0.199-2.736 1.637-3.037 1.226-0.256 2.195 0.758 2.589 1.463 0.822 1.475-2.617 1.578-4.235 1.624zM7.69 3.201c-0.68 2.2-1.159 4.462-1.559 6.724-0.13 0.738 2.61 1.097 2.835 0.16 0.637-2.654 1.093-4.159 2.12-6.627 0.222-0.532-0.445-1.617-1.498-1.706-0.867-0.073-1.72 0.431-1.899 1.448zM11.249 11.894c1.099-0.267 2.018-3.708 2.936-5.827 0.801-1.848-1.217-2.905-1.853-2.105-1.074 1.35-3.292 6.642-2.15 7.71 0.028 0.026 0.678 0.317 1.067 0.222zM0.146 6.089c-0.146 0.239-0.074 0.446-0.074 0.446 0.506 2.668-0.139 4.502 0.266 6.865 0 0 0 0 0 0 1.341 3.157 5.098 4.911 6.175 8.22 0.297 2.503-0.415 5.142-0.976 7.553 2.748 2.939 7.491 2.847 10.688 0.694-0.178-1.367-0.383-2.728-0.39-4.109-0.264-5.324 4.062-9.783 2.814-15.206-1.13 0.991-2.252 1.982-3.408 2.946 0.009 0.048 0.006 0.101 0.028 0.145 0.317 0.636 0.43 1.246 0.43 1.943 0 0.049-0.043 0.124-0.035 0.172-0.051-0.036-0.092-0.076-0.143-0.113-1.744-1.249-3.442-2.67-5.615-3.054-0.047-0.008-0.093-0.016-0.14-0.023 0 0 0 0 0 0s0 0 0 0 0 0 0 0 0 0 0 0 0 0 0 0c0.447 0.854 0.729 1.565 0.877 2.47 0.010 0.059 0.005 0.339 0.021 0.397 0 0 0 0 0 0s0 0 0 0c-0.046-0.031 0.010 0.011-0.017-0.038-0.79-1.48-1.587-2.31-2.604-3.167-1.36-1.146-2.646-1.497-4.072-2.026 1.374-1.414 2.096-3.284 2.393-5.213-0.049 0.009-0.344-0.003-0.394 0.001-2.104 0.162-1.598 0.574-2.781 0.743-1.488 0.213-2.604-0.358-3.041 0.355zM13.547 11.746c-0.039 0.202 0.081 0.624 0.667 0.697 0.949 0.119 3.143-2.713 3.38-4.982 0.1-0.958-1.288-1.954-1.913-1.097-1.221 1.675-1.72 3.217-2.135 5.382z"></path>
</svg>
