<!-- Generated by IcoMoon.io -->
<svg version="1.1" xmlns="http://www.w3.org/2000/svg" width="26" height="32" viewBox="0 0 26 32">
<title>ability-mutate</title>
<path fill="#444" d="M12.241 11.963v5.495l-3.43-0.951 3.43-4.544zM13.078 11.997v5.454l3.207-0.944-3.207-4.51zM13.161 1.402c-7.266 0.092-13.133 5.848-13.161 13.161 0.034 1.378 0.232 2.749 0.672 4.059 0.579-5.054 5.845-8.965 10.928-8.967-0.029-0.023-0.059-0.046-0.090-0.069-0.808-0.584-2.301-0.992-3.365-1.068-0.032-0.002-0.062-0.010-0.092-0.014-0.129-0.018-0.061 0.002 0.099-0.039 0.512-0.131 1.431-0.196 2.041-0.164 4.839 0.258 8.471 3.94 8.471 8.621-0.019 1.478-0.391 2.928-1.153 4.202l-0.211 3.973c1.83-1.904 2.998-4.798 3.38-7.372 0.101 0.519 0.11 1.050 0.121 1.577-0.056 2.775-1.025 5.656-3.29 7.397v0.027c4.343-2.082 7.072-6.111 7.101-10.975-0.066-4.090-2.022-7.851-5.482-10.091l-0.003-0.030c3.308 1.483 5.892 4.151 7.123 7.581-0.751-6.613-6.134-11.556-12.775-11.806l-0.314-0.005zM8.811 17.575l0.952 11.879 2.478 1.145v-11.877l-3.43-1.146zM16.284 17.575l-3.207 1.138v11.883l2.438-1.142 0.769-11.879zM9.362 11.366c-2.915 0.906-4.701 3.174-4.775 6.248 0.061 2.406 1.272 4.568 3.427 5.708l-0.215-4.026c-0.496-0.914-0.729-1.952-0.736-2.988 0.048-1.905 0.801-3.72 2.3-4.942zM4.342 22.067c0.463 1.903 1.936 3.543 3.898 4.214l-0.137-2.064c-1.598-0.348-2.721-0.934-3.761-2.15z"></path>
</svg>
