<!-- Generated by IcoMoon.io -->
<svg version="1.1" xmlns="http://www.w3.org/2000/svg" width="30" height="32" viewBox="0 0 30 32">
<title>ability-hexproof-black</title>
<path fill="#444" d="M15 1c8.284 0 15 6.716 15 15s-6.716 15-15 15c-8.284 0-15-6.716-15-15s6.716-15 15-15zM6.83 24.078l-1.323 1.323c2.258 2.407 5.424 3.815 8.718 3.981l-1.195-2.070c-2.424-0.307-4.436-1.624-6.2-3.235zM23.016 24.232c-1.581 1.73-3.7 2.591-5.948 3.030l-1.222 2.117c3.217-0.132 6.239-1.57 8.493-3.824l-1.323-1.323zM15 6.098c-5.469 0-9.902 4.433-9.902 9.902s4.433 9.902 9.902 9.902c5.469 0 9.902-4.433 9.902-9.902s-4.433-9.902-9.902-9.902zM25.184 21.417c-1.030 1.699-0.488 0.992-1.539 2.185l1.323 1.323c0.834-0.777 1.503-1.746 1.946-2.796l-1.731-0.712zM3.327 9.412c-1.275 1.956-1.633 4.313-1.748 6.588 0.108 3.117 1.025 6.498 3.299 8.772l1.323-1.323c-1.904-1.994-2.608-4.784-2.742-7.448 0.093-1.444 0.052-1.639 0.533-3.335 0.12-0.424 0.339-0.814 0.509-1.221l-1.173-2.032zM26.698 9.45l-1.2 2.078c0.707 1.388 0.903 2.943 1.043 4.472-0.081 1.241-0.072 1.663-0.432 3.081-0.133 0.525-0.364 1.020-0.546 1.531l1.697 0.699c0.883-1.634 1.069-3.49 1.16-5.31-0.095-2.221-0.445-4.658-1.723-6.55zM14.555 2.601c-4.127 0.134-8.105 2.186-10.428 5.626h2.483c2.037-2.365 4.909-3.447 7.945-3.746v-1.88zM16.372 2.648l-0.927-0.047v1.88c3.207 0.147 5.798 1.399 7.969 3.722h2.443c-1.587-2.403-4.121-4.175-6.866-5.021-0.851-0.263-1.746-0.356-2.619-0.534zM22.153 15.784c0 0.851-0.561 1.285-1.682 1.302h-2.975c-0.587 0-0.88-0.301-0.88-0.905 0-0.724 0.315-1.419 0.944-2.083s1.307-0.995 2.031-0.995c0.672 0 1.267 0.274 1.785 0.82s0.776 1.167 0.776 1.862zM16.307 19.389c0 0.931-0.086 1.396-0.259 1.396-0.465-0.207-0.863-0.31-1.189-0.31-0.328 0-0.527 0.017-0.596 0.052-0.172 0.086-0.328 0.147-0.466 0.181-0.139-0.173-0.207-0.63-0.207-1.371 0-1.345 0.293-2.319 0.88-2.923 0.052 0 0.094 0.026 0.129 0.078v0.905c0-0.241 0.060 0.552 0.181 2.381 0.035 0.034 0.086 0.051 0.155 0.051 0.104 0 0.155-0.12 0.155-0.362l0.285-3.027c0.276 0.621 0.466 1.104 0.569 1.449 0.12 0.242 0.241 0.475 0.362 0.699v0.802zM13.487 16.181c0 0.621-0.579 0.923-1.733 0.905h-1.423c-0.656-0.017-1.164-0.078-1.526-0.182-0.569-0.173-0.854-0.556-0.854-1.145 0-0.677 0.25-1.293 0.75-1.849s1.078-0.833 1.733-0.833c0.741 0 1.435 0.332 2.083 0.995s0.97 1.367 0.97 2.109zM23.395 15.715h-0v-0.207c-0.017-0.172-0.026-0.457-0.026-0.854-0.19-1.138-0.561-2.199-1.113-3.182-0.19-0.327-0.44-0.698-0.75-1.112-0.414-0.552-0.69-0.828-0.828-0.828 0.12 0-0.216 0.173-1.009 0.517-0.793 0.346-1.397 0.509-1.811 0.492 1.052-0.569 1.794-1.103 2.224-1.603-1.328-1.104-3.069-1.656-5.225-1.656-0.5 0-1.216 0.061-2.147 0.181-0.293 0.035-0.734 0.172-1.319 0.414-0.656 0.259-0.984 0.483-0.984 0.673 0 0.81 0.147 1.388 0.44 1.733 0.776 0.656 1.405 1.13 1.889 1.423-0.949-0.345-1.474-0.535-1.578-0.569-0.517-0.12-0.853-0.198-1.009-0.233-0.207-0.776-0.354-1.397-0.439-1.863-2.070 1.673-3.105 3.768-3.105 6.286 0 1.691 0.595 2.648 1.785 2.871 0.862 0.173 1.439 0.293 1.733 0.362 0.482 0.104 0.751 0.164 0.802 0.181 0.293 0.414 0.44 0.69 0.44 0.828 0 0.034-0.018 0.095-0.052 0.181s-0.052 0.155-0.052 0.207l-0.207 3.104c-0.035 0.466 0.035 0.828 0.207 1.087s0.517 0.388 1.035 0.388c0.052 0 0.095-0.017 0.129-0.052l0.078-0.621c0.034-0.207 0.052-0.336 0.052-0.388 0-0.069-0.022-0.202-0.065-0.401s-0.065-0.332-0.065-0.401c0.017-0.052 0.12-0.38 0.311-0.984h0.207c0.31 1.121 0.525 1.966 0.647 2.535 0.345 0.017 0.637 0.017 0.88 0l0.31-2.431h0.31c0.138-0.016 0.225 0.018 0.259 0.104v1.837c-0.034 0 0.009 0.017 0.13 0.052 0.517-0.345 0.923-0.621 1.216-0.828 0.017-0.207-0.009-0.457-0.078-0.75-0.017-0.138 0-0.25 0.054-0.336h0.401c0.214 0.552 0.322 0.888 0.322 1.008 0 0.087-0.023 0.216-0.065 0.388s-0.065 0.302-0.065 0.388c0 0.19 0.069 0.544 0.207 1.061 0.431-0.087 0.811-0.165 1.138-0.233 0.121-0.586 0.181-1.009 0.181-1.268l-0.078-0.828c-0.052-0.448-0.077-0.715-0.077-0.802v-2.095c0-0.5 0.414-0.819 1.241-0.957 1.276-0.207 2.035-0.371 2.277-0.492 0.828-0.414 1.242-1.19 1.242-2.328z"></path>
</svg>
