<!-- Generated by IcoMoon.io -->
<svg version="1.1" xmlns="http://www.w3.org/2000/svg" width="26" height="32" viewBox="0 0 26 32">
<title>ability-deathtouch</title>
<path fill="#444" d="M14.628 0c1.741 0.678 3.785 1.508 4.362 3.481 0.536 2.049-2.12 3.076-2.11 5.040 1.199 0.83 2.525 1.452 3.815 2.125 1.604-1.381 0.678-3.517 0.84-5.333 1.503 1.422 3.532 2.454 4.326 4.478 0.597 1.619 0.374 3.395 0.471 5.090 0.167 4.174-0.653 8.546-3.142 11.987-1.786 2.596-4.721 4.048-7.651 4.959-1.386 0.218-2.823 0.238-4.205 0.015-2.267-0.673-4.519-1.614-6.29-3.218-3.668-3.051-5.146-8.066-5.014-12.7 0.051-2.155-0.152-4.367 0.395-6.477 0.754-2.282 3.056-3.4 4.731-4.923-0.445 1.614-1.528 3.102-1.381 4.832 0.025 1.154 1.128 1.771 1.847 2.495 0.521-2.024-0.162-4.493 1.493-6.087 1.72-1.902 4.696-1.098 6.745-2.434 0.88-0.865 0.627-2.221 0.769-3.329zM4.225 15.949c-0.002 0.049-0.050 0.085-0.031 0.131 0.861 2.103 0.58 4.604-0.025 6.892 1.275 1.533 3.299 1.29 5.070 1.128-0.283 1.386-1.569 2.94-0.349 4.215 0.324-0.248 0.972-0.754 1.295-1.007 0.633 0.572 1.275 1.144 1.928 1.705 0.369-0.673 0.734-1.346 1.113-2.009 0.455 0.663 0.891 1.346 1.326 2.029 0.541-0.511 1.083-1.027 1.624-1.538 0.815 0.405 2.087 1.201 2.261 0.16 0.166-0.994-0.166-2.153-0.995-3.248-0.061-0.081-0.060-0.192-0.086-0.287 1.872 0.233 3.901 0.228 5.202-1.361-0.964-1.816-0.675-4.676-0.051-6.503 0.025-0.073-0.038-0.148-0.061-0.22-0.961-2.955-2.686-4.090-5.13-5.244-4.751-2.343-11.289 0.142-13.090 5.156zM6.353 20.983c1.7 1.037 6.114 0.525 5.195-1.773-0.464-1.159-1.717-3.235-2.981-2.73-1.434 0.573-3.251 2.686-2.213 4.503zM11.117 25.403c0.754-0.309 1.497-0.918 2.181-1.374 0.729 0.541 1.41 0.957 2.159 1.473-0.349-1.746-0.629-3.213-1.656-4.703-1.056-1.533-2.379 2.894-2.683 4.604zM20.203 20.983c-1.7 1.037-6.114 0.525-5.195-1.773 0.464-1.159 1.717-3.235 2.981-2.73 1.433 0.573 3.251 2.686 2.213 4.503z"></path>
</svg>
