<!-- Generated by IcoMoon.io -->
<svg version="1.1" xmlns="http://www.w3.org/2000/svg" width="26" height="32" viewBox="0 0 26 32">
<title>ability-incubate</title>
<path fill="#444" d="M12.144 1.116c-0.353 1.78-0.734 3.569-0.539 5.395-2.756 1.929-5.298 4.996-4.717 8.593 0.548 2.681 1.789 6.278 5.061 6.367 0.014 0.809 0.033 1.622 0.060 2.435 0.437 0.284 0.869 0.567 1.306 0.85 0.167 0.479 0.335 0.957 0.502 1.436-0.056-2.347-0.665-4.666-1.854-6.692 0.195-0.046 0.59-0.135 0.785-0.177-0.288-0.711-0.391-1.12-0.787-1.781-0.17-0.283-0.699-0.954-0.699-0.954s0.515-0.645 0.651-0.991c0.584-1.486 0.959-3.105 1.020-4.681 0.139-3.067 0.651-5.701 0.807-8.859 0 0 0.057-0.984 0.184-0.984s0.242 0.701 0.269 0.864c0.382 2.309 0.757 4.007 1.157 6.107 0.613 2.979 1.366 5.93 2.3 8.825-0.404 1.515-1.51 2.821-1.534 4.443 0 1.032 0.181 2.054 0.26 3.081 0.511-1.445 1.018-2.895 1.482-4.354 0.084 0.762 0.186 1.52 0.297 2.272 1.357-1.915 1.942-4.22 2.523-6.455 0.655-3.044-0.809-6.357-3.067-8.416-1.961-1.496-1.264-4.252-2.040-6.325l0.546 0.297c1.227 1.51 1.048 3.272 2.256 4.791 0.957 1.273 2.101 2.449 2.649 3.983 0.73 1.413 0.725 3.141 1.757 4.392-1.25 3.369-2.812 6.641-3.555 10.177 3.155-2.119 4.749-5.855 6.013-9.304 0.195-0.051 0.59-0.153 0.785-0.209-0.045 0.626 0.108 2.018 0.108 2.018s-0.341 0.296-0.425 0.425c-1.129 1.984-1.97 3.97-2.606 6.154-2.928 1.687-5.791 4.055-7.376 7.085l-0.048-0.068c-1.757-2.946-5.387-3.706-8.589-3.534-1.482-1.947-3.297-3.593-5.212-5.117-1.245-2.458-2.266-5.397-1.732-8.218 0.957 2.654 1.399 5.549 3.165 7.84 0.465 0.019 0.935 0.228 1.4 0.246-0.483-1.273-0.963-2.751-1.047-4.122 0.943 1.315 1.566 2.821 2.514 4.131 0.381 0.573 0.666 1.117 1.233 1.466 0.148 0.091 0.696 0.058 0.85 0.142 0.638 0.346 1.055 0.722 1.671 1.076 0.274-0.437 0.638-0.969 0.907-1.41-1.571-1.733-3.732-3.021-4.731-5.205-1.994-3.69-0.437-8.528 2.593-11.158 1.775-1.515 1.706-3.657 2.831-5.581zM14.342 11.935c-0.153 1.046-0.083 2.218 0.178 3.231 0.191 1.097 0.427 2.085 0.561 3.191 0.102-1.227 0.435-2.414 0.118-3.645-0.255-0.991-0.555-1.89-0.857-2.778z"></path>
</svg>
