<!-- Generated by IcoMoon.io -->
<svg version="1.1" xmlns="http://www.w3.org/2000/svg" width="15" height="32" viewBox="0 0 15 32">
<title>ability-investigate</title>
<path fill="#444" d="M13.016 0.043c-0.025 1.258-0.11 2.643-0.8 3.889-0.608 1.099-2.592 1.324-2.427 3.047 0.007 0.073 0.009 0.254 0.083 0.262 0.441 0.046 0.786-0.167 1.405 0.199 0.063 0.037 0.187 0.139 0.254 0.173 0.062 0.877-0.033 1.905-0.082 2.785 0.061 0.029 0.165 0.066 0.229 0.088 1.178 0.404 2.87 1.47 3.682 3.776-0.165 9.403-0.234 13.526-0.234 13.553s-0.626 0.733-0.932 1.057c-1.147 0.999-2.211 2.084-3.352 3.086-3.386-0.766-6.745-1.658-10.123-2.458-0.849-0.068-0.711-1.040-0.71-1.663 0.004-2.42 0.112-4.678 0.197-7.232 0.068-1.848-0.16-4.256 0.678-5.973 1.084-1.837 2.508-3.321 4.579-4.25 0.042-0.019 0.081-0.043 0.121-0.064 0.003-0.857-0.093-1.782-0.014-2.634 0.073-0.033 0.181-0.118 0.249-0.149 0.495-0.224 0.575-0.51 1.833-0.334 0.029 0.004 0.011-0.179 0.014-0.207 0.138-1.613-1.529-1.703-2.096-2.22-0.678-0.618-1.409-1.529-1.409-2.813 0-0.469-0.449-0.723-0.494-0.882-0.164-0.576-0.083-0.965-0.083-0.965l9.432-0.069zM3.407 15.798c-0.921 0.011-1.473 0.139-2.233 0.611-0.216 7.715-0.154 11.723-0.154 11.723s0.4 0.207 1.204 0.393c2.489 0.577 4.999 0.971 7.534 1.204 0.060-12.008 0.058-12.231 0.060-12.228 0.028 0.028-3.428-1.664-5.585-1.696l-0.825-0.006zM13.898 15.639c-0.621 0.179-1.227 0.441-1.779 0.869-0.376 0.291-0.833 0.622-0.979 1.048 0.028 11.528 0.013 11.657 0.014 11.735 1.15-0.627 2.965-2.482 2.951-2.468-0.174-10.967-0.118-11.209-0.207-11.183zM10.094 10.465l0.068 0.011c-1.435 0.095-2.564 0.102-3.58 0.023-0.090-0.007-0.169 0.056-0.176 0.141s0.066 0.134 0.149 0.166c0.993 0.386 2.183 0.42 3.596 0.034 0.087-0.024 0.158-0.168 0.152-0.253s-0.119-0.127-0.209-0.121zM8.486 1.604l-2.834 0.038c0.006 0.724-0.256 1.59 0.267 2.192 0.596 0.732 1.457 1.287 2.436 1.324 1.232 0.128 2.279-0.654 2.903-1.628 0.156-0.616 0.084-1.292 0.061-1.916l-2.834-0.011zM8.886 22.921c-1.481 0.976-2.634 1.26-3.326-0.621-0.654-0.13-0.913 0.221-1.44 0.514 0 0.639-0.243 1.236-0.243 1.919 2.112 0.399 0.356 2.042 0.565 3.155 0.054 0.015 0.21 0.093 0.262 0.116 1.227 0.563 2.581 0.609 3.907 0.309 0.057-0.013 0.102-0.027 0.16-0.035 0.416-0.093 0.257-0.585 0.231-0.732-0.080-0.643-0.284-1.152-0.045-2.015 0.262-0.947 0.497-1.62 0.187-2.62zM7.282 19.207c-0.019 0.048-0.041 0.102-0.055 0.148-0.12 0.4-0.466 0.554-0.594 0.917-0.225 0.635 0.296 0.656 0.159 0.929-0.115 0.23-0.319 0.194-0.467 0.49-0.163 0.325-0.103 0.718 0.148 1.026 0 0 0 0 0 0s0 0 0 0c0.494 0.647 1.728 0.123 1.892-0.547 0.301-1.232-0.667-1.143-0.523-1.75 0.118-0.497-0.303-0.904-0.559-1.214z"></path>
</svg>
