<!-- Generated by IcoMoon.io -->
<svg version="1.1" xmlns="http://www.w3.org/2000/svg" width="29" height="32" viewBox="0 0 29 32">
<title>ability-haste</title>
<path fill="#444" d="M0.006 1.25c3.176 1.066 6.289 2.311 9.451 3.425-0.934 1.239-1.944 2.408-2.954 3.584 1.785 0.948 3.984 2.14 5.803 3.040-0.045 0.072-0.066 0.168-0.137 0.219-1.448 1.038-2.61 3.828-1.066 5.792 1.764 2.256 4.444 4.094 5.191 7.049-3.667-2.256-7.467-4.475-11.231-6.564 0.595-0.969 1.28-1.882 1.979-2.781-2-1.598-4.027-3.169-6.082-4.705 1.315-1.571 2.671-3.1 4.006-4.65-1.716-1.398-3.28-2.975-4.961-4.407zM27.774 2.556h-9.785c-0.569 2.13-1.12 4.266-1.625 6.413-0.457 2.588-3.992 3.204-4.338 5.819-0.201 2.221 2.027 3.432 3.273 4.926 2.581 2.671 2.747 7.113 6.179 9.043 2.311 1.211 6.918 2.52 7.44 1.775 1.53-2.186-2.795-4.907-2.982-8.782-0.004-0.092-0.086-2.384-0.688-3.75-2.235-5.761-0.63-10.276 2.526-15.444z"></path>
</svg>
