<!-- Generated by IcoMoon.io -->
<svg version="1.1" xmlns="http://www.w3.org/2000/svg" width="30" height="32" viewBox="0 0 30 32">
<title>ability-hexproof-green</title>
<path fill="#444" d="M15 1c8.284 0 15 6.716 15 15s-6.716 15-15 15c-8.284 0-15-6.716-15-15s6.716-15 15-15zM6.83 24.078l-1.323 1.323c2.258 2.407 5.424 3.815 8.718 3.981l-1.195-2.070c-2.424-0.307-4.436-1.624-6.2-3.235zM23.016 24.232c-1.581 1.73-3.7 2.591-5.948 3.030l-1.222 2.117c3.217-0.132 6.239-1.57 8.493-3.824l-1.323-1.323zM15 6.098c-5.469 0-9.902 4.433-9.902 9.902s4.433 9.902 9.902 9.902c5.469 0 9.902-4.433 9.902-9.902s-4.433-9.902-9.902-9.902zM25.184 21.417c-1.030 1.699-0.488 0.992-1.539 2.185l1.323 1.323c0.834-0.777 1.503-1.746 1.946-2.796l-1.731-0.712zM3.327 9.412c-1.275 1.956-1.633 4.313-1.748 6.588 0.108 3.117 1.025 6.498 3.299 8.772l1.323-1.323c-1.904-1.994-2.608-4.784-2.742-7.448 0.093-1.444 0.052-1.639 0.533-3.335 0.12-0.424 0.339-0.814 0.509-1.221l-1.173-2.032zM26.698 9.45l-1.2 2.078c0.707 1.388 0.903 2.943 1.043 4.472-0.081 1.241-0.072 1.663-0.432 3.081-0.133 0.525-0.364 1.020-0.546 1.531l1.697 0.699c0.883-1.634 1.069-3.49 1.16-5.31-0.095-2.221-0.445-4.658-1.723-6.55zM14.555 2.601c-4.127 0.134-8.105 2.186-10.428 5.626h2.483c2.037-2.365 4.909-3.447 7.945-3.746v-1.88zM16.372 2.648l-0.927-0.047v1.88c3.207 0.147 5.798 1.399 7.969 3.722h2.443c-1.587-2.403-4.121-4.175-6.866-5.021-0.851-0.263-1.746-0.356-2.619-0.534zM19.276 16.581c-0.912 0.173-1.757 0.465-2.532 0.879 0.258-0.31 0.563-0.59 0.917-0.84s0.703-0.495 1.047-0.737l0.568 0.698zM17.856 13.531c0.034 0.671-0.354 1.24-1.163 1.706v-2.222c0.568 0.258 0.956 0.431 1.163 0.517zM14.496 14.255l-0.75-0.853v-0.387c0.085 0 0.336 0.035 0.75 0.103v1.137zM12.919 15.056c-0.172 0-0.457-0.047-0.853-0.142s-0.697-0.133-0.904-0.117c0-0.241 0.362-0.456 1.085-0.646 0.19 0.31 0.414 0.611 0.672 0.905zM13.384 18.261c-1.154-1.102-2.188-1.628-3.101-1.577 0.414-0.223 0.861-0.335 1.344-0.335 0.396 0 0.788 0.164 1.176 0.491s0.581 0.689 0.581 1.085v0.336zM24.032 17.124c0-0.499-0.223-0.879-0.672-1.137 0.241-0.551 0.362-0.982 0.362-1.292 0-1.103-0.552-1.964-1.654-2.585 0.137-0.241 0.207-0.404 0.207-0.491 0-0.466-0.19-0.792-0.569-0.982-0.259-0.086-0.448-0.137-0.569-0.155-0.173-0.689-0.483-1.257-0.931-1.706-0.517-0.5-1.112-0.75-1.783-0.75-0.19 0-0.492 0.039-0.905 0.117s-0.517 0.116-0.31 0.116c0-0.017-0.12-0.155-0.362-0.413-0.655-0.689-1.413-1.034-2.275-1.034-1.653 0-2.73 0.853-3.23 2.559-0.396-0.43-0.904-0.646-1.525-0.646-0.569 0-1.043 0.19-1.421 0.569s-0.569 0.853-0.569 1.422c0 0.482 0.095 0.818 0.284 1.007-0.396 0.207-0.577 0.586-0.543 1.137-0.431 0.052-0.78 0.242-1.047 0.569-0.268 0.328-0.401 0.707-0.401 1.138 0 0.465 0.215 0.922 0.646 1.369-0.534 0.414-0.8 0.939-0.8 1.577 0 0.413 0.207 0.87 0.62 1.37s0.827 0.75 1.24 0.75c1.274 0 2.050-0.492 2.325-1.474 1.034 0.19 1.774 0.5 2.223 0.931 0.517 0.482 0.776 1.215 0.776 2.197 0 0.431-0.022 0.697-0.065 0.802-0.043 0.103-0.198 0.22-0.465 0.348s-0.462 0.194-0.581 0.194c-0.052 0-0.121-0.008-0.207-0.026-0.087-0.017-0.156-0.026-0.207-0.026-0.31 0-0.758 0.173-1.344 0.517-0.5 0.293-0.801 0.491-0.904 0.594l0.723 0.051c0.465-0.103 0.81-0.155 1.034-0.155 0.466 0 0.965 0.086 1.499 0.258 0.223 0.672 0.353 1.034 0.387 1.086h0.13c0.465-0.706 0.784-1.068 0.956-1.086 0.086 0.224 0.163 0.448 0.232 0.672 0.156 0.327 0.345 0.551 0.569 0.672 0-0.121 0.095-0.345 0.284-0.672s0.336-0.491 0.44-0.491c0.103 0 0.352 0.164 0.749 0.491s0.74 0.499 1.034 0.517c0.086-0.345 0.138-0.603 0.155-0.775h0.336c0.086 0 0.262 0.034 0.529 0.103s0.478 0.103 0.634 0.103c0.585 0 0.878-0.103 0.878-0.31l-0.723-0.362c0.603-0.138 1.025-0.189 1.266-0.155 0.052-0.172-0.095-0.31-0.44-0.414-0.242-0.068-0.474-0.103-0.698-0.103h-0.31c-0.156 0.017-0.267 0.026-0.336 0.026-0.104-0.017-0.384-0.099-0.84-0.246s-0.758-0.327-0.904-0.543c-0.147-0.215-0.22-0.556-0.22-1.021 0-0.293 0.051-0.75 0.155-1.37 0.121-0.758 0.276-1.241 0.465-1.447 0.12-0.138 0.586-0.319 1.396-0.543 0.758-0.224 1.266-0.336 1.525-0.336l1.215 0.052c0.258 0.517 0.663 0.775 1.214 0.775 0.345 0 0.651-0.138 0.918-0.413s0.401-0.585 0.401-0.931z"></path>
</svg>
