<!-- Generated by IcoMoon.io -->
<svg version="1.1" xmlns="http://www.w3.org/2000/svg" width="26" height="32" viewBox="0 0 26 32">
<title>ability-daybound-nightbound</title>
<path fill="#444" d="M16.806 17.537c0 0 2.224 0.698 3.549 1.142-0.544 0.672-1.376 1.94-1.389 1.953s-2.737-0.014-2.737-0.014l0.619-0.592c0 0-0.041-2.49-0.041-2.49zM10.313 8.767c-0.196 0.026-0.223 0.031-0.537 0.159 0.464 0.764 1.084 0.995 1.907 0.708 0.010-0.004 0.021-0.007 0.032-0.010-0.413-0.39-0.783-0.94-1.402-0.856zM9.637 8.062c1.915-0.212 2.125 0.898 3.472 2.121-0.026 0.009-0.052 0.017-0.078 0.026-2.038 0.711-3.573 0.14-4.723-1.753-0.013-0.021 0.686-0.323 1.329-0.394zM3.323 1.332l-0.483 0.026c-0.439 1.618-0.809 3.259-1.362 4.844 0.019-0.017 0.037-0.017 0.060-0.031 0.493-0.308 1.145-0.691 1.542-1.071 0.731 2.066 1.62 4.303 1.15 6.57-1.138-1.143-2.917-2.453-2.656-4.313-0.475 0.224-1.051 0.45-1.526 0.67-0.087 1.143-0.169 2.486 0.832 3.286 1.632 1.325 3.295 2.678 4.301 4.575-0.128 0.471-0.26 0.941-0.393 1.412 0.315 0.462 0.89 0.978 1.219 1.43-0.407 0.763-1.482 2.246-1.482 2.246s2.895-0.070 2.895-0.070c0 0-2.12 2.005-2.787 3.216 0.052 0.048 0.152 0.074 0.22 0.108 0.834 0.418 1.636 0.862 1.595 1.747-0.128 1.705-1.439 3.253-2.266 4.693 0 0 2.107-0.878 3.763-2.078 1.152-0.834 2.496-0.604 3.799-0.943-0.462-0.43-1.11-0.927-1.572-1.361 1.718-0.032 3.637-0.021 5.085-1.095-0.59-0.069-1.877-0.207-2.467-0.276 1.91-1.106 4.353-1.38 5.98-2.952-1.636-0.018-3.38-0.074-5.016-0.165 0.704-0.535 2.045-1.663 2.045-1.663s-2.498-1.799-2.513-1.794c-0.015 0.005-1.618 2.515-1.618 2.515s-2.456-3.28-2.456-3.28c0 0-1.672 2.033-1.721 1.985s-0.63-1.872-0.657-2.85c0.265 0.516 0.777 1.563 0.777 1.563s1.616-2.11 1.616-2.11c0 0 2.397 3.206 2.397 3.206s1.353-2.529 1.353-2.529c0 0 3 2.471 3 2.471s0.031-3.041 0.031-3.041c0 0 4.264 1.486 4.347 1.458 1.981-0.674 3.225-0.88 5.245-0.821-1.069-0.873-2.189-1.741-3.537-2.134-1.38-0.494-2.863-0.376-4.184-1.034-1.81-1.549-2.849-3.971-4.718-5.461-1.641-1.028-3.904-1.064-5.284-2.54-1.252-1.307-2.852-2.564-3.396-4.383-0.551-0.045-0.166-0.020-1.158-0.026z"></path>
</svg>
