<!-- Generated by IcoMoon.io -->
<svg version="1.1" xmlns="http://www.w3.org/2000/svg" width="24" height="32" viewBox="0 0 24 32">
<title>ability-cleave</title>
<path fill="#444" d="M10.467 0.445c-1.341 1.359-2.652 2.756-3.605 4.386 2.87-2.321 6.569-3.853 10.451-3.489-0.865 0.342-1.741 0.663-2.605 1 1.547-0.027 3.129-0.337 4.658 0.065 1.782 0.38 3.17 1.554 4.634 2.5-2.417-1.136-5.144-2.027-7.928-1.391-4.233 0.967-6.396 4.329-6.86 6.563-0.576 2.771 0.449 6.516 1.915 9.562-0.035 0.036-0.085 0.101-0.113 0.139-0.977 1.348-1.405 2.016-2.848 2.389-0.314 0.081-2.175 0.433-2.175 0.433 0.536 1.205 0.686 1.617 0.694 1.644 0.195 0.63 0.065 1.129-0.062 1.735-3.599-2.564-5.181-6.691-6.278-10.607-0.571-1.967-0.318-4.005-0.071-5.989 0.288 2.821 0.67 5.707 2.041 8.283 0.229-4.12-0.418-8.696 2.123-12.343 1.917-1.712 3.999-3.277 6.028-4.881zM17.716 13.818c-2.376 3.207-4.415 6.164-7.557 8.771-0.85 0.705-1.633 0.858-2.181 0.858-0.268 0-0.634-0.090-0.597-0.056 1.414 1.306 0.536 3.172 0.202 4.808 0 0 0 0 0 0s0 0 0 0 0 0 0 0c1.070-0.543 2.017-1.647 3.358-1.408 1.453 0.766 1.464 2.506 0.182 3.435 0.153 0.223 0.459 0.674 0.612 0.902 1.729-0.625 3.588-1.288 4.687-2.766 1.359-1.603 1.359-3.761 0.823-5.647-1.323 1.027-2.416 2.12-4.099 2.564-0.238 0.063-0.745 0.054-0.918-0.063-0.295-0.199-0.374-0.88-0.113-1.236 1.569-2.143 2.629-4.42 4.277-6.483 1.899-2.377 3.588-5 6.369-6.609-0.435-1.326-1.723-1.788-3.123-1.81-0.553 1.603-0.888 3.326-1.923 4.739z"></path>
</svg>
