<!-- Generated by IcoMoon.io -->
<svg version="1.1" xmlns="http://www.w3.org/2000/svg" width="17" height="32" viewBox="0 0 17 32">
<title>ability-eternalize</title>
<path fill="#444" d="M8.372 21.557l5.114 5.547c-0.216 0.886-0.433 1.772-0.649 2.657h-8.411c-0.486-2.025-1-4.044-1.514-6.062l5.46-2.142zM15.463 18.776l-6.014 2.359 4.334 4.7c1.133-4.709 0.573-2.356 1.679-7.059zM0.846 15.137c0.602 2.501 1.203 5.003 1.821 7.5l13.183-5.171c0.066-1.068 0.031-0.51 0.103-1.675l-15.106-0.654zM15.778 6.777l-15.778 3.384c0.177 1.299 0.351 2.598 0.595 3.886l15.701 0.68c0.609-2.516 0.291-1.208 0.954-3.925-1.011-2.744-0.521-1.402-1.472-4.024zM6.681 2.249c-1.339 0-2.678 0.015-4.018 0.024-1.668 4.512-0.861 2.267-2.422 6.733l15.223-3.265c-0.883-2.285-0.436-1.125-1.34-3.478l-2.831-0.013c-1.537 0-3.074-0-4.611-0.002z"></path>
</svg>
