<!-- Generated by IcoMoon.io -->
<svg version="1.1" xmlns="http://www.w3.org/2000/svg" width="29" height="32" viewBox="0 0 29 32">
<title>ability-ward</title>
<path fill="#444" d="M14.465 22.978c0.697 1.282 1.058 2.718 1.059 4.179-0.024 1.094-0.205 2.183-0.6 3.204-0.301 0.015-0.118 0.008-0.548 0.014v0l-0.356-0.005c-0.431-1.025-0.579-2.11-0.613-3.213 0.037-1.454 0.329-2.905 1.059-4.179zM9.383 18.761c-1.905 2.326-4.708 3.798-7.733 3.927 2.149 3.957 6.018 6.868 10.52 7.515-0.281-0.992-0.441-2.013-0.458-3.045 0.019-2.017 0.564-4.042 1.699-5.723-1.038-1.293-2.466-2.16-4.029-2.673zM19.542 18.755v0c-1.58 0.476-2.961 1.429-4.024 2.679 1.157 1.683 1.648 3.705 1.699 5.723-0.026 1.019-0.137 2.041-0.446 3.016 4.393-0.671 8.263-3.597 10.331-7.489-2.954-0.179-5.69-1.649-7.56-3.929zM6.674 18.308c-2.238 0.056-4.24 0.803-5.921 2.296 0.044 0.142 0.001 0.004 0.149 0.408 0.089 0.002 0.178 0.003 0.267 0.006 2.383-0 4.624-0.972 6.3-2.649-0.472-0.056-0.207-0.032-0.796-0.061zM22.256 18.308c-0.589 0.020-0.322-0.002-0.803 0.053 1.682 1.747 3.909 2.596 6.308 2.657l0.086-0.002c0.165-0.449 0.106-0.268 0.19-0.54-1.695-1.428-3.566-2.105-5.781-2.168zM17.292 13.315c-0.94 0.311-1.934 0.395-2.917 0.42-0.919-0.019-1.86-0.091-2.743-0.366-0.114 1.398-0.6 2.708-1.264 3.931 1.268 0.436 2.388 1.181 3.395 2.053 0.245 0.222 0.468 0.468 0.702 0.702 1.14-1.178 2.517-2.245 4.098-2.752-0.709-1.22-1.129-2.587-1.271-3.988zM4.177 5.875c-2.668 2.668-4.174 6.356-4.177 10.125 0.012 0.934 0.077 1.87 0.274 2.785 1.81-1.434 4.12-2.092 6.4-2.171 0.626 0.017 0.701 0.008 1.459 0.106 0.188 0.024 0.372 0.070 0.559 0.105 0.639-0.995 1.043-2.144 1.226-3.31 0.038-0.245 0.050-0.494 0.075-0.741-2.857-1.294-5.018-3.863-5.815-6.9zM24.551 5.853c-0.624 2.297-1.945 4.361-3.868 5.787-0.703 0.525-0.981 0.644-1.753 1.062 0.116 1.446 0.496 2.922 1.318 4.139 0.656-0.165 1.335-0.195 2.007-0.227 2.248 0.043 4.434 0.711 6.241 2.072 0.181-0.883 0.247-1.787 0.253-2.686-0.048-3.777-1.483-7.481-4.199-10.147zM14.375 1.625c-2.508 0.032-4.972 0.641-7.151 1.902 2.063 1.393 3.515 3.623 4.156 6.006 0.234 0.913 0.222 1.148 0.317 2.085 0.859 0.308 1.771 0.4 2.677 0.423 0.746 0.002 1.488-0.098 2.212-0.279 0.22-0.055 0.434-0.135 0.651-0.202 0.215-3.099 1.714-5.971 4.215-7.841 0.144-0.106 0.084-0.063 0.177-0.13-2.17-1.318-4.73-1.945-7.254-1.965zM5.678 4.558l-0.040 0.030c0.52 2.57 1.935 4.965 4.28 6.244-0.519-2.563-1.896-4.987-4.24-6.274zM23.1 4.648c-2.284 1.473-3.525 3.422-4.066 6.064 2.284-1.473 3.525-3.422 4.066-6.064z"></path>
</svg>
