<!-- Generated by IcoMoon.io -->
<svg version="1.1" xmlns="http://www.w3.org/2000/svg" width="15" height="32" viewBox="0 0 15 32">
<title>ability-proliferate</title>
<path fill="#444" d="M14.306 20.953c0.304 0.718 0.422 1.481 0.444 2.255 0 3.638-3.302 6.587-7.375 6.587s-7.375-2.949-7.375-6.587c0.001-0.556 0.079-1.111 0.232-1.646 0.059-0.207 0.141-0.406 0.212-0.609 1.247 2.809 3.923 4.264 6.931 4.332 2.453-0.016 4.905-1.109 6.307-3.172 0.323-0.475 0.379-0.642 0.623-1.16zM14.306 13.434c-0.244 0.518-0.301 0.685-0.623 1.16-1.402 2.062-3.855 3.156-6.307 3.172-3.008-0.068-5.684-1.523-6.931-4.332-0.071 0.203-0.153 0.402-0.212 0.609-0.153 0.535-0.232 1.090-0.232 1.646 0 3.638 3.302 6.587 7.375 6.587s7.375-2.949 7.375-6.587c-0.022-0.774-0.14-1.537-0.444-2.255zM7.375 2.204c-0.232 0.010-0.486 0.052-0.646 0.239h-0.001l-0.001 0.002-0.006 0.006 0.003-0c-0.117 0.312-0.253 0.615-0.399 0.914-1.313 2.801-3.67 3.548-6.184 3.715-0.074 0.649-0.056 0.357-0.070 0.875 0.217 3.956 3.469 6.505 7.303 6.586v0l0.352-0.012c0.616-0.060 0.774-0.055 1.378-0.192 3.043-0.691 5.479-3.181 5.573-6.382-0.015-0.519 0.003-0.227-0.070-0.875-2.513-0.167-4.87-0.915-6.184-3.715-0.143-0.305-0.294-0.604-0.403-0.923l-0.003-0.004c-0.112-0.139-0.358-0.235-0.643-0.235z"></path>
</svg>
