<!-- Generated by IcoMoon.io -->
<svg version="1.1" xmlns="http://www.w3.org/2000/svg" width="25" height="32" viewBox="0 0 25 32">
<title>ability-adamant</title>
<path fill="#444" d="M1.224 1.087c0.383 0.233 0.621 0.825 0.786 1.215 0.172 0.404 0.351 0.85 0.367 1.296-0.011 0.438-0.251 0.888-0.669 1.065v0.124h5.994l1.649 4.026-0.437 0.776h-7.207v20.81c0 0.287-0.233 0.52-0.52 0.52s-0.52-0.233-0.52-0.52v-25.736c-0.426-0.181-0.647-0.624-0.669-1.065 0.066-0.723 0.355-1.444 0.725-2.065 0.095-0.159 0.252-0.424 0.463-0.451l0.035 0.005zM9.060 6.412l1.164 2.547-1.164 2.231h11.060l-4.851-1.601 6.403-0.922-6.5-0.873 3.105-1.382h-9.216zM4.516 12.411c-0.423 0-1.188 1.86-1.188 2.516 0.022 0.44 0.243 0.884 0.669 1.065v14.407c0 0.287 0.233 0.52 0.52 0.52s0.52-0.233 0.519-0.52v-9.481h7.207l0.437-0.776-1.649-4.026h-5.994l0-0.124c0.418-0.177 0.658-0.627 0.669-1.065 0-0.656-0.828-2.516-1.188-2.516zM12.388 17.74l1.164 2.547-1.164 2.231h11.060l-4.851-1.601 6.403-0.922-6.5-0.873 3.105-1.383h-9.216z"></path>
</svg>
