<!-- Generated by IcoMoon.io -->
<svg version="1.1" xmlns="http://www.w3.org/2000/svg" width="31" height="32" viewBox="0 0 31 32">
<title>ability-indestructible</title>
<path fill="#444" d="M11.137 1.015l-2.81 4.422c2.414-1.76 5.238-2.544 8.205-2.638v0c7.783 0 14.092 6.309 14.092 14.092s-6.309 14.092-14.092 14.092-14.092-6.309-14.092-14.092c-0.022-2.839 0.91-5.567 2.449-7.93l-4.889 2.955 3.812-5.953-1.612-2.902 2.852 1.661 6.086-3.707zM7.954 6.025l-0.68 1.070 1.142 2.3-2.284-1.185-1.124 0.679 2.926 1.306c0.185 2.397 0.216 4.804 0.46 7.197 0.076 0.742 0.128 1.045 0.229 1.695 0.808 3.829 4.098 6.717 7.71 7.91 2.519-0.465 4.679-2.218 6.268-4.166 2.709-3.749 1.78-8.66 2.519-12.975-3.036 0.296-5.994-0.639-8.761-1.795v0c-2.152 1.047-4.505 1.794-6.905 1.922l-1.5-3.958zM10.556 11.953c2.012 0.143 3.918-0.475 5.767-1.193 2.054 0.459 4.040 1.362 6.205 1.236-0.312 2.582-0.201 5.244-0.887 7.768-0.782 2.397-2.978 3.913-5.191 4.874-2.091-1.051-4.23-2.461-5.069-4.758-0.908-2.529-0.618-5.286-0.824-7.926zM9.278 11.177c0.523 3.813-0.407 8.349 2.498 11.401 1.373 1.373 3.052 2.83 5.017 3.1 2.656-1.172 5.196-3.19 6.062-6.073 0.591-2.762 0.502-5.613 0.776-8.412-2.524-0.042-4.937-0.803-7.245-1.753-2.207 1.114-4.626 1.769-7.108 1.737z"></path>
</svg>
