<!-- Generated by IcoMoon.io -->
<svg version="1.1" xmlns="http://www.w3.org/2000/svg" width="26" height="32" viewBox="0 0 26 32">
<title>ability-trample</title>
<path fill="#444" d="M12.987 0.543l0.238-0.412c0.377 0.963 0.655 1.961 1.058 2.92 0.576 1.306 1.892 2.264 1.991 3.769 0.417 1.857-0.228 3.699-0.432 5.536 0.854 1.028 2.279 0.973 3.486 1.142 0.551-1.296 0.919-2.661 1.49-3.947 0.536-0.69 1.455-1.023 1.902-1.773 0.437-1.857 0.313-3.769 0.407-5.655 1.514 2.845 3.307 5.874 3.108 9.216-0.070 1.708-1.45 2.86-2.537 3.997-0.149 1.321 0.442 3.034-0.77 3.992-1.678 1.599-4.002 2.13-5.953 3.287-0.045 1.887 0.809 4.305-0.909 5.695-1.241 0.983-2.145 2.264-3.019 3.56-0.74-1.366-1.634-2.637-2.885-3.585-1.604-1.281-0.874-3.535-0.953-5.288-1.827-1.425-4.131-2.1-5.859-3.664-1.236-0.938-0.65-2.661-0.78-3.982-1.132-1.127-2.483-2.329-2.557-4.047-0.184-3.337 1.604-6.346 3.113-9.191 0.094 1.991-0.045 4.027 0.497 5.968 0.566 0.477 1.217 0.839 1.842 1.246 0.402 1.425 0.874 2.825 1.47 4.181 1.256-0.124 2.488-0.422 3.625-0.993-0.655-2.607-1.41-5.79 0.511-8.049 0.948-1.147 1.271-2.617 1.917-3.923z"></path>
</svg>
