<!-- Generated by IcoMoon.io -->
<svg version="1.1" xmlns="http://www.w3.org/2000/svg" width="27" height="32" viewBox="0 0 27 32">
<title>ability-for-mirrodin</title>
<path fill="#444" d="M13.34 13.050c0.26 0.489 0.576 1.211 1.066 1.583 0.27-0.080 0.556-0.408 0.734-0.518-0.027 0.623-0.196 1.381-0.159 2.015 0.006 0.085 0.478 0.512 0.478 0.512s-0.569 0.376-0.569 0.376c0 0-0.072 0.636-0.194 0.922 0.031-0.009 0.184-0.020 0.216-0.023 0.686-0.048 1.278-0.141 1.798-0.708 0.115 0.113 0.256 0.539 0.329 0.658 0.751 0.037 1.386 0.099 2.018 0.479-0.201 0.366-0.593 1.234-0.8 1.6 0.637 0.815 1.255 1.644 1.878 2.468 0.691 0.151 1.374 0.311 2.061 0.476 0.064-0.316 0.192-0.948 0.261-1.259 0.211-0.192 0.637-0.577 0.852-0.769 0.545 0.371 1.090 0.737 1.639 1.099-0.6 0.801-1.017 1.846-1.937 2.336-1.401 0.44-2.876 0.559-4.332 0.692-0.49-1.227-1.337-2.253-2.148-3.279-0.192 0.779-0.327 0.959-0.441 1.758-0.044 0.306-0.077 0.881 0.026 1.173 0.020 0.058 0.792 0.473 0.782 0.534-0.169 1.042-0.066 1.477-0.038 1.559 0.263 0.774 0.837 1.476 1.366 2.137-1.277 0.321-2.527 0.749-3.808 1.055 0 0-0.578 0.166-1.079 0.166s-0.725-0.071-1.079-0.155c-1.281-0.306-2.531-0.733-3.808-1.055 0.529-0.66 1.103-1.362 1.366-2.137 0.028-0.082 0.131-0.517-0.038-1.559-0.010-0.061 0.762-0.476 0.782-0.534 0.103-0.292 0.070-0.867 0.026-1.173-0.114-0.799-0.249-0.979-0.441-1.758-0.811 1.026-1.658 2.052-2.148 3.279-1.456-0.133-2.931-0.252-4.332-0.692-0.92-0.49-1.337-1.534-1.937-2.336 0.55-0.362 1.095-0.728 1.64-1.099 0.215 0.192 0.641 0.577 0.852 0.769 0.069 0.311 0.197 0.943 0.261 1.259 0.687-0.165 1.369-0.325 2.061-0.476 0.623-0.824 1.241-1.653 1.878-2.468-0.206-0.366-0.598-1.234-0.799-1.6 0.632-0.38 1.267-0.443 2.018-0.479 0.073-0.119 0.214-0.545 0.329-0.658 0.52 0.567 1.112 0.66 1.798 0.708 0.032 0.002 0.185 0.014 0.216 0.023-0.121-0.286-0.194-0.922-0.194-0.922s-0.569-0.376-0.569-0.376c0 0 0.472-0.427 0.478-0.512 0.036-0.634-0.132-1.392-0.159-2.015 0.179 0.11 0.464 0.438 0.734 0.518 0.49-0.372 0.806-1.095 1.066-1.583v-0.010zM2.842 7.012c-0.515 0.619-0.888 1.177-1.233 1.826-1.046 1.966-1.6 4.131-1.609 6.355 0.097 1.919 0.331 3.849 1.275 5.564 0.832-0.553 0.369-0.243 1.388-0.932l0.814-0.554 1.548 1.152 0.292 1.138 0.501-0.27 1.123-1.482-0.421-0.852-0.584-1.062 1.038-0.624c0.661-0.339 1.336-0.723 2.083-0.819-0.207-1.015-0.162-0.572-0.2-1.321 0.032-0.641-0.007-0.306 0.135-1.004l-6.15-7.115zM23.781 6.953l-6.179 7.149c0.149 0.73 0.109 0.384 0.142 1.036-0.037 0.734 0.007 0.306-0.191 1.278 0.771 0.138 1.474 0.468 2.155 0.852l1.038 0.625-0.584 1.062c-0.067 0.122-0.144 0.278-0.422 0.852 0.638 0.836 0.309 0.435 0.993 1.36l0.511 0.395 0.070-0.59 0.55-0.557c0.214-0.195 0.363-0.284 1.34-1.146l0.814 0.554c1.017 0.687 0.556 0.379 1.38 0.927 0.223-0.528 0.511-1.033 0.669-1.583 0.568-1.981 0.514-2.266 0.599-3.965-0.153-3.026-0.938-5.856-2.886-8.246zM7.935 3.071c-1.349 0.528-2.767 1.357-3.774 2.531l5.161 7.588c0.279-0.66 0.794-1.244 1.387-1.639l-2.774-8.48zM18.668 3.044l-2.782 8.504c0.586 0.396 1.094 0.96 1.379 1.612l5.181-7.617c-1.076-1.076-2.321-2.009-3.778-2.498zM12.475 1.91c-1.277 0.065-2.276 0.33-2.777 0.489l1.772 8.712c0.762-0.322 0.329-0.178 1.315-0.38l-0.309-8.821zM14.203 1.91l-0.327 8.833c0.924 0.188 0.512 0.053 1.249 0.365l1.774-8.724c-1.205-0.303-1.591-0.417-2.696-0.474z"></path>
</svg>
