<!-- Generated by IcoMoon.io -->
<svg version="1.1" xmlns="http://www.w3.org/2000/svg" width="20" height="32" viewBox="0 0 20 32">
<title>ability-coven</title>
<path fill="#444" d="M5.923 1.105l0.172-0.271c-0.157 1.1-0.067 2.15 0.086 2.598 0.308 0.899 1.458 1.665 1.785 2.327 0.732 1.479 0.693 3.268-0.148 4.666-0.949 1.148-2.97 1.098-3.632-0.431-0.714-1.65 1.366-3.078 0.862-3.546-1.908-1.773-0.127-3.653 0.874-5.343zM10.977 12.867c0.7-0.338 1.242-0.746 1.804-1.284 0.765 0.236 0.086 1.105-0.193 1.478-1.573 1.549-0.605 3.925-0.893 5.857-0.345 2.409 0.595 4.414 0.92 6.768 0.125 0.907 2.854 1.64 2.363 3.085-0.997 0.708-1.586-0.508-2.59-0.848-1.36-0.46-2.544 1.386-3.937 1.622-2.239 0.727-5.937-0.923-6.143-1.475-0.237-0.638-0.427-2.454 0.173-3.84 0.718-1.66 0.042-3.626-0.166-5.345-0.156-1.87-0.751-3.665-1.285-5.46 1.256 0.746 2.549 1.918 2.381 3.465-0.172 1.588-0.074 3.263 0.453 4.768 0.374 1.069 2.159 0.175 2.106-0.779 0.161-1.039-1.541-1.522-1.131-2.535 0.419-1.034-0.281-1.942 0.267-2.778 1.242-0.071 2.65-0.423 3.525-1.408 0.295-0.332-0.007 1.679 0.776 1.687 1.194 0.012-0.332-2.056 1.57-2.976zM9.399 9.849c-0.241 3.051-4.718 3.245-5.871 0.69-1.285-0.453-2.782 0.35-3.528 1.422 0.439 1.828 1.1 3.675 0.836 5.611 0.553 2.281 1.866 5.077 0.009 7.108-0.028 1.365-0.052 2.735 0.038 4.095 2.012 1.738 4.014 2.616 7.601 1.967 1.618-0.293 2.943-1.151 4.717-1.107 1.71 0.043 3.052 1.25 4.742 1.51l0.256 0.025c1.027 0.099 2.639-0.745 1.861-2.052-1.011-1.7-3.696-0.688-5.132-2.053-1.1-1.143-1.219-2.952-0.571-4.35 0.222-1.384-1.639-1.341-1.88-2.489-0.406-2.414 0.817-4.643 0.987-7.019 0.893-2.324-2.229-3.797-4.067-3.358z"></path>
</svg>
