<!-- Generated by IcoMoon.io -->
<svg version="1.1" xmlns="http://www.w3.org/2000/svg" width="32" height="32" viewBox="0 0 32 32">
<title>ability-corrupted</title>
<path fill="#444" d="M27.005 8.88c0 0 2.741 6.546 2.741 6.546s1.328 2.502 1.276 3.925c0.093 1.774-0.759 3.507-2.467 4.13-0.864 0.293-0.832 1.467-1.203 2.163-0.118 0.176-0.216 0.219-0.348 0.218-0.138-0.001-0.284-0.095-0.348-0.218-0.365-0.699-0.339-1.87-1.203-2.163-1.352-0.497-2.094-1.63-2.394-2.989h-3.087c-0.251 1.357-1.099 2.482-2.394 2.989-0.864 0.293-0.832 1.467-1.203 2.163-0.118 0.176-0.216 0.219-0.348 0.218-0.138-0.001-0.284-0.095-0.348-0.218-0.365-0.699-0.339-1.87-1.203-2.163-1.352-0.497-2.094-1.63-2.394-2.989h-3.087c-0.251 1.357-1.099 2.482-2.394 2.989-0.864 0.293-0.832 1.467-1.203 2.163-0.118 0.176-0.216 0.219-0.348 0.218-0.138-0.001-0.284-0.095-0.348-0.218-0.365-0.699-0.339-1.87-1.203-2.163-1.707-0.623-2.559-2.356-2.467-4.13-0.052-1.423 1.276-3.925 1.276-3.925l2.774-6.576c0 0 2.711 6.576 2.711 6.576s0.852 1.659 1.114 2.558h3.265c0.231-0.908 1.114-2.558 1.114-2.558s2.698-6.546 2.728-6.546c0.031 0 2.757 6.546 2.757 6.546s0.852 1.659 1.113 2.558h3.265c0.231-0.908 1.113-2.558 1.113-2.558l2.744-6.546zM16.026 12.835v0c-0.249 1.136-0.5 1.767-0.482 3.444-1.386 0.365-2.563 1.574-2.542 3.064-0.006 1.499 1.161 2.677 2.556 3.024 0.023 0.916 0.144 1.83 0.469 2.686 0.022-0.091 0.063-0.165 0.095-0.253 0.271-0.74 0.364-1.612 0.405-2.426 1.351-0.386 2.557-1.544 2.522-3.025 0.061-1.505-1.148-2.696-2.528-3.055 0-1.174-0.121-2.34-0.495-3.459zM16.524 17.259l0.156 0.071c0.782 0.397 1.417 1.081 1.418 1.999 0.035 0.977-0.759 1.728-1.603 2.076-0-0.023-0-0.070 0.029-4.146zM15.558 17.243l0 0.004c0.010 1.382 0.014 2.763 0.019 4.145-1.035-0.217-1.754-1.275-1.598-2.333 0.083-0.886 0.832-1.457 1.579-1.816zM27.003 12.835v0c-0.249 1.136-0.5 1.767-0.482 3.444-1.386 0.365-2.563 1.574-2.542 3.064-0.006 1.499 1.161 2.677 2.556 3.024 0.023 0.916 0.144 1.83 0.469 2.686 0.022-0.091 0.063-0.165 0.095-0.253 0.272-0.74 0.364-1.612 0.405-2.426 1.351-0.386 2.557-1.544 2.522-3.025 0.061-1.505-1.148-2.696-2.528-3.055 0-1.174-0.121-2.34-0.495-3.459zM27.501 17.259l0.156 0.071c0.782 0.397 1.417 1.081 1.418 1.999 0.035 0.977-0.759 1.728-1.603 2.076-0-0.023-0-0.070 0.029-4.146zM26.534 17.243l0 0.004c0.010 1.382 0.014 2.763 0.019 4.145-1.035-0.217-1.754-1.275-1.598-2.333 0.083-0.886 0.832-1.457 1.579-1.816zM5.049 12.835v0c-0.249 1.136-0.5 1.767-0.482 3.444-1.386 0.365-2.563 1.574-2.542 3.064-0.006 1.499 1.162 2.677 2.556 3.024 0.023 0.916 0.144 1.83 0.469 2.686 0.022-0.091 0.063-0.165 0.095-0.253 0.272-0.74 0.364-1.612 0.405-2.426 1.351-0.386 2.557-1.544 2.522-3.025 0.061-1.505-1.148-2.696-2.528-3.055 0-1.174-0.121-2.34-0.495-3.459zM5.547 17.259l0.156 0.071c0.782 0.397 1.417 1.081 1.418 1.999 0.035 0.977-0.759 1.728-1.603 2.076-0-0.023-0-0.070 0.029-4.146zM4.581 17.243l0 0.004c0.010 1.382 0.014 2.763 0.019 4.145-1.035-0.217-1.754-1.275-1.598-2.333 0.083-0.886 0.832-1.457 1.579-1.816z"></path>
<path fill="#444" d="M5.177 5.547v0 0c1.634 3.699 3.205 7.429 4.417 11.29h1.81c0.161-0.549 0.365-1.084 0.56-1.622 0.393-1.080 0.812-2.15 1.248-3.213 0.881-2.179 1.851-4.319 2.831-6.455v0 0c1.653 3.69 3.183 7.437 4.417 11.29h1.818c0.162-0.549 0.365-1.084 0.56-1.622 0.393-1.080 0.812-2.15 1.248-3.213 0.881-2.179 1.851-4.319 2.831-6.455v0l-0-0h0v0c1.635 3.631 3.248 7.348 4.483 11.134 0.321 0.889 0.573 2.282 0.596 2.731s-0.041 1.144-0.204 1.852l-0.074 0.303c-0.56 2.581-2.045 4.776-4.918 4.886-2.658-0.071-4.194-2.562-4.774-4.886l-1.278-0c-0.56 2.581-1.949 4.776-4.822 4.886-2.662-0.071-4.193-2.562-4.776-4.886h-1.267c-0.56 2.581-1.949 4.776-4.822 4.886-3.451-0.013-5.060-4.29-5.060-7.078 0.107-1.431 0.61-2.82 1.098-4.16 0.393-1.080 0.812-2.15 1.248-3.213 0.886-2.176 1.843-4.323 2.831-6.455v-0zM26.911 6.208c-0.187 0.405-0.371 0.812-0.555 1.219-0.606 1.346-1.211 2.736-1.776 4.093-0.193 0.465-0.379 0.918-0.556 1.359-0.54 1.353-1.401 3.805-1.456 3.999-0.041 0.145-0.152 0.228-0.372 0.23s-0 0-0 0v-0c-1.081-0-0.526-0-1.663-0.001-0.284 0-0.356-0.259-0.356-0.259-0.402-1.345-0.891-2.661-1.385-3.974-0.171-0.446-0.35-0.904-0.536-1.374-0.539-1.355-1.116-2.741-1.693-4.083-0.174-0.404-0.349-0.807-0.526-1.21-0.187 0.405-0.371 0.812-0.554 1.219-0.606 1.346-1.211 2.736-1.776 4.093-0.193 0.465-0.379 0.918-0.556 1.359-0.541 1.354-1.019 2.665-1.472 4.051-0.031 0.094-0.134 0.174-0.361 0.175-1.162 0.009-0.534 0.003-1.65 0.002-0.284 0-0.356-0.259-0.356-0.259-0.402-1.345-0.891-2.661-1.385-3.974-0.171-0.446-0.35-0.904-0.536-1.374-0.539-1.355-1.116-2.741-1.693-4.083-0.174-0.404-0.349-0.807-0.526-1.21-0.187 0.405-0.371 0.812-0.554 1.219-0.606 1.346-1.211 2.736-1.776 4.093-0.193 0.465-0.379 0.918-0.556 1.359-1.271 3.169-2.011 5.481-2.011 6.496 0 1.451 0.438 3.147 1.198 4.442 0.881 1.5 2.104 2.358 3.59 2.364 1.592 0.006 2.813-0.779 3.648-2.202 0.451-0.745 0.694-1.579 0.897-2.418l0.007-0c0 0 0.106-0.253 0.324-0.265 0.381-0.009 0.763-0.006 1.144-0.004 0.164-0.008 0.302 0.091 0.342 0.245 0.214 0.822 0.499 1.543 0.914 2.282 0.881 1.5 2.104 2.358 3.59 2.364 1.592 0.006 2.813-0.779 3.648-2.202 0.451-0.745 0.694-1.579 0.898-2.418l0.007-0c0 0 0.106-0.253 0.324-0.265 0.041-0.002 0.042-0.002 0.099-0.003 0.75-0.004 0.371-0.008 1.034-0.003 0.215 0.002 0.346 0.152 0.377 0.269 0.228 0.867 0.46 1.48 0.898 2.26 0.881 1.5 2.104 2.358 3.59 2.364 1.592 0.006 2.834-0.809 3.708-2.209 0.464-0.743 0.73-1.572 0.933-2.412l0-0c0.187-0.701 0.347-1.56 0.272-2.249-0.187-1.72-0.54-2.47-0.544-2.482-0.402-1.345-0.948-2.631-1.442-3.944-0.171-0.446-0.37-0.927-0.556-1.397-0.539-1.355-1.158-2.727-1.735-4.070-0.174-0.404-0.349-0.807-0.526-1.21z"></path>
</svg>
