<!-- Generated by IcoMoon.io -->
<svg version="1.1" xmlns="http://www.w3.org/2000/svg" width="23" height="32" viewBox="0 0 23 32">
<title>ability-afflict</title>
<path fill="#444" d="M12.574 2.593c0.531 0.41 0.729 1.077 0.885 1.7 1.133 4.792 1.588 9.673 4.149 13.962 0.269 0.45 0.681 0.766 1.102 1.062 1.835 0.975 3.316 2.458 4.416 4.208v0c-2.361 4.271-7.13 5.811-11.567 5.883-3.61-0.010-7.23-1.259-9.903-3.864-0.63-0.599-1.185-1.276-1.656-2.018v0 0 0c0.453-0.757 1.041-1.406 1.656-2.018 0.835-0.786 1.751-1.507 2.766-2.048 0.449-0.297 0.855-0.664 1.16-1.11 2.745-4.173 3.017-9.264 4.15-14.056 0.156-0.623 0.354-1.29 0.885-1.7v17.782h-0c-0.11 0.015-0.221 0.026-0.33 0.045-1.044 0.139-2.036 0.539-2.892 1.146-0.259 0.198-0.506 0.408-0.697 0.652v0 0c0.198 0.24 0.432 0.458 0.697 0.652 1.125 0.842 2.648 1.245 4.167 1.249 1.867-0.023 3.874-0.521 4.867-1.901v0c-0.621-0.797-1.548-1.344-2.526-1.584l0.001-0.003c-0.402-0.113-0.215-0.072-0.557-0.134-0.038-0.009-0.014-0.004-0.074-0.013-0.438-0.079-0.24-0.051-0.592-0.092-0.069-0.011-0.034-0.007-0.106-0.012l-0-0v-17.788z"></path>
</svg>
