<!-- Generated by IcoMoon.io -->
<svg version="1.1" xmlns="http://www.w3.org/2000/svg" width="25" height="32" viewBox="0 0 25 32">
<title>ability-blitz</title>
<path fill="#444" d="M13.725 21.472l1.854 6.815-3.27 2.142-2.952-1.922 1.314-7.035h3.054zM8.662 3.509l-8.662 4.647v14.259l8.023 5.224 1.152-6.166-2.804 0c0 0 0.216-1.301 0.314-1.885 1.432-0.333 3.452 0.029 4.291-1.447 0.078-0.804 0.26-1.932-0.701-2.27-2.8-1.407-6.722-1.454-8.522-4.411h7.648v-0.283l-0.738-7.668zM16.062 3.716l-0.638 6.947h7.442c-2.328 1.475-6.258 2.973-6.248 5.647 0.008 2.179 2.328 3.436 3.49 5.162-0.131 0.002-0.038 0.001-0.333 0.001-0.756 0-1.511-0.001-2.267-0.001v-0h-2.259l1.623 5.968 7.66-5.017v-13.908l-8.471-4.798zM12.274 1.571l-2.207 1.184 0.761 7.909h3.119l0.711-7.743-2.384-1.35z"></path>
</svg>
