<!-- Generated by IcoMoon.io -->
<svg version="1.1" xmlns="http://www.w3.org/2000/svg" width="30" height="32" viewBox="0 0 30 32">
<title>ability-d20</title>
<path fill="#444" d="M4.654 18.61l10.584-10.096c0.514-0.509 0.811-0.123 0.927 0.312l3.409 14.3c0 0.404-0.171 0.576-0.576 0.576l-14.034-3.985c-0.531-0.088-0.841-0.664-0.31-1.107zM4.61 5.992c-0.404 0-0.724 0.271-0.724 0.676l0.303 9.926c0 0.404 0.191 0.953 0.997 0.422l9.474-9.209c0.354-0.487 0.044-0.841-0.599-0.865l-9.451-0.951zM20.37 22.107c0.117 0.636 0.727 0.647 1.043 0.255l7.236-9.066c0.185-0.329 0.125-0.547-0.204-0.733l-10.827-4.597c-0.329-0.185-0.864-0.064-0.679 0.615l3.432 13.524zM10.117 28.716c0.165 0.369 0.543 0.551 0.912 0.386l6.508-3.807c0.369-0.165 0.664-0.708-0.004-0.974l-11.861-3.497c-0.589-0.125-0.892 0.132-0.509 0.856l4.954 7.037zM15.191 6.341c0.781 0.089 0.656-0.063 0.974-0.664l1.466-3.095c0.324-0.643 0.301-0.95-0.274-0.801l-11.466 1.948c-1.471 0.31-1.964 1.195-1.383 1.372l10.683 1.24zM17.183 6.922c-0.603-0.343-0.369-0.633-0.084-1.312l1.376-3.168c0.279-0.607 0.531-0.839 1.099-0.39l7.98 7.352c1.166 1.417 0.907 2.16-0.129 1.818l-10.242-4.301zM21.441 23.868c-0.341 0.541-0.097 0.807 0.479 0.94l2.789 0.797c0.708 0.065 1.184-0.43 1.594-1.372l3.028-7.904c0.441-1.598-0.042-2.364-0.726-1.526zM22.656 27.080c1.299-0.587 0.849-0.874 0.105-1.122l-2.335-0.734c-0.657-0.2-1.107-0.033-1.694 0.32l-6.552 3.795c-1.042 0.709-1.579 1.093 0.153 0.837zM3.016 7.143c-0.191-1.392-1.14 0.397-1.24 1.245l-1.55 9.69c0 0.404 0.001 0.788 0.708 0.93l1.823 0.216c0.404 0 0.591-0.574 0.568-1.146l-0.31-10.935zM1.334 19.893c-0.305 0.011-1.921-0.103-1.107 0.908l7.792 8.362c0.708 0.603 1.151 0.404 1.151 0l-4.9-7.587c-0.353-0.552-0.895-1.301-1.229-1.412s-1.402-0.28-1.708-0.27z"></path>
</svg>
