<!-- Generated by IcoMoon.io -->
<svg version="1.1" xmlns="http://www.w3.org/2000/svg" width="26" height="32" viewBox="0 0 26 32">
<title>ability-boast</title>
<path fill="#444" d="M2.39 4.585c2.438-0.812 5.16-0.583 7.458 0.539 0.679 0.303 1.395 1.159 0.883 1.893-1.378 1.702-3.806 1.732-5.814 1.732-1.777-0.116-4.038-0.327-4.917-2.142 0.078-1.176 1.398-1.722 2.39-2.022zM1.548 5.936c0.662 0.546 1.463 0.904 2.329 0.924 1.852 0.106 3.952 0.293 5.514-0.917-1.112-1.037-2.711-1.122-4.147-1.112-1.292 0.041-2.725 0.15-3.697 1.105zM0.755 8.374c0.207 1.607 0.14 3.763 1.581 4.483 0.031 0.015 0.019 0.053 0.040 0.080-0.035 0.032-0.066 0.102-0.12 0.095-1.161-0.155-1.185 0.541-0.984 1.095 0 0 0 0 0 0 0.406 0.529 0.994 0.819 1.647 0.911 2.7 0.38 5.242 0.11 7.674-1.252 0.602-0.337 1.024-0.735 1.31-1.35 0.179-0.384-0.053-0.885-0.36-1.001-0.337-0.127-0.961 0-1.441 0.28-0.057 0.034-0.066 0.024-0.12 0.020 0.027-0.049 0.034-0.116 0.079-0.149 0 0 0 0 0 0s0 0 0 0 0 0 0 0 0 0 0 0c0.961-0.692 0.742-2.323 0.101-3.29-0.045 0.019-0.092 0.033-0.136 0.056-2.426 1.265-6.089 1.321-9.188 0.046-0.027-0.011-0.056-0.017-0.083-0.026zM21.281 24.508c-0.108-0.076 0.019 0.264 0.015 0.396-0.016 0.479-0.141 0.947-0.307 1.394-0.177 0.373-0.376 0.737-0.643 1.055 0 0 0.001 0 0.001 0 0.084 0.005 0.176-0.021 0.251 0.016 1.076 0.531 4.088 0.5 4.736 0.176 0.327-0.164 0.327-1.227 0.25-1.308-1.192-1.26-2.908-0.757-4.302-1.728zM11.451 13.973c-0.037 0.016-0.039 0.010-0.099 0.055-3.373 2.494-7.866 1.771-8.333 1.658-0.203-0.049-0.067 0.004-0.099 0.006 1.088 2.503 2.967 4.573 4.917 6.442 2.336 2.097 6.067 4.45 10.32 4.47 0.088 0 0.044-0.007 0.082 0-0.028 0.061-0.075 0.395-0.093 0.459-0.1 0.362 0.064 0.682 0.413 0.815 0.766 0.181 1.415-0.876 1.698-1.437 0.136-0.249 0.076-0.126 0.184-0.365 0.089-0.238 0.182-0.478 0.212-0.731 0.156-0.622 0.23-1.729-0.458-2.073-0.398-0.117-0.683 0.105-0.831 0.491l-0.168 0.505-0 0.001c-0 0.001 0 0.001-0.001 0.001s-0 0.001-0.001 0.001l-0.001 0-0.001-0-0.001 0-0.001-0c-0.001-0-0 0-0.001-0.001s-0.001-0-0.001-0.001l-0-0.001c-0.055-0.21-0.113-0.437-0.228-0.712-2.024-1.047-3.77-2.549-5.178-4.334-0.972-1.527-1.456-3.276-2.175-4.924l-0.154-0.325z"></path>
</svg>
