<!-- Generated by IcoMoon.io -->
<svg version="1.1" xmlns="http://www.w3.org/2000/svg" width="30" height="32" viewBox="0 0 30 32">
<title>ability-explore</title>
<path fill="#444" d="M15.013 18.932c-1.618 0-2.93-1.312-2.93-2.93s1.312-2.93 2.93-2.93c1.618 0 2.93 1.312 2.93 2.93s-1.312 2.93-2.93 2.93zM2.283 18.779c1.375 5.169 4.622 8.797 9.956 9.985l-0.228-4.301c-2.587-0.871-4.504-2.91-5.432-5.456l-4.296-0.228zM12.241 3.24c-5.004 1.144-8.796 5.003-9.983 9.986l4.334-0.23c0.813-2.542 2.905-4.617 5.421-5.456l0.228-4.3zM27.769 18.779l-4.334 0.23c-0.812 2.541-2.905 4.615-5.419 5.454l-0.228 4.301c5.002-1.144 8.794-5.002 9.982-9.984zM17.786 3.24l0.228 4.301c2.587 0.871 4.503 2.909 5.433 5.455l4.296 0.228c-1.375-5.169-4.623-8.795-9.957-9.983zM16.503 19.694c-0.1 0.042-0.196 0.099-0.301 0.127-0.655 0.173-0.649 0.152-1.189 0.18-0.508-0.026-1.031-0.066-1.49-0.307l1.49 11.287 1.49-11.287zM15.013 1.019l-1.49 11.291c0.1-0.042 0.196-0.099 0.301-0.127 0.654-0.173 0.649-0.152 1.189-0.18 0.508 0.026 1.032 0.066 1.491 0.307l-1.491-11.291zM10.044 11.032l1.34 3.317 0.010-0.010c0.366-0.865 1.087-1.595 1.956-1.956l0.010-0.010-3.317-1.34zM18.705 14.511c0.043 0.101 0.099 0.196 0.128 0.302 0.173 0.654 0.152 0.649 0.18 1.189-0.026 0.508-0.066 1.032-0.307 1.491l11.295-1.491-11.295-1.491zM11.304 14.51l-11.304 1.492 11.304 1.492v-0.044c-0.037-0.086-0.086-0.169-0.11-0.259-0.174-0.674-0.152-0.638-0.18-1.189 0.025-0.492 0.059-1.002 0.289-1.448v-0.044zM19.976 11.032l-3.317 1.34 0.005 0.005c0.874 0.369 1.61 1.090 1.973 1.971l1.34-3.316zM18.636 17.669l-0.009 0.009c-0.361 0.855-1.081 1.579-1.938 1.938l-0.030 0.030 3.317 1.34-1.34-3.317zM11.384 17.646l-1.34 3.317 3.314-1.339c-0.874-0.369-1.608-1.094-1.97-1.974l-0.004-0.004z"></path>
</svg>
