<!-- Generated by IcoMoon.io -->
<svg version="1.1" xmlns="http://www.w3.org/2000/svg" width="19" height="32" viewBox="0 0 19 32">
<title>ability-amass-orcs</title>
<path fill="#444" d="M15.056 5.12c-0.23 0.421-0.517 0.603-0.559 1.045-0.118 1.245-0.381 2.474 0.109 4.103 0.008 0.025-0.899-0.066-0.899-0.066s-0.55 0.508-0.543 0.52c0.212 0.337 1.625-0.047 1.622-0.010-0.092 0.931-0.756 0.997-1.098 1.878-0.030 0.077 0.538 0.875 0.538 0.875s0.145 1.197-0.835 1.514c-0.141 0.045-0.422 0.443-0.414 0.545 0.132 1.717 0.323 2.038-0.898 3.185-0.857 0.805-1.644 0.551-2.55 0.783-0.236 0.060-0.246 0.138-0.027 0.244l0.525 0.252c0.157 0.077 0.431 0.339 0.433 0.515 0.013 3.47-0.008 6.632 0.019 9.845 0.002 0.279-0.070 0.658-0.59 1.292-0.055 0.067-0.477 0.36-0.562 0.361-0.666 0.006-1.641-1.401-1.641-1.401s-0.084-4.317-0.070-5.268c0.002-0.201 0.047-0.721-0.033-0.537-0.487 1.089-1.182 1.87-2.032 2.716-0.082 0.082-0.177 0.102-0.285 0.060l-0.627-0.241c-0.079-0.031-0.147-0.016-0.205 0.044l-2.359 2.392c-0.069 0.071-0.122 0.061-0.159-0.030-0.005-0.011 0.761-1.253 0.846-1.453 0.012-0.030 0.018-0.063 0.018-0.096 0-0.141-0.116-0.257-0.257-0.257-0.065 0-0.127 0.024-0.174 0.068l-2.288 2.165c-0.016 0.015-0.028 0.012-0.036-0.008-0.007-0.024-0.015-0.047-0.022-0.068-0.005-0.020-0.003-0.038 0.008-0.055 1.317-1.802 2.405-3.732 3.265-5.788 0.035-0.084 0.092-0.148 0.172-0.192 0.272-0.153 0.403-0.385 0.394-0.695-0.007-0.296-0.088-0.317-0.244-0.066l-0.342 0.55c-0.051 0.084-0.126 0.12-0.224 0.109l-0.208-0.022c-0.148-0.015-0.207-0.095-0.178-0.241l0.263-1.275c0.004-0.016 0.005-0.032 0.005-0.048 0-0.12-0.099-0.219-0.219-0.219-0.067 0-0.131 0.031-0.172 0.084l-1.869 2.266c-0.021 0.023-0.049 0.038-0.079 0.042-0.070 0.010-0.135-0.039-0.144-0.107-0.004-0.031 0.003-0.062 0.021-0.088 0.645-0.916 2.738-5.085 3.411-6.647 0.127-0.295-0.418-0.166-0.724-0.382-0.081-0.057-0.024-0.258 0.020-0.348 0.389-0.777 0.699-1.58 0.93-2.408 0.276-0.988 1.108-1.817 1.639-2.698 0.042-0.069 0.056-0.144 0.041-0.224l-0.279-1.587c-0.016-0.093-0.072-0.14-0.167-0.14l-0.586-0.008c-0.093 0-0.124-0.045-0.093-0.134 0.351-1.020 1.165-4.108 0.804-5.4-0.045-0.16-0.662-0.742-0.662-0.742s-1.566-0.319-2.419-0.829c-0.015-0.009-0.031-0.018-0.043-0.031-0.047-0.053-0.042-0.135 0.012-0.183 0.013-0.011 0.028-0.021 0.044-0.026 0.928-0.312 1.691-0.588 2.693-0.588h3.44c0.174 0 0.525-0.209 0.625-0.353l0.836-1.349c0.051-0.075 0.192-0.255 0.283-0.261 1.012-0.060 1.011 1.060 1.038 1.763 0.004 0.103 0.344 0.137 0.344 0.137l3.175-0.004c0 0 0.541 0.087 0.735 0.186 1.115 0.564 2.043 1.306 2.959 1.994 0.042 0.031 0.265 0.242 0.265 0.242l-0.309 0.353c0 0-0.096 0.039-0.147 0.042l-2.879 0.183c-0.117 0.008-0.326 0.119-0.383 0.221zM10.524 3.273c1.246 0.179 2.22 0.065 3.349 0.153 0.42 0.033 0.759 0.311 1.169 0.413 0.016 0.004 0.031 0.006 0.047 0.006 0.111 0 0.192-0.030 0.269-0.11 0.107-0.112 0.117-0.328 0.116-0.334l-0.055-0.171c-0.009-0.086-0.227-0.193-0.307-0.225-0.791-0.317-1.585-0.472-1.585-0.472s-2.882 0.094-6.436 0.032c-0.536-0.009-0.497 0.154-0.987 0.346-0.093 0.036-0.546 0.235-0.466 0.295 0.386 0.282 2.878 0.054 3.543 0.093 0.095 0.005 0.331 0.066 0.345 0.159l0.275 1.561 0.063 2.232c0.040 0.274 0.285 0.284 0.342 0.014 0.175-0.833 0.676-1.776 0.717-2.512 0.014-0.265-0.037-0.428-0.136-0.699-0.083-0.225-0.279-0.352-0.379-0.615-0.042-0.109-0.002-0.181 0.115-0.164zM10.648 11.335c0.060 0.27 0.183 0.504 0.367 0.703 0.164 0.177 0.24 0.145 0.227-0.096l-0.096-1.894c-0.007-0.15-0.065-0.172-0.172-0.068l-3.681 3.56c-0.091 0.088-0.091 0.176 0 0.265l2.34 2.29c0.093 0.091 0.185 0.089 0.276-0.005l1.606-1.68c0.075-0.079 0.251-0.296 0.171-0.37-0.515-0.481-1.46 0.605-1.796 0.909-0.145 0.13-0.37 0.119-0.501-0.025l-1.103-1.212c-0.134-0.148-0.124-0.378 0.022-0.512l2.11-1.937c0.117-0.109 0.193-0.086 0.23 0.071zM9.248 23.467c-0.001-0.129-0.108-0.235-0.237-0.234l-0.011 0c-0.129 0.001-0.235 0.108-0.234 0.237l0.047 6.737c0.001 0.129 0.108 0.235 0.237 0.234h0.011c0.129-0.001 0.235-0.108 0.234-0.237l-0.047-6.737z"></path>
</svg>
