<!-- Generated by IcoMoon.io -->
<svg version="1.1" xmlns="http://www.w3.org/2000/svg" width="24" height="32" viewBox="0 0 24 32">
<title>ability-domain</title>
<path fill="#444" d="M14.901 3.543c2.867 2.281 2.131 1.57 5.867 4.885s4.371 8.493 1.183 12.398c-2.648 3.243-5.853 5.762-8.528 8.995-0.96 0.032-1.912 0.023-2.872 0.014-2.698-3.466-6.178-5.99-9.078-9.667-1.617-2.050-1.783-4.831-1.074-7.346 1.312-4.010 8.143-8.892 8.143-8.892 2.311-1.516 2.567-1.738 3.461-1.772 1.129-0.043 2.898 1.385 2.898 1.385zM11.022 16.782c-0.038 0.008-0.205-0.002-0.244 0-2.063 0.132-4.228 0.163-6.847 2.154-0.051 0.039-0.132 0.15-0.132 0.15 7.191 7.549 7.261 7.657 7.291 7.711 0.027-3.283 0.147-6.731-0.068-10.014l-0-0zM13.354 16.782c-0.039-0.002-0.206 0.008-0.244 0-0.215 3.283-0.095 6.732-0.068 10.014 0.030-0.054 0.1-0.162 7.291-7.711 0 0-0.081-0.111-0.132-0.15-2.619-1.991-4.784-2.022-6.847-2.154l-0-0zM17.906 8.74c-0.544 2.305-1.817 4.73-3.751 6.216 2.442-0.027 5.156 1.111 7.305 2.203 0.643-3.086-0.223-6.505-3.482-8.374-0.025-0.014-0.048-0.031-0.071-0.046zM6.226 8.739c-0.024 0.015-0.047 0.032-0.071 0.046-3.259 1.869-4.126 5.288-3.482 8.374 2.149-1.093 4.863-2.231 7.305-2.203-1.934-1.486-3.207-3.912-3.751-6.216l-0-0zM12.049 4.493c-2.066 0.037-4.004 2.224-4.004 2.771 0 1.748 1.269 4.984 2.864 6.047 0.362 0.241 0.325 0.183 1.136 0.183 0.897 0 0.74 0.027 1.1-0.176 1.76-0.992 2.804-4.205 2.804-5.986 0-0.616-2.012-2.873-3.9-2.84l-0-0zM11.997 10.284c0.868 0 1.572-0.704 1.572-1.572s-0.704-1.572-1.572-1.572c-0.868 0-1.572 0.704-1.572 1.572s0.704 1.572 1.572 1.572z"></path>
</svg>
