<!-- Generated by IcoMoon.io -->
<svg version="1.1" xmlns="http://www.w3.org/2000/svg" width="26" height="32" viewBox="0 0 26 32">
<title>ability-escape</title>
<path fill="#444" d="M2.282 3.302l0.215-0.127c2.325-1.212 4.988-0.565 6.443 1.632l2.571 4.105c1.027 1.682 0.879 3.647-0.146 5.284l-1.876-2.724c0.018-0.393-0.134-0.758-0.302-1.105l-2.571-4.105c-0.604-0.964-1.891-1.255-2.879-0.637s-1.288 1.904-0.684 2.868l2.571 4.105c0.237 0.352 0.564 0.657 0.966 0.808l1.616 2.814c-2 0.323-3.748-0.545-4.906-2.167l-2.571-4.105c-1.41-2.251-0.715-5.227 1.552-6.647zM6.444 9.952c-0.634 0.398-0.826 1.234-0.428 1.869l2.881 4.594c0.398 0.634 1.234 0.826 1.869 0.428s0.826-1.234 0.428-1.869l-2.881-4.594c-0.398-0.634-1.234-0.826-1.869-0.428zM25.078 27.737c1.74-2.032 1.516-5.079-0.501-6.807l-3.679-3.151c-1.589-1.203-3.516-1.509-5.329-0.605l2.382 2.204c0.429 0.024 0.833 0.217 1.163 0.483l3.679 3.151c0.864 0.74 0.961 2.057 0.203 2.941s-2.074 0.991-2.938 0.251l-3.679-3.151c-0.264-0.281-0.517-0.584-0.618-0.964l-2.603-2.041c-0.491 1.868-0.045 3.788 1.437 5.087l3.679 3.151c2.044 1.663 4.779 1.486 6.637-0.364l0.167-0.185zM19.039 22.594c0.487-0.569 0.42-1.425-0.149-1.911l-4.12-3.525c-0.569-0.487-1.425-0.42-1.911 0.149s-0.42 1.425 0.149 1.911l4.12 3.525c0.569 0.487 1.425 0.42 1.911-0.149zM7.218 18.856c-0.073 0.046-0.037 0.024-0.107 0.067-0.277 0.257-0.401 0.561-0.275 0.936 0.155 0.427 0.627 0.647 1.054 0.492l1.845-0.67c0.427-0.155 0.647-0.627 0.492-1.054s-0.627-0.647-1.054-0.492l-1.845 0.67c-0.037 0.016-0.076 0.029-0.11 0.051zM15.124 14.178c-0.070 0.051-0.036 0.026-0.103 0.073-0.262 0.273-0.368 0.584-0.22 0.95 0.18 0.417 0.664 0.609 1.081 0.43l1.802-0.777c0.417-0.18 0.609-0.664 0.43-1.081s-0.664-0.609-1.081-0.43l-1.802 0.777c-0.036 0.018-0.074 0.034-0.107 0.057zM9.98 22.448c0.013 0.085 0.007 0.044 0.018 0.125 0.122 0.358 0.349 0.595 0.743 0.632 0.453 0.032 0.847-0.309 0.879-0.762l0.139-1.958c0.032-0.453-0.309-0.847-0.762-0.879s-0.847 0.309-0.879 0.762l-0.139 1.958c-0.001 0.041-0.004 0.081 0.002 0.122zM13.304 13.566c0.011 0.086 0.006 0.044 0.015 0.125 0.114 0.361 0.336 0.603 0.728 0.649 0.452 0.042 0.853-0.29 0.896-0.742l0.183-1.954c0.042-0.452-0.29-0.853-0.742-0.896s-0.853 0.29-0.896 0.742l-0.183 1.954c-0.002 0.040-0.006 0.081-0.001 0.122z"></path>
</svg>
