<!-- Generated by IcoMoon.io -->
<svg version="1.1" xmlns="http://www.w3.org/2000/svg" width="28" height="32" viewBox="0 0 28 32">
<title>ability-casualty</title>
<path fill="#444" d="M17.657 27.934l0.687 1.080c-1.48 0.534-3.035 0.709-4.595 0.729-1.433 0.002-2.835-0.281-4.193-0.721l0.714-1.062c1.124 0.391 2.315 0.507 3.494 0.552 1.326 0.039 2.627-0.201 3.893-0.577zM4.927 5.465v0c-3.132 2.546-4.894 6.478-4.927 10.488 0.099 3.854 1.379 7.075 4.306 9.923 0.121 0.118 0.608 0.234 0.941 0.085s0.448-0.471 0.448-0.471c-0.020-0.019-0.581-0.549-0.601-0.568-2.402-2.394-3.852-5.542-3.843-8.969 0.092-3.574 1.528-7.136 4.35-9.439l-0.673-1.049zM13.755 2.158v0c-1.847 0.046-3.7 0.317-5.399 1.081l0.676 1.055c1.492-0.621 3.112-0.891 4.722-0.903 1.77 0.044 3.533 0.327 5.149 1.081l0.676-1.055c-1.886-0.786-3.761-1.289-5.826-1.259zM22.392 23.806c3.847-4.336 3.675-11.411-0.5-15.467-1.587 2.443-3.127 4.878-4.746 7.299 0.683 1.071 1.436 2.052 2.146 3.107 0.274 0.054 0.951 0.069 1.225 0.128-0.254 1.844 0.496 3.018 1.826 4.854 0.018 0.025 0.033 0.053 0.050 0.079zM12.511 24.116c0.457 0.823 0.977 1.341 1.418 2.175 0.549-0.796 1.444-2.161 1.444-2.161s0.049 3.434 0.049 3.173c0 0.422-2.927 0.471-2.937 0-0.007-0.346-0.023-1.987 0.025-3.186zM10.128 19.548c0.543-0.818 1.153-1.579 1.702-2.391 0.012 0.017 0.023 0.036 0.037 0.053 0.827 0.982 1.803 2.989 1.803 2.989s-0.053 0.818-0.083 1.242c-0.436 0.102-1.204 0.305-1.646 0.407 0.038 0.393 0.162 1.253 0.199 1.646-3.425 5.45-3.298 4.98-3.442 5.341-0.24 0.6 0.105 1.099 0.551 1.768-0.034-0-2.946 1.26-4.503 0.468-1.624-0.827-1.945-2.88-2.139-4.537 0.829 0.258 2.385 0.829 3.146 0.108 0.283-0.268 3.408-5.299 3.439-5.329s1.331-0.518 1.331-0.518-0.336-0.961-0.395-1.246zM5.599 23.806c-3.847-4.336-3.675-11.411 0.5-15.467 1.587 2.443 3.127 4.878 4.746 7.299-0.683 1.071-1.436 2.052-2.146 3.107-0.274 0.054-0.951 0.069-1.225 0.128 0.254 1.844-0.496 3.018-1.826 4.854-0.018 0.025-0.033 0.053-0.050 0.079zM10.237 4.595c0.015-0.006 0.031-0.012 0.046-0.017 2.217-0.8 2.342 1.491 3.672 1.469 1.567-0.026 1.53-2.426 3.782-1.49 0.018 0.008 0.036 0.018 0.054 0.027-0.51 0.71-1.045 1.58-1.476 2.335-0.159 0.278-0.776 0.485-0.761 0.508s0.136 0.641 0.016 0.86c-0.507 0.931-1.031 1.714-1.599 2.61-0.565-0.932-1.061-1.745-1.58-2.702-0.114-0.21 0.034-0.768 0.034-0.768s-0.578-0.224-0.679-0.405c-0.467-0.83-0.957-1.646-1.509-2.427zM20.469 3.884c1.108-1.743 3.034-2.679 4.686-3.814-3.061 4.697-6.090 9.42-9.194 14.095-0.344-0.597-0.694-1.194-1.033-1.786 1.861-2.819 3.685-5.67 5.541-8.495zM2.823 0v0c4.143 6.451 8.355 12.863 12.535 19.298-0.331 0.314-0.674 0.615-1.029 0.901v0c0 0 0.053 0.818 0.083 1.242 0.436 0.102 1.204 0.305 1.645 0.407-0.038 0.393-0.162 1.253-0.199 1.646 3.425 5.45 3.298 4.98 3.442 5.341 0.24 0.6-0.105 1.099-0.551 1.768 0.034-0 2.946 1.26 4.503 0.468 1.624-0.827 1.945-2.88 2.139-4.537-0.828 0.258-2.385 0.829-3.146 0.108-0.283-0.268-3.408-5.299-3.439-5.329s-1.331-0.518-1.331-0.518c0.061-0.174 0.135-0.346 0.395-1.246-0.541-0.782-0.274-0.406-10.024-15.233-1.146-1.969-3.223-3.050-5.025-4.315zM23.073 5.438l-0 0c3.132 2.546 4.894 6.478 4.927 10.488-0.099 3.853-1.379 7.075-4.306 9.923-0.121 0.118-0.608 0.234-0.941 0.085s-0.441-0.517-0.441-0.517c0.020-0.019 0.575-0.503 0.594-0.523 2.402-2.394 3.852-5.542 3.843-8.969-0.092-3.574-1.528-7.136-4.35-9.439l0.673-1.049z"></path>
</svg>
