<!-- Generated by IcoMoon.io -->
<svg version="1.1" xmlns="http://www.w3.org/2000/svg" width="27" height="32" viewBox="0 0 27 32">
<title>ability-reconfigure</title>
<path fill="#444" d="M3.052 1.070c1.326 1.046 2.612 2.363 3.889 3.464-0.189 0.392-0.536 0.793-0.724 1.18 0.422 1.513 0.87 2.99 1.158 4.527-1.043-0.025-3.14-0.073-3.14-0.073s2.748 7.646 3.92 11.371c0.447 1.587 1.963 2.457 3.438 2.943 0.382-0.59 1.166-1.713 1.166-1.713s0.075 6.214 0.075 6.214c0 0-1.168 1.366-1.889 1.947-0.8-3.61-1.765-7.737-5.261-9.701-1.738-4.821-5.414-14.411-5.414-14.411s-0.58-1.631-0.038-2.246c0.924-1.106 2.032-2.292 2.821-3.502zM5.94 11.648c0.052 0.039 1.967 6.646 3.060 9.845 0.268 1.086 1.39 1.51 2.249 2.050 0.238-0.58 0.516-1.165 0.754-1.746-0.72-0.764-1.665-1.583-1.745-2.741-0.153-2.208 1.614-3.305 1.535-3.322-0.006-0.001 0.015-0.126 0-4.087 0-0.006-5.778 0-5.853 0zM13.333 21.018c0.958 0 1.735-0.776 1.735-1.732s-0.777-1.732-1.735-1.732c-0.958 0-1.735 0.775-1.735 1.732s0.777 1.732 1.735 1.732zM23.614 1.070c0.79 1.21 1.898 2.396 2.821 3.502 0.541 0.615-0.038 2.246-0.038 2.246s-3.676 9.59-5.414 14.411c-3.497 1.964-4.462 6.090-5.261 9.701-0.72-0.58-1.889-1.947-1.889-1.947s0.075-6.214 0.075-6.214c0 0 0.783 1.123 1.166 1.713 1.475-0.486 2.991-1.356 3.438-2.943 1.172-3.725 3.92-11.371 3.92-11.371s-2.097 0.048-3.14 0.073c0.288-1.537 0.735-3.015 1.158-4.527-0.189-0.387-0.536-0.788-0.724-1.18 1.276-1.101 2.563-2.418 3.889-3.464zM20.727 11.648c-0.052 0.039-1.967 6.646-3.060 9.845-0.268 1.086-1.39 1.51-2.249 2.050-0.238-0.58-0.516-1.165-0.754-1.746 0.72-0.764 1.665-1.583 1.745-2.741 0.153-2.208-1.614-3.305-1.535-3.322 0.006-0.001-0.015-0.126 0-4.087 0-0.006 5.778 0 5.853 0z"></path>
</svg>
