<!-- Generated by IcoMoon.io -->
<svg version="1.1" xmlns="http://www.w3.org/2000/svg" width="28" height="32" viewBox="0 0 28 32">
<title>ability-static</title>
<path fill="#444" d="M11.242 1.232c5.083-1.775 11.054 0.118 14.451 4.225 3.539 4.243 3.19 11.149-0.875 14.937-1.194 1.113-3.713 2.981-7.236 2.6-2.231-0.241-4.085-1.459-5.268-3.536-1.373-1.829-1.189-4.201-0.651-6.29-0.272 2.639 0.799 5.332 3.107 6.746 1.58 0.988 3.592 0.988 5.355 0.58 4.361-1.633 5.937-7.664 3.403-11.557-2.075-3.186-6.444-4.994-10.243-3.87-5.515 1.367-9.444 6.438-10.8 11.77-1.219 5.113 0.905 10.22 3.385 14.599-2.55-1.562-3.971-4.367-4.965-7.083-2.876-8.752 1.255-20.007 10.338-23.12zM7.223 14.402c-0.42 3.94 1.246 7.531 4.042 10.174 0.782 0.739 1.621 1.041 2.42 1.58-1.976-1.823-4.053-3.811-4.77-6.492-1.243-3.409 0.148-7.409 2.876-9.681 1.621-1.302 3.843-1.567 5.892-1.128 2.11 0.452 3.807 2.986 3.54 5.484 0.024 1.657-1.115 2.986-2.436 3.757-0.706 0.412-1.53 0.618-2.446 0.764-0.843 0.134 0.608 0.265 2.065 0.155 0.827-0.063 1.634-0.26 2.078-0.438 1.54-0.617 2.325-1.924 2.532-3.504 0.787-3.255-1.225-7.077-4.515-7.995-4.882-1.716-10.797 2.802-11.279 7.324z"></path>
</svg>
