<!-- Generated by IcoMoon.io -->
<svg version="1.1" xmlns="http://www.w3.org/2000/svg" width="30" height="32" viewBox="0 0 30 32">
<title>ability-summoning-sickness</title>
<path fill="#444" d="M11.767 4.055c-5.272 1.545-8.61 6.075-8.748 11.53 0.024 4.565 2.662 8.814 6.787 10.8 0.89 0.428 1.282 0.518 2.227 0.81h-6.525c-3.507-2.823-5.452-7.142-5.508-11.61 0.002-4.42 1.998-8.713 5.411-11.53h6.355zM24.589 4.055h-6.355c5.297 1.647 8.639 5.948 8.748 11.53-0.142 5.621-3.609 10.076-9.015 11.61h6.525c3.451-2.848 5.516-7.123 5.508-11.61-0.056-4.413-1.956-8.721-5.411-11.53zM15 7.994c4.193 0 7.591 3.399 7.591 7.591s-3.399 7.591-7.591 7.591c-4.193 0-7.591-3.399-7.591-7.591s3.399-7.591 7.591-7.591zM15 5.25c-5.708 0-10.335 4.627-10.335 10.335s4.627 10.335 10.335 10.335c5.708 0 10.335-4.627 10.335-10.335s-4.627-10.335-10.335-10.335zM15 12.155c1.894 0 3.43 1.536 3.43 3.43s-1.536 3.43-3.43 3.43c-1.894 0-3.43-1.536-3.43-3.43s1.536-3.43 3.43-3.43zM15 9.686c-3.258 0-5.899 2.641-5.899 5.899s2.641 5.899 5.899 5.899c3.258 0 5.899-2.641 5.899-5.899s-2.641-5.899-5.899-5.899z"></path>
</svg>
