<!-- Generated by IcoMoon.io -->
<svg version="1.1" xmlns="http://www.w3.org/2000/svg" width="28" height="32" viewBox="0 0 28 32">
<title>ability-channel</title>
<path fill="#444" d="M18.65 2.531c1.945-0.114 3.772 0.448 5.469 1.358 2.468 1.421 3.816 4.042 3.59 5.625-0.39 2.73-2.431 3.279-4.268 2.968-1.26-0.213-1.982-1.255-2.629-2.261-0.855-0.48-1.413 0.763-1.018 1.216 0.974 1.113 1.339 2.412 1.423 3.864-0.033 2.23-1.321 4.054-3.198 5.159-0.476 0.505-0.777 0.734-0.636 1.417 0.31 0.851 0.991 1.552 1.515 2.081 1.359 1.373 2.083 1.698 4.076-0.415 0.799-0.847 1.121-1.429 1.131-1.293 0.198 2.648-1.918 5.089-4.754 6.494-2.454 1.216-5.215 0.79-6.374-0.237-1.999-1.771-1.362-3.698-0.138-5.002 0.84-0.895 1.968-0.824 3.124-0.824 0.551 0 0.405-1.398-0.269-1.286-0.94 0.155-0.707 0.134-1.632 0.155-3.945 0.090-7.137-2.808-7.137-6.249 0.052-0.895 0.008-0.499 0.232-1.461 0.075-0.324-0.277-0.784-0.65-0.905-1.625-0.524-3.347 0.788-3.449 2.488-0.077 1.299 0.279 2.532 0.807 3.686 0.072 0.148 0.149 0.3 0.231 0.454-0.122-0.077-0.229-0.177-0.357-0.236-3.241-1.482-4.148-5.477-3.582-8.718 0.49-2.805 2.492-4.969 4.057-5.299 0.777-0.127 0.324-0.078 1.365-0.092 1.699 0.221 2.602 1.458 2.992 3.024 0.231 1.257-0.543 2.186-1.187 3.194-0.307 0.481 0.168 1.208 0.452 0.82 1.611-2.205 3.674-3.073 6.235-3.185l-0-0c1.248-0.038 2.065 0.251 3.207 0.669 1.855 0.681 4.052-3.022 2.002-4.556-1.239-0.928-2.964-0.836-4.416-0.72-0.164 0.017-0.333 0.038-0.506 0.061 0.115-0.088 0.245-0.155 0.344-0.255 1.199-1.205 2.337-1.483 3.948-1.739zM14.274 11.988c-1.322 0.028-1.965 0.516-2.738 1.322-0.012 0.013-0.025 0.024-0.038 0.036 0.007 0.012 0.014 0.023 0.019 0.035 0.113 0.268 0.177 0.353 0.43 0.579 0.103 0.093 0.247 0.224 0.376 0.172 0.483-0.196 0.712-0.12 0.909-0.021 0.396 0.2 0.626 0.742 0.416 1.141s-0.818 0.513-1.176 0.303c-0.359-0.21-0.472-0.499-0.498-0.678s-0.241-0.294-0.446-0.334c-0.285-0.055-0.292-0.062-0.554-0.061-0.024 0.002-0.050 0.004-0.081 0.006-0.006 0.013-0.011 0.025-0.016 0.036-0.114 0.254-0.15 0.36-0.153 0.859-0.013 1.867 1.626 3.413 3.622 3.388 0.572-0.007 0.615-0.057 0.855-0.113 0.022-0.005 0.043-0.032 0.069-0.043 0.002-0.020 0.004-0.039 0.005-0.057 0.051-0.531 0.061-0.282-0.021-0.797-0.032-0.135-0.077-0.324-0.213-0.354-0.51-0.111-0.656-0.303-0.762-0.496-0.214-0.389-0.097-0.966 0.301-1.177l0.322-0.077c0.723 0.276 0.486 0.063 0.82 0.491 0.177 0.376 0.108 0.678 0.028 0.841s0.052 0.362 0.18 0.527c0.373 0.353 0.208 0.234 0.557 0.439 0.022 0.013 0.046 0.027 0.072 0.043 0.014-0.010 0.029-0.020 0.043-0.031 0.927-0.675 1.231-1.478 1.35-2.585-0.011-0.777-0.275-1.542-0.832-2.090-0.015-0.015-0.031-0.030-0.047-0.045-0.015 0.004-0.029 0.009-0.043 0.012-0.268 0.049-0.346 0.077-0.671 0.296-0.115 0.078-0.268 0.174-0.247 0.311 0.078 0.516-0.049 0.721-0.192 0.889-0.287 0.338-0.868 0.435-1.207 0.138s-0.308-0.915-0.020-1.214c0.288-0.3 0.595-0.342 0.776-0.326s0.32-0.178 0.429-0.356c0.158-0.247 0.165-0.268 0.177-0.459 0.001-0.019 0.007-0.041 0.011-0.066-0.014-0.005-0.025-0.019-0.037-0.025-0.714-0.368-1.040-0.475-1.774-0.459z"></path>
</svg>
