<!-- Generated by IcoMoon.io -->
<svg version="1.1" xmlns="http://www.w3.org/2000/svg" width="19" height="32" viewBox="0 0 19 32">
<title>ability-embalm</title>
<path fill="#444" d="M5.881 23.645l3.957 5.429c-2.841 0.059-4.985-1.896-6.516-3.889l2.56-1.54zM9.271 21.605l-2.652 1.596 4.127 5.662c1.143-0.293 2.189-0.867 2.988-1.748l-4.463-5.51zM6.865 18.635l-5.541 2.802c0.785 1.952 0.304 0.928 1.502 3.044l5.899-3.549-1.86-2.296zM11.111 16.489l-3.462 1.75 6.671 8.236c1.079-1.177 1.898-2.561 2.518-4.031l-5.727-5.956zM18.427 12.79l-2.037 1.030c0.367 0.703 0.34 1.211-0.299 1.716-1.009 0.692-2.166 1.297-3.417 1.34l4.537 4.718c0.787-1.796 1.19-3.769 1.28-5.723 0.004-2.279 0.039-1.252-0.064-3.081zM17.746 8.431l-17.627 8.19c0.172 1.359 0.403 2.72 0.924 3.995l17.33-8.762c-0.066-1.162-0.254-2.318-0.628-3.424zM0.243 10.901c-0.048 0.297-0.122 0.591-0.143 0.891-0.141 2.039-0.105 2.221-0.056 3.918l3.235-1.503-3.036-3.306zM3.548 4.654c-1.781 1.201-2.816 3.051-3.132 5.167l3.679 4.006 4.312-2.003-4.859-7.17zM14.812 4.252l-7.462 4.481 1.847 2.725 8.306-3.859c-0.308-0.574-0.558-1.183-0.924-1.722-0.488-0.651-1.023-1.252-1.766-1.624zM9.46 2.925c-1.798 0.12-3.583 0.395-5.192 1.261l2.599 3.834 7.054-4.236c-0.492-0.177-0.967-0.409-1.475-0.53-1.281-0.304-1.835-0.288-2.986-0.33z"></path>
</svg>
