<!-- Generated by IcoMoon.io -->
<svg version="1.1" xmlns="http://www.w3.org/2000/svg" width="21" height="32" viewBox="0 0 21 32">
<title>ability-defender</title>
<path fill="#444" d="M20.741 1.653c0.004 1.097 0.005 2.194 0.009 3.292-1.315 0.605-1.732 1.91-1.831 3.251-5.682 0.016-11.359 0.010-17.036-0.005-0.073-1.372-0.496-2.666-1.873-3.204-0-1.111-0.004-2.222-0.009-3.333h2.919c0.134 0.979 0.241 1.961 0.352 2.942 0.788 0 1.576 0.005 2.369 0.005 0.005-0.982 0.009-1.965 0.019-2.947h3.33c0.095 0.974 0.167 1.95 0.24 2.926 0.824 0.005 1.649 0.010 2.473 0.010 0.032-0.979 0.056-1.958 0.096-2.937h3.333c0.035 0.982 0.067 1.965 0.108 2.947 0.845-0.005 1.696-0.021 2.546-0.042 0.022-0.969 0.042-1.937 0.082-2.905h2.872zM2.519 12.494c5.244-0.057 10.498-0.084 15.747 0.010 0.678-0.95 1.263-1.978 1.534-3.125-6.267 0-12.538 0.037-18.805 0.031 0.297 1.122 0.882 2.124 1.524 3.084zM3.62 13.402c-0.292 3.517-0.464 7.049-0.851 10.561-0.563 0.699-1.315 1.205-1.993 1.785 0 1.529 0.005 3.063 0 4.592 6.413 0.010 12.825 0.010 19.238 0.005 0.005-1.56 0.005-3.115-0.010-4.67-0.683-0.47-1.357-0.944-2.030-1.419-0.23-3.621-0.506-7.242-0.84-10.858-4.503-0.010-9.011-0.016-13.514 0.005z"></path>
</svg>
