<!-- Generated by IcoMoon.io -->
<svg version="1.1" xmlns="http://www.w3.org/2000/svg" width="28" height="32" viewBox="0 0 28 32">
<title>ability-day-night</title>
<path fill="#444" d="M9.99 8.024c1.698-2.197 4.324-4.575 6.703-5.995 0.052 1.706 0.417 3.932 2.205 4.141 1.711 0.2 3.343-0.754 4.32-1.817-0.219 1.392-0.996 3.15 0 4.379 1.022 1.262 2.583 1.476 4.203 1.41-1.144 0.81-2.133 1.922-2.237 3.536-0.124 1.914 1.503 3.3 3.19 3.738-1.13 0.043-2.669 0.208-3.488 1.088-1.192 1.281-0.624 2.997-0.119 4.498-1.058-0.062-2.268-0.188-3.426 0.506-1.192 0.715-1.363 2.203-1.668 3.485-1.425-0.734-3.005-1.423-4.506-1.981 3.151-0.486 6.025-2.479 7.412-5.367 1.287-2.712 0.982-6.077-0.725-8.532-2.24-3.389-6.836-4.995-10.642-3.544-1.035 0.395-1.338 0.606-1.221 0.454zM9.24 9.808c-2.126 4.838-0.424 10.782 3.704 13.99 1.034 0.276 2.287 0.194 3.29-0.032 3.065-0.69 5.424-3.271 6.091-6.369 0.157-1.73-0.033-3.503-0.81-5.076-2.293-4.271-8.499-5.682-12.274-2.512zM13.614 2.743c-7.519 0-13.614 6.095-13.614 13.614s6.095 13.614 13.614 13.614c2.355-0.119 4.792-0.502 6.798-1.852l-1.217 0.064c-7.223 0-13.853-6.073-13.853-13.197 0.301-5.879 3.261-10.178 8.793-12.232z"></path>
</svg>
