<!-- Generated by IcoMoon.io -->
<svg version="1.1" xmlns="http://www.w3.org/2000/svg" width="15" height="32" viewBox="0 0 15 32">
<title>ability-ring-bearer</title>
<path fill="#444" d="M13.352 12.486c0.185 0.294 0.359 0.62 0.534 0.991 1.662 3.529 1.907 7.134 1.23 11.049-0.376 2.18-1.664 5.472-3.709 6.621-3.445 1.937-8.539 0.469-10.054-3.347-0.98-2.466-1.332-4.765-1.351-7.374-0.023-2.961 0.545-7.439 3.093-9.38 0.103-0.078 0.207-0.154 0.313-0.226-0.677-1.48-0.583-2.811-0.232-4.248 0.047-0.19 0.027-0.37-0.060-0.541-0.868-1.749-1.014-2.425-0.908-4.319 0.048-0.86 0.515-1.534 0.671-1.615 1.193-0.621 2.749 1.852 2.42 4.983-0.083 0.793-0.742 1.186-0.742 1.186s0.717 0.81 0.86 1.035c0.422 0.665 0.517 1.74 0.532 2.412 1.428-0.324 2.944-0.221 4.346 0.344 0.035 0.014 0.154 0.073 0.154 0.073s0.007-0.385 0.008-0.431c0.037-0.827 0.351-1.561 0.967-2.097 0.149-0.128 0.343-0.532 0.305-0.723-0.195-0.978-0.931-1.557-0.508-3.438 0.159-0.703 0.533-2.004 1.444-2.062 1.205-0.077 1.43 1.823 1.443 3.070 0.015 1.376-0.549 1.848-0.848 2.687-0.059 0.168-0.225 0.376-0.118 0.521 0.927 1.262 0.842 3.24 0.211 4.83zM4.864 10.047c0.141-0.315 0.237-0.783 0.147-1.258-0.153-0.813-0.597-1.443-0.997-1.451-0.001 0-0.282 1.129-0.002 2.192 0.108 0.411 0.183 0.65 0.262 0.781 0.193-0.097 0.39-0.184 0.59-0.263zM12.183 11.156c0.257-0.014 0.492-0.602 0.528-1.325 0.036-0.74-0.151-1.359-0.414-1.372s-0.51 0.585-0.546 1.325c-0.025 0.499 0.053 0.943 0.186 1.183 0.085 0.062 0.166 0.125 0.246 0.189zM4.421 11.856c-1.867 0.747-2.607 4.078-2.855 5.978-0.35 2.658-0.13 5.282 0.657 7.872 0.506 1.662 2.387 5.466 4.559 3.409 0.049-0.046 0.052-0.096 0.012-0.149-1.010-1.32-1.647-2.618-1.911-3.895-0.879-4.249-0.745-8.508 1.716-12.229 0.034-0.052 0.035-0.107 0.003-0.161-0.48-0.808-1.293-1.18-2.181-0.824zM8.309 26.589c1.222-3.99 1.153-8.629-0.58-12.477-0.041-0.091-0.095-0.099-0.162-0.026-0.223 0.246-0.424 0.566-0.601 0.962-1.458 3.25-1.45 6.616-0.642 10.159 0.207 0.908 0.635 1.725 1.285 2.448 0.031 0.035 0.085 0.040 0.122 0.011 0.005-0.004 0.010-0.008 0.014-0.013 0.253-0.306 0.442-0.661 0.565-1.065zM3.427 1.448c-0.382 0.492-0.157 2.229-0.097 2.551 0.018 0.084 0.416 1.074 0.5 1.074 0.058 0 0.132 0.039 0.169 0 0.573-0.597 0.208-2.395 0.208-2.395-0.138-0.783-0.704-1.332-0.781-1.23zM12.627 6.090c0.186 0.002 0.475-0.787 0.488-1.71s-0.255-1.654-0.441-1.657c-0.186-0.002-0.402 0.734-0.414 1.658s0.182 1.707 0.367 1.709z"></path>
</svg>
