<!-- Generated by IcoMoon.io -->
<svg version="1.1" xmlns="http://www.w3.org/2000/svg" width="32" height="32" viewBox="0 0 32 32">
<title>ability-landfall</title>
<path fill="#444" d="M16.021 2.441c0.422-0.426 1.13-0.676 1.676-0.118 0.848 0.866 1.912-1.103 3.371 1.635 0.676 1.269 2.112-1.035 3.371-0.512 1.281 0.532 1.545 2.335 2.81 2.632 1.031 0.071 2.295-1.549 2.993 0.339 0.323 0.876 1.911 0.988 1.747 2.031-1.643 0.741-3.738 0.547-4.948 2.265-0.298 0.424 0.72 0.96 0.315 1.28-1.814 1.438-4.642 1.158-6.788 1.677l-0.289 0.47c2.159 0.071 4.81 0.236 6.762-0.807 1.037-0.555 1.497-1.487 1.124-2.521 1.098-0.251 2.214-1.149 3.371-1.103-0.503 2.32-2.274 4.396-3.213 6.518-0.65-0.092-1.224-0.485-1.886-0.514-0.83 2.42-0.614 4.875-0.736 7.387-0.184 0.147-0.722 0.622-0.907 0.768 0 0 0 0 0 0-0.088-2.68-0.030-5.475-0.089-8.151-0.039 0.012-0.073 0.033-0.109 0.045-1.222 0.405 0.049 2.961-0.926 3.911-1.92 1.888-1.226 5.22-1.498 7.661l-0.414-0.197c-0.034-3.496 0.051-7.099 0.030-10.595l-0.483-0.098c0.158 1.268 0.276 3.446-0.138 3.525-0.716 0.136 0.016 1.754-1.005 1.851-0.42 0.040-0.394 0.118-0.611 1.182-0.185 0.907-1.473 2.218-2.444 2.403-0.273 0.052-0.63-0.375-0.907-0.355 0.046-2.127-0.219-4.335-0.513-6.42l-0.434 0.335c-0.021 4.363 0.648 8.37 0.355 12.742l-0.509 0.295c-0.4-2.589-0.22-6.361-0.832-7.207-0.095-0.132-0.093-2.373-0.552-3.505-2.787 0.461-1.799-2.821-3.036-4.136-0.092 3.789 0.107 7.968 0.039 11.757l-0.67-0.177c0.074-3.096-0.867-5.928-0.907-9.453-0-0.034-0.473-0.118-1.125 0.576-0.062 0.066-0.157 0.060-0.215 0.074-2.171-2.743-4.629-5.544-5.953-8.823 0.314 0.087 1.025-0.158 1.321 0.354 0.331 0.573 0.941 0.11 1.518 0.414 0.172 0.519 0.473 1.338 0.867 1.753 1.915 0.289 3.989 0.618 5.934 0.551-0.645-1.394-5.867-0.057-4.731-2.678-2.318-0.373-4.919-1.026-6.717-2.567-0.231-0.892 0.629-2.068 1.355-1.904 0.456 0.103 1.295 0.321 1.656 0.138 1.439-0.729 2.661-2.737 5.539-1.674 1.667 0.616-1.025-2.363 1.597-1.635 0.058 0.016 0.037-0.597 0.099-0.571 0.394-0.31 1.257 0.271 1.538-0.099 0.808-1.063 1.644 0.403 2.523 0.335 1.097-0.085 1.25-0.653 1.676-1.083z"></path>
</svg>
