<!-- Generated by IcoMoon.io -->
<svg version="1.1" xmlns="http://www.w3.org/2000/svg" width="26" height="32" viewBox="0 0 26 32">
<title>ability-goad</title>
<path fill="#444" d="M13.348 2.133c1.215 5.236 4.853 7.229 10.995 5.606l1.258 4.758c-8.742 2.311-15.183-1.217-17.047-9.252l4.794-1.112zM24.943 18.299c0 0-0.845-0.2-2.281-0.23-6.918-0.148-12.983 3.711-13.698 11.396l4.911 0.326c0.314-4.739 4.712-7.565 10.255-6.637l0.813-4.854zM3.080 6.091l-3.080 3.839c4.149 3.329 4.141 8.574 0.256 12.515l3.505 3.455c5.843-5.928 5.855-14.565-0.681-19.809z"></path>
</svg>
