<!-- Generated by IcoMoon.io -->
<svg version="1.1" xmlns="http://www.w3.org/2000/svg" width="29" height="32" viewBox="0 0 29 32">
<title>ability-aftermath</title>
<path fill="#444" d="M15.242 20.312l3.019 3.629-6.881-2.020 3.862-1.609zM9.237 19.737l-6.636 1.413-2.601 3.594 6.729 1.49 3.119-4.437-0.611-2.059zM16.408 13.167l-6.368 6.185 0.574 1.934 4.446-1.852 2.279-4.147-0.932-2.12zM18.346 8.251l-2.253 2.010 2.228 5.069-2.418 4.4 4.782 5.749-0.192 0.275-0.953 1.557 9.21-2.45-10.404-16.61zM15.372 3.504l-12.002 16.582 5.956-1.269 6.703-6.511-1.001-2.277 2.842-2.536-2.499-3.99zM13.16 23.497l-2.861 3.913 3.321 1.085 3.321-0.099 1.513-0.691-0.583-2.894-4.711-1.315z"></path>
</svg>
