<!-- Generated by IcoMoon.io -->
<svg version="1.1" xmlns="http://www.w3.org/2000/svg" width="26" height="32" viewBox="0 0 26 32">
<title>ability-dungeon</title>
<path fill="#444" d="M14.992 1.575c1.31 0.157 0.757 0.040 1.673 0.278 1.139 0.676 2.408 1.155 3.401 2.052 0.138 0.036 0.407 0.103 0.546 0.138 0.348 0.344 0.704 0.688 1.060 1.024 0.265 0.664 0.577 1.329 0.613 2.056-0.265 0.111-0.791 0.336-1.056 0.447 0.024 0.229 0.067 0.684 0.091 0.91 0.075 0.129 0.43 0.161 0.494 0.295 0.14 0.29-0.030 0.691 0.059 1.002 0.577-0.004 1.155-0.008 1.732-0.012 0.078 0.229 0.151 0.46 0.219 0.692 0.029 0.098 0.335 0.097 0.362 0.196 0.133 0.491-0.041 1.090 0.020 1.6 0.15 0.273 0.469 0.15 0.623 0.427-0.008 1.72-0.044 3.816 0 5.536-0.219 0.29-0.487 0.59-0.692 0.692-0.545 0.272-0.931-0.072-0.939 0.198l-0.036 1.084 0.283 0.047c0.261-0.012 0.654 0.036 0.916 0.020 0.182 0.182 0.55 0.546 0.732 0.728 0.005 0.584-0.107 1.454-0.016 2.027 0.026 0.165 0.515 0.071 0.544 0.235 0.173 1.002 0.089 1.967 0.046 2.998 0.084 0.145 0.446 0.174 0.498 0.326 0.245 0.716-0.114 1.621-0.071 2.375-0.787-0.008-1.57-0.016-2.353-0.028h-0c-0.55 0.020-1.095 0.044-1.645 0.071-0.089 0.042-0.134 0.359-0.231 0.399-0.343 0.143-0.773 0.003-1.088 0.148-0.051-0.305 0.101-1.030 0.049-1.335-0.050-0.109-0.487 0.019-0.494-0.099-0.049-0.84-0.009-1.726 0.012-2.543v-0c-0.007-5.078-0.005-2.539-0.008-7.616v0c0.004-1.973-0.028-4.134-0.103-6.104-0.526-1.546-1.119-2.881-2.456-3.901-1.052-0.439-2.080-0.945-3.053-1.538-2.559-0.281-5.665 0.223-7.393 2.276-0.727 0.751-1.421 1.973-1.73 2.966s-0.445 3.757-0.378 4.897c0.010 0.166-0.239 0.228-0.264 0.392-0.149 0.982-0.106 2.305-0.049 3.306 0.053 1.061-0.194 2.183 0.049 3.219 0.065 0.277 0.409 0.083 0.544 0.346 0.111 2.131-0.107 4.486-0.087 6.622-1.004-0.008-2.013-0.008-3.017-0.020-0.554-0.324-1.115-0.637-1.681-0.941-0.866-1.807-0.514-3.844-0.554-5.774 0.293 0.004 0.886 0.008 1.182 0.012 0.293-0.297 0.585-0.589 0.878-0.882-0.641-0.221-1.89 0.044-2.013-0.878-0.154-2.721 0-5.449-0.059-8.178 0.166-0.162 0.494-0.486 0.66-0.652 0.32-0.008 0.961-0.028 1.281-0.036 0-0.194-0.004-0.577-0.004-0.767-0.696-0.281-1.392-0.566-2.088-0.846 0.308-1.78 1.052-3.083 2.090-4.566l0.643-0.593c0.478-0.53 0.506-0.389 0.973-0.931 1.304-1.109 0.633-0.579 2.013-1.59 0.633-0.411 1.266-0.823 1.914-1.21 0.439 0.459 0.87 0.921 1.305 1.384 0.463-0.225 0.933-0.443 1.412-0.645 0.589-0.119 1.171-0.289 1.772-0.356 0.012-0.455 0.024-0.91 0.032-1.364 1.702-0.016 0.756-0.010 2.839-0.017zM16.128 19.822c0.331 0.007 0.975 0.668 0.992 0.983 0.016 0.294-0.592 1.062-0.978 1.070-0.352 0.007-1.013-0.698-1.024-0.995-0.014-0.358 0.593-1.066 1.010-1.057zM12.775 7.267c-1.359 0.1-2.055 0.115-3.288 0.814-0.656 0.479-1.38 0.943-1.861 1.435s-1.236 2.126-1.236 2.126c-0.067 1.455-0.059 2.659-0.043 4.115-0.119 0.13-0.356 0.392-0.474 0.522 0.020 1.376-0.18 3.486-0.026 4.854 0.077 0.319 0.5-0.015 0.494 0.297-0.049 2.669-0.098 5.471-0.010 8.231 0.127 0.127 0.376 0.372 0.502 0.494 1.61-0.253 3.243-0.237 4.864-0.186 0.297-0.186 0.589-0.376 0.882-0.561 1.345 0.028 2.847 0.154 4.192 0.079 0.265-0.089 0.129-0.364 0.395-0.445 0.327-0.099 0.956-0.003 1.285-0.099 0.009-3.713-0.052-1.986-0.040-5.697-0.008-1-0.012-2.005-0.020-3.009h0c-0.008-1.795 0.024-3.587 0.020-5.378 0.059-1.803-0.878-3.417-1.586-5.014-0.7-0.66-1.317-1.424-2.112-1.977-1.020-0.517-0.392-0.264-1.94-0.601z"></path>
</svg>
