<!-- Generated by IcoMoon.io -->
<svg version="1.1" xmlns="http://www.w3.org/2000/svg" width="17" height="32" viewBox="0 0 17 32">
<title>ability-toxic</title>
<path fill="#444" d="M7.771 15.075c-0.031-2.836 0.394-3.903 0.816-5.826 0.633 1.893 0.837 3.864 0.837 5.85 2.334 0.608 4.379 2.623 4.276 5.168 0.059 2.506-1.981 4.464-4.266 5.116-0.070 1.377-0.226 2.851-0.686 4.103-0.055 0.149-0.124 0.274-0.161 0.429-0.549-1.446-0.754-2.993-0.793-4.543-2.358-0.588-4.333-2.581-4.323-5.116-0.034-2.52 1.956-4.565 4.3-5.183zM5.123 19.777c-0.265 1.79 0.952 3.579 2.703 3.946-0.025-6.968-0.031-6.994-0.032-7.017-1.26 0.579-2.543 1.581-2.671 3.071zM9.428 16.732c-0.050 6.895-0.049 6.973-0.049 7.013 1.427-0.588 2.77-1.859 2.711-3.512 0.039-1.643-1.241-2.903-2.662-3.501zM8.587 0.418v0 0c-2.090 4.672-4.21 9.332-6.5 13.91-1.651 3.205-2.872 7.032-1.482 10.589 1.375 3.518 3.535 5.392 7.213 5.984 0.059 0.009 0.119 0.011 0.179 0.016-0.628-1.177-0.574-3.164-2.035-3.659-2.888-1.054-4.329-3.985-4.172-6.986-0.088-2.408 1.054-4.585 2.158-6.639 0.059-0.108 0.175-0.375 4.639-10.053v-0.002c1.546 3.352 3.087 6.707 4.639 10.055 1.103 2.055 2.246 4.232 2.158 6.639 0.157 3.001-1.284 5.932-4.172 6.986-1.461 0.495-1.407 2.482-2.035 3.659 0.060-0.005 0.12-0.006 0.179-0.016 3.678-0.591 5.838-2.466 7.213-5.984 1.39-3.557 0.169-7.384-1.482-10.589-2.143-4.16-6.5-13.91-6.5-13.91v0z"></path>
</svg>
