<!-- Generated by IcoMoon.io -->
<svg version="1.1" xmlns="http://www.w3.org/2000/svg" width="30" height="32" viewBox="0 0 30 32">
<title>ability-hexproof-red</title>
<path fill="#444" d="M14.938 0.938c8.284 0 15 6.716 15 15s-6.716 15-15 15c-8.284 0-15-6.716-15-15s6.716-15 15-15zM6.768 24.015l-1.323 1.323c2.258 2.407 5.424 3.815 8.718 3.981l-1.195-2.070c-2.424-0.307-4.436-1.624-6.2-3.235zM22.953 24.169c-1.581 1.73-3.7 2.591-5.948 3.030l-1.222 2.117c3.217-0.132 6.239-1.57 8.493-3.824l-1.323-1.323zM14.938 6.036c-5.469 0-9.902 4.433-9.902 9.902s4.433 9.902 9.902 9.902c5.469 0 9.902-4.433 9.902-9.902s-4.433-9.902-9.902-9.902zM25.121 21.355c-1.030 1.699-0.488 0.992-1.539 2.185l1.323 1.323c0.834-0.777 1.503-1.746 1.946-2.796l-1.731-0.712zM3.264 9.35c-1.275 1.956-1.633 4.313-1.748 6.588 0.108 3.117 1.025 6.498 3.299 8.772l1.323-1.323c-1.904-1.994-2.608-4.784-2.743-7.448 0.093-1.444 0.052-1.639 0.533-3.335 0.12-0.424 0.339-0.814 0.509-1.221l-1.173-2.032zM26.636 9.387l-1.2 2.078c0.707 1.388 0.903 2.943 1.043 4.472-0.082 1.241-0.072 1.663-0.432 3.081-0.133 0.525-0.364 1.020-0.546 1.531l1.697 0.699c0.883-1.634 1.069-3.49 1.16-5.31-0.095-2.221-0.445-4.658-1.723-6.55zM14.492 2.538c-4.127 0.134-8.105 2.186-10.428 5.626h2.483c2.037-2.365 4.909-3.447 7.945-3.746v-1.88zM16.31 2.585l-0.927-0.047v1.88c3.207 0.147 5.798 1.399 7.969 3.722h2.443c-1.587-2.403-4.121-4.175-6.866-5.021-0.851-0.263-1.746-0.356-2.619-0.534zM16.449 11.699c0-0.588-0.277-0.882-0.832-0.883-0.236 0-0.45 0.117-0.643 0.353s-0.332 0.353-0.416 0.353c-0.101 0-0.332-0.118-0.694-0.353s-0.617-0.353-0.769-0.353c-0.118 0-0.219 0.042-0.303 0.126 0.403 0.169 0.798 0.53 1.185 1.085 0.319 0.454 0.681 0.681 1.084 0.681 0.302 0 0.609-0.097 0.92-0.29s0.466-0.433 0.466-0.719zM12.062 9.38c0-0.622-0.378-0.933-1.134-0.933-0.571 0-1.16 0.345-1.765 1.033-0.572 0.623-0.908 1.235-1.009 1.841 0.336-0.235 0.58-0.412 0.731-0.529 0.353-0.252 0.605-0.386 0.756-0.403 0.101 0.454 0.176 0.807 0.227 1.059 0.454-0.806 0.798-1.269 1.034-1.386l0.656-0.101c0.336-0.084 0.504-0.277 0.504-0.579zM23.054 19.287c0.185-0.437 0.277-0.765 0.277-0.984-0.521 0.572-1.101 1-1.739 1.286-0.286 0.135-0.891 0.328-1.816 0.58 0.252-0.388 0.723-0.937 1.412-1.646s1.16-1.292 1.412-1.748c0.386-0.675 0.58-1.427 0.58-2.254 0-1.57-0.69-3.235-2.067-4.991 0.218 0.545 0.378 0.954 0.479 1.226 0.269 0.699 0.403 1.278 0.403 1.738 0 0.357-0.093 0.614-0.278 0.767-1.076-3.882-3.614-5.824-7.614-5.824-0.302 0-0.832 0.043-1.588 0.126-0.891 0.101-1.37 0.193-1.437 0.277 0.588 0.051 0.991 0.084 1.21 0.101 2.235 0.201 3.353 0.588 3.353 1.16 0 0.219-0.816 0.463-2.445 0.731 0.924 0.302 1.446 0.454 1.564 0.454 0.386 0 0.815-0.127 1.286-0.378 0.47-0.252 0.823-0.378 1.058-0.378 0.504 0 0.916 0.261 1.235 0.782 0.285 0.437 0.429 0.925 0.429 1.462 0 0.42-0.101 0.63-0.302 0.63-0.152 0-0.37-0.21-0.656-0.63-0.202-0.319-0.353-0.554-0.453-0.706-0.035 0.118-0.051 0.235-0.051 0.353 0 0.706 0.323 1.361 0.97 1.966s1.323 0.925 2.030 0.958c-0.034 0.454-0.151 0.925-0.353 1.412-0.236 0.639-0.505 1.017-0.807 1.135-0.202-0.201-0.302-0.487-0.302-0.857 0-0.168 0.054-0.429 0.164-0.782s0.164-0.605 0.164-0.756c-0.168 0.067-0.357 0.248-0.567 0.542s-0.332 0.541-0.365 0.744c-0.118 0.705-0.151 1.311-0.101 1.815 0.050 0.438-0.135 0.924-0.555 1.463s-0.849 0.806-1.286 0.806c-0.286 0-0.546-0.059-0.781-0.177-0.302-0.151-0.454-0.353-0.454-0.605 0-0.403 0.361-0.815 1.084-1.235 1.009-0.604 1.597-1.79 1.765-3.555 0.050 0-0.387 0.257-1.311 0.769s-1.698 0.769-2.32 0.769c-0.151 0-0.45-0.059-0.895-0.176s-0.803-0.177-1.071-0.177c-1.21 0-2.223 0.425-3.038 1.273-0.816 0.849-1.223 1.879-1.223 3.089 0 1.143 0.395 2.176 1.185 3.101 0.807 0.975 2.521 1.626 3.722 1.699 3.42 0.207 5.051-0.539 6.513-1.396-0.252 0-0.874-0.013-1.866-0.038s-1.277-0.038-0.857-0.038c-0.084 0-0.185-0.054-0.302-0.164s-0.177-0.206-0.177-0.29c0-0.269 0.353-0.48 1.059-0.631 0.47-0.101 0.908-0.151 1.311-0.151 2.201 0 3.672-0.882 4.412-2.647z"></path>
</svg>
