<!-- Generated by IcoMoon.io -->
<svg version="1.1" xmlns="http://www.w3.org/2000/svg" width="18" height="32" viewBox="0 0 18 32">
<title>ability-decayed</title>
<path fill="#444" d="M4.947 2.152c1.203-0.621 2.425-1.252 3.737-1.597 0.36 0.237 0.956 0.649 1.316 0.885-0.951 1.563-3.116 2.363-3.195 4.37 1.484-1.464 2.854-3.057 4.373-4.496 1.597 0.138 3.224 0.473 4.782 0.887 0.592 0.789 1.302 1.583 1.533 2.564-1.4-1.686-3.826-1.454-5.655-0.71-1.799 1.41-2.578 3.663-3.909 5.452-1.070 1.513-1.208 3.392-1.075 5.186 1.435 2.071 4.319 2.1 6.409 1.193 0.493-0.725 0.399-2.268 1.484-2.307 0.468 1.553-0.182 3.525-1.839 4.003-0.651 0.242-0.981 1.006-1.696 1.104-1.223-0.153-2.519-0.695-3.717-0.148-1.366 0.527-2.061 1.873-3.066 2.844 0.552 3.619 2.136 7.053 2.974 10.617l-0.347-0.227c-1.38-1.134-1.020-2.971-2.346-4.134-0.705-0.582-0.843-1.548-1.464-2.184-0.015 0.375-0.193 0.942-0.208 1.317-0.69 0.266-1.35 0.621-1.636 1.4-0.577 0.532-0.187 1.79-1.228 1.844 0.035-5.014-0.144-10.053-0.144-15.067l0.274-0.649c0 0 0-4.452 0-4.452s-0.273-0.669-0.274-0.699c-0.038-0.67-0.069-2.295 0.093-2.919 0.006-0.021 0.050-0.074 0.056-0.095 0.951-1.099 1.637-2.406 2.618-3.48l0.739 0.108c-0.153 1.395-1.321 2.406-1.632 3.761 1.666-0.794 1.716-3.18 3.042-4.373zM10.776 6.053c0.616 1.223 2.31 2.35 1.773 4.080 1.504-1.351 1.048-4.143-0.381-5.514-0.554 0.382-0.826 0.97-1.324 1.392-0.017 0.014-0.047 0.032-0.067 0.042zM9.517 12.677c0.074-0.015 0.217-0.054 0.291-0.074-0.082-1.152 0.33-2.613-0.701-3.459-0.019-0.016-0.046-0.068-0.058-0.046-0.288 0.531-0.575 0.894-0.727 1.147 0 0 0 0 0 0-0.016 0.026 0.012 0.061 0.020 0.091 0.19 0.753 1.077 1.577 1.176 2.341 0 0 0 0 0 0z"></path>
</svg>
