<!-- Generated by IcoMoon.io -->
<svg version="1.1" xmlns="http://www.w3.org/2000/svg" width="24" height="32" viewBox="0 0 24 32">
<title>ability-enrage</title>
<path fill="#444" d="M21.853 0.722c-2.102 2.939-3.917 6.068-5.743 9.182 1.292 1.314 2.485 2.755 3.199 4.47 0.696-0.57 1.404-1.126 2.106-1.688 0.722-0.639 2.056-1.198 2.959-1.463-1.308 1.738-3.007 3.119-4.477 4.71 1.025 2.663 2.851 5.468 2.499 8.439-0.148 0.992-2.133-4.392-3.137-6.462-0.112-0.246-0.299-0.441-0.491-0.626-0.098 0.13-0.030 0.038-0.2 0.279-0.56 0.782-1.058 1.611-1.67 2.355 0.706 2.112 2.038 3.933 2.8 6.023 0.808 2.381 1.081 5.099 0.636 3.817-0.674-1.942-1.064-3.005-2.581-4.256-0.308-1.569-1.147-2.955-2.105-4.21-0.122 0.121-0.050 0.050-0.217 0.212-0.122 0.118-1.512 0.96-1.89 1.645-0.122 0.224-0.25 0.445-0.379 0.664 0.52 0.92 1.031 1.848 1.454 2.817-0.094-0.087-1.025-1.296-1.129-1.38-0.278-0.217-0.518-0.475-0.759-0.731-1.033 1.625-2.27 3.136-3.788 4.331-0.161 0.123-0.293 0.274-0.438 0.401 0.92-2.051 2.111-3.962 3.28-5.876-0.63-0.828-1.198-1.703-1.725-2.6-1.239 1.41-2.358 2.999-2.525 4.915-1.393 1.432-1.928 3.246-2.367 5.257-0.29 1.328-0.694-1.619-0.174-4.083 0.488-2.315 2.219-4.288 2.504-6.621 0.083-0.676 0.259-1.338 0.512-1.97-0.4-0.528-0.746-1.095-1.108-1.65-0.303-0.461-0.671-0.876-1.032-1.292l-0.405 0.722c-0.438 0.776-1.275 1.342-1.698 2.108-0.413 0.747-0.376 1.694-1.004 2.509-0.839 1.091-1.353 2.803-1.549 2.382-1.158-2.497 1.37-5.013 1.884-7.315 0.176-0.838 0.529-1.618 0.946-2.361-1.123-1.255-2.428-2.373-3.414-3.748 0.691 0.352 1.302 0.878 1.904 1.363 0.667 0.538 1.327 1.085 1.976 1.645 0.733-1.076 1.61-2.042 2.453-3.032-2.248-2.628-4.639-5.129-6.959-7.692 2.987 1.607 6.037 3.494 8.133 6.234 0.2-0.269 0.094-0.123 0.316-0.438 0.473-0.686 1.002-1.336 1.595-1.923-1.254-1.476-2.6-2.871-3.958-4.25 1.76 0.95 3.543 1.897 5.074 3.2 0.862-0.768 1.804-1.439 2.768-2.071-0.746 0.854-1.423 1.764-2.092 2.679 0.319 0.304 0.607 0.637 0.885 0.977 0.586 0.733 1.24 1.407 1.898 2.074 1.75-3.106 4.283-5.695 7.233-7.675zM12.673 16.272c-0.202 0.306-0.297 0.666-0.389 1.017-0.171 0.675 0.263 1.505 0.263 1.505s-1.272 0.547-1.443 0.753l-0.25 0.297c0.498 0.863 1.009 1.72 1.51 2.582 0.595-0.974 0.257-0.413 1.006-1.688 0.307-0.533 0.666-1.032 1.024-1.531-0.593-0.967-1.13-1.966-1.721-2.934zM14.832 12.067l-0.219 0.366c-0.37 0.632-0.588 1.339-0.837 2.024 0.801 0.915 1.586 1.863 2.167 2.937 0.821-0.838 0.364-0.389 1.383-1.337-0.176-0.208-0.097-0.101-0.238-0.321-0.715-1.245-1.454-2.478-2.256-3.669zM8.222 11.126c-0.608 1.055-1.195 2.123-1.787 3.188 0.851 0.72 1.62 1.525 2.352 2.363 0.543-0.95 1.189-1.835 1.829-2.721-0.515-0.475-0.967-1.012-1.395-1.565-0.691-0.891-0.357-0.471-1-1.264zM10.868 6.763c-1.186 1.849-0.631 0.953-1.669 2.682 0.888 0.931 1.761 1.875 2.619 2.834 0.782-1.095 0.247-0.354 1.629-2.207-0.816-1.136-1.676-2.24-2.578-3.308z"></path>
</svg>
