<!-- Generated by IcoMoon.io -->
<svg version="1.1" xmlns="http://www.w3.org/2000/svg" width="32" height="32" viewBox="0 0 32 32">
<title>ability-menace</title>
<path fill="#444" d="M15.845 0.695c1.065 1.442 1.508 3.235 2.532 4.697 1.819 0.937 3.831 1.488 5.599 2.553 2.644-1.391 5.258-2.858 8.024-4.010l-0.229 0.255c-2.069 2.282-4.137 4.85-4.708 7.963-0.219 2.603-0.143 5.268-0.993 7.78 1.055 2.099 2.125 4.193 3.215 6.277-1.778-1.111-3.633-2.084-5.604-2.797-1.635 1.895-3.531 3.546-5.665 4.85-1.172 0.591-1.523 1.895-1.916 3.042-0.606-1.1-1.060-2.405-2.226-3.036-2.17-1.309-4.111-2.955-5.716-4.911-2.099 0.596-4.025 1.62-5.859 2.771 1.070-2.262 2.262-4.463 3.276-6.745-0.657-2.527-0.469-5.146-0.825-7.703-0.769-2.986-2.828-5.4-4.748-7.724 2.716 1.172 5.298 2.619 7.917 3.989 1.768-1.080 3.79-1.635 5.625-2.573 1.014-1.421 1.447-3.164 2.303-4.677zM18.142 18.13c0.983 0.774 2.028 1.472 3.047 2.216 1.824-1.233 2.787-3.266 3.143-5.39-1.956 1.263-4.152 2.063-6.19 3.174zM7.535 15.083c0.428 2.002 1.284 4.055 3.087 5.192 1.146-0.581 2.135-1.432 3.169-2.191-2.109-0.958-4.193-1.967-6.256-3.001z"></path>
</svg>
