<!-- Generated by IcoMoon.io -->
<svg version="1.1" xmlns="http://www.w3.org/2000/svg" width="17" height="32" viewBox="0 0 17 32">
<title>ability-devotion</title>
<path fill="#444" d="M15.985 20.433c-0.777 2.429-2.013 4.897-4.122 6.431 0.12 0.909 1.094 1.166 1.867 1.237 0.042-0.002 0.011 0.006 0 0.006v0.972h-10.539v-0.964c-0.018-0.001-0.050-0.002-0.060-0.006-0.007-0.003 0.014-0.005 0.022-0.006 0.013-0.002 0.026-0.002 0.039-0.003 0.896-0.052 1.939-0.396 1.939-1.457-1.971-1.584-3.292-3.822-4.054-6.211h14.909zM14.854 7.086c0.162 0 0.368 0.131 0.572 0.437 0.271 0.406 0.438 0.998 0.438 1.646s-0.167 1.239-0.438 1.646c-0.204 0.306-0.411 0.437-0.572 0.437s-0.368-0.131-0.572-0.437c-0.271-0.406-0.438-0.998-0.438-1.646s0.167-1.239 0.438-1.646c0.204-0.306 0.411-0.437 0.572-0.437zM2.146 7.086c0.162 0 0.368 0.131 0.572 0.437 0.271 0.406 0.438 0.998 0.438 1.646s-0.167 1.239-0.438 1.646c-0.204 0.306-0.41 0.437-0.572 0.437s-0.368-0.131-0.572-0.437c-0.271-0.406-0.438-0.998-0.438-1.646s0.167-1.239 0.438-1.646c0.204-0.306 0.411-0.437 0.572-0.437zM14.794 2.921h-12.661v0.9l1.495 1.8c0.022 0.035 0.050 0.067 0.066 0.105 0.031 0.075 0.059 0.151 0.074 0.231 0.047 0.255-0.052 0.578-0.33 0.643-0.325-0.335-0.71-0.585-1.182-0.646l-0.11-0.004c-1.185 0-2.146 1.441-2.146 3.219 0.012 0.694 0.135 1.4 0.475 2.014l0 0.014c0.19 0.326 0.239 0.716 0.247 1.087-0.010 0.236-0.019 0.476-0.087 0.704-0.082 0.226-0.142 0.459-0.188 0.694h16.103c-0.050-0.229-0.099-0.459-0.186-0.678-0.059-0.242-0.088-0.471-0.091-0.72 0.007-0.371 0.057-0.76 0.247-1.087v-0.005c0.339-0.616 0.474-1.325 0.48-2.023 0-1.778-0.961-3.219-2.146-3.219-0.507 0.019-0.941 0.256-1.276 0.632-0.053-0.014-0.054-0.013-0.128-0.095-0.191-0.209-0.166-0.52-0.057-0.76 0.029-0.065 0.075-0.12 0.113-0.18l0.089-0.12 0.060-0.068-0.014 0.006 1.152-1.543v-0.9zM7.814 15.636h-3.081v2.729c1.582 0.002 0.628 0.003 2.862-0.014l0.22-0.003v-2.712zM12.295 15.638h-3.081v2.707c2.251 0.023 1.224 0.018 3.081 0.020v-2.727zM3.253 15.661h-2.847c0 0-0.915 0.6 0 2.493 0.090 0.071 0.479 0.086 0.576 0.093 0.755 0.058 1.514 0.070 2.27 0.093v-2.679zM13.597 15.663h2.847c0 0 0.915 0.6 0 2.493-0.090 0.071-0.479 0.086-0.576 0.093-0.755 0.058-1.514 0.070-2.271 0.093v-2.679z"></path>
</svg>
