<!-- Generated by IcoMoon.io -->
<svg version="1.1" xmlns="http://www.w3.org/2000/svg" width="25" height="32" viewBox="0 0 25 32">
<title>ability-raid</title>
<path fill="#444" d="M24.505 1.026v0c0.064 2.659 0.454 5.496-0.787 7.964-1.837 4.078-5.432 6.929-8.908 9.567 1.454 1.533 2.987 2.989 4.55 4.409 0.128-0.108 0.258-0.213 0.388-0.319 0.070-0.404-0.353-1.801 0.14-1.938 0.738-0.205 1.397 0.3 1.6 1.131 0.004 0.017-0.003 0.037 0.010 0.047-0.404 0.574-0.801 1.149-1.206 1.723 1.248 1.695 2.352 3.545 3.922 4.964 0.299 0.27 0.59 1.218 0.275 1.395-1.066 0.595-2.36 0.903-3.615 1.002-1.83 0.078-3.444-1.111-4.312-2.681-0.788-1.424-0.383-3.624 1.269-4.298l0.030-0.019-0.030-0.005c-2.107-0.509-3.821-1.846-5.52-3.115-1.673 1.328-3.438 2.537-5.517 3.115l-0.030 0.005 0.030 0.019c1.653 0.674 2.057 2.874 1.269 4.298-0.868 1.57-2.482 2.759-4.312 2.681-1.255-0.099-2.549-0.407-3.615-1.002-0.316-0.176-0.024-1.125 0.275-1.395 1.57-1.419 2.674-3.269 3.922-4.964-0.404-0.575-0.801-1.149-1.206-1.723 0.013-0.010 0.006-0.030 0.010-0.047 0.203-0.831 0.862-1.336 1.6-1.131 0.493 0.137 0.070 1.535 0.14 1.938 0.13 0.106 0.26 0.211 0.388 0.319 1.575-1.408 3.084-2.888 4.55-4.409-3.475-2.638-7.071-5.489-8.908-9.567-1.215-2.465-0.881-5.312-0.787-7.964v0 0 0c1.646 2.259 3.974 3.857 6.22 5.461 1.662 3.226 3.662 6.266 5.972 9.063 2.344-2.773 4.277-5.86 5.973-9.063 2.248-1.61 4.567-3.184 6.22-5.461zM5.756 24.6h-0c-1.333 1.773-3.773 2.877-4.036 5.26 0.017 0 0.035-0.001 0.052 0.001 1.435 0.228 2.804 0.336 4.25-0.775 1.369-1.052 1.528-3.862-0.266-4.486zM18.869 24.6v0c-1.794 0.624-1.635 3.433-0.266 4.486 1.446 1.111 2.815 1.004 4.25 0.775 0.017-0.003 0.035-0.001 0.052-0.001-0.262-2.383-2.703-3.487-4.036-5.26z"></path>
</svg>
