<!-- Generated by IcoMoon.io -->
<svg version="1.1" xmlns="http://www.w3.org/2000/svg" width="32" height="32" viewBox="0 0 32 32">
<title>ability-read-ahead</title>
<path fill="#444" d="M20.949 4.302c0 0-2.259 3.819-2.259 3.819s2.512 2.083 2.526 2.094c0.014 0.012-1.58 2.054-2.382 3.142 0.705 0.797 2.115 2.505 2.115 2.505s-1.766 2.156-1.766 2.156c0 0 1.786 2.094 1.786 2.094s-2.279 2.854-2.279 2.854c0 0 2.398 3.255 2.398 3.255s1.362-1.62 1.362-1.62c0 0 6.566 0.007 6.566 0.007s-0.018-17.898-0.018-17.898c0 0-7.946-0.068-7.946-0.068s0.575-0.945 0.575-0.945c4.872 0.024 6.968 0.035 7.812 0.050 0.358 0.006 0.518 0.213 0.518 0.495 0 0.601 0.001 1.544 0.007 1.55s0.895 0.009 1.492 0.017c0.461 0.006 0.529 0.179 0.529 0.497 0.001 2.751 0.012 16.157 0.016 18.89 0 0.358-0.154 0.501-0.471 0.501-2.561 0-14.267-0.014-14.267-0.014s-0.636-0.87-1.072-1.456c-0.71 0.657-1.061 1.381-2.357 1.465-0.17 0.011-10.864 0.006-13.334 0.001-0.305-0.001-0.5-0.162-0.5-0.455 0-2.65-0-16.095 0-18.915 0-0.381 0.187-0.518 0.449-0.517 0.601 0.004 1.593 0.010 1.593 0.010s0-1.377 0.054-2.029c3.698 0.005 7.458-1.273 11.15-0.627 0.938 0.101 1.644 0.731 2.265 1.388l0.81-0.381 0.002-0.005c1.11-0.538 4.626-1.859 4.626-1.859zM1.199 8.752c-0.077 0.001-0.165 0-0.245 0.004-0.024 0.001-0.019-0.001-0.029 0.004 0 0.019 0 18.081 0 18.119s8.231-0.046 12.236-0.012c0.984 0.008 1.614-0.386 2.212-0.967-1.545-1.534-2.092-1.861-3.339-2.119-0.834-0.173-1.741-0.172-2.6-0.064-2.693 0.337-4.599 2.109-7.134 1.997-0.049-0.002-0.148-0.009-0.148-0.009s-0.046-16.944-0.046-16.944c-0.303-0.005-0.605-0.008-0.908-0.008zM17.995 25.453c-0.256 0.004-0.51 0.031-0.763 0.062-0.071 0.009-0.143-0-0.213 0 0.554 1.42 1.333 1.351 3.414 1.343 0.109-0 0.038 0.004 0.14 0.008-0.706-1.049-1.338-1.404-2.578-1.413zM30.969 8.663c-0.319-0.002-0.638 0.010-0.957 0.003 0.015 5.445 0.007 10.889 0.004 16.334-0.008 0.141 0.009 0.326-0.107 0.432-0.119 0.109-0.308 0.102-0.457 0.105-1.709 0.004-6.742-0.019-6.728-0.004 0.018 0.018-1.049 1.333-1.049 1.333s9.385 0 9.367 0c-0.018 0 0.019-12.247 0.036-18.2l-0.109-0.003zM30.016 24.91c-0 0.064-0 0.179-0 0.238-0 0.016 0 0.031-0 0.047-0 0.012-0-0.025-0-0.037-0-0.049 0-0.107 0-0.159 0.001-0.033 0-0.004 0.001-0.089zM16.862 6.946c-0.284 0.133-0.561 0.282-0.825 0.452-0.009 5.711 0.001 11.382-0.027 17.093-0.002 0.356 0.897 0.347 0.902 0.014s-0.029-11.705-0.050-17.558z"></path>
</svg>
