<!-- Generated by IcoMoon.io -->
<svg version="1.1" xmlns="http://www.w3.org/2000/svg" width="32" height="32" viewBox="0 0 32 32">
<title>ability-backup</title>
<path fill="#444" d="M14.834 12.986v0c0 0 0.54 6.652 1.779 7.827s3.875 1.889 3.875 1.889-2.928 0.146-4.002 1.588c-1.207 1.62-1.525 7.655-1.525 7.655s-0.381-6.194-1.747-7.719c-1.067-1.191-3.97-0.858-3.97-0.858s2.986-0.699 3.939-2.382c1.068-1.887 1.652-8.001 1.652-8.001zM11.907 24.607c-1.15 1.517-2.343 3.045-4.073 3.941 2.028 0.052 3.711-1.231 5.118-2.567-0.112-0.379-0.235-0.768-0.496-1.075-0.285-0.233-0.11-0.12-0.55-0.298v0zM5.059 14.6c-0.162 0.353-0.061 0.111-0.247 0.749-0.889 3.621-3.23 5.785-4.812 6.305 2.736 0.232 4.931-2.291 6.012-4.517-0.241-0.867-0.468-1.769-0.953-2.537v0zM7.75 2.342c0 0-0.413 6.257-1.556 8.1-0.893 1.439-3.78 1.779-3.78 1.779s2.356 0.121 3.32 1.525c1.571 2.287 2.048 7.655 2.048 7.655s0.572-5.844 1.779-7.464c1.074-1.442 3.939-1.906 3.939-1.906s-2.859-0.318-4.098-1.493c-1.239-1.175-1.652-8.195-1.652-8.195zM28.116 12.673c-0.683-0.003-1.421 0.143-1.421 0.143-3.054 0.67-5.498 2.895-7.637 5.039-0.633 0.681-1.235 1.389-1.833 2.101l0.087 0.12c0.42 0.353 0.163 0.157 0.795 0.558 3.788-4.034 7.605-6.863 13.379-6.34 0.381 0.028 0.526-0.13 0.513-0.294-0.016-0.214-1.101-0.682-1.755-0.873-0.977-0.286-1.445-0.449-2.128-0.453zM20.71 0.055l0 0c-0.107 1.748-0.263 3.502-0.629 5.218-0.169 0.79-0.371 1.599-0.768 2.31-0.851 1.465-3.875 2.033-3.875 2.033s2.096 0.191 3.113 1.48c0.902 1.358 1.605 2.826 1.884 4.449l0.709-0.61c0.299-1.389 0.572-2.847 1.378-4.048 1.074-1.442 4.002-1.874 4.002-1.874s-2.891-0.223-4.129-1.398c-0.767-0.837-1.082-2.838-1.255-3.892-0.198-1.214-0.34-2.44-0.429-3.667v-0l-0-0zM19.355 3.474c-3.594 1.222-6.85 3.374-9.234 6.341 0.41 0.326 0.879 0.563 1.378 0.724l0.317 0.094c0.351-0.388 0.699-0.779 1.073-1.145 1.834-1.592 3.821-2.984 6.063-3.955 0.237-0.861 0.114-0.352 0.33-1.536l0.072-0.524zM27.018 1.515l-0.019 0.001c-1.715 0.508-2.573 0.826-4.989 1.143l0.26 1.592 1.425-0.29c1.158-0.272 2.436-0.747 3.121-1.789 0.082-0.125 0.333-0.501 0.201-0.657z"></path>
</svg>
