<!-- Generated by IcoMoon.io -->
<svg version="1.1" xmlns="http://www.w3.org/2000/svg" width="32" height="32" viewBox="0 0 32 32">
<title>ability-foretell</title>
<path fill="#444" d="M15.911 4.048c0.054 0 0.109-0.001 0.163-0.001 0.285 0.962 0.583 1.919 0.873 2.88 0.035 0.264 0.286 0.398 0.449 0.578 0.336 0.318 0.532 0.775 0.547 1.235 0.088 0.407-0.008 0.83 0.089 1.236 0.114 0.604 0.309 1.234 0.78 1.659 0.271 0.283 0.66 0.393 1.031 0.472 0.545 0.136 1.137 0.028 1.603-0.284 0.77-0.425 1.059-1.374 1.851-1.769 0.221-0.144 0.498-0.126 0.747-0.089 0.212 0.094 0.395 0.246 0.549 0.418 0.358 0.411 0.8 0.742 1.259 1.032 1.636 1.028 3.475 1.677 5.322 2.213 0.277 0.091 0.579 0.118 0.824 0.286-0.347 0.315-0.788 0.494-1.179 0.745-1.742 0.975-3.575 1.814-5.51 2.324-0.114 0.030-0.207-0.060-0.295-0.117-0.574-0.429-1.162-0.839-1.744-1.257-0.123 0.15 0.007 0.327 0.054 0.481 0.129 0.364 0.275 0.723 0.387 1.093 0.009 0.091 0.046 0.254-0.081 0.275-0.75 0.21-1.474 0.5-2.186 0.813-0.092 0.041-0.198 0.047-0.295 0.024-0.34-0.452-0.61-0.954-0.96-1.397-0.041-0.031-0.124-0.093-0.166-0.124 0.003 0.423 0.114 0.837 0.12 1.261 0.047 0.282 0.073 0.569 0.048 0.854-0.188 0.177-0.436 0.273-0.637 0.433-0.283 0.195-0.51 0.454-0.769 0.677-0.392-0.7-0.694-1.447-1.062-2.159-0.035 0.030-0.105 0.090-0.141 0.12-0.179 0.882-0.041 1.846 0.457 2.605 0.642 0.923 1.713 1.441 2.784 1.682 0.123 0.032 0.093 0.203-0.005 0.248-0.465 0.37-0.911 0.762-1.353 1.159-0.342 0.272-0.622 0.614-0.97 0.879-0.047 0.044-0.137 0.052-0.181 0.001-0.314-0.301-0.607-0.622-0.891-0.952-0.083-0.108-0.193-0.182-0.335-0.175 0.15 0.69 0.288 1.383 0.424 2.075 0.021 0.095-0.064 0.153-0.12 0.214-0.436 0.407-0.785 0.904-1.038 1.444-0.138 0.263-0.219 0.554-0.364 0.814-0.11-0.214-0.198-0.438-0.289-0.659-0.281-0.626-0.681-1.202-1.183-1.671-0.073-0.054-0.050-0.15-0.043-0.226 0.105-0.457 0.188-0.919 0.293-1.375 0.045-0.185 0.067-0.374 0.070-0.564-0.126-0.003-0.228 0.060-0.303 0.156-0.309 0.348-0.624 0.691-0.97 1.003-0.342-0.275-0.637-0.601-0.958-0.898-0.461-0.391-0.908-0.799-1.38-1.176-0.085-0.060-0.143-0.146-0.18-0.241 0.755-0.227 1.53-0.467 2.161-0.959 0.339-0.309 0.692-0.625 0.894-1.045 0.37-0.711 0.452-1.549 0.297-2.329-0.035-0.033-0.105-0.098-0.139-0.131-0.364 0.71-0.688 1.44-1.051 2.15-0.155-0.096-0.281-0.23-0.403-0.362-0.291-0.303-0.685-0.472-1.013-0.725-0.042-0.391 0.029-0.781 0.071-1.168 0.072-0.3 0.027-0.612 0.099-0.912-0.042 0.020-0.124 0.061-0.166 0.081-0.354 0.438-0.62 0.94-0.963 1.385-0.148 0.071-0.323-0.031-0.464-0.089-0.687-0.319-1.416-0.529-2.121-0.796 0.055-0.615 0.457-1.146 0.51-1.758-0.33 0.104-0.568 0.368-0.853 0.548-0.342 0.229-0.666 0.48-1.003 0.716-0.082 0.059-0.183 0.103-0.284 0.065-2.225-0.604-4.315-1.62-6.286-2.8-0.124-0.069-0.232-0.161-0.333-0.259 0.096-0.059 0.194-0.117 0.305-0.143 1.065-0.291 2.119-0.63 3.15-1.026 1.112-0.445 2.204-0.966 3.177-1.67 0.46-0.324 0.777-0.82 1.27-1.097 0.205-0.056 0.429-0.041 0.638-0.008 0.292 0.128 0.536 0.342 0.756 0.569 0.396 0.409 0.666 0.949 1.177 1.239 0.402 0.294 0.913 0.421 1.407 0.374 0.403-0.079 0.83-0.145 1.167-0.401 0.414-0.293 0.629-0.775 0.778-1.244 0.103-0.365 0.192-0.739 0.175-1.121-0.022-0.594 0.044-1.241 0.441-1.715 0.188-0.269 0.557-0.419 0.609-0.771 0.272-0.954 0.582-1.898 0.86-2.85zM15.832 11.614c-0.291 0.934-0.825 1.78-1.502 2.482-0.094 0.076-0.027 0.219 0.051 0.28 0.724 0.745 1.262 1.674 1.534 2.678 0.051-0.001 0.102-0.001 0.153-0.001 0.263-1.007 0.818-1.921 1.523-2.68 0.060-0.070 0.17-0.194 0.063-0.277-0.746-0.783-1.336-1.739-1.59-2.796-0.174 0.001-0.184 0.187-0.232 0.313z"></path>
</svg>
