<!-- Generated by IcoMoon.io -->
<svg version="1.1" xmlns="http://www.w3.org/2000/svg" width="32" height="32" viewBox="0 0 32 32">
<title>ability-afterlife</title>
<path fill="#444" d="M15.99 0.024c0.338 2.915 0.673 5.83 1.010 8.746 0.36-0.29 0.719-0.584 1.080-0.874 0.198 0.498 0.408 0.991 0.611 1.487 0.478-0.231 0.955-0.464 1.432-0.695 0.088 0.552 0.175 1.104 0.263 1.656 1.461-0.962 2.921-1.925 4.382-2.887-0.995 1.397-1.991 2.793-2.986 4.19 0.475 0.028 0.95 0.055 1.424 0.082-0.223 0.505-0.445 1.009-0.668 1.513 0.513 0.174 1.027 0.345 1.541 0.519-0.322 0.387-0.646 0.772-0.967 1.159 2.956 0.364 5.913 0.726 8.869 1.091-2.915 0.338-5.831 0.672-8.746 1.010 0.289 0.36 0.582 0.717 0.871 1.077-0.495 0.205-0.991 0.409-1.486 0.614 0.231 0.478 0.464 0.955 0.695 1.432-0.58 0.101-1.16 0.202-1.74 0.305 0.975 1.63 1.953 3.259 2.929 4.889-1.355-1.122-2.709-2.245-4.064-3.367-0.057 0.418-0.111 0.837-0.167 1.255-0.505-0.222-1.009-0.446-1.514-0.667-0.172 0.514-0.345 1.027-0.518 1.541-0.386-0.323-0.773-0.646-1.159-0.968-0.364 2.956-0.726 5.912-1.091 8.867-0.339-2.915-0.673-5.83-1.010-8.745-0.36 0.29-0.718 0.582-1.077 0.872-0.205-0.495-0.409-0.991-0.614-1.487-0.477 0.233-0.954 0.464-1.431 0.695-0.075-0.41-0.146-0.821-0.22-1.231-1.673 1.356-3.344 2.715-5.016 4.071 1.262-1.933 2.527-3.864 3.789-5.798-0.545-0.029-1.090-0.055-1.635-0.082 0.221-0.505 0.445-1.009 0.667-1.513-0.513-0.175-1.027-0.345-1.54-0.519 0.322-0.387 0.646-0.772 0.967-1.16-2.956-0.364-5.913-0.726-8.869-1.091 2.915-0.338 5.831-0.672 8.746-1.010-0.289-0.36-0.581-0.718-0.872-1.077 0.495-0.206 0.991-0.409 1.486-0.615-0.232-0.477-0.464-0.954-0.695-1.432 0.495-0.059 0.991-0.118 1.486-0.178-1.132-1.545-2.264-3.090-3.395-4.636 1.623 1.122 3.245 2.246 4.868 3.367 0.027-0.545 0.054-1.090 0.082-1.635 0.505 0.222 1.009 0.445 1.513 0.667 0.174-0.513 0.345-1.027 0.519-1.54 0.387 0.321 0.772 0.645 1.159 0.967 0.364-2.956 0.726-5.912 1.091-8.868zM15.334 9.566c-1.629 0.157-3.179 0.968-4.245 2.208-0.818 0.942-1.355 2.125-1.52 3.362-0.151 1.109-0.012 2.258 0.408 3.296 0.481 1.2 1.332 2.246 2.406 2.965 0.933 0.629 2.034 1.005 3.157 1.081 1.197 0.085 2.416-0.17 3.476-0.733 1.131-0.596 2.076-1.534 2.681-2.66 0.515-0.951 0.782-2.033 0.773-3.114-0.004-1.222-0.366-2.441-1.031-3.466-0.667-1.039-1.639-1.877-2.761-2.39-1.039-0.477-2.207-0.665-3.344-0.549zM15.681 10.227c-0.915 0.047-1.818 0.315-2.608 0.78-0.98 0.568-1.783 1.432-2.283 2.448-0.519 1.047-0.704 2.253-0.532 3.408 0.147 1.016 0.575 1.989 1.222 2.787 0.645 0.8 1.505 1.425 2.468 1.787 1.208 0.457 2.571 0.492 3.802 0.099 0.989-0.313 1.888-0.901 2.576-1.677 0.728-0.817 1.217-1.844 1.387-2.925 0.183-1.136 0.020-2.327-0.469-3.369-0.466-0.999-1.223-1.862-2.157-2.448-1.005-0.642-2.215-0.955-3.405-0.889z"></path>
</svg>
