<!-- Generated by IcoMoon.io -->
<svg version="1.1" xmlns="http://www.w3.org/2000/svg" width="32" height="32" viewBox="0 0 32 32">
<title>ability-flash</title>
<path fill="#444" d="M15.968 0c0.951 3.936 1.927 7.87 2.735 11.838 0.102 0.072 0.2 0.151 0.299 0.227 1.772-1.508 3.565-2.991 5.379-4.448-1.446 1.817-2.932 3.601-4.436 5.369 0.364 0.459 0.617 0.987 0.801 1.54 3.763 0.397 7.515 0.91 11.252 1.505-3.741 0.612-7.498 1.125-11.27 1.498-0.392 1.218-0.975 1.873-2.010 2.607-0.816 3.977-1.752 7.928-2.752 11.862-1.005-3.956-1.954-7.927-2.787-11.924-0.135-0.103-0.068-0.052-0.202-0.154-1.764 1.513-3.551 3.001-5.362 4.459 1.467-1.794 2.953-3.573 4.458-5.335-0.372-0.465-0.632-0.999-0.82-1.561-3.765-0.375-7.519-0.865-11.256-1.454 3.734-0.546 7.477-1.029 11.229-1.432 0.303-1.043 0.948-1.961 1.835-2.588 0.844-4.032 1.841-8.032 2.904-12.012z"></path>
</svg>
