<!-- Generated by IcoMoon.io -->
<svg version="1.1" xmlns="http://www.w3.org/2000/svg" width="32" height="32" viewBox="0 0 32 32">
<title>ability-addendum</title>
<path fill="#444" d="M9.71 13.094c2.104-3.645 4.211-7.288 6.318-10.931 2.092 3.632 4.185 7.264 6.276 10.897-0.748-0.617-1.583-1.127-2.478-1.501-2.071-0.872-4.444-0.997-6.597-0.356-1.287 0.379-2.491 1.031-3.519 1.891zM15.6 11.938c0.059 0.436 0.116 0.873 0.178 1.308 0.053 0.016 0.105 0.031 0.158 0.047-0.004-0.447-0.007-0.893-0.011-1.34-0.108-0.005-0.216-0.011-0.325-0.016zM16.101 12.015c0.013 0.395 0.026 0.791 0.038 1.185 0.086 0.006 0.173 0.011 0.259 0.017-0.007-0.077-0.015-0.154-0.022-0.231 0.103-0.006 0.206-0.011 0.309-0.017-0.006-0.104-0.015-0.208-0.031-0.311-0.131-0.037-0.26-0.078-0.388-0.119 0.023-0.064 0.047-0.128 0.071-0.193 0.081 0.009 0.162 0.018 0.243 0.027 0.032-0.124 0.063-0.249 0.084-0.375-0.188 0.005-0.376 0.011-0.564 0.016zM13.824 12.252c0.118 0.226 0.232 0.453 0.331 0.688 0.033 0.084 0.071 0.169 0.082 0.261-0.013 0.137-0.068 0.265-0.104 0.397 0.18-0.038 0.36-0.077 0.539-0.116-0.051-0.119-0.147-0.226-0.141-0.362-0.006-0.351-0.017-0.703-0.024-1.053-0.229 0.059-0.456 0.124-0.684 0.186zM14.707 12.070c0.132 0.407 0.264 0.813 0.397 1.219 0.13-0.006 0.261-0.011 0.391-0.017-0.019-0.245-0.032-0.492-0.071-0.735-0.118-0.042-0.24-0.076-0.353-0.13-0.036-0.063-0.034-0.144-0.051-0.214 0.107-0.012 0.214-0.023 0.322-0.034-0.003-0.028-0.009-0.084-0.012-0.112-0.208 0.001-0.416 0.017-0.623 0.024zM17.684 12.191c-0.008 0.099-0.015 0.198-0.022 0.297-0.11 0.022-0.22 0.045-0.329 0.066 0.074 0.143 0.166 0.287 0.174 0.451-0.020 0.188-0.088 0.367-0.142 0.547 0.125-0.004 0.249-0.007 0.374-0.011 0.002-0.048 0.004-0.095 0.006-0.143 0.117-0.007 0.235-0.015 0.352-0.022-0.005-0.083-0.010-0.166-0.014-0.248-0.078-0.046-0.176-0.078-0.221-0.162-0.004-0.087 0.070-0.153 0.117-0.219 0.078-0.005 0.155-0.011 0.233-0.016 0.007-0.055 0.017-0.111 0.017-0.167-0.030-0.054-0.1-0.062-0.15-0.087 0.026-0.066 0.053-0.132 0.079-0.198-0.158-0.029-0.316-0.059-0.473-0.088zM13.184 12.456c0.059 0.109 0.118 0.219 0.177 0.328-0.042 0.041-0.084 0.083-0.125 0.125-0.066-0.023-0.132-0.045-0.197-0.068-0.026-0.099-0.052-0.197-0.078-0.296-0.083 0.033-0.166 0.066-0.249 0.099 0.107 0.225 0.215 0.451 0.322 0.676 0.137-0.035 0.274-0.071 0.413-0.096 0.036 0.199 0.061 0.407-0.012 0.601 0.172-0.023 0.353-0.030 0.508-0.117-0.019-0.154-0.023-0.313-0.067-0.463-0.084-0.18-0.185-0.351-0.271-0.53-0.056-0.133-0.088-0.275-0.152-0.405-0.091 0.046-0.18 0.095-0.268 0.146zM18.197 13.752c0.204 0.097 0.407 0.195 0.612 0.292 0.002-0.076 0.004-0.151 0.006-0.226 0.031-0.024 0.062-0.047 0.093-0.070-0.064-0.051-0.129-0.101-0.193-0.151 0.006-0.058 0.011-0.117 0.017-0.175 0.027-0.015 0.055-0.031 0.083-0.046-0.007-0.050-0.014-0.099-0.021-0.149-0.069-0.052-0.219-0.102-0.181-0.209 0.087-0.091 0.215-0.126 0.33-0.167 0.059-0.096 0.117-0.193 0.175-0.29-0.114-0.004-0.228-0.008-0.342-0.011-0.030-0.064-0.066-0.126-0.121-0.171-0.15 0.458-0.305 0.915-0.457 1.373zM12.043 12.844c-0.068 0.045-0.020 0.124 0.006 0.18 0.2 0.392 0.408 0.781 0.616 1.169 0.145-0.052 0.29-0.104 0.431-0.164-0.209-0.428-0.385-0.871-0.605-1.293-0.151 0.021-0.317 0.021-0.448 0.109zM19.291 12.784c-0.061 0.104 0.017 0.223 0.014 0.333-0.081 0.092-0.197 0.14-0.3 0.201 0.084 0.060 0.166 0.123 0.245 0.191-0.11 0.184-0.196 0.381-0.288 0.575 0.061 0.049 0.123 0.096 0.186 0.142 0.14-0.252 0.29-0.498 0.437-0.746-0.071-0.057-0.156-0.108-0.195-0.195 0.054-0.071 0.151-0.078 0.231-0.103 0.123-0.025 0.225-0.108 0.301-0.204-0.118-0.063-0.245-0.104-0.37-0.149-0.084-0.027-0.172-0.058-0.261-0.044zM11.407 13.364c0.045 0.156 0.095 0.312 0.136 0.469-0.038 0.051-0.075 0.102-0.111 0.153 0.068 0.069 0.136 0.137 0.206 0.205 0.135-0.117 0.272-0.231 0.407-0.348-0.090-0.235-0.165-0.477-0.276-0.704-0.123 0.071-0.243 0.147-0.363 0.224zM19.973 13.607c-0.073 0.005-0.14-0.038-0.212-0.047-0.105 0.097-0.163 0.233-0.227 0.359 0.079 0.039 0.177 0.062 0.229 0.14-0.076 0.114-0.169 0.217-0.232 0.341 0.093 0.055 0.188 0.106 0.284 0.158 0.262-0.387 0.531-0.769 0.781-1.164-0.141-0.075-0.28-0.153-0.424-0.221-0.070 0.143-0.107 0.304-0.2 0.435zM20.658 13.708c0.076 0.083 0.159 0.163 0.218 0.261 0.015 0.026 0.043 0.083-0.008 0.089-0.109 0.034-0.225 0.028-0.337 0.030-0.118 0.151-0.24 0.301-0.325 0.473 0.073 0.063 0.148 0.123 0.219 0.189-0.058 0.035-0.115 0.071-0.17 0.11 0.045 0.053 0.091 0.105 0.138 0.156 0.099-0.069 0.197-0.139 0.295-0.209-0.039-0.082-0.083-0.163-0.102-0.252-0.007-0.038-0.017-0.097 0.030-0.113 0.103-0.052 0.22-0.067 0.325-0.115 0.125-0.125 0.229-0.269 0.345-0.401-0.159-0.115-0.319-0.231-0.478-0.346-0.050 0.042-0.101 0.084-0.15 0.126zM15.692 13.796c0.008 0.451 0.015 0.902 0.024 1.354 0.205-0.014 0.412-0.025 0.614 0.025 0.059-0.037 0.115-0.080 0.152-0.14-0.172-0.089-0.327-0.205-0.481-0.32 0.032-0.298 0.076-0.595 0.085-0.894-0.131-0.008-0.263-0.016-0.394-0.024zM16.278 13.896c-0.002 0.237-0.003 0.474-0.005 0.712 0.091 0.035 0.203 0.118 0.298 0.055 0.153-0.197 0.155-0.458 0.17-0.696-0.154-0.024-0.309-0.047-0.463-0.071zM11.766 14.257c0.096 0.115 0.179 0.241 0.266 0.363 0.151-0.103 0.303-0.204 0.453-0.307-0.082-0.127-0.163-0.255-0.246-0.382-0.159 0.107-0.319 0.213-0.473 0.326zM14.84 14.013c-0.13 0.041-0.26 0.082-0.39 0.122 0.025 0.104 0.051 0.207 0.077 0.311 0.071-0.006 0.15-0.033 0.217 0.004 0.040 0.022 0.045 0.073 0.056 0.114 0.047 0.252 0.089 0.506 0.132 0.759 0.174-0.029 0.349-0.058 0.523-0.087 0.001-0.097 0.009-0.194-0.003-0.29-0.072-0.105-0.209-0.15-0.273-0.263-0.023-0.038-0.004-0.086 0.032-0.108 0.074-0.049 0.167-0.050 0.252-0.062-0.011-0.126-0.021-0.251-0.032-0.376-0.049-0.013-0.098-0.025-0.146-0.038 0.001-0.048 0.002-0.096 0.003-0.143-0.15 0.014-0.304 0.012-0.448 0.059zM17.036 14c-0.093 0.365-0.185 0.731-0.281 1.095 0.1 0.050 0.206 0.084 0.316 0.107 0.022-0.061 0.044-0.122 0.066-0.182 0.082-0.027 0.176-0.043 0.237-0.11 0.049-0.068 0.075-0.149 0.106-0.225 0.041-0.113 0.098-0.227 0.086-0.35-0.005-0.067-0.036-0.14-0.103-0.164-0.142-0.058-0.287-0.109-0.428-0.17zM10.062 14.402c0.149 0.164 0.296 0.331 0.448 0.492 0.098-0.046 0.198-0.112 0.31-0.102 0.085 0.053 0.078 0.176 0.095 0.265-0.079 0.080-0.175 0.149-0.232 0.246-0.013 0.17-0.006 0.34-0.011 0.51 0.213-0.25 0.425-0.501 0.638-0.752-0.306-0.313-0.606-0.631-0.921-0.935-0.111 0.089-0.218 0.182-0.326 0.275zM20.681 15.17c0.054 0.073 0.124 0.132 0.187 0.198 0.328-0.293 0.656-0.586 0.984-0.879-0.132-0.116-0.263-0.232-0.401-0.341-0.264 0.335-0.52 0.677-0.77 1.022zM13.803 14.373c0.053 0.111 0.119 0.225 0.117 0.352-0.020 0.114-0.123 0.184-0.204 0.254 0.089 0.192 0.178 0.383 0.267 0.574 0.198-0.052 0.395-0.105 0.593-0.158-0.068-0.092-0.132-0.187-0.183-0.289 0.095-0.083 0.203-0.15 0.31-0.218-0.116-0.059-0.233-0.116-0.349-0.176-0.049-0.139-0.099-0.278-0.149-0.418-0.134 0.026-0.268 0.053-0.402 0.079zM17.805 14.342c-0.116 0.246-0.232 0.492-0.336 0.743-0.028 0.084-0.084 0.17-0.073 0.26 0.082 0.144 0.249 0.207 0.387 0.285 0.101-0.223 0.156-0.466 0.29-0.675-0.065-0.028-0.174-0.035-0.184-0.122 0.045-0.138 0.125-0.261 0.191-0.389-0.011-0.051-0.022-0.102-0.034-0.153-0.081 0.014-0.16 0.032-0.24 0.050zM18.007 15.608c0.107 0.094 0.214 0.188 0.32 0.283 0.059-0.081 0.117-0.163 0.176-0.245 0.079 0.063 0.16 0.125 0.242 0.185 0.096-0.087 0.194-0.171 0.291-0.255-0.147-0.144-0.325-0.275-0.41-0.467 0.025-0.13 0.108-0.238 0.17-0.352-0.114-0.074-0.228-0.149-0.343-0.223-0.149 0.358-0.298 0.716-0.447 1.074zM9.505 14.968c0.041 0.043 0.081 0.087 0.122 0.131 0.089-0.074 0.172-0.166 0.286-0.202 0.075 0 0.073 0.106 0.096 0.159-0.079 0.070-0.154 0.144-0.227 0.219 0.12 0.098 0.241 0.195 0.36 0.294 0.121-0.103 0.242-0.207 0.354-0.319-0.209-0.199-0.417-0.399-0.625-0.6-0.122 0.106-0.244 0.213-0.366 0.319zM21.050 15.66c0.082 0.084 0.166 0.168 0.247 0.253-0.014-0.107-0.063-0.226-0.012-0.329 0.094-0.026 0.179 0.073 0.276 0.064 0.060-0.021 0.11-0.063 0.16-0.1 0.214-0.169 0.421-0.348 0.627-0.526-0.095-0.115-0.191-0.231-0.287-0.346-0.337 0.328-0.674 0.656-1.011 0.984zM18.95 14.824c-0.018 0.097-0.036 0.195-0.054 0.292 0.068 0.081 0.138 0.161 0.207 0.241 0.11-0.114 0.221-0.227 0.325-0.347-0.136-0.075-0.269-0.156-0.403-0.236-0.025 0.017-0.050 0.033-0.075 0.050zM12.669 14.919c0.142 0.204 0.289 0.406 0.396 0.631 0.058 0.114 0.019 0.244-0.006 0.361 0.059 0.068 0.119 0.136 0.18 0.203 0.207-0.158 0.415-0.316 0.623-0.474-0.111-0.043-0.229-0.075-0.325-0.147-0.035-0.020-0.029-0.062-0.020-0.094 0.026-0.089 0.081-0.165 0.131-0.241-0.053-0.073-0.108-0.145-0.165-0.215-0.091 0.071-0.184 0.138-0.283 0.197-0.143-0.088-0.261-0.209-0.382-0.324-0.050 0.034-0.1 0.068-0.15 0.102zM12.171 15.219c0.063 0.104 0.163 0.206 0.154 0.335l-0.015 0.018c-0.136 0.031-0.235-0.102-0.324-0.184-0.076 0.073-0.152 0.146-0.228 0.22 0.282 0.325 0.565 0.649 0.847 0.974 0.13-0.11 0.259-0.222 0.388-0.333-0.102-0.118-0.205-0.236-0.307-0.354 0.045-0.094 0.143-0.195 0.091-0.305-0.076-0.187-0.157-0.375-0.272-0.542-0.116 0.047-0.225 0.109-0.334 0.172zM9.109 15.526c0.377 0.277 0.755 0.553 1.132 0.83 0.070-0.079 0.139-0.159 0.208-0.238-0.193-0.177-0.384-0.354-0.577-0.53-0.088 0.019-0.177 0.047-0.267 0.032-0.047-0.006-0.094-0.042-0.095-0.092-0.001-0.072 0.041-0.133 0.071-0.196-0.064-0.037-0.123-0.089-0.197-0.107-0.101 0.091-0.184 0.201-0.276 0.301zM18.884 16.284c0.177 0.162 0.352 0.325 0.53 0.485 0.099-0.113 0.198-0.225 0.298-0.337-0.105-0.113-0.214-0.223-0.321-0.334 0.174-0.249 0.349-0.498 0.523-0.747-0.097-0.052-0.195-0.103-0.295-0.15-0.256 0.353-0.491 0.721-0.735 1.083zM22.246 15.613c-0.054-0.040-0.108-0.078-0.164-0.114-0.214 0.204-0.42 0.416-0.633 0.621 0.013 0.047 0.023 0.097 0.053 0.138 0.102-0.022 0.199-0.11 0.308-0.071 0.024 0.096-0.052 0.181-0.090 0.263 0.081 0.103 0.163 0.206 0.245 0.309 0.037-0.037 0.074-0.075 0.112-0.112-0.049-0.069-0.119-0.135-0.123-0.225 0.020-0.028 0.047-0.049 0.074-0.070 0.279-0.209 0.557-0.419 0.835-0.629-0.099-0.14-0.197-0.28-0.296-0.419-0.107 0.103-0.214 0.205-0.321 0.308zM19.593 16.094c0.107 0.11 0.213 0.221 0.321 0.331-0.13 0.15-0.262 0.298-0.392 0.448 0.082 0.085 0.163 0.171 0.245 0.256 0.309-0.343 0.617-0.687 0.927-1.030-0.061-0.094-0.125-0.186-0.2-0.269-0.087 0.1-0.15 0.233-0.281 0.282-0.051-0.151 0.040-0.297 0.093-0.434-0.107-0.072-0.214-0.145-0.321-0.217-0.131 0.211-0.262 0.421-0.392 0.633zM8.824 15.837c0.004 0.051 0.007 0.103 0.011 0.154-0.050 0.064-0.11 0.125-0.136 0.205 0.009 0.081 0.046 0.159 0.034 0.242-0.011 0.083-0.039 0.162-0.063 0.242 0.060 0.031 0.12 0.061 0.182 0.089 0.030-0.094 0.067-0.21 0.172-0.242 0.11 0.004 0.216 0.045 0.315 0.092 0.056 0.030 0.12 0.064 0.143 0.128 0.007 0.107-0.036 0.209-0.068 0.309 0.068 0.047 0.135 0.093 0.203 0.139 0.073-0.089 0.131-0.191 0.216-0.269 0.052-0.011 0.105-0.012 0.158-0.017 0.063-0.122 0.146-0.239 0.156-0.381-0.329-0.215-0.657-0.429-0.984-0.646-0.096-0.077-0.226-0.036-0.338-0.045zM11.214 16.042c0.067 0.070 0.154 0.134 0.179 0.233 0 0.089-0.026 0.175-0.045 0.262 0.141 0.138 0.283 0.276 0.423 0.416 0.074-0.074 0.143-0.164 0.246-0.2 0.043-0.019 0.107 0.025 0.083 0.074-0.030 0.102-0.119 0.172-0.19 0.247 0.049 0.029 0.099 0.057 0.148 0.086 0.114-0.148 0.227-0.296 0.341-0.443-0.261-0.29-0.523-0.579-0.782-0.87-0.135 0.064-0.268 0.131-0.403 0.196zM22.893 15.901c0.005 0.106 0.022 0.211 0.024 0.317-0.178 0.061-0.374 0.063-0.542 0.15-0.017 0.147 0.030 0.293 0.055 0.436-0.127 0.11-0.255 0.218-0.382 0.328 0.044 0.081 0.088 0.161 0.132 0.241 0.41-0.206 0.819-0.413 1.23-0.619-0.013-0.088-0.027-0.176-0.040-0.264-0.171 0.052-0.338 0.126-0.519 0.137 0.096-0.154 0.279-0.218 0.423-0.317-0.12-0.142-0.215-0.316-0.38-0.41zM15.123 16.092c-0.020 0.092-0.040 0.185-0.058 0.278-0.079 0.023-0.174 0.098-0.25 0.035-0.078-0.050-0.143-0.124-0.233-0.155-0.109 0.008-0.159 0.159-0.108 0.246 0.079 0.122 0.182 0.229 0.306 0.305 0.072 0.042 0.112 0.118 0.156 0.186-0.048 0.082-0.105 0.163-0.124 0.259 0.021 0.081 0.088 0.138 0.137 0.203 0.138-0.029 0.274-0.062 0.411-0.093 0-0.269-0.008-0.538-0.003-0.807 0.038-0.127 0.145-0.225 0.172-0.357 0.005-0.065-0.018-0.128-0.034-0.189-0.123 0.031-0.247 0.060-0.37 0.089zM15.729 16.837c-0.044 0.015-0.104 0.010-0.137 0.042-0 0.133 0.019 0.266 0.025 0.399 0.155-0.010 0.309-0.023 0.464-0.034 0.002-0.401 0.004-0.803 0.006-1.204-0.098 0.002-0.196 0.004-0.294 0.006-0.022 0.264-0.043 0.528-0.065 0.791zM16.579 16.042c-0.003 0.081-0.006 0.162-0.009 0.244-0.099 0.009-0.197 0.017-0.296 0.026 0.003 0.241 0.006 0.482 0.009 0.724 0.066 0.017 0.132 0.034 0.199 0.050-0.013 0.085-0.027 0.17-0.042 0.255 0.151 0.029 0.301 0.058 0.452 0.087 0.079-0.238 0.157-0.476 0.235-0.714-0.084-0.058-0.168-0.116-0.252-0.174 0.046-0.108 0.092-0.215 0.139-0.322-0.145-0.058-0.29-0.116-0.435-0.174zM20.105 16.911c0.043 0.054 0.087 0.109 0.131 0.163 0.14-0.136 0.28-0.272 0.42-0.409-0.053-0.085-0.105-0.171-0.158-0.256-0.132 0.167-0.262 0.334-0.393 0.502zM10.579 16.952c0.129 0.003 0.261 0.001 0.387 0.037 0.082 0.021 0.123 0.101 0.179 0.156 0.158 0.163 0.332 0.309 0.503 0.458 0.077-0.058 0.153-0.116 0.228-0.176-0.317-0.31-0.633-0.622-0.949-0.932-0.116 0.152-0.231 0.306-0.348 0.457zM17.948 16.87c-0.096 0.123 0.007 0.277 0.033 0.408-0.116 0.157-0.241 0.313-0.318 0.493-0.017 0.044-0.049 0.13 0.024 0.14 0.108 0.029 0.2-0.054 0.28-0.115 0.1-0.013 0.221-0.007 0.295-0.089 0.059-0.086 0.018-0.194-0.006-0.284 0.146-0.149 0.292-0.297 0.444-0.439-0.169-0.129-0.356-0.231-0.537-0.342-0.075 0.073-0.153 0.143-0.215 0.228zM13.014 17.22c0.104 0.124 0.198 0.257 0.307 0.376 0.090 0.026 0.194 0.003 0.277 0.056 0.006 0.054-0.009 0.12-0.055 0.154-0.070 0.027-0.146-0.001-0.205-0.040-0.165-0.106-0.309-0.242-0.457-0.37-0.061 0.044-0.123 0.087-0.183 0.132 0.344 0.287 0.684 0.578 1.027 0.867 0.094-0.094 0.189-0.187 0.281-0.283-0.063-0.108-0.149-0.216-0.145-0.348 0.121 0.030 0.215 0.114 0.308 0.192 0.041-0.027 0.082-0.055 0.122-0.082-0.125-0.255-0.296-0.485-0.472-0.707-0.105 0.038-0.214 0.069-0.327 0.057-0.008-0.103 0.042-0.195 0.090-0.282-0.041-0.045-0.081-0.089-0.122-0.133-0.149 0.137-0.298 0.274-0.447 0.411zM22.289 17.562c0.025 0.126 0.052 0.252 0.088 0.376 0.1-0.025 0.198-0.058 0.295-0.094 0.040 0.077 0.079 0.154 0.118 0.232 0.106-0.021 0.212-0.045 0.316-0.076-0.054-0.152-0.115-0.307-0.111-0.471 0.151 0.057 0.246 0.196 0.355 0.308 0.105 0.011 0.21 0.016 0.316 0.007-0.017-0.106-0.038-0.212-0.055-0.319 0.050-0.017 0.101-0.034 0.151-0.051-0.087-0.166-0.172-0.333-0.271-0.493-0.4 0.195-0.801 0.387-1.202 0.581zM8.607 17.129c-0.123-0.006-0.244-0.027-0.367-0.041-0.019 0.071-0.037 0.142-0.055 0.213 0.227 0.123 0.454 0.243 0.681 0.367 0 0.118 0.005 0.235 0.020 0.352 0.117 0.006 0.234 0.012 0.351 0.017 0.012-0.064 0.025-0.127 0.038-0.191 0.105 0 0.211 0 0.317-0 0.018-0.089 0.101-0.2 0.021-0.28-0.027-0.030-0.053-0.068-0.095-0.076-0.11-0.022-0.222-0.031-0.332-0.048-0.002-0.082-0.003-0.165-0.004-0.247-0.098-0.053-0.195-0.105-0.294-0.157-0.090 0.038-0.179 0.097-0.28 0.091zM18.739 17.235c-0.022 0.092-0.042 0.184-0.063 0.276-0.013 0.046-0.019 0.101-0.064 0.129-0.224 0.17-0.45 0.339-0.674 0.509 0.13 0.154 0.262 0.306 0.391 0.461 0.099-0.046 0.196-0.098 0.276-0.174-0.065-0.082-0.131-0.163-0.197-0.244 0.221-0.23 0.441-0.459 0.662-0.688-0.11-0.090-0.22-0.18-0.331-0.27zM10.437 17.31c0.156 0.117 0.32 0.223 0.476 0.341 0.162 0.149 0.293 0.329 0.434 0.498 0.103-0.093 0.208-0.183 0.308-0.28-0.221-0.198-0.434-0.407-0.657-0.603-0.182 0.055-0.374 0.032-0.56 0.044zM20.378 18.045c0.036 0.089 0.073 0.178 0.108 0.267 0.177-0.048 0.355-0.093 0.529-0.149 0.155-0.050 0.248-0.195 0.372-0.291 0.106-0.060 0.225-0.093 0.337-0.143-0.1-0.102-0.2-0.203-0.3-0.305-0.349 0.207-0.698 0.414-1.047 0.621zM8.195 17.749c-0.009 0.040-0.018 0.081-0.027 0.122-0.069 0.031-0.154 0.052-0.193 0.123-0.019 0.106-0.017 0.215-0.034 0.321 0.336 0.138 0.674 0.27 1.009 0.411 0.063-0.029 0.112-0.076 0.163-0.121 0.066-0.032 0.144-0.024 0.216-0.033 0.002-0.074 0.013-0.15-0.005-0.222-0.059-0.087-0.174-0.118-0.275-0.106-0.146 0.013-0.297-0.029-0.413-0.116-0.076-0.087 0.063-0.202-0.005-0.294-0.067-0.094-0.178-0.14-0.274-0.198-0.054 0.037-0.107 0.075-0.16 0.114zM18.739 18.245c0.040 0.064 0.081 0.127 0.122 0.191-0.142 0.123-0.286 0.243-0.426 0.368 0.043 0.048 0.087 0.097 0.131 0.146 0.163-0.12 0.326-0.24 0.489-0.361 0.003-0.076-0.006-0.177 0.074-0.217 0.083-0.039 0.15 0.049 0.207 0.095 0.091-0.065 0.182-0.131 0.273-0.196-0.125-0.168-0.249-0.337-0.374-0.505-0.166 0.159-0.331 0.319-0.496 0.479zM12.275 18.131c0.107 0.092 0.216 0.184 0.323 0.278 0.049-0.052 0.092-0.12 0.165-0.138 0.057-0.011 0.105 0.033 0.149 0.062 0.196 0.15 0.382 0.312 0.568 0.474 0.059-0.066 0.116-0.134 0.17-0.205-0.371-0.262-0.726-0.544-1.087-0.818-0.096 0.115-0.192 0.231-0.288 0.347zM21.291 18.325c-0.227 0.078-0.468 0.108-0.704 0.149 0.032 0.194 0.071 0.386 0.107 0.579 0.124-0.040 0.256-0.059 0.376-0.11 0.124-0.125 0.213-0.299 0.385-0.366 0.165-0.063 0.329-0.128 0.494-0.194-0.082-0.145-0.163-0.29-0.245-0.435-0.133 0.129-0.249 0.284-0.412 0.378zM23.493 18.228c-0.095 0.025-0.189 0.054-0.284 0.078-0.089 0.030-0.153-0.061-0.236-0.071-0.053 0.012-0.092 0.054-0.141 0.076-0.079 0.011-0.158 0.002-0.236 0.001-0.007 0.061-0.014 0.122-0.020 0.183 0.084 0.010 0.168 0.019 0.253 0.030 0.056 0.078 0.103 0.174 0.194 0.217 0.084 0.033 0.175 0.001 0.256-0.028 0.254-0.1 0.52 0.036 0.781 0.012-0.047-0.114-0.158-0.184-0.208-0.296-0.022-0.045-0.008-0.108 0.038-0.132 0.040-0.014 0.084-0.012 0.127-0.016-0.025-0.094-0.040-0.195-0.091-0.279-0.034-0.051-0.104-0.039-0.155-0.033-0.15 0.006-0.152 0.209-0.278 0.259zM9.926 18.531c0.032 0.066 0.065 0.132 0.106 0.194 0.104-0.018 0.208-0.036 0.313-0.053 0.039-0.070 0.073-0.142 0.095-0.219-0.173 0.013-0.344 0.048-0.514 0.078zM12.074 18.67c0.248 0.128 0.497 0.251 0.745 0.377-0.046 0.106-0.104 0.21-0.118 0.327 0.023 0.047 0.079 0.055 0.125 0.066 0.11 0.017 0.222 0.022 0.333 0.035 0.032-0.133-0.063-0.249-0.074-0.377 0.016-0.081 0.082-0.138 0.132-0.199-0.052-0.119-0.138-0.222-0.242-0.298-0.097-0.044-0.149 0.083-0.195 0.146-0.193-0.097-0.387-0.193-0.58-0.291-0.044 0.071-0.085 0.143-0.127 0.215zM18.599 19.177c0.046 0.113 0.093 0.226 0.139 0.339 0.171-0.119 0.342-0.238 0.524-0.341 0.053-0.029 0.107-0.060 0.167-0.068 0.094 0.020 0.155 0.099 0.219 0.165 0.101-0.037 0.2-0.075 0.301-0.112-0.107-0.235-0.215-0.47-0.322-0.705-0.343 0.241-0.685 0.482-1.027 0.723zM8.003 18.632c0.008 0.098 0.014 0.196 0.015 0.295-0.105-0-0.209-0.002-0.314-0.004-0.005 0.071-0.009 0.142-0.013 0.214 0.235 0.028 0.471 0.057 0.706 0.084-0.027-0.072-0.054-0.145-0.081-0.216 0.096-0.005 0.192-0.009 0.288-0.014-0.002 0.036-0.004 0.072-0.007 0.109 0.097 0.006 0.193 0.012 0.29 0.019 0.012-0.061 0.028-0.121 0.031-0.182-0.276-0.123-0.554-0.243-0.835-0.355-0.020 0.013-0.061 0.038-0.081 0.051zM10.294 18.942c-0.157 0.006-0.314-0.012-0.471-0.022-0.072 0.186-0.149 0.37-0.206 0.562 0.096 0.055 0.191 0.11 0.287 0.166 0.041-0.111 0.068-0.237 0.165-0.315 0.050 0.101 0.067 0.212 0.087 0.321 0.067 0.002 0.135 0.004 0.202 0.006 0-0.060 0-0.12 0-0.18 0.089 0.012 0.177 0.025 0.266 0.038-0.005 0.079-0.011 0.157-0.014 0.236 0.122 0.029 0.243 0.060 0.364 0.091 0.009-0.064 0.018-0.128 0.027-0.191-0.092-0.033-0.184-0.065-0.276-0.095 0.002-0.123 0.009-0.245 0.015-0.368 0.138-0.007 0.275-0.015 0.413-0.022-0.003-0.102-0.007-0.205-0.011-0.307-0.128-0.066-0.253-0.158-0.4-0.172-0.168 0.048-0.272 0.224-0.449 0.253zM21.265 19.079c-0.090 0.086-0.2 0.148-0.296 0.227 0.375-0.082 0.747-0.172 1.121-0.258-0.017-0.069-0.033-0.138-0.051-0.207-0.076 0.022-0.152 0.043-0.229 0.064-0.053-0.089-0.124-0.217-0.248-0.19-0.164 0.050-0.227 0.225-0.297 0.363zM11.991 18.877c-0.039 0.081-0.093 0.157-0.116 0.245 0.013 0.079 0.043 0.154 0.078 0.226 0.024 0.056 0.086 0.079 0.123 0.125 0.024 0.064 0.031 0.133 0.045 0.2 0.303 0.076 0.608 0.148 0.912 0.222-0.004-0.053-0.008-0.105-0.011-0.157-0.184-0.082-0.381-0.128-0.573-0.187-0.021-0.169-0.042-0.338-0.063-0.507-0.131-0.057-0.263-0.111-0.395-0.167zM0.032 29.837h12.773c-1.547-0.541-2.958-1.47-4.058-2.686-1.237-1.359-2.080-3.072-2.391-4.884-0.193-1.113-0.191-2.258 0.001-3.371-2.109 3.647-4.216 7.294-6.325 10.941zM25.565 22.911c-0.399 1.644-1.241 3.176-2.407 4.401-0.942 0.994-2.094 1.789-3.36 2.313-0.168 0.077-0.349 0.122-0.511 0.212h12.68v-0.014c-0.27-0.44-0.518-0.895-0.779-1.341-1.825-3.168-3.65-6.337-5.475-9.506 0.212 1.304 0.167 2.65-0.148 3.934zM20.885 19.593c-0 0.092-0 0.184-0.001 0.275 0.093-0.029 0.187-0.072 0.287-0.066 0.104 0.016 0.196 0.070 0.289 0.115 0.065-0.124 0.163-0.272 0.322-0.264 0.194-0.010 0.328 0.16 0.515 0.177-0.058-0.157-0.108-0.318-0.177-0.47-0.013-0.056-0.081-0.017-0.116-0.017-0.374 0.081-0.746 0.166-1.119 0.249zM23.893 19.452c0 0.024-0 0.072-0.001 0.096-0.132 0.006-0.264 0.012-0.396 0.018-0.009 0.072-0.009 0.147-0.029 0.217-0.043 0.072-0.152 0.124-0.227 0.069-0.069-0.053-0.107-0.135-0.15-0.209-0.053 0.012-0.107 0.024-0.159 0.037 0.001 0.122 0.003 0.243 0.004 0.365 0.206 0.001 0.413 0.007 0.62 0.008 0.076 0.008 0.114-0.086 0.189-0.084 0.154-0.011 0.308-0.015 0.462-0.025-0.017-0.157-0.033-0.313-0.051-0.47-0.088-0.007-0.176-0.015-0.264-0.022zM11.717 19.729c0.002 0.099 0.004 0.199 0.007 0.298 0.057 0.029 0.137 0.037 0.165 0.104 0.031 0.063 0.069 0.131 0.059 0.204-0.062 0.095-0.169 0.143-0.261 0.203 0.15 0.093 0.3 0.186 0.45 0.279 0.032-0.089 0.063-0.178 0.095-0.267 0.283 0.003 0.566 0.005 0.849 0.006 0.005-0.153-0.008-0.306-0.022-0.458-0.447-0.123-0.895-0.246-1.342-0.369zM9.606 19.937c-0.015 0.105-0.030 0.211-0.044 0.316 0.16-0.016 0.32-0.032 0.48-0.049 0-0.096 0-0.193-0-0.289-0.145 0.007-0.29 0.014-0.435 0.022zM10.259 20.253c0.143 0.017 0.285 0.033 0.428 0.049-0.008-0.077-0.017-0.154-0.029-0.23-0.068-0.063-0.138-0.125-0.225-0.157-0.082 0.099-0.13 0.218-0.174 0.338zM19.337 20.054c-0.012 0.053-0.024 0.105-0.036 0.158 0.127 0.012 0.254 0.024 0.381 0.036 0.009 0.062 0.019 0.124 0.029 0.186-0.254 0.056-0.508 0.111-0.763 0.166 0.012 0.050 0.024 0.1 0.035 0.151 0.376-0.009 0.753-0.019 1.129-0.029 0.014-0.088 0.037-0.176 0.039-0.265-0.021-0.153-0.061-0.302-0.088-0.454-0.242 0.016-0.485 0.034-0.727 0.050zM21.91 20.068c0.003 0.069 0.007 0.138 0.011 0.207-0.067-0.002-0.134-0.004-0.201-0.005-0.019-0.041-0.038-0.082-0.057-0.123-0.124 0.002-0.247 0.008-0.371 0.014-0.036 0.054-0.069 0.112-0.115 0.159-0.043 0.035-0.1 0.046-0.146 0.076-0.064 0.048-0.088 0.164-0.013 0.214 0.101 0.073 0.233 0.060 0.351 0.069 0.279 0.009 0.557 0.040 0.835 0.026-0.009-0.109-0.096-0.198-0.092-0.307 0.043-0.116 0.178-0.151 0.28-0.198 0.003-0.071 0.004-0.142 0.004-0.213-0.163 0.027-0.325 0.055-0.487 0.082zM8.525 20.14c-0.288-0.008-0.575-0.017-0.863-0.025 0.001 0.142 0.002 0.283 0.004 0.425 0.218 0.020 0.437 0.040 0.655 0.060 0.001 0.037 0.003 0.074 0.005 0.111 0.21 0.003 0.419 0.006 0.629 0.009-0.009-0.060-0.019-0.119-0.028-0.178-0.061-0.043-0.129-0.080-0.171-0.143 0.004-0.078 0.089-0.116 0.14-0.165 0.003-0.058 0.006-0.116 0.009-0.174-0.12-0-0.241 0-0.361-0-0.005 0.020-0.014 0.060-0.018 0.080zM23.755 20.167c0.002 0.014 0.006 0.042 0.008 0.056-0.28 0.009-0.56 0.020-0.84 0.031-0.005 0.125-0.009 0.25-0.015 0.376 0.078 0.052 0.161 0.112 0.259 0.107 0.056-0.004 0.091-0.052 0.127-0.089 0.245-0.027 0.49-0.044 0.735-0.066 0.009-0.064 0.018-0.128 0.028-0.191 0.052-0.017 0.103-0.034 0.155-0.051 0.010-0.068 0.020-0.136 0.032-0.204-0.163 0.010-0.326 0.021-0.489 0.031zM9.765 20.52c-0.080 0.001-0.156 0.028-0.223 0.069 0.055 0.108 0.141 0.194 0.218 0.286-0.052 0.097-0.127 0.18-0.171 0.281-0.009 0.042-0.003 0.106 0.037 0.13 0.149 0.009 0.298-0.001 0.447-0.003-0.009-0.069-0.038-0.169 0.039-0.21 0.098-0.037 0.17 0.053 0.208 0.13 0.071 0.001 0.142 0.003 0.213 0.004 0.005-0.123 0.011-0.247 0.016-0.37 0.131-0.020 0.262-0.040 0.393-0.060-0.029-0.074-0.058-0.149-0.086-0.223-0.072-0.034-0.143-0.084-0.227-0.074-0.288 0.014-0.575 0.027-0.863 0.040zM7.657 20.792c-0.004 0.131-0.006 0.262-0.005 0.394 0.173 0.045 0.341 0.106 0.51 0.163 0.011 0.127 0.018 0.253 0.027 0.38 0.079-0.003 0.158-0.005 0.238-0.007-0.006-0.117-0.013-0.233-0.021-0.35 0.2 0.011 0.4 0.023 0.6 0.034-0.001-0.126-0.003-0.252-0.004-0.379-0.274-0.030-0.547-0.059-0.821-0.090 0.007-0.047 0.014-0.093 0.021-0.14-0.182-0.003-0.363-0.003-0.545-0.005zM11.702 21.107c0.075 0.071 0.161 0.149 0.173 0.258 0.010 0.125-0.046 0.242-0.091 0.355 0.138-0.008 0.277-0.013 0.416-0.020 0.053-0.148 0.106-0.295 0.157-0.443 0.223-0.032 0.447-0.056 0.67-0.085 0.006-0.127 0.013-0.254 0.019-0.381-0.178 0.012-0.359-0.008-0.534 0.027-0.271 0.094-0.54 0.194-0.811 0.289zM23.356 20.819c-0.002 0.051-0.004 0.103-0.005 0.155-0.125-0.008-0.249-0.015-0.374-0.022-0.009 0.059-0.018 0.118-0.027 0.177 0.102 0.003 0.203 0.006 0.305 0.009 0.014 0.077 0.027 0.155 0.041 0.232-0.070 0.011-0.14 0.021-0.209 0.032 0.001 0.069 0.003 0.137 0.004 0.206 0.164 0.048 0.334 0.088 0.506 0.064-0.005-0.128-0.009-0.256-0.014-0.384 0.101-0.002 0.203-0.014 0.304-0.003 0.125 0.032 0.243 0.091 0.369 0.124 0.011-0.196 0.012-0.394-0.001-0.59-0.071-0.027-0.156-0.019-0.233-0.017-0.067 0.057-0.089 0.148-0.125 0.225-0.044 0.007-0.088 0.013-0.132 0.020 0.006-0.078 0.012-0.155 0.018-0.233-0.143 0.001-0.286 0.003-0.428 0.005zM21.31 20.924c0.025 0.063 0.050 0.126 0.074 0.189 0.27 0.011 0.54 0.003 0.81 0.016 0.070 0.024 0.12 0.086 0.179 0.129 0.008-0.1 0.009-0.201 0.007-0.301-0.357-0.011-0.713-0.022-1.070-0.033zM18.85 21.014c0.057 0.185 0.239 0.35 0.442 0.322 0.173-0.010 0.346-0.016 0.519-0.027-0.008-0.115-0.024-0.229-0.042-0.342-0.306 0.015-0.613 0.029-0.919 0.047zM10.621 21.363c-0.102 0.086-0.172 0.215-0.298 0.269-0.197-0.014-0.381-0.126-0.583-0.102-0.043 0.001-0.095 0.032-0.078 0.082 0.037 0.121 0.172 0.172 0.229 0.28 0.012 0.113-0.123 0.19-0.11 0.305 0.075 0.091 0.212 0.081 0.318 0.071 0.148-0.063 0.285-0.152 0.429-0.225-0.014-0.056-0.027-0.112-0.038-0.168 0.171-0.032 0.338-0.081 0.511-0.103-0.007-0.164-0.012-0.329-0.037-0.492-0.115 0.027-0.233 0.041-0.344 0.082zM12.508 21.395c-0.024 0.122-0.037 0.271-0.152 0.345-0.153 0.105-0.321 0.187-0.486 0.272 0.018 0.064 0.038 0.127 0.057 0.191 0.215-0.086 0.43-0.174 0.646-0.26-0.001-0.069 0.029-0.136 0.089-0.173 0.153-0.1 0.337-0.132 0.511-0.178-0.023-0.065-0.046-0.13-0.068-0.196-0.199-0.003-0.398-0.001-0.597-0.001zM21.422 21.404c-0.024 0.039-0.032 0.101-0.084 0.113-0.149-0.007-0.293-0.055-0.438-0.086-0.007 0.078-0.014 0.156-0.021 0.234 0.211 0.092 0.436 0.165 0.616 0.314-0.004 0.091 0.017 0.187-0.017 0.274-0.067 0.038-0.153 0.019-0.226 0.028-0.030-0.092-0.038-0.191-0.073-0.281-0.053-0.065-0.138-0.169-0.23-0.112-0.117 0.096-0.147 0.257-0.243 0.371 0.256 0.113 0.515 0.217 0.771 0.329 0.162 0.063 0.317 0.167 0.499 0.147-0.017-0.087-0.114-0.104-0.178-0.145-0.012-0.195-0.016-0.391-0.024-0.586 0.040-0.028 0.080-0.055 0.12-0.082-0.009-0.083-0.022-0.166-0.024-0.249 0.030-0.022 0.070-0.029 0.104-0.043-0.020-0.084-0.039-0.168-0.058-0.252-0.165 0.009-0.329 0.017-0.493 0.027zM18.765 21.449c-0.027 0.13-0.054 0.26-0.080 0.39 0.288 0.146 0.577 0.29 0.866 0.436 0 0.101 0 0.202 0 0.303 0.089 0.006 0.179 0.011 0.269 0.017 0.078-0.263 0.157-0.526 0.234-0.789-0.122 0.035-0.247 0.086-0.376 0.071-0.1-0.033-0.099-0.159-0.107-0.246 0.048-0.051 0.094-0.102 0.14-0.154-0.075-0.008-0.149-0.015-0.223-0.022-0.035 0.083-0.075 0.184-0.172 0.21-0.13 0.032-0.259-0.026-0.373-0.083-0.026-0.062-0.053-0.124-0.081-0.186-0.033 0.017-0.065 0.035-0.097 0.052zM22.15 21.445c-0.089 0.248-0.133 0.509-0.191 0.765 0.036 0.018 0.072 0.037 0.108 0.056 0.078-0.254 0.154-0.508 0.231-0.762-0.049-0.020-0.099-0.040-0.148-0.058zM7.687 21.606c0.034 0.296 0.066 0.592 0.098 0.888 0.101 0.030 0.201 0.060 0.302 0.090-0.004-0.077-0.008-0.154-0.012-0.23 0.374-0.029 0.749-0.056 1.124-0.085-0.036-0.161-0.075-0.321-0.108-0.482-0.080-0.019-0.161-0.034-0.241-0.050-0.004 0.063-0.009 0.127-0.013 0.191-0.26 0.003-0.52 0.003-0.779 0.005-0.006-0.119-0.014-0.238-0.021-0.357-0.117 0.009-0.233 0.019-0.35 0.031zM23.635 21.835c-0.15 0.012-0.291-0.058-0.438-0.074-0.137-0.015-0.288-0.057-0.417 0.012 0.047 0.128 0.176 0.195 0.237 0.312-0.015 0.061-0.082 0.119-0.062 0.183 0.076 0.078 0.195 0.055 0.293 0.049 0.237-0.029 0.477 0.021 0.695 0.113 0.086-0.004 0.162-0.052 0.24-0.085-0.045-0.060-0.097-0.115-0.133-0.18-0.035-0.082-0.037-0.174-0.048-0.262 0.062-0.006 0.123-0.013 0.185-0.019 0.011-0.077 0.021-0.154 0.029-0.231-0.135-0.012-0.27-0.022-0.405-0.033-0.048 0.078-0.087 0.174-0.176 0.213zM12.118 22.522c0.089 0.177 0.178 0.356 0.267 0.533 0.096-0.063 0.193-0.126 0.29-0.189-0.061-0.077-0.148-0.15-0.153-0.255 0.056-0.061 0.127-0.107 0.193-0.156 0.214-0.155 0.433-0.305 0.65-0.457-0.041-0.081-0.086-0.161-0.139-0.234-0.383 0.233-0.74 0.503-1.108 0.758zM10.765 22.194c-0.074 0.064-0.153 0.126-0.235 0.18-0.112 0.036-0.234 0.013-0.347 0.044-0.1 0.048-0.187 0.117-0.282 0.173 0.074 0.187 0.149 0.373 0.223 0.561 0.059 0.002 0.119 0.004 0.179 0.007-0.023-0.112-0.099-0.245-0.030-0.351 0.119 0.003 0.176 0.128 0.242 0.208 0.076-0.007 0.153-0.014 0.23-0.021-0.012-0.123-0.086-0.305 0.056-0.376 0.13-0.084 0.259-0.167 0.388-0.251-0.079-0.132-0.155-0.267-0.258-0.383-0.063 0.063-0.106 0.142-0.164 0.209zM18.666 22.349c-0.093 0.004-0.191-0.009-0.278 0.030-0.069 0.061-0.099 0.155-0.146 0.233 0.168 0.164 0.337 0.329 0.505 0.494 0.090-0.052 0.18-0.103 0.269-0.155 0.127 0.101 0.252 0.203 0.379 0.304 0.076-0.159 0.152-0.317 0.229-0.476-0.112-0.033-0.225-0.065-0.337-0.097 0.018-0.083 0.037-0.166 0.056-0.248-0.184-0.103-0.366-0.211-0.554-0.307-0.041 0.074-0.081 0.149-0.123 0.223zM12.974 22.496c0.050 0.095 0.095 0.192 0.137 0.291-0.201 0.198-0.404 0.395-0.604 0.593 0.095 0.091 0.19 0.182 0.286 0.273 0.197-0.221 0.393-0.445 0.591-0.665 0.115 0 0.239 0.012 0.344-0.046 0.039-0.018 0.071-0.075 0.029-0.108-0.088-0.089-0.218-0.112-0.32-0.18-0.045-0.047-0.023-0.12-0.026-0.178 0.001-0.059 0.017-0.163-0.069-0.163-0.14 0.006-0.286 0.066-0.367 0.184zM20.76 22.708c-0.066 0.037-0.139 0.060-0.208 0.090-0.030 0.039-0.027 0.093-0.038 0.139 0.108 0.095 0.199 0.208 0.313 0.296 0.151 0.068 0.312 0.114 0.471 0.161 0.138 0.044 0.274-0.035 0.392-0.097 0.093-0.047 0.169-0.161 0.121-0.266-0.050-0.075-0.128-0.125-0.187-0.191-0.094 0.050-0.182 0.113-0.283 0.146-0.121-0.060-0.226-0.16-0.278-0.285-0.049-0.092-0.141-0.178-0.25-0.18-0.068 0.037-0.044 0.125-0.052 0.187zM23.030 22.676c-0.082-0.005-0.126-0.079-0.167-0.14-0.084 0.004-0.169 0.009-0.252 0.014 0.011 0.079 0.003 0.167 0.044 0.24 0.059 0.050 0.14 0.060 0.207 0.097 0.048 0.063 0.079 0.135 0.119 0.203 0.124-0.024 0.25-0.060 0.378-0.043 0.177 0.025 0.35 0.079 0.529 0.091 0.039 0.001 0.119 0.010 0.098-0.055-0.045-0.12-0.156-0.201-0.188-0.328-0.035-0.086-0.078-0.21-0.186-0.218-0.189 0.057-0.374 0.18-0.58 0.139zM8.827 22.643c-0.161 0.030-0.324 0.002-0.485-0.006-0.040 0.078-0.074 0.174-0.158 0.215-0.094 0.040-0.2 0.025-0.3 0.025 0.026 0.072 0.051 0.145 0.077 0.216 0.027 0.115 0.165 0.129 0.25 0.186 0.018 0.070 0.036 0.141 0.054 0.211 0.118-0.047 0.237-0.094 0.354-0.145-0.045-0.106-0.085-0.214-0.123-0.323 0.153 0.010 0.305 0.023 0.457 0.037-0.013 0.040-0.025 0.080-0.038 0.121 0.165-0.049 0.33-0.099 0.495-0.149-0.020-0.162-0.040-0.323-0.059-0.485-0.175 0.033-0.349 0.068-0.524 0.097zM10.986 22.706c0.018 0.107 0.031 0.215 0.037 0.324-0.258 0.157-0.534 0.282-0.808 0.411 0.070 0.163 0.156 0.319 0.241 0.475 0.141-0.057 0.281-0.115 0.419-0.178-0.053-0.072-0.103-0.145-0.153-0.219 0.079-0.033 0.154-0.076 0.236-0.1 0.065-0.006 0.13 0.010 0.194 0.020 0.022 0.070 0.043 0.139 0.066 0.209 0.133-0.132 0.265-0.265 0.398-0.397-0.045-0.090-0.079-0.188-0.142-0.268-0.070-0.079-0.153-0.144-0.234-0.211-0.069-0.063-0.171-0.049-0.256-0.066zM17.978 22.831c-0.149 0.184-0.301 0.366-0.451 0.55 0.080 0.092 0.16 0.183 0.241 0.275 0.048-0.031 0.096-0.061 0.144-0.092 0.108 0.082 0.205 0.181 0.248 0.314-0.073 0.075-0.147 0.15-0.22 0.225 0.096 0.102 0.191 0.203 0.287 0.304 0.118-0.089 0.238-0.175 0.355-0.265-0.229-0.26-0.455-0.522-0.682-0.784 0.049-0.050 0.099-0.099 0.149-0.149 0.252 0.253 0.5 0.51 0.753 0.762 0.125-0.157 0.252-0.314 0.378-0.471-0.083-0.084-0.157-0.194-0.274-0.23-0.098 0.032-0.151 0.132-0.245 0.17-0.145-0.099-0.143-0.326-0.297-0.423-0.061-0.035-0.134-0.029-0.201-0.031-0.062-0.051-0.122-0.104-0.183-0.155zM13.565 23.283c-0.225 0.176-0.441 0.362-0.652 0.554 0.087 0.081 0.168 0.168 0.249 0.255 0.193-0.194 0.387-0.387 0.58-0.581 0.056-0.058 0.128-0.096 0.198-0.136 0.039 0.059 0.084 0.114 0.139 0.159 0.049-0.083 0.092-0.169 0.132-0.256-0.082-0.103-0.164-0.205-0.244-0.309-0.101 0.143-0.27 0.204-0.401 0.313zM22.366 23.102c0.080 0.157 0.23 0.257 0.366 0.361s0.297 0.175 0.417 0.301c0.082 0.077 0.157 0.17 0.267 0.209 0.091 0.028 0.215 0.019 0.267-0.073 0.073-0.128 0.134-0.284 0.070-0.429-0.031-0.063-0.025-0.178-0.117-0.179-0.183-0.019-0.364 0.045-0.547 0.028-0.205-0.053-0.376-0.195-0.585-0.235-0.047-0.011-0.092 0.005-0.136 0.017zM20.4 23.164c-0.13 0.143-0.265 0.282-0.392 0.428 0.184 0.17 0.362 0.346 0.553 0.51-0.058 0.079-0.126 0.149-0.198 0.214 0.171 0.14 0.335 0.291 0.523 0.408 0.050 0.044 0.104-0.011 0.136-0.049 0.103-0.13 0.177-0.28 0.252-0.427-0.154-0.14-0.339-0.238-0.517-0.342-0.071-0.037-0.063-0.132-0.090-0.196 0.133 0.051 0.265 0.105 0.398 0.157 0.036-0.074 0.073-0.149 0.109-0.223-0.258-0.16-0.516-0.32-0.774-0.48zM8.172 23.717c0.020 0.081 0.042 0.163 0.067 0.243 0.169-0.033 0.338-0.067 0.506-0.103 0.084 0.060 0.173 0.116 0.272 0.149 0.080-0.084 0.141-0.183 0.214-0.273 0.128-0.069 0.271-0.105 0.405-0.162-0.059-0.122-0.118-0.244-0.193-0.357-0.424 0.169-0.848 0.335-1.272 0.502zM10.609 24.14c0.072 0.154 0.141 0.31 0.236 0.451 0.158-0.063 0.301-0.155 0.446-0.243-0.029-0.059-0.058-0.117-0.087-0.175 0.233-0.14 0.465-0.28 0.698-0.42-0.066-0.084-0.133-0.167-0.203-0.247-0.373 0.194-0.726 0.424-1.090 0.634zM16.812 23.711c0.064 0.292 0.126 0.584 0.191 0.876-0.072 0.071-0.144 0.142-0.217 0.212 0.034 0.072 0.068 0.145 0.105 0.216 0.185-0.064 0.371-0.123 0.557-0.185-0.119-0.4-0.225-0.804-0.365-1.197-0.090 0.026-0.18 0.052-0.27 0.078zM14.868 23.976c-0.063 0.038-0.14 0.053-0.193 0.108-0.116 0.113-0.196 0.257-0.264 0.403-0.027 0.065-0.061 0.131-0.059 0.203 0.029 0.090 0.112 0.145 0.179 0.205 0.048-0.137 0.111-0.274 0.23-0.363 0.084-0.083 0.211-0.127 0.258-0.241 0.081-0.179 0.165-0.357 0.247-0.536-0.072-0.012-0.143-0.025-0.215-0.037-0.057 0.089-0.106 0.185-0.183 0.259zM16.443 23.806c0.013 0.134 0.024 0.269 0.025 0.404-0.142-0.017-0.284-0.028-0.426-0.035 0.004 0.096 0.008 0.191 0.013 0.287 0.133 0.014 0.267 0.029 0.4 0.044-0.015 0.080-0.030 0.161-0.044 0.241-0.153 0.003-0.306 0.005-0.458 0.006 0.011 0.095 0.021 0.191 0.032 0.286 0.237 0.013 0.475 0.026 0.713 0.038-0.017-0.428-0.034-0.856-0.051-1.285-0.068 0.004-0.136 0.008-0.203 0.013zM15.586 23.9c-0.107 0.247-0.197 0.504-0.335 0.737-0.123 0.038-0.255 0.062-0.365 0.132-0.050 0.058-0.103 0.139-0.078 0.218 0.069 0.079 0.184 0.085 0.28 0.112 0.023-0.070 0.032-0.2 0.134-0.19 0.136 0.046 0.234 0.16 0.339 0.253 0.064-0.024 0.138-0.033 0.19-0.081 0.027-0.414 0.048-0.829 0.075-1.243-0.080 0.021-0.159 0.041-0.239 0.061zM9.413 24.043c0.039 0.111 0.082 0.222 0.096 0.34-0.037 0.099-0.185 0.121-0.255 0.046-0.047-0.050-0.057-0.12-0.076-0.183-0.053-0.014-0.106-0.026-0.159-0.038-0.043 0.042-0.080 0.096-0.137 0.12-0.078 0.003-0.092-0.092-0.122-0.143-0.112 0.038-0.225 0.076-0.336 0.119 0.077 0.076 0.165 0.14 0.24 0.218 0.047 0.065 0.073 0.142 0.107 0.214-0.056 0.029-0.112 0.059-0.168 0.089 0.073 0.12 0.147 0.24 0.22 0.36 0.111-0.046 0.223-0.091 0.334-0.136 0.091 0.035 0.183 0.069 0.275 0.103 0.065-0.056 0.131-0.112 0.196-0.167 0.003-0.102 0.006-0.203 0.012-0.304 0.159-0.066 0.314-0.14 0.461-0.231-0.055-0.069-0.11-0.137-0.164-0.206-0.051-0.001-0.102-0.002-0.152-0.003-0.059-0.107-0.121-0.213-0.182-0.319-0.069 0.031-0.135 0.069-0.19 0.122zM11.904 24.045c-0.080 0.011-0.168 0.004-0.239 0.051-0.117 0.11-0.152 0.281-0.274 0.386-0.131 0.116-0.26 0.233-0.389 0.35 0.138 0.137 0.279 0.271 0.417 0.408 0.061-0.063 0.122-0.126 0.185-0.187-0.033-0.055-0.075-0.107-0.090-0.171-0.010-0.037 0.017-0.077 0.055-0.083 0.076 0.012 0.121 0.082 0.172 0.133 0.079-0.075 0.16-0.148 0.245-0.216-0.031-0.077-0.114-0.184-0.033-0.256 0.102-0.047 0.205 0.039 0.3 0.073 0.043-0.087 0.081-0.177 0.119-0.266-0.094-0.098-0.189-0.195-0.284-0.291-0.059 0.026-0.117 0.062-0.183 0.068zM19.522 24.249c0.111 0.082 0.222 0.165 0.324 0.258-0.095 0.070-0.191 0.139-0.285 0.21 0.099 0.076 0.19 0.165 0.297 0.231 0.077 0.022 0.157 0.029 0.236 0.043-0.068 0.065-0.127 0.139-0.181 0.217 0.113 0.097 0.226 0.194 0.34 0.289 0.038-0.066 0.067-0.141 0.119-0.198 0.112-0.078 0.236-0.139 0.35-0.216-0.221-0.19-0.427-0.396-0.64-0.593 0.020-0.075-0.003-0.193 0.093-0.216 0.067-0.021 0.148-0.082 0.106-0.161-0.125-0.109-0.307-0.104-0.463-0.123-0.102 0.083-0.2 0.17-0.296 0.259zM21.709 24.631c0.235 0.18 0.469 0.36 0.704 0.54 0.107-0.041 0.216-0.092 0.334-0.085 0.093 0.020 0.159 0.106 0.255 0.117 0.079-0.025 0.12-0.129 0.069-0.198-0.104-0.163-0.313-0.197-0.444-0.329-0.055-0.053-0.032-0.153-0.090-0.198-0.12 0.017-0.236 0.111-0.36 0.067-0.037-0.044-0.020-0.107-0.029-0.159 0.005-0.088-0.058-0.169-0.141-0.193-0.184 0.067-0.219 0.284-0.298 0.439zM18.868 24.855c0.259 0.363 0.519 0.727 0.779 1.090 0.14-0.080 0.28-0.16 0.42-0.24-0.076-0.137-0.148-0.277-0.244-0.4-0.059 0.056-0.118 0.112-0.177 0.168-0.069-0.085-0.128-0.176-0.185-0.269 0.069-0.064 0.138-0.128 0.207-0.192-0.107-0.097-0.215-0.193-0.322-0.289 0.092-0.063 0.184-0.125 0.273-0.192-0.021-0.037-0.028-0.084-0.062-0.111-0.056-0.027-0.121-0.020-0.181-0.024-0.168 0.154-0.341 0.305-0.51 0.458zM12.255 24.718c0.102 0.095 0.205 0.19 0.307 0.285-0.034 0.074-0.071 0.146-0.113 0.215-0.077-0.019-0.161-0.026-0.229-0.068-0.068-0.073-0.123-0.156-0.19-0.23-0.174 0.155-0.33 0.329-0.494 0.494 0.088 0.094 0.177 0.187 0.267 0.279 0.143-0.113 0.287-0.226 0.43-0.338 0.055 0.058 0.109 0.116 0.164 0.174-0.098 0.109-0.197 0.218-0.294 0.327 0.067 0.055 0.134 0.109 0.202 0.163 0.247-0.323 0.495-0.643 0.741-0.966-0.175-0.188-0.343-0.384-0.53-0.56-0.090 0.070-0.176 0.145-0.26 0.223zM10.106 24.68c-0.092 0.169-0.162 0.357-0.295 0.501-0.122 0.093-0.233 0.208-0.377 0.269-0.098 0.029-0.138-0.094-0.216-0.128-0.078 0.029-0.156 0.068-0.217 0.125-0.040 0.030 0.005 0.068 0.026 0.093 0.107 0.113 0.211 0.231 0.329 0.334 0.23-0.090 0.4-0.27 0.593-0.415 0.014 0.049 0.025 0.099 0.036 0.149 0.199-0.044 0.324-0.216 0.469-0.344 0.047-0.046 0.114-0.087 0.119-0.16 0.013-0.048-0.022-0.082-0.047-0.117-0.099 0.071-0.19 0.163-0.312 0.192-0.072 0.017-0.109-0.074-0.097-0.132 0.061-0.028 0.141-0.020 0.187-0.075 0.028-0.054 0.036-0.117 0.036-0.177-0.055-0.072-0.155-0.082-0.233-0.117zM21.256 25.216c0.115 0.131 0.224 0.268 0.335 0.403 0.097-0.021 0.192-0.048 0.286-0.080 0.19 0.142 0.374 0.292 0.561 0.438 0.151-0.172 0.302-0.344 0.452-0.518-0.116-0.031-0.235-0.046-0.354-0.063-0.122-0.050-0.211-0.162-0.341-0.198-0.126-0.004-0.256 0.095-0.377 0.032-0.112-0.123-0.14-0.298-0.207-0.447-0.129 0.135-0.244 0.282-0.356 0.432zM17.985 25.487c0.125 0.169 0.25 0.337 0.375 0.505-0.074 0.063-0.144 0.133-0.193 0.217 0.118 0.124 0.24 0.245 0.355 0.373 0.058-0.017 0.116-0.033 0.174-0.050-0.032-0.049-0.081-0.094-0.084-0.156-0.004-0.065 0.065-0.116 0.127-0.102 0.076 0.011 0.134 0.065 0.193 0.11 0.017-0.037 0.034-0.074 0.051-0.11-0.062-0.129-0.123-0.259-0.183-0.388 0.047-0.089 0.119-0.177 0.118-0.283-0.063-0.082-0.167-0.107-0.253-0.155-0.022-0.037-0.021-0.082-0.025-0.123-0.015-0.096 0.112-0.156 0.052-0.253-0.24 0.13-0.471 0.276-0.704 0.416zM13.286 25.127c-0.086 0.191-0.157 0.392-0.267 0.571-0.133 0.057-0.296 0.067-0.4 0.179-0.061 0.108-0.024 0.24-0.012 0.357 0.166-0.023 0.334-0.035 0.499-0.064 0.132-0.312 0.265-0.623 0.398-0.934-0.072-0.037-0.145-0.073-0.218-0.108zM10.238 25.769c-0.103 0.067-0.242-0.044-0.335 0.046-0.078 0.073-0.156 0.148-0.257 0.19-0.052 0.029-0.152 0.063-0.117 0.141 0.089 0.166 0.235 0.292 0.364 0.427 0.045-0.015 0.091-0.032 0.136-0.047-0.086-0.070-0.192-0.128-0.24-0.232 0.009-0.094 0.132-0.133 0.206-0.089 0.092 0.051 0.177 0.124 0.288 0.128-0.022-0.104-0.081-0.196-0.092-0.303 0.096-0.007 0.186 0.028 0.27 0.070 0.039 0.017 0.114 0.045 0.118-0.022-0.004-0.109-0.015-0.218-0.002-0.328 0.093-0.066 0.186-0.134 0.278-0.202-0.044-0.076-0.092-0.154-0.172-0.198-0.133 0.155-0.268 0.316-0.447 0.42zM13.161 26.459c0.126 0.081 0.241 0.181 0.378 0.244 0.106-0.009 0.195-0.098 0.248-0.187-0.072-0.082-0.166-0.137-0.261-0.187 0.096-0.298 0.189-0.597 0.283-0.896-0.049-0.026-0.098-0.051-0.147-0.076-0.167 0.367-0.336 0.734-0.501 1.102zM21.153 25.376c-0.052 0.089-0.105 0.178-0.159 0.266 0.127 0.15 0.251 0.303 0.396 0.436-0.025 0.069-0.064 0.132-0.11 0.189 0.175 0.149 0.346 0.317 0.561 0.409 0.061 0.038 0.133-0.038 0.097-0.097-0.052-0.099-0.138-0.175-0.187-0.275 0.078-0.020 0.15-0.057 0.224-0.090 0.081 0.026 0.119 0.111 0.172 0.171 0.063-0.041 0.121-0.090 0.174-0.144-0.146-0.167-0.332-0.291-0.516-0.412-0.231-0.13-0.438-0.297-0.651-0.454zM17.414 25.633c0.075 0.408 0.156 0.815 0.234 1.223 0.228-0.058 0.457-0.116 0.685-0.174-0.121-0.132-0.264-0.253-0.342-0.416-0.011-0.116 0.065-0.221 0.11-0.324-0.057-0.055-0.11-0.124-0.192-0.142-0.121-0.021-0.197-0.123-0.274-0.207-0.074 0.014-0.147 0.028-0.22 0.041zM14.236 25.83c-0.134 0.063-0.292 0.104-0.389 0.224-0.011 0.136 0.097 0.247 0.131 0.373-0.004 0.081-0.024 0.161-0.038 0.241-0.042 0.036-0.104 0.062-0.112 0.124 0.017 0.036 0.053 0.058 0.092 0.062 0.108 0.015 0.217 0.003 0.325 0.001 0.054-0.283 0.109-0.566 0.163-0.849 0.061-0.039 0.121-0.078 0.181-0.118-0.001-0.052-0.001-0.104-0.002-0.155-0.099-0.033-0.197-0.065-0.296-0.098-0.016 0.065-0.013 0.141-0.056 0.195zM19.015 25.787c0.087 0.152 0.174 0.305 0.26 0.457 0.065-0.046 0.128-0.095 0.189-0.146-0.070-0.128-0.127-0.263-0.19-0.394-0.086 0.029-0.172 0.056-0.259 0.083zM14.971 25.857c-0.026 0.105-0.051 0.211-0.077 0.316-0.073 0.013-0.146 0.025-0.218 0.039-0.056 0.111-0.113 0.222-0.171 0.332-0.089 0.14-0.047 0.313-0.063 0.469 0.166 0.047 0.328 0.119 0.5 0.137 0.047-0.078 0.080-0.164 0.102-0.252 0.002-0.105-0.123-0.154-0.146-0.249 0.019-0.116 0.128-0.187 0.213-0.256-0.001-0.181-0.018-0.361-0.032-0.541-0.036 0.001-0.073 0.003-0.109 0.005zM16.518 25.874c0.002 0.173 0.003 0.346 0.006 0.52 0.081 0.053 0.184 0.102 0.207 0.205 0.003 0.114-0.082 0.202-0.147 0.287 0.003 0.092 0.006 0.184 0.012 0.275 0.293-0.063 0.587-0.119 0.879-0.182 0.005-0.077 0.009-0.154 0.012-0.231-0.135-0.003-0.279 0.006-0.402-0.060 0.010-0.062 0.021-0.124 0.034-0.186 0.081-0.026 0.162-0.052 0.244-0.078-0.009-0.080-0.018-0.16-0.026-0.239-0.117-0.017-0.241-0.004-0.354-0.038-0.023-0.097-0.009-0.205-0.043-0.297-0.141 0-0.281 0.017-0.422 0.024zM16.082 25.896c-0.014 0.262-0.029 0.524-0.042 0.787-0.007 0.097 0.011 0.193 0.033 0.287 0.092 0.006 0.184 0.010 0.277 0.015-0.022-0.359-0.012-0.719-0.012-1.078-0.086-0.004-0.171-0.008-0.256-0.011zM20.781 26.064c-0.102 0.002-0.197-0.050-0.298-0.051-0.060 0.042-0.115 0.12-0.078 0.195 0.055 0.126 0.127 0.243 0.197 0.361 0.082 0.111 0.191 0.197 0.285 0.298 0.122-0.022 0.276-0.093 0.379 0.011 0.010 0.093-0.068 0.181-0.077 0.277 0.163-0.027 0.346-0.059 0.458-0.193-0.194-0.256-0.464-0.445-0.647-0.709 0.062-0.096 0.113-0.202 0.116-0.318-0.128-0.010-0.22 0.093-0.334 0.13zM11.169 26.403c0.048 0.070 0.116 0.135 0.133 0.221-0.011 0.078-0.046 0.149-0.087 0.215-0.095-0.044-0.176-0.156-0.287-0.136-0.012 0.153 0.184 0.219 0.203 0.366 0.005 0.056-0.002 0.113-0.006 0.17-0.135-0.061-0.267-0.127-0.4-0.19-0.036 0.079-0.067 0.16-0.089 0.244 0.188 0.13 0.348 0.317 0.572 0.382 0.182-0.184 0.321-0.405 0.481-0.608-0.064-0.071-0.169-0.139-0.159-0.245 0.042-0.077 0.092-0.15 0.123-0.232-0.045-0.047-0.087-0.096-0.122-0.15 0.022-0.076 0.040-0.152 0.058-0.228-0.047-0.037-0.093-0.073-0.139-0.109-0.092 0.1-0.185 0.201-0.277 0.302zM12.011 26.506c-0.031 0.179-0.057 0.36-0.114 0.533-0.118 0.191-0.257 0.369-0.382 0.557 0.085 0.097 0.186 0.18 0.26 0.286 0.024 0.091 0.031 0.186 0.047 0.28 0.086-0.010 0.172-0.020 0.259-0.030-0.010-0.106-0.020-0.212-0.030-0.318 0.086-0.004 0.172-0.007 0.258-0.010-0.082-0.114-0.176-0.22-0.252-0.338-0.027-0.038-0.020-0.085 0.007-0.12 0.069-0.102 0.126-0.212 0.175-0.326 0.045-0.109 0.139-0.19 0.167-0.307-0.139-0.058-0.244-0.187-0.397-0.209zM20.193 26.872c-0.029 0.086-0.089 0.156-0.137 0.232 0.119 0.158 0.241 0.314 0.376 0.458 0.054 0.055 0.11 0.114 0.187 0.136 0.075-0.12-0.053-0.249-0.104-0.356 0.071-0.004 0.143-0.007 0.215-0.010 0.062 0.075 0.123 0.151 0.188 0.225 0.065-0.079 0.127-0.16 0.19-0.241-0.109-0.155-0.288-0.237-0.459-0.303-0.173-0.146-0.261-0.367-0.423-0.524-0.041 0.125-0.018 0.256-0.033 0.384zM19.831 26.583c-0.257 0.143-0.508 0.297-0.763 0.445 0.030 0.073 0.062 0.145 0.097 0.215 0.103 0.008 0.22-0.005 0.309 0.058 0.051 0.177-0.192 0.324-0.091 0.503 0.066 0.133 0.223-0.079 0.3 0.034 0.070 0.089 0.087 0.223 0.192 0.281 0.142 0.041 0.273-0.055 0.367-0.152 0.035-0.033 0.064-0.113-0.003-0.127-0.114-0.032-0.236-0.030-0.348-0.073 0.058-0.056 0.169-0.101 0.14-0.201-0.032-0.15-0.134-0.273-0.192-0.413-0.019-0.049-0.052-0.108-0.016-0.157 0.054-0.081 0.142-0.129 0.218-0.186-0.017-0.089-0.035-0.189-0.111-0.247-0.033-0.027-0.069 0.006-0.1 0.019zM12.827 26.978c-0.018 0.127-0.17 0.116-0.267 0.13-0.083 0.006-0.218 0.015-0.217 0.128 0.016 0.13 0.168 0.17 0.235 0.27-0.066 0.111-0.068 0.242-0.1 0.364-0.044 0.154-0.246 0.187-0.294 0.335 0.032 0.085 0.108 0.152 0.182 0.202 0.174-0.084 0.199-0.295 0.285-0.448 0.064-0.105 0.078-0.231 0.135-0.338 0.098-0.006 0.171 0.162 0.264 0.077 0.090-0.078 0.183-0.156 0.246-0.257 0.053-0.091-0.022-0.186-0.069-0.262-0.037-0.066-0.118-0.068-0.18-0.094-0.032-0.034-0.056-0.074-0.088-0.108-0.040-0.028-0.090-0.004-0.134 0zM18.002 27.431c-0.010 0.231 0.030 0.461 0.050 0.691 0.022 0.179-0.010 0.374-0.121 0.52-0.068 0.090-0.192 0.059-0.288 0.066 0.023 0.101 0.073 0.223 0.182 0.251 0.093-0.002 0.183-0.025 0.275-0.035 0.065-0.012 0.143-0.013 0.193-0.064 0.023-0.128-0.022-0.262 0.020-0.387 0.022-0.071 0.113-0.073 0.172-0.052 0.078 0.045 0.099 0.146 0.169 0.2 0.083 0.048 0.183 0.035 0.275 0.031 0.005-0.075 0.015-0.15 0.011-0.225-0.023-0.133-0.101-0.251-0.214-0.324-0.153-0.202-0.159-0.482-0.311-0.684-0.103-0.032-0.207-0.064-0.314-0.078-0.056-0.012-0.101 0.036-0.099 0.090zM13.601 27.389c-0.117 0.107-0.134 0.279-0.235 0.398-0.055 0.064-0.118 0.131-0.201 0.155-0.082 0.014-0.166 0.006-0.248 0.007-0.061 0.188-0.191 0.355-0.197 0.558-0.007 0.055 0.047 0.086 0.095 0.089 0.061 0.006 0.13 0.025 0.188-0.003 0.066-0.091 0.021-0.221 0.081-0.314 0.056-0.023 0.118-0.026 0.177-0.036 0.028 0.117-0.017 0.229-0.066 0.333 0.049 0.052 0.098 0.104 0.147 0.156 0.136-0.027 0.277-0.031 0.413-0.062 0.082-0.048 0.065-0.165 0.087-0.245 0.024-0.081-0.033-0.15-0.076-0.211-0.003-0.089-0.002-0.178-0.002-0.266 0.093-0.039 0.185-0.079 0.277-0.119-0.089-0.131-0.113-0.288-0.129-0.442-0.104-0.002-0.211-0.023-0.313 0.003zM14.396 27.573c-0.118 0.040-0.156 0.172-0.185 0.28-0.042 0.142 0.012 0.303-0.066 0.434-0.071 0.062-0.138 0.131-0.17 0.221-0.072 0.128-0.028 0.28-0.089 0.412 0.144 0.018 0.281-0.034 0.423-0.040 0.137 0.002 0.194 0.175 0.329 0.18 0.101-0.081 0.091-0.23 0.111-0.346-0.111-0.103-0.248-0.199-0.298-0.347-0.003-0.143 0.123-0.236 0.211-0.331 0.089-0.087 0.086-0.23 0.040-0.337-0.052-0.034-0.111-0.053-0.163-0.086-0.045-0.022-0.090-0.070-0.143-0.040zM17.469 27.571c0.003 0.135 0.006 0.271 0.010 0.407-0.109-0.006-0.217-0.013-0.326-0.020 0.008-0.087 0.014-0.173 0.015-0.26-0.1 0.006-0.284-0.023-0.296 0.118 0.043 0.189 0.185 0.355 0.167 0.558-0.022 0.19-0.134 0.352-0.209 0.523-0.010 0.077-0.023 0.188 0.050 0.238 0.134-0.014 0.266-0.044 0.4-0.058-0.043-0.126-0.119-0.291-0.018-0.407 0.151-0.105 0.351-0.084 0.514-0.162 0.012-0.303-0.030-0.607-0.040-0.911-0.089-0.009-0.179-0.017-0.268-0.025zM15.284 27.804c-0.004 0.158-0.006 0.315-0.010 0.473-0.127 0.042-0.255 0.077-0.383 0.117 0.047 0.111 0.163 0.206 0.134 0.338-0.018 0.137-0.060 0.27-0.098 0.403 0.059 0.003 0.118 0.006 0.177 0.010 0.015-0.095 0.028-0.191 0.054-0.283 0.035-0.175 0.242-0.199 0.38-0.26-0.017-0.268-0.033-0.535-0.050-0.803-0.068 0.001-0.136 0.003-0.203 0.005zM16.412 27.803c-0.040 0.446-0.13 0.895-0.090 1.344 0.111-0.002 0.222-0.007 0.332-0.015-0.001-0.159-0.004-0.317-0.005-0.475 0.098-0.032 0.196-0.072 0.27-0.146-0.063-0.101-0.162-0.168-0.26-0.23 0.006-0.151 0.013-0.301 0.019-0.451-0.089-0.011-0.178-0.020-0.267-0.026zM15.733 27.954c0.006 0.25 0.015 0.503-0.022 0.751-0.009 0.046-0.017 0.096-0.047 0.133-0.063 0.025-0.13 0.034-0.194 0.057-0.115 0.027-0.116 0.167-0.151 0.257 0.087 0.011 0.175 0.011 0.262 0.023 0.104 0.015 0.201 0.056 0.304 0.075 0.034 0.002 0.089 0.020 0.104-0.025 0.012-0.189-0.012-0.38 0.013-0.569 0.052-0.017 0.104-0.033 0.156-0.051 0.003-0.147 0.009-0.297-0.030-0.441-0.058-0.021-0.11-0.052-0.153-0.096 0.045-0.062 0.095-0.124 0.097-0.204-0.089-0.002-0.178-0.013-0.266 0.004-0.040 0.006-0.079 0.041-0.073 0.084z"></path>
</svg>
