<!-- Generated by IcoMoon.io -->
<svg version="1.1" xmlns="http://www.w3.org/2000/svg" width="24" height="32" viewBox="0 0 24 32">
<title>ability-amass</title>
<path fill="#444" d="M9.209 2.381v0 0h0c1.1 1.806 0.343 4.003-1.171 5.298-1.267 0.871-2.634 1.613-3.769 2.669 0.338 0.74 0.921 0.882 1.379 1.028 0.019 0.006 0.021 0.007 0.038 0.018l0.057-0.015c1.546-1.88 3.676-3.203 6.132-3.367 2.385 0.098 4.482 1.464 6.012 3.223l0.176 0.159c0.017-0.012 0.018-0.012 0.038-0.018 0.458-0.147 1.041-0.289 1.379-1.028-1.135-1.056-2.502-1.798-3.769-2.669-1.475-1.012-2.318-3.791-1.171-5.298v-0c0.947 1.507 1.048 2.811 3.776 4.436 1.723 1.027 3.533 1.343 4.962 2.637 0.663 0.49 0.586 1.437 0.026 2.094-1.249 1.465-2.961 1.201-4.401 1.978 0.001 0.016 0.004 0.032 0.002 0.047-0.185 1.144 0.037 2.586 0.402 3.747 0.358 1.126 0.548 2.588-0.147 3.629-0.751 1.070-2.26 1.152-3.058 2.139-1.176 1.454-0.060 3.214-1.268 4.9-0.362 0.506-1.023 0.99-1.558 1.32l-0-5.995c0.154-0.053 0.343-0.087 0.377-0.277 0.016-0.251-0.037-0.496-0.063-0.699-0.233-1.034-0.562-2.461-1.715-2.83l0 0.003c-1.042 0.282-1.537 1.91-1.715 2.828-0.025 0.204-0.078 0.449-0.063 0.699 0.034 0.19 0.223 0.223 0.377 0.277l-0 5.995c-0.535-0.33-1.195-0.814-1.558-1.32-1.207-1.686-0.092-3.446-1.268-4.9-0.798-0.987-2.307-1.068-3.058-2.139-0.695-1.041-0.504-2.503-0.147-3.629 0.365-1.161 0.587-2.603 0.402-3.747-0-0.024-0.001-0.016-0-0.026l-0.008-0.026c-1.563-0.706-3.152-0.653-4.391-1.974-0.56-0.657-0.636-1.604 0.026-2.094 1.428-1.293 3.239-1.61 4.962-2.637 1.849-0.911 2.8-2.722 3.776-4.436h-0zM16.034 16.509l-0.211 0.022c-0.55 0.11-1.345 0.622-2.236 1.32-0.843 0.66 0.009 2.142 1.026 2.603 1.079 0.422 1.928 0.027 2.639-0.66 1.063-1.026 0.693-2.374-0.202-3.043-0.321-0.148-0.663-0.234-1.017-0.242v-0zM7.716 16.509c-0.355 0.008-0.696 0.094-1.017 0.242-0.894 0.669-1.265 2.016-0.202 3.043 0.711 0.687 1.56 1.082 2.639 0.66 1.018-0.46 1.87-1.943 1.026-2.603-0.892-0.698-1.686-1.21-2.236-1.32l-0.211-0.022zM12.451 21.626c0 0-0.267-0.116-0.587-0.121s-0.587 0.121-0.587 0.121v7.899c0 0 0.284 0.094 0.587 0.094s0.587-0.094 0.587-0.094v-7.899z"></path>
</svg>
