<!-- Generated by IcoMoon.io -->
<svg version="1.1" xmlns="http://www.w3.org/2000/svg" width="30" height="32" viewBox="0 0 30 32">
<title>ability-hexproof-white</title>
<path fill="#444" d="M15 1c8.284 0 15 6.716 15 15s-6.716 15-15 15c-8.284 0-15-6.716-15-15s6.716-15 15-15zM6.83 24.078l-1.323 1.323c2.258 2.407 5.424 3.815 8.718 3.981l-1.195-2.070c-2.424-0.307-4.436-1.624-6.2-3.235zM23.016 24.232c-1.581 1.73-3.7 2.591-5.948 3.030l-1.222 2.117c3.217-0.132 6.239-1.57 8.493-3.824l-1.323-1.323zM15 6.098c-5.469 0-9.902 4.433-9.902 9.902s4.433 9.902 9.902 9.902c5.469 0 9.902-4.433 9.902-9.902s-4.433-9.902-9.902-9.902zM25.184 21.417c-1.030 1.699-0.488 0.992-1.539 2.185l1.323 1.323c0.834-0.777 1.503-1.746 1.946-2.796l-1.731-0.712zM3.327 9.412c-1.275 1.956-1.633 4.313-1.748 6.588 0.108 3.117 1.025 6.498 3.299 8.772l1.323-1.323c-1.904-1.994-2.608-4.784-2.742-7.448 0.093-1.444 0.052-1.639 0.533-3.335 0.12-0.424 0.339-0.814 0.509-1.221l-1.173-2.032zM26.698 9.45l-1.2 2.078c0.707 1.388 0.903 2.943 1.043 4.472-0.081 1.241-0.072 1.663-0.432 3.081-0.133 0.525-0.364 1.020-0.546 1.531l1.697 0.699c0.883-1.634 1.069-3.49 1.16-5.31-0.095-2.221-0.445-4.658-1.723-6.55zM14.555 2.601c-4.127 0.134-8.105 2.186-10.428 5.626h2.483c2.037-2.365 4.909-3.447 7.945-3.746v-1.88zM16.372 2.648l-0.927-0.047v1.88c3.207 0.147 5.798 1.399 7.969 3.722h2.443c-1.587-2.403-4.121-4.175-6.866-5.021-0.851-0.263-1.746-0.356-2.619-0.534zM18.518 15.951c0-0.948-0.354-1.771-1.061-2.47s-1.543-1.048-2.508-1.048c-0.965 0-1.8 0.346-2.508 1.036s-1.060 1.518-1.060 2.482c0 0.981 0.35 1.813 1.048 2.495 0.698 0.683 1.538 1.023 2.52 1.023 1.014 0 1.863-0.333 2.545-0.998 0.682-0.664 1.023-1.505 1.023-2.52zM18.893 15.951c0.016 1.131-0.354 2.067-1.111 2.806s-1.7 1.11-2.832 1.11c-1.064 0-2-0.387-2.807-1.161s-1.202-1.692-1.185-2.756c0.016-1.081 0.416-2.008 1.197-2.782s1.713-1.161 2.795-1.161c1.065 0 1.988 0.391 2.769 1.173s1.173 1.706 1.173 2.77zM24.431 17.398c-0.666-0.948-1.156-1.655-1.471-2.121-0.565-0.832-1.073-1.248-1.522-1.248-0.366 0-0.632 0.174-0.798 0.524s-0.349 0.524-0.549 0.524c-0.283 0-0.508-0.1-0.674-0.299-0.067-0.066-0.2-0.282-0.399-0.649l0.849-0.599c0.299-0.199 0.449-0.415 0.449-0.648 0-0.134-0.042-0.341-0.125-0.624s-0.125-0.482-0.125-0.599c0-0.249 0.333-0.474 0.998-0.674 0.732-0.2 1.28-0.349 1.647-0.449-1.681-0.3-2.787-0.45-3.319-0.45-0.848 0-1.306 0.117-1.372 0.35-0.016 0.033-0.004 0.183 0.038 0.449s0.062 0.424 0.062 0.474c0 0.499-0.242 0.748-0.723 0.748-0.233 0-0.574-0.157-1.023-0.474 0.199-0.665 0.216-1.189 0.050-1.572-0.050-0.133-0.249-0.358-0.599-0.674-0.283-0.266-0.424-0.516-0.424-0.748 0-0.45 0.358-1.156 1.073-2.121-0.267 0.117-0.841 0.508-1.722 1.173-1.098 0.832-1.647 1.422-1.647 1.772 0 0.1 0.154 0.245 0.462 0.436s0.462 0.47 0.462 0.836c0 0.349-0.117 0.649-0.35 0.898s-0.524 0.374-0.873 0.374l-0.374-0.674c-0.25-0.432-0.566-0.648-0.948-0.648-0.116 0-0.274 0.049-0.474 0.149s-0.333 0.15-0.399 0.15c-0.383 0-0.716-0.416-0.998-1.248-0.233-0.682-0.341-1.148-0.324-1.397-0.383 2.079-0.574 3.219-0.574 3.418 0 0.748 0.15 1.123 0.45 1.123 0.083 0 0.212-0.025 0.386-0.075s0.304-0.075 0.387-0.075c0.2 0 0.42 0.129 0.661 0.387s0.362 0.487 0.362 0.686c0 0.233-0.159 0.591-0.474 1.073-0.615-0.2-0.948-0.3-0.998-0.3-0.366 0-0.661 0.204-0.886 0.611s-0.453 0.611-0.686 0.611c-0.3 0-0.699-0.117-1.198-0.349-0.383-0.2-0.766-0.399-1.148-0.599 0.615 0.849 1.073 1.489 1.373 1.921 0.631 0.866 1.147 1.298 1.547 1.298 0.233 0 0.482-0.174 0.748-0.524 0.266-0.349 0.449-0.523 0.549-0.523 0.649 0 1.048 0.383 1.198 1.148-0.798 0.416-1.165 0.882-1.098 1.397 0.066 0.466 0.1 0.665 0.1 0.599 0 0.565-0.865 1.064-2.595 1.497 1.53 0.299 2.62 0.449 3.268 0.449 0.849 0 1.264-0.274 1.248-0.823 0-0.748 0-0.973 0-0.674 0-0.432 0.332-0.649 0.998-0.649 0.3 0 0.557 0.125 0.773 0.375-0.2 0.416-0.299 0.765-0.299 1.048 0 0.333 0.191 0.649 0.573 0.948s0.574 0.533 0.574 0.699c0 0.3-0.133 0.724-0.399 1.273-0.234 0.483-0.466 0.873-0.699 1.172 0.266-0.199 0.748-0.549 1.447-1.048 1.314-0.931 1.971-1.622 1.971-2.071 0-0.083-0.154-0.225-0.462-0.424-0.308-0.199-0.462-0.465-0.462-0.798 0-0.666 0.383-1.057 1.148-1.174 0.383 0.882 0.815 1.323 1.298 1.323 0.1 0 0.253-0.050 0.462-0.149 0.208-0.101 0.345-0.15 0.412-0.15 0.482 0 0.939 0.849 1.372 2.545 0.333-1.48 0.499-2.578 0.499-3.294 0-0.749-0.102-1.123-0.306-1.123-0.068 0-0.204 0.025-0.408 0.075s-0.365 0.075-0.484 0.075c-0.187 0-0.417-0.124-0.689-0.374s-0.408-0.466-0.408-0.649c0-0.133 0.158-0.441 0.474-0.923 0.566 0.133 0.94 0.199 1.123 0.199 0.449 0 0.748-0.203 0.898-0.611s0.358-0.611 0.624-0.611c0.366 0 1.198 0.366 2.495 1.098z"></path>
</svg>
