<!-- Generated by IcoMoon.io -->
<svg version="1.1" xmlns="http://www.w3.org/2000/svg" width="29" height="32" viewBox="0 0 29 32">
<title>ability-adapt</title>
<path fill="#444" d="M11.27 0h0.298c0.263 0.020 0.525 0.053 0.777 0.133 0.481 0.144 0.915 0.421 1.272 0.771 0.3 0.288 0.541 0.627 0.787 0.96 0.587-0.667 1.326-1.228 2.187-1.48 0.602-0.18 1.243-0.209 1.862-0.116 0.488 0.077 0.973 0.261 1.338 0.602 0.387 0.356 0.608 0.874 0.628 1.397 0.015 0.474-0.086 0.961-0.34 1.366-0.276 0.446-0.723 0.777-1.224 0.928-0.305 0.095-0.637 0.103-0.945 0.018-0.369-0.099-0.718-0.33-0.898-0.674-0.15-0.278-0.118-0.626 0.023-0.901 0.199-0.372 0.587-0.583 0.957-0.753-0.377 0.226-0.632 0.639-0.659 1.078-0.012 0.161 0.057 0.321 0.172 0.433 0.161 0.156 0.381 0.248 0.604 0.262 0.317 0.013 0.644-0.085 0.883-0.299 0.214-0.192 0.367-0.456 0.412-0.741 0.028-0.334-0.072-0.687-0.306-0.933-0.195-0.207-0.463-0.333-0.738-0.397-0.488-0.114-1.012-0.040-1.457 0.187-0.461 0.229-0.836 0.603-1.132 1.020-0.512 0.732-0.825 1.593-0.968 2.472-0.067 0.468-0.105 0.958 0.033 1.417 1.026-0.397 2.056-0.787 3.106-1.119 0.255-0.076 0.51-0.161 0.775-0.2 0.823-0.093 1.649-0.187 2.478-0.2 0.666-0.003 1.334-0.004 1.997-0.074 0.387-0.042 0.78-0.099 1.14-0.253 0.207-0.090 0.418-0.237 0.479-0.466 0.066-0.262-0.053-0.533-0.232-0.722-0.266-0.283-0.623-0.462-0.984-0.593-0.367-0.127-0.766-0.228-1.154-0.134-0.184 0.045-0.388 0.115-0.491 0.286-0.062 0.11 0.012 0.233 0.089 0.313 0.205 0.211 0.48 0.332 0.75 0.436-0.27 0.089-0.571 0.129-0.843 0.028-0.329-0.117-0.564-0.415-0.671-0.739-0.076-0.214-0.081-0.462 0.028-0.665 0.091-0.175 0.264-0.293 0.446-0.361 0.258-0.095 0.535-0.116 0.808-0.117 0.585 0 1.176 0.094 1.713 0.331 0.737 0.321 1.347 0.96 1.562 1.742 0.102 0.35-0.013 0.745-0.265 1.004-0.251 0.259-0.592 0.408-0.933 0.509-0.554 0.16-1.133 0.204-1.708 0.212 0.275 0.311 0.502 0.666 0.648 1.054 0.495-0.173 1.013-0.286 1.537-0.315 0.587-0.017 1.189 0.048 1.733 0.282 0.418 0.179 0.791 0.474 1.029 0.864 0.298 0.48 0.392 1.058 0.377 1.615-0.026 0.535-0.178 1.072-0.478 1.519-0.174 0.261-0.405 0.481-0.67 0.649 0.699 0.48 1.153 1.241 1.411 2.035 0.143 0.458 0.256 0.941 0.187 1.423-0.111 0.941-0.732 1.785-1.557 2.234-0.291 0.153-0.624 0.277-0.957 0.212-0.408-0.081-0.757-0.35-1.012-0.67-0.196-0.254-0.354-0.56-0.348-0.888 0.004-0.295 0.062-0.604 0.242-0.845 0.145-0.197 0.369-0.324 0.605-0.377 0.317-0.072 0.651-0.045 0.964 0.036-0.425 0.107-0.84 0.338-1.087 0.709-0.116 0.162-0.078 0.375-0.019 0.551 0.14 0.392 0.605 0.619 1.003 0.515 0.342-0.085 0.636-0.312 0.849-0.587 0.308-0.399 0.44-0.924 0.375-1.422-0.048-0.36-0.227-0.693-0.475-0.955-0.323-0.344-0.744-0.582-1.184-0.744-0.326-0.116-0.669-0.2-1.017-0.187-0.425 0.009-0.856 0.047-1.26 0.187-0.23 0.078-0.446 0.201-0.62 0.37 0.057 1.071-0.171 2.171-0.729 3.094-0.724 1.215-2.017 2.102-3.434 2.245-0.558 0.063-1.142-0.027-1.63-0.314-0.807-0.465-1.318-1.357-1.411-2.272-0.048-0.478 0.011-0.991 0.285-1.398 0.242-0.366 0.637-0.605 1.052-0.726 0.379-0.112 0.779-0.147 1.173-0.127 0.2 0.012 0.402 0.034 0.591 0.102-0.54 0.11-1.097 0.25-1.542 0.59-0.288 0.216-0.48 0.553-0.516 0.912-0.047 0.478 0.016 0.99 0.284 1.4 0.312 0.482 0.907 0.749 1.475 0.7 0.409-0.040 0.793-0.214 1.139-0.428 0.675-0.427 1.232-1.049 1.55-1.783 0.222-0.522 0.323-1.108 0.214-1.67-0.179-0.966-0.751-1.865-1.585-2.393-0.787-0.505-1.747-0.67-2.669-0.639-1.037 0.039-2.046 0.374-2.951 0.87-0.854 0.468-1.627 1.075-2.316 1.76-1.248 1.249-2.247 2.753-2.885 4.401-0.242 0.633-0.427 1.289-0.528 1.959-0.081 0.55-0.115 1.111-0.037 1.664 0.129 0.964 0.433 1.901 0.862 2.772 0.395 0.797 0.906 1.539 1.523 2.18 0.656 0.684 1.431 1.253 2.277 1.68 1.223 0.621 2.58 0.948 3.943 1.062 1.264 0.102 2.555 0.067 3.785-0.263 1.012-0.268 1.977-0.736 2.781-1.411 0.628-0.53 1.169-1.178 1.517-1.927 0.099-0.232 0.21-0.48 0.17-0.738-0.039-0.311-0.18-0.629-0.447-0.807-0.164-0.113-0.377-0.080-0.556-0.029-0.211 0.062-0.378 0.215-0.516 0.38 0.158-0.258 0.374-0.506 0.672-0.598 0.247-0.079 0.521-0.003 0.72 0.157 0.304 0.242 0.476 0.628 0.493 1.013 0.012 0.439-0.062 0.884-0.248 1.283-0.188 0.409-0.467 0.768-0.76 1.106-0.652 0.733-1.335 1.444-2.102 2.058-0.706 0.568-1.479 1.053-2.297 1.441-1.049 0.499-2.167 0.841-3.305 1.066-1.318 0.265-2.664 0.355-4.006 0.393h-0.146c-0.844-0.534-1.624-1.163-2.362-1.834-0.589-0.541-1.148-1.116-1.645-1.743-0.383-0.484-0.727-1.002-0.976-1.568-0.064 0.233-0.036 0.478 0.003 0.713 0.088 0.483 0.245 0.951 0.422 1.408 0.277 0.704 0.609 1.388 1.009 2.031 0.148 0.236 0.308 0.465 0.485 0.679-1.471-0.31-2.893-0.857-4.185-1.628-0.063-0.040-0.139-0.069-0.175-0.138-0.428-0.741-0.803-1.511-1.149-2.292-0.454-1.037-0.859-2.101-1.135-3.201-0.172-0.707-0.302-1.436-0.244-2.165-0.317 0.405-0.428 0.925-0.51 1.421-0.169 1.182-0.108 2.382-0.037 3.57-0.613-0.768-1.122-1.622-1.479-2.538-0.374-0.959-0.575-1.987-0.557-3.017 0.011-1.156 0.218-2.318 0.679-3.382 0.396-0.926 0.978-1.765 1.66-2.503 0.971-1.064 2.141-1.914 3.209-2.873 0.492-0.448 0.965-0.932 1.302-1.511 0.317-0.544 0.485-1.187 0.408-1.816-0.1-0.644-0.475-1.21-0.914-1.678-0.402-0.422-0.874-0.779-1.393-1.044-0.451-0.225-0.952-0.393-1.463-0.348-0.811 0.064-1.564 0.49-2.115 1.077-0.34 0.37-0.635 0.821-0.684 1.333-0.021 0.589 0.093 1.199 0.41 1.703 0.453 0.73 1.336 1.152 2.188 1.084 0.447-0.027 0.898-0.164 1.249-0.449 0.414-0.33 0.672-0.857 0.648-1.389-0.009-0.354-0.12-0.719-0.369-0.978-0.295-0.312-0.734-0.448-1.154-0.456-0.369-0.011-0.75 0.128-0.998 0.409-0.222 0.243-0.34 0.585-0.29 0.913 0.031 0.22 0.144 0.426 0.312 0.571 0.177 0.157 0.407 0.24 0.636 0.284-0.324 0.112-0.699 0.175-1.019 0.015s-0.49-0.503-0.567-0.837c-0.113-0.507-0.084-1.067 0.175-1.527 0.229-0.406 0.642-0.681 1.083-0.811 0.44-0.139 0.915-0.126 1.362-0.027 0.422 0.097 0.819 0.317 1.103 0.648 0.358 0.417 0.544 0.965 0.568 1.51 0.007 0.65-0.095 1.32-0.417 1.893-0.235 0.422-0.603 0.766-1.040 0.971-0.54 0.255-1.149 0.322-1.74 0.302-0.563-0.020-1.131-0.131-1.636-0.388-0.434-0.219-0.809-0.551-1.081-0.954-0.422-0.623-0.614-1.378-0.642-2.123v-0.227c0.023-0.612 0.125-1.229 0.381-1.789 0.233-0.519 0.599-0.978 1.054-1.321 0.732-0.552 1.647-0.823 2.555-0.877 0.579-0.016 1.16 0.029 1.73 0.127 0.010-0.36 0.067-0.722 0.202-1.057 0.184-0.471 0.525-0.874 0.947-1.149 0.62-0.404 1.378-0.58 2.114-0.534-0.215-0.709 0.088-1.514 0.665-1.962 0.448-0.359 1.030-0.497 1.593-0.525zM10.264 1.11c-0.228 0.131-0.388 0.36-0.46 0.61-0.090 0.307-0.082 0.641 0.014 0.945 0.491 0.187 0.921 0.515 1.258 0.915 0.193-0.087 0.37-0.231 0.462-0.425 0.079-0.169 0.010-0.365-0.096-0.506-0.185-0.247-0.48-0.379-0.769-0.459 0.221-0.012 0.444-0.035 0.663 0.001 0.223 0.031 0.45 0.142 0.559 0.348 0.137 0.265 0.119 0.587 0.030 0.865-0.089 0.261-0.25 0.526-0.515 0.637 0.294 0.483 0.515 1.020 0.587 1.583 0.061 0.688-0.139 1.424-0.636 1.92-0.353 0.354-0.844 0.587-1.35 0.577 0.126 0.257 0.234 0.525 0.286 0.807 0.231-0.214 0.507-0.369 0.781-0.519 0.476-0.255 0.966-0.484 1.46-0.701-0.037-0.857-0.085-1.713-0.094-2.571 0.005-0.072-0.012-0.15 0.024-0.216 0.266-0.456 0.507-0.926 0.769-1.384 0.126-0.631-0.104-1.304-0.544-1.767-0.391-0.418-0.919-0.712-1.486-0.803-0.318-0.045-0.661-0.022-0.944 0.143zM7.968 3.921c-0.55 0.445-0.714 1.306-0.339 1.911 0.159 0.090 0.324 0.172 0.478 0.271 0.046-0.409 0.312-0.769 0.647-0.994 0.21-0.14 0.465-0.216 0.718-0.195 0.275 0.012 0.574 0.071 0.77 0.28 0.181 0.192 0.202 0.486 0.117 0.727-0.037-0.173-0.147-0.346-0.328-0.389-0.255-0.061-0.514 0.049-0.722 0.191-0.243 0.173-0.459 0.429-0.483 0.738-0.019 0.224 0.112 0.432 0.286 0.563 0.257 0.194 0.548 0.375 0.877 0.399 0.232 0.019 0.462-0.089 0.61-0.266 0.223-0.263 0.324-0.606 0.371-0.942 0.074-0.521-0.108-1.042-0.375-1.482-0.279-0.446-0.671-0.844-1.168-1.039-0.481-0.189-1.062-0.102-1.461 0.229zM20.739 6.564c-0.179 0.109-0.288 0.316-0.289 0.525-0.008 0.242 0.109 0.476 0.29 0.631-0.29-0.039-0.598-0.148-0.765-0.403-0.159-0.24-0.094-0.546-0.034-0.808-0.88 0.379-1.757 0.764-2.625 1.169-0.476 0.225-0.953 0.449-1.41 0.711-0.11 0.071-0.238 0.13-0.311 0.243 0.148 0.036 0.298 0.004 0.445-0.019 0.306-0.053 0.611-0.113 0.92-0.143 0.543-0.059 1.094-0.028 1.63 0.076 0.516 0.092 1.015 0.255 1.524 0.373 0.464 0.114 0.951-0.061 1.323-0.339 0.354-0.269 0.654-0.623 0.827-1.035 0.112-0.245 0.039-0.546-0.144-0.736-0.181-0.187-0.433-0.287-0.684-0.335-0.233-0.045-0.491-0.036-0.697 0.091zM23.632 8.361c-0.046 0.031-0.097 0.060-0.123 0.111-0.135 0.229-0.308 0.433-0.488 0.627-0.32 0.335-0.676 0.634-1.050 0.907-0.049 0.077-0.062 0.196 0.005 0.268 0.316 0.418 0.602 0.86 0.818 1.339 0.364-0.114 0.735-0.201 1.109-0.275-0.325-0.366-0.454-0.874-0.415-1.355 0.055-0.431 0.346-0.797 0.69-1.044 0.228-0.162 0.508-0.303 0.795-0.235 0.428 0.086 0.874 0.268 1.139 0.631-0.288-0.17-0.643-0.245-0.968-0.143-0.461 0.13-0.831 0.596-0.773 1.085 0.055 0.347 0.248 0.657 0.475 0.919 0.436-0.042 0.881-0.063 1.311 0.037 0.354-0.243 0.671-0.556 0.868-0.941 0.227-0.436 0.254-0.953 0.15-1.427-0.076-0.351-0.275-0.682-0.581-0.879-0.384-0.25-0.862-0.302-1.309-0.271-0.596 0.063-1.158 0.314-1.652 0.644z"></path>
</svg>
