<!-- Generated by IcoMoon.io -->
<svg version="1.1" xmlns="http://www.w3.org/2000/svg" width="31" height="32" viewBox="0 0 31 32">
<title>ability-lifelink</title>
<path fill="#444" d="M27.033 6.806v0c3.042 0.842 4.572 3.841 4.314 6.85-0.241 2.261-1.636 4.528-3.468 5.977-3.029 2.473-6.841 3.885-9.54 6.778-1.262 1.284-2.059 2.897-2.646 4.584l-0.113-0.316c-0.56-1.579-1.379-3.048-2.533-4.269-2.699-2.893-6.511-4.305-9.54-6.778-1.832-1.449-3.227-3.717-3.468-5.977-0.32-2.997 1.342-6.072 4.314-6.85v0c-0.772 1.848-2 3.712-1.664 5.812 0.304 1.376 1.187 2.642 2.362 3.426 2.92 1.947 6.301 3.19 8.906 5.589 0.824 2.426 1.076 4.998 1.701 7.477l0.036 0.083 0.036-0.083c0.625-2.478 0.877-5.051 1.701-7.477 2.604-2.399 5.985-3.642 8.906-5.589 1.175-0.784 2.057-2.050 2.362-3.426 0.308-2.080-0.856-3.985-1.664-5.812v0 0zM15.572 5.723l0.121-0.128c1.351 1.427 0.653 0.697 2.095 2.188-0.893 1.187-0.945 2.625-0.851 4.053 1.187 0.21 2.373 0.399 3.549 0.64-1.066 1.181-2.657 1.244-4.143 1.444 0.42 0.567 1.003 0.956 1.586 1.328-0.315 1.754-0.651 3.502-1.013 5.245 4.615-2.861 8.947-7.109 9.934-12.659 0.58-2.913-1.412-6.068-4.35-6.694 0 0-0.355-0.119-1.583-0.137-2.262-0.033-4.039 1.772-5.224 3.737v0c-1.184-1.964-2.962-3.77-5.224-3.737-1.229 0.018-1.583 0.137-1.583 0.137-2.937 0.626-4.93 3.781-4.35 6.694 0.987 5.55 5.319 9.797 9.934 12.659-0.362-1.743-0.698-3.491-1.013-5.245 0.583-0.373 1.166-0.761 1.586-1.328-1.486-0.2-3.077-0.262-4.143-1.444 1.176-0.242 2.363-0.431 3.549-0.64 0.095-1.428 0.042-2.867-0.851-4.053 0.661-0.684 1.324-1.365 1.974-2.060z"></path>
</svg>
