<!-- Generated by IcoMoon.io -->
<svg version="1.1" xmlns="http://www.w3.org/2000/svg" width="29" height="32" viewBox="0 0 29 32">
<title>ability-specialize</title>
<path fill="#444" d="M14.667 2.502v0c0.008-0.058 3.553 5.596 3.553 5.596s-1.417 0.339-1.417 0.339l-0 5.59c0 0 3.71-3.891 3.71-3.891s-0.692-1.168-0.692-1.168c0 0 5.21-1.434 5.21-1.434s-0.276 5.376-0.276 5.376c0 0-1.425-0.586-1.434-0.634s-6.52 7.251-6.52 7.251 8.036-2.178 8.036-2.178c0 0-0.138-1.985-0.138-1.985s4.632 2.84 4.632 2.84l-2.536 4.632c0 0-1.048-1.902-1.048-1.902s-8.409 2.384-8.409 2.384c0 0 0.006 5.97 0.001 6.182 0 0-5.357-0.008-5.349 0s0.001-6.182 0.001-6.182c0 0-8.409-2.384-8.409-2.384s-1.048 1.902-1.048 1.902l-2.536-4.632c0 0 4.632-2.84 4.632-2.84s-0.138 1.985-0.138 1.985c0 0 8.036 2.178 8.036 2.178s-6.511-7.299-6.52-7.251c-0.009 0.048-1.434 0.634-1.434 0.634s-0.276-5.376-0.276-5.376c0 0 5.204 1.42 5.21 1.434s-0.692 1.168-0.692 1.168 3.71 3.868 3.71 3.891c0 0.023 0-5.59 0-5.59s-1.417-0.339-1.417-0.339c0 0 2.204-3.854 3.553-5.595l0-0z"></path>
</svg>
