<!-- Generated by IcoMoon.io -->
<svg version="1.1" xmlns="http://www.w3.org/2000/svg" width="32" height="32" viewBox="0 0 32 32">
<title>ability-unearth</title>
<path fill="#444" d="M3.25 12.16c1.247 0.038 5.279 0 5.946 0.050 4.069 0.305 7.016 0.872 8.404 3.112l0.035-0.002 0.001 0.063c0.034 0.14 0.038 0.075 0.004 0.195 0.107 0.843-0.402 1.597-0.839 2.269-1.43 2.209-2.861 4.419-4.28 6.634-1.921 0.395-3.88 0.181-5.817 0.048-2.129-1.804-4.52-3.25-6.703-4.985 0.224-2.204 0.525-3.482 0.982-5.65 0.067-0.317 0.29-1.166 0.859-1.484 0.492-0.275 1.409-0.25 1.409-0.25zM2.416 14.294c-0.208 0.025-0.309 0.067-0.309 0.067-0.448 1.575-0.505 3.142-0.692 4.77 0.576 0.71 1.502 1.119 2.201 1.701 0.053-1.74-0.023-3.745 0.367-5.437-0.566-0.491-0.74-0.604-1.301-1.101 0 0-0.058-0.025-0.267-0zM9.253 13.283c-4.902 0.036-2.757-0.446-6.303-0.315 0.149 0.151 0.319 0.673 0.475 0.809 2.244 1.956 5.126 2.023 7.989 2.038 4.917 0.026 2.217-0.162 5.504 0.136-0.226-0.466-0.538-0.831-0.951-1.132-1.379-0.844-2.911-1.53-4.562-1.514l-2.152-0.023zM9.312 8.234l0.21 0.184c1.003 0.982 3.088 1.465 2.8 3.141-1.269-0.025-1.903-0.236-3.102-0.534-0.067-0.017-0.499-0.15-0.567-0.167 0.036-0.102 0.001-0.415 0.088-0.801 0.17-0.749 0.465-0.824 0.57-1.824zM8.844 6.766l0 0c-0.301 0.004-0.153-0.011-0.444 0.043-1.022 0.487-1.285 3.377-1.566 4.321 1.441 0.731 3.037 0.971 4.671 1.129l1.518 0.075c0.030-0.002 0.702-0.046 0.7-0.075-0.017-0.275-0.012-0.636-0.2-0.967-0.572-0.982-0.942-1.669-2.21-2.819-0.777-0.705-1.318-1.026-2.218-1.593l-0.252-0.115zM15.083 3.546c0.35 0.017 0.35 0.053 0.525 0.117 0.274 0.1 0.683 0.535 1.016 0.716-0.139 2.012 0.010 3.56 0.143 5.572-1.254-1.542-2.532-2.806-3.302-4.636 0.395-0.582 0.433-1.364 1.184-1.693 0.133-0.058 0.317-0.081 0.434-0.075zM16.335 1.478c-1.266-0.128-1.707-0.099-2.212 0.032-1.758 0.456-3.33 1.813-5 2.528-0.037 0.8-0.064 1.596-0.085 2.396 0.018 0.018 0.046 0.039 0.066 0.055 1.326 1.051 2.053 1.426 3.327 2.393 1.976 1.501 2.64 4.295 5.24 4.536-0.215-1.665-0.020-4.42 0-4.886s0.241-0.639 0.247-0.667c-0.179-2.114-0.146-3.615-0.974-5.602l-0.609-0.785zM20.361 15.362c2.039 0.854 4.334 0.644 6.404 1.301 0.144 2.391 0.085 4.881 0 7.271-1.815 0.005-1.968-0.367-3.602-3.202-1.080-1.873-1.9-3.401-2.802-5.37zM20.561 12.627c0.966-0.566 1.513-1.353 2.73-1.198 2.562-0.101 4.534 1.001 7.010 1.465-0.126 0.066 0.019 0.559-0.1 0.634-1.501 0.934-2.43 0.961-3.802 1.334-2.017 0.149-4.167-0.339-6.104-0.867-0.064-0.309 0.031-0.796-0.033-1.101zM19.016 11.829c-0.117 1.436-0.502 2.829-0.619 4.259 1.27 3.138 3.41 5.838 4.931 8.859 1.222 0.256 2.466 0.331 3.709 0.336 1.494-1.516 3.965-2.583 4.045-5.006 0.342-2.642 1.528-5.436 0.519-8.051-1.836-2.236-5.037-1.601-6.938-2.435-1.924-0.844-4.233 0.847-5.648 2.037zM12.477 26.728c0.806 0.117 1.617 0.24 2.418 0.374-0.027 1.083-0.174 1.753-0.238 2.836-0.144-0.443-0.423-1.158-0.567-1.601-0.683-0.347-1.261-0.456-1.939-0.798 0.080-0.203 0.245-0.608 0.326-0.811zM10.855 28.070c0.619 1.676 2.474 2.407 4.203 2.535 0.939-1.195 0.463-3.111 0.634-4.536-1.062-0.278-2.257-0.588-3.336-0.786-0.704 0.576-2.12 1.019-1.634 2.22z"></path>
</svg>
