<!-- Generated by IcoMoon.io -->
<svg version="1.1" xmlns="http://www.w3.org/2000/svg" width="25" height="32" viewBox="0 0 25 32">
<title>ability-constellation</title>
<path fill="#444" d="M20.084 1.023c1.114 0 2.016 0.903 2.016 2.016-0.013 0.72-0.343 1.292-0.933 1.69l0.755 10.49c1.782 0.177 3.034 1.693 3.078 3.441 0 1.914-1.552 3.466-3.466 3.466-1.052-0.001-2.027-0.483-2.692-1.289l-12.042 6.388c0.11 0.295 0.147 0.607 0.155 0.919 0 1.564-1.268 2.832-2.832 2.832s-2.832-1.268-2.832-2.832c0-1.564 1.268-2.832 2.832-2.832 0.851 0.004 1.514 0.343 2.103 0.936l12.054-6.395c-0.146-0.383-0.201-0.787-0.211-1.194 0.008-1.596 1.143-3.059 2.724-3.383l-0.735-10.223c-0.575-0.030-1.015-0.211-1.415-0.625l-6.247 3.707c0.064 0.308 0.043 0.16 0.068 0.444 0 1.114-0.903 2.016-2.016 2.016-0.735-0.013-1.419-0.402-1.773-1.055-0.128-0.237-0.128-0.238-0.156-0.377l-2.852-0.066c-0.001 0.766-0.326 1.475-0.863 2.012l2.65 4.451c0.233-0.047 0.109-0.031 0.371-0.044l0.206 0.010c1.076 0.176 1.755 0.911 1.81 2.006 0 1.114-0.903 2.016-2.016 2.016s-2.016-0.903-2.016-2.016c0.023-0.622 0.198-1.020 0.635-1.457l-2.593-4.356c-0.321 0.135-0.67 0.181-1.015 0.189-1.564 0-2.832-1.268-2.832-2.832s1.268-2.832 2.832-2.832c1.119 0.006 2.161 0.678 2.599 1.714l3.077 0.072c0.149-0.648 0.712-1.185 1.337-1.378 0.274-0.085 0.356-0.078 0.6-0.091l0.206 0.010c0.429 0.084 0.893 0.235 1.197 0.57l6.277-3.725c-0.053-0.24-0.033-0.113-0.057-0.379 0-1.114 0.903-2.016 2.016-2.016z"></path>
</svg>
