<!-- Generated by IcoMoon.io -->
<svg version="1.1" xmlns="http://www.w3.org/2000/svg" width="32" height="32" viewBox="0 0 32 32">
<title>ability-ascend</title>
<path fill="#444" d="M15.997 3.063v0c0.634 3.542 0.297 1.59 0.992 5.861 0.852 0.083 1.641 0.425 2.364 0.865l7.936-5.762-5.774 7.953c0.317 0.555 0.601 1.147 0.73 1.778l9.754 1.548-9.754 1.548c-0.127 0.646-0.431 1.228-0.741 1.799l5.786 7.968-7.962-5.781c-0.483 0.274-0.253 0.162-0.683 0.347l0.122 1.073 5.061 3.998h-15.656l4.927-4.078 0.125-1.008c-0.529-0.244-0.267-0.104-0.784-0.423l-8.087 5.872 5.934-8.173c-0.282-0.502-0.518-1.044-0.633-1.61l-9.654-1.532 9.654-1.532c0.116-0.567 0.355-1.097 0.629-1.603l-5.913-8.145 8.053 5.847c0.761-0.53 1.643-0.822 2.554-0.953 0.717-4.26 0.372-2.308 1.020-5.858v-0zM17.18 10.090c0.501 3.306 0.959 6.628 1.335 9.95 1.809-1.089 2.713-2.633 2.819-4.734-0.048-2.443-1.704-4.717-4.155-5.217zM14.782 10.078c-2.567 0.506-4.087 2.716-4.213 5.229 0.025 1.605 0.713 3.124 1.959 4.154 0.26 0.215 0.559 0.378 0.839 0.567 0.444-3.318 0.86-6.646 1.416-9.949z"></path>
</svg>
