<!-- Generated by IcoMoon.io -->
<svg version="1.1" xmlns="http://www.w3.org/2000/svg" width="26" height="32" viewBox="0 0 26 32">
<title>ability-hideaway</title>
<path fill="#444" d="M18.783 15.417c1.912 3.233 4.716 6.327 6.193 9.814 0.786 1.855-2.294 2.681-2.957 2.758-5.357 0.663-10.719 1.316-16.076 1.984-1.885-4.282-3.853-8.535-5.892-12.794-0.076-0.159-0.101-0.608 0.166-0.786 0.363-0.242 1.739-0.272 1.739-0.272l16.826-0.704zM17.964 16.453h-0c-0.003 0.035-0.612 5.196-0.673 5.96 0.004 0.349 0.090 0.681 0.267 0.977l1.956-0.463 2.193 3.070-14.306 1.875-0.923-1.86 9.731-2.303c0.473-2.386 0.744-4.81 0.961-7.232 0 0-15.161 0.789-15.161 0.789s5.064 11.179 5.158 11.226c0.094 0.047 17.143-2.248 17.143-2.248s-6.343-9.826-6.346-9.79zM13.58 20.905l2.11 2.376-9.438 2.149-1.074-2.337 8.402-2.188zM8.315 19.811l1.979 1.406-5.304 1.42-0.659-1.39 3.983-1.437zM4.99 19.509l0.795 0.59-1.695 0.593-0.344-0.744 1.244-0.439zM7.175 2.026l-0.796 0.029c-0.479 0.953-0.726 1.994-1.031 3.005-0.106-0.939 0.474-2.439-1.007-2.371-0.46 1.873-0.498 3.823-1.137 5.657-0.686 2.457-1.891 4.748-2.357 7.266l3.824-0.163c2.915-8.951 1.442-4.496 4.418-13.365l-1.915-0.059zM9.73 2.105c-0.468 1.163-0.75 2.377-1.169 3.556-0.687 1.694-1.171 3.455-1.476 5.251-0.663 1.476-1.336 2.947-1.786 4.505l1.184-0.044 3.457-0.147c1.412-4.328 2.431-8.798 4.246-12.985l-4.457-0.136zM15.58 2.284c-0.923 0.684-0.458 0.338-1.398 1.038-0.271 1.258-0.523 2.521-0.774 3.784-1.347 2.56-1.971 5.366-2.883 8.096l3.869-0.165c1.64-4.191 3.386-8.348 4.734-12.644l-3.548-0.109zM19.716 2.41l-0.221 0.173c-0.469 2.386-1.895 4.574-2.122 7.008-0.029 0.052-0.012 0.237-0.041 0.289-0.954 1.696-1.975 3.272-2.553 5.14l2.864-0.122c1.825-1.852 2.378-4.487 4.15-6.375 1.67-1.822 3.249-3.74 4.447-5.914l-0.973-0.030c-0.894 0.875-0.548 0.418-1.094 1.327-0.077-0.454-0.123-0.911-0.187-1.366l-4.271-0.131z"></path>
</svg>
