<!-- Generated by IcoMoon.io -->
<svg version="1.1" xmlns="http://www.w3.org/2000/svg" width="32" height="32" viewBox="0 0 32 32">
<title>ability-training</title>
<path fill="#444" d="M27.931 2.684c0.711-1.338 1.715-1.359 2.805-2.275 0.083-0.070 0.321-0.328 0.415-0.38 0.653 1.209 1.206 3.001 0.565 4.349-0.762 2.062-1.941 3.994-2.321 6.163-0.125 0.717 0.711 0.424 1.192 0.863 0 0-0.314 1.192-0.314 1.192-0.24 0.111-0.926-0.014-1.216-0.035-0.164-0.012-0.34 0.024-0.472 0.17-0.163 0.181-0.033 0.909-0.368 1.276-1.002 1.096-1.393 2.96-2.69 2.583-0.578-0.168-0.585-0.753-0.376-1.485 0.223-0.78-1.213-0.23-0.719-2.272 0.108-0.448 1.032-0.258 1.242-0.781 0.103-0.258-0.401-0.406-0.627-0.669-0.090-0.105-0.089-0.956 0.021-0.962 0.416-0.022 0.983 0.132 1.071-0.213 0.832-3.269 0.826-4.679 1.044-5.159 1.304 0.22 1.611 0.458 1.611 0.458-0.080-0.454-1.153-1.427-1.148-1.417s0.087-1.029 0.287-1.405zM14.25 2.837c-1.070 0.305-0.832 1.739-1.247 2.495-0.965 1.755 1.030 1.91 1.55 2.91 0.036 0.738-0.366 1.594-0.496 2.308 1.962-0.523 4.185-0.985 6.241-0.834-0.218-0.665-0.925-1.064-0.907-1.984 0.008-0.417 0.567-0.567 0.548-1.039-0.023-0.567 0.584-0.535 0.643-0.794 0.246-1.077-0.319-1.121-0.416-1.625-0.17-0.888-0.227-1.89-0.964-2.457-0.729-0.561-2.154 0.378-2.759 0.605-0.664 0.249-1.522 0.192-2.192 0.416zM0 14.346c1.134 2.249 2.721 5.159 3.742 6.558 0.776 1.063 3.846 1.998 5.827 2.793 0.838-1.47 1.789-3.419 2.186-5.061 0.471-1.947-0.843-3.726-3.118-8.92zM11.643 12.721c0.148 1.548 0.717 3.009 1.125 4.499 0.49 1.817 1.203 3.577 2.183 5.186 0.568 0.971 2.143 1.522 2.209 2.486 0.042 0.612-0.482 1.039-0.907 1.493-0.438 0.467-0.511 1.181-0.151 1.71 0.542 0.796 0.151 2.542 1.153 3.506 0.612 0.589 1.98 0.398 2.721-0.019 0.841-0.472 0.227-2.088 0.51-2.703 0.064-0.14 0.168-0.436 0.387-0.614 0.302-0.246 0.359-1.236 0.151-1.578-0.425-0.699-1.215-1.234-1.209-1.691 0.019-1.512 2.116-1.069 2.391-2.523 1.007-3.381 1.307-7.646 1.304-11.15-1.751-0.496-3.647-0.505-5.443-0.435-2.419 0.095-4.425 0.977-6.424 1.833z"></path>
</svg>
