<!-- Generated by IcoMoon.io -->
<svg version="1.1" xmlns="http://www.w3.org/2000/svg" width="30" height="32" viewBox="0 0 30 32">
<title>ability-reach</title>
<path fill="#444" d="M28.808 29.808c-0.412 0.404-0.834 0.798-1.255 1.192-1.378-1.188-2.387-3.481-4.474-3.302-5.457 0.047-10.915-0.084-16.362 0.058-0.899 1.304-1.936 3.034-3.731 3.020-2.666-0.021-3.95-3.077-2.147-4.97 0.001 0.005 0.005 0.010 0.004 0.015-0.167 1.958 0.387 2.458 0.763 2.524 1.069 0.189 1.535-0.757 1.814-1.567 0.689-1.866-0.478-3.864 0.147-5.741 0.757-2.45 2.871-4.548 5.426-5.005 1.257-0.342 1.835 1.299 2.997 1.33 0.542-0.258 1.057-0.563 1.546-0.92-2.298-2.387-4.706-4.664-7.103-6.951-1.078 1.735-1.746 3.738-3.139 5.279-1.279-4.533-2.247-9.146-3.266-13.742v-0c4.596 1.026 9.209 1.983 13.742 3.266-1.54 1.393-3.544 2.061-5.279 3.139 2.287 2.398 4.564 4.806 6.951 7.103 0.358-0.489 0.663-1.004 0.92-1.546-0.032-1.162-1.672-1.74-1.33-2.997 0.457-2.555 2.555-4.669 5.005-5.426 1.877-0.626 3.875 0.542 5.741-0.147 0.81-0.279 1.756-0.745 1.567-1.814-0.066-0.376-0.566-0.93-2.524-0.763-0.005 0-0.010-0.003-0.015-0.004 1.893-1.803 4.949-0.52 4.97 2.147 0.014 1.796-1.716 2.832-3.020 3.731-0.142 5.447-0.011 10.904-0.058 16.362-0.179 2.087 2.114 3.097 3.302 4.474-0.368 0.399-0.745 0.791-1.122 1.181l-0.070 0.073zM8.228 21.744c-0.233 0.241-0.284 0.274-0.473 0.552-0.82 1.213-0.842 2.759-1.16 4.14 5.662 0.042 11.33 0.032 16.993 0.005-2.776-2.766-5.547-5.536-8.333-8.291-1.141 1.425-2.208 2.918-3.465 4.248-0.815-0.552-1.656-1.987-2.755-1.172-0.291 0.137-0.572 0.294-0.807 0.518zM20.744 9.228c-0.224 0.236-0.381 0.516-0.518 0.807-0.815 1.099 0.62 1.94 1.172 2.755-1.33 1.257-2.823 2.324-4.248 3.465 2.755 2.787 5.526 5.557 8.291 8.333 0.026-5.663 0.037-11.33-0.005-16.993-1.381 0.318-2.927 0.34-4.14 1.16-0.278 0.188-0.311 0.24-0.552 0.473z"></path>
</svg>
