<!-- Generated by IcoMoon.io -->
<svg version="1.1" xmlns="http://www.w3.org/2000/svg" width="19" height="32" viewBox="0 0 19 32">
<title>ability-changeling</title>
<path fill="#444" d="M11.341 1.206c1.168 2.232 0.393 4.828 0.617 7.223-0.076 1.498 0.887 2.781 1.994 3.687-0.544-1.541-1.979-2.933-1.507-4.679 0.453-2.008 0.42-4.054 0.172-6.086 0.611 0.405 1.679 0.486 1.789 1.388 0.591 1.798 0.873 3.682 1.045 5.561 0.644-1.273 1.164-2.604 1.717-3.92 0.343 0.692 0.744 1.364 0.992 2.099-0.41 2.203-1.386 3.941-0.99 6.23 0.296-1.884 0.795-3.306 1.61-5.033 1.216 4.016 0.497 8.14 0.034 12.213-0.213-0.371-0.883-1.103-0.883-1.103s-0.192-1.132-0.361-1.524c-0.033 0.825-0.117 2.152-0.222 2.967 0.32 0.486 0.644 0.973 0.963 1.464-0.501 1.917-1.417 3.687-2.304 5.447-0.649-1.951-1.253-3.557-2.269-5.345 0.176-1.307 0.17-2.915 0.323-4.222-0.363 1.312-0.689 2.915-1.085 4.222 1.164 2.041 1.891 3.986 2.549 6.233-0.701 0.596-1.417 1.178-2.151 1.731-1.288-2.442-1.379-5.274-1.542-7.964-0.358 2.962-0.223 5.98 0.602 8.865-1.812 0.258-3.667 0.124-5.485 0.048 0.892-2.847 0.833-5.97 0.671-8.913-0.41 2.652-0.189 5.708-1.711 8.054-0.696-0.572-1.374-1.164-2.032-1.779 0.649-2.213 1.445-4.263 2.599-6.275-0.339-1.321-0.73-2.796-1.087-4.112 0.11 1.345 0.311 2.763 0.225 4.112-0.806 1.812-1.641 3.528-2.199 5.446-0.92-1.765-1.812-3.553-2.361-5.475 0.334-0.477 0.668-0.954 1.002-1.426-0.105-1.021-0.205-2.041-0.315-3.057-0.043 0.372-0.134 1.116-0.181 1.488-0.339 0.372-0.677 0.739-1.016 1.107-0.286-4.030-1.064-8.184-0.005-12.167 0.758 1.622 1.269 3.339 1.884 5.017-0.067-2.137-0.768-4.173-1.297-6.224 0.377-0.649 0.768-1.292 1.159-1.932 0.52 1.264 1.016 2.542 1.574 3.792 0.448-2.041 0.6-3.706 1.208-5.722 0.253-0.84 1.197-0.996 1.693-1.253-0.143 2.475-0.191 4.087 0.213 6.027 0.333 1.6-1.016 3.648-1.493 4.797 0.796-0.72 1.502-1.574 1.836-2.614 0.577-2.704-0.614-5.853 0.817-8.381zM2.38 15.225c0.863 0.591 1.712 1.479 2.852 1.388 0.973 0.010 1.712-0.725 2.504-1.188-0.916-0.563-1.779-1.464-2.938-1.383-0.997-0.143-1.66 0.711-2.418 1.183zM11.643 15.363c0.839 0.477 1.641 1.202 2.661 1.216 1.025-0.114 1.851-0.811 2.714-1.307-0.682-0.525-1.25-1.374-2.223-1.288-1.245-0.176-2.199 0.744-3.153 1.378zM2.686 3.974c0.305 0.672 0.634 1.331 0.973 1.989 0.262-1.083 0.529-2.161 0.744-3.257-0.587 0.41-1.154 0.835-1.717 1.269zM15.038 2.571c0.191 1.107 0.41 2.203 0.611 3.305 0.277-0.463 0.835-1.397 1.111-1.86-0.568-0.491-1.135-0.978-1.722-1.445z"></path>
</svg>
