<!-- Generated by IcoMoon.io -->
<svg version="1.1" xmlns="http://www.w3.org/2000/svg" width="23" height="32" viewBox="0 0 23 32">
<title>ability-transform</title>
<path fill="#444" d="M18.486 28.106c0 1.581-1.282 2.863-2.863 2.863h-12.762c-1.581 0-2.863-1.282-2.863-2.863v-20.157c0-1.581 1.282-2.863 2.863-2.863h2.028v-1.193c0-1.581 1.282-2.863 2.863-2.863h12.762c1.581 0 2.863 1.282 2.863 2.863v20.157c0 1.581-1.282 2.863-2.863 2.863h-2.028v1.193zM15.623 6.995h-12.762c-0.527 0-0.954 0.427-0.954 0.954v20.157c0 0.527 0.427 0.954 0.954 0.954h12.762c0.527 0 0.954-0.427 0.954-0.954v-20.157c0-0.527-0.427-0.954-0.954-0.954zM18.486 25.005h2.028c0.527 0 0.954-0.427 0.954-0.954v-20.157c0-0.527-0.427-0.954-0.954-0.954h-12.762c-0.527 0-0.954 0.427-0.954 0.954v1.193h8.826c1.581 0 2.863 1.282 2.863 2.863v17.056z"></path>
</svg>
