<!-- Generated by IcoMoon.io -->
<svg version="1.1" xmlns="http://www.w3.org/2000/svg" width="29" height="32" viewBox="0 0 29 32">
<title>ability-meld</title>
<path fill="#444" d="M27.603 13.279c0.245 0.001 0.132-0.001 0.34 0.005 0.595 0.022 1.081 1.011 0.749 1.512l-9.747 14.748c-0.39 0.626-1.223 0.755-1.597 0.347-0.198-0.216-0.354-0.622-0.354-0.622s-2.814-7.804-2.876-7.969c-0.2-0.538 0.297-0.645 0.447-0.65 0.112-0.004 3.734-0.234 3.734-0.234 0.696-0.043 1.184-0.705 1.020-1.382 0 0-1.179-4.884-1.245-5.139s0.044-0.499 0.331-0.506c0.237-0.006 9.045-0.101 9.045-0.101 0.047-0.009 0.109-0.008 0.152-0.010zM10.774 1.879c-0.356 0.072-0.648 0.194-0.859 0.508l-9.747 14.748c-0.331 0.501-0.197 1.501 0.635 1.517 0.403 0.011 0.806 0.029 1.21 0.036 2.801 0.050 7.88 0.017 7.999 0.024 0.146 0.009 0.669-0.059 0.486-0.69-0.040-0.139-1.23-4.918-1.23-4.918-0.169-0.686 0.331-1.356 1.037-1.388l3.845-0.154c0 0 0.598-0.025 0.362-0.682-0.117-0.325-2.694-8.271-2.694-8.271s-0.164-0.358-0.307-0.494c-0.214-0.178-0.454-0.263-0.735-0.236zM19.967 6.642l-5.131 6.002-4.481 0.204 1.392 5.636-3.056 6.96 5.127-5.873 4.414-0.272-1.392-5.738 3.128-6.919z"></path>
</svg>
