<!-- Generated by IcoMoon.io -->
<svg version="1.1" xmlns="http://www.w3.org/2000/svg" width="27" height="32" viewBox="0 0 27 32">
<title>ability-enlist</title>
<path fill="#444" d="M15.756 19.759c2.177 2.045 4.353 4.090 6.53 6.135l0.046 2.961h-3.007c-1.132-1.22-2.265-2.44-3.399-3.658-0.091-2.905-0.050-1.615-0.121-3.87-0.002-0.048-0.002-0.048-0.003-0.097-0.015-0.49-0.031-0.981-0.046-1.471zM17.044 13.729l-0.027 0.017c-0.438 0.481-0.941 0.899-1.4 1.359 0.048 1.496 0.096 2.993 0.142 4.489 1.147-1.221 2.295-2.442 3.438-3.667 0.054-0.116-0.1-0.305-0.16-0.386-0.35-0.48-1.387-1.697-1.994-1.812zM18.177 10.658c-0.149 0-0.23-0.005-0.346 0.106l-1.108 1.108c-0.151 0.15-0.151 0.395 0 0.545l0.525 0.525c0.133-0.071 0.299-0.007 0.426 0.044 0.109 0.049 0.232 0.128 0.372 0.234 0.24 0.182 0.535 0.449 0.829 0.746 0.289 0.293 0.555 0.594 0.74 0.839 0.105 0.139 0.184 0.26 0.235 0.366 0.053 0.132 0.132 0.29 0.059 0.433l0.52 0.52c0.151 0.151 0.395 0.151 0.545 0l1.108-1.108c0.151-0.15 0.151-0.395 0-0.545l-3.706-3.706c-0.099-0.081-0.036-0.040-0.199-0.106zM20.774 10.276c-0.149 0-0.23-0.005-0.346 0.106l-0.454 0.454c-0.151 0.15-0.151 0.395 0 0.545l1.49 1.49c0.151 0.15 0.395 0.15 0.545 0l0.454-0.454c0.151-0.15 0.151-0.395 0-0.545l-1.49-1.49c-0.099-0.081-0.036-0.040-0.199-0.106zM21.873 8.85c-0.248 0-0.359-0.012-0.554 0.169-0.241 0.241-0.241 0.631 0 0.872l1.635 1.635c0.241 0.241 0.631 0.241 0.872 0s0.241-0.631 0-0.872l-1.635-1.635c-0.159-0.129-0.058-0.063-0.318-0.169zM25.162 6.947l0.11 0.008c0.331 0.135 0.203 0.051 0.405 0.215 0.306 0.306 0.306 0.802 0 1.109s-0.802 0.306-1.109 0c-0.306-0.306-0.306-0.802-0-1.109 0.187-0.144 0.35-0.234 0.595-0.223zM25.682 6.183c-0.549 0.056-1.071 0.088-1.541 0.407-0.025 0.009-0.002 0-0.058 0.047l-0.001 0.001-0 0c-0.516 0.569-0.899 1.242-1.273 1.909 0 0 0.363 0.509 0.665 0.812 0.327 0.327 0.825 0.678 0.825 0.678s1.454-0.789 1.912-1.276l0-0c0.559-0.689 0.453-1.714 0.44-2.548-0.532-0.033-0.21-0.018-0.969-0.030zM11.806 12.409c-0.024-0.342 3.071-0.303 3.084 0.001 0.026 0.592 0.546 17.343 0.546 17.343l-1.978 1.978-2.21-1.978c0 0 0.621-16.46 0.558-17.343zM12.224 7.232h2.107c0.213 0 0.385 0.173 0.385 0.385v0.642c0 0.213-0.173 0.385-0.385 0.385h-2.107c-0.213 0-0.385-0.173-0.385-0.385v-0.642c0-0.213 0.173-0.385 0.385-0.385zM15.898 9.339c0.213 0 0.385 0.173 0.385 0.385l-0 1.567c0 0.213-0.173 0.385-0.385 0.385h-0.736c-0.049-0.153-0.217-0.208-0.348-0.264-0.111-0.038-0.253-0.068-0.425-0.092-0.304-0.043-0.705-0.067-1.117-0.070-0.418-0.003-0.816 0.017-1.114 0.059-0.174 0.024-0.316 0.055-0.428 0.098-0.126 0.054-0.288 0.126-0.332 0.27h-0.742c-0.213 0-0.385-0.173-0.385-0.385v-1.567c0-0.213 0.173-0.385 0.385-0.385h5.241zM12.121 5.408h2.312c0.341 0 0.617 0.276 0.617 0.617v0c0 0.341-0.276 0.617-0.617 0.617h-2.312c-0.341 0-0.617-0.276-0.617-0.617v0c0-0.341 0.276-0.617 0.617-0.617zM13.278 1.636c0.433 0 0.784 0.351 0.784 0.784s-0.351 0.784-0.784 0.784c-0.433 0-0.784-0.351-0.784-0.784s0.351-0.784 0.784-0.784zM13.29 0.27v0 0c-0.637 0.562-1.312 1.178-1.508 2.042-0.011 0.024-0.001 0.001-0.008 0.075l-0 0.001 0 0c0.038 0.767 0.243 1.514 0.45 2.25 0 0 0.616 0.104 1.044 0.104 0.463 0 1.063-0.104 1.063-0.104s0.47-1.586 0.45-2.255l-0-0c-0.141-0.906-0.856-1.517-1.49-2.113v0zM10.911 19.759c-0.015 0.49-0.031 0.981-0.046 1.471-0.002 0.048-0.002 0.048-0.003 0.097-0.070 2.255-0.030 0.965-0.121 3.87-1.134 1.218-2.267 2.438-3.399 3.658h-3.007l0.046-2.961c2.176-2.045 4.353-4.090 6.53-6.135zM9.623 13.729l0.027 0.017c0.438 0.481 0.941 0.899 1.4 1.359-0.048 1.496-0.096 2.993-0.142 4.489-1.147-1.221-2.295-2.442-3.438-3.667-0.054-0.116 0.1-0.305 0.16-0.386 0.35-0.48 1.387-1.697 1.994-1.812zM8.49 10.658c0.149 0 0.23-0.005 0.346 0.106l1.108 1.108c0.15 0.15 0.15 0.395 0 0.545l-0.525 0.525c-0.133-0.071-0.299-0.007-0.426 0.044-0.109 0.049-0.232 0.128-0.372 0.234-0.24 0.182-0.535 0.449-0.829 0.746-0.289 0.293-0.555 0.594-0.74 0.839-0.105 0.139-0.184 0.26-0.235 0.366-0.053 0.132-0.132 0.29-0.059 0.433l-0.52 0.52c-0.151 0.151-0.394 0.151-0.545 0l-1.108-1.108c-0.151-0.15-0.151-0.395 0-0.545l3.706-3.706c0.099-0.081 0.036-0.040 0.199-0.106zM5.892 10.276c0.149 0 0.23-0.005 0.346 0.106l0.454 0.454c0.151 0.15 0.151 0.395 0 0.545l-1.49 1.49c-0.151 0.15-0.395 0.15-0.545 0l-0.454-0.454c-0.151-0.15-0.151-0.395 0-0.545l1.49-1.49c0.099-0.081 0.036-0.040 0.199-0.106zM4.794 8.85c0.248 0 0.359-0.012 0.554 0.169 0.241 0.241 0.241 0.631 0 0.872l-1.635 1.635c-0.241 0.241-0.631 0.241-0.872 0s-0.241-0.631 0-0.872l1.635-1.635c0.159-0.129 0.058-0.063 0.318-0.169zM1.505 6.947l-0.11 0.008c-0.331 0.135-0.203 0.051-0.405 0.215-0.306 0.306-0.306 0.802 0 1.109s0.802 0.306 1.109 0c0.306-0.306 0.306-0.802 0-1.109-0.187-0.144-0.35-0.234-0.595-0.223zM0.985 6.183c0.549 0.056 1.071 0.088 1.541 0.407 0.025 0.009 0.002 0 0.058 0.047l0.001 0.001 0 0c0.516 0.569 0.899 1.242 1.273 1.909 0 0-0.362 0.509-0.665 0.812-0.327 0.327-0.825 0.678-0.825 0.678s-1.454-0.789-1.912-1.276l-0-0c-0.559-0.689-0.453-1.714-0.44-2.548 0.532-0.033 0.21-0.018 0.969-0.030z"></path>
</svg>
