<!-- Generated by IcoMoon.io -->
<svg version="1.1" xmlns="http://www.w3.org/2000/svg" width="30" height="32" viewBox="0 0 30 32">
<title>ability-hexproof-blue</title>
<path fill="#444" d="M15 1c8.284 0 15 6.716 15 15s-6.716 15-15 15c-8.284 0-15-6.716-15-15s6.716-15 15-15zM6.83 24.078l-1.323 1.323c2.258 2.407 5.424 3.815 8.718 3.981l-1.195-2.070c-2.424-0.307-4.436-1.624-6.2-3.235zM23.016 24.232c-1.581 1.73-3.7 2.591-5.948 3.030l-1.222 2.117c3.217-0.132 6.239-1.57 8.493-3.824l-1.323-1.323zM15 6.098c-5.469 0-9.902 4.433-9.902 9.902s4.433 9.902 9.902 9.902c5.469 0 9.902-4.433 9.902-9.902s-4.433-9.902-9.902-9.902zM25.184 21.417c-1.030 1.699-0.488 0.992-1.539 2.185l1.323 1.323c0.834-0.777 1.503-1.746 1.946-2.796l-1.731-0.712zM3.327 9.412c-1.275 1.956-1.633 4.313-1.748 6.588 0.108 3.117 1.025 6.498 3.299 8.772l1.323-1.323c-1.904-1.994-2.608-4.784-2.742-7.448 0.093-1.444 0.052-1.639 0.533-3.335 0.12-0.424 0.339-0.814 0.509-1.221l-1.173-2.032zM26.698 9.45l-1.2 2.078c0.707 1.388 0.903 2.943 1.043 4.472-0.081 1.241-0.072 1.663-0.432 3.081-0.133 0.525-0.364 1.020-0.546 1.531l1.697 0.699c0.883-1.634 1.069-3.49 1.16-5.31-0.095-2.221-0.445-4.658-1.723-6.55zM14.555 2.601c-4.127 0.134-8.105 2.186-10.428 5.626h2.483c2.037-2.365 4.909-3.447 7.945-3.746v-1.88zM16.372 2.648l-0.927-0.047v1.88c3.207 0.147 5.798 1.399 7.969 3.722h2.443c-1.587-2.403-4.121-4.175-6.866-5.021-0.851-0.263-1.746-0.356-2.619-0.534zM19.004 17.152c0.294 0.657 0.44 1.229 0.44 1.718 0 0.959-0.362 1.439-1.086 1.439-0.685 0-1.027-0.343-1.027-1.028l0.381-1.175c0.235-0.763 0.353-1.35 0.353-1.761 0-0.215-0.030-0.382-0.088-0.499 0.392 0.216 0.734 0.651 1.028 1.306zM19.034 23.42c1.096-1.115 1.644-2.485 1.643-4.11 0-1.096-0.382-2.221-1.145-3.376-0.49-0.665-1.204-1.683-2.144-3.053-0.763-1.155-1.145-2.339-1.145-3.553 0-0.528 0.137-1.419 0.411-2.672-1.879 1.546-3.514 3.347-4.903 5.402-1.703 2.506-2.554 4.738-2.554 6.695 0 1.82 0.499 3.317 1.498 4.491 1.057 1.233 2.486 1.849 4.286 1.849 1.605 0 2.955-0.558 4.052-1.674z"></path>
</svg>
