<!-- Generated by IcoMoon.io -->
<svg version="1.1" xmlns="http://www.w3.org/2000/svg" width="30" height="32" viewBox="0 0 30 32">
<title>ability-convoke-original</title>
<path fill="#444" d="M16.487 5.064l0.214 0.055c0.499 0.13 0.285 0.076 0.642 0.165-0.472 0.902-0.957 1.797-1.434 2.697-0.050 0.1-0.116 0.194-0.152 0.301-0.014 0.097 0.001 0.196 0.003 0.294 0.059 1.353 0.114 2.707 0.173 4.060 0.736-1.208 1.47-2.417 2.206-3.626 0.025-0.039 0.036-0.085 0.035-0.131 0.008-1.136 0.013-2.272 0.024-3.408 0.29 0.099 0.581 0.196 0.871 0.296 0.059 0.904 0.119 1.808 0.179 2.712 0.782-0.446 1.563-0.894 2.346-1.34 0.234 0.201 0.469 0.4 0.704 0.6-0.905 0.615-1.81 1.229-2.715 1.844-0.076 0.054-0.162 0.096-0.225 0.166-0.073 0.113-0.12 0.241-0.183 0.36-0.568 1.153-1.136 2.306-1.703 3.46 1.235-0.726 2.469-1.457 3.705-2.183 0.044-0.025 0.081-0.061 0.107-0.104 0.58-0.984 1.16-1.968 1.741-2.951 0.195 0.22 0.385 0.445 0.578 0.668-0.416 0.819-0.833 1.638-1.249 2.457 0.927-0.002 1.855-0.004 2.782-0.010 0.123 0.285 0.229 0.578 0.352 0.864-1.144 0.092-2.289 0.167-3.434 0.255-0.047 0.004-0.089 0.025-0.127 0.052-1.149 0.81-2.299 1.618-3.453 2.421 1.385-0.017 2.769-0.080 4.154-0.117 0.079-0.004 0.165 0 0.233-0.047 0.975-0.607 1.95-1.214 2.926-1.819 0.061 0.311 0.122 0.623 0.185 0.934-0.657 0.474-1.316 0.945-1.974 1.418-0.089 0.066-0.188 0.122-0.264 0.204 0.781 0.412 1.572 0.803 2.354 1.213-0.004 0.315-0 0.63-0.002 0.945-0.595-0.24-1.177-0.511-1.784-0.721-1.050-0.367-2.166-0.648-3.286-0.522-1.069 0.119-2.137 0.514-2.933 1.256-0.623 0.574-1.032 1.356-1.207 2.181-0.261 1.211-0.108 2.485 0.3 3.646 0.326 0.912 0.861 1.762 1.609 2.386 0.685 0.579 1.533 0.945 2.409 1.116 0.801 0.16 1.624 0.168 2.436 0.097-0.227 0.249-0.456 0.499-0.71 0.721-0.139 0.045-0.294 0.020-0.439 0.028-0.827-0.002-1.644-0.179-2.425-0.441-0.194-0.060-0.383-0.143-0.587-0.161 0.006 0.11 0.035 0.22 0.108 0.306 0.19 0.244 0.444 0.426 0.696 0.602 0.422 0.282 0.863 0.538 1.33 0.741-0.165 0.11-0.331 0.221-0.501 0.324-0.229-0.051-0.449-0.138-0.654-0.252-0.569-0.31-1.046-0.754-1.559-1.144-0.122-0.082-0.258-0.213-0.418-0.151 0.062 0.205 0.202 0.372 0.325 0.542 0.408 0.538 0.849 1.048 1.285 1.563-0.189 0.090-0.38 0.174-0.573 0.255-0.219-0.237-0.372-0.53-0.61-0.75-0.086-0.077-0.197-0.157-0.319-0.13-0.171 0.042-0.273 0.21-0.312 0.372-0.074 0.307-0.034 0.626 0.010 0.935-0.376 0.104-0.757 0.19-1.141 0.259-0.339-0.202-0.502-0.583-0.793-0.836-0.094-0.079-0.281-0.167-0.354-0.019-0.186 0.313-0.281 0.671-0.389 1.017-0.151 0.006-0.301 0.009-0.452 0.013h-0.041c-0.152-0.004-0.303-0.007-0.455-0.013-0.099-0.326-0.195-0.657-0.354-0.96-0.038-0.058-0.078-0.149-0.161-0.137-0.153 0.013-0.271 0.126-0.367 0.236-0.207 0.242-0.375 0.53-0.654 0.7-0.384-0.069-0.765-0.154-1.141-0.259 0.044-0.308 0.083-0.626 0.010-0.933-0.038-0.155-0.129-0.313-0.288-0.367-0.121-0.044-0.24 0.030-0.328 0.107-0.248 0.222-0.403 0.523-0.627 0.765-0.193-0.081-0.384-0.166-0.573-0.255 0.472-0.561 0.956-1.113 1.389-1.706 0.080-0.122 0.183-0.239 0.209-0.387-0.077-0.078-0.185-0.004-0.261 0.039-0.333 0.221-0.627 0.495-0.946 0.736-0.426 0.323-0.879 0.642-1.409 0.76-0.171-0.102-0.337-0.213-0.502-0.325 0.402-0.173 0.783-0.389 1.152-0.623 0.303-0.199 0.611-0.406 0.847-0.686 0.084-0.093 0.13-0.213 0.133-0.338-0.125 0.012-0.246 0.044-0.364 0.086-0.972 0.341-2.001 0.573-3.036 0.504-0.048-0.002-0.080-0.041-0.115-0.069-0.223-0.215-0.44-0.437-0.646-0.669 1.151 0.103 2.341 0.038 3.428-0.382 0.866-0.33 1.637-0.906 2.192-1.649 0.721-0.96 1.104-2.142 1.229-3.328 0.103-1.050-0.027-2.154-0.541-3.089-0.415-0.761-1.095-1.361-1.876-1.727-1.025-0.481-2.198-0.649-3.315-0.458-0.736 0.117-1.45 0.342-2.145 0.606-0.483 0.181-0.95 0.399-1.429 0.59-0.002-0.315 0.002-0.631-0.002-0.946 0.788-0.409 1.58-0.81 2.369-1.216-0.751-0.539-1.502-1.078-2.253-1.618 0.062-0.312 0.123-0.623 0.185-0.935 0.977 0.606 1.953 1.213 2.929 1.821 0.068 0.046 0.152 0.041 0.23 0.045 1.385 0.038 2.77 0.1 4.155 0.118-1.162-0.804-2.316-1.62-3.472-2.432-0.086-0.060-0.197-0.045-0.297-0.057-1.082-0.077-2.164-0.157-3.245-0.236 0.113-0.289 0.231-0.575 0.343-0.864 0.929-0.002 1.858 0.007 2.787 0.007-0.416-0.819-0.833-1.638-1.249-2.457 0.192-0.224 0.385-0.447 0.577-0.67 0.581 0.986 1.163 1.971 1.744 2.958 0.049 0.083 0.142 0.12 0.221 0.168 1.197 0.702 2.39 1.411 3.587 2.112-0.614-1.254-1.234-2.505-1.849-3.759-0.022-0.046-0.055-0.087-0.098-0.114-0.96-0.65-1.919-1.302-2.878-1.954 0.236-0.196 0.462-0.405 0.704-0.593 0.084 0.032 0.159 0.085 0.238 0.128 0.702 0.402 1.404 0.803 2.107 1.204 0.060-0.904 0.119-1.808 0.179-2.712 0.29-0.099 0.581-0.197 0.872-0.296 0.008 1.086 0.016 2.172 0.021 3.258 0.005 0.094-0.016 0.198 0.037 0.282 0.736 1.207 1.469 2.417 2.205 3.624 0.062-1.422 0.121-2.845 0.182-4.267 0.011-0.116-0.067-0.211-0.115-0.309-0.493-0.924-0.986-1.848-1.479-2.772 0.286-0.074 0.572-0.15 0.858-0.222 0.453 0.745 0.908 1.489 1.362 2.233 0.454-0.744 0.908-1.489 1.362-2.233zM16.408 28.487v0c0.099 0.252 0.223 0.493 0.35 0.733 0.147 0.265 0.295 0.534 0.499 0.76 0.062 0.058 0.141 0.147 0.235 0.11 0.041-0.069 0.041-0.152 0.045-0.229 0.002-0.183-0.013-0.365-0.047-0.544-0.033-0.183-0.177-0.315-0.308-0.434-0.223-0.185-0.474-0.378-0.774-0.395zM13.837 28.483v0c-0.282 0.027-0.523 0.196-0.736 0.371-0.132 0.117-0.275 0.242-0.33 0.415-0.043 0.184-0.057 0.373-0.059 0.562 0.003 0.087 0 0.182 0.045 0.261 0.156 0.031 0.256-0.141 0.346-0.244 0.213-0.288 0.381-0.606 0.541-0.925 0.068-0.144 0.145-0.285 0.191-0.439zM15.128 27.815v0c-0.054 0.027-0.080 0.086-0.112 0.135-0.127 0.226-0.227 0.466-0.313 0.71-0.023 0.075-0.058 0.155-0.038 0.235 0.042 0.17 0.116 0.33 0.185 0.49 0.081 0.176 0.158 0.355 0.276 0.511 0.103-0.137 0.175-0.294 0.248-0.449 0.083-0.198 0.188-0.394 0.219-0.608-0.045-0.242-0.155-0.467-0.255-0.69-0.062-0.116-0.108-0.247-0.21-0.334zM16.925 27.612v0c0.014 0.1 0.011 0.211 0.062 0.3 0.35 0.212 0.709 0.41 1.055 0.628 0.027-0.164-0.089-0.298-0.194-0.408-0.195-0.194-0.423-0.358-0.674-0.471-0.077-0.038-0.163-0.049-0.248-0.049zM13.324 27.612v0c-0.169-0.009-0.32 0.078-0.461 0.16-0.201 0.124-0.391 0.27-0.543 0.451-0.071 0.087-0.141 0.198-0.105 0.316 0.343-0.223 0.704-0.417 1.052-0.629 0.042-0.093 0.046-0.198 0.057-0.298zM4.368 10.729c-1.194 0.257-2.389 0.515-3.584 0.768 0.806 0.924 1.624 1.837 2.434 2.757-1.071 0.635-2.148 1.26-3.215 1.9 1.046 0.609 2.090 1.223 3.135 1.833-0.276-2.415 0.132-4.913 1.209-7.095 0.021-0.048 0.11-0.134 0.022-0.163zM25.878 10.726c-0.017 0.014-0.033 0.028-0.048 0.043 0.079 0.103 0.122 0.226 0.18 0.342 0.997 2.131 1.37 4.541 1.103 6.876 1.045-0.611 2.088-1.224 3.135-1.833-1.068-0.641-2.144-1.265-3.215-1.9 0.812-0.919 1.625-1.836 2.436-2.756-1.197-0.258-2.395-0.508-3.59-0.773zM24.024 3.928c-1.138 0.487-2.276 0.976-3.414 1.464 1.929 1.019 3.566 2.572 4.706 4.43 0.171 0.286 0.348 0.57 0.483 0.875 0.014 0.007 0.042 0.022 0.056 0.029 0.015-0.045 0.032-0.090 0.051-0.134 0.499-1.107 0.997-2.215 1.495-3.323-1.259 0.112-2.518 0.224-3.777 0.337 0.132-1.226 0.266-2.453 0.399-3.679zM6.225 3.928c0.133 1.226 0.267 2.453 0.399 3.679l-3.777-0.337c0.502 1.116 1.005 2.232 1.506 3.348 0.018 0.031 0.035 0.083 0.079 0.083 0.024-0.027 0.038-0.062 0.056-0.093 1.139-2.204 2.955-4.057 5.151-5.216-1.138-0.488-2.276-0.977-3.414-1.464zM19.846 1.748c-0.558 0.471-1.111 0.947-1.667 1.419-0.391 0.339-0.794 0.666-1.177 1.013 1.243 0.205 2.453 0.606 3.569 1.192-0.241-1.208-0.482-2.416-0.725-3.624zM10.405 1.75c-0.246 1.207-0.484 2.415-0.726 3.622 1.116-0.586 2.327-0.987 3.57-1.192-0.116-0.114-0.245-0.213-0.367-0.32-0.826-0.703-1.649-1.41-2.477-2.111zM15.125 1v0c-0.611 1.056-1.215 2.115-1.823 3.173 1.205-0.188 2.44-0.188 3.645 0-0.608-1.058-1.213-2.116-1.822-3.173z"></path>
</svg>
