<!-- Generated by IcoMoon.io -->
<svg version="1.1" xmlns="http://www.w3.org/2000/svg" width="28" height="32" viewBox="0 0 28 32">
<title>ability-party</title>
<path fill="#444" d="M8.18 7.501l5.041-5.027c0.298-0.297 0.782-0.297 1.080 0l5.041 5.027c0.298 0.298 0.298 0.78 0 1.077l-5.041 5.027c-0.298 0.297-0.782 0.297-1.080 0l-5.041-5.027c-0.298-0.297-0.298-0.78 0-1.077zM16.115 15.445c-0.298 0.297-0.298 0.78 0 1.077l5.041 5.027c0.298 0.297 0.782 0.297 1.080 0l5.041-5.027c0.298-0.297 0.298-0.78 0-1.077l-5.041-5.027c-0.298-0.297-0.782-0.297-1.080 0l-5.041 5.027zM0.224 15.445c-0.298 0.297-0.298 0.78 0 1.077l5.041 5.027c0.298 0.297 0.782 0.297 1.080 0l5.041-5.027c0.298-0.297 0.298-0.78 0-1.077l-5.041-5.027c-0.298-0.297-0.782-0.297-1.080 0l-5.041 5.027zM8.18 23.422c-0.298 0.297-0.298 0.78 0 1.077l5.041 5.027c0.298 0.297 0.782 0.297 1.080 0l5.041-5.027c0.298-0.297 0.298-0.78 0-1.077l-5.041-5.027c-0.298-0.297-0.782-0.297-1.080 0l-5.041 5.027z"></path>
</svg>
