<!-- Generated by IcoMoon.io -->
<svg version="1.1" xmlns="http://www.w3.org/2000/svg" width="30" height="32" viewBox="0 0 30 32">
<title>ability-activated</title>
<path fill="#444" d="M15 1c8.284 0 15 6.716 15 15s-6.716 15-15 15c-8.284 0-15-6.716-15-15s6.716-15 15-15zM15 2.571c-7.416 0-13.429 6.012-13.429 13.429s6.012 13.429 13.429 13.429c7.416 0 13.429-6.012 13.429-13.429s-6.012-13.429-13.429-13.429zM15 21.357c2.959 0 5.357-2.398 5.357-5.357s-2.398-5.357-5.357-5.357c-2.959 0-5.357 2.398-5.357 5.357s2.398 5.357 5.357 5.357zM15 7.5c4.694 0 8.5 3.806 8.5 8.5s-3.806 8.5-8.5 8.5c-4.694 0-8.5-3.806-8.5-8.5s3.806-8.5 8.5-8.5zM15 5.357c-5.878 0-10.643 4.765-10.643 10.643s4.765 10.643 10.643 10.643c5.878 0 10.643-4.765 10.643-10.643s-4.765-10.643-10.643-10.643z"></path>
</svg>
