<!-- Generated by IcoMoon.io -->
<svg version="1.1" xmlns="http://www.w3.org/2000/svg" width="28" height="32" viewBox="0 0 28 32">
<title>ability-convoke</title>
<path fill="#444" d="M12.972 5.23l0.937 1.692 0.924-1.673c0.514 0.044 1.022 0.143 1.524 0.261l-1.708 2.746 0.508 4.736 4.549-2.776 0.905-2.67c0.396 0.296 0.752 0.64 1.099 0.992l-0.594 1.563 1.741-0.143c0.269 0.397 0.516 0.811 0.721 1.245l-2.952 0.167-3.844 4.015h0.14l0.003 0.004h3.042l4.455-1.782c0.132 0.582 0.215 1.174 0.25 1.769l-3.266 0.726v0.113l3.217 1.057c-0.049 0.526-0.167 1.042-0.298 1.552l-4.357-2.204h-3.185l3.844 4.015 2.95 0.167c-0.206 0.435-0.456 0.847-0.725 1.245l-1.734-0.142 0.594 1.563c-0.336 0.365-0.714 0.685-1.096 1l-0.908-2.678-4.549-2.776-0.508 4.736 1.729 2.779c-0.503 0.13-1.019 0.194-1.535 0.246l-0.933-1.69-0.939 1.695c-0.516-0.049-1.036-0.11-1.539-0.239l1.741-2.79-0.547-4.74-4.51 2.78-0.916 2.718c-0.394-0.3-0.749-0.645-1.098-0.994l0.612-1.61-1.795 0.147c-0.273-0.396-0.518-0.813-0.727-1.246l3.005-0.17 3.703-4.015h-3.014l-4.434 2.243c-0.139-0.512-0.252-1.035-0.305-1.563l3.301-1.084v-0.113l-3.357-0.746c0.018-0.603 0.132-1.195 0.253-1.784l4.543 1.817h3.018l-3.707-4.019-3.003-0.17c0.207-0.435 0.458-0.848 0.728-1.246l1.793 0.147-0.611-1.607c0.336-0.364 0.717-0.679 1.098-0.994l0.915 2.715 4.51 2.78 0.547-4.74-1.739-2.787c0.505-0.127 1.022-0.187 1.539-0.239zM13.882 4.51c6.349 0 11.496 5.147 11.496 11.496s-5.147 11.496-11.496 11.496c-6.349 0-11.496-5.147-11.496-11.496s5.147-11.496 11.496-11.496zM13.882 1.065l-1.536 2.66c-1.342 0.162-2.659 0.544-3.873 1.14l-2.803-1.377 0.203 3.035c-1.104 0.962-2.089 2.052-2.778 3.356l-3.096 0.426 1.909 2.458c-0.273 1.060-0.443 2.145-0.431 3.243 0.026 1.093 0.157 2.186 0.462 3.238l-1.939 2.497 3.152 0.432c0.708 1.254 1.604 2.402 2.721 3.318l-0.203 3.032 2.765-1.358c1.225 0.622 2.574 0.99 3.935 1.152l1.512 2.619 1.512-2.619c1.416-0.185 2.81-0.568 4.074-1.244l2.721 1.337-0.204-3.050c1.052-0.899 1.921-2.001 2.624-3.188l3.125-0.43-1.906-2.454c0.307-1.065 0.459-2.173 0.458-3.281-0.014-1.104-0.135-2.208-0.439-3.272l1.886-2.429-3.063-0.421c-0.702-1.236-1.58-2.368-2.683-3.274l0.095-1.42 0.106-1.588-2.731 1.342c-1.28-0.609-2.637-1.074-4.050-1.237l-1.525-2.642z"></path>
</svg>
