<!-- Generated by IcoMoon.io -->
<svg version="1.1" xmlns="http://www.w3.org/2000/svg" width="32" height="32" viewBox="0 0 32 32">
<title>ability-learn</title>
<path fill="#444" d="M28.123 2.155c1.068 0.018 2.138-0.020 3.205 0.018 0.412 0.020 0.916 0.507 0.539 0.896-0.666 0.827-1.112 1.795-1.678 2.686-0.425 0.342-1.029 0.301-1.542 0.422 0.115 0.552 0.349 1.255-0.123 1.704-0.491 0.526-1.029 1.1-1.764 1.251-0.595 0.086-1.198-0.018-1.793 0.060-0.386 0.171-0.661 0.519-0.972 0.794 0.513 0.108 1.127-0.099 1.562 0.246 0.034 0.266 0.397 0.597 0.226 0.804-0.153 0.186-0.802 0.311-1.165 0.311-0.067 0 0.136 0.328 0.078 0.362-0.423 0.246-0.991 0.059-1.501 0.207-0.222 0.065 0.37 0.447 0.144 0.518-0.656 0.031-2.084 0.043-2.699 0.283 0.549 0.339 1.041 0.76 1.515 1.194-0.433 0.44-0.741 0.941-1.368 1.085-0.408 0.051-1.066 0.059-1.475 0.052-0.131 0.605 0.776 1.372-0.259 1.812-0.6 0.255-1.307 0.179-1.804-0.064-0.396-0.218-0.854-0.184-1.289-0.187-0.035 0.441 0.004 0.976-0.39 1.277-1.161 0.741-2.437 0.684-3.585 1.497l-1.42 0.297c0.223-0.353 0.647-0.902 0.87-1.255 0.837-1.324 1.452-2.263 2.113-3.207 1.459-2.085 2.853-3.748 4.318-5.065 1.735-1.559 3.366-2.597 5.225-2.998 0.21-0.045 0.489-0.222 0.444-0.431-0.060-0.186 0.002-0.305-0.196-0.319h-0.455c-2.005 0.432-3.761 1.462-5.59 3.106-1.515 1.362-2.806 3.332-4.296 5.461-0.669 0.956-1.428 2.369-2.437 3.637-0.106 0.133-0.652 0.965-0.834 1.251-0.335 0.528-0.551 0.472-0.792 0.831-0.119 0.178 0.007 0.501 0.185 0.62s0.419 0.072 0.539-0.106c0.235-0.35 0.463-0.705 0.69-1.060l1.643-0.138c0.391 0.33 0.808 0.62 1.283 0.816 0.511 0.183 1.013 0.396 1.489 0.656-0.516 0.523-1.195 0.892-1.85 1.23-0.634 0.31-1.031 0.917-1.642 1.266-0.333 0.191-0.662 0.39-0.979 0.608-0.718 0.488-1.561 0.836-2.099 1.546-0.222 0.259-0.152 0.627-0.177 0.941 0.019 0.408-0.064 0.872 0.218 1.213 0.191 0.352 0.596 0.647 0.547 1.086-0.13 0.218-0.444 0.099-0.653 0.117-0.666-0.108-1.232-0.504-1.822-0.805-0.824-0.438-1.475-1.122-2.126-1.777-0.523-0.535-1.109-1.016-1.536-1.635-0.9-1.337-1.402-2.879-2.059-4.336 0.227-0.463 0.793-0.889 0.716-1.562-0.063-0.542-1.001-0.519-1.249-1.009-0.095-0.697-0.028-1.407-0.048-2.109-0.045-0.967 0.523-1.798 0.908-2.642 0.246 0.183 0.571 0.298 0.685 0.609 0.246 0.457 0.436 1.267 0.979 1.444 0.345 0.025 0.744 0.080 1.036-0.149 0.549-0.403 1.030-0.954 1.519-1.423l2.213-1.65 0.272-0.311c0.5-0.463 0.874-1.052 1.456-1.417 0.243-0.010 0.324 0.015 0.562 0.056 0.007 1.343-0.029 2.689 0.013 4.031 0.164 0.773 0.405 1.744 0.59 2.513 1.348-2.315 2.402-5.114 4.295-7.064 0.655-0.842 1.386-1.622 2.224-2.283 0.88-0.672 1.577-1.546 2.449-2.229 1.895-1.466 4.061-2.677 6.435-3.132 0.832-0.129 1.631-0.472 2.483-0.449v0zM24.309 6.015c-0.191 0.009-0.093 0.252-0.285 0.259 0 0.133 0.257 0.178 0.259 0.311 0.18-0.003 0.312-0.102 0.492-0.104 0.012-0.137-0.191-0.303-0.181-0.44l-0.285-0.026zM12.733 3.477l-0.505 0.004c-0.14 0.014-0.282 0.019-0.421 0.044-0.352 0.063-0.684 0.209-1.034 0.278-1.514 0.533-2.889 1.399-4.19 2.327-1.407 1.162-2.647 2.506-3.953 3.776-0.276 0.311-0.697 0.684-0.547 1.149 0.241 0.466 0.709 0.804 1.292 0.986 0.381 0.119 0.33 0.65 0.354 1.043 0.019 0.316 0.44 0.823 0.919 0.593l2.249-2.115c0.511-0.523 1.009-0.998 1.617-1.416 1.214-0.799 2.394-1.611 3.706-2.251 0.782-0.428 1.612-0.776 2.353-1.277 0.785-0.497 0.835-2.145-0.060-2.356-0.488-0.115-0.702 0.004-1.024 0.364-0.664 0.742-0.973 0.862-1.065 0.778-0.066-0.061-0.032-0.159 0.090-0.312 0.049-0.061 0.108-0.083 0.199-0.179 0.005-0.005 0.231-0.218 0.287-0.277 0.211-0.225 0.313-0.423 0.408-0.592 0.066-0.134 0.093-0.086 0.067-0.145-0.131-0.305-0.476-0.318-0.743-0.42zM17.976 20.56c-1.331 0.872-2.742 1.616-4.047 2.528-0.507 0.345-0.962 0.767-1.499 1.068-0.804 0.433-1.475 1.073-2.314 1.448 0.446 0.561 0.846 1.229 1.511 1.552 0.494 0.038 0.747-0.508 1.191-0.645 0.291 0.029 1.208 0.006 1.061 0.259-0.466 0.802-1.377 0.654-1.832 1.188-0.377 0.549-0.171 1.264-0.226 1.887 0.326-0.051 0.678-0.044 0.966-0.227 1.309-0.738 2.574-1.551 3.882-2.289 1.529-0.818 2.901-1.884 4.336-2.848 0.824-0.688 1.711-1.483 2.321-2.37 0.129-0.721-0.607-1.325-0.673-2.019-0.104-1.087-0.852-1.169-1.533-1.277-1.191 0.269-2.068 1.217-3.144 1.744z"></path>
</svg>
