<!-- Generated by IcoMoon.io -->
<svg version="1.1" xmlns="http://www.w3.org/2000/svg" width="21" height="32" viewBox="0 0 21 32">
<title>ability-prowess</title>
<path fill="#444" d="M11.2 2.645v0c0.407 0.013 0.67-0.026 1.222 0.158 0.619 0.206 0.787 1.207 0.83 1.901l0.034 0.658v7.202c-0.016 1.42-0.015 1.852 0 2.073s0.044 0.304 0.044 0.304c0.049 0.135 0.061 0.187 0.192 0.2 0.2 0 0.361-0.162 0.361-0.361v-5.444c0.011-0.413 0.016-0.602 0.089-1.008 0.22-1.21 2.978-1.607 3.19 0.427 0.084 0.811 0.064 1.555 0.099 2.365 0.022 0.516-0.005 1.206 0.024 1.721v2.175c0 0.2 0.074 0.361 0.242 0.361s0.305-0.162 0.305-0.361c0.008-3.923 0.033-4.421 0.060-4.654 0.203-1.747 3.255-1.755 3.302 0.7 0.063 3.274-0.024 6.554 0.052 9.824 0.020 1.11-0.111 2.216-0.388 3.291-0.044 0.172-0.11 0.338-0.165 0.507l0.018 0.041c-0.146 0.729-0.587 1.357-0.991 1.964-0.256 0.426-0.606 0.777-0.981 1.097l-0.020 0.019 0-0.002c-0.345 0.328-0.765 0.561-1.18 0.787 0.043-2.148 0.238-4.287 0.295-6.43-1.516-1.288-3.118-2.467-4.748-3.602 0.128-0.893 0.266-1.792 0.475-2.671-1.545 1.331-3.061 2.685-4.553 4.078 1.065 1.255 2.348 2.286 3.683 3.236-0.884 2.044-1.73 4.097-2.571 6.155-1.009-0.072-1.912-0.539-2.763-1.053l-0.048-0.020c-0.376-0.227-0.205-0.115-0.518-0.332l-0.172-0.112v-0.008c-1.269-0.879-2.21-2.13-3.1-3.37-1.221-1.825-2.657-3.555-3.441-5.632-0.466-1.497 1.198-2.932 2.647-2.623 1.136 0.803 1.613 1.677 2.63 2.613 0.276-4.781-0.225-9.276-0.007-14.053-0.062-1.915 3.465-2.146 3.58-0.337 0.057 0.929 0.081 1.86 0.104 2.791v7.881c0 0.2 0.037 0.361 0.236 0.361s0.361-0.162 0.361-0.361v-3.673c0.055-1.804 0.029-0.557 0.007-3.541-0.003-0.388-0.005-0.775-0.007-1.163v-1.076c0.029-1.38 0.007-0.763 0.057-1.852 0.053-0.946 1.104-1.163 1.511-1.15z"></path>
</svg>
