<!-- Generated by IcoMoon.io -->
<svg version="1.1" xmlns="http://www.w3.org/2000/svg" width="29" height="32" viewBox="0 0 29 32">
<title>ability-fabricate</title>
<path fill="#444" d="M16.745 3.962l1.416-0.585c0.446 0.657 0.892 1.313 1.338 1.97 0.508-0.047 1.020-0.046 1.528 0.002 0.446-0.656 0.893-1.312 1.338-1.968 0.943 0.392 1.887 0.785 2.83 1.178-0.151 0.778-0.3 1.557-0.449 2.335 0.395 0.324 0.756 0.686 1.079 1.082 0.78-0.149 1.559-0.297 2.339-0.446 0.391 0.943 0.781 1.887 1.17 2.831-0.657 0.445-1.314 0.89-1.971 1.335 0.051 0.508 0.047 1.020-0 1.529 0.656 0.444 1.31 0.892 1.966 1.336-0.392 0.944-0.783 1.888-1.175 2.832-0.779-0.151-1.558-0.3-2.338-0.449-0.325 0.393-0.688 0.754-1.080 1.080 0.149 0.779 0.296 1.559 0.445 2.339-0.943 0.391-1.887 0.78-2.831 1.17-0.446-0.657-0.892-1.313-1.338-1.97-0.508 0.047-1.019 0.047-1.527-0.002-0.447 0.656-0.894 1.312-1.339 1.969-0.943-0.393-1.886-0.785-2.829-1.178 0.15-0.778 0.299-1.557 0.449-2.336-0.395-0.323-0.757-0.685-1.079-1.081-0.779 0.149-1.559 0.297-2.339 0.446-0.391-0.943-0.781-1.887-1.17-2.831 0.657-0.445 1.314-0.89 1.97-1.335-0.053-0.508-0.049-1.020 0.001-1.528-0.656-0.445-1.31-0.892-1.966-1.337 0.39-0.945 0.783-1.888 1.175-2.833 0.779 0.151 1.558 0.299 2.337 0.449 0.325-0.393 0.688-0.754 1.081-1.079-0.148-0.78-0.296-1.559-0.445-2.339l1.415-0.586zM18.622 8.503c-2.183 0.902-3.221 3.403-2.319 5.586s3.403 3.221 5.586 2.319c2.183-0.902 3.221-3.403 2.319-5.586s-3.403-3.221-5.586-2.319zM4.423 4.518c1.297-0.536 2.782 0.081 3.318 1.378s-0.081 2.783-1.378 3.318-2.782-0.081-3.318-1.378c-0.536-1.297 0.081-2.782 1.378-3.318zM3.308 1.82l-0.841 0.348c0.088 0.463 0.176 0.926 0.264 1.389-0.233 0.194-0.449 0.408-0.642 0.641-0.463-0.089-0.926-0.177-1.388-0.267-0.232 0.561-0.466 1.121-0.698 1.683 0.39 0.264 0.779 0.53 1.168 0.794-0.030 0.302-0.032 0.606-0.001 0.908-0.39 0.264-0.78 0.529-1.171 0.793 0.231 0.561 0.463 1.122 0.695 1.682 0.463-0.089 0.926-0.176 1.389-0.265 0.191 0.235 0.406 0.45 0.641 0.642-0.089 0.463-0.178 0.925-0.267 1.388 0.56 0.234 1.121 0.466 1.681 0.7 0.265-0.39 0.53-0.78 0.796-1.17 0.301 0.029 0.605 0.029 0.907 0.001 0.265 0.39 0.53 0.78 0.795 1.17 0.561-0.232 1.122-0.463 1.682-0.695-0.088-0.463-0.176-0.926-0.264-1.389 0.233-0.194 0.449-0.408 0.642-0.641 0.463 0.089 0.926 0.177 1.389 0.267 0.233-0.561 0.465-1.122 0.698-1.683-0.39-0.264-0.778-0.53-1.168-0.794 0.028-0.302 0.031-0.606 0-0.908 0.39-0.264 0.78-0.529 1.171-0.793-0.231-0.561-0.463-1.122-0.695-1.682-0.463 0.089-0.926 0.176-1.389 0.265-0.192-0.235-0.407-0.45-0.641-0.643 0.089-0.462 0.177-0.925 0.267-1.387-0.56-0.234-1.121-0.466-1.681-0.7-0.264 0.39-0.53 0.779-0.795 1.169-0.302-0.029-0.606-0.029-0.908-0.001-0.265-0.39-0.53-0.78-0.795-1.17l-0.841 0.347zM7.196 19.983c1.849 0 3.349 1.499 3.348 3.348s-1.499 3.349-3.348 3.349c-1.849 0-3.348-1.499-3.348-3.349s1.499-3.348 3.348-3.348zM7.196 16.136l-1.199 0c-0.126 0.608-0.252 1.217-0.378 1.825-0.382 0.118-0.752 0.271-1.105 0.458-0.518-0.342-1.038-0.682-1.556-1.024-0.566 0.566-1.132 1.131-1.697 1.699 0.342 0.518 0.682 1.037 1.023 1.555-0.188 0.352-0.344 0.722-0.458 1.105-0.608 0.125-1.217 0.251-1.825 0.377-0.001 0.8-0.001 1.599 0 2.399 0.609 0.125 1.217 0.251 1.826 0.377 0.115 0.383 0.268 0.753 0.457 1.105-0.341 0.519-0.682 1.038-1.023 1.556 0.565 0.566 1.131 1.132 1.695 1.699 0.519-0.342 1.038-0.684 1.558-1.024 0.352 0.187 0.723 0.34 1.104 0.458 0.126 0.608 0.253 1.217 0.379 1.825 0.8 0 1.599 0.001 2.399 0 0.125-0.608 0.252-1.217 0.377-1.825 0.381-0.119 0.752-0.271 1.105-0.458 0.52 0.341 1.039 0.682 1.558 1.024 0.566-0.566 1.132-1.132 1.697-1.698-0.342-0.518-0.681-1.038-1.023-1.555 0.186-0.354 0.343-0.723 0.458-1.106 0.608-0.125 1.217-0.252 1.825-0.377 0.001-0.8 0.001-1.599 0-2.399-0.609-0.125-1.217-0.251-1.826-0.377-0.116-0.383-0.269-0.753-0.458-1.105 0.341-0.518 0.682-1.037 1.024-1.555-0.565-0.566-1.13-1.132-1.696-1.699-0.518 0.342-1.038 0.683-1.557 1.024-0.353-0.187-0.724-0.34-1.105-0.458-0.126-0.608-0.253-1.217-0.379-1.826l-1.199-0z"></path>
</svg>
