<!-- Generated by IcoMoon.io -->
<svg version="1.1" xmlns="http://www.w3.org/2000/svg" width="32" height="32" viewBox="0 0 32 32">
<title>ability-spectacle</title>
<path fill="#444" d="M12.771 4.963h0.003c0.572 0.318 1.104 0.713 1.567 1.176 0.312 0.317 0.593 0.674 0.775 1.082 0.159 0.355 0.236 0.757 0.158 1.143-0.067 0.34-0.246 0.644-0.449 0.92-0.383 0.513-0.847 0.966-1.166 1.526-0.23 0.396-0.372 0.848-0.383 1.307-0.018 0.318 0.1 0.621 0.234 0.903 0.082 0.171 0.174 0.337 0.268 0.502 0.565-0.034 1.13-0.055 1.696-0.059 0.065 0.001 0.131-0.007 0.195 0.006 0.053 0.030 0.075 0.093 0.095 0.148 0.046 0.149 0.059 0.306 0.072 0.461 0.027 0.398 0.020 0.796 0.009 1.194-0.020 0.643-0.061 1.285-0.103 1.926-0.020 0.337-0.051 0.674-0.058 1.012 0.064 1.39 0.123 2.781 0.165 4.172 0.004 0.405 0.004 0.815-0.090 1.212-0.081 0.345-0.263 0.654-0.451 0.95-0.096 0.013-0.193 0.009-0.288-0.010 0.103-0.156 0.184-0.351 0.127-0.539-0.029-0.109-0.127-0.202-0.245-0.191 0.025 0.126-0.017 0.252-0.072 0.364-0.072 0.144-0.159 0.286-0.28 0.394-0.060-0.129-0.085-0.269-0.127-0.404-0.108-0.369-0.248-0.74-0.5-1.037-0.157-0.188-0.369-0.331-0.608-0.39-0.096 0.213-0.189 0.427-0.309 0.628 0.092 0.205 0.154 0.429 0.133 0.655-0.021 0.276-0.141 0.535-0.293 0.763-0.049-0.161-0.111-0.34-0.263-0.432-0.128-0.075-0.287-0.035-0.408 0.035-0.238 0.136-0.42 0.349-0.582 0.565-0.151 0.212-0.291 0.437-0.371 0.686-0.050 0.147-0.012 0.307 0.051 0.444 0.11 0.234 0.287 0.43 0.482 0.597 0.178 0.148 0.374 0.283 0.599 0.35-0.783 0.063-1.577-0.087-2.297-0.396-0.387-0.173-0.776-0.374-1.075-0.682-0.467 0.136-0.948 0.225-1.434 0.257-0.415 0.022-0.85 0.023-1.236-0.148 0.584-0.229 1.095-0.614 1.528-1.063 0.485-0.503 0.884-1.084 1.22-1.695 0.188-0.347 0.36-0.704 0.492-1.076 0.040-0.112 0.065-0.241 0.014-0.354-0.047-0.108-0.157-0.174-0.268-0.201-0.205-0.049-0.421-0.002-0.607 0.090-0.105-0.455-0.238-0.907-0.452-1.323-0.159-0.31-0.363-0.602-0.633-0.824-0.28-0.235-0.64-0.373-1.006-0.381-0.439-0.006-0.884 0.036-1.302 0.175-0.273 0.089-0.529 0.224-0.768 0.381-0.305 0.196-0.602 0.416-0.949 0.532-0.455 0.161-0.948 0.137-1.421 0.094-0.754-0.078-1.517-0.305-2.117-0.784v-0c0.411-0.001 0.826-0.042 1.219-0.171 0.347-0.112 0.667-0.303 0.932-0.552 0.316-0.295 0.558-0.657 0.792-1.018 0.352-0.552 0.704-1.108 1.156-1.584 0.51-0.548 1.131-0.986 1.802-1.316-0.127-0.32-0.189-0.66-0.235-1-0.070-0.538-0.091-1.081-0.085-1.623 0.008-0.428 0.030-0.857 0.106-1.278-0.076-0.007-0.149 0.022-0.208 0.068-0.18 0.133-0.316 0.315-0.438 0.5-0.093-0.005-0.186 0.011-0.27 0.050-0.282 0.125-0.498 0.368-0.633 0.642 0.081-0.499 0.21-0.993 0.414-1.456 0.27-0.623 0.688-1.182 1.214-1.613 0.507-0.425 1.101-0.722 1.673-1.046 0.299-0.175 0.602-0.361 0.821-0.636 0.111-0.136 0.186-0.297 0.233-0.466-0.017 0.614-0.106 1.241-0.386 1.795-0.125 0.259-0.28 0.507-0.363 0.784-0.098 0.319-0.103 0.658-0.066 0.987 0.067 0.566 0.277 1.107 0.558 1.6 0.202 0.352 0.443 0.683 0.717 0.982 0.229 0.247 0.479 0.478 0.766 0.657 0.315-0.041 0.63-0.074 0.946-0.11-0.117-0.384-0.211-0.775-0.301-1.167-0.086-0.384-0.169-0.77-0.234-1.158-0.073-0.37 0.016-0.758 0.198-1.084 0.206-0.368 0.522-0.658 0.848-0.918 0.515-0.411 1.084-0.762 1.537-1.246 0.273-0.29 0.493-0.639 0.586-1.030 0.086-0.351 0.081-0.725-0.025-1.071-0.119-0.421-0.351-0.796-0.543-1.185zM10.087 17.267c0.080 0.166 0.184 0.32 0.248 0.493 0.055 0.144 0.059 0.304 0.015 0.452 0.36 0.208 0.604 0.558 0.81 0.91 0.106 0.17 0.189 0.362 0.346 0.494 0.21 0.183 0.466 0.305 0.728 0.398 0.155 0.051 0.314 0.099 0.478 0.101 0.139-0.002 0.245-0.11 0.312-0.222 0.106-0.163 0.149-0.367 0.3-0.499 0.072-0.068 0.168-0.097 0.254-0.142 0.043-0.020 0.043-0.073 0.057-0.112 0.040-0.164 0.106-0.32 0.155-0.482-0.417-0.284-0.841-0.562-1.296-0.781-0.746-0.369-1.569-0.618-2.407-0.608zM19.061 18.11c0.865-0.495 1.84-0.854 2.848-0.843-0.093 0.195-0.225 0.375-0.276 0.588-0.030 0.117-0.019 0.241 0.013 0.357-0.292 0.167-0.51 0.433-0.69 0.712-0.111 0.171-0.205 0.352-0.316 0.522-0.15 0.215-0.385 0.352-0.617 0.462-0.225 0.1-0.462 0.186-0.709 0.205-0.143 0.012-0.261-0.091-0.331-0.205-0.115-0.168-0.157-0.386-0.317-0.522-0.073-0.068-0.172-0.094-0.256-0.142-0.032-0.017-0.033-0.057-0.043-0.087-0.041-0.171-0.109-0.333-0.16-0.501 0.282-0.187 0.559-0.381 0.855-0.546zM19.22 4.963c-0.577 0.325-1.115 0.722-1.581 1.193-0.311 0.319-0.589 0.677-0.768 1.087-0.151 0.348-0.223 0.74-0.149 1.115 0.067 0.343 0.247 0.651 0.453 0.929 0.387 0.517 0.856 0.974 1.174 1.541 0.228 0.398 0.364 0.85 0.372 1.309 0.012 0.28-0.084 0.549-0.197 0.801-0.091 0.2-0.197 0.393-0.306 0.584-0.614-0.038-1.228-0.059-1.843-0.060-0.102-0.004-0.131 0.118-0.155 0.196-0.079 0.348-0.074 0.708-0.078 1.063 0.006 1.098 0.1 2.193 0.165 3.289 0.017 0.22-0.007 0.441-0.015 0.661-0.056 1.237-0.107 2.474-0.144 3.712-0.004 0.402-0.003 0.81 0.088 1.204 0.080 0.348 0.264 0.66 0.455 0.957 0.096 0.011 0.192 0.008 0.287-0.011-0.103-0.155-0.184-0.349-0.128-0.537 0.029-0.111 0.127-0.204 0.247-0.195-0.032 0.145 0.029 0.287 0.095 0.414 0.068 0.127 0.148 0.25 0.257 0.346 0.071-0.162 0.101-0.338 0.157-0.505 0.083-0.268 0.188-0.532 0.342-0.767 0.17-0.263 0.425-0.485 0.735-0.557 0.095 0.213 0.189 0.427 0.308 0.628-0.099 0.218-0.16 0.46-0.129 0.701 0.030 0.261 0.146 0.502 0.288 0.719 0.047-0.155 0.105-0.323 0.243-0.42 0.111-0.078 0.26-0.061 0.376-0.005 0.206 0.098 0.368 0.265 0.513 0.437 0.201 0.246 0.379 0.517 0.485 0.818 0.069 0.179 0.010 0.375-0.077 0.536-0.132 0.239-0.327 0.438-0.542 0.605-0.152 0.116-0.318 0.218-0.501 0.274 0.845 0.068 1.701-0.113 2.465-0.473 0.325-0.159 0.65-0.34 0.903-0.604 0.505 0.148 1.027 0.239 1.553 0.263 0.376 0.012 0.768 0.002 1.117-0.155-0.69-0.27-1.274-0.756-1.756-1.311-0.553-0.642-0.996-1.375-1.337-2.15-0.069-0.17-0.15-0.338-0.185-0.519-0.029-0.147 0.044-0.306 0.182-0.369 0.228-0.108 0.499-0.059 0.717 0.050 0.101-0.436 0.227-0.87 0.426-1.272 0.15-0.302 0.34-0.59 0.592-0.817 0.217-0.199 0.485-0.344 0.774-0.404 0.217-0.049 0.441-0.039 0.661-0.029 0.445 0.024 0.892 0.114 1.294 0.312 0.364 0.173 0.677 0.432 1.031 0.623 0.348 0.19 0.746 0.276 1.141 0.271 0.79-0.003 1.599-0.142 2.297-0.527 0.153-0.084 0.296-0.182 0.434-0.288-0.44-0.001-0.886-0.048-1.302-0.198-0.295-0.106-0.568-0.27-0.802-0.479-0.311-0.276-0.551-0.618-0.777-0.964-0.35-0.541-0.688-1.095-1.121-1.575-0.529-0.598-1.187-1.075-1.902-1.426 0.148-0.373 0.209-0.772 0.256-1.168 0.056-0.511 0.072-1.026 0.063-1.539-0.010-0.399-0.033-0.8-0.105-1.194 0.135-0.012 0.24 0.087 0.332 0.172 0.121 0.118 0.223 0.254 0.314 0.396 0.157-0.013 0.305 0.054 0.432 0.139 0.204 0.136 0.362 0.333 0.47 0.551-0.134-0.845-0.422-1.684-0.949-2.367-0.422-0.557-0.992-0.98-1.594-1.322-0.28-0.162-0.568-0.311-0.846-0.476-0.279-0.167-0.559-0.351-0.756-0.615-0.098-0.129-0.165-0.278-0.208-0.434 0.015 0.469 0.065 0.944 0.218 1.39 0.099 0.303 0.261 0.579 0.401 0.864 0.151 0.3 0.223 0.635 0.217 0.97-0.006 0.733-0.274 1.44-0.649 2.061-0.321 0.522-0.719 1.005-1.207 1.378-0.068 0.051-0.138 0.099-0.211 0.143-0.313-0.043-0.628-0.075-0.942-0.11 0.223-0.754 0.39-1.525 0.531-2.299 0.069-0.321 0.014-0.66-0.117-0.958-0.146-0.331-0.39-0.606-0.657-0.846-0.505-0.45-1.091-0.799-1.59-1.257-0.252-0.231-0.48-0.494-0.636-0.8-0.175-0.339-0.25-0.727-0.219-1.107 0.037-0.401 0.199-0.776 0.382-1.129 0.080-0.154 0.167-0.305 0.239-0.464h-0.004z"></path>
</svg>
