<!-- Generated by IcoMoon.io -->
<svg version="1.1" xmlns="http://www.w3.org/2000/svg" width="28" height="32" viewBox="0 0 28 32">
<title>ability-firststrike</title>
<path fill="#444" d="M5.775 1.229c4.255-1.7 9.222-1.628 13.344 0.43 4.034 1.915 7.174 5.596 8.416 9.884 1.391 5.099 0.337 10.943-3.289 14.9-4.409 5.226-12.306 6.981-18.548 4.249 3.51 0.138 7.18-0.193 10.171-2.23 5.292-3.273 8.057-10 6.512-16.048 0.397-0.469 0.8-0.938 1.203-1.402-0.011-1.6-0.055-3.195-0.215-4.785-1.6-0.298-3.228-0.342-4.851-0.37-0.248 0.199-0.739 0.585-0.982 0.784-2.665-1.291-5.756-1.926-8.653-1.060-4.029 1.087-7.494 4.542-8.052 8.758-0.243 1.462-0.143 2.953-0.226 4.426-0.789-2.77-0.922-5.778 0.315-8.449 1.678-4.249 6.049-7.246 10.593-7.332 2.718-0.052 4.023 0.553 4.41 0.608 0.019 0.003 0.038 0.005 0.058 0.008-2.958-2.13-6.694-2.34-10.204-2.373zM11.531 16.372c-1.164-1.004-2.45-2.263-4.117-1.595 0.745 0.949 1.518 1.876 2.296 2.798-0.579 0.668-1.159 1.335-1.738 2.003-0.662 0.16-1.319 0.315-1.981 0.469 0.039 1.159 0.061 2.323 0.066 3.482 1.148-0.017 2.296 0.061 3.444-0.028 0.193-0.624 0.359-1.258 0.497-1.893 0.662-0.579 1.324-1.153 1.998-1.722 0.944 0.728 1.882 1.457 2.825 2.191 0.083-0.442 0.243-1.335 0.326-1.777-0.635-0.734-1.275-1.462-1.915-2.18 3.493-1.871 5.828-5.232 8.791-7.781 0.044-0.955 0.072-1.915 0.105-2.864-0.955 0.033-1.909 0.066-2.859 0.099-2.511 2.986-5.916 5.287-7.737 8.797z"></path>
</svg>
