<!-- Generated by IcoMoon.io -->
<svg version="1.1" xmlns="http://www.w3.org/2000/svg" width="27" height="32" viewBox="0 0 27 32">
<title>ability-alliance</title>
<path fill="#444" d="M20.879 19.097l2.982 2.981-3.424-0.023 0.13-0.896 1.594 0.184-1.421-1.379 0.138-0.869zM5.754 19.097l-2.982 2.981 3.424-0.023-0.13-0.896-1.594 0.184 1.421-1.379-0.138-0.869zM13.317 0v0 0c-0.974 2.092-1.966 4.18-2.87 6.302 0.119 0.155 0.242 0.307 0.347 0.473 0.243 0.379 0.487 0.76 0.667 1.175 0.27 0.528 0.441 1.099 0.608 1.666 0.102 0.35 0.143 0.713 0.225 1.067 0.046 0.277 0.096 0.838 0.096 0.838s0.013 1.787 0.013 1.787-0.884 0.048-1.328 0.125c-1.183 0.206-2.242 0.493-3.401 1.002-0.419 0.184-0.911 0.404-1.314 0.621-1.416 0.761-1.671 1.054-1.922 1.255-0.126 0.11-0.222 0.249-0.317 0.385-0.198 0.283-0.249 0.538-0.201 0.821 0.058 0.265 0.325 0.485 0.574 0.554 0.338 0.098 0.668 0.080 1.016 0.115-0.030-0.078-0.32-0.502-0.234-0.746 0.1-0.285 0.396-0.434 0.637-0.59 0.458-0.279 0.927-0.536 1.42-0.747 1.089-0.503 2.242-0.863 3.42-1.089 0.406-0.060 0.631-0.112 1.225-0.161 0.112-0.008 0.224-0.018 0.337-0.023 0.482-0.020 0.598-0.020 1.003-0.024v0c0.447 0.004 0.894 0.009 1.34 0.046 0.595 0.050 0.819 0.101 1.225 0.161 1.177 0.227 2.33 0.586 3.42 1.089 0.494 0.211 0.962 0.468 1.42 0.747 0.241 0.156 0.537 0.305 0.637 0.59 0.086 0.244-0.204 0.668-0.234 0.746 0.348-0.035 0.678-0.018 1.016-0.115 0.248-0.069 0.516-0.289 0.574-0.554 0.048-0.284-0.003-0.538-0.201-0.821-0.095-0.136-0.191-0.275-0.317-0.385-0.251-0.2-0.506-0.494-1.922-1.255-0.402-0.216-0.894-0.437-1.314-0.621-1.16-0.51-2.219-0.797-3.402-1.002-0.444-0.077-1.328-0.125-1.328-0.125s0.013-1.787 0.013-1.787c0 0 0.050-0.561 0.096-0.838 0.082-0.354 0.123-0.717 0.225-1.067 0.167-0.567 0.338-1.137 0.608-1.666 0.18-0.415 0.424-0.796 0.667-1.175 0.104-0.166 0.228-0.318 0.347-0.473 0.042-0.048-2.87-6.302-2.87-6.302zM13.264 15.256c-0.24 0.053-0.142 0.015-0.302 0.090-0.323 0.186-0.496 0.617-0.339 0.966 0.098 0.284 0.398 0.479 0.698 0.447 0.357 0.021 0.66-0.286 0.71-0.626 0.038-0.27-0.062-0.554-0.272-0.729-0.179-0.136-0.275-0.133-0.495-0.148zM23.615 12.018l-4.49 0.627v1.247c0 0 0.933 0.413 1.163 0.535s1.211 0.684 1.211 0.684l2.116-3.093zM3.018 12.018l2.116 3.093c0 0 0.981-0.562 1.211-0.684s1.163-0.535 1.163-0.535v-1.247l-4.49-0.627zM18.624 7.175l-3.154 3.091c-0.313 0.338-0.568 0.763-0.591 1.233-0.051 0.336-0.031 0.68-0.041 1.286 0.106-0.003 0.214-0.019 1.23 0.172 0.524 0.088 1.041 0.222 1.552 0.368 0.211 0.065 0.291 0.079 0.946 0.34 0.007-0.021 0.017-0.064 0.058-6.489zM8.009 7.175c0.041 6.425 0.050 6.468 0.057 6.489 0.655-0.26 0.735-0.274 0.946-0.34 0.511-0.145 1.028-0.28 1.552-0.368 1.017-0.19 1.125-0.174 1.23-0.172-0.009-0.606 0.010-0.95-0.041-1.286-0.024-0.47-0.278-0.896-0.591-1.233l-3.154-3.091zM16.406 17.872v0c0.168 0.006 0.097-0.007 0.215 0.023 0.324 0.091 0.641 0.207 0.966 0.298 0.228 0.068 0.469 0.064 0.703 0.047 0.181-0.015 0.293-0.195 0.477-0.209-0.012 0.087-0.018 0.179-0.067 0.256-0.087 0.159-0.15 0.33-0.215 0.5-0.115 0.269-0.319 0.489-0.529 0.688-0.179 0.176-0.407 0.287-0.622 0.412-0.298 0.175-0.632 0.29-0.974 0.333-0.275 0.030-0.541-0.068-0.784-0.185-0.205-0.101-0.346-0.284-0.489-0.455-0.018-0.058-0.037-0.115-0.055-0.172-0.027-0.121-0.061-0.246-0.027-0.369 0.128-0.512 0.548-0.928 1.045-1.090 0.211-0.054 0.093-0.027 0.355-0.076zM10.227 17.872c0.262 0.049 0.144 0.023 0.355 0.076 0.498 0.162 0.917 0.579 1.045 1.090 0.034 0.123-0 0.248-0.027 0.369-0.018 0.057-0.037 0.114-0.055 0.172-0.143 0.171-0.285 0.354-0.489 0.455-0.243 0.117-0.509 0.215-0.784 0.185-0.342-0.043-0.676-0.158-0.974-0.333-0.215-0.124-0.443-0.236-0.622-0.412-0.21-0.2-0.414-0.419-0.529-0.688-0.065-0.169-0.128-0.34-0.215-0.5-0.048-0.077-0.055-0.169-0.067-0.256 0.184 0.014 0.297 0.194 0.477 0.209 0.234 0.017 0.476 0.021 0.703-0.047 0.325-0.090 0.642-0.207 0.966-0.298 0.118-0.030 0.047-0.017 0.215-0.023v0zM13.453 24.002l-0.136 0.157c-1.498-1.722-1.481-1.773-1.486-1.801v0c0.944 0.616 1.204 0.781 1.486 0.941v0 0c0.282-0.16 0.542-0.324 1.486-0.941v0c-0.056 0.154-0.206 0.296-0.307 0.419-0.34 0.415-0.692 0.819-1.043 1.225zM13.059 25.233l0.258-0.009c0.687 0.016 1.376 0.086 2.035 0.288l0.003 0.001c0.096 0.017 0.041 0.003 0.164 0.051 0.116 0.036 0.038 0.010 0.232 0.084l0.057-0c0.011-0.1 0.025-0.201 0.053-0.298 0.189-0.615 0.515-1.19 0.958-1.657 0.34-0.331 0.767-0.588 1.242-0.659 0.348-0.081 0.735-0.112 1.070 0.038 0.028-0.039 0.060-0.071 0.098-0.123 0.253-0.351 0.411-0.757 0.559-1.159 0.069-0.238 0.129-0.48 0.143-0.728 0.059-0.228 0.010-0.465 0.039-1.104-0.005-0.192 0.098-0.859 0.571-2.029 0.070-0.173 0.107-0.287-0.189-0.466-1.297-0.785-4.734-1.727-4.734-1.727v0c-0.701 0.682-2.302 2.253-2.302 2.249v0 0c-0.754-0.718-1.481-1.463-2.234-2.182l-0.068-0.066c-1.617 0.446-3.247 0.943-4.734 1.727-0.297 0.18-0.26 0.293-0.189 0.466 0.474 1.17 0.577 1.837 0.571 2.029 0.029 0.64-0.020 0.877 0.039 1.104 0.014 0.248 0.075 0.49 0.143 0.728 0.148 0.403 0.307 0.809 0.559 1.159 0.038 0.053 0.070 0.085 0.098 0.123 0.334-0.15 0.721-0.119 1.070-0.038 0.474 0.072 0.902 0.328 1.242 0.659 0.444 0.467 0.77 1.042 0.958 1.657 0.029 0.097 0.042 0.198 0.053 0.298l0.057 0c0.195-0.073 0.116-0.048 0.232-0.084 0.123-0.048 0.068-0.034 0.164-0.051l0.003-0.001c0.58-0.163 1.174-0.262 1.777-0.279zM3.278 23.041l-2.052 0.014c2.267 4.706 6.843 7.736 12.108 7.747 5.231-0.066 9.882-2.99 12.107-7.746l-2.052-0.014c-1.974 3.634-5.938 5.922-10.055 5.924-4.148-0.052-8.060-2.237-10.056-5.924zM25.209 11.399l-1.21 1.77c0.572 1.353 0.819 2.836 0.833 4.299-0.016 1.232-0.186 2.459-0.586 3.628l1.427 1.426c0.674-1.593 0.985-3.329 0.995-5.054-0.027-2.109-0.486-4.188-1.458-6.069zM1.444 11.428c-0.243 0.504-0.311 0.623-0.519 1.151-0.613 1.554-0.924 3.219-0.925 4.889 0.022 1.719 0.312 3.441 0.985 5.031l1.429-1.428c-0.368-1.185-0.588-2.356-0.578-3.603 0.018-1.456 0.259-2.918 0.82-4.269l-1.211-1.771zM7.034 5.718c-2.184 1.186-4.071 2.966-5.286 5.147l1.986 0.277c0.881-1.304 1.986-2.446 3.313-3.3l-0.004-0.661-0.009-1.463zM19.599 5.7l-0.009 1.481-0.004 0.639c1.313 0.887 2.483 1.978 3.344 3.318l1.986-0.277c-1.194-2.198-3.137-3.974-5.317-5.161zM10.171 4.505c-0.88 0.226-1.749 0.504-2.564 0.913l1.539 1.424c0 0-0.062-0.071 1.025-2.336zM16.457 4.505c0.060 0.132 1.084 2.304 1.084 2.304l1.495-1.393c-0.823-0.397-1.69-0.701-2.579-0.912z"></path>
</svg>
