<!-- Generated by IcoMoon.io -->
<svg version="1.1" xmlns="http://www.w3.org/2000/svg" width="32" height="32" viewBox="0 0 32 32">
<title>ability-prototype</title>
<path fill="#444" d="M18.105 2.162v0c0.267 1.366 0.544 2.727 0.787 4.097 0.666 0.253 1.327 0.52 1.983 0.792 1.132-0.797 2.27-1.584 3.422-2.348 0.987 1.006 1.973 2.012 2.965 3.013-0.768 1.128-1.526 2.255-2.318 3.368 0.282 0.676 0.549 1.356 0.802 2.041 1.375 0.253 2.746 0.525 4.122 0.763-0.015 1.405-0.015 2.809-0.015 4.214-1.371 0.209-2.727 0.491-4.088 0.758-0.253 0.68-0.52 1.356-0.782 2.032 0.792 1.118 1.55 2.26 2.309 3.402-1.006 0.996-1.983 2.022-3.013 2.999-1.137-0.778-2.275-1.55-3.407-2.333-0.642 0.262-1.283 0.52-1.93 0.773-0.262 1.371-0.544 2.736-0.821 4.102-3.245-0-3.742-0-4.238 0-0.277-1.366-0.559-2.732-0.821-4.102-0.646-0.253-1.288-0.51-1.93-0.773-1.132 0.782-2.27 1.555-3.407 2.333-1.030-0.977-2.007-2.002-3.013-2.999 0.758-1.142 1.516-2.284 2.309-3.402-0.262-0.676-0.53-1.351-0.782-2.032-1.361-0.267-2.717-0.549-4.088-0.758 0-1.405 0-2.809-0.015-4.214 1.375-0.238 2.746-0.51 4.122-0.763 0.253-0.685 0.52-1.366 0.802-2.041-0.792-1.113-1.55-2.241-2.318-3.368 0.992-1.001 1.978-2.007 2.965-3.013 1.152 0.763 2.289 1.55 3.422 2.348 0.656-0.272 1.317-0.54 1.983-0.792 0.243-1.371 0.52-2.732 0.787-4.097l-0-0 4.209-0zM16 9.773c-3.439 0-6.227 2.788-6.227 6.227s2.788 6.227 6.227 6.227c3.439 0 6.227-2.788 6.227-6.227s-2.788-6.227-6.227-6.227zM16.008 14.314c0.931 0 1.686 0.755 1.686 1.686s-0.755 1.686-1.686 1.686c-0.931 0-1.686-0.755-1.686-1.686s0.755-1.686 1.686-1.686zM16.008 11.513v0c-2.448 0-4.432 1.984-4.432 4.432s1.984 4.432 4.432 4.432c2.448 0 4.432-1.984 4.432-4.432s-1.984-4.432-4.432-4.432z"></path>
</svg>
