<!-- Generated by IcoMoon.io -->
<svg version="1.1" xmlns="http://www.w3.org/2000/svg" width="28" height="32" viewBox="0 0 28 32">
<title>ability-doublestrike</title>
<path fill="#444" d="M5.761 1.259c6.96-3.011 15.829-0.336 19.844 6.133 3.431 5.146 3.337 12.377-0.149 17.473-4.109 6.321-12.895 8.88-19.767 5.819 3.458 0.116 7.076-0.165 10.038-2.145 3.795-2.322 6.312-6.421 6.927-10.843 0.077-0.556 0.185-1.198 0.271-1.289 1.208-1.272 2.057-2.103 2.768-3.162 0.182-1.594 0.114-3.143-0.007-4.731-1.881-0.452-3.947-0.514-5.828-0.062-1.826-2.068-4.578-2.967-7.247-3.226-4.793-0.392-9.646 2.658-11.312 7.181-0.745 2.035-0.596 4.225-0.689 6.354-0.778-2.752-0.938-5.714 0.276-8.367 1.737-4.451 6.41-7.551 11.174-7.391 1.263 0.043 2.453 0.2 3.809 0.578 0.029 0.008 0.060 0.008 0.090 0.012-2.956-2.107-6.69-2.35-10.198-2.333zM13.73 18.574c-1.164-1.004-2.45-2.263-4.117-1.595 0.745 0.949 1.518 1.876 2.296 2.798-0.579 0.668-1.159 1.335-1.738 2.003-0.662 0.16-1.319 0.315-1.981 0.469 0.039 1.159 0.061 2.323 0.066 3.482 1.148-0.017 2.296 0.061 3.444-0.028 0.193-0.624 0.359-1.258 0.497-1.893 0.662-0.579 1.324-1.153 1.998-1.722 0.944 0.728 1.882 1.457 2.826 2.191 0.083-0.442 0.243-1.335 0.326-1.777-0.635-0.734-1.275-1.462-1.915-2.18 3.493-1.871 5.828-5.232 8.791-7.781 0.044-0.955 0.072-1.915 0.105-2.864-0.955 0.033-1.909 0.066-2.859 0.099-2.511 2.986-5.916 5.287-7.737 8.797zM6.553 16.95c-1.164-1.004-2.45-2.263-4.117-1.595 0.745 0.949 1.518 1.876 2.296 2.798-0.579 0.668-1.159 1.335-1.738 2.003-0.662 0.16-1.319 0.315-1.981 0.469 0.039 1.159 0.061 2.323 0.066 3.482 1.148-0.017 2.296 0.061 3.444-0.028 0.193-0.624 0.359-1.258 0.497-1.893 0.662-0.579 1.324-1.153 1.998-1.722 0.944 0.728 1.882 1.457 2.826 2.191 0.083-0.442 0.243-1.335 0.326-1.777-0.635-0.734-1.275-1.462-1.915-2.18 3.493-1.871 5.828-5.232 8.791-7.781 0.044-0.955 0.072-1.915 0.105-2.864-0.955 0.033-1.909 0.066-2.859 0.099-2.511 2.986-5.916 5.287-7.737 8.797z"></path>
</svg>
