<!-- Generated by IcoMoon.io -->
<svg version="1.1" xmlns="http://www.w3.org/2000/svg" width="31" height="32" viewBox="0 0 31 32">
<title>acorn</title>
<path fill="#444" d="M28.544 0.039c0.053 0.063 0.035 0.031 0.061 0.091 0.485 1.333 0.798 2.776 2.166 3.918 0.25 0.284-0.271 0.71-0.454 0.875-0.261 0.234-0.613 0.502-0.879 0.701-0.674 0.503-1.37 0.978-2.018 1.515 0.333 1.561-0.005 3.176 0.39 4.731 1.959 3.028 4.724 8.441 1.777 11.704-0.994 0.964-2.366 1.305-3.72 1.245 0.453-0.667 0.726-1.433 0.793-2.234-0-1.203-0.584-2.858-1.227-3.847-1.489-2.293-3.254-4.496-5.139-6.47-1.815-1.789-3.745-3.381-5.799-4.894-1.39-1.024-4.174-2.49-5.971-2.109-0.635 0.176-1.192 0.518-1.751 0.853-0.12-1.582 0.143-2.931 1.226-4.131 3.441-3.053 9.013 0.017 12.142 2.065 0.761 0.317 1.63 0.164 2.427 0.141 0.782-0 1.619-0.037 2.361 0.256 1.136-1.18 1.913-2.643 2.943-3.906 0.139-0.171 0.345-0.465 0.583-0.522 0.029-0.007 0.059 0.012 0.088 0.019zM11.029 9.883c0.405 0.476 1.15 1.475 0.402 1.988-6.909 3.556-8.852 12.974-8.852 12.974s-3.432-8.298 5.108-15.275c1.163-0.95 2.309-0.675 3.342 0.313zM19.043 13.505c-1.711-1.686-3.449-3.336-5.394-4.753-1.316-0.959-3.604-2.589-5.335-2.192-3.826 1.254-7.149 6.54-8.143 11.319-0.52 2.498 0.262 5.715 0.742 8.312 0.491 2.66 0.376 4.516 0.376 4.516s1.343-0.3 3.888 0.125c2.597 0.435 6.421 1.59 8.749 0.972 4.61-1.223 11.069-5.3 11.352-9.031 0.021-1.155-0.73-2.364-1.329-3.303-1.39-2.175-3.132-4.103-4.908-5.965z"></path>
</svg>
