<!-- Generated by IcoMoon.io -->
<svg version="1.1" xmlns="http://www.w3.org/2000/svg" width="32" height="32" viewBox="0 0 32 32">
<title>artifact</title>
<path fill="#444" d="M7.992 1.938h16.015c0.41 0.128 0.83 0.344 0.968 0.784 0.134 0.709-0.138 1.412-0.067 2.123 0.065 0.616-0.192 1.222-0.067 1.834 0.242 0.355 0.684 0.517 0.895 0.896 0.081 0.129 0.142 0.271 0.202 0.412v0.842c-0.141 0.346-0.342 0.674-0.634 0.913-0.261 0.233-0.621 0.407-0.728 0.766-0.581 2.304-1.286 4.598-2.381 6.715-0.255 0.534-0.77 0.864-1.211 1.23-0.641 0.526-1.397 0.881-2.142 1.231-0.457 0.212-0.993 0.349-1.319 0.758-0.058 0.308 0 0.621 0.045 0.926 0.086 1.014 0.179 2.028 0.252 3.044 0.102 0.546-0.009 1.125 0.219 1.647 0.352 0.851 1.152 1.388 1.933 1.809 0.726 0.327 1.499 0.625 2.309 0.599 0.611-0.026 1.244 0.074 1.787 0.368 0.322 0.16 0.375 0.636 0.113 0.877-0.269 0.209-0.617 0.263-0.938 0.35h-14.489c-0.32-0.086-0.667-0.142-0.935-0.35-0.241-0.225-0.22-0.653 0.055-0.841 0.636-0.386 1.403-0.427 2.128-0.407 1.109-0.103 2.175-0.573 3.052-1.254 0.427-0.332 0.783-0.774 0.957-1.29 0.169-0.488 0.071-1.010 0.171-1.508 0.095-1.181 0.173-2.363 0.315-3.54 0.008-0.207 0.043-0.458-0.16-0.587-0.517-0.406-1.18-0.55-1.747-0.873-0.847-0.384-1.604-0.934-2.292-1.554-0.404-0.38-0.622-0.901-0.864-1.387-0.879-1.91-1.519-3.922-2.014-5.962-0.115-0.407-0.548-0.577-0.823-0.856-0.263-0.214-0.43-0.513-0.534-0.832v-0.836c0.102-0.515 0.548-0.787 0.915-1.103 0.319-0.229 0.206-0.662 0.188-0.996-0.14-0.618-0.028-1.252-0.096-1.875-0.070-0.426-0.122-0.865-0.047-1.294 0.167-0.407 0.565-0.654 0.968-0.782z"></path>
</svg>
