<!-- Generated by IcoMoon.io -->
<svg version="1.1" xmlns="http://www.w3.org/2000/svg" width="32" height="32" viewBox="0 0 32 32">
<title>b</title>
<path fill="#444" d="M31.406 15.477c0 2.089-0.76 3.513-2.279 4.273-0.444 0.222-1.836 0.522-4.178 0.902-1.519 0.254-2.278 0.839-2.278 1.756v3.845c0 0.16 0.047 0.649 0.142 1.472l0.143 1.52c0 0.475-0.111 1.251-0.333 2.327-0.601 0.126-1.298 0.268-2.089 0.428-0.254-0.951-0.38-1.599-0.38-1.948 0-0.157 0.040-0.396 0.119-0.712 0.078-0.316 0.12-0.553 0.12-0.713 0-0.22-0.197-0.838-0.59-1.85h-0.736c-0.098 0.158-0.13 0.364-0.098 0.617 0.126 0.538 0.174 0.997 0.143 1.377-0.538 0.38-1.282 0.886-2.232 1.519-0.222-0.063-0.3-0.095-0.238-0.095v-3.371c-0.062-0.157-0.221-0.22-0.475-0.19h-0.569l-0.569 4.462c-0.444 0.032-0.981 0.032-1.614 0-0.223-1.044-0.617-2.594-1.187-4.652h-0.38c-0.349 1.109-0.538 1.711-0.57 1.805 0 0.126 0.039 0.371 0.119 0.735 0.078 0.364 0.118 0.609 0.118 0.736 0 0.095-0.032 0.332-0.095 0.712l-0.143 1.139c-0.064 0.063-0.143 0.095-0.237 0.095-0.949 0-1.583-0.237-1.899-0.711-0.316-0.475-0.444-1.14-0.38-1.995l0.38-5.696c0-0.095 0.031-0.222 0.095-0.38 0.062-0.158 0.095-0.269 0.095-0.332 0-0.254-0.269-0.76-0.807-1.52-0.094-0.031-0.586-0.143-1.471-0.333-0.539-0.126-1.599-0.348-3.181-0.665-2.185-0.41-3.276-2.167-3.276-5.269 0-4.621 1.9-8.466 5.698-11.536 0.157 0.855 0.427 1.993 0.806 3.418 0.285 0.064 0.903 0.206 1.852 0.427 0.191 0.064 1.156 0.412 2.897 1.045-0.887-0.538-2.042-1.408-3.466-2.611-0.538-0.633-0.807-1.692-0.807-3.18 0-0.348 0.602-0.76 1.805-1.236 1.075-0.443 1.883-0.695 2.421-0.759 1.709-0.22 3.022-0.333 3.941-0.333 3.955 0 7.151 1.014 9.588 3.039-0.79 0.918-2.152 1.898-4.082 2.942 0.76 0.032 1.868-0.268 3.323-0.902 1.455-0.632 2.073-0.949 1.852-0.949 0.253 0 0.76 0.507 1.52 1.519 0.569 0.759 1.028 1.441 1.377 2.041 1.012 1.805 1.692 3.751 2.042 5.839 0 0.729 0.015 1.251 0.047 1.567v0.38h0.001zM13.224 16.332c0-1.361-0.594-2.651-1.78-3.87s-2.461-1.827-3.822-1.827c-1.203 0-2.263 0.51-3.181 1.529s-1.377 2.151-1.377 3.393c0 1.082 0.522 1.784 1.567 2.102 0.665 0.192 1.597 0.303 2.801 0.334h2.611c2.119 0.032 3.181-0.522 3.181-1.661zM18.398 22.219v-1.472c-0.221-0.411-0.443-0.838-0.664-1.282-0.19-0.634-0.538-1.52-1.045-2.659l-0.523 5.555c0 0.444-0.095 0.665-0.285 0.665-0.126 0-0.221-0.031-0.285-0.094-0.222-3.355-0.333-4.811-0.333-4.369v-1.661c-0.064-0.096-0.142-0.143-0.237-0.143-1.077 1.109-1.614 2.897-1.614 5.365 0 1.361 0.125 2.2 0.379 2.517 0.254-0.063 0.538-0.174 0.855-0.332 0.126-0.064 0.49-0.095 1.093-0.095 0.6 0 1.329 0.19 2.183 0.569 0.316 0 0.475-0.854 0.475-2.562zM29.127 15.604c0-1.275-0.475-2.413-1.424-3.416s-2.042-1.505-3.275-1.505c-1.329 0-2.572 0.608-3.727 1.827s-1.733 2.492-1.733 3.822c0 1.108 0.538 1.661 1.614 1.661h5.459c2.057-0.031 3.086-0.828 3.086-2.389z"></path>
</svg>
