<!-- Generated by IcoMoon.io -->
<svg version="1.1" xmlns="http://www.w3.org/2000/svg" width="32" height="32" viewBox="0 0 32 32">
<title>c</title>
<path fill="#444" d="M13.407 5.933c1.013-1.434 1.676-3.071 2.587-4.569 0.88 1.447 1.519 3.030 2.483 4.426 2.052 3.033 4.694 5.67 7.727 7.722 1.401 0.967 2.987 1.608 4.434 2.495-1.456 0.868-3.038 1.512-4.436 2.478-3.081 2.085-5.76 4.771-7.821 7.869-0.919 1.357-1.536 2.886-2.389 4.279-0.882-1.444-1.521-3.028-2.486-4.424-2.054-3.030-4.687-5.678-7.725-7.724-1.396-0.962-2.977-1.603-4.419-2.493 1.5-0.899 3.129-1.569 4.564-2.575 2.924-2.006 5.47-4.566 7.481-7.486zM7.373 15.999c3.358 2.334 6.29 5.258 8.617 8.621 2.339-3.356 5.256-6.3 8.631-8.617-3.366-2.334-6.295-5.263-8.631-8.624-2.334 3.356-5.256 6.288-8.617 8.619z"></path>
</svg>
