<!-- Generated by IcoMoon.io -->
<svg version="1.1" xmlns="http://www.w3.org/2000/svg" width="32" height="32" viewBox="0 0 32 32">
<title>clan-kolaghan</title>
<path fill="#444" d="M11.102 8.283c0.257-0.116 0.496-0.372 0.801-0.288 0.204 0.087 0.411 0.172 0.604 0.282 0.211 0.232 0.378 0.506 0.491 0.799 0.173 0.456 0.425 0.883 0.527 1.364 0.143 0.368 0.123 0.771 0.249 1.143 0.193-0.62 0.105-1.268-0.038-1.885 0.22 0.585 0.282 1.211 0.459 1.807 0.164 0.329 0.222 0.696 0.386 1.024 0.136 0.29 0.119 0.622 0.23 0.921 0.239 0.676 0.251 1.403 0.45 2.089 0.077 0.856 0.378 1.672 0.456 2.528 0.018 0.274 0.171 0.507 0.249 0.764 0.017 0.251-0.071 0.494-0.061 0.745 0.011 0.337 0.091 0.672 0.054 1.011-0.059 0.416 0.099 0.824 0.282 1.19 0.12-0.458 0.038-0.934 0.074-1.399 0.054-0.317 0.175-0.618 0.224-0.935 0.079-0.521 0.021-1.059 0.173-1.568 0.065-0.629 0.193-1.254 0.171-1.889 0.244-0.436 0.208-0.974 0.118-1.45-0.007-0.606 0.251-1.187 0.24-1.793 0.299-0.57 0.464-1.202 0.553-1.837 0.034-0.524 0.14-1.038 0.208-1.557 0.020 0.065 0.058 0.194 0.078 0.258 0.091-0.188 0.176-0.378 0.247-0.574-0.070 0.005-0.208 0.013-0.278 0.018 0.057-0.119 0.091-0.253 0.176-0.356 0.111-0.104 0.263-0.14 0.4-0.196 0.204-0.223 0.448-0.432 0.749-0.5 0.303-0.040 0.61-0.005 0.913 0.018-0.095 0.066-0.189 0.133-0.282 0.203 0.25 0.046 0.501 0.009 0.752 0.007 0.136 0.011 0.12 0.178 0.165 0.272 0.048 0.22 0.262 0.335 0.425 0.464-0.136-0.035-0.272-0.067-0.409-0.096 0.274 0.524 0.828 0.795 1.262 1.166-0.021 0.024-0.064 0.072-0.087 0.096 0.151 0.354 0.27 0.721 0.495 1.037 0.193 0.148 0.383 0.3 0.578 0.446-0.079 0.083-0.158 0.167-0.234 0.253 0.416 0.024 0.819-0.118 1.222-0.201 0.407-0.163 0.845-0.206 1.269-0.306 0.467-0.058 0.855-0.345 1.244-0.585 0.011 0.116 0.021 0.232 0.033 0.35 0.111-0.151 0.214-0.314 0.37-0.423 0.142-0.094 0.311-0.136 0.456-0.225 0.137-0.102 0.234-0.253 0.387-0.335 0.181-0.095 0.37-0.177 0.541-0.293-0.056 0.14-0.104 0.284-0.142 0.429 0.165-0.063 0.251-0.214 0.307-0.372 0.059-0.007 0.177-0.021 0.237-0.028 0.025 0.041 0.075 0.123 0.1 0.164 0.103-0.119 0.186-0.252 0.237-0.401 0.034 0.015 0.070 0.031 0.106 0.046 0.116-0.165 0.271-0.3 0.482-0.313 0.030 0.032 0.088 0.096 0.118 0.128 0.12-0.055 0.239-0.109 0.36-0.163-0.005-0.042-0.017-0.125-0.023-0.167 0.64-0.174 1.14-0.626 1.735-0.895-0.273 0.296-0.56 0.583-0.923 0.768 0.030 0.013 0.090 0.040 0.12 0.053-0.017 0.034-0.051 0.103-0.068 0.137 0.105 0.014 0.21 0.028 0.317 0.042-0.261 0.221-0.614 0.307-0.843 0.567-0.155 0.165-0.38 0.258-0.479 0.473 0.389-0.001 0.714-0.234 1.076-0.339-0.308 0.266-0.712 0.388-1.010 0.667 0.255-0.056 0.488-0.175 0.723-0.286 0.069 0.044 0.136 0.089 0.203 0.136-0.203 0.143-0.425 0.265-0.596 0.448-0.173 0.132-0.356 0.25-0.517 0.397 0.079-0.031 0.237-0.093 0.316-0.124-0.226 0.229-0.359 0.531-0.62 0.728 0.446-0.13 0.745-0.519 1.18-0.673-0.317 0.36-0.748 0.589-1.062 0.952 0.261-0.067 0.522-0.129 0.784-0.192-0.302 0.205-0.604 0.413-0.932 0.577-0.387 0.188-0.749 0.43-1.155 0.579-0.161 0.054-0.294 0.161-0.405 0.286 0.255 0.099 0.526 0.052 0.764-0.071 0.036 0.058 0.071 0.116 0.108 0.173-0.2 0.121-0.403 0.239-0.596 0.372 0.028 0.016 0.082 0.049 0.11 0.065-0.276 0.235-0.547 0.477-0.864 0.655-0.388 0.312-0.786 0.618-1.221 0.862-0.341 0.11-0.675 0.241-1.008 0.376-0.104-0.034-0.208-0.066-0.311-0.098 0.166 0.445 0.339 0.889 0.449 1.352 0.089 0.316 0.175 0.643 0.374 0.911 0.207 0.269 0.27 0.614 0.46 0.894 0.183 0.269 0.332 0.563 0.416 0.878-0.213-0.271-0.412-0.553-0.647-0.805 0.129 0.302 0.31 0.581 0.407 0.896 0.091 0.241-0.029 0.5 0.055 0.742 0.074 0.251 0.066 0.514 0.055 0.773-0.178-0.32-0.356-0.645-0.413-1.012 0.003 0.099 0.007 0.296 0.009 0.395-0.198-0.46-0.586-0.815-0.713-1.308 0.018 0.15 0.038 0.299 0.056 0.45-0.123-0.168-0.237-0.343-0.32-0.534-0.007 0.048-0.021 0.142-0.028 0.19-0.058-0.144-0.115-0.289-0.167-0.435-0.019 0.088-0.038 0.177-0.057 0.265-0.075-0.112-0.145-0.226-0.212-0.341-0.007 0.050-0.021 0.151-0.028 0.201-0.041-0.115-0.081-0.229-0.122-0.342-0.526-0.458-0.786-1.131-1.19-1.685 0.029 0.215 0.074 0.428 0.099 0.644-0.088-0.195-0.139-0.404-0.22-0.602-0.086-0.157-0.204-0.294-0.308-0.438 0.084 0.355 0.196 0.702 0.314 1.046-0.114-0.124-0.229-0.246-0.348-0.366-0.22-0.144-0.266-0.409-0.327-0.645-0.118 0.115-0.226 0.241-0.328 0.37-0.085-0.021-0.171-0.036-0.257-0.048-0.37-0.107-0.77-0.065-1.141 0.018 0.011-0.026 0.034-0.079 0.046-0.105-0.122 0.017-0.245 0.032-0.366 0.048-0.222 0.684-0.391 1.399-0.774 2.016-0.040-0.005-0.12-0.014-0.159-0.019-0.034 0.083-0.067 0.166-0.099 0.25-0.032 0.021-0.097 0.063-0.129 0.084-0.106 0.247-0.205 0.496-0.287 0.751-0.016-0.065-0.049-0.194-0.065-0.259-0.145 0.3-0.256 0.615-0.364 0.93-0.116 0.333-0.407 0.553-0.616 0.825-0.3 0.372-0.745 0.579-1.081 0.911 0.38-0.825 0.711-1.688 0.815-2.597 0.056-0.227 0.27-0.384 0.306-0.622 0.081-0.377 0.206-0.759 0.159-1.149 0.085-0.383 0.251-0.745 0.316-1.133 0.032-0.491-0.054-1.009 0.167-1.469 0.226-0.479 0.392-0.985 0.655-1.446-0.029-0.123-0.083-0.239-0.126-0.356 0.045-0.081 0.086-0.163 0.124-0.247 0.088-0.020 0.169-0.060 0.24-0.116-0.015-0.015-0.045-0.046-0.060-0.062 0.183-0.050 0.325-0.171 0.433-0.323-0.049-0.048-0.098-0.095-0.146-0.143 0.234-0.194 0.446-0.421 0.737-0.532-0.202-0.137-0.413-0.39-0.684-0.27-0.271 0.152-0.547 0.37-0.626 0.686-0.066 0.27-0.149 0.536-0.206 0.807-0.067 0.406-0.411 0.686-0.528 1.073-0.107 0.371-0.149 0.757-0.2 1.139-0.052 0.397-0.236 0.759-0.338 1.143-0.083 0.296-0.113 0.603-0.2 0.898-0.077 0.261-0.157 0.523-0.2 0.793-0.075 0.729-0.241 1.45-0.488 2.139-0.14 0.262-0.339 0.497-0.417 0.79-0.108 0.397-0.22 0.794-0.365 1.18-0.129 0.372-0.189 0.764-0.325 1.134-0.1-0.483-0.294-0.947-0.575-1.352-0.099-0.17-0.311-0.191-0.477-0.26 0.124 0.017 0.249 0.033 0.374 0.048-0.55-0.516-0.977-1.143-1.438-1.737-0.151-0.249-0.392-0.44-0.486-0.722-0.050-0.125-0.095-0.251-0.143-0.378-0.009 0.054-0.028 0.164-0.036 0.219-0.074-0.145-0.145-0.292-0.253-0.414-0.458-0.537-0.581-1.266-0.991-1.832-0.181-0.267-0.268-0.613-0.56-0.79-0.219-0.125-0.439-0.269-0.69-0.316-0.229-0.049-0.431 0.096-0.65 0.126-0.25-0.042-0.482-0.153-0.727-0.216 0.28 0.216 0.612 0.333 0.95 0.422-0.179 0.009-0.384 0.086-0.546-0.024-0.164-0.107-0.327-0.216-0.524-0.25-0.015-0.216-0.077-0.503-0.359-0.468-0.326 0.295-0.479 0.749-0.86 0.991-0.286 0.502-0.696 0.913-1.008 1.397-0.315 0.373-0.546 0.803-0.796 1.219-0.254 0.348-0.474 0.72-0.755 1.048 0.081-0.221 0.241-0.662 0.322-0.883-0.12 0.212-0.361 0.637-0.481 0.848 0.111-0.585 0.458-1.112 0.448-1.722-0.040 0.037-0.12 0.112-0.16 0.149 0.042-0.11 0.083-0.22 0.124-0.331-0.107-0.017-0.215-0.035-0.323-0.050 0.078-0.172 0.155-0.346 0.231-0.518-0.040-0.14-0.071-0.282-0.104-0.423 0.179-0.229 0.353-0.472 0.423-0.759-0.181 0.131-0.316 0.31-0.45 0.486 0.151-0.255 0.274-0.528 0.322-0.823-0.052 0.045-0.158 0.136-0.21 0.181 0.126-0.263 0.229-0.538 0.393-0.78 0.153-0.225 0.157-0.505 0.255-0.753-0.198-0.165-0.383-0.36-0.647-0.413-0.044 0.183-0.069 0.369-0.090 0.555-0.229-0.212-0.462-0.419-0.71-0.609-0.233-0.127-0.493-0.193-0.749-0.261-0.252-0.066-0.456-0.249-0.712-0.302-0.33-0.075-0.619-0.259-0.898-0.442 0.352 0.002 0.697 0.099 0.987 0.299 0.264 0.188 0.592 0.218 0.891 0.32 0.142 0.062 0.291 0.001 0.431-0.035-0.232-0.331-0.64-0.399-0.983-0.557 0.065 0.071 0.196 0.211 0.262 0.281-0.311-0.191-0.604-0.441-0.982-0.483 0.095 0.112 0.194 0.22 0.296 0.327-0.21-0.11-0.432-0.188-0.659-0.253-0.362-0.139-0.674-0.378-0.97-0.623 0.316 0.173 0.625 0.391 0.989 0.448-0.19-0.144-0.425-0.22-0.587-0.4-0.224-0.229-0.46-0.447-0.704-0.653 0.026 0.003 0.077 0.011 0.103 0.015 0.027-0.098 0.062-0.195 0.079-0.296-0.063-0.187-0.155-0.368-0.12-0.573 0.093 0.014 0.186 0.029 0.279 0.044-0.159-0.169-0.288-0.366-0.368-0.585-0.081-0.225-0.321-0.324-0.492-0.468 0.159 0.052 0.315 0.11 0.474 0.158-0.131-0.185-0.304-0.334-0.523-0.404-0.356-0.126-0.63-0.392-0.899-0.645 0.459 0.1 0.848 0.371 1.292 0.511 0.179 0.065 0.335 0.178 0.496 0.277-0.132-0.274-0.223-0.564-0.331-0.848-0.146-0.343-0.55-0.42-0.866-0.532-0.253-0.059-0.446-0.24-0.622-0.419 0.382 0.105 0.745 0.259 1.114 0.399-0.216-0.207-0.473-0.362-0.708-0.545 0.684 0.403 1.473 0.573 2.165 0.963-0.108-0.152-0.222-0.299-0.342-0.442 0.203 0.131 0.421 0.235 0.636 0.345 0.208 0.1 0.344 0.296 0.535 0.42 0.193 0.147 0.442 0.175 0.661 0.266 0.281 0.104 0.53 0.296 0.837 0.321-0.161-0.202-0.372-0.354-0.567-0.522 0.33 0.036 0.56 0.282 0.796 0.487 0.186 0.164 0.412 0.27 0.647 0.341-0.065-0.092-0.13-0.184-0.197-0.274 0.22 0.147 0.464 0.253 0.712 0.343-0.212-0.155-0.419-0.317-0.629-0.473 0.745 0.293 1.466 0.678 2.052 1.231 0.087-0.061 0.173-0.122 0.259-0.183-0.044-0.009-0.13-0.028-0.174-0.037 0.155-0.133 0.292-0.286 0.414-0.45-0.069 0.011-0.207 0.036-0.276 0.048 0.235-0.165 0.459-0.346 0.655-0.557-0.175 0.045-0.348 0.099-0.52 0.159 0.311-0.192 0.634-0.392 0.829-0.712-0.068 0.010-0.204 0.030-0.272 0.040 0.305-0.139 0.595-0.31 0.843-0.539 0.492-0.442 1.017-0.86 1.623-1.135zM1.713 11.359c0.141 0.288 0.42 0.466 0.708 0.585-0.007-0.044-0.020-0.131-0.027-0.175-0.133-0.050-0.267-0.099-0.401-0.147-0.001-0.036-0.004-0.108-0.005-0.144-0.091-0.040-0.183-0.081-0.275-0.119zM11.661 11.538c-0.068 0.115-0.183 0.218-0.193 0.357 0.027 0.226 0.142 0.428 0.216 0.64 0.067 0.184 0.043 0.382 0.063 0.574 0.020 0.321 0.169 0.61 0.249 0.917 0.149 0.561 0.434 1.077 0.55 1.647-0.044-0.038-0.134-0.114-0.178-0.151 0.226 0.398 0.442 0.814 0.775 1.135 0.131 0.135 0.242 0.287 0.343 0.446-0.152-0.106-0.296-0.224-0.43-0.352 0.092 0.125 0.175 0.257 0.248 0.395 0.044 0.039 0.087 0.078 0.132 0.117 0.007 0.060 0.016 0.12 0.024 0.18 0.21 0.265 0.24 0.614 0.407 0.901 0.154 0.267 0.307 0.541 0.36 0.848 0.058 0.341 0.29 0.636 0.266 0.992-0.044 0.324 0.249 0.528 0.406 0.772 0.275 0.402 0.36 0.898 0.606 1.316-0.068-0.239-0.131-0.481-0.214-0.715-0.079-0.222-0.221-0.413-0.31-0.63-0.080-0.221-0.071-0.466-0.18-0.677-0.136-0.258-0.208-0.542-0.292-0.819 0.073 0.14 0.218 0.419 0.292 0.559-0.103-0.356-0.283-0.693-0.323-1.065-0.060-0.45-0.062-0.921-0.238-1.346-0.237-0.457-0.324-0.969-0.475-1.456 0.211 0.12 0.392 0.283 0.519 0.492-0.029-0.145-0.062-0.292-0.152-0.413-0.143-0.204-0.208-0.448-0.229-0.693-0.037-0.025-0.111-0.074-0.148-0.098 0.071-0.075 0.142-0.149 0.213-0.223-0.19-0.165-0.38-0.334-0.536-0.532 0.043 0.288 0.114 0.577 0.085 0.87-0.178-0.368-0.29-0.765-0.473-1.132-0.184-0.372-0.155-0.811-0.382-1.163-0.173-0.459-0.458-0.863-0.634-1.32-0.026-0.009-0.080-0.029-0.107-0.039-0.024-0.156-0.128-0.261-0.261-0.331zM20.13 11.881c-0.235 0.030-0.36 0.245-0.477 0.425 0.126-0.091 0.243-0.195 0.362-0.295 0.297 0.079 0.584 0.187 0.858 0.325-0.053-0.104-0.106-0.208-0.159-0.311 0.050 0.008 0.152 0.024 0.203 0.032-0.247-0.111-0.508-0.294-0.788-0.176zM26.093 15.134c0.030 0.018 0.089 0.052 0.118 0.070 0.288-0.109 0.552-0.269 0.835-0.39 0.214-0.090 0.405-0.226 0.565-0.394-0.517 0.212-1.050 0.403-1.518 0.714zM29.758 12.763c-0.259 0.114-0.448 0.332-0.67 0.5 0.462-0.149 0.868-0.419 1.246-0.719-0.194 0.071-0.388 0.136-0.576 0.218z"></path>
</svg>
