<!-- Generated by IcoMoon.io -->
<svg version="1.1" xmlns="http://www.w3.org/2000/svg" width="32" height="32" viewBox="0 0 32 32">
<title>clan-mardu</title>
<path fill="#444" d="M31.34 8.883c0.164-0.206 0.456-0.224 0.642-0.404v0.031c-0.076 0.072-0.138 0.155-0.18 0.25-0.127 0.182-0.364 0.295-0.406 0.53-0.013 0.006-0.039 0.017-0.051 0.022-0.032-0.033-0.064-0.065-0.096-0.097-0.050 0.097-0.073 0.205-0.099 0.31 0.108-0.063 0.216-0.127 0.337-0.162-0.095 0.165-0.247 0.291-0.422 0.364-0.16 0.064-0.211 0.251-0.354 0.336-0.064 0.042-0.141 0.069-0.184 0.135-0.060 0.085-0.122 0.169-0.189 0.248-0.022-0.026-0.044-0.051-0.065-0.077-0.030 0.082-0.054 0.172-0.118 0.234-0.083 0.036-0.179 0.017-0.261 0.055-0.043 0.052-0.059 0.12-0.089 0.18-0.042 0.092-0.117 0.162-0.188 0.232 0.113-0.060 0.231-0.116 0.333-0.195 0.116-0.087 0.202-0.21 0.331-0.28 0.121-0.066 0.247-0.123 0.376-0.173-0.071 0.101-0.172 0.175-0.256 0.265-0.062 0.071-0.159 0.097-0.221 0.166 0.011 0.032 0.027 0.063 0.042 0.094-0.051 0.039-0.107 0.072-0.148 0.122 0.028 0.061 0.064 0.118 0.095 0.178 0.055-0.035 0.111-0.068 0.171-0.094 0.094-0.036 0.14-0.136 0.227-0.182 0.031 0.007 0.060 0.019 0.090 0.029 0.12-0.123 0.241-0.247 0.334-0.392 0.023-0.029 0.042-0.074 0.087-0.070 0.053 0.006 0.099 0.035 0.148 0.056-0.058 0.113-0.178 0.165-0.258 0.258-0.084 0.095-0.177 0.182-0.286 0.247-0.155 0.082-0.237 0.252-0.398 0.325 0.035 0.035 0.076 0.065 0.104 0.107 0.030 0.078 0.035 0.164 0.030 0.247-0.070 0.011-0.139 0.021-0.209 0.029-0.019 0.057-0.036 0.114-0.051 0.173 0.055-0.010 0.113-0.015 0.165-0.042 0.268-0.148 0.476-0.384 0.743-0.532-0.044 0.084-0.113 0.151-0.184 0.213 0.033-0.003 0.066-0.006 0.099-0.009-0.077 0.068-0.172 0.126-0.21 0.226-0.048 0.131-0.206 0.159-0.289 0.261-0.254 0.283-0.613 0.454-0.837 0.766 0.042 0.021 0.085 0.044 0.127 0.067 0.134-0.084 0.236-0.205 0.357-0.304 0.001 0.044 0.002 0.088 0.004 0.133 0.155-0.137 0.277-0.309 0.448-0.428 0.083-0.058 0.162-0.123 0.221-0.206 0.066-0.094 0.159-0.162 0.251-0.228 0.115-0.082 0.203-0.196 0.319-0.278-0.090 0.142-0.221 0.249-0.328 0.376-0.069 0.073-0.13 0.154-0.206 0.218-0.144 0.1-0.314 0.169-0.43 0.304-0.020 0.072 0.038 0.155 0.002 0.228-0.046 0.091-0.122 0.163-0.169 0.254-0.048 0.099-0.128 0.175-0.196 0.26-0.085 0.113-0.23 0.147-0.339 0.23 0.040 0.016 0.081 0.035 0.124 0.044 0.067-0.007 0.125-0.047 0.188-0.072-0.113 0.138-0.216 0.288-0.362 0.395-0.088 0.060-0.104 0.174-0.178 0.245-0.082 0.079-0.173 0.148-0.261 0.219-0.114 0.081-0.184 0.207-0.297 0.29-0.072 0.052-0.11 0.134-0.142 0.214 0.059-0.024 0.117-0.050 0.176-0.074-0.161 0.203-0.429 0.3-0.549 0.539 0.155-0.076 0.285-0.195 0.445-0.262-0.071 0.112-0.174 0.198-0.254 0.304 0.087-0.039 0.169-0.088 0.255-0.127-0.067 0.077-0.145 0.144-0.234 0.196-0.105 0.061-0.195 0.144-0.291 0.217-0.101 0.076-0.154 0.2-0.258 0.274-0.242 0.17-0.498 0.326-0.78 0.421 0.049-0.074 0.102-0.145 0.145-0.223-0.156 0.048-0.254 0.185-0.381 0.276-0.136 0.108-0.296 0.178-0.459 0.234-0.16 0.053-0.296 0.155-0.454 0.21-0.119 0.038-0.195 0.142-0.291 0.214-0.042-0.015-0.088-0.097-0.13-0.048-0.099 0.090-0.199 0.179-0.32 0.238-0.287 0.149-0.612 0.215-0.885 0.392-0.157 0.097-0.347 0.105-0.513 0.18-0.219 0.096-0.451 0.158-0.688 0.186-0.193 0.021-0.383 0.076-0.579 0.063-0.088-0.002-0.191-0.037-0.261 0.036-0.093 0.053-0.054 0.171-0.093 0.254-0.109 0.035-0.232 0.027-0.33 0.094-0.097 0.052-0.162 0.145-0.251 0.206-0.077 0.025-0.159 0.020-0.238 0.028-0.071 0.152-0.144 0.308-0.26 0.43-0.080 0.082-0.224 0.091-0.273 0.204-0.046 0.113-0.084 0.231-0.105 0.352-0.025 0.139-0.111 0.254-0.172 0.379 0.037 0.015 0.074 0.030 0.111 0.046-0.040 0.043-0.081 0.085-0.122 0.126-0.003-0.040-0.006-0.079-0.008-0.119-0.025 0.001-0.049 0.002-0.073 0.004-0.009 0.088-0.008 0.181-0.050 0.262-0.052 0.095-0.154 0.148-0.211 0.24-0.063 0.105-0.086 0.228-0.145 0.336-0.047 0.084-0.123 0.143-0.195 0.203-0.112 0.092-0.206 0.203-0.299 0.313-0.074 0.085-0.13 0.189-0.227 0.252-0.099 0.066-0.144 0.181-0.206 0.277 0.041-0.015 0.083-0.030 0.125-0.043-0.050 0.083-0.111 0.161-0.191 0.217-0.185 0.135-0.284 0.359-0.474 0.488-0.008-0.080-0.010-0.16-0.014-0.24-0.068 0.044-0.135 0.090-0.204 0.131 0.019-0.060 0.040-0.119 0.061-0.177-0.098 0.158-0.155 0.342-0.281 0.482-0.096 0.047-0.126 0.158-0.193 0.233-0.052 0.066-0.132 0.099-0.197 0.149-0.053 0.038-0.072 0.104-0.102 0.16-0.018 0.001-0.055 0.004-0.073 0.005 0.003-0.044 0.007-0.088 0.011-0.132-0.015 0.052-0.030 0.103-0.043 0.155-0.007 0.086-0.122 0.087-0.176 0.133 0.015-0.134 0.045-0.267 0.104-0.388 0.106-0.226 0.131-0.482 0.262-0.697 0.151-0.329 0.301-0.66 0.408-1.006 0.131-0.411 0.259-0.823 0.345-1.246 0.037-0.184 0.119-0.355 0.153-0.539 0.035-0.183-0.005-0.37 0.019-0.554 0.021-0.221 0.11-0.427 0.156-0.642 0.017-0.125 0.16-0.191 0.161-0.319-0.009-0.152-0.056-0.3-0.078-0.45 0.002-0.115 0.023-0.23 0.003-0.344-0.010-0.092-0.048-0.179-0.049-0.271 0.034-0.118 0.082-0.232 0.112-0.351-0.025 0.053-0.050 0.107-0.076 0.16-0.042-0.165-0.027-0.335-0.034-0.503-0.003-0.1-0.049-0.189-0.088-0.279-0.040-0.086-0.015-0.182-0.012-0.273-0.027 0.012-0.055 0.025-0.082 0.038-0.015-0.104-0.015-0.208-0.014-0.312 0.005-0.114-0.142-0.169-0.124-0.288 0.010-0.215-0.010-0.429-0.024-0.643-0.005-0.095-0.044-0.183-0.079-0.27 0.077-0.070 0.163-0.139 0.202-0.239-0.003-0.144-0.135-0.251-0.129-0.397 0.008-0.141 0.112-0.247 0.185-0.358 0.2-0.322 0.574-0.476 0.928-0.559 0.103-0.014 0.169-0.096 0.247-0.153 0.118-0.021 0.238-0.005 0.358-0.014 0.469-0.026 0.908-0.207 1.355-0.335 0.418-0.114 0.851 0.033 1.272-0.050 0.832-0.164 1.635-0.448 2.463-0.629 0.298-0.064 0.583-0.179 0.849-0.326 0.135-0.074 0.239-0.194 0.383-0.255 0.123-0.052 0.232-0.13 0.344-0.2-0.034 0.128-0.081 0.253-0.097 0.385 0.088-0.034 0.18-0.085 0.214-0.179 0.026-0.086 0.010-0.178 0.027-0.266 0.093-0.047 0.207-0.023 0.3-0.075 0.040-0.020 0.077-0.050 0.12-0.064 0.063-0.006 0.133 0.017 0.19-0.023 0.143-0.079 0.214-0.231 0.317-0.35 0.062-0.074 0.159-0.095 0.244-0.131 0.202-0.079 0.361-0.235 0.555-0.329-0.16 0.173-0.38 0.287-0.507 0.492 0.080 0 0.173 0.026 0.243-0.027 0.064-0.048 0.134-0.095 0.178-0.164 0.008-0.054 0.004-0.109 0.005-0.163 0.028-0.007 0.056-0.014 0.085-0.022 0.016 0.031 0.032 0.062 0.048 0.094 0.048-0.060 0.099-0.118 0.154-0.173 0.004 0.104 0.017 0.209-0.003 0.313 0.075-0.086 0.152-0.171 0.236-0.249 0.044-0.046 0.1-0.092 0.104-0.162 0.009-0.076 0.025-0.151 0.059-0.22 0.015 0.040 0.031 0.080 0.047 0.12 0.061-0.031 0.122-0.065 0.182-0.1 0.054 0.062 0.116 0.12 0.195 0.149 0.019-0.1 0.025-0.205 0.076-0.296 0.046 0.020 0.092 0.040 0.138 0.060-0.041 0.074-0.086 0.146-0.129 0.219 0.133-0.097 0.292-0.146 0.447-0.195-0.109 0.097-0.228 0.182-0.323 0.294 0.232-0.109 0.472-0.234 0.625-0.446 0.064-0.090 0.162-0.145 0.257-0.197 0.106-0.058 0.185-0.152 0.265-0.24zM0.018 9.142v0.044c0.201 0.291 0.503 0.489 0.815 0.644 0.147 0.068 0.26 0.191 0.41 0.255 0.328 0.143 0.677 0.257 0.965 0.475-0.184-0.063-0.355-0.165-0.548-0.2-0.047-0.013-0.086 0.023-0.126 0.042-0.097 0.068-0.215-0.009-0.323 0.017 0.147 0.115 0.328 0.175 0.473 0.292 0.090 0.069 0.15 0.169 0.237 0.24 0.063 0.057 0.141 0.11 0.163 0.197-0.018 0.053-0.070 0.082-0.122 0.093-0.133-0.063-0.143-0.24-0.265-0.317 0.003 0.077 0.012 0.157 0.054 0.225 0.087 0.17 0.296 0.225 0.386 0.395-0.061 0.012-0.123 0.022-0.184 0.033 0.188 0.136 0.437 0.19 0.582 0.382-0.113 0.013-0.22-0.029-0.33-0.049-0.1-0.015-0.166-0.108-0.266-0.124-0.1-0.023-0.194-0.064-0.282-0.116-0.074-0.047-0.165-0.039-0.248-0.046-0.051-0.078-0.123-0.14-0.216-0.158 0.057 0.262 0.255 0.451 0.412 0.655 0.011-0.051 0.022-0.102 0.033-0.153 0.047 0.034 0.103 0.061 0.138 0.108 0.021 0.047 0.032 0.097 0.047 0.146 0.061 0.004 0.13-0.011 0.184 0.027 0.149 0.096 0.307 0.186 0.425 0.322 0.061 0.076 0.165 0.099 0.223 0.178 0.056 0.070 0.112 0.139 0.165 0.212-0.215-0.044-0.4-0.194-0.627-0.185 0.059 0.083 0.143 0.146 0.199 0.232 0.13 0.213 0.339 0.37 0.439 0.602 0.030 0.069-0.054 0.1-0.094 0.139-0.051-0.040-0.1-0.080-0.151-0.119-0.037 0.013-0.073 0.030-0.112 0.037-0.068-0.053-0.11-0.133-0.179-0.184-0.056-0.029-0.118-0.041-0.177-0.060 0.029-0.098 0.079-0.188 0.124-0.279-0.066 0.014-0.13 0.043-0.197 0.050-0.080 0.001-0.176-0.064-0.241 0.008-0.061 0.054-0.057 0.142-0.064 0.216 0.074-0.009 0.147-0.022 0.221-0.036-0.004 0.141-0.041 0.323 0.095 0.417 0.206 0.12 0.441 0.229 0.571 0.438-0.020 0.040-0.052 0.071-0.079 0.105 0.095 0.061 0.201 0.102 0.299 0.159 0.28 0.175 0.533 0.389 0.794 0.591 0.2 0.154 0.367 0.345 0.514 0.548-0.063-0.009-0.126-0.019-0.189-0.026 0.213 0.251 0.495 0.43 0.727 0.662 0.111 0.109 0.182 0.27 0.336 0.328 0.303 0.121 0.602 0.267 0.842 0.492 0.082 0.069 0.148 0.156 0.229 0.226 0.094 0.064 0.214 0.059 0.32 0.086 0.11 0.024 0.172 0.141 0.286 0.155 0.105 0.016 0.21 0.043 0.3 0.102 0.222 0.137 0.456 0.254 0.682 0.384 0.206 0.115 0.412 0.232 0.625 0.333 0.105 0.051 0.219 0.078 0.334 0.091 0.136 0.013 0.254 0.088 0.383 0.125 0.217 0.066 0.441 0.105 0.659 0.168 0.168 0.049 0.347 0.058 0.508 0.131 0.218 0.097 0.44 0.186 0.665 0.263 0.102 0.035 0.216 0.035 0.31 0.092 0.194 0.119 0.361 0.277 0.526 0.432 0.163 0.157 0.332 0.314 0.444 0.514 0.069 0.132 0.21 0.2 0.296 0.317 0.087 0.116 0.169 0.237 0.271 0.341-0.013-0.041-0.027-0.081-0.041-0.122 0.017-0.019 0.033-0.039 0.050-0.058 0.094 0.112 0.268 0.125 0.333 0.264 0.072 0.12 0.127 0.248 0.185 0.375 0.084 0.181 0.249 0.303 0.4 0.426 0.325 0.254 0.661 0.497 1.025 0.692-0.017-0.054-0.036-0.107-0.052-0.161 0.156 0.052 0.295 0.14 0.441 0.211 0.139 0.068 0.268 0.155 0.388 0.252s0.246 0.191 0.397 0.233c-0.028-0.089-0.065-0.175-0.104-0.259-0.062-0.134-0.096-0.278-0.143-0.417-0.035-0.107-0.079-0.212-0.101-0.322-0.021-0.106-0.039-0.215-0.090-0.312-0.067-0.124-0.086-0.271-0.177-0.381-0.159-0.193-0.301-0.4-0.417-0.621-0.105-0.182 0.008-0.41-0.103-0.591-0.159-0.274-0.27-0.571-0.388-0.864-0.066-0.163-0.118-0.333-0.141-0.508-0.019-0.186-0.199-0.303-0.218-0.489-0.024-0.226-0.121-0.438-0.123-0.668-0.003-0.337-0.050-0.672-0.038-1.009-0.003-0.29 0.174-0.535 0.256-0.803 0.056-0.213-0.034-0.423-0.079-0.629 0.038 0.014 0.076 0.028 0.114 0.042 0.018-0.091 0.042-0.187 0.010-0.277-0.027-0.098-0.104-0.181-0.1-0.286 0.004-0.079-0.011-0.156-0.025-0.233-0.018-0.083 0.045-0.154 0.057-0.234-0.039-0.076-0.127-0.103-0.194-0.146-0.004-0.044-0.002-0.089-0.014-0.131-0.082-0.064-0.186-0.089-0.271-0.149-0.042-0.059-0.050-0.139-0.103-0.192-0.141-0.154-0.331-0.252-0.52-0.335-0.181-0.118-0.422-0.019-0.599-0.147-0.074-0.055-0.168-0.064-0.251-0.098-0.105-0.061-0.196-0.144-0.303-0.199-0.147-0.073-0.334 0.019-0.467-0.091-0.020-0.065-0.019-0.135-0.039-0.2-0.161-0.035-0.326 0.011-0.488 0.019-0.275 0.032-0.551 0.021-0.827 0.039-0.207 0.011-0.421 0.024-0.62-0.044-0.119-0.040-0.242-0.071-0.367-0.086-0.198-0.026-0.404-0.005-0.596-0.070-0.157-0.053-0.311-0.115-0.475-0.144-0.008 0.022-0.025 0.065-0.034 0.087-0.268-0.022-0.504-0.159-0.762-0.22-0.142-0.037-0.282-0.081-0.415-0.143-0.155-0.068-0.303-0.158-0.47-0.193 0.043 0.063 0.091 0.123 0.137 0.184-0.098-0.061-0.184-0.137-0.264-0.22-0.092-0.101-0.23-0.132-0.354-0.176-0.258-0.089-0.519-0.168-0.773-0.268-0.216-0.085-0.43-0.174-0.647-0.259-0.429-0.15-0.843-0.344-1.227-0.585-0.121-0.071-0.2-0.191-0.305-0.28-0.064-0.056-0.154-0.043-0.232-0.055-0.124-0.013-0.228-0.088-0.328-0.156-0.077-0.053-0.173-0.062-0.258-0.094-0.125-0.045-0.236-0.117-0.351-0.183 0.168 0.2 0.391 0.342 0.59 0.509 0.058 0.048 0.108 0.103 0.151 0.165-0.155-0.056-0.286-0.159-0.436-0.226-0.119-0.053-0.221-0.135-0.339-0.188-0.022 0.015-0.043 0.031-0.064 0.047-0.154-0.076-0.313-0.14-0.469-0.211-0.087-0.038-0.154-0.11-0.24-0.15-0.095-0.022-0.198-0.023-0.285-0.071-0.169-0.1-0.34-0.197-0.504-0.307zM29.181 9.615c0.092-0.006 0.148-0.072 0.155-0.162-0.064 0.041-0.115 0.099-0.155 0.162zM30.874 11.047c0.068 0.035 0.136 0.070 0.201 0.109 0.036-0.037 0.089-0.065 0.1-0.12 0.025-0.116 0.057-0.232 0.091-0.346-0.154 0.091-0.271 0.227-0.392 0.356zM0.353 10.851c-0.002 0.044-0.003 0.088-0.006 0.132 0.064 0.054 0.127 0.111 0.204 0.145-0.035-0.111-0.103-0.21-0.198-0.277zM0.633 11.036c-0.036 0.036-0.036 0.1 0.011 0.128 0.101 0.061 0.211 0.108 0.318 0.156-0.042-0.063-0.104-0.107-0.163-0.152-0.057-0.042-0.102-0.1-0.165-0.132zM0.228 11.273c0.009 0.123 0.073 0.231 0.162 0.313 0.035-0.011 0.070-0.023 0.105-0.034-0.040-0.131-0.147-0.223-0.267-0.279zM0.904 12.53c-0.035 0.066-0.077 0.147-0.035 0.221 0.031 0.047 0.054 0.113 0.111 0.132 0.093-0.004 0.185-0.023 0.277-0.039-0.039-0.042-0.084-0.078-0.13-0.112-0.083-0.058-0.143-0.141-0.222-0.202zM2.060 12.66c0.017 0.069 0.081 0.084 0.143 0.086 0.007-0.087-0.081-0.083-0.143-0.086zM2.195 13.31c0.082 0.080 0.187 0.124 0.295 0.156-0.007-0.057-0.009-0.116-0.024-0.171-0.049-0.040-0.102-0.074-0.15-0.115-0.042 0.042-0.081 0.087-0.12 0.13zM29.9 13.904c0.123-0.033 0.269-0.111 0.277-0.254-0.128 0.033-0.22 0.14-0.277 0.254zM1.126 13.717c0.017 0.047 0.046 0.082 0.092 0.103 0.002-0.035 0.003-0.070 0.004-0.105-0.024 0.001-0.072 0.001-0.096 0.002zM1.37 13.865c0.012 0.071 0.081 0.096 0.141 0.117-0.029-0.058-0.079-0.098-0.141-0.117zM29.438 14.637c0.139-0.087 0.276-0.189 0.372-0.324-0.139 0.087-0.276 0.19-0.372 0.324zM13.927 16.197c-0.015 0.112-0.010 0.226-0.026 0.338-0.018 0.133-0.022 0.285 0.070 0.395 0.013-0.104 0.010-0.212 0.040-0.314 0.018-0.072 0.050-0.142 0.047-0.217-0.018-0.081-0.072-0.147-0.131-0.202zM13.954 17.693c0.003 0.125 0.039 0.245 0.066 0.366 0.026 0.107 0.046 0.218 0.102 0.315-0.035-0.231-0.076-0.466-0.168-0.681zM14.698 19.504c-0.031 0.126 0.002 0.286 0.134 0.339-0.040-0.115-0.087-0.227-0.134-0.339zM14.79 19.877c0.047 0.173 0.136 0.332 0.219 0.49-0.030-0.131-0.069-0.259-0.122-0.383-0.017-0.048-0.058-0.079-0.097-0.108zM14.992 20.405c0.027 0.102 0.085 0.193 0.16 0.266-0.034-0.097-0.065-0.211-0.16-0.266zM15.19 20.767c-0.022 0.028 0.004 0.076 0.039 0.075 0.053-0.013 0.003-0.111-0.039-0.075zM15.195 20.906c0.043 0.056 0.089 0.11 0.138 0.162-0.013-0.053-0.026-0.105-0.040-0.157-0.033-0.002-0.066-0.004-0.098-0.005z"></path>
</svg>
