<!-- Generated by IcoMoon.io -->
<svg version="1.1" xmlns="http://www.w3.org/2000/svg" width="32" height="32" viewBox="0 0 32 32">
<title>clan-ojutai</title>
<path fill="#444" d="M11.688 0c0.49 0.26 1.058 0.479 1.349 0.986 0.174 0.3 0.408 0.557 0.682 0.767 0.357-0.243 0.797-0.365 1.085-0.702 0.215-0.228 0.472-0.409 0.727-0.589 0.002 0.043 0.008 0.128 0.010 0.171 0.218 0.013 0.435 0.032 0.652 0.054 0.044 0.063 0.132 0.189 0.176 0.252 0.096-0.126 0.194-0.251 0.292-0.375 0.245 0.039 0.509 0.040 0.727 0.175 0.174 0.092 0.336 0.253 0.548 0.18 0.119 0.142 0.22 0.347 0.441 0.273 0.009 0.27 0.020 0.541 0.031 0.811 0.399 0.017 0.797-0.034 1.196-0.046 0.538-0.034 0.999 0.31 1.529 0.34 0.57 0.057 1.027 0.433 1.559 0.605 0.476 0.153 0.917 0.419 1.423 0.469 0.539 0.054 0.905 0.515 1.42 0.641 0.421 0.113 0.81 0.32 1.229 0.44 0.595 0.117 1.013 0.597 1.533 0.872 0.535 0.292 1.024 0.658 1.486 1.054 0.582 0.436 1.157 0.906 1.558 1.522 0.193 0.446 0.477 0.881 0.473 1.383-0.006 0.5 0.053 0.995 0.124 1.487-0.246 0.073-0.356 0.33-0.531 0.495-0.040 0.363-0.037 0.728 0.018 1.089-0.249-0.203-0.515-0.404-0.843-0.45-0.010 0.093-0.029 0.278-0.038 0.371-0.123-0.053-0.245-0.104-0.367-0.155 0.054 0.168 0.123 0.331 0.197 0.491-0.252-0.044-0.505-0.082-0.758-0.12-0.037 0.039-0.11 0.114-0.146 0.152-0.182-0.018-0.361-0.035-0.541-0.052 0.048 0.054 0.146 0.162 0.195 0.216-0.157 0.073-0.304 0.165-0.429 0.286-0.493 0.092-0.909-0.211-1.317-0.435-0.539-0.295-0.959-0.782-1.547-0.993-0.68-0.235-1.29-0.654-1.797-1.161-0.572-0.693-1.446-1.101-2.328-1.194-0.136-0.051-0.264-0.124-0.393-0.19-0.787 0.1-1.384-0.531-2.051-0.833 0.105 0.778 0.288 1.548 0.492 2.305 0.274 0.55 0.265 1.175 0.445 1.752 0.177 0.544 0.137 1.129 0.295 1.678 0.123 0.587 0.532 1.070 0.625 1.667 0.232 1.099 0.221 2.23 0.436 3.332 0.096 0.427 0.238 0.855 0.204 1.299-0.008 0.824-0.35 1.586-0.61 2.351 0.056 0.002 0.168 0.006 0.224 0.008-0.235 0.362-0.481 0.728-0.833 0.989 0.284 0.303 0.679 0.447 1.064 0.577-0.066 0.024-0.197 0.073-0.262 0.098 0.333 0.093 0.672 0.181 1.022 0.18 0.6 0.014 1.227 0.162 1.807-0.058 0.391-0.147 0.827-0.124 1.204-0.312 0.372-0.183 0.701-0.45 1.102-0.574 0.449-0.129 0.712-0.545 1.060-0.824-0.257 0.495-0.645 0.903-1.009 1.32-0.733 0.783-1.924 0.844-2.645 1.646-0.025-0.053-0.076-0.158-0.101-0.211-0.356 0.271-0.8 0.529-0.876 1.015-0.257 0.28-0.579 0.481-0.944 0.585-0.705 0.39-1.444 0.716-2.174 1.055 0.062-0.002 0.185-0.006 0.248-0.008-0.432 0.331-0.747 0.779-1.088 1.196-0.31-0.070-0.643-0.108-0.913-0.282-0.37-0.316-0.674-0.701-0.974-1.082 0.050 0.537 0.144 1.084 0.366 1.577 0.373 0.608 0.67 1.26 1.072 1.849-0.013 0.057-0.040 0.171-0.054 0.227 0.072 0.118 0.142 0.238 0.211 0.359-0.31-0.104-0.613-0.253-0.826-0.509-0.652-0.745-1.102-1.689-1.938-2.261-0.437-0.297-0.732-0.744-1.108-1.105-0.299 0.19-0.643 0.288-0.999 0.253 0-0.158 0-0.316 0.001-0.472-0.138 0.068-0.27 0.244-0.441 0.173-0.328-0.087-0.661-0.148-1.001-0.156-0.387-0.015-0.737-0.194-1.078-0.358-0.365-0.178-0.772-0.234-1.168-0.296 0.020-0.286-0.232-0.455-0.399-0.644-0.591-0.705-1.335-1.258-2.064-1.808-0.593-0.382-1.171-0.79-1.684-1.276 0.063 0.001 0.187 0.004 0.25 0.006-0.324-0.448-0.678-0.879-0.911-1.385 0.563 0.403 1.046 0.911 1.649 1.262 0.763 0.45 1.505 0.977 2.367 1.217 0.014-0.090 0.042-0.271 0.055-0.362 0.554 0.194 1.168 0.342 1.747 0.16 0.314 0.12 0.647 0.16 0.98 0.103-0.080-0.703-0.788-1.054-1.075-1.652-0.249-0.499-0.608-0.928-0.882-1.411 0.109-0.002 0.326-0.007 0.435-0.009-0.076-0.494-0.083-0.997-0.206-1.484-0.261-1.456-0.375-2.942-0.304-4.42 0.118-0.981 0.206-1.966 0.235-2.954-0.064 0.032-0.193 0.097-0.257 0.13 0.326-0.904 0.334-1.867 0.506-2.802 0.084-0.532 0.322-1.022 0.429-1.548-0.574 0.158-1.188 0.111-1.746 0.323-0.043-0.025-0.128-0.075-0.171-0.1-0.721 0.081-1.163 0.723-1.713 1.123 0.022-0.096 0.064-0.286 0.086-0.381-0.064-0.062-0.189-0.187-0.253-0.248-0.5 0.122-1.040 0.165-1.48 0.46-0.262 0.175-0.506 0.376-0.769 0.551 0.022-0.081 0.067-0.239 0.089-0.319-0.596 0.286-0.997 0.851-1.625 1.085 0.035-0.083 0.103-0.247 0.138-0.329-0.473 0.273-0.881 0.677-1.431 0.796-0.022-0.094-0.066-0.282-0.088-0.376-0.079 0.027-0.239 0.081-0.319 0.108l0.073-0.3c-0.34 0.215-0.635 0.49-0.935 0.754 0.3-0.387 0.627-0.755 0.955-1.118-0.541 0.417-1.242 0.606-1.67 1.166 0.215-0.428 0.367-1.036 0.875-1.192 0.168-0.2 0.321-0.413 0.475-0.623-0.262 0.16-0.518 0.377-0.844 0.365-0.187 0.132-0.366 0.276-0.55 0.414 0.559-0.888 1.3-1.675 2.193-2.23 0.37-0.302 0.71-0.638 1.083-0.936 0.067 0.007 0.2 0.020 0.267 0.026 0.191-0.267 0.386-0.532 0.584-0.794-0.403 0.145-0.812 0.276-1.202 0.454-0.418 0.183-0.72 0.536-1.076 0.807 0.328-0.673 0.937-1.131 1.505-1.59 0.636-0.58 1.307-1.129 2.034-1.589 0.416-0.152 0.778-0.405 1.162-0.618 0.407-0.233 0.91-0.261 1.275-0.569 0.327-0.28 0.714-0.526 0.898-0.932 0.673-0.106 1.364-0.14 2.015-0.359 0.287-0.097 0.588-0.142 0.887-0.185 0.293-0.355 0.818-0.21 1.22-0.26-0.165-0.734-0.692-1.278-1.218-1.775zM15.968 10.39c-0.214 0.494-0.246 1.043-0.293 1.573-0.037 0.454-0.229 0.872-0.361 1.303-0.187 0.57-0.262 1.173-0.273 1.772-0.014 0.506-0.16 0.995-0.244 1.493 0.067-0.055 0.2-0.164 0.267-0.22-0.087 0.968-0.159 1.938-0.131 2.91-0.056 0.936 0.207 1.843 0.417 2.743 0.033 0.169 0.117 0.32 0.219 0.457 0.129 0.354 0.296 0.694 0.387 1.061 0.504-0.919 0.986-1.876 1.159-2.922 0.401-1.393 0.541-2.878 0.293-4.309-0.080-0.734-0.048-1.473-0.052-2.21 0.045-1.006-0.206-1.996-0.177-3.004-0.116-0.596-0.271-1.195-0.518-1.752-0.186 0.395-0.475 0.727-0.693 1.103z"></path>
</svg>
