<!-- Generated by IcoMoon.io -->
<svg version="1.1" xmlns="http://www.w3.org/2000/svg" width="18" height="32" viewBox="0 0 18 32">
<title>clan-sultai</title>
<path fill="#444" d="M3.669 0c0.144 0.005 0.311-0.022 0.431 0.077 0.1 0.081 0.234 0.093 0.348 0.148 0.14 0.068 0.294 0.1 0.448 0.116-0.040-0.066-0.083-0.13-0.122-0.197 0.115 0.041 0.223 0.098 0.336 0.143 0.134 0.053 0.28 0.064 0.416 0.108 0.111 0.035 0.2 0.131 0.322 0.133 0.121 0.008 0.248 0.022 0.349 0.094 0.251 0.167 0.532 0.279 0.79 0.434 0.117 0.067 0.251 0.092 0.375 0.141 0.021-0.044 0.041-0.089 0.062-0.133 0.106 0.078 0.201 0.17 0.306 0.25 0.041-0.117-0.007-0.231-0.037-0.344 0.078 0.054 0.158 0.111 0.21 0.192 0.028 0.085 0.027 0.177 0.044 0.265 0.052-0.021 0.103-0.042 0.155-0.064 0.047 0.171 0.195 0.314 0.377 0.324-0.023-0.117-0.070-0.226-0.104-0.34 0.050 0.051 0.115 0.096 0.137 0.167 0.021 0.105-0.025 0.209-0.030 0.313 0.046 0.065 0.131 0.101 0.156 0.181 0.080 0.219 0.193 0.446 0.404 0.563 0.059 0.059 0.152 0.015 0.216 0.058 0.021 0.108-0.026 0.24 0.060 0.328 0.115 0.16 0.313 0.254 0.379 0.449 0.052 0.15 0.143 0.285 0.176 0.442 0.046 0.195 0.153 0.367 0.264 0.531 0.062 0.149 0.137 0.293 0.193 0.445 0.054 0.022 0.111 0.038 0.159 0.071 0.025 0.094 0.021 0.199 0.078 0.283 0.085 0.14 0.171 0.282 0.226 0.437 0.049 0.152 0.197 0.231 0.304 0.338-0.034-0.123-0.078-0.245-0.088-0.373 0.1 0.16 0.139 0.349 0.23 0.514 0.106 0.191 0.218 0.378 0.326 0.567 0.034 0.066 0.097 0.107 0.163 0.138 0.081 0.034 0.129 0.111 0.191 0.17 0.097 0.098 0.24 0.126 0.341 0.22 0.069 0.064 0.136 0.13 0.212 0.187 0.109 0.082 0.197 0.195 0.323 0.252 0.037-0.006 0.073-0.019 0.111-0.029 0.031 0.076 0.030 0.183 0.121 0.216 0.217 0.103 0.362 0.317 0.592 0.397 0.081 0.024 0.133 0.096 0.206 0.133 0.085 0.029 0.172 0.052 0.258 0.081 0.021-0.075 0.042-0.15 0.069-0.224 0.021 0.084 0.033 0.171 0.041 0.258 0.097 0.045 0.168 0.123 0.22 0.215 0.281 0.356 0.754 0.43 1.164 0.544 0.295 0.044 0.589-0.029 0.884-0.039-0.050 0.059-0.082 0.148-0.169 0.159-0.251 0.051-0.499 0.13-0.758 0.118-0.216-0.014-0.415 0.091-0.629 0.092-0.153 0.008-0.32 0.004-0.451 0.097-0.055 0.029-0.105 0.087-0.173 0.076-0.135-0.020-0.257-0.111-0.398-0.086-0.144 0.019-0.289 0.015-0.433 0.010-0.099-0.006-0.197 0.067-0.293 0.020-0.088-0.030-0.18-0.049-0.273-0.056-0.106-0.009-0.21 0.032-0.315 0.014-0.268-0.047-0.536-0.103-0.794-0.193 0.007 0.074 0.011 0.148 0.013 0.222-0.056-0.095-0.081-0.21-0.159-0.291-0.101-0.023-0.2 0.018-0.299 0.033-0 0.035 0 0.069 0.001 0.104-0.036-0.002-0.073-0.005-0.109-0.009-0.020-0.093-0.067-0.167-0.166-0.184-0.010 0.115 0.009 0.23 0.028 0.343-0.089-0.138-0.132-0.299-0.211-0.442-0.057-0.041-0.128-0.052-0.193-0.073-0.114-0.030-0.21-0.104-0.317-0.149-0.087-0.029-0.181-0.030-0.267-0.060-0.125-0.037-0.209-0.149-0.331-0.192-0.174-0.053-0.356-0.075-0.529-0.134-0.116-0.040-0.206-0.125-0.298-0.202-0.077-0.068-0.186-0.073-0.272-0.124-0.121-0.062-0.212-0.172-0.342-0.216-0.212-0.073-0.342-0.272-0.54-0.37-0.012 0.045-0.024 0.090-0.037 0.135-0.025-0.050-0.051-0.101-0.072-0.152-0.133 0.008-0.275 0.009-0.39-0.068-0.116-0.074-0.238-0.136-0.359-0.201-0.052 0.078-0.096 0.164-0.162 0.232 0.024-0.092 0.072-0.175 0.109-0.261-0.037-0.002-0.073-0.003-0.109-0.004-0.010-0.045-0.021-0.091-0.032-0.135-0.062 0-0.124 0.001-0.185 0.003 0.004 0.091 0.010 0.183 0.010 0.274-0.063-0.026-0.146-0.045-0.157-0.126-0.023-0.106 0.086-0.169 0.151-0.231-0.088-0.075-0.144-0.174-0.203-0.271-0.154-0.131-0.273-0.298-0.431-0.425-0.077-0.066-0.143-0.145-0.206-0.224-0.106-0.136-0.243-0.242-0.359-0.368-0.055 0.019-0.109 0.042-0.167 0.052-0.085-0.051-0.134-0.141-0.21-0.203-0.102-0.089-0.171-0.206-0.25-0.313-0.096-0.125-0.263-0.179-0.336-0.324-0.121-0.278-0.361-0.476-0.567-0.69-0.121-0.149-0.22-0.315-0.339-0.466-0.048 0.006-0.096 0.013-0.144 0.019-0.076-0.123-0.149-0.256-0.271-0.34-0.037 0.015-0.071 0.035-0.106 0.054-0.122-0.084-0.232-0.202-0.385-0.227-0.093-0.022-0.189-0.029-0.279-0.063-0.203-0.113-0.342-0.305-0.476-0.488-0.067-0.092 0.019-0.206-0.008-0.306-0.040-0.158-0.173-0.266-0.24-0.411 0.133 0.036 0.262 0.083 0.386 0.143 0.006-0.108 0.067-0.193 0.148-0.26-0.047-0.090-0.111-0.17-0.189-0.236 0.020-0.065 0.034-0.133 0.040-0.201 0.004-0.071 0.073-0.113 0.111-0.168-0.047-0.044-0.095-0.087-0.142-0.132 0.117-0.129 0.264-0.232 0.354-0.384-0.163-0.045-0.334-0.069-0.482-0.154 0.102-0.021 0.207-0.019 0.31-0.017 0.091-0.162 0.271-0.223 0.437-0.278 0.152 0.002 0.299-0.035 0.446-0.069 0.073-0.017 0.123-0.077 0.18-0.121 0.097 0.013 0.193 0.027 0.291 0.028-0.018-0.074-0.041-0.147-0.063-0.22 0.103 0.027 0.207 0.051 0.312 0.071-0.016-0.053-0.031-0.106-0.044-0.159zM4.61 7.44c-0.076 0.042-0.162 0.058-0.246 0.076 0.011 0.143 0.14 0.303 0.028 0.432-0.189 0.212-0.476 0.284-0.724 0.401-0.074 0.029-0.082 0.119-0.113 0.182-0.038 0.107-0.123 0.187-0.179 0.284-0.058 0.109-0.039 0.239-0.084 0.352-0.072 0.11-0.18 0.192-0.259 0.299-0.144 0.169-0.23 0.38-0.384 0.542-0.096 0.105-0.237 0.155-0.329 0.265-0.122 0.144-0.244 0.291-0.339 0.455-0.173 0.275-0.241 0.6-0.413 0.875-0.091 0.148-0.097 0.33-0.181 0.481-0.138 0.264-0.261 0.538-0.337 0.827-0.124 0.414-0.323 0.8-0.481 1.201-0.27 0.62-0.337 1.303-0.389 1.97 0.009 0.341-0.048 0.677-0.127 1.008-0.036 0.232-0.021 0.471-0.006 0.705 0.058-0.047 0.115-0.095 0.173-0.141-0.027 0.237-0.002 0.474 0.016 0.711-0.006 0.232 0.107 0.443 0.146 0.668 0.041 0.173-0.018 0.349 0.008 0.523 0.011 0.1 0.055 0.194 0.059 0.296 0.021 0.286 0.071 0.569 0.119 0.852 0.021 0.137 0.115 0.245 0.16 0.373-0.001 0.088-0.027 0.177-0.007 0.264 0.028 0.143 0.091 0.28 0.088 0.428-0.001 0.185-0.007 0.37 0.004 0.555 0.020-0.020 0.059-0.059 0.079-0.079 0.051 0.123 0.111 0.247 0.117 0.383 0.007 0.178-0.025 0.355-0.013 0.533 0.006 0.126 0.106 0.218 0.145 0.334 0.059 0.163 0.157 0.313 0.174 0.49 0.023 0.121 0.001 0.249 0.037 0.367 0.167 0.144 0.293 0.331 0.395 0.525 0.054 0.095 0.004 0.201-0.022 0.297 0.088 0.089 0.172 0.184 0.224 0.299 0.064 0.147 0.185 0.256 0.271 0.389 0.055 0.087 0.172 0.117 0.208 0.218 0.041 0.098 0.1 0.186 0.17 0.265-0.022 0.052-0.045 0.104-0.066 0.157 0.060 0.014 0.127 0.014 0.181 0.051 0.034 0.092 0.013 0.208 0.090 0.281 0.066 0.077 0.148 0.138 0.222 0.208 0.078 0.066 0.076 0.18 0.138 0.258 0.099 0.046 0.216 0.055 0.303 0.127 0.37 0.28 0.51 0.763 0.873 1.051 0.093 0.091 0.238 0.042 0.34 0.117 0.109 0.079 0.167 0.207 0.267 0.296 0.101 0.082 0.117 0.217 0.159 0.332 0.094 0.020 0.187 0.045 0.268 0.099 0.386 0.184 0.679 0.507 1.045 0.723 0.056 0.021 0.118 0.004 0.176 0.004-0.079 0.091-0.122 0.204-0.125 0.324 0.072-0.073 0.145-0.145 0.222-0.213 0.058 0.080 0.121 0.161 0.208 0.213 0.087 0.064 0.2 0.054 0.302 0.072 0.018 0.093-0.018 0.218 0.080 0.274 0.16 0.111 0.329 0.208 0.479 0.332 0.022-0.039 0.044-0.077 0.066-0.115 0.031 0.042 0.060 0.088 0.101 0.122 0.063 0.023 0.132 0.026 0.197 0.043 0.099 0.013 0.167 0.093 0.244 0.149 0.145 0.117 0.325 0.177 0.48 0.28 0.177 0.117 0.379 0.189 0.557 0.304 0.11 0.091 0.25 0.011 0.375 0.017 0.174-0.023 0.319 0.088 0.471 0.151-0.098-0.118-0.194-0.245-0.333-0.317-0.091-0.055-0.201-0.079-0.282-0.15-0.077-0.134-0.078-0.315-0.222-0.405-0.094-0.090-0.225-0.086-0.345-0.090 0.003-0.089 0-0.178-0.004-0.267-0.078-0.049-0.152-0.103-0.211-0.173-0.065-0.087-0.181-0.091-0.275-0.122-0.017-0.043-0.034-0.085-0.051-0.127 0.071-0.009 0.191 0.048 0.214-0.049-0.039-0.059-0.096-0.11-0.168-0.121-0.106-0.031-0.196 0.052-0.289 0.087-0.050-0.084-0.102-0.167-0.16-0.245 0.080 0.028 0.164 0.035 0.236-0.017-0.126-0.048-0.262-0.080-0.367-0.169-0.060-0.058-0.059-0.152-0.119-0.209-0.175-0.169-0.318-0.367-0.474-0.553-0.123-0.145-0.198-0.319-0.279-0.488 0.028-0.064 0.106-0.136 0.049-0.205-0.086-0.114-0.209-0.2-0.266-0.336-0.023 0.067-0.045 0.135-0.066 0.203-0.131-0.314-0.156-0.674-0.375-0.947-0.152-0.166-0.148-0.405-0.222-0.604-0.11-0.131-0.059-0.326-0.174-0.453-0.141-0.159-0.126-0.392-0.076-0.585-0.046-0.022-0.091-0.044-0.137-0.066 0.015-0.242-0.022-0.481-0.061-0.718 0.066 0.087 0.126 0.181 0.217 0.246 0-0.148-0.131-0.221-0.232-0.3-0.038-0.076-0.054-0.16-0.076-0.241 0.048 0.060 0.095 0.121 0.145 0.179 0.021-0.135 0.010-0.272 0.029-0.407 0.019-0.145 0.115-0.264 0.147-0.405-0.060 0.038-0.15 0.066-0.162 0.147-0.019 0.117-0.031 0.238-0.089 0.345-0.027-0.159-0.019-0.324-0.073-0.478-0.042-0.121 0.019-0.243 0.033-0.362 0.019-0.127 0.085-0.238 0.129-0.357 0.047-0.174-0.104-0.329-0.068-0.503 0.015-0.147 0.144-0.236 0.226-0.346-0.055-0.010-0.11-0.019-0.165-0.028-0.025-0.070-0.054-0.139-0.084-0.207 0.066-0.022 0.133-0.043 0.198-0.069-0.003-0.062-0.007-0.123-0.011-0.184-0.047 0.030-0.094 0.061-0.14 0.092-0.092-0.257 0.080-0.487 0.158-0.72-0.048-0.048-0.1-0.091-0.141-0.144-0.018-0.153 0.128-0.256 0.157-0.396 0.010-0.095 0.004-0.192 0.019-0.286 0.021-0.127 0.132-0.228 0.122-0.363-0.006-0.108-0.028-0.214-0.035-0.321 0.056-0.001 0.112 0.014 0.169 0.007 0.039-0.065 0.060-0.138 0.084-0.208-0.072 0.006-0.145 0.014-0.217 0.020-0.002-0.058-0.002-0.117-0.001-0.175 0.102-0.004 0.204-0.004 0.305-0.015-0.102-0.072-0.201-0.155-0.237-0.28 0.066-0.020 0.132-0.039 0.2-0.056-0.001-0.111 0.061-0.192 0.147-0.254-0.066-0.058-0.131-0.117-0.185-0.186 0.118-0.003 0.221 0.054 0.32 0.111-0.030-0.078-0.071-0.152-0.088-0.233 0.030-0.104 0.099-0.191 0.14-0.291-0.168 0.073-0.213 0.267-0.328 0.394-0.029-0.046-0.075-0.085-0.086-0.14 0.042-0.082 0.092-0.161 0.156-0.227 0.108-0.067 0.246-0.109 0.289-0.245-0.128 0.053-0.245 0.132-0.381 0.163 0.070-0.082 0.152-0.152 0.233-0.223-0.010-0.073-0.017-0.146-0.022-0.219 0.058 0.048 0.111 0.102 0.165 0.155 0.063-0.115 0.146-0.217 0.207-0.333 0.064 0.024 0.129 0.046 0.195 0.066-0.036-0.148-0.054-0.301-0.11-0.443 0.069-0.019 0.138-0.035 0.208-0.053 0.010-0.247 0.058-0.493 0.143-0.723 0.076-0.090 0.139-0.19 0.218-0.277 0.088-0.027 0.182-0.005 0.273-0.010-0.013-0.152-0.171-0.12-0.279-0.132 0.101-0.088 0.193-0.186 0.288-0.28 0.046-0.007 0.093-0.006 0.14-0.008 0.066-0.13 0.194-0.203 0.313-0.277-0.107-0.096-0.132-0.235-0.117-0.373 0.202-0.052 0.36-0.196 0.534-0.303 0.006-0.083 0.001-0.167 0.024-0.247 0.063-0.051 0.115 0.032 0.172 0.054 0.028-0.026 0.034-0.065 0.039-0.1 0.018-0.138 0.051-0.275 0.094-0.407 0.043-0.069 0.125-0.1 0.188-0.148 0.113-0.072 0.161-0.211 0.274-0.282 0.094-0.056 0.229-0.036 0.295-0.137s0.139-0.197 0.251-0.248c-0.047 0.102-0.101 0.202-0.12 0.315 0.107-0.076 0.21-0.16 0.326-0.223 0.107 0.006 0.21 0.044 0.318 0.033 0.107 0.008 0.118-0.122 0.177-0.183 0.085-0.078 0.197-0.118 0.306-0.149 0.159-0.044 0.3-0.137 0.459-0.182-0.082 0.087-0.172 0.166-0.245 0.261 0.044 0.030 0.088 0.060 0.133 0.089 0.119-0.137 0.214-0.304 0.375-0.398 0.093-0.017 0.183 0.018 0.257 0.073-0.020-0.017-0.059-0.052-0.079-0.069 0.107-0.068 0.211-0.139 0.32-0.204 0.008 0.030 0.024 0.091 0.032 0.122 0.177-0.032 0.35-0.081 0.521-0.138 0.023 0.051 0.047 0.102 0.072 0.152 0.115-0.064 0.221-0.143 0.332-0.214 0.068-0.047 0.153-0.018 0.229-0.021 0.133 0.008 0.258-0.049 0.388-0.067 0.081-0.015 0.162 0.047 0.242 0.017 0.107-0.035 0.211-0.086 0.326-0.093 0.132-0.013 0.259 0.055 0.391 0.030 0.211-0.038 0.42-0.101 0.601-0.218 0.092 0.001 0.189 0.010 0.273-0.039 0.117-0.064 0.251-0.079 0.382-0.082-0.035 0.048-0.070 0.096-0.104 0.144 0.172 0.010 0.346-0.020 0.51-0.072 0.085-0.025 0.173-0.089 0.264-0.050 0.076 0.035 0.113 0.166 0.214 0.123 0.038-0.077 0.052-0.164 0.091-0.24 0.067-0.043 0.15-0.048 0.227-0.063-0.045 0.041-0.092 0.078-0.14 0.116 0.058 0.001 0.116 0.003 0.175 0.006-0.063 0.041-0.128 0.080-0.19 0.121 0.255-0.010 0.474-0.16 0.672-0.307-0.034-0.021-0.068-0.043-0.102-0.064 0.087-0.065 0.169-0.137 0.242-0.219-0.051-0.017-0.101-0.033-0.15-0.050 0.095-0.053 0.199-0.102 0.256-0.201-0.101 0.004-0.19 0.052-0.282 0.085-0.128 0.011-0.224-0.086-0.319-0.156 0.106-0.044 0.213-0.106 0.234-0.23-0.153 0.011-0.281 0.139-0.44 0.092-0.009-0.173 0.188-0.194 0.287-0.291-0.131 0.002-0.248 0.061-0.37 0.099-0.017-0.071-0.035-0.141-0.048-0.213-0.038-0.006-0.076-0.011-0.114-0.017 0.034-0.067 0.067-0.134 0.099-0.202-0.068 0.012-0.135 0.027-0.201 0.042 0.003-0.053 0.006-0.106 0.008-0.159-0.18 0.002-0.342 0.095-0.52 0.104-0.254 0.010-0.509 0.002-0.763-0.008 0.010 0.038 0.021 0.077 0.032 0.116-0.136 0.008-0.255 0.070-0.376 0.122-0.076 0.041-0.155-0.008-0.233-0.012-0.131 0-0.255 0.042-0.38 0.075-0.086-0.027-0.174-0.040-0.264-0.031-0.197-0.011-0.394-0.021-0.591 0.008 0.020-0.087 0.044-0.172 0.055-0.26-0.093 0.11-0.134 0.259-0.264 0.337-0.024-0.044-0.047-0.088-0.070-0.132-0.1 0.010-0.201 0.028-0.301 0.009-0.2-0.038-0.408-0.025-0.604 0.032-0.045-0.041-0.081-0.104-0.148-0.102-0.184-0.026-0.39-0.092-0.464-0.281-0.021 0.068-0.037 0.138-0.048 0.209-0.060 0.005-0.123 0.034-0.179 0.002-0.156-0.065-0.321-0.11-0.49-0.121-0.074-0.128-0.234-0.139-0.357-0.195-0.184-0.061-0.387-0.061-0.562-0.154 0.066-0.073 0.138-0.139 0.204-0.211-0.225 0.102-0.496 0.143-0.723 0.027-0.112-0.084-0.187-0.207-0.296-0.294-0.003 0.054-0.005 0.107-0.006 0.161-0.105-0.047-0.219-0.077-0.315-0.143-0.044-0.060-0.073-0.129-0.114-0.192 0.014 0.051 0.030 0.101 0.046 0.151-0.133-0.035-0.268-0.062-0.39-0.129-0.164-0.089-0.348-0.145-0.496-0.262-0.083-0.061-0.075-0.173-0.095-0.263-0.049 0.042-0.098 0.083-0.147 0.124-0.051-0.080-0.099-0.176-0.072-0.273 0.037-0.079 0.127-0.113 0.177-0.181 0.033-0.060 0.057-0.125 0.085-0.188-0.095 0.044-0.219 0.057-0.281 0.149-0.044 0.149-0.027 0.32-0.141 0.442-0.089-0.121-0.185-0.237-0.284-0.35 0.036-0.194 0.123-0.402 0.025-0.593-0.035 0.139-0.024 0.287-0.079 0.421-0.044 0.102-0.169 0.112-0.262 0.14-0.142 0.056-0.269-0.052-0.395-0.101 0.053-0.040 0.105-0.080 0.156-0.121-0.108-0.057-0.231-0.056-0.349-0.052 0.015-0.055 0.030-0.109 0.045-0.164-0.137 0.005-0.27 0.033-0.403 0.065 0.019-0.044 0.039-0.087 0.059-0.131-0.112 0.011-0.223 0.030-0.335 0.041-0.007-0.046-0.012-0.091-0.017-0.136-0.063-0-0.125 0.004-0.187-0.005-0.175-0.069-0.244-0.29-0.435-0.327-0.087-0.020-0.16-0.079-0.205-0.156-0.029-0.039-0.046-0.103-0.107-0.095-0.158-0.002-0.331-0.027-0.474 0.056zM7.311 8.013c0.004 0.052 0.007 0.104 0.011 0.157 0.018-0 0.053-0.001 0.071-0.001-0.004-0.044-0.007-0.087-0.011-0.13-0.018-0.007-0.053-0.019-0.071-0.025zM8.478 8.595c-0.002 0.155-0.010 0.311-0.075 0.454 0.047-0.063 0.1-0.123 0.132-0.196 0.029-0.088 0.014-0.181 0.012-0.271-0.017 0.003-0.051 0.010-0.068 0.013zM9.051 8.557c0.018 0.063 0.036 0.127 0.054 0.19 0.033-0.036 0.066-0.071 0.1-0.105-0.052-0.028-0.103-0.057-0.154-0.085zM10.705 9.556c0.059-0.057 0.069-0.13 0.039-0.204-0.057 0.057-0.067 0.129-0.039 0.204zM10.419 9.539c-0.018 0.053 0.001 0.071 0.055 0.055 0.017-0.054-0.001-0.072-0.055-0.055zM10.648 9.606c-0.050 0.013-0.031 0.101 0.021 0.086 0.050-0.014 0.031-0.102-0.021-0.086zM13.661 9.804c0.092-0.006 0.161-0.062 0.202-0.141-0.084 0.019-0.171 0.053-0.202 0.141zM10.549 9.738c-0.008 0.011-0.024 0.032-0.031 0.043 0.030 0.116 0.153-0.066 0.031-0.043zM12.094 10.213c-0.018 0.054 0 0.072 0.054 0.055 0.017-0.055-0.001-0.073-0.054-0.055zM12.447 10.527c0.039-0.069 0.18-0.201 0.047-0.249-0.096 0.054-0.075 0.162-0.047 0.249zM15.425 12.305c0.148-0.022 0.296-0.048 0.446-0.049-0.019-0.026-0.038-0.051-0.057-0.076-0.13 0.040-0.261 0.078-0.389 0.125zM12.543 12.74c-0.018 0.054 0 0.072 0.055 0.055 0.017-0.054-0.001-0.072-0.055-0.055zM6.245 20.756c-0.053 0.034 0.010 0.112 0.057 0.074 0.053-0.034-0.011-0.111-0.057-0.074zM6.389 20.976c-0.065 0.013-0.034 0.116 0.027 0.095 0.067-0.013 0.035-0.116-0.027-0.095zM6.138 22.32c0.047 0.023 0.101 0.022 0.148-0.001-0.019-0.017-0.057-0.051-0.076-0.068-0.018 0.017-0.054 0.052-0.072 0.069zM0.721 23.423c0.113 0.132-0.010 0.337 0.147 0.44 0.011-0.085 0.008-0.17 0.002-0.255 0.050-0.042 0.108-0.077 0.146-0.132-0.011-0.132-0.070-0.255-0.096-0.384-0.066 0.111-0.12 0.229-0.2 0.331zM0.611 23.477c-0.024 0.061-0.046 0.123-0.063 0.188 0.034-0.020 0.068-0.041 0.1-0.064-0.003-0.044-0.027-0.082-0.037-0.124zM6.649 27.055c-0.038 0.043 0.031 0.123 0.077 0.085 0.035-0.044-0.030-0.126-0.077-0.085zM6.776 27.26c0.048-0.010 0.097-0.018 0.145-0.027-0-0.040-0-0.080-0-0.119-0.049 0.048-0.096 0.098-0.145 0.146zM6.68 27.223c-0.043 0.010-0.069 0.087-0.012 0.097 0.073 0.019 0.098-0.127 0.012-0.097zM3.733 28.104c-0.054 0.045 0.033 0.112 0.075 0.066 0.051-0.047-0.033-0.112-0.075-0.066z"></path>
</svg>
