<!-- Generated by IcoMoon.io -->
<svg version="1.1" xmlns="http://www.w3.org/2000/svg" width="32" height="32" viewBox="0 0 32 32">
<title>clan-dromoka</title>
<path fill="#444" d="M2.38 3.241c0.538-0.386 1.178-0.538 1.804-0.715 0.523 0.079 1.055 0.046 1.583 0.050 4.624 0.001 9.248-0.002 13.872-0.001 1.306-0.039 2.597 0.211 3.9 0.276 0.928 0.037 1.857 0.089 2.787 0.043 1.252 0.002 2.504 0.018 3.756 0.025-1.583 0.365-3.206 0.505-4.792 0.847-0.691 0.073-1.396 0.156-2.081-0.009l0.512 0.212c-1.671 0.125-3.342 0.274-5.014 0.385-0.555 0.087-1.116 0.118-1.677 0.146 0.554 0.763 1.269 1.389 1.819 2.155 0.338 0.371 0.562 0.908 1.075 1.070 0.471 0.209 0.969 0.342 1.47 0.457 0.117 0.078 0.235 0.155 0.356 0.23 0.154 0.205 0.316 0.403 0.474 0.603 0.046 0.005 0.139 0.014 0.185 0.020-0.006 0.077-0.020 0.23-0.026 0.307 0.073 0.083 0.146 0.166 0.22 0.25 0.141 0.004 0.283 0.009 0.424 0.014 0.434-0.33 0.832-0.71 1.17-1.139 0.435-0.581 1.027-1.012 1.553-1.506 0.163 0.074 0.321 0.167 0.495 0.216 0.582-0.050 1.048-0.464 1.611-0.585 0.418-0.096 0.789-0.321 1.176-0.497-0.153 0.158-0.318 0.309-0.441 0.493-0.002 0.159 0.126 0.27 0.201 0.397-0.006 0.046-0.017 0.137-0.023 0.182 0.176 0.278 0.364 0.553 0.638 0.743-0.124 0.247-0.261 0.486-0.398 0.726 0.247-0.148 0.491-0.301 0.736-0.453 0.204-0.017 0.407-0.050 0.612-0.081-0.065 0.085-0.13 0.172-0.193 0.258 0.058 0.059 0.174 0.174 0.231 0.231 0.055 0.013 0.163 0.041 0.218 0.055-0.010 0.074-0.031 0.222-0.042 0.296 0.035 0.075 0.104 0.224 0.139 0.299-0.066 0.282-0.128 0.565-0.187 0.849 0.114 0.078 0.228 0.158 0.341 0.239 0.087-0.026 0.262-0.077 0.349-0.103-0.029 0.405 0.034 0.827-0.132 1.212 0.275-0.059 0.552-0.108 0.831-0.148-0.008 0.422-0.158 0.812-0.493 1.079 0.181-0.011 0.362-0.021 0.543-0.029-0.358 0.291-0.706 0.611-1.144 0.778 0.028 0.042 0.084 0.125 0.112 0.166-0.556 0.197-1.057 0.523-1.622 0.695-0.412 0.111-0.676 0.46-0.945 0.765 0.239 0.218 0.483 0.433 0.7 0.674-0.013 0.058-0.039 0.173-0.052 0.23 0.289 0.279 0.515 0.612 0.756 0.93-0.108 0.085-0.215 0.173-0.321 0.26 0.154 0.162 0.307 0.325 0.453 0.494-0.093 0.016-0.282 0.050-0.375 0.067-0.018 0.059-0.055 0.175-0.073 0.232 0.122 0.197 0.243 0.396 0.356 0.599-0.403-0.070-0.811-0.106-1.213-0.017 0.006 0.051 0.020 0.155 0.026 0.207-0.442-0.041-0.882-0.1-1.324-0.136-0.208 0.064-0.415 0.123-0.622 0.19-0.396-0.133-0.783-0.301-1.201-0.351-0.010 0.106-0.030 0.316-0.040 0.42 0.1 0.065 0.199 0.131 0.3 0.195-0.137 0.322-0.296 0.636-0.513 0.912-0.543 0.671-1.024 1.405-1.711 1.943 0.081-0.239 0.187-0.479 0.175-0.737-0.058-0.007-0.174-0.021-0.232-0.027-0.248 0.31-0.31 0.711-0.434 1.077-0.188 0.459-0.636 0.721-0.996 1.032-0.356 0.276-0.622 0.657-1.017 0.883-0.586 0.337-1.092 0.791-1.649 1.171-0.77 0.489-1.486 1.139-1.838 1.999 0.878 0.002 1.753-0.141 2.629-0.027 1.485 0.024 2.99 0.198 4.456-0.132-0.761 0.385-1.52 0.831-2.384 0.93-0.573 0.060-1.163 0.144-1.656 0.47-0.447-0.002-0.866 0.151-1.283 0.293-0.69 0.153-1.409 0.222-2.106 0.070-0.471 0.012-1.139-0.055-1.339 0.491-1.325 0.197-2.681-0.080-3.996 0.191-0.685 0.316-1.488 0.188-2.197 0.018-0.402 0.060-0.812 0.071-1.205-0.047 0.277-0.057 0.555-0.1 0.835-0.137-0.317-0.052-0.672-0.052-0.919-0.289-0.121-0.034-0.244-0.067-0.365-0.098 0.147-0.077 0.294-0.155 0.441-0.231-0.010-0.379-0.219-0.686-0.539-0.879 0.088-0.053 0.176-0.106 0.263-0.159 0.045-0.21 0.105-0.415 0.154-0.624 0.317 0.070 0.62-0.027 0.93-0.065 1.092 0.121 2.191 0.135 3.287 0.188 0.712 0.14 1.431 0.016 2.147 0.007-0.121-0.096-0.244-0.189-0.366-0.283 0.023-0.029 0.067-0.086 0.089-0.115-0.295-0.237-0.534-0.57-0.914-0.676-0.357-0.128-0.679-0.328-1.018-0.493-0.227-0.515-0.788-0.72-1.133-1.134-0.546-0.635-1.221-1.143-1.742-1.8-0.094 0.087-0.187 0.177-0.263 0.281-0.093-0.289-0.15-0.589-0.263-0.871-0.128-0.104-0.298-0.136-0.448-0.198-0.073 0.053-0.22 0.159-0.293 0.213 0.015-0.197 0.034-0.393 0.055-0.588-0.059-0.123-0.116-0.246-0.173-0.369-0.212 0.021-0.425 0.014-0.635 0.045-0.036-0.414-0.153-0.845-0.439-1.157-0.293-0.232-0.642-0.381-0.934-0.616-0.329-0.244-0.572-0.577-0.832-0.886-0.004 0.030-0.011 0.089-0.014 0.12-0.37-0.26-0.763-0.487-1.106-0.783-0.177 0.148-0.353 0.299-0.529 0.449-0.021-0.042-0.063-0.128-0.083-0.17-0.407 0.191-0.846 0.339-1.188 0.642-0.236 0.203-0.524 0.329-0.79 0.486 0.006-0.066 0.018-0.195 0.024-0.26-0.254 0.11-0.505 0.227-0.751 0.355 0.273-0.405 0.288-0.904 0.422-1.359 0.071-0.245 0.172-0.478 0.251-0.72 0.087-0.051 0.175-0.103 0.262-0.153 0.068-0.249 0.131-0.498 0.19-0.748-0.086 0.14-0.26 0.421-0.346 0.561 0.157-0.834 0.429-1.636 0.648-2.455-0.502-0.529-1.094-0.956-1.654-1.417-0.169-0.144-0.394-0.179-0.598-0.246 0.003-0.105 0.006-0.209 0.009-0.312 0.139-0.066 0.278-0.134 0.414-0.204-0.073-0.147-0.148-0.294-0.223-0.44 0.023-0.036 0.066-0.109 0.088-0.145-0.114-0.175-0.233-0.347-0.349-0.521 0.101-0.006 0.301-0.018 0.402-0.025-0.039-0.447-0.147-0.884-0.218-1.326 0.096 0.147 0.185 0.298 0.278 0.448 0.098 0.031 0.194 0.063 0.291 0.096 0.12-0.18 0.259-0.349 0.349-0.548 0.049-0.284 0.013-0.577 0.012-0.863 0.479 0.095 0.931-0.090 1.385-0.212 0.039-0.058 0.118-0.173 0.158-0.231-0.055-0.082-0.167-0.247-0.222-0.33 0.266 0.162 0.587 0.264 0.889 0.125 0.010-0.073 0.031-0.22 0.042-0.294 0.049 0.063 0.149 0.187 0.199 0.249 0.386-0.214 0.8-0.388 1.147-0.666 0.056 0.217 0.108 0.435 0.165 0.651 0.16-0.023 0.322-0.045 0.482-0.071 0.405 0.216 0.88 0.293 1.322 0.146 0.119 0.044 0.235 0.094 0.348 0.153-0.019 0.136-0.034 0.271-0.044 0.408 0.167 0.018 0.334 0.034 0.502 0.045-0.136 0.117-0.27 0.235-0.404 0.354 0.25 0.39 0.525 0.768 0.903 1.043 0.569-0.371 1.11-0.786 1.644-1.208 0.267-0.192 0.376-0.509 0.555-0.772 0.297-0.275 0.695-0.396 1.035-0.605 0.332-0.248 0.581-0.588 0.882-0.871 0.503-0.496 1.121-0.855 1.618-1.358 0.189-0.188 0.398-0.356 0.607-0.521-0.361-0.067-0.725-0.14-1.093-0.106-0.859 0.050-1.725 0.036-2.576-0.103-0.396 0.019-0.797 0.049-1.169 0.193-0.579 0.217-1.202 0.255-1.811 0.298-0.828 0.019-1.655 0.070-2.478 0.159-0.553 0.062-1.146-0.069-1.659 0.202-0.174-0.233-0.298-0.497-0.457-0.74 0.089-0.034 0.178-0.067 0.267-0.101-0.154-0.175-0.306-0.351-0.468-0.519 0.135-0.023 0.269-0.045 0.405-0.066 0.038-0.032 0.113-0.096 0.151-0.127-0.23-0.113-0.476-0.215-0.643-0.417 0.171-0.018 0.342-0.032 0.514-0.044-0.321-0.084-0.644-0.154-0.971-0.208zM13.817 7.96c-0.381 0.373-0.852 0.643-1.216 1.037-0.343 0.351-0.58 0.786-0.902 1.154-0.685 0.765-1.392 1.51-2.066 2.285 0.431 0.853 0.747 1.757 1.117 2.636 0.11 0.252 0.282 0.469 0.425 0.702 0.305 0.484 0.409 1.062 0.701 1.553 0.635 0.994 1.056 2.102 1.591 3.148 0.235 0.43 0.63 0.733 0.926 1.116 0.433 0.579 0.874 1.152 1.349 1.698 0.421-1.1 0.961-2.152 1.489-3.205 0.030-0.022 0.089-0.065 0.119-0.085 0.158-0.598 0.511-1.113 0.773-1.666 0.281-0.538 0.513-1.101 0.833-1.617 0.302-0.42 0.439-0.929 0.71-1.367 0.185-0.321 0.466-0.59 0.566-0.955 0.176-0.623 0.63-1.112 0.843-1.719-0.402-0.539-0.888-1.020-1.2-1.621-0.246-0.356-0.478-0.728-0.812-1.009-0.748-0.667-1.191-1.614-1.988-2.231-0.524-0.454-1.008-0.952-1.534-1.405-0.606 0.481-1.151 1.032-1.725 1.55z"></path>
</svg>
