<!-- Generated by IcoMoon.io -->
<svg version="1.1" xmlns="http://www.w3.org/2000/svg" width="31" height="32" viewBox="0 0 31 32">
<title>clan-atarka</title>
<path fill="#444" d="M20.696 0c0.728 0.409 1.158 1.153 1.522 1.874 0.232 0.593 0.257 1.242 0.252 1.871-0.013 0.807 0.070 1.643-0.224 2.415-0.219 0.809-0.889 1.383-1.149 2.176 0.206 0.095 0.406 0.202 0.599 0.322 0.423-0.147 0.756-0.473 1.185-0.603 1.182-0.297 2.305-0.785 3.486-1.087 1.111-0.174 2.372-0.117 3.269 0.647 0.396 0.36 0.845 0.662 1.364 0.812-1.098 0.183-2.264 0.146-3.284 0.648-0.769 0.32-1.541 0.659-2.181 1.204 0.707-0.254 1.506-0.408 2.229-0.134 0.478 0.267 0.96 0.55 1.362 0.925 0.35 0.276-0.025 0.708-0.091 1.042-0.369-0.774-1.387-1.227-2.198-0.898-0.576 0.23-1.291 0.291-1.71 0.792-0.383 0.979-1.071 1.857-1.134 2.941-0.014 0.725 0.117 1.459-0.042 2.178 0.054 0.060 0.11 0.119 0.166 0.178-0.135 0.379-0.189 0.78-0.22 1.179 0.039 0.027 0.117 0.081 0.157 0.108-0.262 0.563-0.72 0.986-1.212 1.348-0.392 0.267-0.631 0.744-1.102 0.889-0.538 0.63-1.070 1.277-1.742 1.77 0.755-0.949 1.575-1.849 2.265-2.85-0.762 0.621-1.52 1.257-2.203 1.967-0.048-0.001-0.146-0.002-0.195-0.002-0.372 0.44-0.782 0.85-1.12 1.32-0.241 0.339-0.395 0.737-0.67 1.053-0.167 0.171-0.423 0.145-0.64 0.164-0.041 0.034-0.123 0.101-0.164 0.136-0.035-0.017-0.103-0.053-0.137-0.071-0.259 0.194-0.526 0.376-0.819 0.514-1.191 0.54-2.239 1.387-3.063 2.395-0.603 1.008-1.267 2.004-1.625 3.133-0.145 0.545-0.269 1.095-0.391 1.644-0.21-0.755-0.643-1.461-0.62-2.267 0.007-0.651-0.016-1.305 0.013-1.956 0.062-0.511 0.167-1.017 0.268-1.521 0.148-0.689 0.688-1.182 1.057-1.755 0.399-0.62 0.872-1.187 1.271-1.807-0.331 0.030-0.641 0.142-0.948 0.261-0.61 0.169-1.22 0.335-1.83 0.499-0.413 0.116-0.749 0.398-1.13 0.585-0.63 0.317-1.136 0.817-1.685 1.25-0.536 0.514-1.157 0.939-1.637 1.511-0.595 0.68-0.941 1.524-1.423 2.279-0.264 0.427-0.398 0.917-0.57 1.385-0.052-0.456-0.079-0.916-0.163-1.367-0.214-1.056 0.122-2.111 0.144-3.168 0.003-0.569 0.139-1.132 0.375-1.648 0.26-0.563 0.432-1.175 0.8-1.683 0.409-0.569 0.831-1.131 1.312-1.64 0.296-0.315 0.677-0.534 0.972-0.85 0.226-0.24 0.435-0.496 0.643-0.752-1.412 0.123-2.885 0.172-4.192 0.778-0.566 0.35-1.148 0.733-1.526 1.296-0.54 0.757-1.201 1.418-1.749 2.167-0.258 0.325-0.224 0.749-0.238 1.139-0.225-0.44-0.432-0.911-0.365-1.419 0.103-0.902-0.016-1.823 0.191-2.713 0.197-0.655 0.409-1.309 0.726-1.917 0.226-0.446 0.589-0.801 0.827-1.241 0.35-0.608 0.874-1.084 1.307-1.629 0.263-0.314 0.279-0.74 0.403-1.114 0.195-0.6 0.428-1.196 0.473-1.832 0.060-0.702 0.225-1.404 0.581-2.018 0.208-0.337 0.284-0.731 0.442-1.088 0.26-0.308 0.593-0.544 0.86-0.845 0.362-0.474 0.968-0.628 1.422-0.989 0.308-0.251 0.685-0.377 1.076-0.415 0.208-0.214 0.427-0.434 0.722-0.521 0.474-0.13 0.767-0.604 1.267-0.673 0.622-0.090 1.224-0.294 1.856-0.315-0.010-0.032-0.031-0.096-0.041-0.127 1.060-0.201 2.151-0.397 3.229-0.21 0.308 0.067 0.611-0.203 0.631-0.507 0.079-0.516 0.235-1.095-0.071-1.569-0.426-0.709-1.284-0.892-1.956-1.276 0.963-0.026 1.986 0.124 2.8 0.675 0.344 0.215 0.735 0.414 0.934 0.786 0.242 0.452 0.477 0.918 0.561 1.43 0.385-0.513 0.945-0.855 1.322-1.373 0.289-0.361 0.72-0.589 0.969-0.985 0.205-0.349 0.284-0.759 0.294-1.161 0.005-0.565 0.046-1.146-0.141-1.691zM11.375 10.322c-0.463 0.34-0.811 0.803-1.197 1.223-0.366 0.286-0.566 0.722-0.83 1.095-0.14 0.371-0.172 0.777-0.301 1.156 0.361-0.092 0.707-0.242 1.008-0.465 0.253 0.096 0.505 0.196 0.76 0.289 0.141 0.085 0.263 0.196 0.38 0.311 0.027-0.049 0.079-0.149 0.105-0.199 0.071 0.487 0.464 0.823 0.586 1.291 0.043 0.037 0.129 0.112 0.172 0.15 0.002 0.335 0.062 0.814 0.516 0.763-0.279 0.24-0.557 0.484-0.839 0.722-0.214 0.074-0.511 0.054-0.65 0.256-0.073 0.319-0.023 0.648-0.003 0.97 0.176-0.149 0.345-0.305 0.512-0.464 0.010 0.079 0.029 0.237 0.039 0.316 0.213-0.285 0.461-0.544 0.74-0.764 0.309-0.313 0.781-0.185 1.17-0.289-0.029 0.046-0.088 0.136-0.117 0.182 0.234 0.030 0.487 0.057 0.534 0.341 0.437-0.248 0.82-0.585 1.285-0.781-0.375 0.451-0.745 0.917-1.007 1.445-0.086 0.203-0.203 0.437-0.112 0.658 0.112 0.214 0.29 0.383 0.433 0.575 0.163-0.082 0.325-0.162 0.489-0.24-0.074 0.238-0.11 0.518-0.332 0.671-0.178 0.198-0.527 0.314-0.515 0.624-0.051 0.344 0.316 0.539 0.6 0.596 0.32 0.054 0.537-0.236 0.726-0.444 0.063 0.023 0.126 0.046 0.19 0.069 0.471-0.594 1.261-0.767 1.745-1.337 0.065-0.012 0.196-0.038 0.262-0.051 0.244 0.536 0.678 0.951 0.919 1.489 0.438-0.186 0.794-0.523 1.246-0.682 0.321-0.14 0.685-0.197 0.969-0.413 0.322-0.307 0.473-0.737 0.634-1.14 0.038 0.011 0.114 0.034 0.152 0.046l0.035-0.148c0.103-0.069 0.253-0.115 0.26-0.265 0.097-0.583 0.004-1.175-0.039-1.759-0.124 0.129-0.249 0.258-0.378 0.382-0.191 0.294-0.376 0.591-0.568 0.885-0.102-0.622-0.005-1.345-0.459-1.848-0.157-0.191-0.184-0.444-0.241-0.675-0.041 0.017-0.124 0.050-0.165 0.067-0.017-0.054-0.050-0.163-0.067-0.217-0.037 0.050-0.111 0.15-0.148 0.2-0.418-0.688-0.897-1.367-1.043-2.177-0.060 0.057-0.18 0.171-0.24 0.227 0.132-0.922 0.645-1.705 1.067-2.514-0.353-0.007-0.705-0.054-1.059-0.061-0.423-0.014-0.79 0.228-1.148 0.423-0.076-0.036-0.152-0.072-0.227-0.108-0.333 0.092-0.694 0.148-0.97 0.369-0.253 0.216-0.335 0.557-0.45 0.854-0.083-0.643-0.586-1.058-0.977-1.521-0.069 0.127-0.138 0.255-0.207 0.384-0.084-0.242-0.17-0.485-0.262-0.725-0.225-0.236-0.406-0.509-0.581-0.783-0.822 0.298-1.654 0.586-2.402 1.045z"></path>
</svg>
