<!-- Generated by IcoMoon.io -->
<svg version="1.1" xmlns="http://www.w3.org/2000/svg" width="32" height="32" viewBox="0 0 32 32">
<title>clan-jeskai</title>
<path fill="#444" d="M10.919 2.885c0.185-0.044 0.368-0.096 0.542-0.172 0.186 0.012 0.376 0.053 0.543 0.138 0.101 0.046 0.21-0.054 0.311-0.019 0.097 0.057 0.182 0.131 0.271 0.199-0.090 0.080-0.159 0.181-0.256 0.253 0.069 0.098 0.177 0.152 0.289 0.189 0.057-0.051 0.12-0.18 0.21-0.118 0.106 0.076 0.237 0.114 0.337 0.198 0.059 0.083 0.011 0.177-0.090 0.18-0.037-0.061-0.064-0.133-0.123-0.177-0.14-0.017-0.281 0.009-0.418 0.038-0.046 0.056-0.035 0.14-0.079 0.199-0.044 0.056-0.093 0.109-0.137 0.165 0.036 0.021 0.070 0.043 0.108 0.061 0.060-0.025 0.107-0.071 0.166-0.099 0.109-0.008 0.227 0.027 0.327-0.034 0.108-0.066 0.243-0.018 0.351-0.081 0.157-0.083 0.333-0.111 0.501-0.163 0.14-0.041 0.278-0.093 0.424-0.115-0.076 0.050-0.163 0.088-0.218 0.165 0.087 0.005 0.174-0.004 0.257-0.030 0.111-0.035 0.229 0.002 0.342-0.021 0.15-0.048 0.294-0.117 0.448-0.153 0.246-0.001 0.489 0.058 0.735 0.054 0.11-0.019 0.219-0.043 0.332-0.042 0.114 0.002 0.218-0.074 0.333-0.046 0.251 0.050 0.509 0.046 0.758 0.111-0.006-0.039-0.011-0.079-0.015-0.118 0.099 0.042 0.191 0.099 0.29 0.141 0.104-0.009 0.047-0.147 0.049-0.217 0.082 0.017 0.166 0.023 0.246-0.004 0.118 0.065 0.248 0.102 0.369 0.16-0.010-0.038-0.020-0.075-0.029-0.113 0.182 0.030 0.367 0.024 0.549 0.002 0.063-0.011 0.109 0.043 0.164 0.065 0.095 0.055 0.208 0.030 0.312 0.033-0.031-0.030-0.063-0.059-0.093-0.089 0.079 0.009 0.158 0.017 0.237 0.003 0.131-0.044 0.219 0.122 0.351 0.081 0.256-0.049 0.474 0.134 0.721 0.154 0.207-0.039 0.41 0.041 0.611 0.081 0.187 0.091 0.364 0.237 0.583 0.235 0.102-0.001 0.169-0.083 0.233-0.15 0.029 0.018 0.058 0.036 0.088 0.055-0.029 0.039-0.057 0.077-0.085 0.116 0.015 0.011 0.046 0.034 0.061 0.046 0.060-0.048 0.12-0.096 0.182-0.143 0.106 0.039 0.217 0.054 0.329 0.032 0.154-0.030 0.274 0.109 0.425 0.102 0.199-0.018 0.364 0.121 0.558 0.141 0.168 0.018 0.309 0.126 0.477 0.144 0.074 0.014 0.155 0.012 0.223 0.051 0.181 0.107 0.352 0.232 0.542 0.322 0.136 0.068 0.3 0.078 0.415 0.185 0.096 0.090 0.207 0.164 0.332 0.207 0.015-0.041 0.030-0.081 0.045-0.122 0.134 0.050 0.27 0.099 0.391 0.178 0.156 0.097 0.257 0.265 0.431 0.336 0.231 0.101 0.427 0.262 0.633 0.403 0.098 0.066 0.17 0.169 0.284 0.209 0.157 0.073 0.286 0.195 0.451 0.256 0.485 0.221 0.813 0.663 1.266 0.933 0.079 0.054 0.147 0.122 0.23 0.17 0.182 0.1 0.3 0.279 0.469 0.397 0.126 0.086 0.23 0.197 0.306 0.33 0.085 0.148 0.24 0.23 0.375 0.323 0.128 0.104 0.262 0.218 0.32 0.378-0.068-0.037-0.13-0.082-0.193-0.126 0.053 0.141 0.097 0.329 0.249 0.39 0.141-0.028 0.251 0.084 0.321 0.192 0.062 0.112 0.038 0.252 0.107 0.362 0.073 0.113 0.133 0.238 0.235 0.33 0.123 0.116 0.254 0.229 0.334 0.382-0.162-0.11-0.298-0.253-0.458-0.365 0.041 0.252 0.246 0.427 0.371 0.637 0.030 0.107 0.002 0.223 0.037 0.33 0.042 0.19 0.203 0.317 0.288 0.485 0.005 0.136 0.012 0.274 0.067 0.401-0.055-0.012-0.11-0.025-0.164-0.038 0.023 0.098-0.031 0.185-0.043 0.28-0.029 0.127 0.063 0.237 0.106 0.35-0.064-0.019-0.126-0.047-0.192-0.058-0.040 0.033-0.078 0.069-0.116 0.104 0.083 0.092 0.161 0.188 0.231 0.292-0.054 0.045-0.125 0.081-0.148 0.153-0.017 0.055-0.066 0.087-0.109 0.119 0.029 0.080 0.058 0.161 0.075 0.245-0.065-0.057-0.117-0.126-0.176-0.188-0.051 0.020-0.094 0.057-0.139 0.087 0.052 0.081 0.117 0.153 0.18 0.226-0.069-0.016-0.137-0.036-0.205-0.054 0.002 0.075 0.004 0.149 0.001 0.224-0.129-0.033-0.194-0.164-0.316-0.211 0.079 0.124 0.224 0.199 0.267 0.346-0.097-0.041-0.19-0.095-0.294-0.116 0.024 0.139 0.216 0.146 0.227 0.283 0.024 0.119-0.048 0.233-0.028 0.352 0.013 0.115 0.032 0.23 0.026 0.346-0.093-0.165-0.121-0.358-0.204-0.528-0.025-0.049-0.088-0.048-0.132-0.066-0.004 0.115 0.084 0.201 0.125 0.303-0.071 0.011-0.167-0.034-0.215 0.038-0.089 0.095-0.12 0.23-0.215 0.321-0.050 0.082-0.197-0.023-0.2 0.104 0.026 0.151-0.040 0.287-0.102 0.421 0.102 0.099 0.24 0.184 0.27 0.333-0.116-0.068-0.177-0.192-0.268-0.285-0.093-0.098-0.139-0.228-0.233-0.325-0.022 0.055-0.062 0.106-0.067 0.166 0.048 0.115 0.104 0.226 0.153 0.341-0.157-0.102-0.333-0.173-0.517-0.207 0.027 0.054 0.057 0.108 0.088 0.161-0.089-0.060-0.19-0.036-0.283-0.003 0.038 0.135 0.136 0.238 0.207 0.356-0.169-0.132-0.314-0.291-0.456-0.451-0.006 0.025-0.019 0.074-0.025 0.099-0.185 0.014-0.365-0.039-0.549-0.030-0.094 0.007-0.181-0.032-0.269-0.056-0.098-0.031-0.201-0.002-0.299 0.006-0.1 0.023-0.175-0.064-0.267-0.085-0.085-0.004-0.163 0.050-0.245 0.047-0.117-0.066-0.247-0.095-0.379-0.111-0.104-0.004-0.127-0.163-0.235-0.143-0.050 0.069-0.087 0.154-0.179 0.173 0.112 0.156 0.17 0.338 0.226 0.52-0.087-0.075-0.166-0.157-0.238-0.246-0.003 0.047-0.007 0.094-0.010 0.141-0.087-0.092-0.165-0.191-0.241-0.292 0.059 0.003 0.118 0.007 0.178 0.008-0.023-0.063-0.063-0.117-0.111-0.163-0.033 0.029-0.067 0.056-0.102 0.083-0.127-0.026-0.182-0.156-0.28-0.224-0.091-0.064-0.178-0.133-0.272-0.192-0.103-0.059-0.088-0.214-0.198-0.266-0.123-0.071-0.22-0.191-0.367-0.215 0.171 0.406 0.56 0.652 0.858 0.959 0.134 0.101 0.253 0.222 0.402 0.303-0.013 0.033-0.025 0.065-0.038 0.098-0.101-0.054-0.152-0.16-0.234-0.234-0.104-0.098-0.231-0.168-0.335-0.265-0.111-0.102-0.248-0.172-0.353-0.281-0.11-0.113-0.223-0.222-0.337-0.331-0.073-0.063-0.082-0.165-0.107-0.252 0.038-0.038 0.075-0.075 0.112-0.114-0.061-0.022-0.141-0.063-0.19 0.004 0.004 0.061 0.020 0.121 0.032 0.182-0.114-0.089-0.223-0.183-0.325-0.285-0.002-0.032-0-0.063-0.007-0.094-0.085-0.123-0.223-0.192-0.319-0.304-0.075-0.083-0.143-0.178-0.248-0.224-0.15-0.077-0.264-0.214-0.426-0.266-0.1-0.036-0.174-0.117-0.262-0.173-0.225-0.144-0.423-0.325-0.625-0.498 0.049-0.089-0.061-0.146-0.116-0.196-0.139-0.091-0.28-0.181-0.389-0.309-0.317-0.129-0.58-0.354-0.87-0.532-0.158-0.096-0.335-0.166-0.467-0.299-0.074-0.069-0.139-0.153-0.231-0.199-0.123-0.043-0.263-0.025-0.378-0.093-0.305-0.191-0.643-0.316-0.967-0.467-0.218-0.051-0.431-0.126-0.655-0.144-0.151-0.007-0.275-0.102-0.414-0.149-0.161-0.048-0.299-0.147-0.45-0.218-0.024 0.052-0.048 0.103-0.074 0.154-0.034-0.068-0.068-0.135-0.106-0.2-0.051 0.031-0.098 0.068-0.14 0.111 0.002-0.062-0-0.124-0.007-0.186-0.072 0.031-0.14 0.068-0.207 0.108-0.239-0.124-0.508-0.176-0.77-0.23-0.123-0.034-0.219 0.063-0.298 0.14 0.1 0.208 0.222 0.425 0.431 0.54 0.191 0.104 0.387 0.2 0.592 0.272 0.297 0.079 0.402 0.411 0.643 0.572-0.045-0.122-0.116-0.234-0.146-0.361 0.248 0.118 0.289 0.443 0.532 0.563 0.121 0.066 0.16 0.214 0.275 0.289 0.122 0.091 0.279 0.138 0.38 0.254 0.149 0.336 0.348 0.649 0.587 0.928-0.003-0.066-0.009-0.132-0.012-0.198 0.061 0.072 0.128 0.141 0.171 0.226 0.027 0.094 0.016 0.194 0.045 0.288 0.042 0.080 0.171 0.090 0.182 0.189 0.022 0.133 0.062 0.262 0.104 0.39 0.042 0.121-0.037 0.236-0.068 0.35 0.039 0.067 0.078 0.134 0.117 0.201-0.035 0.084-0.112 0.168-0.080 0.265 0.034 0.106 0.090 0.203 0.153 0.295 0.025-0.144-0.004-0.289 0-0.433 0.148 0.063 0.13 0.271 0.286 0.324 0 0.152-0.016 0.303-0.031 0.454-0.017 0.096 0.052 0.175 0.068 0.266 0.013 0.069 0.019 0.139 0.031 0.209 0.032-0.056 0.062-0.113 0.092-0.171 0.015 0.027 0.030 0.054 0.046 0.081 0.035-0.018 0.069-0.036 0.105-0.054 0.002 0.1 0.023 0.199 0.102 0.267-0.061 0.186 0.042 0.369 0.010 0.557-0.004 0.076-0.035 0.146-0.074 0.209-0.043-0.074-0.052-0.188-0.154-0.2-0.041 0.11-0.103 0.214-0.115 0.333-0.021 0.258-0.097 0.508-0.115 0.766-0.006 0.233-0.192 0.396-0.322 0.57 0.050-0.139 0.147-0.275 0.126-0.428-0.048-0.112-0.114-0.215-0.165-0.325-0.033 0.036-0.094 0.062-0.092 0.118 0.015 0.097 0.064 0.184 0.096 0.276-0.048 0.005-0.096 0.010-0.144 0.014-0.036-0.128-0.041-0.27-0.124-0.38-0.034 0.163 0.015 0.324 0.064 0.478-0.067 0.076-0.185 0.132-0.181 0.248-0.015 0.165-0.082 0.324-0.066 0.491 0.002 0.071 0.021 0.146-0.002 0.216-0.051 0.111-0.168 0.166-0.244 0.256-0.033 0.063-0.038 0.136-0.067 0.201-0.061 0.061-0.144 0.094-0.22 0.133 0.023-0.108 0.076-0.205 0.11-0.308-0.041-0.011-0.082-0.021-0.123-0.031-0.096 0.17-0.173 0.355-0.308 0.499-0.184 0.201-0.386 0.383-0.593 0.559-0.015-0.020-0.045-0.059-0.060-0.078-0.1 0.119-0.206 0.233-0.329 0.329 0.066-0.163 0.122-0.33 0.21-0.483 0.019-0.128 0.090-0.233 0.173-0.328-0.090-0.071-0.198-0.137-0.211-0.263-0.17 0.115-0.269 0.301-0.411 0.443-0.078 0.079-0.182 0.127-0.255 0.211-0.037 0.071-0.039 0.154-0.070 0.228-0.083 0.077-0.197 0.111-0.278 0.192-0.271 0.275-0.514 0.586-0.837 0.802-0.075-0.017-0.054-0.116-0.082-0.17-0.143-0.025-0.249 0.082-0.334 0.182-0.059 0.076-0.093 0.17-0.165 0.236-0.059 0.046-0.13 0.072-0.195 0.108-0.104 0.047-0.132 0.178-0.236 0.227-0.254 0.125-0.521 0.225-0.763 0.372-0.129 0.079-0.201 0.222-0.327 0.304-0.126 0.077-0.276-0.028-0.407 0.030-0.109 0.046-0.205 0.122-0.323 0.144-0.128 0.034-0.273 0.030-0.379 0.12-0.050 0.042-0.113 0.062-0.175 0.082 0.021-0.043 0.042-0.086 0.064-0.129-0.14-0.017-0.28 0.016-0.42 0.014 0.092-0.056 0.198-0.085 0.287-0.146 0.053-0.064 0.068-0.151 0.114-0.22 0.045-0.067 0.103-0.125 0.154-0.187-0.027-0.053-0.055-0.106-0.080-0.16 0.119-0.069 0.248-0.121 0.375-0.174-0.017-0.056-0.036-0.111-0.053-0.166 0.074-0.138 0.153-0.274 0.257-0.391 0.073-0.070 0.024-0.175 0.045-0.261 0.032-0.079 0.084-0.147 0.129-0.218-0.014-0.052-0.031-0.102-0.044-0.154 0.135-0.148 0.172-0.347 0.24-0.529 0.033-0.097 0.002-0.211 0.075-0.293 0.11-0.132 0.063-0.322-0.035-0.446-0.067-0.068-0.011-0.156-0.019-0.235-0.031-0.101-0.067-0.2-0.087-0.303 0.050 0.006 0.1 0.014 0.15 0.020 0.014-0.098 0.026-0.197 0.018-0.295 0.002-0.149-0.166-0.208-0.227-0.329-0.068-0.005-0.136-0.008-0.203-0.011 0.001-0.047 0.003-0.095 0.004-0.142-0.090-0.016-0.188-0.019-0.264-0.076-0.228-0.157-0.465-0.309-0.649-0.519-0.15-0.158-0.263-0.346-0.358-0.542-0.064-0.119-0.12-0.25-0.225-0.339-0.134-0.056-0.282-0.080-0.405-0.163-0.124-0.084-0.282-0.104-0.395-0.204-0.087-0.097-0.195-0.171-0.317-0.217-0.091-0.035-0.22 0.053-0.281-0.055-0.088-0.088-0.056-0.215-0.037-0.323-0.096-0.034-0.194-0.067-0.277-0.127 0.076-0.005 0.152-0.005 0.228-0.008-0.041-0.064-0.075-0.138-0.144-0.176-0.077-0.044-0.161-0.079-0.216-0.152 0.114-0.079 0.295-0.171 0.249-0.339-0.048-0.187-0.298 0.042-0.36-0.107 0.033-0.053 0.078-0.096 0.12-0.143-0.024-0.096-0.003-0.225-0.098-0.285-0.040-0.027-0.086-0.045-0.129-0.066 0.019-0.072 0.070-0.126 0.121-0.178-0.025-0.141-0.138-0.228-0.255-0.294 0.060-0.080 0.119-0.16 0.179-0.239-0.018-0.066-0.037-0.13-0.057-0.195 0.037-0.048 0.074-0.095 0.11-0.143-0.019-0.074-0.079-0.153-0.036-0.23 0.045-0.14 0.14-0.252 0.228-0.367 0.055-0.162 0.082-0.34 0.195-0.476 0.103-0.126 0.147-0.29 0.264-0.404 0.089-0.087 0.143-0.212 0.143-0.337-0.021-0.135-0.079-0.263-0.071-0.401-0.127 0.022-0.233 0.116-0.366 0.109-0.108-0.006-0.186 0.082-0.274 0.129-0.125 0.085-0.275 0.119-0.404 0.196-0.055 0.064-0.054 0.16-0.103 0.228-0.034 0.012-0.069 0.021-0.104 0.030 0.006-0.067 0.016-0.134 0.026-0.2-0.127 0.065-0.259 0.12-0.396 0.159-0.185 0.067-0.282 0.247-0.396 0.394 0.004-0.068 0.013-0.136 0.020-0.204-0.168 0.126-0.327 0.268-0.521 0.353 0.083-0.085 0.177-0.159 0.25-0.254-0.255 0.082-0.461 0.271-0.637 0.467-0.086 0.084-0.222 0.051-0.319 0.113-0.075 0.069-0.133 0.156-0.214 0.219-0.069 0.059-0.159 0.083-0.234 0.132-0.073 0.066-0.114 0.181-0.21 0.214-0.142-0.054-0.263 0.063-0.371 0.139-0.179 0.16-0.4 0.262-0.592 0.404-0.151 0.026-0.314 0.017-0.46 0.081-0.103 0.048-0.213 0.078-0.319 0.116-0.318 0.194-0.582 0.459-0.873 0.688-0.525 0.356-1.003 0.774-1.494 1.173-0.119 0.104-0.197 0.246-0.321 0.345-0.169 0.13-0.293 0.31-0.468 0.432-0.158 0.107-0.319 0.211-0.466 0.335-0.223 0.189-0.385 0.436-0.592 0.641-0.11 0.109-0.185 0.244-0.272 0.37-0.036-0.026-0.071-0.052-0.106-0.077-0.055 0.028-0.111 0.055-0.167 0.081-0.067-0.039-0.136-0.076-0.192-0.129 0.026-0.104 0.034-0.208-0.022-0.305-0.022-0.211 0.173-0.366 0.174-0.573 0.103-0.168 0.096-0.369 0.16-0.551-0.039 0.009-0.078 0.019-0.117 0.030 0.079-0.1 0.165-0.204 0.184-0.335 0.044-0.266 0.166-0.51 0.28-0.751 0.065-0.127 0.012-0.277 0.065-0.407 0.058-0.065 0.14-0.109 0.169-0.196 0.079-0.197 0.265-0.315 0.38-0.487 0.076-0.115 0.182-0.209 0.23-0.341 0.081-0.136 0.222-0.222 0.335-0.33 0.139-0.149 0.245-0.33 0.401-0.463 0.155-0.135 0.266-0.317 0.451-0.416 0.149-0.080 0.239-0.228 0.362-0.339 0.062-0.054 0.058-0.142 0.079-0.215 0.082-0.009 0.183 0.009 0.244-0.062 0.080-0.076 0.078-0.193 0.115-0.29 0.126-0.201 0.337-0.336 0.44-0.554 0.085-0.172 0.139-0.36 0.246-0.521 0.134-0.236 0.339-0.418 0.545-0.59 0.089-0.085 0.192-0.163 0.247-0.277 0.074-0.157 0.184-0.293 0.261-0.448 0.106-0.207 0.266-0.376 0.419-0.547 0.074-0.071 0.172-0.113 0.238-0.193 0.043-0.060 0.072-0.128 0.11-0.191 0.021 0.041 0.042 0.083 0.063 0.125 0.107-0.144 0.225-0.293 0.396-0.365 0.050-0.020 0.090-0.056 0.129-0.093-0.035-0.044-0.072-0.086-0.107-0.129 0.093 0.012 0.186 0.002 0.263-0.054-0.007-0.095-0.005-0.191 0.054-0.271 0.007 0.033 0.022 0.098 0.029 0.13 0.145-0.116 0.282-0.243 0.44-0.342 0.192-0.117 0.383-0.237 0.565-0.37 0.091-0.057 0.093-0.195 0.2-0.23 0.15-0.063 0.277-0.166 0.409-0.259 0.162-0.096 0.2-0.299 0.336-0.422-0.003 0.042-0.007 0.084-0.009 0.127 0.050-0.041 0.124-0.068 0.14-0.137 0.022-0.086 0.036-0.177 0.105-0.24 0.006 0.061 0.013 0.122 0.019 0.183 0.040-0.049 0.077-0.1 0.112-0.153 0.057 0.008 0.114 0.017 0.171 0.025 0.031-0.136 0.090-0.261 0.182-0.367-0.129 0.059-0.26 0.12-0.404 0.123-0.155 0.011-0.243 0.156-0.299 0.284-0.026-0.048-0.052-0.096-0.078-0.143-0.129 0.068-0.261 0.13-0.38 0.213-0.117 0.083-0.266 0.086-0.396 0.134-0.083 0.061-0.167 0.122-0.272 0.134-0.183 0.031-0.3 0.185-0.441 0.29-0.137 0.107-0.266 0.225-0.397 0.339-0.074 0.068-0.176 0.086-0.264 0.126 0.063-0.145 0.115-0.295 0.195-0.433 0.148-0.27 0.243-0.585 0.498-0.778 0.026 0.032 0.052 0.064 0.078 0.095 0.147-0.082 0.080-0.271 0.096-0.408 0.135-0.017 0.27-0.037 0.405-0.059 0.028-0.151 0.127-0.267 0.214-0.388-0.061 0.014-0.121 0.029-0.181 0.044 0.030-0.095 0.048-0.201 0.125-0.271 0.124-0.119 0.218-0.265 0.336-0.388 0.015 0.021 0.046 0.063 0.062 0.085 0.11-0.038 0.068-0.184 0.165-0.235 0.133-0.099 0.252-0.215 0.379-0.321 0.089-0.075 0.108-0.198 0.184-0.283 0.060-0.034 0.13-0.046 0.192-0.078 0.047-0.040 0.081-0.092 0.129-0.132 0.055-0.001 0.103 0.037 0.156 0.050 0.084 0.031 0.168-0.015 0.248-0.040-0.002-0.037-0.003-0.073-0.005-0.11 0.133-0.026 0.265-0.066 0.381-0.138-0.047-0.044-0.094-0.086-0.139-0.131 0.136-0.046 0.282-0.059 0.416-0.112 0.111-0.052 0.237-0.016 0.354-0.045zM15.438 9.919c0.225 0.069 0.441 0.173 0.677 0.202-0.017-0.112-0.019-0.226-0.016-0.339-0.222 0.029-0.457 0.040-0.661 0.137zM13.158 3.327c0.136 0.067 0.234 0.186 0.301 0.319 0.047-0.041 0.094-0.082 0.141-0.123-0.136-0.083-0.281-0.15-0.411-0.242-0.008 0.011-0.024 0.034-0.031 0.046zM9.001 3.705c-0.041 0.007-0.092 0.059-0.067 0.102 0.048 0.027 0.126-0.079 0.067-0.102zM8.7 3.995c-0.008 0.010-0.024 0.031-0.032 0.042 0.030 0.117 0.157-0.061 0.032-0.042zM8.431 6.237c-0.019 0.054-0.001 0.072 0.054 0.052 0.019-0.054 0-0.072-0.054-0.052zM6.58 7.24c0.093-0.024 0.144-0.101 0.151-0.193-0.080 0.038-0.132 0.108-0.151 0.193zM31.821 12.742c-0.020 0.128-0.006 0.307 0.132 0.365-0.018-0.128-0.036-0.268-0.132-0.365zM31.714 13.976c-0.053 0.061-0.135 0.085-0.202 0.127 0.054 0.036 0.111 0.069 0.171 0.095 0.090-0.13 0.101-0.291 0.101-0.444-0.025 0.073-0.038 0.151-0.070 0.221zM31.348 14.421c0.033 0.066 0.070 0.13 0.11 0.193 0.063-0.045 0.106-0.109 0.105-0.189-0.072-0.009-0.144-0.010-0.215-0.003zM10.201 15.658c0.001 0.081-0.002 0.176 0.104 0.181-0.002-0.072-0.008-0.18-0.104-0.181zM10.153 16.015c0.033 0.017 0.067 0.035 0.101 0.052 0.010-0.021 0.030-0.064 0.040-0.086-0.052-0.017-0.099 0.003-0.141 0.034zM10.903 16.298c-0.040 0.048 0.044 0.105 0.077 0.054 0.039-0.049-0.045-0.105-0.077-0.054zM11.278 16.392c0.052 0.097 0.149 0.153 0.255 0.173-0.074-0.072-0.16-0.132-0.255-0.173zM25.726 20.551c-0.091 0.011-0.201-0.002-0.27 0.072-0.052 0.041-0.089 0.117-0.164 0.115-0.115 0.010-0.235-0.004-0.342 0.048-0.202 0.090-0.378 0.23-0.579 0.322-0.111 0.049-0.2 0.132-0.277 0.222-0.152 0.177-0.389 0.232-0.578 0.355-0.131 0.087-0.268 0.178-0.348 0.317-0.061 0.093-0.104 0.204-0.2 0.268-0.119 0.078-0.252 0.137-0.39 0.174 0.111-0.16 0.308-0.228 0.422-0.385-0.281 0.069-0.522 0.252-0.724 0.453-0.18 0.174-0.429 0.251-0.609 0.425-0.076 0.068-0.141 0.152-0.234 0.199-0.167 0.083-0.362 0.085-0.526 0.177-0.195 0.107-0.371 0.246-0.533 0.398-0.088 0.082-0.183 0.161-0.297 0.203-0.251 0.096-0.53 0.053-0.781 0.149-0.298 0.076-0.566 0.258-0.88 0.265-0.022-0.055-0.044-0.11-0.068-0.163-0.049 0.059-0.082 0.131-0.135 0.188-0.13 0.077-0.274 0.131-0.425 0.142 0.025 0.035 0.051 0.069 0.077 0.105-0.219-0.024-0.443-0.038-0.658 0.020-0.158 0.051-0.324 0.014-0.486 0.019 0.061 0.042 0.124 0.082 0.184 0.126-0.217 0.025-0.429-0.048-0.646-0.048-0.107 0.001-0.228-0.011-0.313 0.069-0.065 0.074-0.129-0.030-0.187-0.061 0.042-0.072 0.080-0.146 0.1-0.228-0.056-0.007-0.112-0.011-0.168-0.014-0.020 0.089-0.036 0.179-0.053 0.269-0.136 0.001-0.29 0.031-0.401-0.065-0.136-0.038-0.287-0.006-0.419 0.041-0.18 0.055-0.368-0.008-0.526-0.095-0.077 0.010-0.121 0.098-0.198 0.108-0.061-0.030-0.114-0.072-0.171-0.108-0.065 0.029-0.125 0.078-0.198 0.085-0.11-0.015-0.192-0.135-0.309-0.097-0.197 0.041-0.366-0.088-0.511-0.202 0.018 0.057 0.038 0.114 0.055 0.171-0.073-0.010-0.146-0.021-0.218-0.038-0.17-0.035-0.309-0.149-0.473-0.202-0.049 0.029-0.091 0.075-0.148 0.085-0.064-0.012-0.124-0.036-0.184-0.058 0.018-0.038 0.036-0.076 0.054-0.113-0.133 0.006-0.265 0.031-0.398 0.019-0.163-0.012-0.316-0.077-0.476-0.105-0.197-0.034-0.381-0.111-0.569-0.173 0.046 0.056 0.095 0.11 0.14 0.168-0.11-0.038-0.199-0.114-0.298-0.172-0.417-0.219-0.86-0.383-1.307-0.528-0.331-0.137-0.663-0.278-0.97-0.463-0.197-0.115-0.298-0.334-0.481-0.465 0.069 0.126 0.153 0.243 0.209 0.376-0.045-0.016-0.091-0.033-0.136-0.048 0.020 0.216 0.257 0.311 0.328 0.507-0.223-0.090-0.388-0.272-0.523-0.464 0.002 0.049 0.006 0.099 0.009 0.149-0.084-0.019-0.184-0.014-0.248-0.082-0.108-0.103-0.211-0.214-0.339-0.294-0.104-0.063-0.187-0.152-0.276-0.233-0.024 0.020-0.048 0.040-0.071 0.060-0.069-0.069-0.136-0.14-0.208-0.207-0.101-0.105-0.253-0.126-0.366-0.215 0.028 0.057 0.056 0.114 0.082 0.172-0.056-0.031-0.117-0.059-0.159-0.11-0.108-0.127-0.247-0.226-0.398-0.296-0 0.031-0.001 0.094-0.001 0.125-0.17-0.163-0.406-0.228-0.567-0.4-0.133-0.115-0.296-0.188-0.427-0.306-0.134-0.085-0.231-0.221-0.382-0.277 0.006 0.13 0.061 0.247 0.133 0.353-0.045-0.006-0.090-0.013-0.135-0.019 0.148 0.225 0.362 0.399 0.49 0.638 0.075 0.116 0.101 0.254 0.155 0.379 0.117 0.169 0.335 0.259 0.405 0.462 0.049 0.136 0.124 0.261 0.201 0.384 0.016-0.068 0.032-0.135 0.051-0.202 0.109 0.1 0.102 0.248 0.078 0.381 0.203 0.152 0.398 0.317 0.572 0.502 0.057 0.053 0.064 0.134 0.091 0.203 0.128 0.135 0.316 0.193 0.448 0.324 0.085 0.082 0.162 0.171 0.251 0.25 0.227 0.208 0.517 0.324 0.766 0.502-0.083-0.021-0.164-0.046-0.248-0.063 0.17 0.172 0.393 0.278 0.579 0.43 0.163 0.116 0.28 0.279 0.399 0.436 0.086 0.118 0.248 0.025 0.367 0.027 0.077 0.239 0.242 0.479 0.505 0.528 0.117 0.009 0.206 0.090 0.264 0.187-0.085-0.030-0.167-0.069-0.252-0.1 0.051 0.073 0.1 0.147 0.16 0.214 0.069 0.055 0.157 0.080 0.236 0.119-0.017 0.098-0.001 0.201 0.070 0.277 0.077 0.129 0.247 0.097 0.36 0.171 0.105 0.064 0.206 0.135 0.316 0.189-0.056-0.070-0.114-0.139-0.164-0.214 0.070 0.012 0.154 0.010 0.204 0.070 0.131 0.136 0.286 0.246 0.414 0.387 0.086 0.1 0.239 0.077 0.335 0.163 0.138 0.114 0.35 0.203 0.34 0.415-0.063 0.032-0.125 0.064-0.186 0.099 0.013 0.020 0.038 0.059 0.050 0.079 0.094 0.015 0.197 0.007 0.283 0.056 0.096 0.080 0.157 0.203 0.276 0.254 0.114 0.047 0.232 0.090 0.354 0.111 0.089-0.001 0.177-0.021 0.265-0.031-0.030-0.056-0.061-0.112-0.091-0.168 0.106-0.016 0.215-0.028 0.314-0.073 0.071-0.030 0.149-0.073 0.228-0.042 0.167 0.058 0.311 0.166 0.479 0.224-0.022-0.060-0.046-0.119-0.067-0.178 0.087 0.018 0.177 0.036 0.25 0.090 0.165 0.126 0.333 0.248 0.51 0.356 0.142 0.059 0.295 0.091 0.446 0.118 0.166-0.006 0.332-0.014 0.498-0.005 0.128 0.012 0.241-0.055 0.354-0.101 0.067-0.031 0.141-0.004 0.211-0.007 0.19-0.011 0.378-0.051 0.561-0.104 0.043 0.023 0.083 0.075 0.138 0.061 0.196-0.043 0.389-0.095 0.585-0.139 0.010 0.028 0.029 0.084 0.039 0.112 0.107-0.041 0.162-0.143 0.235-0.222 0.119-0.025 0.242 0.031 0.361-0.001 0.074-0.025 0.143-0.064 0.214-0.097 0.048 0.037 0.096 0.075 0.145 0.113-0.001 0.056-0.003 0.113-0.004 0.17 0.128-0.035 0.256-0.088 0.392-0.065 0.152 0.020 0.32 0.015 0.446-0.084-0.166 0.007-0.332-0.010-0.496-0.039 0.128-0.1 0.294-0.132 0.426-0.226 0.002 0.068 0 0.136-0.004 0.205 0.18-0.019 0.393 0.097 0.544-0.045 0.095-0.091 0.231-0.074 0.352-0.074 0.1 0.007 0.177-0.073 0.273-0.086 0.114-0.015 0.232-0.008 0.341-0.048 0.066-0.030 0.121-0.080 0.189-0.108 0.123-0.011 0.247-0.009 0.369-0.024 0.027-0.079 0.044-0.168 0.108-0.227 0.071-0.047 0.157-0.067 0.24-0.079 0.031 0.035 0.056 0.074 0.084 0.113 0.168-0.033 0.336-0.059 0.506-0.077 0.065-0.064-0.067-0.092-0.103-0.131 0.080-0.081 0.155-0.182 0.276-0.197-0.008 0.114-0.089 0.197-0.133 0.297 0.11-0.015 0.209-0.064 0.309-0.11 0.004-0.077-0.031-0.174 0.042-0.229 0.158-0.156 0.403-0.129 0.599-0.202 0.139-0.096 0.205-0.278 0.367-0.343 0.104-0.009 0.218 0.067 0.309-0.014 0.126-0.114 0.308-0.071 0.449-0.144 0.032-0.114 0.073-0.228 0.185-0.286-0.001 0.044-0.002 0.089-0.003 0.134 0.273-0.117 0.504-0.312 0.778-0.428 0.006-0.038 0.012-0.075 0.019-0.112-0.073 0.014-0.146 0.030-0.22 0.039 0.104-0.139 0.286-0.156 0.431-0.229 0.116-0.055 0.244-0.070 0.365-0.109 0.086-0.027 0.111-0.128 0.185-0.173 0.145-0.098 0.302-0.182 0.422-0.312 0.444-0.433 0.944-0.831 1.255-1.378 0.071-0.107 0.17-0.199 0.207-0.326 0.047-0.155 0.058-0.321 0.133-0.467 0.089-0.167 0.059-0.365 0.132-0.537 0.072-0.18 0.17-0.365 0.132-0.565-0.041 0.067-0.078 0.137-0.124 0.202-0.022-0.154 0.051-0.299 0.055-0.451-0.014-0.119-0.038-0.238-0.033-0.359-0.059 0.062-0.114 0.128-0.172 0.191 0.012-0.139 0.096-0.26 0.104-0.398-0.041-0.109-0.158-0.167-0.208-0.271-0.044-0.089-0.055-0.202-0.145-0.259-0.053-0.054-0.123 0-0.183 0.004-0.065-0.007-0.127-0.032-0.189-0.050 0.042-0.034 0.086-0.067 0.13-0.099-0.078-0.029-0.158-0.081-0.244-0.061-0.117 0.023-0.231 0.059-0.35 0.075-0.003-0.066-0.004-0.132-0.006-0.198-0.091 0.021-0.181 0.045-0.273 0.058-0.018-0.077-0.039-0.153-0.078-0.223-0.155 0.029-0.313-0.004-0.469 0.011zM7.083 22.712c0.077-0.042 0.163-0.072 0.227-0.134 0.008-0.081-0.056-0.189-0.148-0.162-0.057 0.087-0.058 0.196-0.079 0.296zM13.667 22.559c0 0.027 0.001 0.080 0.002 0.106 0.047-0.034 0.093-0.071 0.136-0.11-0.046-0.004-0.092-0.003-0.137 0.004zM20.908 28.561c0.057 0.012 0.114 0.023 0.172 0.033 0-0.024 0.001-0.072 0.002-0.096-0.063 0.007-0.15-0.016-0.174 0.063zM17.722 28.991c-0.051 0.032-0.063 0.095-0.084 0.147 0.099-0.005 0.217-0.015 0.273-0.11-0.014-0.092-0.133-0.085-0.189-0.037z"></path>
</svg>
