<!-- Generated by IcoMoon.io -->
<svg version="1.1" xmlns="http://www.w3.org/2000/svg" width="29" height="32" viewBox="0 0 29 32">
<title>clan-temur</title>
<path fill="#444" d="M16.175 0.195c0.236-0.087 0.486-0.124 0.727-0.195 0.114 0.020 0.205 0.111 0.321 0.126 0.168 0.008 0.336-0.011 0.503-0.006 0.128 0.055 0.232 0.192 0.385 0.162 0.127-0.026 0.244 0.033 0.367 0.051 0.125-0.033 0.242-0.104 0.377-0.080-0.065 0.040-0.13 0.077-0.195 0.115 0.045 0.042 0.082 0.098 0.143 0.119 0.1 0.002 0.199-0.076 0.296-0.021 0.228 0.097 0.455 0.194 0.691 0.27 0.123 0.043 0.228-0.056 0.333-0.104-0.043 0.058-0.088 0.116-0.13 0.175 0.127-0 0.255-0.021 0.382-0.021 0.094 0.017 0.178 0.066 0.266 0.105-0.008 0.045-0.015 0.090-0.022 0.135 0.209 0.020 0.439-0.024 0.626 0.093 0.113 0.061 0.244 0.069 0.365 0.109 0.173 0.063 0.359 0.034 0.539 0.046-0.090-0.047-0.182-0.1-0.222-0.198 0.249-0.044 0.454 0.136 0.664 0.238 0.142 0.099 0.309 0.142 0.479 0.155 0 0.034 0.002 0.104 0.002 0.138-0.22-0.093-0.449-0.162-0.659-0.274-0.077-0.042-0.162-0.067-0.246-0.086 0.172 0.142 0.394 0.196 0.593 0.288 0.235 0.081 0.424 0.249 0.654 0.34-0.073-0.077-0.154-0.145-0.229-0.221 0.394 0.128 0.753 0.343 1.099 0.566 0.227 0.152 0.432 0.338 0.679 0.459 0.129 0.062 0.247 0.145 0.341 0.254 0.123 0.143 0.296 0.227 0.425 0.362 0.173 0.157 0.32 0.343 0.522 0.466 0.003-0.084 0.005-0.167 0.009-0.252 0.086 0.127 0.161 0.261 0.25 0.387 0.084 0.121 0.235 0.158 0.351 0.239 0.173 0.096 0.196 0.319 0.348 0.438 0.195 0.165 0.346 0.398 0.597 0.483-0.003-0.075-0.006-0.149-0.008-0.224 0.056 0.032 0.143 0.042 0.155 0.119 0.004 0.127-0.074 0.235-0.125 0.346 0.032-0.002 0.095-0.006 0.127-0.008-0.031 0.042-0.065 0.082-0.091 0.126 0.115 0.275 0.361 0.46 0.531 0.696 0.037 0.363 0.31 0.645 0.37 1.003 0.016 0.11 0.082 0.201 0.127 0.3 0.071 0.301 0.114 0.609 0.117 0.918-0.007 0.127-0.030 0.257 0.002 0.383 0.018 0.117 0.082 0.22 0.105 0.334-0.010 0.13-0.063 0.253-0.061 0.385-0.021 0.279 0.057 0.551 0.050 0.829 0 0.552 0.013 1.106-0.056 1.655-0.040-0.057-0.078-0.116-0.117-0.173 0.032 0.658-0.014 1.32-0.135 1.968-0.048 0.248-0.13 0.487-0.189 0.732-0.050 0.218-0.19 0.403-0.238 0.622-0.049 0.221-0.225 0.376-0.33 0.57 0.055-0.195 0.102-0.393 0.107-0.596 0.011-0.324 0.101-0.641 0.096-0.966-0.056 0.094-0.101 0.194-0.155 0.289-0.024-0.333 0.080-0.658 0.077-0.991-0.033 0.109-0.059 0.219-0.095 0.327-0.024-0.197-0.044-0.393-0.071-0.589-0.036 0.008-0.073 0.017-0.108 0.026-0.037-0.198-0.042-0.4-0.062-0.6-0.043 0.058-0.085 0.118-0.129 0.175-0.056-0.324-0.015-0.657-0.078-0.98-0.025-0.123-0.027-0.251 0.003-0.373 0.040-0.155 0.007-0.314-0.033-0.465-0.082 0.069-0.155 0.146-0.23 0.221-0.001-0.087 0-0.174 0-0.261-0.064 0.009-0.127 0.018-0.19 0.029 0.015-0.098 0.038-0.197 0.032-0.297-0.049-0.199-0.2-0.356-0.238-0.559-0.063-0.336-0.143-0.685-0.343-0.968-0.070-0.219-0.165-0.429-0.266-0.635-0.12-0.229-0.331-0.399-0.427-0.642-0.050-0.147-0.201-0.218-0.293-0.334-0.317-0.328-0.581-0.706-0.935-0.997-0.16-0.134-0.367-0.201-0.51-0.358-0.114-0.126-0.313-0.112-0.42-0.247-0.158-0.192-0.381-0.308-0.585-0.443-0.263-0.154-0.567-0.223-0.866-0.269-0.132-0.021-0.249-0.090-0.374-0.13-0.148 0.026-0.277 0.119-0.429 0.129-0.289 0.017-0.566-0.085-0.834-0.178-0.158-0.055-0.299-0.156-0.467-0.18-0.151-0.003-0.301 0.065-0.453 0.026-0.197-0.017-0.369-0.145-0.571-0.124-0.281-0.009-0.548 0.090-0.825 0.108-0.24 0.024-0.487 0.005-0.721 0.071-0.322 0.086-0.637 0.199-0.965 0.266-0.311 0.070-0.624 0.156-0.903 0.314-0.268 0.149-0.541 0.293-0.794 0.467-0.123 0.082-0.196 0.235-0.346 0.274-0.117 0.033-0.235 0.073-0.329 0.152-0.119 0.097-0.261 0.159-0.384 0.248-0.227 0.188-0.431 0.403-0.583 0.657-0.075-0.063-0.149-0.126-0.231-0.179-0.021 0.104-0.028 0.21-0.054 0.312-0.016 0.085-0.11 0.107-0.174 0.145-0.072 0.023-0.081 0.105-0.112 0.163-0.063 0.16-0.205 0.266-0.332 0.373-0.133 0.097-0.156 0.28-0.288 0.379-0.068 0.069-0.17 0.051-0.257 0.056-0.052 0.194-0.181 0.363-0.201 0.564-0.013 0.111 0.069 0.19 0.146 0.255 0.057-0.061 0.119-0.117 0.182-0.171 0.035 0.094 0.058 0.192 0.099 0.284 0.142 0.139 0.346 0.203 0.472 0.362 0.014 0.055 0.019 0.112 0.028 0.168 0.048-0.037 0.097-0.073 0.146-0.109 0.132 0.108 0.211 0.263 0.34 0.375-0.067-0.012-0.133-0.026-0.199-0.039 0.078 0.060 0.157 0.121 0.237 0.18 0.012-0.060 0.025-0.119 0.039-0.179 0.19 0.165 0.364 0.351 0.485 0.574 0.125 0.041 0.252 0.076 0.372 0.131-0.125 0.187-0.076 0.419-0.149 0.622-0.039 0.125 0.143 0.145 0.223 0.187 0.012-0.082 0.022-0.164 0.034-0.245 0.063 0.045 0.119 0.105 0.195 0.13 0.065-0.022 0.13-0.051 0.18-0.1 0.016-0.067 0.021-0.135 0.030-0.203 0.211 0.005 0.364-0.164 0.465-0.33 0.11-0.178 0.248-0.334 0.386-0.49 0.069 0.124 0.171 0.239 0.196 0.381-0.041 0.319-0.179 0.617-0.277 0.921-0.026-0.054-0.051-0.106-0.077-0.16-0.019 0.124-0.020 0.25-0.012 0.376-0.136 0.107-0.213 0.27-0.35 0.375-0.116 0.085-0.16 0.23-0.261 0.33-0.102 0.089-0.063 0.229-0.068 0.347-0.152 0.065-0.305 0.137-0.406 0.274-0.075-0.047-0.15-0.093-0.228-0.134-0.074 0.084-0.136 0.181-0.224 0.251-0.074 0.005-0.147-0.012-0.219-0.023-0.008-0.073-0.014-0.146-0.022-0.218-0.299 0.279-0.438 0.673-0.619 1.029-0.040 0.077-0.021 0.166-0.021 0.249-0.070 0.026-0.139 0.052-0.208 0.079 0.049-0.105 0.082-0.216 0.106-0.329-0.098 0.015-0.197 0.017-0.294 0.036-0.091 0.086-0.169 0.19-0.285 0.246-0.218 0.117-0.421 0.26-0.617 0.411-0.156 0.127-0.358 0.168-0.537 0.252-0.268 0.122-0.538 0.242-0.823 0.319-0.451 0.118-0.907 0.221-1.36 0.329-0.223 0.050-0.449 0.094-0.679 0.1-0.152 0.007-0.306 0-0.454 0.036-0.149 0.040-0.284 0.124-0.438 0.15-0.092 0.017-0.186-0.015-0.278 0.001-0.341 0.087-0.629 0.296-0.951 0.429-0.149 0.068-0.272 0.177-0.416 0.253-0.182 0.099-0.39 0.144-0.56 0.267-0.277 0.187-0.633 0.263-0.851 0.531-0.111 0.112-0.249 0.193-0.364 0.301-0.026-0.033-0.051-0.066-0.076-0.099-0.051 0.069-0.1 0.138-0.149 0.209 0.050 0.018 0.101 0.037 0.152 0.055-0.296 0.323-0.579 0.657-0.868 0.987-0.060 0.059-0.055 0.15-0.074 0.227-0.082 0.054-0.196 0.086-0.225 0.191-0.036 0.103-0.121 0.176-0.188 0.259-0.018-0.024-0.054-0.073-0.072-0.097-0.057 0.149-0.129 0.294-0.158 0.452-0.013 0.094-0.059 0.177-0.107 0.257-0.021-0.069-0.041-0.137-0.062-0.205-0.086 0.286-0.168 0.606-0.419 0.795-0.037 0.040-0.095 0.033-0.143 0.045-0.054 0.271-0.183 0.518-0.325 0.752-0.086 0.212-0.226 0.397-0.295 0.616-0.072 0.168-0.143 0.337-0.164 0.52-0.077 0.186-0.148 0.377-0.255 0.549-0.255-0.275-0.263-0.666-0.339-1.012-0.057-0.237 0.009-0.48-0.020-0.72-0.007-0.066-0.018-0.134 0.003-0.199 0.219-0.717 0.209-1.475 0.268-2.216 0.009-0.148 0.029-0.296 0.028-0.445-0.043 0.111-0.065 0.23-0.106 0.342-0.003-0.092-0.019-0.187 0.010-0.276 0.054-0.144 0.201-0.224 0.252-0.37 0.192-0.456 0.417-0.897 0.609-1.354-0.026 0.007-0.078 0.020-0.104 0.028 0.101-0.21 0.164-0.441 0.302-0.632 0.103-0.149 0.202-0.3 0.294-0.456 0.097-0.161 0.069-0.37 0.185-0.522 0.173-0.231 0.38-0.436 0.581-0.642 0.258-0.306 0.495-0.635 0.635-1.013-0.093 0.074-0.189 0.15-0.248 0.255-0.055 0.095-0.107 0.196-0.203 0.257 0.032-0.213 0.178-0.381 0.326-0.527 0.265-0.248 0.527-0.499 0.779-0.76 0.099-0.096 0.147-0.226 0.201-0.35 0.067-0.159 0.194-0.281 0.283-0.427 0.030-0.103-0.007-0.216 0.032-0.316 0.113-0.223 0.195-0.461 0.308-0.685 0.060-0.11 0.060-0.236 0.054-0.357-0.010-0.234 0.186-0.408 0.21-0.633 0.002-0.205-0.028-0.414 0.022-0.616 0.080-0.306 0.16-0.612 0.222-0.922 0.132-0.437 0.285-0.866 0.431-1.298 0.074-0.2 0.237-0.346 0.339-0.53 0.094-0.167 0.1-0.372 0.218-0.527 0.144-0.194 0.279-0.396 0.381-0.616 0.049-0.123 0.177-0.188 0.231-0.308 0.035-0.086 0.054-0.177 0.079-0.266 0.052-0.015 0.124-0.002 0.156-0.055 0.053-0.089 0.11-0.177 0.19-0.244 0.114-0.102 0.183-0.24 0.265-0.367 0.074-0.122 0.237-0.162 0.293-0.3 0.068-0.178 0.131-0.359 0.152-0.549 0.113-0.161 0.263-0.298 0.443-0.38-0.116 0.137-0.222 0.286-0.365 0.398 0.030 0.029 0.061 0.057 0.092 0.086 0.077-0.189 0.263-0.275 0.417-0.388 0.217-0.146 0.391-0.345 0.56-0.544-0.054-0.034-0.109-0.066-0.164-0.099 0.138-0.094 0.297-0.039 0.448-0.049 0.239-0.126 0.462-0.283 0.707-0.4 0.244-0.113 0.412-0.336 0.654-0.452 0.191-0.095 0.41-0.103 0.609-0.173 0.193-0.061 0.355-0.193 0.554-0.238 0.22-0.080 0.419-0.212 0.652-0.259 0.090-0.037 0.169 0.043 0.257 0.049 0.164-0.068 0.277-0.212 0.421-0.309 0.115-0.036 0.243 0.014 0.355-0.038 0.139-0.064 0.284-0.112 0.425-0.169 0.196-0.087 0.421-0.045 0.619-0.128 0.281-0.083 0.518-0.313 0.825-0.302 0.328 0.003 0.656-0.052 0.967-0.154zM19.606 4.726c0.156-0.012 0.318-0.039 0.444-0.141-0.164-0.032-0.335 0.008-0.444 0.141zM18.872 0.292c0.075 0.040 0.147 0.087 0.229 0.11 0.041-0.020 0.080-0.042 0.117-0.067-0.106-0.067-0.228-0.069-0.346-0.043zM19.756 0.609c0.009 0.132 0.114-0.065 0 0zM20.157 0.708c0.15-0.040 0.305-0.050 0.46-0.054-0.145-0.114-0.334-0.056-0.46 0.054zM21.237 0.877c0.089 0.033 0.182 0.054 0.277 0.060-0.020-0.026-0.061-0.079-0.081-0.106-0.068-0.022-0.134 0.024-0.196 0.045zM21.689 0.94c-0.054 0.048 0.031 0.129 0.079 0.078 0.053-0.049-0.031-0.131-0.079-0.078zM26.298 3.329c0.082 0.109 0.16 0.225 0.276 0.303-0.008-0.162-0.157-0.229-0.276-0.303zM26.176 3.581c-0.064 0.116 0.132 0.008 0 0zM27.543 4.693c0.069 0.044 0.142 0.084 0.209 0.132-0.052-0.085-0.036-0.185-0.025-0.278-0.061 0.049-0.123 0.097-0.184 0.146zM12.166 8.475c0.002 0.179-0.043 0.349-0.145 0.498 0.066 0.115 0.112 0.25 0.227 0.327 0.019-0.128-0.071-0.225-0.107-0.337 0.019-0.162 0.101-0.327 0.025-0.488zM14.104 10.882c-0.011 0.047-0.021 0.095-0.029 0.143 0.032 0.002 0.096 0.005 0.128 0.007-0.031-0.051-0.065-0.101-0.098-0.151zM27.246 11.171c-0.021 0.064 0.001 0.086 0.065 0.066 0.020-0.065-0.002-0.086-0.065-0.066zM16.839 12.080c-0.177 0.042-0.289 0.191-0.405 0.318-0.106 0.13-0.316 0.075-0.417 0.212-0.078 0.106-0.19 0.18-0.277 0.276-0.073 0.149-0.201 0.282-0.207 0.456-0.011 0.056-0.002 0.119-0.034 0.169-0.134 0.107-0.298 0.169-0.458 0.227-0.144 0.013-0.322 0.044-0.39 0.189-0.102 0.205-0.33 0.3-0.535 0.37-0.056 0.033-0.105-0.018-0.154-0.041 0.010 0.043 0.020 0.085 0.030 0.128-0.347 0.087-0.684 0.213-1.006 0.367-0.008-0.086-0.012-0.172-0.022-0.257-0.098 0.076-0.085 0.205-0.102 0.315-0.146 0.045-0.273 0.128-0.386 0.23-0.008-0.153 0.088-0.273 0.149-0.404-0.208 0.090-0.176 0.344-0.225 0.527-0.052 0.009-0.106 0.012-0.156 0.030-0.083 0.064-0.102 0.177-0.171 0.252-0.066 0.053-0.142 0.093-0.215 0.135-0.067 0.039-0.163 0.041-0.196 0.123-0.106 0.194-0.302 0.307-0.473 0.436-0.104 0.066-0.114 0.202-0.166 0.305-0.015-0.039-0.045-0.116-0.061-0.154-0.067 0.065-0.128 0.134-0.187 0.206-0.022-0.043-0.043-0.085-0.065-0.128-0.076 0.071-0.164 0.128-0.243 0.196-0.045 0.106-0.039 0.25-0.154 0.313-0.118 0.076-0.222 0.17-0.327 0.262 0.041-0.115 0.119-0.21 0.183-0.312-0.226 0.124-0.338 0.364-0.493 0.557-0.172 0.236-0.376 0.45-0.514 0.71-0.117 0.215-0.352 0.342-0.458 0.563-0.091 0.285-0.319 0.493-0.509 0.714-0.055 0.075-0.156 0.084-0.229 0.133-0.048 0.063-0.082 0.135-0.122 0.203-0.026-0.036-0.052-0.071-0.077-0.106-0.048 0.099-0.088 0.204-0.153 0.294-0.096 0.127-0.13 0.285-0.203 0.424-0.080 0.155-0.17 0.305-0.252 0.46-0.051 0.102-0.157 0.165-0.197 0.272-0.062 0.172-0.153 0.331-0.206 0.506-0.101 0.205-0.229 0.397-0.363 0.583-0.089 0.129-0.107 0.289-0.159 0.434-0.163 0.4-0.317 0.809-0.376 1.239-0.089 0.319-0.102 0.654-0.201 0.971-0.028 0.19-0.162 0.342-0.194 0.531-0.032 0.156-0.037 0.315-0.034 0.474-0.028-0.029-0.055-0.057-0.082-0.084 0.007 0.358-0.007 0.717 0.005 1.075 0.002 0.122 0.011 0.249-0.041 0.363-0.068 0.251-0.029 0.514-0.040 0.77-0.034 0.262-0.015 0.529 0.019 0.79 0.037 0.134 0.082 0.266 0.117 0.401 0.114 0.297 0.161 0.618 0.311 0.902 0.022-0.247-0.031-0.494-0.008-0.74 0.026-0.137 0.066-0.272 0.114-0.403 0.031-0.093 0.125-0.153 0.141-0.253 0.039-0.182 0.052-0.371 0.131-0.541 0.153-0.355 0.299-0.715 0.48-1.057 0.106-0.204 0.091-0.471 0.275-0.631 0.060-0.087 0.041-0.209 0.103-0.296 0.111-0.155 0.171-0.338 0.252-0.509 0.042 0.022 0.084 0.043 0.128 0.065 0.057-0.13 0.073-0.278 0.159-0.394 0.111-0.153 0.196-0.323 0.322-0.465 0.101-0.186 0.193-0.377 0.328-0.541 0.189-0.246 0.445-0.427 0.693-0.608 0.134-0.101 0.189-0.285 0.347-0.358 0.252-0.117 0.437-0.331 0.671-0.477 0.149-0.085 0.221-0.26 0.382-0.327 0.126-0.065 0.225-0.17 0.351-0.235 0.181-0.115 0.395-0.171 0.561-0.31 0.185-0.176 0.466-0.14 0.674-0.273 0.334-0.136 0.597-0.404 0.944-0.514 0.186-0.059 0.344-0.171 0.497-0.288 0.249-0.013 0.456-0.158 0.653-0.296 0.119-0.084 0.262-0.124 0.38-0.21 0.1-0.070 0.197-0.147 0.31-0.195 0.132-0.034 0.28-0.009 0.402-0.083 0.158-0.087 0.327-0.156 0.501-0.208 0.070-0.024 0.142-0.002 0.213 0.010 0.163-0.181 0.422-0.22 0.615-0.361 0.152-0.131 0.367-0.112 0.534-0.215 0.188-0.112 0.374-0.227 0.561-0.342-0.037-0.070-0.075-0.14-0.106-0.212 0.066 0.047 0.128 0.1 0.192 0.151 0.031-0.072 0.063-0.143 0.075-0.221-0.052-0.044-0.12-0.062-0.18-0.089 0.060-0.173 0.168-0.326 0.212-0.506-0.072 0.018-0.144 0.037-0.216 0.056 0.001-0.078 0.003-0.156 0.006-0.233 0.078 0.018 0.157 0.036 0.236 0.053-0.066-0.066-0.133-0.13-0.202-0.192 0.181-0.090 0.322-0.238 0.467-0.375 0.221-0.251 0.46-0.486 0.68-0.738 0.108-0.121 0.098-0.293 0.162-0.433 0.065-0.139 0.137-0.277 0.169-0.428 0.034-0.147-0.036-0.301 0.022-0.444 0.052-0.14 0.060-0.291 0.121-0.428 0.063-0.138 0.069-0.291 0.076-0.44-0.205 0.207-0.412 0.417-0.669 0.559-0.096-0.006-0.154-0.090-0.219-0.149 0.076-0.094 0.16-0.181 0.24-0.272 0.115-0.141 0.075-0.363 0.224-0.481 0.105-0.082 0.144-0.213 0.197-0.33 0.099 0.004 0.199 0.007 0.295-0.023-0.069-0.047-0.148-0.071-0.23-0.080-0.017-0.121-0.019-0.246-0.066-0.36-0.051-0.105-0.138-0.185-0.211-0.274 0.054-0.122 0.119-0.281 0.024-0.399-0.075-0.091-0.114-0.203-0.171-0.305-0.178-0.052-0.368-0.016-0.549-0.034-0.058-0.078-0.095-0.186-0.205-0.204-0.102-0.054-0.189 0.043-0.271 0.088-0.061-0.015-0.12-0.040-0.183-0.041-0.099 0.051-0.197 0.117-0.314 0.098 0.020-0.054 0.043-0.106 0.065-0.159-0.084-0.031-0.174-0.076-0.26-0.026zM27.539 13.031c-0.021 0.065 0 0.087 0.065 0.066 0.020-0.065-0.001-0.087-0.065-0.066zM12.153 14.534c-0.052 0.027-0.052 0.054-0 0.080 0.052-0.027 0.052-0.054 0-0.080zM28.415 15.21c-0.062 0.116 0.132 0.006 0 0zM28.351 15.631c-0.079 0.013-0.048 0.137 0.028 0.112 0.078-0.014 0.049-0.139-0.028-0.112zM27.94 15.834c-0.023 0.065-0.002 0.087 0.061 0.067 0.022-0.065 0.002-0.088-0.061-0.067zM8.113 15.982c-0.021 0.064 0 0.086 0.065 0.066 0.021-0.064-0.001-0.086-0.065-0.066zM17.708 17.689c-0.050 0.042-0.089 0.095-0.122 0.152 0.234-0.126 0.391-0.351 0.553-0.555-0.153 0.125-0.282 0.275-0.431 0.403zM21.395 17.559c-0.006 0.042-0.012 0.084-0.017 0.127 0.031 0.005 0.091 0.014 0.122 0.019 0.022-0.084-0.027-0.131-0.105-0.147zM20.738 18.123c-0.056-0.058-0.112-0.117-0.168-0.174-0.139 0.022-0.28 0.078-0.421 0.040-0.136-0.034-0.281-0.045-0.417-0.006-0.194 0.040-0.331 0.193-0.493 0.295-0.102 0.074-0.22 0.121-0.33 0.181-0.118 0.092-0.209 0.219-0.344 0.288-0.112 0.056-0.181 0.162-0.254 0.259-0.072 0.102-0.187 0.188-0.17 0.327 0.015 0.206-0.198 0.307-0.372 0.324-0.16 0.012-0.319 0.049-0.453 0.14 0.041 0.031 0.082 0.061 0.124 0.093-0.165 0.156-0.381 0.235-0.571 0.354-0.177 0.123-0.321 0.284-0.471 0.436-0.115 0.106-0.125 0.28-0.243 0.384-0.111 0.101-0.213 0.21-0.306 0.328-0.104 0.101-0.14 0.246-0.236 0.352-0.123 0.142-0.229 0.298-0.339 0.45-0.173 0.244-0.414 0.433-0.573 0.688-0.084 0.149-0.155 0.307-0.184 0.477-0.032 0.202-0.159 0.368-0.252 0.546-0.155 0.259-0.255 0.546-0.398 0.812-0.044-0.016-0.088-0.031-0.132-0.045-0.029 0.132-0.032 0.267-0.050 0.4-0.052 0.23-0.166 0.443-0.209 0.676-0.039 0.217-0.044 0.439-0.097 0.653-0.045 0.195-0.129 0.379-0.188 0.57-0.060 0.179-0.032 0.371-0.050 0.557-0.008 0.205-0.074 0.409-0.040 0.615 0.020 0.114 0.006 0.23-0.037 0.337-0.073-0.073-0.14-0.15-0.213-0.222-0.028 0.091-0.088 0.189-0.045 0.285 0.051 0.074 0.143 0.102 0.217 0.149-0.086 0.063-0.173 0.124-0.257 0.19 0.026 0.053 0.054 0.105 0.082 0.159 0.070-0.104 0.134-0.212 0.211-0.311 0.025 0.279 0.045 0.562-0.013 0.839 0.064 0.058 0.137 0.114 0.172 0.196 0.080 0.135-0.013 0.286-0.026 0.427 0.056 0.007 0.113 0.014 0.17 0.021 0.012 0.435 0.3 0.795 0.358 1.22 0.032 0.2 0.092 0.397 0.201 0.569 0.031-0.231 0.049-0.464 0.076-0.694 0.109-0.151 0.143-0.335 0.205-0.506-0.009-0.207-0.004-0.418 0.082-0.611 0.080-0.274 0.33-0.451 0.428-0.716 0.041-0.1 0.092-0.194 0.143-0.288 0.072-0.128 0.108-0.276 0.199-0.394 0.115-0.195 0.147-0.424 0.222-0.635 0.033-0.126 0.163-0.188 0.222-0.299 0.13-0.223 0.245-0.457 0.401-0.664 0.107-0.118 0.244-0.205 0.373-0.297 0.145-0.086 0.154-0.281 0.274-0.391 0.077-0.048 0.17-0.062 0.249-0.106 0.112-0.114 0.21-0.241 0.318-0.358 0.118-0.12 0.258-0.214 0.389-0.32 0.1-0.073 0.12-0.216 0.232-0.277 0.158-0.090 0.229-0.276 0.392-0.358 0.128-0.067 0.252-0.142 0.373-0.221 0.213-0.137 0.477-0.16 0.691-0.295 0.303-0.215 0.607-0.437 0.95-0.586 0.186-0.088 0.362-0.196 0.553-0.275 0.311-0.121 0.544-0.373 0.816-0.558 0.251-0.044 0.518-0.096 0.709-0.281-0.113-0.005-0.236 0.025-0.339-0.035-0.062-0.024-0.12-0.081-0.191-0.066-0.121 0.025-0.243 0.043-0.366 0.058 0.038 0.087 0.080 0.173 0.123 0.259-0.079 0.034-0.156 0.075-0.24 0.093-0.18-0.018-0.356-0.066-0.519-0.142 0.142-0.148 0.331-0.215 0.524-0.268-0.061-0.036-0.123-0.070-0.184-0.104 0.191-0.166 0.318-0.393 0.513-0.555 0.123-0.105 0.267-0.179 0.396-0.275 0.117-0.086 0.172-0.224 0.25-0.342 0.207-0.296 0.447-0.575 0.583-0.914 0.085-0.183 0.263-0.347 0.237-0.564-0.086-0.14-0.21-0.251-0.299-0.388 0.117-0.050 0.234-0.104 0.341-0.173-0.024-0.123-0.007-0.247-0.002-0.37-0.124-0.021-0.245-0.065-0.331-0.161-0.010-0.107 0.020-0.214 0.016-0.322-0.065-0.002-0.131-0.002-0.196 0.002-0.006 0.090-0.009 0.18-0.011 0.27-0.089 0.055-0.214 0.085-0.26 0.188-0 0.1 0.017 0.199 0.018 0.3-0.132-0.049-0.143-0.199-0.22-0.299-0.080-0.128-0.226-0.194-0.317-0.313-0.036-0.072-0.034-0.164-0.096-0.22-0.127-0.125-0.311-0.21-0.349-0.401-0.065-0.113-0.017-0.237 0.010-0.352-0.174 0.142-0.384 0.226-0.572 0.347zM14.869 22.44c-0.069 0.015-0.041 0.13 0.028 0.108 0.070-0.015 0.041-0.13-0.028-0.108zM22.010 22.693c-0.020 0.064 0.001 0.086 0.065 0.066 0.020-0.065-0.002-0.087-0.065-0.066zM12.953 26.171c0.208-0.018 0.302-0.227 0.304-0.412-0.115 0.126-0.211 0.27-0.304 0.412zM13.023 26.95c-0.018 0.054 0.001 0.073 0.057 0.056 0.017-0.055-0.002-0.074-0.057-0.056zM12.873 27.030c-0.005 0.033-0.015 0.099-0.020 0.132 0.060-0 0.12-0.002 0.181-0.005-0.014-0.046-0.028-0.091-0.042-0.136-0.040 0.002-0.080 0.005-0.119 0.008zM15.675 28.721c0.049 0.004 0.099 0.008 0.149 0.011-0.004-0.049-0.008-0.097-0.012-0.146-0.078 0.010-0.126 0.057-0.137 0.134zM14.185 31.010c-0.021 0.064 0.001 0.086 0.065 0.065 0.020-0.065-0.002-0.086-0.065-0.065zM14.357 31.003c-0.021 0.064 0.001 0.086 0.066 0.065 0.020-0.065-0.002-0.086-0.066-0.065z"></path>
</svg>
