<!-- Generated by IcoMoon.io -->
<svg version="1.1" xmlns="http://www.w3.org/2000/svg" width="32" height="32" viewBox="0 0 32 32">
<title>clan-abzan</title>
<path fill="#444" d="M14.16 3.507c0.069-0.054 0.146-0.098 0.218-0.149 0.046 0.067 0.083 0.139 0.131 0.204 0.054 0.046 0.125 0.069 0.177 0.119 0.128 0.125 0.196 0.3 0.334 0.417 0.165 0.139 0.312 0.299 0.475 0.442 0.106 0.086 0.14 0.225 0.232 0.322 0.134 0.143 0.242 0.307 0.375 0.45 0.123-0.254 0.341-0.44 0.515-0.657 0.066-0.059 0.148-0.098 0.221-0.149 0.023 0.087 0.101 0.175 0.057 0.267-0.041 0.13-0.149 0.231-0.163 0.37-0.065 0.176-0.157 0.347-0.284 0.487 0.066 0.018 0.133 0.031 0.198 0.054 0.062 0.061 0.083 0.15 0.134 0.219 0.248 0.21 0.496 0.422 0.758 0.614 0.138 0.103 0.346 0.051 0.461 0.192 0.156 0.113 0.323 0.229 0.515 0.268 0.088 0.046 0.156 0.123 0.246 0.167-0.009-0.134-0.122-0.215-0.186-0.322 0.077 0.046 0.141 0.109 0.206 0.171 0.004-0.025 0.013-0.074 0.017-0.099 0.119 0.050 0.237 0.103 0.348 0.171 0.161 0.095 0.346 0.133 0.521 0.191 0.024-0.020 0.048-0.040 0.075-0.058 0.133 0.045 0.243 0.155 0.39 0.153 0.143 0.004 0.271 0.070 0.401 0.123 0.011-0.054 0.028-0.106 0.050-0.157-0.005-0.040-0.009-0.079-0.012-0.118 0.073 0.075 0.118 0.192 0.234 0.206 0.101 0.051 0.199-0.009 0.298-0.031 0.040 0.032 0.074 0.070 0.111 0.106 0.083-0.044 0.156-0.12 0.257-0.11 0.119-0.024 0.228 0.029 0.332 0.079 0.148 0.058 0.234 0.201 0.359 0.293 0.082 0.059 0.13 0.161 0.224 0.203 0.109 0.017 0.237 0.050 0.329-0.032 0.161 0.1 0.317 0.208 0.487 0.292 0.096 0.064 0.181 0.147 0.293 0.184-0.006-0.085-0.019-0.17-0.030-0.254 0.041 0.036 0.082 0.072 0.123 0.108-0.027 0.057-0.052 0.116-0.082 0.172 0.036 0.010 0.073 0.021 0.109 0.032 0 0.075 0.002 0.151 0.009 0.226 0.086 0.014 0.165 0.049 0.231 0.107 0.012-0.030 0.024-0.059 0.036-0.088 0.115 0.073 0.233 0.164 0.249 0.311 0.036 0.003 0.072 0.006 0.109 0.009 0.011 0.063 0.011 0.129 0.035 0.19 0.141 0.14 0.292 0.269 0.45 0.389 0.033-0.033 0.067-0.066 0.102-0.098-0.017 0.12-0.028 0.241-0.049 0.36-0.019 0.072 0.030 0.137 0.034 0.208-0.014 0.079-0.048 0.152-0.070 0.228 0.123-0.123 0.246-0.245 0.37-0.367-0.038-0.042-0.107-0.069-0.109-0.132-0.031-0.156 0.081-0.283 0.146-0.414 0.053-0.117 0.167-0.183 0.255-0.27 0.129-0.166 0.201-0.379 0.369-0.514 0.066-0.063 0.176-0.017 0.237-0.088 0.102-0.105 0.206-0.211 0.288-0.334 0.058-0.092 0.18-0.1 0.265-0.159 0.141-0.061 0.098-0.275 0.244-0.33 0.112-0.035 0.18-0.135 0.269-0.205 0.026 0.064 0.052 0.127 0.076 0.191 0.071-0.031 0.14-0.065 0.211-0.094-0.019 0.146-0.16 0.221-0.224 0.344 0.054 0.005 0.108 0.010 0.163 0.015-0.023 0.056-0.043 0.114-0.063 0.171 0.075-0.009 0.149-0.027 0.225-0.031 0.072 0.057 0.077 0.174 0.172 0.208 0.065-0.023 0.124-0.060 0.183-0.096 0.070-0.046 0.108-0.139 0.199-0.152 0.043-0.018 0.087 0.007 0.129 0.018 0.11 0.048 0.161-0.118 0.269-0.129-0.012 0.079-0.033 0.156-0.051 0.234 0.048-0.014 0.11-0.011 0.135-0.064 0.056-0.091 0.149-0.154 0.255-0.17 0.104-0.016 0.195 0.084 0.204 0.181-0.022 0.059-0.057 0.112-0.087 0.167 0.045 0.011 0.090 0.022 0.137 0.033 0.055-0.053 0.116-0.103 0.158-0.169-0.007-0.084-0.103-0.139-0.086-0.228-0.023-0.187 0.153-0.301 0.287-0.392 0.117 0.052 0.178 0.176 0.279 0.252 0.105-0.101 0.219-0.197 0.352-0.26-0.010 0.107-0.066 0.207-0.051 0.316 0.021 0.1-0.043 0.185-0.074 0.275-0.064 0.009-0.128 0.019-0.191 0.030 0.022 0.081 0.054 0.158 0.090 0.235-0.088 0.118-0.161 0.245-0.255 0.359 0.14-0.035 0.316 0.034 0.323 0.196 0.048-0.031 0.097-0.060 0.149-0.084 0.020 0.056 0.033 0.113 0.050 0.17 0.052-0.022 0.107-0.041 0.159-0.063 0.043 0.076 0.099 0.142 0.157 0.207 0.091 0.103 0.090 0.269 0.21 0.347 0.165 0.052 0.333 0.103 0.507 0.114-0.094 0.117-0.173 0.246-0.246 0.377 0.161 0.013 0.271 0.148 0.335 0.285-0.028 0.201-0.127 0.384-0.204 0.569 0.037-0.005 0.074-0.010 0.112-0.014-0.041 0.139-0.063 0.283-0.090 0.426-0.021 0.098 0.017 0.193 0.032 0.289 0.017 0.087-0.021 0.172-0.040 0.255 0.039 0.005 0.077 0.009 0.116 0.014 0.018 0.082 0.016 0.179 0.088 0.237 0.037 0.056 0.11 0.045 0.167 0.063-0.038 0.088-0.077 0.178-0.073 0.276-0.004 0.096 0.070 0.185 0.044 0.282-0.038 0.092-0.114 0.163-0.172 0.243 0.014 0.016 0.043 0.048 0.058 0.064 0.066-0.043 0.132-0.086 0.202-0.125 0.020 0.031 0.040 0.063 0.058 0.097-0.041 0.069-0.097 0.128-0.128 0.202 0.014 0.128 0.102 0.246 0.068 0.379-0.028 0.142-0.031 0.288-0.016 0.433 0.058-0.016 0.115-0.038 0.175-0.048 0.051 0.011 0.1 0.031 0.151 0.047-0.049 0.164-0.061 0.348-0.194 0.472 0.11-0.011 0.221-0.026 0.33-0.051 0.001 0.095 0.009 0.191 0.013 0.286 0.041 0.009 0.082 0.019 0.123 0.029-0.091 0.138-0.156 0.289-0.195 0.45-0.066 0.135-0.107 0.28-0.147 0.425-0.055 0.242-0.252 0.432-0.258 0.688-0.132 0.117-0.236 0.281-0.425 0.306-0.005 0.11-0.010 0.221-0.010 0.332-0.046 0.095-0.144 0.155-0.176 0.258-0.040 0.111-0.107 0.217-0.21 0.279-0.058 0.012-0.117 0.004-0.175 0.006 0.019 0.135-0.012 0.284 0.065 0.404 0.114 0.191 0.294 0.333 0.398 0.531-0.085 0.025-0.232 0.016-0.229 0.139 0.222 0.106 0.343 0.344 0.39 0.576 0.023 0.116-0.093 0.188-0.174 0.245 0.002 0.112-0.071 0.201-0.121 0.295 0.117 0.051 0.219 0.133 0.282 0.247 0.061 0.080 0.073 0.203 0.172 0.25 0.065 0.041 0.148 0.083 0.159 0.169-0.023 0.107-0.149 0.114-0.231 0.152 0.032 0.133 0.14 0.218 0.233 0.307 0.096 0.088 0.101 0.224 0.13 0.342-0.22-0.035-0.396-0.185-0.606-0.253-0.015 0.113-0.022 0.227-0.040 0.339-0.172-0.086-0.312-0.221-0.46-0.341-0.033 0.023-0.066 0.047-0.099 0.070-0.096-0.058-0.175-0.149-0.288-0.174-0.229-0.057-0.377-0.273-0.606-0.329-0.196-0.037-0.349-0.174-0.515-0.275-0.128-0.076-0.23-0.187-0.352-0.27-0.055-0.050-0.12 0.014-0.169 0.042-0.086 0.047-0.133 0.134-0.181 0.215-0.026-0.090-0.053-0.181-0.099-0.263 0.115-0.123 0.030-0.289-0.005-0.427-0.012-0.071-0.068-0.116-0.122-0.155 0.008-0.056 0.017-0.111 0.026-0.166-0.128 0.033-0.262 0.028-0.389 0.060-0.127 0.074-0.221 0.195-0.355 0.259-0.029-0.057-0.069-0.105-0.098-0.161-0.091 0.001-0.194-0.029-0.275 0.026-0.103 0.069-0.191 0.157-0.287 0.235-0.143 0.119-0.318 0.185-0.481 0.27-0.204 0.107-0.43 0.159-0.655 0.201-0.080 0.015-0.14 0.072-0.186 0.136-0.064 0.090-0.164 0.14-0.254 0.199 0 0.025 0 0.076 0 0.101 0.054 0.003 0.108 0.005 0.162 0.008-0.156 0.098-0.276 0.245-0.446 0.323 0.027-0.090 0.059-0.178 0.092-0.265-0.093 0.026-0.189 0.047-0.271 0.102-0.001 0.091 0.046 0.189-0.011 0.273-0.037 0.106-0.13 0.171-0.222 0.227-0.003-0.058-0.007-0.114-0.010-0.171-0.065 0.019-0.142 0.026-0.178 0.092-0.138 0.197-0.318 0.357-0.498 0.515-0.082 0.050-0.014 0.159-0.076 0.219-0.062 0.069-0.139 0.123-0.21 0.182-0.108 0.086-0.212 0.193-0.355 0.214-0.118 0.020-0.166 0.142-0.243 0.219 0.028 0.011 0.085 0.034 0.113 0.046-0.125 0.075-0.273 0.112-0.371 0.228 0.058 0.045 0.114 0.093 0.173 0.138-0.042 0.102-0.127 0.174-0.187 0.264-0.014 0.064 0.021 0.125 0.037 0.186-0.123 0.115-0.226 0.25-0.354 0.36-0.126 0.115-0.26 0.219-0.384 0.336-0.334 0.342-0.689 0.663-1.054 0.972-0.128 0.083-0.088 0.257-0.014 0.364-0.15 0.037-0.268 0.14-0.411 0.193-0.071 0.032-0.146 0.048-0.217 0.079-0.078 0.113-0.121 0.251-0.243 0.33 0.044 0.071 0.094 0.139 0.149 0.202-0.067 0.068-0.115 0.15-0.154 0.237-0.050-0.014-0.099-0.031-0.15-0.038-0.062 0.023-0.101 0.083-0.153 0.121-0.145 0.028-0.29 0.061-0.434 0.090-0.086 0.065-0.17 0.139-0.285 0.14-0.020 0.044-0.040 0.089-0.060 0.134-0.017-0.066-0.036-0.13-0.049-0.196-0.089 0.060-0.251 0.075-0.253 0.209 0.051 0.075 0.132 0.123 0.179 0.2 0.037 0.055 0.072 0.115 0.134 0.145 0.044-0.014 0.086-0.034 0.129-0.050-0.004 0.053-0.008 0.107-0.011 0.16 0.206 0.085 0.329 0.28 0.527 0.376 0.119 0.065 0.211 0.174 0.338 0.227 0.047-0.014 0.087-0.045 0.129-0.071-0.069 0.206 0.089 0.384 0.259 0.474 0.013-0.021 0.040-0.061 0.053-0.082 0.164 0.168 0.339 0.324 0.492 0.503-0.136-0.065-0.277-0.134-0.432-0.1-0.229-0.123-0.497-0.178-0.701-0.346-0.040 0.011-0.080 0.023-0.12 0.034 0.008-0.035 0.015-0.069 0.024-0.104-0.076-0.057-0.123-0.139-0.173-0.218-0.042 0.082-0.098 0.157-0.169 0.217-0.002-0.060 0.001-0.121 0.002-0.181-0.062 0.063-0.118 0.131-0.17 0.202-0.062-0.031-0.126-0.063-0.165-0.123-0.069-0.109-0.2-0.145-0.308-0.203-0.008 0.087-0.007 0.175-0.020 0.261-0.053-0.085-0.127-0.151-0.202-0.215-0.044-0.067-0.069-0.144-0.106-0.215-0.001 0.029-0.002 0.087-0.003 0.116-0.020-0.011-0.061-0.032-0.081-0.043-0.006-0.065-0.010-0.13-0.017-0.195-0.063 0.006-0.13-0.008-0.189 0.014-0.062 0.062-0.075 0.185-0.18 0.19-0.032-0.030-0.060-0.064-0.089-0.096-0.001 0.070-0.001 0.14-0.002 0.211-0.072-0.105-0.133-0.223-0.247-0.288 0.007-0.063 0.024-0.128 0.005-0.191-0.238-0.137-0.48 0.062-0.719 0.080-0.133 0.039-0.247 0.125-0.375 0.175-0.111-0.012-0.21-0.073-0.319-0.093-0.221 0.082-0.461 0.084-0.692 0.128-0.017-0.046-0.033-0.091-0.049-0.136-0.083 0.11-0.174 0.217-0.231 0.344 0.048 0.040 0.091 0.086 0.138 0.128-0.136 0.032-0.221-0.082-0.309-0.162 0.024-0.035 0.048-0.069 0.072-0.103-0.087-0.011-0.174-0.024-0.261-0.017-0.094 0.006-0.161 0.079-0.233 0.131-0.037-0.048-0.075-0.094-0.11-0.142-0.065 0.016-0.134 0.025-0.194 0.055-0.049 0.055-0.084 0.121-0.133 0.175-0.047-0.081-0.099-0.159-0.14-0.242-0.013-0.079 0.009-0.159 0.014-0.238-0.103 0.051-0.184 0.136-0.284 0.193-0.028-0.037-0.051-0.078-0.075-0.116-0.066-0.003-0.132-0.008-0.198-0.012 0.019-0.039 0.011-0.116 0.074-0.101 0.059 0.023 0.111 0.060 0.166 0.092 0.033-0.033 0.065-0.067 0.097-0.099-0.044-0.029-0.088-0.057-0.132-0.085 0.088-0.1 0.171-0.21 0.289-0.276 0.213-0.145 0.416-0.306 0.608-0.478 0.036-0.039 0.038-0.096 0.057-0.143-0.059-0.021-0.116-0.044-0.172-0.070-0.060 0.063-0.119 0.137-0.206 0.162-0.121 0.011-0.246-0.013-0.363 0.032 0.004-0.039 0.008-0.077 0.012-0.115-0.052 0.020-0.104 0.040-0.155 0.060-0.055-0.091-0.119-0.178-0.205-0.243 0.034-0.072 0.065-0.145 0.096-0.218-0.064-0.081-0.113-0.172-0.17-0.257 0.011-0.015 0.033-0.045 0.044-0.059 0.056 0.037 0.112 0.073 0.171 0.105-0.024-0.111-0.085-0.208-0.169-0.283-0.033 0.038-0.066 0.077-0.098 0.116-0.101-0.070-0.185 0.025-0.239 0.106-0.015-0.068-0.011-0.149-0.070-0.197-0.070-0.054-0.153-0.087-0.232-0.124 0.042 0.11 0.113 0.205 0.169 0.308-0.129-0.060-0.253-0.129-0.384-0.184-0.004 0.048-0.008 0.097-0.013 0.146-0.020-0.002-0.059-0.007-0.079-0.009-0.010-0.064-0.020-0.127-0.027-0.191-0.159-0.063-0.26-0.211-0.416-0.279-0.074-0.026-0.029-0.118-0.040-0.176-0.101-0.052-0.197-0.112-0.281-0.188-0.151-0.139-0.358-0.217-0.467-0.399 0.113 0.065 0.211 0.155 0.329 0.212 0.144 0.069 0.248 0.198 0.393 0.265-0.022-0.070-0.062-0.131-0.112-0.184 0.090-0.045 0.12-0.165 0.031-0.229-0.121-0.083-0.181-0.261-0.346-0.267 0.089 0.156 0.264 0.257 0.298 0.445-0.086-0.078-0.155-0.174-0.252-0.24-0.084-0.056-0.17-0.108-0.248-0.173 0.046-0 0.092 0 0.139 0.001 0.001-0.058 0.001-0.115-0.001-0.172-0.042 0.037-0.080 0.077-0.118 0.118-0.072-0.049-0.137-0.11-0.172-0.191-0.060-0.129-0.174-0.22-0.274-0.317-0.058-0.011-0.117-0.004-0.174-0.002 0.045 0.068 0.093 0.134 0.132 0.207-0.078-0.023-0.144-0.069-0.213-0.111-0.058-0.009-0.118-0.005-0.176-0.008 0.002-0.065 0.002-0.129 0.004-0.193 0.098 0.053 0.207 0.045 0.31 0.010-0.139-0.171-0.366-0.221-0.573-0.25-0.139-0.050-0.305-0.032-0.413-0.147-0.338-0.222-0.559-0.574-0.877-0.82-0.091-0.047-0.174-0.108-0.229-0.196-0.010 0.016-0.032 0.048-0.042 0.064-0.103-0.067-0.197-0.176-0.332-0.155 0.107 0.126 0.248 0.227 0.307 0.387-0.123-0.059-0.262-0.103-0.362-0.2-0.058-0.052 0.002-0.122 0.013-0.181-0.041-0.009-0.082-0.019-0.123-0.023-0.041 0.028-0.075 0.064-0.112 0.097-0.015-0.039-0.030-0.078-0.046-0.117-0.027 0.043-0.054 0.086-0.080 0.13-0.099-0.038-0.218-0.029-0.3-0.104-0.156-0.129-0.306-0.27-0.486-0.366-0.122-0.069-0.201-0.194-0.328-0.257-0.195-0.093-0.304-0.288-0.432-0.451-0.041-0.056-0.107-0.093-0.138-0.156-0.046-0.13-0.154-0.223-0.209-0.348-0.040-0.103-0.149-0.142-0.238-0.191 0.001 0.087 0.012 0.174 0.024 0.26-0.080-0.090-0.153-0.188-0.221-0.288-0.044-0.067-0.126-0.090-0.187-0.137-0.034-0.043-0.059-0.092-0.090-0.137-0.072-0.029-0.152-0.020-0.228-0.013 0.021-0.059 0.032-0.122 0.051-0.181-0.067-0.057-0.134-0.114-0.199-0.173-0.017 0.022-0.034 0.043-0.050 0.065-0.097-0.049-0.203-0.095-0.272-0.182-0.070-0.096-0.088-0.219-0.165-0.311-0.048 0.066-0.095 0.133-0.141 0.2-0.022-0.050-0.047-0.099-0.063-0.15 0.017-0.044 0.043-0.085 0.064-0.127-0.121-0.062-0.22-0.155-0.313-0.252-0.066 0.005-0.132 0.009-0.199 0.012 0.043-0.042 0.087-0.083 0.13-0.123-0.019-0.020-0.055-0.058-0.074-0.078-0.080 0.090-0.139 0.196-0.178 0.31 0.057 0.016 0.114 0.031 0.171 0.047-0.028 0.054-0.037 0.131-0.102 0.154-0.057-0.031-0.11-0.071-0.171-0.094-0.052 0.104-0.039 0.218-0.008 0.326-0.040-0.035-0.079-0.072-0.119-0.107-0.088 0.085-0.165 0.187-0.278 0.243-0.097 0.049-0.191 0.104-0.288 0.154 0.041-0.053 0.088-0.099 0.124-0.155 0.011-0.074 0.004-0.148-0.003-0.221-0.086 0.045-0.179 0.050-0.273 0.034-0.077 0.050-0.136 0.122-0.201 0.186-0.108-0.011-0.217-0.041-0.325-0.025-0.073 0.040-0.13 0.106-0.21 0.132-0.204 0.063-0.381 0.187-0.579 0.267-0.090 0.033-0.148 0.116-0.235 0.155-0.078 0.035-0.159 0.066-0.238 0.1 0.027-0.112 0.038-0.226 0.057-0.339 0.027-0.081 0.065-0.158 0.093-0.239 0.028-0.116 0.168-0.154 0.204-0.265 0.017-0.082 0.001-0.166-0.005-0.249 0.021-0.002 0.064-0.005 0.085-0.007 0.017-0.090 0.021-0.186 0.072-0.265s0.114-0.152 0.153-0.238c0.047-0.098 0.065-0.208 0.128-0.299 0.075-0.111 0.104-0.244 0.147-0.369 0.019-0.075 0.044-0.153 0.029-0.23-0.030-0.072-0.085-0.131-0.113-0.204 0.030-0.105 0.115-0.188 0.129-0.298 0.028-0.172 0.112-0.326 0.185-0.481 0.025-0.063 0.109-0.114 0.080-0.188-0.020-0.081-0.114-0.102-0.161-0.162-0.078-0.104-0.080-0.241-0.13-0.356-0.040-0.059-0.097-0.104-0.135-0.164-0.038-0.097-0.024-0.206-0.060-0.303-0.049-0.131-0.132-0.248-0.165-0.385-0.033-0.125-0.037-0.264-0.12-0.369-0.089-0.14-0.262-0.199-0.334-0.353 0.038 0.002 0.076 0.005 0.114 0.008-0.055-0.169-0.12-0.338-0.228-0.481 0.016 0.104 0.043 0.205 0.057 0.309-0.138-0.272-0.222-0.567-0.337-0.848-0.085-0.194-0.185-0.382-0.268-0.578-0.053-0.118-0.035-0.254-0.089-0.371-0.082-0.167-0.020-0.354-0.043-0.531-0.009-0.127-0.074-0.239-0.105-0.36 0.019-0.082 0.060-0.158 0.103-0.229 0.059-0.022 0.124-0.011 0.186-0.013 0.021 0.133 0.014 0.269 0.034 0.402 0.031 0.101 0.121 0.17 0.195 0.241-0.023-0.066-0.051-0.13-0.078-0.194-0.055-0.122-0.018-0.263-0.070-0.386-0.037-0.108-0.126-0.185-0.184-0.28 0.012-0.055 0.041-0.104 0.070-0.15 0.087 0.041 0.146 0.122 0.228 0.172 0.097-0.049 0.081-0.186 0.104-0.278-0.075-0.103-0.22-0.146-0.257-0.278-0.050-0.123-0.016-0.27 0.067-0.37 0.117 0.033 0.226 0.104 0.304 0.198 0.074 0.087 0.021 0.204-0.004 0.299-0.051 0.142-0.001 0.291 0.023 0.433 0.043-0.003 0.086-0.006 0.129-0.008 0.022 0.072 0.042 0.144 0.058 0.218 0.081-0.056 0.167 0.004 0.247 0.030-0.029-0.065-0.057-0.131-0.072-0.202-0.030-0.144-0.099-0.278-0.134-0.421 0.030-0.071 0.121-0.123 0.194-0.083 0.037 0.055 0.056 0.12 0.095 0.174 0.078 0.060 0.169 0.099 0.255 0.147 0.003-0.238-0.080-0.465-0.18-0.676-0.038-0.075-0.049-0.159-0.063-0.241-0.016-0.091-0.079-0.165-0.096-0.255-0.017-0.092-0.032-0.185-0.055-0.276 0.028 0.023 0.056 0.046 0.084 0.070-0.076-0.204-0.101-0.424-0.196-0.621 0.073 0.034 0.149 0.038 0.222 0.002-0.045-0.15-0.089-0.3-0.123-0.452 0.12 0.060 0.206 0.163 0.296 0.259 0.065 0.021 0.137-0.004 0.204-0.003 0.056 0.037 0.072 0.108 0.107 0.161 0.049 0.098 0.15 0.156 0.196 0.255 0.066 0.139 0.129 0.28 0.225 0.401 0.040 0.023 0.084 0.035 0.127 0.051 0.016 0.043 0.020 0.098 0.068 0.119 0.074-0.032 0.145-0.072 0.217-0.108 0.052 0.058 0.107 0.115 0.163 0.169 0.013-0.069 0.027-0.139 0.041-0.208 0.041 0.054 0.081 0.107 0.121 0.161 0.013-0.051 0.026-0.101 0.039-0.152 0.103 0.009 0.206 0.017 0.31 0.017-0.012 0.030-0.024 0.061-0.036 0.092 0.049 0.057 0.095 0.117 0.136 0.18-0.060 0.021-0.121 0.040-0.181 0.061 0.043 0.029 0.087 0.058 0.131 0.088-0.027 0.030-0.055 0.061-0.080 0.094 0.016 0.057 0.086 0.057 0.131 0.078 0.039 0.11 0.11 0.202 0.193 0.284 0.007-0.065 0.014-0.13 0.022-0.195 0.159 0.108 0.299 0.242 0.455 0.354 0.062 0.044 0.1 0.111 0.138 0.174 0.006-0.051 0.012-0.102 0.020-0.152 0.093 0.071 0.191 0.136 0.305 0.169 0.171 0.047 0.223 0.242 0.356 0.341 0-0.166-0.089-0.306-0.139-0.458 0.099 0.144 0.152 0.313 0.236 0.465 0.146-0.045 0.264-0.141 0.377-0.24 0.055 0.118 0.098 0.241 0.161 0.356 0.026-0.027 0.051-0.055 0.075-0.084-0.006-0.086-0.033-0.171-0.011-0.258 0.051 0.077 0.088 0.166 0.162 0.225 0.11 0.092 0.188 0.214 0.273 0.328-0.002-0.061-0.006-0.121-0.008-0.181 0.068 0.040 0.131 0.088 0.194 0.136 0.076-0.098 0.022-0.22 0.051-0.33 0.109 0.028 0.076 0.181 0.141 0.26 0.063-0.056 0.133-0.105 0.207-0.145 0.042 0.059 0.085 0.117 0.131 0.173 0.005-0.062 0.004-0.124 0.001-0.186 0.080 0.033 0.184 0.012 0.244 0.085 0.058 0.070 0.15 0.083 0.232 0.107 0.046-0.114 0.050-0.235 0.046-0.356 0.041 0.038 0.080 0.079 0.119 0.12 0.215 0.020 0.375-0.14 0.503-0.289 0.070 0.007 0.14 0.016 0.211 0.023 0.11-0.133 0.246-0.24 0.384-0.343-0.007 0.050-0.014 0.101-0.019 0.152 0.11-0.082 0.221-0.164 0.349-0.215 0.003-0.094-0.007-0.195 0.053-0.274 0.003 0.082-0.002 0.165 0.004 0.247 0.053-0.054 0.091-0.12 0.126-0.187 0.029 0.011 0.057 0.023 0.086 0.034 0.040-0.059 0.072-0.124 0.122-0.175 0.048-0.042 0.116-0.032 0.174-0.041 0.038-0.079 0.054-0.188 0.147-0.221 0.085-0.031 0.152-0.092 0.199-0.169 0.060-0.004 0.12-0.008 0.179-0.014-0.030-0.024-0.060-0.048-0.090-0.072 0.063-0.076 0.113-0.162 0.173-0.24-0.002 0.066-0.008 0.131-0.011 0.197 0.113-0.095 0.23-0.187 0.344-0.28-0.018-0.056-0.036-0.113-0.053-0.17 0.086-0.012 0.182-0.001 0.256-0.054 0.083-0.069 0.128-0.178 0.23-0.226 0.087-0.040 0.141-0.121 0.207-0.187 0.077-0.011 0.156-0.003 0.234-0.010 0.002-0.045 0.004-0.090 0.006-0.134 0.080 0.005 0.174 0.039 0.24-0.026 0.125-0.105 0.266-0.188 0.408-0.268-0.022-0.041-0.045-0.083-0.068-0.124 0.293 0.020 0.442-0.268 0.655-0.412 0.001-0.069 0.006-0.138 0.014-0.206 0.022 0.055 0.041 0.111 0.059 0.167 0.311-0.191 0.627-0.373 0.95-0.543 0.134-0.068 0.192-0.231 0.337-0.281 0.288-0.102 0.521-0.305 0.778-0.464 0.159-0.103 0.315-0.211 0.478-0.306 0.183-0.111 0.321-0.277 0.467-0.43-0.134-0.248-0.336-0.456-0.447-0.717-0.077-0.184-0.263-0.286-0.357-0.458-0.102-0.186-0.206-0.371-0.284-0.568-0.035-0.089-0.154-0.137-0.142-0.244 0.009-0.094-0.020-0.184-0.036-0.276zM15.952 6.865c-0.7 0.748-1.408 1.49-2.107 2.24-0.39 0.437-0.804 0.851-1.206 1.277-0.451 0.496-0.893 1.001-1.354 1.489-0.255 0.279-0.525 0.545-0.768 0.834-0.104 0.148-0.242 0.341-0.154 0.527 0.392 0.876 0.818 1.736 1.268 2.584 0.168 0.34 0.369 0.665 0.527 1.010 0.259 0.52 0.488 1.058 0.81 1.543 0.374 0.649 0.653 1.345 0.996 2.010 0.459 0.808 0.977 1.581 1.428 2.394 0.191 0.322 0.36 0.658 0.585 0.958 0.243-0.343 0.48-0.69 0.692-1.053 0.111-0.189 0.192-0.394 0.293-0.589 0.166-0.333 0.352-0.656 0.514-0.99 0.428-0.815 0.974-1.567 1.34-2.415 0.215-0.502 0.468-0.988 0.712-1.477 0.318-0.621 0.64-1.24 1.008-1.833 0.27-0.506 0.535-1.014 0.799-1.522 0.101-0.208 0.211-0.422 0.228-0.656 0.021-0.175-0.108-0.312-0.198-0.447-1.244-1.666-2.735-3.122-4.189-4.599-0.417-0.42-0.804-0.868-1.225-1.285zM0.908 11.607c0.008 0.053-0.030 0.144 0.042 0.163 0.056 0.017 0.116 0.012 0.174 0.012-0.050-0.083-0.116-0.157-0.217-0.175zM0.475 12.097c0.012 0.062 0.027 0.125 0.071 0.174 0.080 0.099 0.142 0.209 0.212 0.315-0.064-0.174-0.087-0.413-0.283-0.489zM30.635 20.527c-0.002 0.107 0.121 0.169 0.207 0.209 0.009-0.060 0.023-0.119 0.029-0.179 0.075-0.041 0.112-0.116 0.125-0.198-0.127 0.032-0.335-0.004-0.361 0.168zM9.483 22.694c0.028 0.104 0.051 0.223 0.14 0.294 0.162 0.122 0.338 0.236 0.541 0.275 0.016-0.062 0.031-0.124 0.045-0.187-0.047 0.021-0.094 0.043-0.14 0.064-0.085-0.067-0.186-0.107-0.284-0.149-0.089-0.11-0.174-0.228-0.302-0.297zM10.225 23.251c0.039 0.042 0.093 0.063 0.135 0.102-0.006-0.053-0.012-0.106-0.020-0.158-0.038 0.020-0.076 0.038-0.115 0.056zM15.090 3.846c-0.015-0.069-0.035-0.138-0.062-0.203-0.013 0.076-0.029 0.171 0.062 0.203zM16.846 5.827c-0.042 0.031 0.011 0.103 0.054 0.072 0.042-0.032-0.011-0.103-0.054-0.072zM18.727 6.783c-0.015 0.046 0.001 0.061 0.047 0.048 0.014-0.046-0.001-0.062-0.047-0.048zM3.377 10.302c-0.035 0.030-0.015 0.1 0.031 0.107 0.071-0.008 0.035-0.145-0.031-0.107zM3.997 19.221c-0.054-0.003-0.057 0.086-0.002 0.086 0.054 0.004 0.056-0.088 0.002-0.086zM3.475 19.317c-0.050-0.003-0.066 0.087-0.008 0.086 0.051 0.003 0.066-0.087 0.008-0.086zM3.904 19.352c0.006 0.109 0.095-0.053 0 0zM4.032 19.417c-0.043 0.022-0.044 0.044-0.001 0.066 0.043-0.022 0.043-0.044 0.001-0.066zM1.746 19.773c-0.027 0.004-0.095 0.053-0.043 0.073 0.040 0.003 0.076-0.009 0.106-0.036 0.038-0.042-0.037-0.060-0.063-0.037zM2.627 19.773c-0.044 0.022-0.044 0.044-0.002 0.065 0.044-0.023 0.044-0.045 0.002-0.065zM5.973 20.954c0.042 0.079 0.098 0.151 0.168 0.209-0.021-0.093-0.071-0.181-0.168-0.209zM6.088 21.213c-0.045 0.028 0.002 0.105 0.047 0.071 0.045-0.029-0.003-0.106-0.047-0.071zM5.992 21.512c-0.046 0.028 0 0.107 0.045 0.069 0.046-0.028-0-0.106-0.045-0.069zM22.647 22.714c0.22-0.136 0.42-0.303 0.62-0.466-0.22 0.135-0.439 0.28-0.62 0.466zM20.638 25.345c-0.040 0.092-0.084 0.183-0.127 0.273 0.138-0.097 0.271-0.2 0.419-0.281 0.049-0.028 0.077-0.079 0.11-0.122-0.133 0.046-0.259 0.115-0.401 0.13zM12.756 25.59c-0.055 0.094 0.109 0.010 0 0zM18.702 26.983c0.035 0.014 0.072 0.024 0.109 0.034 0.015-0.103 0.013-0.207 0.001-0.309-0.041 0.090-0.079 0.181-0.11 0.275zM17.227 27.676c0.004 0.11 0.097-0.051 0 0zM18.28 28.072c-0.018 0.053 0 0.070 0.055 0.052 0.018-0.053-0.001-0.071-0.055-0.052z"></path>
</svg>
