<!-- Generated by IcoMoon.io -->
<svg version="1.1" xmlns="http://www.w3.org/2000/svg" width="19" height="32" viewBox="0 0 19 32">
<title>clan-silumgar</title>
<path fill="#444" d="M4.685 0.785c0.61-0.219 1.209-0.467 1.819-0.685 0.904-0.107 1.815-0.052 2.722-0.099 0.617 0.072 1.25 0.061 1.847 0.251 0.949 0.291 1.923 0.513 2.837 0.909 0.596 0.204 1.139 0.55 1.764 0.668-0.071 0.025-0.214 0.076-0.286 0.101 0.721 0.446 1.25 1.128 1.716 1.822 0.408 0.611 0.88 1.182 1.204 1.844 0.29 0.541 0.389 1.154 0.569 1.734 0.147 0.488 0.477 0.929 0.461 1.458-0.003 0.659 0.063 1.32-0.008 1.977-0.041 0.504 0.010 1.062-0.321 1.486-0.581 0.8-1.121 1.694-2.027 2.167 0.039-1.041-0.176-2.129-0.814-2.972-0.279-0.242-0.619-0.409-0.859-0.699-0.258-0.156-0.584-0.198-0.782-0.451-0.105 0.002-0.315 0.007-0.42 0.008 0.080 0.052 0.24 0.156 0.32 0.209-0.687 0.422-1.485 0.606-2.206 0.955-0.582 0.353-0.93 0.964-1.434 1.406-0.44 0.465-0.955 0.85-1.387 1.323-0.532 0.677-1.070 1.388-1.27 2.243-0.11 0.704-0.428 1.351-0.74 1.986-0.252 0.479-0.271 1.032-0.401 1.548-0.164 0.667 0.060 1.371-0.16 2.028-0.139 0.387-0.153 0.808-0.090 1.212 0.19 1.151 0.436 2.296 0.806 3.404 0.206 0.657 0.346 1.379 0.833 1.898 0.334 0.357 0.645 0.739 1.012 1.065 0.608 0.53 0.98 1.282 1.622 1.778 0.237 0.179 0.426 0.409 0.606 0.643-1.006-0.276-2.027-0.601-2.89-1.205-0.681-0.444-1.408-0.83-2.008-1.385-0.78-0.708-1.714-1.267-2.32-2.149-1.375-1.451-2.034-3.374-2.782-5.185-0.349-0.701-0.517-1.468-0.732-2.216-0.699-1.822-0.469-3.811-0.504-5.718-0.068-0.594-0.174-1.183-0.314-1.764-0.162-0.61 0.086-1.215 0.258-1.792 0.353 0.656 0.481 1.493 1.112 1.956 0.381 0.152 0.839 0.238 1.225 0.055 0.537-0.246 1.175-0.349 1.575-0.822 0.589-0.691 1.251-1.345 1.648-2.173 0.219-0.682 0.253-1.451-0.027-2.12-0.181-0.452-0.215-0.943-0.37-1.4-0.29-0.668-0.97-1.182-1.714-1.183-0.457-0.016-0.995-0.101-1.361 0.248-0.754 0.726-1.612 1.385-2.096 2.339-0.012-0.913 0.16-1.825 0.45-2.687 0.16-0.514 0.537-0.916 0.763-1.397 0.549-1.317 1.825-2.214 3.158-2.615z"></path>
</svg>
