<!-- Generated by IcoMoon.io -->
<svg version="1.1" xmlns="http://www.w3.org/2000/svg" width="32" height="32" viewBox="0 0 32 32">
<title>counter-arrow</title>
<path fill="#444" d="M31.753 0.265c-2.157 3.849-4.011 7.859-5.986 11.809-0.151-1.018-0.291-2.038-0.445-3.056l-13.467 13.101-0.508 0.512c-0.074 0.663-0.142 1.326-0.21 1.989-1.894 2.002-3.754 4.045-5.539 6.155 0.088-1.596 0.162-3.186 0.244-4.782-1.617 0.088-3.226 0.176-4.836 0.264 2.144-1.786 4.214-3.646 6.25-5.553 0.586-0.027 1.173-0.048 1.76-0.067l1.551-1.511c2.030-1.983 1.303-1.3 2.143-2.088l9.586-9.337 0.824-0.906c-0.954-0.135-2.364-0.443-3.317-0.578 3.99-1.968 7.988-3.93 11.951-5.952zM17.083 3.158c-0.893 1.806-1.82 3.774-2.708 5.592l-0.033 0.021-0.674-1.308c-0.049-0.121-0.014-0.041-0.115-0.234-1.928 1.975-3.822 3.837-5.77 5.791-0.027 0.44-0.121 1.42-0.148 1.86-0.987 1.109-2.037 2.237-3.031 3.34 0.007-0.656 0.034-1.975 0.041-2.638-0.636 0.034-1.914 0.108-2.557 0.142 1.089-1.001 2.185-2.002 3.273-2.996l1.948-0.223c1.88-1.921 3.733-3.875 5.634-5.783-0.367-0.183-0.236-0.129-0.381-0.189l-1.242-0.615c1.913-0.937 3.84-1.845 5.763-2.761h0zM18.56 1.696l-1.771 0.852c-0.398 0.192-0.824 0.395-1.398 0.668-0.048 0.023-1.146 0.544-1.468 0.698-0.188 0.090-0.188 0.090-0.377 0.179-1.058 0.505-1.872 0.9-2.602 1.265l-0.926 0.463-0.188 0.086 1.913 1.065c-1.713 1.753-0.854 0.87-2.579 2.65-0.149 0.154-0.149 0.154-0.298 0.308-0.623 0.645-1.247 1.29-1.874 1.931-0.245 0.028-0.49 0.056-0.735 0.084-0.487 0.056-0.487 0.056-0.974 0.112l-0.217 0.025-0.162 0.148c-1.476 1.347-2.345 2.143-3.275 2.998l-1.384 1.272 1.877-0.099c0.271-0.014 0.595-0.032 1.276-0.071 0.004-0 0.004-0 0.008-0 0.506-0.029 0.323-0.018 0.551-0.031-0.004 0.272-0.001 0.076-0.010 0.587l-0 0.008c-0.013 0.749-0.018 1.046-0.020 1.321l-0.018 1.787 1.197-1.327c0.374-0.415 0.493-0.546 1.426-1.567 0.162-0.178 0.162-0.178 0.324-0.355 0.518-0.568 0.909-1.001 1.283-1.421l0.156-0.175 0.014-0.233c0.011-0.175 0.028-0.388 0.073-0.914 0.053-0.632 0.036-0.402 0.056-0.688 0.666-0.667 0.289-0.29 1.131-1.131 0.189-0.189 1.062-1.058 1.3-1.296 0.362-0.361 0.667-0.666 0.96-0.959 0.497-0.5 0.995-0.997 1.488-1.501l1.099 1.9 0.336-0.767-0.001-0.001 0.246-0.563c0.334-0.666 0.474-1.174 1.172-2.54 0.068-0.132 0.068-0.132 0.135-0.265 0.615-1.204 0.997-1.96 1.383-2.741l0.871-1.762zM28.829 14.893c-0.893 1.806-1.82 3.774-2.708 5.592l-0.033 0.021-0.674-1.308c-0.049-0.121-0.014-0.041-0.115-0.234-1.928 1.975-3.822 3.837-5.77 5.791-0.027 0.44-0.121 1.42-0.148 1.86-0.987 1.109-2.037 2.237-3.031 3.339 0.007-0.656 0.034-1.975 0.041-2.638-0.636 0.034-1.914 0.108-2.557 0.142 1.089-1.001 2.185-2.002 3.273-2.996l1.948-0.223c1.88-1.921 3.733-3.875 5.634-5.783-0.367-0.183-0.236-0.129-0.381-0.189l-1.242-0.615c1.913-0.937 3.84-1.845 5.763-2.761h0zM30.306 13.431l-1.771 0.852c-0.398 0.192-0.824 0.395-1.398 0.668-0.048 0.023-1.145 0.544-1.468 0.698-0.188 0.090-0.188 0.090-0.377 0.179-1.058 0.505-1.872 0.9-2.602 1.265l-0.926 0.463-0.188 0.086 1.913 1.065c-1.713 1.753-0.854 0.87-2.579 2.65-0.149 0.154-0.149 0.154-0.297 0.308-0.623 0.645-1.247 1.29-1.874 1.93-0.245 0.028-0.49 0.056-0.735 0.084-0.487 0.056-0.487 0.056-0.974 0.112l-0.217 0.025-0.162 0.148c-1.475 1.347-2.345 2.143-3.275 2.998l-1.384 1.272 1.877-0.099c0.27-0.014 0.595-0.032 1.276-0.071 0.004-0 0.004-0 0.008-0 0.506-0.029 0.323-0.018 0.551-0.031-0.004 0.272-0.001 0.076-0.010 0.587l-0 0.008c-0.013 0.749-0.017 1.046-0.020 1.321l-0.018 1.787 1.197-1.327c0.374-0.415 0.493-0.546 1.426-1.567 0.162-0.177 0.162-0.177 0.324-0.355 0.518-0.568 0.909-1.001 1.283-1.421l0.156-0.175 0.014-0.233c0.011-0.175 0.028-0.388 0.073-0.914 0.053-0.632 0.036-0.402 0.056-0.688 0.666-0.667 0.289-0.29 1.131-1.131 0.189-0.189 1.061-1.058 1.3-1.296 0.362-0.361 0.667-0.666 0.96-0.959 0.497-0.5 0.995-0.997 1.488-1.501l1.099 1.9 0.336-0.767-0-0.001 0.246-0.563c0.334-0.666 0.474-1.174 1.172-2.54 0.068-0.132 0.068-0.132 0.135-0.265 0.615-1.204 0.997-1.96 1.383-2.741l0.871-1.762z"></path>
</svg>
