<!-- Generated by IcoMoon.io -->
<svg version="1.1" xmlns="http://www.w3.org/2000/svg" width="20" height="32" viewBox="0 0 20 32">
<title>counter-doom</title>
<path fill="#444" d="M15.078 0l1.221 2.744c0.119-0.050 0.251-0.054 0.378-0.063 0.36 0.022 0.644 0.211 0.817 0.525l1.541 3.178c0.227 0.469 0.023 1.039-0.457 1.273l-0.078 0.034 1.5 3.372-0.75 3.152c0.498 0.143 0.752 0.627 0.664 1.122l-0.802 3.441c-0.126 0.499-0.616 0.798-1.117 0.706l-1.217 5.111c0.442 0.169 0.666 0.61 0.596 1.069l-0.711 3.461c-0.105 0.511-0.614 0.837-1.136 0.729l-0.001-0-0.511 2.146h-9.657l-0.553-2.161c-0.445 0.040-0.821-0.268-0.96-0.674l-0.972-3.397c-0.124-0.47 0.128-0.99 0.596-1.15l-1.314-5.136c-0.498 0.102-0.952-0.229-1.094-0.695l-0.854-3.428c-0.093-0.405 0.083-0.826 0.44-1.040 0.053-0.032 0.111-0.053 0.167-0.079l-0.813-3.176 1.65-3.367-0.090-0.039c-0.48-0.234-0.684-0.804-0.457-1.273l1.541-3.178c0.19-0.356 0.432-0.475 0.817-0.525 0.164-0.008 0.315 0.036 0.464 0.099 0.093 0.051 0.060 0.028 0.104 0.061l1.392-2.842h9.657zM17.511 12.297l-12.084 11.826 1.333 5.751 6.791 0.063 3.96-17.64zM13.832 2.125h-7.165l-4.268 8.938 1.438 6.203 11.512-11.714-1.517-3.426z"></path>
</svg>
