<!-- Generated by IcoMoon.io -->
<svg version="1.1" xmlns="http://www.w3.org/2000/svg" width="31" height="32" viewBox="0 0 31 32">
<title>counter-flood</title>
<path fill="#444" d="M15.625 0.375c8.629 0 15.625 6.996 15.625 15.625s-6.996 15.625-15.625 15.625c-8.629 0-15.625-6.996-15.625-15.625s6.996-15.625 15.625-15.625zM29.065 13.982c-1.699 2.090-4.134 3.691-6.921 3.646-3.828 0.338-7.292-1.628-11.009-2.090-3.646-0.41-7.507 2.448-7.409 6.296 0.592 3.21 3.496 5.267 6.165 6.758-0.605-1.335-1.068-3.366 0.521-4.219 4.447-2.435 9.629 1.771 14.043-1.139-1.869 2.142-4.779 2.506-7.454 2.135-1.68-0.273-4.251 0.26-4.297 2.376 0.417 1.588 2.161 2.044 3.607 1.953 3.307 0.189 6.263-1.686 8.639-3.796 3.32-2.943 4.466-7.637 4.115-11.921zM14.391 2.471c-0.023 0.006-0.082 0.028-0.105 0.031-1.006 0.093-3.014 0.432-5.995 2.124-4.553 2.584-6.693 8.131-6.309 13.203 1.55-2.813 4.779-4.57 7.995-3.796 4.004 0.911 8.145 2.715 12.279 1.283 2.923-0.605 4.342-3.548 4.948-6.198-2.878 3.060-7.734 3.132-11.419 1.667-1.908-0.729-4.154-2.168-3.984-4.499 0.065-1.686 1.406-2.813 2.591-3.815zM19.834 2.803c-0.212 0.006-0.232 0.029-0.232 0.029 0.493 0.342 0.84 0.887 1.151 1.388l0.001 0.002c0.322 0.471 0.557 1.199 0.437 1.774-0.025 0.121-0.093 0.357-0.256 0.36-0.063 0.001-0.086-0.023-0.13-0.054-4.022-3.483-5.835-0.987-5.984 0.404-0.031 0.511 0.024 1.026 0.286 1.477 0.28 0.483 0.753 1.030 1.241 1.294 1.462 0.789 2.842 1.040 4.464 1.039 3.194-0.019 4.072-1.732 4.13-2.848 0.045-2.020-1.727-3.467-3.384-4.298-0.556-0.279-1.456-0.575-1.724-0.567z"></path>
</svg>
