<!-- Generated by IcoMoon.io -->
<svg version="1.1" xmlns="http://www.w3.org/2000/svg" width="32" height="32" viewBox="0 0 32 32">
<title>counter-scream</title>
<path fill="#444" d="M15.711 3.648l0.166 0.804 0.004-0.002 0.031 0.172 0.049 0.237-0.005 0.011 1.888 10.639 1.941-6.68 3.843 6.9 8.302 0.731-1.844 0.52-0.032-0.003-4.106 1.168-1.026 5.826-4.085-6.688-3.821 11.067-2.898-13.698-4.054 8.314-0.062 0.142-1.61-4.307-8.322-2.655h0.078l9.676-0.215 5.886-12.285zM15.4 6.033l-5.088 10.647-6.211 0.078 4.873 1.462 1.139 3.047 4.278-8.915 2.793 13.158 3.465-9.959 3.873 6.39 0.766-4.384 2.803-0.731-4.726-0.366h-0.152l-3.2-5.722-2.369 8.004-0.124-0.718-0.001 0.001-2.118-11.993z"></path>
</svg>
