<!-- Generated by IcoMoon.io -->
<svg version="1.1" xmlns="http://www.w3.org/2000/svg" width="31" height="32" viewBox="0 0 31 32">
<title>counter-skull</title>
<path fill="#444" d="M15.438 0.375l0.403 0.005c8.529 0.32 15.114 7.090 15.222 15.62 0 8.629-6.996 15.625-15.625 15.625s-15.625-6.996-15.625-15.625c0-8.629 6.996-15.625 15.625-15.625v0zM14.016 1.026v0c-7.269 0.684-12.831 6.444-13.562 13.645 0.415-0.615 1.135-0.941 1.861-0.96l0.118 0.003c1.223 0.083 2.14 1.068 2.171 2.286 0 1.264-1.025 2.289-2.289 2.289-0.723-0.008-1.45-0.351-1.861-0.96 0.718 7.437 6.383 12.917 13.761 13.666-0.671-0.425-1.046-1.148-1.066-1.933 0-1.264 1.025-2.289 2.289-2.289s2.289 1.025 2.289 2.289c0.002 0.797-0.416 1.494-1.066 1.933 7.288-0.651 13.012-6.29 13.752-13.573-0.435 0.556-1.093 0.849-1.791 0.867-1.264 0-2.289-1.025-2.289-2.289s1.025-2.289 2.289-2.289c0.705-0.001 1.346 0.328 1.791 0.867-0.696-7.225-6.403-12.748-13.553-13.553 0.559 0.436 0.832 1.096 0.867 1.791 0 1.264-1.025 2.289-2.289 2.289s-2.289-1.025-2.289-2.289c-0.001-0.705 0.328-1.346 0.867-1.791zM18.518 2.363c5.126 1.078 9.503 5.409 10.556 10.556-0.344-0.035-0.194-0.027-0.451-0.034-1.719 0-3.113 1.394-3.113 3.113s1.394 3.113 3.113 3.113c0.258-0.006 0.107 0.001 0.451-0.034-1.080 5.141-5.423 9.506-10.579 10.561 0.047-0.189 0.052-0.385 0.057-0.578 0-1.719-1.394-3.113-3.113-3.113s-3.113 1.394-3.113 3.113c-0.001 0.194 0.018 0.388 0.057 0.578-5.143-1.076-9.525-5.408-10.582-10.571 0.168 0.038 0.343 0.040 0.515 0.044 1.719 0 3.113-1.394 3.113-3.113s-1.394-3.113-3.113-3.113c-0.172 0.002-0.346 0.010-0.515 0.044 1.077-5.13 5.406-9.512 10.558-10.566-0.035 0.344-0.027 0.194-0.034 0.451 0 1.719 1.394 3.113 3.113 3.113s3.113-1.394 3.113-3.113c-0.006-0.258 0.001-0.107-0.034-0.451v0zM14.941 16.964c-0.775 0.008-1.703 0.019-1.399 1.078 0.417 1.396 0.688 2.542 0.73 5.019 0.001 0.043-0.016 0.103 0.020 0.127 2.583 1.745 4.833 2.323 7.53 3.061 0.029 0.008 0.041-0.013 0.069-0.004 0.003-0.053 0.018-0.074 0.024-0.125 0.117-1 0.117-1.563 0.023-2.578-0.004-0.047-0.003-0.139 0-0.188-0.046-0.014-0.159-0.074-0.203-0.094-0.672-0.297-2.508-1.253-3.964-0.573-0.462-0.16-0.709-0.063-1.459-0.392-0.030-0.013-0.088-0.062-0.089-0.115-0.002-0.094 0.008-0.187 0.011-0.28 0.183-2.984-0.102-3.227-0.109-4.9-0.073 0-0.146 0.003-0.219 0.001-0.167-0.004-0.805-0.031-0.965-0.038zM14.843 6.625c-1.817 0.008-3.316 0.38-4.839 1.406-2.299 1.76-3.332 4.040-3.213 7.246 0.104 2.792 1.854 4.542 3.854 5.729 0.070 0.041 0.015-0.167 0.021-0.249 0.125-1.709 0.504-3.85 2.018-5.145 0.044-0.038 0.070-0.092 0.107-0.138 1.543 0.013 3.234 0.44 4.469-0.729 0 0 0.125-0.141 0.125-0.141 0.859-0.906 0.619-2.265 0.442-3.395 0.038 0.037 0.071 0.077 0.112 0.108 0.711 0.535 1.179 1.132 1.791 2.013 0.018 0.026 0.094 0.055 0.066 0.070-2.613 1.403-3.169 3.447-2.742 5.903 0 0 0.018 0.141 0.018 0.141 1.011 0.284 1.741 0.472 1.956 1.927 0.005 0.035 0.010 0.071 0.013 0.107 1.222 0.302 3.532 1.101 3.667 0.75 0.542-1.417 0.547-2.514-0.083-3.854 0.197-0.545 0.847-0.929 0.688-1.488-0.104-0.366-0.208-0.553-0.563-0.97-0.106-0.125-0.292-0.417 0.024-1.404 0.018-0.057 0.004-0.091 0.002-0.16-0.247-4.478-3.504-7.513-7.933-7.728zM20.477 14.634c0.805 0.013 1.094 0.283 1.273 1.074 0.16 0.819-0.726 1.948-1.5 1.771-1-0.229-1.375-0.75-1.354-1.5 0.023-0.839 0.688-1.25 1.438-1.333l0.144-0.012zM15.438 27.597v0c-0.809 0-1.465 0.656-1.465 1.465s0.656 1.465 1.465 1.465 1.465-0.656 1.465-1.465c0-0.809-0.656-1.465-1.465-1.465zM2.315 14.535l-0.15 0.008c-0.764 0.111-1.276 0.691-1.315 1.457 0 0.809 0.656 1.465 1.465 1.465s1.465-0.656 1.465-1.465c-0.039-0.767-0.551-1.346-1.315-1.457l-0.15-0.008zM28.621 14.535v0c-0.809 0-1.465 0.656-1.465 1.465s0.656 1.465 1.465 1.465c0.809 0 1.465-0.656 1.465-1.465s-0.656-1.465-1.465-1.465zM15.438 1.352v0c-0.809 0-1.465 0.656-1.465 1.465s0.656 1.465 1.465 1.465 1.465-0.656 1.465-1.465c0-0.809-0.656-1.465-1.465-1.465z"></path>
</svg>
