<!-- Generated by IcoMoon.io -->
<svg version="1.1" xmlns="http://www.w3.org/2000/svg" width="32" height="32" viewBox="0 0 32 32">
<title>counter-brick</title>
<path fill="#444" d="M16.59 0.297l15.111 15.111c0.326 0.326 0.326 0.855 0 1.181l-15.111 15.111c-0.326 0.326-0.855 0.326-1.181 0l-15.111-15.111c-0.326-0.326-0.326-0.855 0-1.181 0 0 14.551-14.568 15.111-15.111s1.181 0 1.181 0zM23.514 9.582l-13.931 13.931 6.417 6.417 13.931-13.931-6.417-6.417zM8.361 9.707l-6.292 6.292 6.333 6.333 6.291-6.291-6.333-6.333zM16 2.068l-6.458 6.458 6.333 6.333 6.459-6.459-6.333-6.333z"></path>
</svg>
