<!-- Generated by IcoMoon.io -->
<svg version="1.1" xmlns="http://www.w3.org/2000/svg" width="24" height="32" viewBox="0 0 24 32">
<title>counter-verse</title>
<path fill="#444" d="M7.34 0.403c-0.081 1.973 0.566 2.932 0.573 4.633 6.702 0 5.36-0.001 8.050 0 0.007-1.701 0.654-2.66 0.573-4.633h5.462c-0.081 2.345-1.777 3.19-2.934 4.612 1.628 0.12 2.964 0.583 4.506 0.989-1.462 0.594-2.789 1.080-4.344 1.28-0.029 0.004 0.011 0.105-0.016 0.113 0.32 3.641 1.895 7.147 4.665 9.583-1.201 4.986-2.658 9.764-4.316 14.617h-15.214c-1.658-4.853-3.143-9.63-4.344-14.617 2.77-2.436 4.346-5.941 4.665-9.583-0.027-0.009 0.012-0.11-0.016-0.113-1.555-0.201-2.882-0.687-4.344-1.28 1.542-0.405 2.878-0.869 4.506-0.989-1.156-1.422-2.853-2.267-2.934-4.612h5.463zM11.938 27.106v-0.005c-0.927 1.212-1.675 2.556-1.879 4.085 0.626 0.001 1.252 0.005 1.879 0.009v-0c1.254-0.008 0.628-0.005 1.879-0.009-0.204-1.528-0.952-2.868-1.879-4.080v0zM4.945 20.808c-0.186 0.001-0.107 0-0.24 0.001-0.503 0.085-0.869 0.425-0.941 0.936 0 0-0.016 0.476 0.502 0.368 1.75-0.367 1.329 4.007 4.991 5.156 0.277 0.087-0.009-0.8-0.062-1.086-1.874-1.103-2.891-2.843-3.429-4.923-0.186-0.225-0.442-0.408-0.74-0.446l-0.080-0.006zM18.93 20.808v0l-0.080 0.006c-0.297 0.038-0.554 0.221-0.74 0.446-0.538 2.080-1.555 3.82-3.429 4.923-0.053 0.286-0.339 1.173-0.062 1.086 3.662-1.148 3.24-5.522 4.991-5.156 0.518 0.108 0.502-0.368 0.502-0.368-0.072-0.512-0.438-0.851-0.941-0.936-0.133-0.001-0.054-0-0.24-0.001v0zM13.161 7.099h-0.621v14.615l0.621-0.015v-14.6zM11.335 7.099h-0.621v14.6l0.621 0.015v-14.615zM14.035 13.841h-0v0c-0.007 2.412-0.040 4.818-0.020 7.224 1.376-1.057 3.15-2.107 3.469-3.961-0.166-1.821-1.808-2.911-3.449-3.263v-0zM9.84 13.841c-1.641 0.352-3.283 1.442-3.449 3.263 0.319 1.854 2.093 2.904 3.469 3.961 0.020-2.406-0.013-4.811-0.020-7.224v-0zM14.009 7.12v0c0.013 2.113 0 3.969 0 6.082 0.419-0.153 1.256-0.285 1.675-0.431-0.020-1.914-0.019-3.634 0.001-5.548l-1.676-0.103zM9.866 7.12l-1.676 0.103c0.020 1.914 0.021 3.634 0.001 5.548 0.419 0.146 1.256 0.278 1.675 0.431 0-2.113-0.013-3.969 0-6.082v0z"></path>
</svg>
