<!-- Generated by IcoMoon.io -->
<svg version="1.1" xmlns="http://www.w3.org/2000/svg" width="21" height="32" viewBox="0 0 21 32">
<title>counter-flame</title>
<path fill="#444" d="M6.362 0c2.133 0.065 4.406-0.063 5.893 1.591 1.536 1.286 1.668 3.391 2.008 5.219l0.018-0.008c0.575-0.422 1.221-0.739 1.867-1.035 1.027-0.446 1.468-0.528 1.798-0.604l0.005 0-0.006 0.004c-0.725 1.99-1.757 4.019-0.832 6.118 1.237 2.592 2.919 4.982 3.627 7.811v1.091c-0.403 5.358-3.776 10.972-9.468 11.764l-1.106 0.049c-5.073 0.028-9.726-3.237-10.133-8.875-0.195-2.707 0.888-4.55 2.041-6.413 0.076-2.21 0.765-4.309 2.245-5.976 0.417-0.428 0.895-0.888 1.491-1.045 0.351-2.337 2.297-4.744 2.030-7.146-0.117-1.052-0.698-1.876-1.478-2.546zM12.242 26.354c-0.41 0.012-0.236-0.017-0.526 0.051-1.318 0.408-0.976 2.796-2.205 2.76l-0.282-0.008c-1.531-0.223-2.341-0.982-2.025-0.532 0.667 0.948 0.8 1.226 2.165 1.96 1.107 0.557 2.498 0.432 3.562-0.325 0.846-0.602 1.093-1.388 0.933-2.228-0.21-0.826-0.747-1.526-1.622-1.677zM5.259 11.113v0c-1.709 1.967-2.733 5.092-0.878 7.295 0.73 1.438 3.224 2.793 1.786 4.489-2.835 0.98-3.896-2.009-3.966-4.163-0.569 1.301-1.711 4.475-0.136 7.427 0.439 0.823 0.542 0.916 0.6 0.99 1.033 1.483 2.61 2.518 4.225 3.266-0.521-1.209-1.043-2.246-0.237-3.476 1.779-3.356 7.984-2.932 8.617 1.16 0.202-2.099 0.035-4.357-1.209-6.136-1.828-2.675-4.77-3.798-7.355-5.577-1.64-1.174-1.225-3.553-1.447-5.276v0zM2.084 19.192c-0.026 0.101-0.007 0.027-0.061 0.224 0.018-0.109 0.003-0.033 0.061-0.224zM8.836 1.133c1.661 3.676-2.773 6.873-1.223 10.583 1.445 3.607 4.899 5.809 7.22 8.797 1.501 1.925 1.598 4.503 1.633 6.838 1.633-2.425 3.051-5.281 2.585-8.29-0.327-4.086-4.865-6.932-3.517-11.296-1.362 1.133-2.243 2.769-2.653 4.479-0.417-2.258-0.063-4.538-0.167-6.81-0.264-2.106-1.872-3.775-3.737-4.016l-0.141-0.286z"></path>
</svg>
