<!-- Generated by IcoMoon.io -->
<svg version="1.1" xmlns="http://www.w3.org/2000/svg" width="24" height="32" viewBox="0 0 24 32">
<title>counter-lore</title>
<path fill="#444" d="M4.537 0l0.589 0.002 0.609 0.015c4.599 0.173 7.066 1.635 10.9 1.628 2.022-0.011 4.040-0.222 6.029-0.58l0.002 0.005c0.153-0.031 0.077-0.022 0.229-0.029 0.609 0 1.102 0.493 1.102 1.102v28.155c-0.011 0.471-0.513 1.079-1.026 1.239-1.615 0.501-3.058 0.49-4.707 0.445-4.599-0.173-7.066-1.635-10.9-1.628-2.022 0.011-4.040 0.222-6.029 0.58l-0.002-0.005c-0.153 0.031-0.077 0.022-0.229 0.029-0.609 0-1.102-0.493-1.102-1.102v-28.036c0-0.514 0.595-1.112 1.104-1.284 1-0.338 1.853-0.502 2.841-0.529l0.589-0.005zM5.269 1.007c-1.314-0.044-2.476 0.023-3.507 0.4-0.655 0.239-0.627 0.743-0.638 1.181l0.016 26.152 0.004 0.253c0 0.562 0.116 0.855 0.593 0.84 0.139-0.005 0.474-0.043 0.613-0.072l0.001 0.004c1.808-0.331 3.643-0.525 5.481-0.536 3.486-0.006 5.728 1.532 9.909 1.692 1.499 0.042 3.195 0.206 4.619-0.38 0.64-0.263 0.588-0.63 0.593-1.363v-25.966l0.012-0.368c0.013-0.694-0.181-0.714-0.735-0.714-0.138 0.007-0.348 0.033-0.488 0.061l-0.001-0.004-0.387 0.067v18.224l-2.065 2.737c-0.153 0.215-0.414 0.456-0.666 0.469-0.247-0.009-0.533-0.255-0.678-0.469l0 0-2.065-2.737v-17.762c-2.205-0.048-4.29-0.843-6.428-1.288-1.040-0.216-2.087-0.345-3.148-0.397l-0.554-0.013-0.482-0.010zM1.912 25.844l-0.021 3.211c0 0 3.095-0.535 5.793-0.535s8.491 1.841 10.791 1.798c2.3-0.043 3.994-0.749 3.994-0.749l0.021-3.339c0 0-1.527 0.557-4.204 0.492s-9.327-1.413-11.335-1.413-5.040 0.535-5.040 0.535zM7.26 9.249c-0.318 0.001-0.637 0.003-0.955 0.002-0.304 0.015-0.609 0.026-0.913 0.046-0.776 0.050-1.547 0.154-2.313 0.273l-0.005 1.282c1.749-0.279 3.492-0.357 4.841-0.271 1.039 0.066 1.835 0.195 3.324 0.503 0.050 0.010 0.102 0.021 0.204 0.042 1.182 0.245 2.151 0.439 2.931 0.539l-0.144-1.374c-0.722-0.092-1.285-0.196-2.425-0.432-0.102-0.021-0.154-0.032-0.204-0.042-1.565-0.324-2.429-0.464-3.573-0.536-0.256-0.012-0.512-0.029-0.769-0.031zM7.299 14.855c-0.322 0.002-0.644 0.004-0.967 0.003-0.308 0.019-0.616 0.032-0.924 0.056-0.786 0.061-1.555 0.141-2.33 0.285l-0.004 1.501c1.853-0.269 3.495-0.351 4.868-0.247 1.057 0.080 1.904 0.132 3.416 0.509 0.051 0.013 0.103 0.026 0.207 0.052 1.198 0.299 2.020 0.49 2.81 0.611l-0.151-1.556c-0.734-0.113-1.154-0.229-2.311-0.518-0.104-0.026-0.156-0.039-0.207-0.052-1.585-0.395-2.471-0.519-3.629-0.607-0.259-0.015-0.518-0.035-0.778-0.037zM6.069 20.457c-0.391 0.020-0.783 0.024-1.174 0.059-0.842 0.075-1.098 0.134-1.821 0.266l0.005 1.814c1.516-0.305 3.184-0.368 4.575-0.227 1.075 0.108 1.972 0.048 3.534 0.451 1.201 0.311 1.269 0.328 1.731 0.433 0.845 0.192 2.337 0.513 3.060 0.563l-1.020-2.051c-0.639-0.044-0.941-0.14-1.719-0.316-0.441-0.1-0.507-0.117-1.688-0.422-1.629-0.421-2.559-0.407-3.727-0.525-0.959-0.079-0.408-0.008-1.755-0.043zM7.26 3.439c-0.318 0.001-0.637 0.003-0.955 0.002-0.304 0.014-0.609 0.023-0.913 0.041-0.776 0.044-1.547 0.136-2.313 0.241l-0.005 1.132c1.749-0.246 3.492-0.315 4.841-0.24 1.039 0.058 1.835 0.172 3.324 0.444 0.050 0.009 0.102 0.019 0.204 0.037 1.182 0.216 2.151 0.388 2.931 0.476l-0.144-1.213c-0.722-0.081-1.285-0.173-2.425-0.382-0.102-0.019-0.154-0.028-0.204-0.037-1.565-0.286-2.429-0.41-3.573-0.473-0.256-0.011-0.512-0.026-0.769-0.027z"></path>
</svg>
