<!-- Generated by IcoMoon.io -->
<svg version="1.1" xmlns="http://www.w3.org/2000/svg" width="32" height="32" viewBox="0 0 32 32">
<title>counter-pin</title>
<path fill="#444" d="M1.444 0.899l0.627 0.188c1.471 0.43 2.901 0.98 4.282 1.642 3.756 2.084 6.302 5.682 9.596 8.355 2.553-2.166 4.757-4.706 7.341-6.841 2.078-1.691 4.637-2.603 7.183-3.338-0.69 2.242-1.393 4.535-2.825 6.429-2.206 2.856-4.882 5.298-7.246 8.015l4.843 0.206c0 0 0.663 0.444 0.814 2.794 0.080 1.237-0.128 2.498-0.652 3.63l3.733 3.931 2.788-1.049c0 0 0.545 2.547-1.373 4.491-2.218 2.248-4.572 1.685-4.572 1.685l0.551-2.468-3.727-3.925c-0.891 0.474-2.313 0.891-3.342 0.858-1.744-0.087-3.402-0.93-3.402-0.93s-1.832 0.989-3.518 0.989c-0.947-0.052-1.893-0.324-2.75-0.722-0.186-0.086-0.365-0.188-0.548-0.281l-3.721 3.951 0.49 2.499c0 0-2.354 0.564-4.572-1.685-1.918-1.944-1.373-4.491-1.373-4.491l2.788 1.049 3.803-4.005c-0.526-1.047-0.674-2.223-0.659-3.381 0.044-1.558 0.83-2.942 0.83-2.942l4.29-0.207 0.345-0.286-0.105-0.108c-3.959-3.942-8.843-8.356-9.92-14.053v0zM3.161 2.654v0c1.001 2.762 2.73 5.2 4.827 7.24l5.572 5.549 0.063 0c2.049 2.044 4.108 4.078 6.158 6.12l0.476 0.506c-0.428 0.264-1.163 0.809-1.591 1.073-0.623-0.459-1.394-0.897-2.017-1.369 0.113 0.768 0.277 1.396 0.384 2.164 1.849 0.789 3.747 0.636 5.688-0.344 0.078-0.039 0.201-0.156 0.281-0.188l4.438 4.781-0.281 1.938c0 0 1.934-0.345 2.76-1.275 1.615-1.819 1.146-2.757 1.146-2.757l-2.125 0.844c-1.656-1.382-3.039-3.202-4.625-4.656 0.893-1.796 1.535-4.181 0.219-5.906l-1.844-0.094 1.177 1.754c-0.384 0.535-0.717 1.104-1.089 1.59-1.665-1.614-0.717-0.688-2.836-2.788-0.384-0.39-0.768-0.78-1.152-1.169l-0.24-0.246h-0.002c-1.298-1.316-2.639-2.588-3.958-3.883-3.433-3.37-6.676-7.36-11.427-8.887zM9.563 16.219l-1.875 0.125c-1.344 1.781-0.763 3.89 0.156 5.719l-4.656 4.75-2.25-0.813c0 0-0.33 1.055 1.391 2.85 0.861 0.898 2.671 1.275 2.671 1.275l-0.375-2.063c1.851-2.036 2.618-2.73 4.5-4.688 0.080 0.032 0.328 0.211 0.406 0.25 1.941 0.98 3.838 1.070 5.688 0.281 0.107-0.768 0.199-1.295 0.313-2.063-0.623 0.472-1.328 0.84-1.951 1.299-0.428-0.264-1.163-0.809-1.591-1.073l0.476-0.506c2.044-2.044 0.681-0.672 2.725-2.716l-2.456-2.449c-0.384 0.39-0.045 0.049-0.429 0.439-2.119 2.1-1.171 1.173-2.836 2.788-0.372-0.486-0.772-1.060-1.156-1.595l1.25-1.813zM28.77 2.654c-4.998 1.584-8.304 5.878-11.953 9.362 0.792 0.83 1.584 1.66 2.369 2.496 3.61-3.56 7.835-6.911 9.584-11.858v0z"></path>
</svg>
