<!-- Generated by IcoMoon.io -->
<svg version="1.1" xmlns="http://www.w3.org/2000/svg" width="26" height="32" viewBox="0 0 26 32">
<title>counter-paw</title>
<path fill="#444" d="M13.11 0c2.848 0.684 5.211 2.755 7.19 4.833 3.764 3.897 5.729 9.248 6.074 14.592-0.192 5.039-3.22 10.362-8.051 12.151-2.909 1.077-3.931-0.055-5.193-1.635-0.757 0.763-1.649 1.779-2.349 1.977-0.57 0.161-1.616-0.054-1.616-0.054-3.386-0.511-5.807-3.224-7.553-5.972-2.642-4.986-1.779-11.113 0.737-15.966 2.297-4.348 5.975-8.424 10.761-9.925zM13.541 15.89l-0.318 0.005c-0.186 0.014-0.372 0.022-0.557 0.043-0.458 0.052-0.91 0.145-1.355 0.264-1.498 0.684-1.998 2.545-3.291 3.517-0.896 0.876-2.258 1.334-2.805 2.511-0.041 2.6 1.327 5.152 3.428 6.67 1.129 0.404 2.367-0.126 3.467-0.437 2.029-0.575 3.73 0.841 5.625 0.485 1.334-0.992 2.436-2.347 2.956-3.941 0.493-1.382 0.999-3.4-0.732-4.105-1.902-1.054-3.927-4.327-4.343-4.543-0.66-0.288-1.348-0.476-2.074-0.469zM21.822 13.318c-2.59 0.113-3.634 3.697-2.838 5.778 1.136 0.807 2.436 1.341 3.667 1.984 0.862-2.319 1.799-5.111 0.417-7.423-0.392-0.193-0.805-0.335-1.247-0.339zM4.54 13.32c-0.474 0.043-0.829 0.133-1.249 0.371-1.409 2.285-0.335 5.042 0.424 7.355 1.252-0.609 2.559-1.129 3.701-1.929 0.794-2.087-0.26-5.719-2.876-5.797zM15.628 6.603l-0.221 0.028c-1.19 2.49-2.114 6.639-0.39 8.176 2.051 1.828 4.31-0.722 4.137-3.307-0.136-1.659-0.904-4.27-2.711-4.811-0.354-0.106-0.447-0.081-0.816-0.085zM10.788 6.603c-0.369 0.004-0.462-0.021-0.816 0.085-1.827 0.548-2.557 3.143-2.711 4.811-0.172 2.586 2.087 5.136 4.137 3.307 1.724-1.537 0.8-5.685-0.39-8.176l-0.221-0.028zM6.41 8.542c-0.971 1.143-3.027 3.61-2.412 3.81 0.437 0.142 2.232 0.613 2.184 0.114-0.104-1.092 0.125-2.611 0.228-3.925zM20.28 8.542c0.103 1.314 0.332 2.832 0.228 3.925-0.048 0.499 1.748 0.028 2.184-0.114 0.615-0.2-1.441-2.668-2.412-3.81zM13.715 2.837c0.28 0.937 0.575 1.868 0.889 2.798 0.588 0.021 1.758 0.068 2.347 0.096-0.759-1.279-1.929-2.21-3.236-2.894zM12.545 2.844c-1.307 0.65-2.381 1.649-3.154 2.887 0.575-0.021 1.717-0.062 2.292-0.075 0.301-0.937 0.588-1.875 0.862-2.812z"></path>
</svg>
