<!-- Generated by IcoMoon.io -->
<svg version="1.1" xmlns="http://www.w3.org/2000/svg" width="30" height="32" viewBox="0 0 30 32">
<title>counter-vortex</title>
<path fill="#444" d="M15 1c8.284 0 15 6.716 15 15s-6.716 15-15 15c-8.284 0-15-6.716-15-15s6.716-15 15-15zM8.586 13.721l-0.321 0.005c-1.188 0.059-2.351 0.447-3.28 1.201-2.734 2.673-1.129 7.035 1.311 9.3 2.916 3.321 8.765 5.483 12.365 2.008-4.321 0.856-8.936-2.008-10.015-6.227-0.585-2.031 0.509-3.758 2.803-4.385 0.938-0.257 2.126-0.183 3.165 0.097 0.027 0.007 0.073-0.001 0.098-0.014-1.773-1.055-3.724-1.869-5.806-1.981l-0.321-0.003zM22.358 7.818c2.77 3.426 2.383 8.843-0.85 11.763-1.526 1.463-3.563 1.299-5.186-0.439-0.664-0.711-1.152-1.796-1.388-2.846-0.006-0.028-0.034-0.064-0.058-0.080-0.2 3.245 0.475 7.515 3.839 8.971 3.639 1.175 6.752-2.276 7.621-5.489 1.582-4.126 0.773-10.31-3.979-11.879zM15.033 3.997c-0.221 0.003-0.442-0.002-0.663 0.009-0.536 0.027-1.070 0.1-1.592 0.225-4.38 0.587-9.421 4.258-8.523 9.181 1.682-4.072 6.622-6.326 10.733-4.887 2.015 0.639 2.846 2.506 2.097 4.763-0.306 0.923-1.026 1.871-1.834 2.581-0.021 0.019-0.040 0.061-0.043 0.090 2.944-1.378 6.37-4.016 6.038-7.666-0.611-2.952-3.405-4.196-6.213-4.296z"></path>
</svg>
