<!-- Generated by IcoMoon.io -->
<svg version="1.1" xmlns="http://www.w3.org/2000/svg" width="30" height="32" viewBox="0 0 30 32">
<title>counter-charge</title>
<path fill="#444" d="M14.958 0.318c2.3 3.955 4.594 7.914 6.83 11.906 1.209-1.512 0.563-0.737 1.948-2.318 1.968 2.43 3.795 5.103 4.552 8.172l0.114-0.012c0.883 0 1.598 0.716 1.598 1.598s-0.715 1.598-1.598 1.598l-0.267-0.027c-0.882 2.968-2.555 5.712-4.399 8.188-2.030-2.628-1.127-1.364-2.743-3.767-1.453 1.7-3.677 5.557-6.035 6.025-2.545-1.137-4.404-3.519-6.075-5.673-1.47 2.122-0.636 0.975-2.534 3.415-1.733-2.53-3.682-5.173-4.403-8.204-0.126 0.053-0.017 0.010-0.348 0.043-0.883 0-1.598-0.715-1.598-1.598s0.715-1.598 1.598-1.598l0.197 0.020c0.751-3.044 2.556-5.791 4.554-8.18 0.654 0.711 1.274 1.453 1.872 2.211 2.221-3.947 4.473-7.876 6.737-11.799zM14.977 2.549c0 0-9.176 16.002-9.121 16.456 0.231 1.896 6.427 10.541 9.121 11.261 2.386-0.19 9.005-10.617 9.082-11.261s-9.082-16.456-9.082-16.456zM17.27 23.841l1.151 1.875-2.77 2.727v-4.091l1.619-0.511zM12.668 23.832l1.619 0.511v4.099l-2.77-2.727 1.151-1.884zM22.506 20.029l-3.196 4.815-1.279-1.96 1.96-2.813 2.514-0.043zM7.415 20.048l2.514 0.043 1.96 2.813-1.364 1.96-3.111-4.815zM15.043 12.463l3.793 6.562c0 0-2.727 4.091-3.153 4.219s-0.597 0.298-1.364 0c-0.767-0.298-3.111-4.219-3.111-4.219l3.835-6.563zM15.682 5.773l6.903 12.784-2.386-0.043-4.517-7.67v-5.071zM14.318 5.773v5.071l-4.517 7.67-2.386 0.043 6.903-12.784zM6.349 12.42c0 0-3.148 4.090-3.111 6.987 0.043 3.326 3.111 7.587 3.111 7.587 0.597-0.661 1.173-1.348 1.688-2.076-1.251-1.877-2.898-3.742-3.478-5.979 0.805-1.844 1.849-3.593 2.834-5.348-0.574-0.677-0.231-0.283-1.044-1.17zM23.736 12.42c-0.808 0.885-0.434 0.461-1.127 1.268 0.521 1.351 2.441 3.847 2.704 5.251-0.94 1.968-2.216 3.837-3.499 5.594 1.090 1.567 0.462 0.736 1.923 2.461 1.503-2.183 2.771-4.605 3.074-7.268l-0.006-0.062c0.011-0.107 0.022-0.215 0.032-0.322 0.001-0.002 0.002-0.004 0.003-0.006-0.194-2.574-1.611-4.878-3.103-6.916z"></path>
</svg>
