<!-- Generated by IcoMoon.io -->
<svg version="1.1" xmlns="http://www.w3.org/2000/svg" width="30" height="32" viewBox="0 0 30 32">
<title>counter-ki</title>
<path fill="#444" d="M15.53 0.345l0.003 1.136c8.144-0.386 14.605 5.335 14.592 13.208-0.077 3.108-2.114 6.185-4.508 7.99 0.016-0.156 0.083-0.117 0.090-0.18 0.918-1.894 0.725-4.104 0.275-6.105-0.048-0.19-0.232-0.771-0.223-0.575 0.051 1.182-0.085 2.434-0.333 3.63-0.548-2.142-1.963-3.949-3.876-5.040 0.438 2.508 0.803 5.027 1.303 7.523 0.67 3.523-0.549 6.899-3.284 9.223l-0.064 0.039c-1.184 0.341-2.509 0.442-3.848 0.459-8.646 0-15.655-7.009-15.655-15.655 0.060-8.64 6.953-15.438 15.53-15.654zM14.107 3.191v0c-0.434 0.015-1.007 0.158-1.16 0.625l-0.013-0-0.004 0.056c-0.019 0.063-0.010 0.024-0.018 0.119l0.005 0.063c-0.083 1.174-0.126 2.349-0.137 3.526-0.028 2.831 0.085 5.55 0.036 8.382-0.007 0.499-0.065-6.228-0.513-9.589l-0.012-0.040c-0-0.002-0-0.005-0.001-0.007-0.015-0.047-0.029-0.094-0.044-0.141-0.181-0.383-0.677-0.496-1.058-0.508-0.612 0-0.962 0.392-1.089 0.771-0.058 0.173-0.021 0.002-0.124 1.116-0.026 0.48-0.030 0.962-0.037 1.442-0.034 2.346-0.060 4.693-0.132 7.038-0.020 0.736 0.076 1.329 0.149 1.882 0.618 0 0.934 0.402 1.167 1.604 0.137 0.707-0.18 1.155-0.105 1.155 2.56 0 3.485 2.133 4.495 3.993-1.522-0.99-1.886-3.416-4.216-3.322-1.171 0.047-1.39 0.182-1.961 0.644-0.204 0.165-0.22 1.313-0.406 1.872-0.139 0.418-0.173-1.233-0.28-1.659-0.385 0.033-1.73-0.101-1.349-0.167 1.341-0.231 2.56-0.33 3.067-1.757 0.098-0.276-0.241-1.6-0.705-1.606-1.415-0.017-4.12 0.126-4.166 0.434-0.272 1.808-0.253 3.48-0.001 5.301 1.083 1.874 2.644 3.134 4.139 4.683 0.929 1.079 3.174 0.84 3.964 0.84 0.020 0-0.015 0.002 0-0.011 0.99-0.814 1.325-1.485 1.643-2.232 0.008-0.019 0.024-0.033 0.037-0.050 0.017 0.022 0.037 0.041 0.049 0.065 0.397 0.81 0.772 1.445 1.697 2.341 0.025 0.024 0.072 0.016 0.106 0.024 0.655 0.164 2.406 0.076 2.485-0.051 1.638-2.66 2.255-5.551 1.863-7.064-0.328-1.268-1.452-2.1-2.751-2.109-0.342 0.016-0.44 0.007-0.831 0.114-0.151 0.041-0.292 0.112-0.438 0.168 0.698-0.475 1.595-0.582 2.416-0.604 0.564 0.015 1.144 0.224 1.677 0.426-0.029-0.541-0.187-1.224-0.269-1.757-0.324-3.079-0.683-6.138-0.917-9.22l0.001-0.023c0-0.516-0.418-0.934-0.934-0.934-0.396 0.020-0.805 0.263-0.896 0.676l-0.028 0.38c-0.032 1.406-0.059 2.812-0.102 4.217-0.015 0.502-0.030 1.004-0.058 1.505-0.004 0.070-0.011 0.49-0.058 0.584-0.006 0.011-0.024-0.046-0.034-0.14-0.010-0.101-0.017-0.212-0.023-0.313-0.002-0.036-0.004-0.072-0.006-0.108-0.173-3.391 0.061-6.029-0.212-9.398v-0.212c0-0.564-0.479-1.021-1.069-1.021-0.387 0.019-0.789 0.2-0.957 0.572-0.054 0.069-0.089 0.149-0.11 0.486-0.064 0.912-0.119 1.673-0.175 6.645-0.021 0.866-0.037 1.803-0.173 2.89-0.002-3.94-0.025-7.835-0.233-11.77l0.002-0.027c-0.006-0.083 0.002-0.056-0.008-0.087l-0.003-0.055-0.014-0c-0.148-0.484-0.716-0.649-1.17-0.658zM9.367 4.825c-0.183 0.081-0.356 0.178-0.538 0.251-5.011 2.010-7.368 6.837-6.462 13.346 0.021 0.153 0.052 0.305 0.081 0.456 0.505-2.878 0.882-5.805 2.344-8.397 1.196-2.406 2.747-3.756 4.575-5.656zM19.744 4.903c1.726 1.222 3.187 2.084 4.334 3.654 1.397 1.688 1.792 3.623 2.306 5.521 0.025-0.101 0.054-0.202 0.068-0.305 0.684-4.725-2.374-8.046-6.205-8.716-0.173-0.030-0.333-0.105-0.504-0.155z"></path>
</svg>
