<!-- Generated by IcoMoon.io -->
<svg version="1.1" xmlns="http://www.w3.org/2000/svg" width="27" height="32" viewBox="0 0 27 32">
<title>counter-muster</title>
<path fill="#444" d="M12.993 31.755c-4.578-2.317-7.953-6.246-10.832-10.395 0.59-2.157 1.387-4.322 1.307-6.593-0.221-2.446-2.083-4.604-3.457-6.513l0.174-0.14c2.593-1.923 5.181-3.484 8.29-4.382 2.117-0.509 3.598-2.137 4.951-3.732h0.012v0.028h0.012c1.353 1.595 2.834 3.223 4.951 3.732 3.109 0.898 5.697 2.459 8.29 4.382l0.174 0.14c-1.374 1.91-3.236 4.068-3.457 6.513-0.080 2.271 0.717 4.436 1.307 6.593-2.928 4.296-6.494 8.35-11.277 10.612v-0.028l-0.445-0.217zM20.868 13.951h-0c-3.578 4.409-5.966 9.345-6.776 15.020 3.010-1.792 5.275-3.922 7.279-6.809l0.005 0.003 0.822-1.182-0.571-1.772c-0.576-1.695-0.637-3.491-0.757-5.26zM6.007 13.923c-0.121 1.769-0.181 3.565-0.757 5.26l-0.571 1.772 0.822 1.182 0.005-0.003c2.003 2.887 4.268 5.017 7.279 6.809-0.811-5.675-3.198-10.611-6.776-15.020l-0-0zM13.426 11.565c-1.059-1.983-2.091-3.993-3.491-5.756h-0c-2.479 0.362-4.504 1.441-6.508 2.921 4.268 4.496 7.826 9.529 10.010 15.378v0.028c2.184-5.849 5.742-10.883 10.010-15.378-2.003-1.481-4.029-2.56-6.508-2.921v0c-1.4 1.762-2.432 3.772-3.491 5.756l-0.012-0.022v-0.028l-0.012 0.022zM13.406 1.742l-0-0c-1.072 0.871-2.097 1.802-2.941 2.901 0.978 1.454 1.957 2.901 2.941 4.342l0.032-0.047v0.028l0.032 0.047c0.985-1.441 1.963-2.888 2.941-4.342-0.844-1.099-1.869-2.030-2.941-2.901h-0l-0.032 0.026v-0.028l-0.032-0.026z"></path>
</svg>
