<!-- Generated by IcoMoon.io -->
<svg version="1.1" xmlns="http://www.w3.org/2000/svg" width="29" height="32" viewBox="0 0 29 32">
<title>counter-slime</title>
<path fill="#444" d="M14.663 0.507c3.185-0.050 3.319 5.366 5.262 5.398 2.733 0.045 4.754 0.848 5.339 1.918 1.443 2.638 0.052 3.895 0.199 5.425 0.249 2.588 3.077 2.887 3.036 5.973-0.038 2.809-3.086 4.678-7.267 5.525-1.67 0.338-1.221 6.088-4.678 6.719-2.041 0.372-3.132-2.914-5.574-3.235-1.891-0.249-3.219 1.572-5.973 0.348-2.24-0.995-1.398-3.885-2.14-5.674-0.846-2.041-3.932-2.389-2.489-6.769 0.542-1.644 2.289-1.045 3.434-4.529 0.625-1.903-2.194-3.242-0.050-5.624 1.344-1.493 4.33 0.050 6.122-0.846 1.254-0.627 2.855-4.599 4.778-4.629zM21.074 8.335c-0.696 0.003-1.158 0.332-1.484 0.932-0.348 0.697 0.099 1.344-0.398 1.792-1.093 0.984-2.313-0.398-2.986 1.244-1.032 2.515 3.352 4.043 4.878 5.276 1.294 1.045 0.506 2.332 1.294 3.185 1.195 1.294 3.086-1.493 2.737-3.384s-4.33-3.086-4.28-4.778c0.050-1.692 1.692-0.995 1.891-2.339 0.139-0.941-0.299-1.593-1.145-1.841-0.283-0.072-0.116-0.037-0.507-0.086zM15.601 3.791l-0.191 0.001c-0.81 0.039-1.666 0.757-1.666 1.568s0.657 1.468 1.468 1.468c0.944-0.050 1.392-0.149 1.641-1.344 0.126-0.588-0.021-1.24-0.601-1.534-0.256-0.13-0.367-0.12-0.651-0.159z"></path>
</svg>
