<!-- Generated by IcoMoon.io -->
<svg version="1.1" xmlns="http://www.w3.org/2000/svg" width="32" height="32" viewBox="0 0 32 32">
<title>counter-loyalty</title>
<path fill="#444" d="M21.243 8.087c5.547 1.938 3.034 1.060 8.252 2.892-1.488 2.753-2.118 5.909-1.937 9.028-3.882 1.265-7.718 2.682-11.542 4.116-3.849-1.409-7.697-2.839-11.591-4.12 0.218-3.115-0.445-6.255-1.916-9.003 2.773-0.981 5.534-2.015 8.348-2.884 2.060 3.296 7.199 3.57 9.832 0.622l0.554-0.651zM11.126 7.003c1.277 2.151 3.892 3.43 6.377 2.668 1.8-0.552 2.548-1.514 3.426-2.66 3.334 1.125 6.646 2.312 9.959 3.494-1.945 2.942-2.785 6.568-2.312 10.067-4.207 1.459-8.369 3.053-12.588 4.454v0l-12.559-4.487c0.511-3.478-0.404-7.087-2.308-10.021 3.329-1.195 6.651-2.394 10.005-3.515zM20.64 6.15c-1.047 1.57-2.332 3.025-4.631 3.041-2.043 0.014-3.589-1.442-4.594-3.033-3.82 1.286-7.611 2.658-11.414 3.989 2.23 3.168 3.232 6.984 2.649 10.849l-0 0 0 0h-0l13.338 4.854 0.119 0c4.355-1.685 8.756-3.259 13.186-4.726-0.21-2.917-0.107-5.966 1.298-8.608 0.017-0.029 0.049-0.086 0.066-0.115 0.441-0.762 0.894-1.52 1.343-2.279l-11.36-3.972z"></path>
</svg>
