<!-- Generated by IcoMoon.io -->
<svg version="1.1" xmlns="http://www.w3.org/2000/svg" width="28" height="32" viewBox="0 0 28 32">
<title>counter-minus-uneven</title>
<path fill="#444" d="M13.988 0.138l0.022 0.001c4.832 0.229 8.087 2.235 10.379 5.821-1.179 1.313-2.761 2.655-2.694 4.598-0.107 1.26 0.325 2.441 0.984 3.477l5.321-0-14 17.828-14-17.828h5.321c0.659-1.036 1.091-2.218 0.984-3.477 0.067-1.943-1.514-3.284-2.694-4.598 2.16-3.53 5.919-5.512 10.377-5.822v0zM14 3.17c-2.956 0.057-5.654 0.925-8.017 2.701 2.673 2.626 2.271 6.601 0.402 9.556 1.734 3.057 4.403 5.477 7.43 7.217l0.183 0.102 0.001-0-1.917-6.29 2.642-3.765h-3.306c-0.173 0-0.313-0.14-0.313-0.313v-0.94c0-0.173 0.14-0.313 0.313-0.313h2.792l-2.144-3.415 1.934-4.541zM14.993 3.228l-1.87 4.388 2.197 3.508h1.763c0.173 0 0.313 0.14 0.313 0.313v0.94c0 0.173-0.14 0.313-0.313 0.313h-1.214l-2.759 3.94 1.722 5.623c2.784-1.687 5.127-4.026 6.784-6.827-1.869-2.955-2.271-6.93 0.402-9.556-2.018-1.541-4.506-2.414-7.024-2.642z"></path>
</svg>
