<!-- Generated by IcoMoon.io -->
<svg version="1.1" xmlns="http://www.w3.org/2000/svg" width="32" height="32" viewBox="0 0 32 32">
<title>counter-mining</title>
<path fill="#444" d="M16 0.673c1.454 2.242 2.895 4.493 4.247 6.799 0.712-0.327 1.424-0.654 2.136-0.988 3.265 5.915 6.415 11.894 9.617 17.841-4.048 3.721-9.071 6.595-14.666 6.948 0 0-1.018 0.059-1.334 0.052v0c-0.316 0.007-1.334-0.052-1.334-0.052-5.594-0.353-10.617-3.227-14.666-6.948 3.201-5.947 6.351-11.926 9.617-17.841 0.712 0.334 1.424 0.661 2.136 0.988 1.351-2.306 2.793-4.557 4.247-6.799zM17.501 17.667c-0.103 3.31-0.488 6.608-0.648 9.918 1.347-1.052 2.656-2.149 3.945-3.265 2.226 2.932 6.184 0.808 8.045-1.431-0.16-2.232-2.348-3.278-4.189-3.99-2.316-0.738-4.735-1.084-7.153-1.232zM14.499 17.667v0c-2.419 0.148-4.837 0.494-7.153 1.232-1.841 0.712-4.029 1.758-4.189 3.99 1.861 2.239 5.819 4.363 8.045 1.431 1.29 1.116 2.598 2.213 3.945 3.265-0.16-3.31-0.545-6.608-0.648-9.918zM16 4.345c-1.313 1.929-2.563 3.901-3.747 5.912-0.654-0.366-1.309-0.731-1.963-1.097-1.784 3.009-3.509 6.056-5.209 9.11 2.669-2.47 5.992-4.221 9.655-4.568 0.097-0.776 0.275-1.984 1.264-2.069 0.988 0.085 1.167 1.292 1.264 2.069 3.663 0.346 6.986 2.098 9.655 4.568-1.7-3.054-3.426-6.101-5.209-9.11-0.654 0.366-1.309 0.731-1.963 1.097-1.184-2.011-2.433-3.983-3.747-5.912z"></path>
</svg>
