<!-- Generated by IcoMoon.io -->
<svg version="1.1" xmlns="http://www.w3.org/2000/svg" width="31" height="32" viewBox="0 0 31 32">
<title>counter-skeleton</title>
<path fill="#444" d="M18.271 0.635v1.568l0.045-0.006c0.165 0 0.298 0.166 0.298 0.371s-0.133 0.371-0.298 0.371l-0.045-0.006v2.156c3.56-0.502 6.324-2.063 9.907-0.635 1.71 0.672 2.499 2.361 2.822 4.027v0.071c-1.938 0.361-4.188 1.004-4.349 4.58-0.229 5.086 2.645 10.805-0.301 15.428-1.389 2.179-6.745 1.397-7.8 0.107-0.044-0.054-0.155-0.209-0.192-0.153-0.576 0.886-1.301 2.009-1.999 2.764l-0.859 0.085-0.859-0.085c-0.697-0.756-1.51-1.982-2.012-2.779-0.036-0.057-0.134 0.113-0.178 0.167-1.056 1.29-6.412 2.072-7.801-0.107-2.946-4.623-0.073-10.343-0.301-15.428-0.161-3.576-2.411-4.219-4.349-4.58v-0.071c0.323-1.666 1.113-3.355 2.822-4.027 3.583-1.428 6.348 0.133 9.907 0.635v-2.156l-0.045 0.006c-0.164 0-0.298-0.166-0.298-0.371s0.133-0.371 0.298-0.371l0.045 0.006v-1.568c0.912 0.076 0.94 0.087 2.077 0.126 0.231 0.008 0.462 0.003 0.694 0.004v0c0.925 0.010 1.85-0.045 2.771-0.131zM15.43 28.317c-0.158-0.002-0.315 0.006-0.472 0.016-0.109 0.009-0.093 0.004-0.152 0.034-0.075 0.080-0.209 1.228-0.144 1.298 0.009 0.004 0.018 0.010 0.028 0.012 0.12 0.024 0.237 0.029 0.359 0.036 0.15 0.009 0.301 0.012 0.451 0.016v0c0.168-0.004 0.274-0.006 0.451-0.016 0.122-0.007 0.239-0.012 0.359-0.036 0.010-0.002 0.019-0.008 0.028-0.012 0.065-0.070-0.070-1.218-0.144-1.298-0.059-0.029-0.043-0.025-0.152-0.034-0.314-0.019-0.133-0.011-0.542-0.017l-0.070 0.001zM4.736 24.537l-0.078 0.261c0.136 2.17 1.146 3.367 3.483 3.556 2.006 0.162 2.721-1.090 3.502-2.252-2.525 0.013-4.937 0.277-6.907-1.564v-0zM26.264 24.537v0c-1.97 1.841-4.382 1.577-6.907 1.564 0.782 1.163 1.69 2.414 3.548 2.326 2.342-0.111 3.302-1.459 3.438-3.629l-0.078-0.261zM16.134 26.396v0l-0.634 0.006-0.634-0.006c-0.139 0.002-0.278 0.001-0.417 0.008-0.045 0.002-0.136 0-0.182 0.023-0.061 0.070-0.162 0.979-0.083 1.039 0.174 0.038 0.451 0.036 0.621 0.040 0.232 0.006 0.463 0.009 0.695 0.012v0c0.286-0.003 0.37-0.004 0.695-0.012 0.17-0.004 0.447-0.002 0.621-0.040 0.080-0.060-0.021-0.97-0.083-1.039-0.047-0.023-0.137-0.021-0.182-0.023-0.139-0.007-0.277-0.006-0.417-0.008zM14.145 24.001c-0.104 0.557-0.164 1.024-0.070 1.497 0.059 0.099 0.435 0.113 0.487 0.118 0.625 0.041 0.312 0.026 0.938 0.045v-0c0.313-0.006 0.627-0.016 0.938-0.045 0.052-0.005 0.428-0.019 0.487-0.118 0.095-0.472 0.035-0.94-0.070-1.497l-1.355-0.005-1.355 0.005zM4.534 21.407c-0.009 0.005-0.022 0.006-0.027 0.014-0.065 0.095-0.077 0.252-0.090 0.366 0 3.714 4.118 3.152 7.272 3.206 0.635 0.011 1.338-1.602 1.036-1.622-4.926-0.332-5.591 0.508-8.176-1.955l-0.015-0.009zM26.466 21.407l-0.015 0.009c-2.585 2.463-3.25 1.622-8.176 1.955-0.302 0.020 0.401 1.633 1.036 1.622 3.154-0.054 7.272 0.508 7.272-3.206-0.013-0.114-0.025-0.27-0.090-0.366-0.006-0.009-0.018-0.009-0.027-0.014zM15.5 21.63l-0.062-0c-0.386 0.001-0.773-0.002-1.159 0.017-0.046 0.002-0.234 0.003-0.274 0.042-0.108 0.388-0.229 1.556-0.099 1.596 0.027 0.006 0.053 0.014 0.081 0.018 0.501 0.070 1.008 0.068 1.513 0.076v0c0.503-0.010 1.014-0.005 1.513-0.076 0.027-0.004 0.054-0.012 0.081-0.018 0.129-0.040 0.008-1.208-0.099-1.596-0.040-0.039-0.229-0.040-0.274-0.042-0.386-0.019-0.772-0.016-1.159-0.017h-0l-0.062 0zM4.807 18.855c-0.179 0.069-0.221 0.336-0.241 0.496-0.076 0.592 0.097 1.194 0.524 1.615 1.515 1.388 7.55 1.017 8.003 0.958 0.303-0.039 0.689-1.465 0.381-1.466-4.65-0.020-6.751 0.293-8.581-1.564-0.044-0.036-0.017-0.020-0.086-0.039l-0-0zM26.193 18.855v0c-0.069 0.019-0.042 0.003-0.086 0.039-1.83 1.857-3.931 1.544-8.581 1.564-0.307 0.001 0.078 1.427 0.381 1.466 0.453 0.059 6.488 0.43 8.003-0.958 0.426-0.421 0.6-1.023 0.524-1.615-0.021-0.16-0.063-0.427-0.241-0.496zM17.199 4.413c-0.566 0.023-1.132 0.044-1.699 0.038-0.566 0.006-1.133-0.015-1.698-0.038 0.013 0.433-0.006 1.089 0 1.528 0.013 0 0.025-0 0.038 0.001 1.106 0.066 0.553 0.044 1.661 0.065v0c0.554-0.001 1.108-0.019 1.661-0.065 0.012-0.001 0.025-0.001 0.038-0.001 0.006-0.439-0.013-1.095 0-1.528zM17.216 1.541c-0.572 0.022-1.143 0.055-1.716 0.053-0.572 0.001-1.144-0.031-1.716-0.053-0.026 0.568-0 1.097-0.026 1.666 0.015 0.001 0.030 0.001 0.045 0.002 0.446 0.054 0.893 0.090 1.342 0.105 0.237 0.001 0.118 0.002 0.355-0.002v0c0.118 0.001 0.237 0.005 0.355 0.001 0.449-0.015 0.896-0.051 1.342-0.105 0.015-0.002 0.030-0.002 0.045-0.002-0.026-0.568-0-1.098-0.026-1.666zM15.119 6.603c-0.366 0.028-1.425 0.043-1.598 0.48-0.036 0.316-0.034 0.635-0.039 0.953-0.835 0.047-1.677 0.047-2.506-0.080-0.485-0.074-0.995-0.205-1.366-0.543l-0.013-0.003c-0.438 0.109-0.663 0.567-0.612 0.993 0.119 0.317 0.686 0.388 0.969 0.438 0.319 0.056 0.721 0.1 1.030 0.125 0.829 0.066 1.661 0.087 2.492 0.090-0.001 0.539-0.001 0.222 0.002 0.951-1.259 0.014-2.553 0.051-3.783-0.266-0.456-0.118-0.989-0.291-1.179-0.764-0.025-0.061-0.057-0.074-0.126-0.081-0.048 0.012-0.099 0.017-0.145 0.037-0.423 0.187-0.626 0.682-0.486 1.113 0.327 0.71 2.002 0.862 2.643 0.922 1.023 0.096 2.054 0.124 3.081 0.102 0.006 0.768-0.021 0.536-0.015 1.133-1.602-0.015-4.172 0.243-5.572-0.797-0.271-0.201-0.465-0.447-0.633-0.735-0.237-0.454-1.043 1.122-0.862 1.501 0.611 1.056 2.509 1.254 3.591 1.347 1.171 0.101 2.346 0.115 3.52 0.104 0.004 0.255 0.008 0.51 0.013 0.765 0.001 0.038-0 0.12 0.005 0.171l0.031 0.254c-1.975 0-4.527 0.418-6.275-0.792-0.327-0.227-0.592-0.505-0.838-0.815-0.629-0.846-1.153 1.31-0.801 1.623 1.983 1.611 5.607 1.355 8.002 1.347 0.119 0.977 0.016 0.491 0.209 1.512-3.155-0.044-6.051 0.689-8.395-1.876-0.327-0.379-0.833 1.48-0.427 1.861 2.534 2.31 6.156 1.604 9.272 1.594 0.216 0.552 0.543 1.19 1.187 1.296l0.005-0.001 0.005 0.001c0.644-0.105 0.971-0.743 1.187-1.296 3.116 0.010 6.738 0.716 9.272-1.594 0.405-0.381-0.1-2.239-0.427-1.861-2.344 2.565-5.224 1.802-8.38 1.845 0.193-1.021 0.099-0.504 0.219-1.481 2.395 0.008 5.995 0.264 7.977-1.347 0.352-0.313-0.173-2.468-0.802-1.622-0.246 0.31-0.511 0.588-0.838 0.815-1.748 1.21-5.225 0.755-6.275 0.78l0.032-0.242c0.005-0.050 0.004-0.132 0.005-0.171 0.005-0.255 0.009-0.51 0.013-0.765 1.175 0.011 2.349-0.004 3.52-0.104 1.081-0.093 2.98-0.29 3.591-1.347 0.181-0.379-0.625-1.955-0.862-1.501-0.168 0.288-0.363 0.534-0.633 0.735-1.4 1.040-3.969 0.766-5.572 0.781 0.007-0.598-0.021-0.35-0.015-1.118 1.027 0.022 2.058-0.006 3.081-0.102 0.642-0.060 2.316-0.212 2.643-0.922 0.14-0.431-0.063-0.926-0.486-1.113-0.045-0.020-0.096-0.024-0.145-0.037-0.069 0.007-0.101 0.020-0.125 0.081-0.19 0.473-0.724 0.646-1.179 0.764-1.229 0.318-2.523 0.281-3.783 0.266 0.003-0.729 0.002-0.412 0.002-0.951 0.832-0.003 1.663-0.024 2.492-0.090 0.309-0.024 0.711-0.068 1.030-0.125 0.283-0.050 0.85-0.122 0.969-0.438 0.050-0.426-0.174-0.884-0.612-0.993l-0.013 0.003c-0.371 0.338-0.881 0.469-1.366 0.543-0.829 0.126-1.671 0.127-2.506 0.079-0.005-0.318-0.003-0.637-0.039-0.953-0.173-0.437-1.232-0.452-1.598-0.48l-0.381-0.001-0.381 0.001z"></path>
</svg>
