<!-- Generated by IcoMoon.io -->
<svg version="1.1" xmlns="http://www.w3.org/2000/svg" width="31" height="32" viewBox="0 0 31 32">
<title>counter-gold</title>
<path fill="#444" d="M15.625 0.375l0.403 0.005c8.529 0.32 15.114 7.090 15.222 15.62 0 8.629-6.996 15.625-15.625 15.625s-15.625-6.996-15.625-15.625c0-8.629 6.996-15.625 15.625-15.625zM17.047 1.026c0.556 0.435 0.849 1.093 0.867 1.791 0 1.264-1.025 2.289-2.289 2.289s-2.289-1.025-2.289-2.289c-0.001-0.705 0.328-1.346 0.867-1.791-7.269 0.684-12.831 6.444-13.562 13.645 0.415-0.615 1.135-0.941 1.861-0.96l0.118 0.003c1.223 0.083 2.14 1.068 2.171 2.286 0 1.264-1.025 2.289-2.289 2.289-0.723-0.008-1.45-0.351-1.861-0.96 0.718 7.437 6.383 12.917 13.761 13.666-0.671-0.425-1.046-1.148-1.066-1.933 0-1.264 1.025-2.289 2.289-2.289s2.289 1.025 2.289 2.289c0.002 0.797-0.416 1.494-1.066 1.933 7.288-0.651 13.012-6.29 13.752-13.573-0.435 0.556-1.093 0.849-1.791 0.867-1.264 0-2.289-1.025-2.289-2.289s1.025-2.289 2.289-2.289c0.705-0.001 1.346 0.328 1.791 0.867-0.675-7.195-6.398-12.826-13.553-13.553zM15.625 27.597c-0.809 0-1.465 0.656-1.465 1.465s0.656 1.465 1.465 1.465 1.465-0.656 1.465-1.465c0-0.809-0.656-1.465-1.465-1.465zM2.353 14.543c-0.764 0.111-1.276 0.691-1.315 1.457 0 0.809 0.656 1.465 1.465 1.465s1.465-0.656 1.465-1.465c-0.039-0.767-0.551-1.346-1.315-1.457l-0.15-0.008-0.15 0.008zM28.809 14.535c-0.809 0-1.465 0.656-1.465 1.465s0.656 1.465 1.465 1.465c0.809 0 1.465-0.656 1.465-1.465s-0.656-1.465-1.465-1.465zM15.625 1.352c-0.809 0-1.465 0.656-1.465 1.465s0.656 1.465 1.465 1.465 1.465-0.656 1.465-1.465c0-0.809-0.656-1.465-1.465-1.465zM12.692 6.007c0.545-0.016 0.995 0.314 1.095 0.856 0.348 2.704 1.297 9.641 1 10.75-0.546-0.352-2.94-9.244-3.044-10.392-0.055-0.507 0.279-1.102 0.843-1.201l0.106-0.013zM18.585 6.007l0.106 0.013c0.564 0.099 0.898 0.694 0.843 1.201-0.103 1.148-2.498 10.040-3.044 10.392-0.297-1.109 0.651-8.047 1-10.75 0.068-0.451 0.435-0.795 0.887-0.851 0.069-0.008 0.139-0.004 0.208-0.005zM23.214 9c0.145 0.002 0.274 0.052 0.398 0.122 0.391 0.25 0.445 0.845 0.236 1.25-0.456 0.924-5.184 7.608-5.71 7.739 0.143-1.011 3.142-6.499 4.295-8.644 0.197-0.329 0.409-0.438 0.781-0.466zM7.965 9c0.341 0.002 0.608 0.179 0.781 0.466 1.153 2.145 4.152 7.634 4.295 8.644-0.525-0.131-5.254-6.814-5.71-7.739-0.208-0.405-0.154-1 0.236-1.25 0.127-0.087 0.25-0.102 0.398-0.122zM24.504 14.418c0.187-0.006 0.344 0.066 0.468 0.204 0.204 0.253 0.108 0.66-0.121 0.883-0.509 0.513-5.136 3.904-5.515 3.874 0.32-0.64 3.533-3.62 4.776-4.79 0.118-0.113 0.236-0.146 0.392-0.17zM6.775 14.418c0.152 0.009 0.279 0.074 0.392 0.17 1.243 1.169 4.456 4.15 4.776 4.79-0.378 0.030-5.006-3.361-5.515-3.874-0.229-0.223-0.325-0.63-0.121-0.883 0.135-0.158 0.268-0.194 0.467-0.204zM25.078 18.573c0.16 0.044 0.26 0.134 0.32 0.285 0.084 0.246-0.077 0.535-0.287 0.649-0.471 0.266-4.464 1.707-4.72 1.589 0.369-0.412 3.285-1.894 4.417-2.48 0.146-0.057 0.058-0.034 0.269-0.042zM6.239 18.573c0.211 0.009 0.123-0.014 0.269 0.042 1.132 0.586 4.048 2.069 4.417 2.48-0.256 0.119-4.249-1.322-4.72-1.589-0.21-0.114-0.37-0.403-0.287-0.649 0.067-0.183 0.148-0.212 0.32-0.285zM23.593 22.010c0.035 0.016 0.075 0.023 0.104 0.048 0.105 0.091 0.125 0.235 0.137 0.363 0.007 0.254-0.133 0.474-0.273 0.515-0.315 0.103-2.849 0.219-2.976 0.031 0.28-0.269 2.203-0.754 2.95-0.952l0.058-0.005zM7.685 22.010l0.058 0.005c0.748 0.198 2.67 0.682 2.95 0.952-0.127 0.189-2.661 0.073-2.976-0.031-0.14-0.041-0.28-0.261-0.273-0.515 0.009-0.128 0.033-0.273 0.137-0.363 0.029-0.025 0.069-0.032 0.104-0.048zM11.058 24.368l-0.573 0.683c-0.118 0.16-0.289 0.196-0.475 0.149-0.217-0.078-0.329-0.318-0.25-0.534 0.081-0.178 0.182-0.257 0.378-0.267l0.92-0.031zM20.235 24.368l0.92 0.031c0.196 0.010 0.297 0.088 0.378 0.267 0.078 0.217-0.033 0.456-0.25 0.534-0.186 0.047-0.356 0.011-0.475-0.149l-0.573-0.683zM15.626 18.256v0c2.259 0 4.089 1.831 4.089 4.089 0 1.4-0.721 2.654-1.869 3.43-0.629-0.503-1.427-0.725-2.221-0.744-0.791 0.010-1.596 0.246-2.22 0.744-1.18-0.755-1.833-2.046-1.868-3.429 0-2.259 1.831-4.089 4.089-4.089zM18.705 2.363v0c0.035 0.344 0.027 0.194 0.034 0.451 0 1.719-1.394 3.113-3.113 3.113s-3.113-1.394-3.113-3.113c0.007-0.258-0.001-0.107 0.034-0.451-5.152 1.054-9.481 5.436-10.558 10.566 0.169-0.035 0.343-0.042 0.515-0.044 1.719 0 3.113 1.394 3.113 3.113s-1.394 3.113-3.113 3.113c-0.172-0.004-0.346-0.006-0.515-0.044 1.056 5.163 5.438 9.495 10.582 10.571-0.039-0.19-0.058-0.384-0.057-0.578 0-1.719 1.394-3.113 3.113-3.113s3.113 1.394 3.113 3.113c-0.005 0.194-0.011 0.389-0.057 0.578 5.156-1.055 9.5-5.419 10.579-10.561-0.344 0.035-0.194 0.027-0.451 0.034-1.719 0-3.113-1.394-3.113-3.113s1.394-3.113 3.113-3.113c0.258 0.007 0.107-0.001 0.451 0.034-1.053-5.147-5.43-9.478-10.556-10.556z"></path>
</svg>
