<!-- Generated by IcoMoon.io -->
<svg version="1.1" xmlns="http://www.w3.org/2000/svg" width="32" height="32" viewBox="0 0 32 32">
<title>counter-time</title>
<path fill="#444" d="M10.49 0.416l1.323 2.616c1.368-0.353 2.778-0.49 4.188-0.506v0c8.837 0 16 6.505 16 14.529s-7.163 14.529-16 14.529-16-6.505-16-14.529c-0-6.309 4.57-11.672 10.419-13.617l0.070-3.022zM10.379 5.19c-1.124 0.398-2.162 0.992-3.159 1.638l1.371 3.363-3.687-1.346c-2.093 2.226-3.246 5.166-3.289 8.21-0.008 2.633 0.922 5.164 2.493 7.258l3.442-1.425-1.31 3.648c2.726 2.29 6.23 3.393 9.76 3.434 3.203-0.017 6.45-0.947 9.038-2.872l-1.205-3.593 3.477 1.527c1.975-2.172 3.034-5.060 3.075-7.977 0.018-2.685-0.968-5.225-2.564-7.353l-3.533 1.232 1.439-3.387c-2.718-2.274-6.214-3.367-9.727-3.407v-0c-0.975-0.014-1.945 0.097-2.904 0.264-0.178 0.031-0.353 0.080-0.529 0.12l7.523 14.876-14.637-3.444 4.778-4.434 0.147-6.333zM11.607 4.772l-0.251 0.077-0.145 6.216 6.005 4.799-5.609-11.093z"></path>
</svg>
