<!-- Generated by IcoMoon.io -->
<svg version="1.1" xmlns="http://www.w3.org/2000/svg" width="32" height="32" viewBox="0 0 32 32">
<title>counter-devotion</title>
<path fill="#444" d="M15.937 2.151c0.81 4.603 1.619 9.206 2.511 13.793l8.323-7.309c-1.351 3.207-2.776 6.398-3.815 9.724l7.152-1.836c-0.968 1.198-1.92 2.41-2.813 3.665-0.337 0.474-0.701 0.966-0.943 1.498 0.931 0.115 0.497 0.057 1.303 0.171 1.447 0.21 2.891 0.45 4.329 0.715-0.846 0.569-1.714 1.11-2.629 1.561-0.348 0.171-0.746 0.362-1.134 0.431-1.67 2.27-4.399 3.609-7.105 4.202 1.628-0.659 3.34-1.614 4.534-2.923 0.489-0.535 1.014-1.222 1.025-1.984-0.035-1.404-5.245-5.591-10.737-5.642-0.666 0.012-0.315-0.006-1.053 0.064-1.276 0.584-1.991 2.008-2.077 3.354 0 1.764 1.43 3.194 3.194 3.194s4.066-1.725 4.002-3.37c0.224 2.684-1.697 4.344-4.071 4.404-2.665 0-4.825-1.993-4.825-4.452 0.008-0.858 0.265-1.716 0.774-2.412-1.998 0.741-3.929 1.803-5.534 3.219-0.43 0.379-1.19 0.997-1.255 1.641 0.096 1.064 1.41 2.159 2.158 2.751 1.208 0.957 2.433 1.658 3.897 2.156-2.992-0.526-5.81-1.608-7.527-4.243-1.295-0.44-2.475-1.185-3.603-1.951 1.439-0.262 2.882-0.505 4.329-0.715 0.897-0.127 0.505-0.078 1.176-0.156-1.056-1.854-2.418-3.526-3.764-5.178l7.147 1.835c-1.089-3.307-2.424-6.531-3.814-9.723l8.338 7.322c0.89-4.592 1.713-9.197 2.508-13.806z"></path>
</svg>
