<!-- Generated by IcoMoon.io -->
<svg version="1.1" xmlns="http://www.w3.org/2000/svg" width="32" height="32" viewBox="0 0 32 32">
<title>counter-echo</title>
<path fill="#444" d="M18.432 25.146c-1.533 1.412-2.245 3.335-2.468 5.369-0.174-2.399-1.097-5.259-3.676-5.997-2.303-0.942-4.528 0.564-6.297 1.889 1.571-1.871 2.741-4.474 1.667-6.885-1.541-2.621-4.96-2.927-7.658-3.31 2.585-0.348 5.589-0.606 7.448-2.687 1.475-1.931 0.642-4.456-0.408-6.363 2.417 1.307 5.166 1.133 7.787 1.493 2.249 0.408 4.329 1.424 5.599 3.389l-0.176-0.075c-1.272-0.803-2.784-1.042-4.263-1.091-3.972-0.055-7.052 3.019-7.006 6.823 0.088 3.153 2.003 5.333 4.843 6.483 0.569 0.252 1.184 0.413 1.8 0.495 1.025 0.222 2.080 0.229 3.123 0.199l-0.315 0.268zM15.97 18.8c1.543 0 2.794-1.251 2.794-2.794s-1.251-2.794-2.794-2.794c-1.543 0-2.794 1.251-2.794 2.794s1.251 2.794 2.794 2.794zM13.568 6.854l-0.315 0.269c1.043-0.030 2.098-0.023 3.123 0.199 0.616 0.083 1.231 0.243 1.8 0.495 2.84 1.149 4.754 3.33 4.843 6.483 0.047 3.803-3.033 6.877-7.006 6.823-1.479-0.049-2.976-0.257-4.247-1.060l-0.191-0.106c1.145 1.919 3.388 3.046 5.637 3.454 2.621 0.36 5.332 0.121 7.748 1.428-1.049-1.907-1.883-4.432-0.408-6.363 1.859-2.081 4.864-2.339 7.448-2.687-2.699-0.384-6.117-0.69-7.658-3.31-1.073-2.411 0.096-5.013 1.667-6.885-1.769 1.325-3.994 2.831-6.297 1.889-2.579-0.738-3.502-3.598-3.676-5.997-0.222 2.033-0.935 3.956-2.468 5.369z"></path>
</svg>
