<!-- Generated by IcoMoon.io -->
<svg version="1.1" xmlns="http://www.w3.org/2000/svg" width="31" height="32" viewBox="0 0 31 32">
<title>counter-fungus</title>
<path fill="#444" d="M15.563 0.349c2.527 2.755 4.072 6.186 5.105 9.757 1.628-1.265 3.341-2.426 5.138-3.438 0.915 2.952 1.161 6.059 0.584 9.108 1.576-0.311 3.153-0.623 4.736-0.895-0.53 4.743-2.63 9.564-7.439 11.052-0.397 0.125-0.811 0.169-1.222 0.223 0.297 0.913 0.411 1.87 0.5 2.822 0.026 0.316 0.037 0.86 0.012 1.114 0 0-0.009 0.073-0.032 0.070-1.666-0.238-3.423-0.83-4.784-1.833-0.391 1.356-1.407 2.539-2.556 3.324l-0.078-0.056c-1.145-0.794-2.045-1.975-2.473-3.306-1.359 1.065-3.106 1.601-4.789 1.87l-0.058 0.010c-0.048-0.145-0.1-0.539-0.054-1.042 0.028-0.312 0.071-0.675 0.102-0.892 0.098-0.701 0.223-1.4 0.434-2.077-0.422-0.040-0.843-0.107-1.25-0.226-4.809-1.488-6.909-6.309-7.438-11.052 1.583 0.273 3.159 0.584 4.736 0.895-0.577-3.049-0.331-6.156 0.584-9.108 1.797 1.012 3.51 2.173 5.138 3.438 1.033-3.571 2.578-7.002 5.105-9.757zM18.787 23.865c-0.986 1.116-2.063 2.154-3.224 3.082v0 0c-1.161-0.928-2.238-1.966-3.224-3.082-0.007 0.024-0.021 0.049-0.018 0.075 0.055 0.572 0.008 1.296-0.147 1.862l-0.004 0.012c-0.689 0.296-1.434 0.347-2.172 0.391-0.148 0.489-0.23 0.995-0.305 1.5-0.003 0.020-0.016 0.111-0.017 0.12-0.008 0.059-0.015 0.109-0.022 0.16-0.011 0.081-0.019 0.157-0.026 0.228-0.016 0.195-0.011 0.098-0.017 0.294 0.557-0.135 1.071-0.402 1.578-0.662 1.045-0.549 1.69-0.915 2.33-1.344l0.177-0.119 0.046 0.208c0.288 1.126 0.738 2.649 1.839 3.252 0.316-0.175 0.522-0.487 0.717-0.78 0.424-0.659 0.759-1.348 1.217-2.437l0.068-0.161 0.146 0.096c0.368 0.241 0.257 0.168 0.309 0.2-0.005-0.003 0.271 0.161 0.492 0.294 0.956 0.564 1.923 1.14 3 1.442 0.002-0.081 0-0.008-0.009-0.221-0.011-0.144-0.026-0.272-0.059-0.513-0.004-0.029-0.004-0.029-0.008-0.057-0.078-0.502-0.148-1.012-0.3-1.498-0.748-0.019-1.498-0.114-2.196-0.393l-0.004-0.012c-0.155-0.566-0.202-1.29-0.147-1.862 0.002-0.026-0.012-0.050-0.018-0.075zM15.563 2.551v0.005c-2.42 3.328-3.613 7.362-4.288 11.378-0.376 4.217 1.278 8.28 4.288 11.238 3.010-2.958 4.664-7.021 4.288-11.238-0.675-4.016-1.868-8.050-4.288-11.378v-0.005zM1.615 16.522c1.213 4.249 4.37 9.186 9.463 8.363 0.071-5.164-5.363-7.24-9.463-8.363h-0zM29.51 16.522v0c-4.1 1.122-9.534 3.199-9.463 8.363 5.092 0.824 8.25-4.113 9.463-8.363h-0zM6.117 8.672c-0.422 2.757-0.24 5.566 0.493 8.252 1.589 0.856 3.231 1.739 4.359 3.198-1.291-2.459-1.258-5.3-0.811-7.973-1.239-1.278-2.575-2.459-4.041-3.477v0zM25.008 8.672v0c-1.466 1.018-2.802 2.199-4.041 3.477 0.448 2.673 0.48 5.514-0.811 7.973 1.129-1.46 2.77-2.342 4.359-3.198 0.733-2.686 0.915-5.495 0.493-8.252v0z"></path>
</svg>
