<!-- Generated by IcoMoon.io -->
<svg version="1.1" xmlns="http://www.w3.org/2000/svg" width="27" height="32" viewBox="0 0 27 32">
<title>counter-stun</title>
<path fill="#444" d="M11.926 2.547c0 0 0 0 0 0s0 0 0 0 0 0 0 0 0 0 0 0 0 0 0 0c2.862-0.586 5.364-0.251 7.836 0.718-0.078 0.014-0.153 0.045-0.232 0.046-2.177 0.036-3.599 0.2-5.358 0.638-4.357 0.901-8.477 4.111-9.432 8.617-0.395 2.569-0.236 5.374 1.19 7.62 2.689 4.072 9.355 5.060 12.728 1.311 2.121-2.169 2.251-5.827 0.352-8.174-1.966-2.463-7.217-1.178-6.878 2.426 0.146 1.555 1.76 2.404 2.911 1.66 1.274-0.823 1.783-1.629 2.627-2.482 0.424 2.275-0.503 4.81-2.767 5.625-1.461 0.526-3.249 0.023-4.399-0.666-2.495-1.496-3.166-4.93-2.352-7.61 1.494-4.299 6.448-7.104 10.897-6.015 3.991 0.79 7.026 4.344 7.832 8.222 0.532 2.559 0.335 4.149-0.116 5.875-0.806 3.091-3.031 5.73-5.745 7.427-4.251 2.593-9.894 2.588-14.193 0.106-5.86-3.152-8.656-11.090-5.533-17.066 1.778-4.415 6.068-7.346 10.632-8.28z"></path>
</svg>
