<!-- Generated by IcoMoon.io -->
<svg version="1.1" xmlns="http://www.w3.org/2000/svg" width="28" height="32" viewBox="0 0 28 32">
<title>counter-shield</title>
<path fill="#444" d="M13.867 2.133c7.658 0 13.867 6.208 13.867 13.867s-6.208 13.867-13.867 13.867c-7.658 0-13.867-6.208-13.867-13.867s6.208-13.867 13.867-13.867zM13.867 4.29c-6.467 0-11.71 5.243-11.71 11.71s5.243 11.71 11.71 11.71c6.467 0 11.71-5.243 11.71-11.71s-5.243-11.71-11.71-11.71zM13.867 8.645c4.062 0 7.355 3.293 7.355 7.355s-3.293 7.355-7.355 7.355c-4.062 0-7.355-3.293-7.355-7.355s3.293-7.355 7.355-7.355zM13.867 7.256c-4.829 0-8.744 3.915-8.744 8.744s3.915 8.744 8.744 8.744c4.829 0 8.744-3.915 8.744-8.744s-3.915-8.744-8.744-8.744zM13.867 10.891c2.812 0 5.092 2.28 5.092 5.092s-2.28 5.092-5.092 5.092-5.092-2.28-5.092-5.092c0-2.812 2.28-5.092 5.092-5.092zM13.85 10.102c-3.248 0-5.881 2.633-5.881 5.881s2.633 5.881 5.881 5.881c3.248 0 5.881-2.633 5.881-5.881s-2.633-5.881-5.881-5.881zM13.867 13.96c1.117 0 2.023 0.906 2.023 2.023s-0.906 2.023-2.023 2.023-2.023-0.906-2.023-2.023c0-1.117 0.906-2.023 2.023-2.023zM13.867 11.919c-2.244 0-4.063 1.819-4.063 4.063s1.819 4.063 4.063 4.063 4.063-1.819 4.063-4.063c0-2.244-1.819-4.063-4.063-4.063zM10.394 7.084c0.402 0 0.728-0.326 0.728-0.728s-0.326-0.728-0.728-0.728c-0.402 0-0.728 0.326-0.728 0.728s0.326 0.728 0.728 0.728zM13.867 6.522c0.402 0 0.728-0.326 0.728-0.728s-0.326-0.728-0.728-0.728-0.728 0.326-0.728 0.728c0 0.402 0.326 0.728 0.728 0.728zM13.867 26.994c0.402 0 0.728-0.326 0.728-0.728s-0.326-0.728-0.728-0.728-0.728 0.326-0.728 0.728c0 0.402 0.326 0.728 0.728 0.728zM3.831 18.524c0.402 0 0.728-0.326 0.728-0.728s-0.326-0.728-0.728-0.728c-0.402 0-0.728 0.326-0.728 0.728s0.326 0.728 0.728 0.728zM3.831 15.026c0.402 0 0.728-0.326 0.728-0.728s-0.326-0.728-0.728-0.728c-0.402 0-0.728 0.326-0.728 0.728s0.326 0.728 0.728 0.728zM5.031 11.662c0.402 0 0.728-0.326 0.728-0.728s-0.326-0.728-0.728-0.728c-0.402 0-0.728 0.326-0.728 0.728s0.326 0.728 0.728 0.728zM7.363 8.889c0.402 0 0.728-0.326 0.728-0.728s-0.326-0.728-0.728-0.728c-0.402 0-0.728 0.326-0.728 0.728s0.326 0.728 0.728 0.728zM5.031 21.864c0.402 0 0.728-0.326 0.728-0.728s-0.326-0.728-0.728-0.728c-0.402 0-0.728 0.326-0.728 0.728s0.326 0.728 0.728 0.728zM7.363 24.633c0.402 0 0.728-0.326 0.728-0.728s-0.326-0.728-0.728-0.728c-0.402 0-0.728 0.326-0.728 0.728s0.326 0.728 0.728 0.728zM10.394 26.405c0.402 0 0.728-0.326 0.728-0.728s-0.326-0.728-0.728-0.728c-0.402 0-0.728 0.326-0.728 0.728s0.326 0.728 0.728 0.728zM17.476 26.405c0.402 0 0.728-0.326 0.728-0.728s-0.326-0.728-0.728-0.728c-0.402 0-0.728 0.326-0.728 0.728s0.326 0.728 0.728 0.728zM17.476 7.084c0.402 0 0.728-0.326 0.728-0.728s-0.326-0.728-0.728-0.728c-0.402 0-0.728 0.326-0.728 0.728s0.326 0.728 0.728 0.728zM20.687 24.633c0.402 0 0.728-0.326 0.728-0.728s-0.326-0.728-0.728-0.728c-0.402 0-0.728 0.326-0.728 0.728s0.326 0.728 0.728 0.728zM22.918 21.864c0.402 0 0.728-0.326 0.728-0.728s-0.326-0.728-0.728-0.728-0.728 0.326-0.728 0.728c0 0.402 0.326 0.728 0.728 0.728zM24.148 18.524c0.402 0 0.728-0.326 0.728-0.728s-0.326-0.728-0.728-0.728c-0.402 0-0.728 0.326-0.728 0.728s0.326 0.728 0.728 0.728zM24.148 15.026c0.402 0 0.728-0.326 0.728-0.728s-0.326-0.728-0.728-0.728c-0.402 0-0.728 0.326-0.728 0.728s0.326 0.728 0.728 0.728zM22.918 11.662c0.402 0 0.728-0.326 0.728-0.728s-0.326-0.728-0.728-0.728-0.728 0.326-0.728 0.728c0 0.402 0.326 0.728 0.728 0.728zM20.687 8.889c0.402 0 0.728-0.326 0.728-0.728s-0.326-0.728-0.728-0.728c-0.402 0-0.728 0.326-0.728 0.728s0.326 0.728 0.728 0.728z"></path>
</svg>
