<!-- Generated by IcoMoon.io -->
<svg version="1.1" xmlns="http://www.w3.org/2000/svg" width="32" height="32" viewBox="0 0 32 32">
<title>creature</title>
<path fill="#444" d="M23.537 1.823h1.456c-1.451 1.276-3.218 1.65-4.807 2.514-2.125 0.933-3.74 2.641-5.553 4.033-1.708 1.36-3.619 2.498-5.034 4.193-1.405 1.669-2.95 3.304-3.794 5.349 0.354 0.79 0.656 1.602 0.918 2.428 4.9-4.47 9.863-9.134 16.063-11.746 2.998-1.198 5.922-2.81 9.198-3.090-0.637 1.096-1.663 1.529-2.596 2.017-3.944 1.889-7.748 4.199-10.819 7.35-2.918 3.243-6.531 5.757-9.589 8.86-1.265 1.281-2.24 2.835-3.613 4.008-0.883 0.768-2.115-0.36-1.896-1.354 0.134-1.555 0.841-3.361-0.242-4.741-0.93-0.749-2.287-0.962-3.103-1.752 0 0-0.086-0.361-0.105-0.63s0.105-0.759 0.105-0.759c0.509-2.321 2.373-4.024 3.877-5.782 1.65-1.861 3.387-3.705 5.502-5.046 1.494-0.79 3.17-1.185 4.639-2.033 2.966-1.638 5.906-3.166 9.395-3.817zM21.912 18.504c-2.536 1.297-4.897 2.905-7.124 4.674-1.634 1.265-3.944 2.163-4.419 4.406-0.37 1.045 0.236 2.039 1.102 2.593h1.195c1.552-0.959 2.364-2.66 3.571-3.97 1.816-2.013 3.708-4.005 5.989-5.499 1.647-1.105 3.278-2.236 4.944-3.316 1.564-1.026 3.352-1.689 4.811-3.428-3.648 0.739-6.901 2.67-10.071 4.54z"></path>
</svg>
