<!-- Generated by IcoMoon.io -->
<svg version="1.1" xmlns="http://www.w3.org/2000/svg" width="32" height="32" viewBox="0 0 32 32">
<title>dfc-emrakul</title>
<path fill="#444" d="M16.009 0c8.837 0 16 7.163 16 16s-7.163 16-16 16c-8.837 0-16-7.163-16-16s7.163-16 16-16zM15.94 2.294c-0.554 0.12-0.879 0.602-1.26 0.98-2.594 2.919-5.89 5.073-9.224 7.046-0.955 0.396-0.984 1.624-0.616 2.441 2.121 0.516 4.366 0.139 6.473 0.707 0.941 0.602 0.893 1.844 0.645 2.795-0.654 0.912-1.896 1.323-2.326 2.393 0.497 1.008 1.217 1.954 1.819 2.9-0.287 0.908-0.634 2.058 0.268 2.732-0.043-0.33-0.164-1.137-0.074-1.309s0.411-0.388 0.566-0.267c0.133 0.345 0.798 1.963 1.209 2.943-0.227-0.091-0.546-0.148-0.887-0.279-0.354-0.136-0.731-0.347-0.967-0.442 0.411 1.084 1.318 1.724 2.25 2.331-0.048 0.358-0.143 1.070-0.196 1.424-0.946-0.062-2.087-0.43-0.817-1.815-0.287 0.287-0.853 0.764-1.099 1.108-0.725 1.010 1.037 1.448 1.634 1.95 0.511-0.478 1.409-0.798 1.347-1.648 0.067-2.226 1.060-4.27 1.285-6.482 0.148 2.221 0.903 4.598 1.247 6.497 0.146 0.809 0.812 1.141 1.318 1.609 0.745-0.392 2.162-1.089 2.043-1.388-0.286-0.723-0.94-1.053-1.465-1.626 1.137 1.333 0.249 1.79-0.692 1.79-0.104 0-0.216-0.373-0.284-0.739-0.047-0.254-0.066-0.503-0.123-0.755 1.070-0.416 1.916-1.166 2.298-2.264-0.459 0.182-1.385 0.54-1.849 0.721 0.578-0.97 0.61-2.252 1.607-3.069 0.347-0.284 0.129 2.007 0.342 1.612 0.644-1.194 0.425-1.73 0.081-2.685 0.602-0.955 1.29-1.863 1.796-2.876-0.511-1.013-1.648-1.471-2.331-2.345-0.267-0.951-0.315-2.193 0.616-2.809 2.116-0.578 4.382-0.16 6.511-0.702 0.239-0.061 0.269-0.224 0.313-0.477 0.099-0.563 0.223-1.273-0.184-1.52-2.797-1.696-5.651-3.349-8.063-5.579-1.065-0.884-1.887-2.016-2.966-2.885l-0.245-0.015zM16.533 19.577c0.697 0.898 1.404 1.796 2.15 2.661-0.248 0.779-0.506 1.552-0.783 2.322-0.669-1.595-1.151-3.263-1.366-4.982zM15.363 19.553c-0.215 1.72-0.683 3.387-1.338 4.987-0.282-0.74-0.554-1.486-0.831-2.226-0.002-0.007 1.462-1.829 2.169-2.761zM17.488 17.432c1.022 0.291 2.006 0.702 2.923 1.242-0.416 0.712-0.846 1.414-1.28 2.116-0.664-1.060-1.223-2.183-1.643-3.358zM14.412 17.432c-0.416 1.18-1.034 2.204-1.694 3.265-0.435-0.702-0.809-1.316-1.23-2.023 0.922-0.535 1.901-0.951 2.923-1.242z"></path>
</svg>
