<!-- Generated by IcoMoon.io -->
<svg version="1.1" xmlns="http://www.w3.org/2000/svg" width="32" height="32" viewBox="0 0 32 32">
<title>dfc-moon</title>
<path fill="#444" d="M16 0c8.837 0 16 7.163 16 16s-7.163 16-16 16v-0c-8.837 0-16-7.163-16-16s7.163-16 16-16zM16 3.096c-7.127 0-12.904 5.777-12.904 12.904s5.777 12.904 12.904 12.904c7.127 0 12.904-5.777 12.904-12.904s-5.777-12.904-12.904-12.904zM16.207 4.966l2.053 0.159-0.066 0.283c-3.117 0.374-6.415 0.845-9.112 2.55-0.673 0.425 0.142 1.088 0.648 1.052 1.406 0.228 3.415 0.299 3.891 1.963-0.455 1.462-1.751 2.312-3.253 2.353-0.233 1.639 0.784 3.233 0.238 4.877-0.521 2.090 0.956 4.113 2.924 4.72 0.192 1.781 2.221 1.781 3.592 1.619 0.506-0.167 0.916 0.101 1.159 0.541-2.125 0.349-3.688 2.515-6 1.842-2.666-0.734-4.553-3.010-6.198-5.115-1.73-2.555-2.595-5.854-1.634-8.869 0.364-0.992 0.612-2.368 1.715-2.788 1.245 0.39 1.74 1.862 2.945 2.353 0.592-0.379 1.214-0.941 1.012-1.725-1.143-0.592-2.96-0.749-3.349-2.165 0.653-1.356 1.928-2.56 3.278-3.258 3.404-0.428 1.356-0.235 6.158-0.391zM23.188 20.837c0.73 0.083 1.193 0.41 1.553 1.024 0.885 1.498-0.774 3.137-2.236 3.253-1.882-0.354-1.852-3.294-0.496-4.189 0.644-0.118 0.253-0.068 1.179-0.088zM17.421 18.234c1.263 0.205 2.085 0.76 1.613 2.139-0.243 1.366-2.631 2.509-3.258 0.83-0.374-1.062 0.334-2.256 1.194-2.858l0.451-0.11zM24.143 11.021c1.154 0.224 0.708 0.007 1.413 0.473 1.002 1.275 1.984 2.503 2.342 4.194 0.158 0.745-0.075 1.638-0.212 1.567-0.951 0.956-1.554 1.848-2.844 2.394-2.186 0.531-4.781-1.614-4.412-3.891 0.567-1.133 1.229-2.221 1.7-3.4 0.428-0.984 1.069-1.097 2.012-1.338zM16.179 14.676c0.386 0 0.699 0.313 0.699 0.699s-0.313 0.699-0.699 0.699c-0.386 0-0.699-0.313-0.699-0.699s0.313-0.699 0.699-0.699zM18.378 12.694c0.284 0 0.514 0.23 0.514 0.514s-0.23 0.514-0.514 0.514c-0.284 0-0.514-0.23-0.514-0.514s0.23-0.514 0.514-0.514zM20.138 7.772c1.35 0.285 2.309 0.998 1.937 2.497-1.452 0.966-3.309-0.931-2.423-2.378l0.486-0.12z"></path>
</svg>
