<!-- Generated by IcoMoon.io -->
<svg version="1.1" xmlns="http://www.w3.org/2000/svg" width="32" height="32" viewBox="0 0 32 32">
<title>dfc-day</title>
<path fill="#444" d="M14.791 0.113c3.657-0.297 7.402 0.736 10.393 2.861 3.28 2.303 5.642 5.882 6.429 9.816 0.585 2.856 0.378 5.873-0.617 8.616-0.753 2.103-1.965 4.037-3.512 5.648-1.647 1.708-3.675 3.051-5.901 3.877-2.895 1.093-6.11 1.294-9.125 0.613-1.909-0.436-3.738-1.226-5.361-2.323-1.962-1.326-3.629-3.090-4.831-5.131-1.189-2.009-1.922-4.284-2.136-6.607-0.246-2.641 0.173-5.344 1.226-7.78 0.96-2.24 2.45-4.249 4.305-5.83 2.54-2.179 5.787-3.527 9.128-3.76zM12.27 2.309c-0.228 0.845-0.63 1.655-1.249 2.283-0.698 0.745-1.636 1.257-2.636 1.458-0.798 0.16-1.633 0.11-2.415-0.112 0.173 0.702 0.296 1.434 0.177 2.156-0.158 1.317-0.88 2.556-1.948 3.344-0.565 0.437-1.236 0.706-1.92 0.894 0.926 0.868 1.525 2.083 1.592 3.355 0.063 0.983-0.19 1.987-0.695 2.833-0.252 0.433-0.593 0.801-0.938 1.16 0.248 0.091 0.506 0.152 0.753 0.248 0.996 0.383 1.86 1.101 2.413 2.015 0.62 1.002 0.865 2.232 0.659 3.393-0.037 0.247-0.127 0.484-0.143 0.734 0.45-0.076 0.892-0.22 1.353-0.213 1.151-0.055 2.312 0.316 3.225 1.017 0.924 0.703 1.569 1.739 1.835 2.866 0.779-0.844 1.839-1.433 2.981-1.592 0.954-0.158 1.949 0.020 2.822 0.427 0.608 0.282 1.132 0.714 1.588 1.201 0.145-0.498 0.282-1.006 0.549-1.456 0.737-1.352 2.155-2.307 3.687-2.477 0.726-0.111 1.466 0.010 2.165 0.216-0.301-0.959-0.34-2.001-0.042-2.966 0.422-1.451 1.564-2.664 2.982-3.182 0.238-0.094 0.494-0.137 0.727-0.247-0.621-0.573-1.131-1.276-1.403-2.080-0.494-1.359-0.32-2.927 0.432-4.159 0.245-0.435 0.607-0.783 0.938-1.152-0.188-0.054-0.377-0.099-0.562-0.159-1.495-0.463-2.706-1.709-3.154-3.205-0.21-0.646-0.229-1.333-0.176-2.004 0.037-0.334 0.139-0.655 0.204-0.984-0.449 0.085-0.894 0.217-1.356 0.213-1.117 0.044-2.243-0.307-3.14-0.973-0.662-0.479-1.183-1.138-1.538-1.871-0.16-0.328-0.254-0.681-0.375-1.023-0.691 0.732-1.598 1.258-2.585 1.47-1.314 0.296-2.742 0.017-3.855-0.736-0.319-0.208-0.592-0.474-0.874-0.725-0.019 0.009-0.058 0.025-0.077 0.034zM14.728 6.3c1.512-0.235 3.069 0 4.503 0.511 1.725 0.636 3.297 1.738 4.402 3.216 0.89 1.171 1.516 2.539 1.818 3.978 0.127 0.552 0.166 1.116 0.215 1.678 0.029 2.375-0.829 4.75-2.373 6.557-0.828 0.993-1.893 1.772-3.042 2.354-1.705 0.843-3.659 1.216-5.549 0.948-1.971-0.276-3.854-1.155-5.326-2.495-1.748-1.614-2.859-3.886-3.097-6.249-0.216-2.263 0.44-4.579 1.738-6.437 1.52-2.231 4.051-3.701 6.712-4.061zM14.904 5.624c-2.415 0.186-4.725 1.328-6.394 3.076-1.75 1.761-2.83 4.189-2.895 6.676-0.041 0.368-0.039 0.741 0.002 1.109 0.022 0.954 0.206 1.9 0.507 2.804 0.663 2.002 2.011 3.734 3.685 4.998 1.75 1.302 3.937 2.031 6.122 1.959 0.838 0.023 1.678-0.050 2.492-0.254 2.653-0.612 4.973-2.385 6.396-4.687 0.735-1.19 1.202-2.539 1.389-3.924 0.168-1.453 0.108-2.945-0.299-4.356-0.404-1.45-1.155-2.797-2.153-3.922-0.452-0.474-0.908-0.951-1.426-1.355-0.993-0.788-2.136-1.388-3.352-1.748-1.316-0.398-2.711-0.5-4.075-0.375z"></path>
</svg>
