<!-- Generated by IcoMoon.io -->
<svg version="1.1" xmlns="http://www.w3.org/2000/svg" width="32" height="32" viewBox="0 0 32 32">
<title>dfc-ignite</title>
<path fill="#444" d="M16 0c8.837 0 16 7.163 16 16s-7.163 16-16 16c-8.837 0-16-7.163-16-16s7.163-16 16-16zM15.964 1.594v0c-0.053 0.203-0.089 0.408-0.11 0.617-0.1 0.931-0.144 1.867-0.202 2.801-0.12 2.11-0.238 4.22-0.424 6.326-0.11 1.235-0.241 2.468-0.424 3.694-0.167 1.095-0.365 2.191-0.701 3.248-0.45 0.030-0.899 0.071-1.348 0.111-0.162-0.456-0.252-0.933-0.342-1.407-0.201-1.123-0.341-2.255-0.472-3.388-0.272-2.383-0.47-4.774-0.695-7.162-0.036-0.354-0.067-0.71-0.123-1.062-0.052 0.154-0.065 0.317-0.090 0.477-0.066 0.504-0.116 1.010-0.168 1.516-0.284 2.812-0.539 5.629-0.976 8.423-0.107 0.677-0.228 1.352-0.38 2.020-0.1 0.431-0.212 0.86-0.368 1.274-0.417 0.129-0.832 0.267-1.234 0.44-0.188-0.437-0.316-0.896-0.435-1.355-0.263-1.056-0.435-2.132-0.588-3.209-0.192-1.344-0.329-2.694-0.512-4.039-0.053-0.347-0.094-0.699-0.198-1.035l-0.027-0.005c-0.050 0.165-0.071 0.336-0.098 0.506-0.128 0.93-0.215 1.865-0.306 2.799-0.268 2.876-0.498 5.755-0.717 8.635 1.582 0.6 3.049 1.495 4.324 2.606 2.303 2.014 4.998 4.496 6.571 7.105 0.028 0.002 0.039 0.082 0.069 0.021 0.903-1.78 1.903-2.989 3.361-4.364 1.27-1.198 2.597-2.303 3.958-3.292 1.017-0.739 2.42-1.63 3.596-2.075-0.153-2.069-0.322-4.137-0.498-6.204-0.012-0.12-0.024-0.24-0.023-0.361l-0.010 0.039c-0.064-0.858-0.15-1.714-0.23-2.571-0.079-0.789-0.154-1.579-0.265-2.364-0.029-0.171-0.046-0.347-0.108-0.511-0.125 0.383-0.166 0.786-0.226 1.183-0.229 1.739-0.401 3.485-0.694 5.215-0.136 0.802-0.291 1.602-0.516 2.385-0.089 0.301-0.184 0.602-0.309 0.89-0.401-0.172-0.816-0.311-1.233-0.439-0.248-0.665-0.395-1.362-0.533-2.057-0.204-1.063-0.357-2.135-0.496-3.209-0.301-2.339-0.514-4.688-0.755-7.033-0.038-0.353-0.075-0.705-0.125-1.056-0.019-0.116-0.029-0.236-0.071-0.347-0.085 0.513-0.119 1.033-0.172 1.55-0.231 2.509-0.444 5.020-0.749 7.521-0.079 0.64-0.165 1.28-0.266 1.917-0.114 0.682-0.224 1.369-0.446 2.025-0.449-0.049-0.899-0.082-1.349-0.116-0.34-1.073-0.54-2.184-0.708-3.295-0.344-2.354-0.519-4.729-0.672-7.101-0.091-1.451-0.166-2.904-0.259-4.355-0.041-0.545-0.073-1.091-0.154-1.632-0.017-0.102-0.028-0.209-0.077-0.302v0 0z"></path>
</svg>
