<!-- Generated by IcoMoon.io -->
<svg version="1.1" xmlns="http://www.w3.org/2000/svg" width="32" height="32" viewBox="0 0 32 32">
<title>dfc-enchantment</title>
<path fill="#444" d="M15.948 0c8.837 0 16 7.163 16 16s-7.163 16-16 16c-8.837 0-16-7.163-16-16s7.163-16 16-16zM17.164 1.302l-1.251 0.020v14.108l-2.7-2.478c-1.111-2.714 1.141-5.397 1.141-5.397s-0.387-0.069-0.675 0.032c-4.261 1.497-5.685 5.94-5.686 5.94-4.612 0.54-5.366 0.797-6.318 1.214l0.020 1.25 14.039-0.017-2.614 2.926c-2.714 1.111-5.397-1.141-5.397-1.141s-0.069 0.387 0.032 0.675c1.497 4.261 5.94 5.686 5.94 5.686 0.54 4.612 0.798 5.366 1.214 6.318l1.25-0.020 0.010-14.166 0.001-0.003 2.667 2.507c1.111 2.714-1.141 5.397-1.141 5.397s0.387 0.069 0.675-0.032c4.261-1.497 5.686-5.94 5.685-5.94 4.612-0.54 5.366-0.797 6.318-1.214l-0.020-1.251-13.921-0.029 2.517-2.849c2.714-1.111 5.397 1.141 5.397 1.141s0.070-0.387-0.032-0.675c-1.497-4.261-5.94-5.685-5.94-5.686-0.54-4.612-0.797-5.366-1.214-6.318z"></path>
</svg>
