<!-- Generated by IcoMoon.io -->
<svg version="1.1" xmlns="http://www.w3.org/2000/svg" width="32" height="32" viewBox="0 0 32 32">
<title>dfc-spark</title>
<path fill="#444" d="M16.001 0c8.837 0 16 7.163 16 16s-7.163 16-16 16c-8.837 0-16-7.163-16-16s7.163-16 16-16zM16.216 13.916c-4.835 0.232-8.273 1.269-12.5 3.759 1.926 1.506 4.004 3.259 5.827 4.885 2.283 2.037 3.534 3.656 4.853 5.28 0.547 0.673 0.962 1.342 1.653 2.050 3.244-4.825 7.549-8.821 12.235-12.228-2.786-1.644-5.847-2.855-9.022-3.47-1.686-0.252-0.674-0.13-3.047-0.276zM15.392 7.832c-0.595 0.089-1.199 0.127-1.784 0.267-3.274 0.784-6.007 3.111-7.1 6.313 3.168-1.073 6.406-2.215 9.813-2.045 3.181-0.056 6.186 1.067 9.16 2.045-1.085-3.275-4.015-5.747-7.391-6.368-1.486-0.26-0.591-0.147-2.697-0.212z"></path>
</svg>
