<!-- Generated by IcoMoon.io -->
<svg version="1.1" xmlns="http://www.w3.org/2000/svg" width="32" height="32" viewBox="0 0 32 32">
<title>dfc-modal-face</title>
<path fill="#444" d="M18.16 10.309l0.127 0.006c0.311 0.042 0.54 0.204 0.727 0.447l5.246 9.085-0.002 0.002c0.108 0.184 0.171 0.376 0.169 0.578-0.005 0.615-0.446 1.035-1.015 1.035l-0-0-10.506 0c-0.568 0-1.029-0.461-1.029-1.029 0.011-0.298 0.11-0.441 0.186-0.585 1.71-3.010 3.493-5.974 5.187-8.989 0.17-0.276 0.436-0.544 0.911-0.551zM18.597 5.66c5.743 0.070 10.656 4.465 10.687 10.34-0.077 5.847-4.918 10.321-10.701 10.34-2.66-0.094-5.358-0.88-7.313-2.767l-8.422-7.717 7.982-7.051 0.766-0.577c1.968-1.66 4.425-2.521 7.001-2.568zM18.561 3.035c-3.236 0.079-6.237 1.099-8.68 3.206l-9.005 7.854c-1.001 0.911-1.052 2.437-0.114 3.409l8.678 7.951c2.382 2.314 5.801 3.461 9.12 3.509 7.372 0 13.348-5.805 13.348-12.965s-5.976-12.965-13.348-12.965z"></path>
</svg>
