<!-- Generated by IcoMoon.io -->
<svg version="1.1" xmlns="http://www.w3.org/2000/svg" width="32" height="32" viewBox="0 0 32 32">
<title>dfc-night</title>
<path fill="#444" d="M14.781 0.105c2.062-0.151 4.156 0.093 6.123 0.731 3.709 1.201 6.925 3.828 8.857 7.213 1.344 2.332 2.078 5.009 2.112 7.701 0.044 2.47-0.496 4.947-1.569 7.173-1.576 3.296-4.322 6.017-7.641 7.549-2.212 1.033-4.666 1.533-7.106 1.461-2.624-0.063-5.224-0.806-7.492-2.126-3.508-2.022-6.177-5.434-7.302-9.322-0.804-2.747-0.846-5.71-0.13-8.48 0.844-3.329 2.816-6.354 5.503-8.49 2.454-1.969 5.509-3.167 8.644-3.409zM7.927 5.303c-1.841 1.381-3.366 3.2-4.332 5.294-0.912 1.951-1.335 4.131-1.197 6.282 0.124 2.216 0.844 4.388 2.033 6.259 1.211 1.91 2.894 3.51 4.84 4.657 2.41 1.427 5.211 2.192 8.012 2.176-0.622-0.187-1.233-0.413-1.824-0.681-2.436-1.114-4.633-2.804-6.203-4.986-1.351-1.852-2.248-4.036-2.564-6.309-0.356-2.563 0.024-5.226 1.1-7.58 1.252-2.777 3.416-5.117 6.042-6.651 1.096-0.649 2.261-1.186 3.484-1.548-3.351 0.011-6.688 1.103-9.389 3.087z"></path>
</svg>
