<!-- Generated by IcoMoon.io -->
<svg version="1.1" xmlns="http://www.w3.org/2000/svg" width="32" height="32" viewBox="0 0 32 32">
<title>dfc-modal-back</title>
<path fill="#444" d="M18.561 3.035c7.372 0 13.348 5.805 13.348 12.965s-5.976 12.965-13.348 12.965c-3.319-0.048-6.738-1.195-9.12-3.509l-8.678-7.951c-0.938-0.972-0.887-2.498 0.114-3.409l9.005-7.854c2.442-2.107 5.444-3.127 8.68-3.206zM18.597 5.66c-2.576 0.048-5.033 0.909-7.001 2.568l-0.766 0.577-7.982 7.051 8.422 7.717c1.955 1.887 4.653 2.672 7.313 2.767 5.782-0.018 10.624-4.493 10.701-10.34-0.031-5.874-4.944-10.27-10.687-10.34zM14.113 11.383c-0.397 0.005-0.619 0.23-0.761 0.46-1.415 2.517-2.902 4.991-4.33 7.504-0.063 0.12-0.146 0.239-0.155 0.488 0 0.474 0.385 0.859 0.859 0.859l0-0 8.77 0c0.474 0 0.843-0.35 0.847-0.864 0.001-0.168-0.051-0.328-0.141-0.482l0.002-0.002-4.379-7.585c-0.156-0.203-0.347-0.339-0.607-0.373l-0.106-0.005zM21.995 20.655c-0.397-0.005-0.619-0.23-0.761-0.46-1.415-2.517-2.902-4.991-4.33-7.504-0.063-0.12-0.146-0.239-0.155-0.488 0-0.474 0.385-0.859 0.859-0.859l0 0 8.77-0c0.474 0 0.843 0.35 0.847 0.864 0.001 0.168-0.051 0.328-0.141 0.482l0.002 0.002-4.379 7.585c-0.156 0.203-0.347 0.339-0.607 0.373l-0.106 0.005z"></path>
</svg>
