<!-- Generated by IcoMoon.io -->
<svg version="1.1" xmlns="http://www.w3.org/2000/svg" width="32" height="32" viewBox="0 0 32 32">
<title>dfc-lesson</title>
<path fill="#444" d="M16 0c3.13 0.009 6.251 0.917 8.851 2.674-0.616 0.374-1.195 0.803-1.769 1.238-0.953 0.745-1.714 1.7-2.675 2.434-0.916 0.721-1.714 1.574-2.429 2.493-2.067 2.129-3.218 5.186-4.69 7.714-0.201-0.839-0.465-1.9-0.644-2.744-0.046-1.465-0.006-2.935-0.014-4.402-0.26-0.045-0.349-0.072-0.614-0.061-0.635 0.399-1.044 1.041-1.59 1.547l-0.297 0.339-2.416 1.802c-0.535 0.512-1.059 1.114-1.659 1.554-0.319 0.251-0.755 0.19-1.132 0.163-0.594-0.193-1.242-0.184-1.51-0.683-0.124-0.34-0.603-1.253-0.871-1.452-0.42 0.922-0.477 1.723-0.428 2.779 0.022 0.766-0.112 1.179-0.008 1.94 0.271 0.535 1.197 0.431 1.307 1.016 0.218 1.162-0.696 1.6-0.944 2.105 0.718 1.591 1.546 3.323 2.529 4.784 0.466 0.677 1.106 1.202 1.677 1.786 0.712 0.715 1.422 1.462 2.322 1.941 0.645 0.329 1.262 0.761 1.99 0.879 0.228-0.019 0.571 0.11 0.713-0.128 0.054-0.479-0.388-0.801-0.597-1.186-0.308-0.372-0.217-0.879-0.238-1.325 0.027-0.343-0.049-0.745 0.193-1.028 0.587-0.776 1.508-1.155 2.292-1.689 0.346-0.238 0.705-0.455 1.069-0.664 0.667-0.381 1.1-1.044 1.793-1.383 0.715-0.369 1.457-0.772 2.020-1.343-0.52-0.284-1.068-0.517-1.626-0.717-0.518-0.214-0.973-0.53-1.401-0.891l-1.794 0.15c-0.248 0.388-0.497 0.775-0.754 1.157-0.13 0.195-0.394 0.246-0.588 0.116s-0.332-0.483-0.202-0.677c0.263-0.393 0.499-0.331 0.865-0.908 0.198-0.313 0.795-1.221 0.911-1.366 1.102-1.385 1.931-2.928 2.662-3.972 1.627-2.325 3.037-4.476 4.692-5.963 1.997-1.795 3.915-2.919 6.105-3.392h0.16c0.388 0.388 0.219 0.209 0.511 0.53-0.088 0.165-0.275 0.241-0.445 0.289-2.031 0.438-3.811 1.572-5.706 3.274-1.6 1.438-3.122 3.255-4.715 5.531-0.721 1.031-1.393 2.057-2.307 3.502-0.244 0.386-0.706 0.985-0.95 1.371l1.551-0.324c1.254-0.888 2.648-0.827 3.915-1.635 0.431-0.329 0.388-0.913 0.426-1.395 0.476 0.003 0.975-0.034 1.408 0.204 0.543 0.265 1.316 0.348 1.97 0.069 1.131-0.48 0.139-1.318 0.283-1.978 0.447 0.008 1.166-0.001 1.611-0.056 0.685-0.158 1.021-0.705 1.494-1.185-0.519-0.474-1.055-0.934-1.655-1.304 0.672-0.262 2.231-0.275 2.947-0.309 0.246-0.077-0.4-0.495-0.158-0.565 0.557-0.162 1.177 0.043 1.639-0.226 0.064-0.037-0.159-0.396-0.085-0.396 0.396 0 1.105-0.136 1.272-0.339 0.186-0.226-0.21-0.588-0.247-0.878-0.476-0.377-1.146-0.15-1.706-0.268 0.34-0.3 0.64-0.68 1.061-0.867 0.255-0.024 0.162-0.022 0.278-0.024 1.564 2.499 2.31 5.406 2.347 8.338 0 8.837-7.163 16-16 16s-16-7.163-16-16c0-8.837 7.163-16 16-16zM26.268 17.801c-1.301 0.294-3.354 1.724-4.529 2.299-1.454 0.953-2.994 1.765-4.419 2.761-0.554 0.377-1.050 0.838-1.637 1.167-0.878 0.472-1.61 1.171-2.526 1.582 0.487 0.613 0.924 1.342 1.65 1.695 0.539 0.041 0.815-0.554 1.3-0.704 0.318 0.032 1.319 0.006 1.159 0.283-0.509 0.876-1.503 0.714-2.001 1.298-0.412 0.6-0.187 1.381-0.247 2.060 0.356-0.056 0.741-0.048 1.055-0.247 1.43-0.806 2.811-1.693 4.239-2.499 1.669-0.894 3.168-2.057 4.735-3.111 0.9-0.752 2.964-2.014 3.631-2.983 0.14-0.787-0.663-1.447-0.735-2.204-0.113-1.187-0.93-1.277-1.674-1.395zM16.014 1.444l-0.551 0.005c-0.153 0.016-0.308 0.020-0.46 0.048-0.385 0.069-0.747 0.228-1.13 0.304-1.653 0.583-3.155 1.527-4.576 2.541-1.537 1.269-2.89 2.737-4.317 4.124-0.302 0.34-0.761 0.747-0.597 1.254 0.263 0.509 0.774 0.878 1.411 1.077 0.417 0.13 0.361 0.71 0.387 1.139 0.021 0.345 0.481 0.899 1.003 0.648l2.456-2.309c0.559-0.571 1.102-1.090 1.766-1.546 1.326-0.873 2.614-1.759 4.047-2.458 0.854-0.468 1.76-0.848 2.57-1.395 0.857-0.543 0.912-2.343-0.065-2.573-0.533-0.125-0.766 0.005-1.118 0.397-0.725 0.81-1.063 0.942-1.163 0.849-0.072-0.066-0.035-0.174 0.099-0.34 0.054-0.067 0.118-0.091 0.218-0.196 0.005-0.005 0.253-0.238 0.313-0.303 0.231-0.246 0.341-0.462 0.446-0.647 0.072-0.146 0.101-0.094 0.073-0.159-0.143-0.333-0.519-0.347-0.812-0.459z"></path>
</svg>
