<!-- Generated by IcoMoon.io -->
<svg version="1.1" xmlns="http://www.w3.org/2000/svg" width="27" height="32" viewBox="0 0 27 32">
<title>e</title>
<path fill="#444" d="M20.347 2.509c0.445-0.071 0.871-0.225 1.312-0.319-0.005 0.177 0.029 0.351 0.049 0.527 0.022 0.708 0.142 1.408 0.206 2.113 0.147 1.090 0.34 2.174 0.575 3.249 0.093 0.417 0.158 0.841 0.282 1.25 0.135 0.437 0.183 0.898 0.352 1.326 0.141 0.504 0.286 1.007 0.47 1.497 0.123 0.289 0.202 0.593 0.307 0.889 0.151 0.522 0.409 1.004 0.605 1.51 0.1 0.283 0.239 0.526 0.349 0.804 0.164 0.415 0.36 0.753 0.568 1.125 0.391 0.736 0.623 1.149 0.928 1.529 0.17 0.273 0.358 0.552 0.573 0.793 0.118 0.15 0.294 0.28 0.311 0.485-0.26 0.095-0.509 0.218-0.763 0.328-0.767 0.254-1.51 0.577-2.241 0.921-1.012 0.434-1.97 0.98-2.908 1.554-1.41 0.853-2.754 1.82-3.958 2.947-0.768 0.72-1.505 1.475-2.168 2.293-0.245 0.303-0.482 0.614-0.681 0.95-0.205 0.347-0.468 0.656-0.676 1.001-0.108 0.178-0.204 0.365-0.332 0.531-0.14-0.169-0.248-0.361-0.36-0.549-0.863-1.422-1.924-2.722-3.123-3.875-1.407-1.363-3-2.523-4.683-3.522-0.863-0.493-1.747-0.949-2.641-1.384-0.237-0.123-0.503-0.179-0.728-0.327-0.635-0.311-1.315-0.514-1.958-0.806 0.167-0.332 0.409-0.617 0.621-0.92 0.445-0.613 0.825-1.268 1.192-1.929 0.956-1.735 1.664-3.596 2.218-5.495 0.569-1.911 0.938-3.876 1.189-5.852 0.095-0.744 0.162-1.491 0.211-2.24 0.003-0.213 0.021-0.426 0.046-0.638 0.215 0.004 0.425 0.051 0.632 0.11 0.699 0.198 1.415 0.329 2.13 0.452 1.138 0.189 2.281 0.355 3.434 0.409 0.734 0.043 1.469 0.105 2.205 0.097 0.706 0.003 1.409-0.056 2.113-0.101 0.658-0.050 1.315-0.12 1.967-0.228 0.555-0.092 0.66-0.104 0.727-0.117 0.562-0.105 1.101-0.217 1.648-0.385zM17.223 4.606c-0.679 0.248-1.391 0.382-2.099 0.517-0.552 0.066-1.106 0.128-1.663 0.112-1.083 0.025-2.178-0.135-3.187-0.538-0.013 0.125-0.007 0.251 0.014 0.375 0.075 0.516 0.104 1.040 0.041 1.558-0.079 1.147-0.391 2.263-0.794 3.335-0.099 0.273-0.239 0.532-0.293 0.82-1.009 2.266-2.361 4.366-3.892 6.312-0.148 0.188-0.313 0.364-0.437 0.57 0.227 0.004 0.438-0.086 0.656-0.136 1.126-0.291 2.273-0.511 3.43-0.621 0.795-0.106 1.6-0.079 2.401-0.080 0.897 0.005 1.792 0.132 2.657 0.367 0.036 0.078 0.012 0.165-0.005 0.244-0.287 0.936-0.457 1.904-0.566 2.875-0.131 1.177-0.113 2.365-0.093 3.548 0.067 1.209 0.169 2.42 0.409 3.61 0.095-0.418 0.147-0.845 0.251-1.26 0.243-1.057 0.605-2.084 1.017-3.086 0.699-1.68 1.558-3.289 2.494-4.849 1.014-1.675 2.109-3.301 3.295-4.86 0.1-0.103 0.055-0.251 0.058-0.379-0.094 0.004-0.189 0.007-0.281 0.027-0.496 0.11-1 0.179-1.503 0.259-0.357 0.040-0.712 0.108-1.072 0.116 0.047 0.013 0.095 0.026 0.144 0.039-0.206-0.014-0.413-0.004-0.619 0.005-0.54 0.077-1.087 0.041-1.63 0.053-0.527-0.011-1.058 0.025-1.582-0.053-0.447-0.003-0.88-0.131-1.324-0.163-0.029-0.439 0.090-0.869 0.168-1.297 0.563-2.636 1.965-5.045 3.789-7.012 0.127-0.137 0.335-0.241 0.432-0.423-0.063-0.061-0.147-0.004-0.216 0.011z"></path>
</svg>
