<!-- Generated by IcoMoon.io -->
<svg version="1.1" xmlns="http://www.w3.org/2000/svg" width="32" height="32" viewBox="0 0 32 32">
<title>enchantment</title>
<path fill="#444" d="M15.839 2.855h0.294c0.115 0.318 0.203 0.647 0.245 0.985 0.414 3.991 0.839 7.985 1.253 11.976 0.072 0.448 0.075 0.966 0.396 1.32 0.377 0.288 0.786-0.094 1.018-0.384 2.057-2.781 4.163-5.529 6.231-8.304 0.219-0.325 0.523-0.575 0.874-0.745-0.018 0.409-0.083 0.82-0.248 1.197-1.232 2.994-2.422 6.007-3.649 9.003-0.136 0.409-0.35 0.85-0.206 1.287 0.209 0.419 0.767 0.222 1.117 0.12 2.356-0.946 4.708-1.909 7.061-2.865 0.563-0.254 1.141-0.486 1.76-0.561v0.283c-0.376 0.462-0.857 0.815-1.309 1.196-1.905 1.621-3.796 3.258-5.715 4.863-0.312 0.277-0.646 0.639-0.582 1.092 0.113 0.379 0.52 0.54 0.862 0.654 2.257 0.524 4.493 1.145 6.744 1.701v0.293c-2.732 0.601-5.436 1.34-8.194 1.817-0.488 0.054-1.028 0.24-1.485-0.029-0.206-0.321-0.061-0.711-0.034-1.060 0.213-1.255 0.054-2.57-0.492-3.721-0.842-1.809-2.562-3.197-4.527-3.577-1.766-0.363-3.678 0.066-5.104 1.173-1.88 1.386-2.893 3.881-2.425 6.181 0.048 0.353 0.177 0.786-0.136 1.060-0.296 0.131-0.623 0.085-0.934 0.043-2.711-0.39-5.339-1.191-8.020-1.738-0.208-0.053-0.414-0.115-0.62-0.173v-0.203c0.246-0.117 0.503-0.213 0.77-0.273 1.933-0.42 3.822-1.026 5.758-1.439 0.412-0.109 0.918-0.262 1.063-0.715 0.050-0.451-0.286-0.81-0.595-1.090-1.68-1.407-3.338-2.842-5.005-4.263-0.655-0.598-1.399-1.101-1.992-1.763v-0.328c0.334 0.074 0.675 0.133 0.994 0.262 2.473 1.034 4.968 2.014 7.444 3.042 0.451 0.176 1.391 0.585 1.512-0.157 0.030-0.623-0.28-1.191-0.499-1.757-0.985-2.427-1.965-4.856-2.951-7.281-0.281-0.735-0.694-1.448-0.684-2.259 0.36 0.155 0.66 0.406 0.879 0.729 2.046 2.757 4.134 5.481 6.18 8.239 0.249 0.376 0.649 0.609 1.108 0.534 0.177-0.444 0.313-0.906 0.352-1.386 0.353-3.429 0.719-6.856 1.081-10.283 0.109-0.902 0.118-1.825 0.408-2.697z"></path>
</svg>
