<!-- Generated by IcoMoon.io -->
<svg version="1.1" xmlns="http://www.w3.org/2000/svg" width="21" height="32" viewBox="0 0 21 32">
<title>flashback</title>
<path fill="#444" d="M8.953 0c0.345 0 0.689 0.021 1.023 0.061l3.55 0.557c4.397 0.825 7.229 5.395 7.229 11.645v19.229c-0 0.28-0.228 0.507-0.508 0.507h-16.433c-0.158 0-0.308-0.074-0.404-0.2l-3.185-4.166c-0.068-0.088-0.104-0.197-0.104-0.308v-15.395c0-7.137 3.55-11.932 8.833-11.932v0zM12.030 1.295c-4.611 0-7.708 4.326-7.708 10.766v18.924h15.417v-18.924c0-6.439-3.098-10.766-7.709-10.766v0zM14.964 22.777c0.281 0 0.508 0.227 0.508 0.507s-0.228 0.507-0.508 0.507h-5.645c-0.281 0-0.508-0.227-0.508-0.507s0.227-0.507 0.508-0.507h5.645zM16.563 18.312c0.281 0 0.508 0.227 0.508 0.507s-0.228 0.507-0.508 0.507h-8.843c-0.281 0-0.508-0.227-0.508-0.507s0.228-0.507 0.508-0.507h8.843zM14.704 12.73c0.281 0 0.508 0.227 0.508 0.507s-0.228 0.507-0.508 0.507h-5.126c-0.281 0-0.508-0.227-0.508-0.507s0.228-0.507 0.508-0.507h5.126zM16.563 8.874c0.281 0 0.508 0.227 0.508 0.507s-0.228 0.507-0.508 0.507h-8.843c-0.281 0-0.508-0.227-0.508-0.507s0.228-0.507 0.508-0.507h8.843z"></path>
</svg>
