<!-- Generated by IcoMoon.io -->
<svg version="1.1" xmlns="http://www.w3.org/2000/svg" width="19" height="32" viewBox="0 0 19 32">
<title>guild-gruul</title>
<path fill="#444" d="M9.106 1.121c0.187-0.346 0.38-0.699 0.453-1.089 0.1 0.535 0.381 1.010 0.647 1.477 0.064 0.117 0.132 0.235 0.169 0.364 0.121 0.475 0.381 0.902 0.667 1.295 0.098 0.14 0.228 0.257 0.298 0.415 0.213 0.442 0.377 0.906 0.581 1.352 0.131 0.355 0.11 0.741 0.14 1.113 0.143-0.097 0.218-0.257 0.292-0.406 0.11-0.24 0.2-0.491 0.257-0.749 0.035-0.145-0.027-0.286-0.057-0.426-0.083-0.324-0.004-0.677 0.204-0.939 0.008 0.456 0.128 0.913 0.374 1.299 0.23 0.37 0.551 0.671 0.872 0.962 0.184 0.162 0.287 0.392 0.352 0.623 0.034 0.105 0.051 0.219 0.113 0.313 0.058 0.088 0.207 0.023 0.21-0.072 0.002-0.077-0.031-0.151-0.032-0.228 0.025-0.061 0.073-0.114 0.083-0.181-0.002-0.051-0.015-0.101-0.015-0.152 0.044-0.083 0.117-0.148 0.155-0.234 0.102-0.212 0.144-0.448 0.163-0.681 0.017-0.173-0.029-0.343-0.069-0.51-0.078-0.302-0.172-0.6-0.293-0.887-0.043-0.097-0.086-0.197-0.153-0.281-0.044-0.057-0.143-0.069-0.15-0.151-0.005-0.099 0.142-0.106 0.144-0.202 0.004-0.152-0.106-0.273-0.198-0.382 0.069-0.017 0.155-0.042 0.213 0.016 0.151 0.156 0.091 0.416 0.249 0.567 0.275 0.291 0.531 0.602 0.735 0.947 0.158 0.269 0.282 0.563 0.328 0.873 0.029 0.182 0.006 0.368 0.043 0.549 0.072 0.393 0.188 0.776 0.257 1.17 0.101 0.542 0.135 1.1 0.065 1.648-0.043 0.311-0.135 0.63-0.35 0.868-0.227 0.254-0.548 0.389-0.821 0.584-0.296 0.203-0.539 0.479-0.71 0.793-0.069 0.136-0.206 0.219-0.289 0.346-0.14 0.199-0.173 0.45-0.176 0.687 0 0.131-0.046 0.268 0.009 0.393 0.042 0.095 0.148 0.13 0.221 0.197-0.056 0.039-0.114 0.079-0.141 0.144 0.089 0.062 0.224 0.115 0.199 0.25-0.236-0.001-0.423-0.163-0.555-0.341-0.149-0.204-0.368-0.339-0.585-0.46-0.070-0.038-0.138-0.079-0.2-0.129 0.024-0.319-0.001-0.642 0.058-0.959 0.161-0.087 0.361-0.112 0.486-0.257 0.156-0.183 0.176-0.437 0.182-0.667 0.023-0.369-0.249-0.675-0.253-1.041 0.007-0.324-0.162-0.626-0.387-0.85-0.112-0.11-0.222-0.226-0.293-0.367-0.036-0.059-0.057-0.137-0.124-0.17-0.090-0.014-0.12 0.098-0.106 0.166-0.003 0.104 0.088 0.165 0.138 0.244 0.074 0.124 0.063 0.274 0.103 0.409 0.016 0.068 0.053 0.141 0.019 0.21-0.075 0.162-0.269 0.265-0.264 0.462-0.149 0.039-0.304 0.036-0.455 0.058-0.242 0.030-0.481 0.104-0.686 0.239-0.072-0.145-0.080-0.309-0.123-0.462-0.026-0.106-0.138-0.146-0.22-0.199 0.007 0.191-0.011 0.395-0.13 0.553-0.197 0.264-0.518 0.394-0.823 0.491-0.006-0.175 0.036-0.358 0.153-0.494 0.196-0.236 0.5-0.333 0.738-0.516 0.028-0.017 0.041-0.044 0.035-0.076 0.198-0.117 0.413-0.216 0.572-0.386 0.172-0.176 0.263-0.418 0.281-0.66 0.036-0.572-0.114-1.155-0.428-1.637-0.106-0.17-0.234-0.324-0.351-0.487-0.041-0.057-0.073-0.121-0.087-0.19-0.053-0.231-0.147-0.459-0.313-0.633-0.086-0.094-0.2-0.162-0.265-0.273-0.082-0.135-0.204-0.238-0.329-0.332-0.132-0.096-0.274-0.182-0.427-0.24-0.062-0.025-0.13-0.035-0.189-0.065-0.091-0.081-0.118-0.215-0.222-0.284-0.053-0.039-0.119-0.012-0.176 0.001 0.045 0.129 0.073 0.263 0.117 0.391 0.086 0.089 0.234 0.119 0.285 0.242 0.042 0.117 0.079 0.238 0.143 0.346 0.065 0.125 0.159 0.231 0.226 0.354 0.050 0.093 0.009 0.2-0.025 0.292-0.057 0.152-0.156 0.283-0.222 0.431-0.006 0.108 0.091 0.191 0.109 0.297-0.125 0.046-0.251 0.098-0.359 0.176-0.163 0.115-0.287 0.275-0.443 0.397-0.22 0.183-0.488 0.29-0.72 0.455-0.268 0.182-0.495 0.43-0.624 0.727-0.115 0.256-0.159 0.539-0.159 0.818-0 0.144-0.001 0.296 0.065 0.428 0.060 0.127 0.163 0.226 0.265 0.321-0.287-0.025-0.586-0.078-0.824-0.248-0.18-0.126-0.293-0.356-0.247-0.574 0.064-0.233 0.206-0.444 0.233-0.687 0.012-0.066-0.022-0.124-0.065-0.17-0.634 0.477-1.035 1.224-1.144 2-0.039 0.303-0.038 0.62 0.066 0.912 0.057 0.156 0.153 0.308 0.305 0.387 0.090 0.051 0.199 0.043 0.293 0.081 0.236 0.087 0.495 0.126 0.704 0.275 0.099 0.067 0.173 0.165 0.228 0.27-0.177-0.022-0.368-0.033-0.517-0.14-0.169-0.119-0.314-0.267-0.467-0.405 0.044 0.404 0.123 0.804 0.152 1.209-0.321 0.311-0.71 0.538-1.081 0.783-0.103-0.039-0.191-0.106-0.268-0.182 0.101-0.208 0.191-0.424 0.243-0.65 0.051-0.208 0.041-0.426 0.017-0.637-0.017-0.124-0.051-0.265-0.164-0.336-0.091-0.060-0.189-0.119-0.238-0.22-0.073-0.147-0.127-0.304-0.217-0.442-0.116-0.193-0.276-0.36-0.468-0.478-0.238-0.151-0.524-0.221-0.74-0.409-0.181-0.154-0.284-0.377-0.346-0.602-0.111-0.422-0.125-0.862-0.12-1.295 0.020-0.779 0.403-1.491 0.463-2.265 0.018-0.178-0.020-0.362 0.035-0.535 0.036-0.124 0.114-0.229 0.181-0.338 0.108-0.176 0.155-0.38 0.25-0.563 0.040-0.086 0.134-0.123 0.2-0.185 0.187-0.17 0.34-0.374 0.523-0.548 0.034-0.034 0.070-0.067 0.092-0.11 0.039-0.091 0.022-0.198 0.069-0.286 0.037-0.067 0.111-0.101 0.176-0.137-0.056 0.164-0.113 0.338-0.080 0.513 0.008 0.060 0.034 0.119 0.025 0.18-0.037 0.061-0.096 0.104-0.137 0.162-0.070 0.091-0.088 0.209-0.158 0.3-0.057 0.075-0.109 0.158-0.119 0.254-0.021 0.123 0.028 0.247 0.001 0.369-0.037 0.077-0.12 0.12-0.159 0.196-0.054 0.099-0.022 0.216-0.030 0.323-0.011 0.153-0.026 0.309 0.007 0.46 0.033 0.193 0.135 0.363 0.213 0.539 0.057 0.118 0.022 0.251 0.037 0.376 0.015 0.172 0.094 0.341 0.228 0.452 0.092 0.080 0.205 0.127 0.319 0.167 0.042-0.399 0.196-0.775 0.364-1.136 0.39-0.821 0.899-1.577 1.401-2.333-0.142 0.338-0.198 0.705-0.217 1.068-0.011 0.296-0.002 0.598 0.085 0.884 0.046 0.151 0.131 0.305 0.287 0.366 0.078-0.817 0.396-1.596 0.839-2.282 0.282-0.447 0.625-0.852 0.949-1.269 0.071-0.105 0.173-0.21 0.17-0.344-0.008-0.093-0.118-0.057-0.179-0.055 0.102-0.233 0.246-0.446 0.365-0.67zM17.61 7.209c0.039 0.13 0.099 0.27 0.052 0.406-0.013 0.051-0.064 0.106-0.018 0.155 0.101 0.152 0.182 0.317 0.251 0.485 0.123 0.314 0.249 0.645 0.219 0.988-0.010 0.144-0.019 0.298-0.101 0.423-0.041 0.065-0.086 0.133-0.084 0.213-0.003 0.207-0.025 0.417-0.112 0.608-0.119 0.277-0.35 0.485-0.591 0.658-0.322 0.233-0.68 0.439-0.913 0.77-0.174 0.239-0.253 0.533-0.274 0.825 0.058-0.085 0.123-0.168 0.208-0.229 0.255-0.187 0.58-0.216 0.881-0.28 0.166-0.036 0.351-0.079 0.458-0.222 0.139-0.179 0.138-0.416 0.223-0.618 0.026-0.074 0.112-0.115 0.186-0.082 0.073 0.091 0.078 0.214 0.082 0.326 0.013 0.382-0.051 0.763-0.163 1.128-0.093 0.282-0.221 0.577-0.468 0.758-0.16 0.12-0.372 0.139-0.561 0.090-0.006 0.035-0.011 0.071-0.016 0.107-0.251-0.046-0.532 0.034-0.688 0.242 0.233 0.014 0.466-0.040 0.669-0.153-0.142 0.616-0.701 1.028-0.848 1.641-0.053-0.017-0.11-0.041-0.13-0.098-0.068-0.16-0.080-0.336-0.125-0.502-0.038 0.111-0.061 0.226-0.066 0.343-0.024 0.409 0.061 0.813 0.111 1.217 0.028 0.369-0.070 0.732-0.098 1.098-0.009 0.113-0.001 0.23 0.055 0.331 0.094-0.219 0.204-0.432 0.35-0.621 0.245-0.328 0.586-0.572 0.949-0.758 0.321-0.173 0.673-0.312 0.935-0.574 0.169-0.166 0.271-0.386 0.327-0.612-0.14 0.23-0.37 0.418-0.642 0.46-0.062 0.010-0.171 0.003-0.166-0.082 0.031-0.119 0.094-0.229 0.177-0.32 0.159-0.175 0.411-0.225 0.57-0.4 0.138-0.147 0.197-0.346 0.232-0.54 0.057-0.343 0.048-0.693 0.030-1.040-0.111 0.302-0.302 0.579-0.553 0.783-0.072 0.050-0.164 0.123-0.255 0.083-0.070-0.059-0.049-0.165-0.036-0.244 0.050-0.227 0.26-0.36 0.444-0.476 0.306-0.184 0.621-0.384 0.813-0.694 0.273-0.429 0.296-0.96 0.254-1.452-0.035-0.459-0.178-0.898-0.267-1.348-0.050-0.232-0.022-0.471-0.067-0.703-0.068-0.374-0.206-0.735-0.396-1.064-0.159-0.227-0.369-0.41-0.556-0.613-0.115-0.124-0.199-0.27-0.279-0.417zM1.249 8.006c-0.118 0.111-0.273 0.185-0.362 0.324-0.1 0.156-0.169 0.33-0.24 0.5-0.060 0.155-0.135 0.304-0.171 0.467-0.113 0.477-0.194 0.961-0.278 1.445-0.055 0.339-0.114 0.677-0.157 1.017-0.045 0.38-0.003 0.786 0.208 1.114 0.169 0.269 0.433 0.46 0.701 0.624 0.152 0.099 0.321 0.184 0.43 0.334 0.149 0.199 0.329 0.375 0.468 0.582 0.058 0.089 0.125 0.2 0.068 0.306-0.112-0.001-0.224-0.024-0.322-0.079-0.329-0.175-0.579-0.483-0.703-0.832 0.069 0.559 0.179 1.129 0.467 1.621 0.189 0.326 0.49 0.593 0.852 0.712 0.232 0.085 0.482 0.104 0.719 0.169 0.191 0.051 0.314 0.216 0.426 0.366 0.199 0.278 0.397 0.584 0.722 0.729-0.242-0.428-0.335-0.948-0.219-1.429 0.038-0.176 0.112-0.343 0.138-0.521 0.027-0.205-0.019-0.409-0.075-0.605-0.043 0.112-0.063 0.233-0.118 0.341-0.044 0.086-0.155 0.035-0.222 0.012-0.279-0.127-0.502-0.346-0.705-0.57-0.235-0.267-0.426-0.574-0.537-0.912-0.063-0.066-0.158-0.081-0.236-0.123-0.278-0.132-0.462-0.394-0.584-0.666-0.139-0.306-0.232-0.633-0.265-0.967-0.017-0.203-0.016-0.418 0.069-0.608 0.008-0.033 0.065-0.046 0.082-0.013 0.058 0.096 0.073 0.209 0.123 0.31 0.117 0.274 0.358 0.483 0.635 0.59 0.307 0.123 0.648 0.148 0.937 0.315 0.183 0.101 0.327 0.257 0.442 0.428 0.053-0.423 0.052-0.867-0.11-1.269-0.127-0.344-0.389-0.624-0.49-0.979-0.065-0.222-0.047-0.457-0.004-0.681-0.098 0.063-0.19 0.139-0.252 0.238-0.149 0.23-0.185 0.511-0.197 0.778-0.009 0.155 0.008 0.312-0.023 0.466-0.143-0.095-0.238-0.242-0.357-0.362-0.182-0.192-0.409-0.331-0.635-0.464-0.126-0.083-0.077-0.255-0.073-0.38 0.035-0.184-0.082-0.341-0.136-0.508-0.093-0.233-0.121-0.49-0.077-0.737 0.021-0.129 0.122-0.227 0.146-0.356 0.051-0.248 0.116-0.501 0.267-0.71 0.038-0.061 0.098-0.109 0.126-0.176-0.020-0.069-0.056-0.132-0.067-0.203-0.019-0.109-0-0.218 0.015-0.325-0.087 0.256-0.222 0.504-0.428 0.685zM12.244 11.101c-0.166 0.069-0.296 0.211-0.345 0.383 0.222-0.023 0.436-0.106 0.614-0.239 0.109-0.075 0.198-0.175 0.308-0.249-0.017-0.011-0.034-0.022-0.050-0.032-0.177 0.040-0.361 0.060-0.527 0.137zM8.522 13.838c0.079-0.053 0.164-0.114 0.263-0.114 0.088 0.016 0.155 0.082 0.219 0.139 0.248 0.237 0.448 0.518 0.686 0.764 0.043 0.040 0.086 0.090 0.148 0.101 0.064-0.032 0.114-0.085 0.163-0.136 0.217-0.234 0.407-0.493 0.637-0.715 0.062-0.057 0.127-0.119 0.209-0.147 0.078-0.018 0.153 0.026 0.219 0.064 0.407 0.266 0.69 0.677 1.083 0.958 0.055 0.297 0.083 0.604 0.213 0.881 0.060 0.125 0.146 0.251 0.281 0.303 0.043 0.022 0.112 0.030 0.113 0.093 0.011 0.107-0.076 0.192-0.172 0.221 0.081 0.245 0.181 0.486 0.21 0.745 0.051 0.441-0.005 0.889-0.121 1.316-0.137 0.48-0.359 0.943-0.693 1.319-0.146 0.157-0.316 0.311-0.53 0.366-0.129 0.036-0.26-0.020-0.362-0.096-0.225-0.165-0.397-0.392-0.631-0.546-0.077-0.052-0.167-0.082-0.259-0.089-0.143-0.006-0.238-0.145-0.382-0.148-0.124 0.017-0.21 0.129-0.334 0.143-0.082 0.010-0.166 0.023-0.238 0.067-0.291 0.167-0.479 0.465-0.771 0.631-0.136 0.081-0.305 0.045-0.434-0.030-0.239-0.136-0.42-0.35-0.575-0.572-0.297-0.439-0.486-0.946-0.573-1.467-0.059-0.38-0.077-0.774 0.020-1.149 0.042-0.168 0.11-0.327 0.161-0.492-0.095-0.031-0.183-0.113-0.172-0.22-0-0.062 0.069-0.071 0.112-0.093 0.134-0.052 0.22-0.177 0.28-0.3 0.131-0.277 0.16-0.586 0.214-0.883 0.161-0.107 0.293-0.249 0.431-0.383 0.188-0.184 0.372-0.375 0.585-0.532zM8.983 12.228c-0.369 0.117-0.745 0.261-1.139 0.235-0.010 0.063-0.027 0.149-0.105 0.159-0.061 0.013-0.085-0.051-0.097-0.097-0.207 0.135-0.45 0.218-0.629 0.395-0.193 0.132-0.418 0.217-0.59 0.379-0.202 0.197-0.339 0.446-0.49 0.681-0.261 0.363-0.56 0.705-0.749 1.113-0.227 0.483-0.271 1.024-0.282 1.55-0.032 1.018 0.262 2.021 0.709 2.929 0.165 0.317 0.33 0.641 0.573 0.906 0.049-0.039 0.106-0.094 0.175-0.068 0.11 0.039 0.174 0.145 0.259 0.22 0.074 0.076 0.176 0.145 0.19 0.258-0.003 0.079-0.088 0.107-0.145 0.142 0.119 0.267 0.427 0.36 0.694 0.403 0.24 0.046 0.494 0.038 0.723 0.135 0.272 0.105 0.555 0.184 0.842 0.239 0.877 0.174 1.801 0.086 2.636-0.229 0.279-0.121 0.592-0.096 0.883-0.171 0.223-0.048 0.459-0.155 0.555-0.375-0.064-0.035-0.167-0.078-0.141-0.17 0.035-0.109 0.135-0.175 0.211-0.254 0.083-0.076 0.154-0.195 0.279-0.2 0.064-0.008 0.117 0.117 0.165 0.036 0.222-0.26 0.382-0.566 0.537-0.867 0.443-0.901 0.736-1.897 0.709-2.907-0.010-0.509-0.048-1.032-0.252-1.506-0.184-0.432-0.495-0.79-0.769-1.166-0.2-0.301-0.37-0.649-0.693-0.84-0.159-0.105-0.345-0.171-0.482-0.307-0.166-0.131-0.368-0.205-0.544-0.321-0.016 0.037-0.026 0.098-0.080 0.097-0.088 0.007-0.116-0.091-0.124-0.16-0.395 0.028-0.773-0.12-1.143-0.236-0.108-0.024-0.211 0.036-0.318 0.043-0.18 0.025-0.356-0.034-0.532-0.058-0.18 0.030-0.361 0.085-0.545 0.052-0.097-0.012-0.192-0.064-0.29-0.038zM2.367 13.723c0.099 0.061 0.206 0.114 0.307 0.174 0.122 0.068 0.267 0.089 0.403 0.051-0.168-0.2-0.46-0.291-0.71-0.225zM9.6 15.18c-0.273 0.002-0.572 0.081-0.741 0.31-0.088 0.102-0.101 0.245-0.188 0.347-0.124 0.15-0.258 0.297-0.341 0.475-0.098 0.215-0.134 0.451-0.153 0.684-0.009 0.178-0.032 0.361 0.019 0.535 0.074 0.246 0.223 0.466 0.405 0.646 0.068 0.059 0.139 0.133 0.236 0.136 0.164 0.008 0.33 0.024 0.483 0.087 0.188 0.081 0.327 0.245 0.514 0.325 0.172-0.086 0.308-0.23 0.48-0.314 0.156-0.070 0.329-0.087 0.498-0.095 0.093-0 0.164-0.068 0.229-0.125 0.178-0.17 0.321-0.379 0.403-0.611 0.066-0.178 0.046-0.372 0.036-0.557-0.019-0.249-0.056-0.503-0.165-0.73-0.091-0.189-0.242-0.337-0.367-0.503-0.059-0.104-0.085-0.227-0.168-0.318-0.172-0.215-0.461-0.288-0.726-0.29-0.051-0.072-0.117-0.15-0.216-0.147-0.107-0.017-0.184 0.066-0.239 0.145zM2.776 18.784c0.082 0.166 0.201 0.31 0.285 0.474 0.127 0.237 0.192 0.502 0.222 0.768 0.003 0.079 0.070 0.131 0.116 0.188 0.576 0.639 1.173 1.259 1.762 1.886 0.044 0.034 0.038 0.102 0.005 0.142-0.043 0.037-0.103 0.051-0.141 0.094-0.028 0.083 0.025 0.168 0.087 0.221 0.243 0.211 0.564 0.332 0.763 0.591 0.137 0.231 0.237 0.493 0.44 0.678 0.080 0.075 0.193 0.093 0.299 0.093 0.080 0.008 0.181-0.012 0.235 0.063 0.41 0.44 0.817 0.883 1.21 1.338 0.034 0.044 0.080 0.085 0.093 0.142-0.005 0.053-0.056 0.083-0.097 0.108-0.151 0.082-0.321 0.124-0.468 0.213-0.145-0.032-0.224-0.164-0.334-0.248-0.057-0.050-0.132-0.009-0.189 0.018-0.194 0.106-0.325 0.291-0.451 0.467-0.165 0.232-0.304 0.487-0.51 0.689-0.104 0.108-0.255 0.146-0.367 0.242-0.093 0.078-0.173 0.17-0.272 0.241-0.244 0.178-0.519 0.305-0.791 0.434-0.183 0.089-0.346 0.211-0.508 0.332-0.453 0.347-0.878 0.728-1.347 1.054-0.565 0.464-1.093 0.97-1.641 1.454 0.126-0.004 0.249-0.035 0.363-0.087 0.116-0.055 0.243-0.086 0.351-0.156 0.060-0.035 0.123-0.073 0.194-0.079 0.042-0.010 0.058 0.035 0.044 0.068-0.042 0.131-0.158 0.215-0.259 0.299-0.038 0.11 0.093 0.184 0.188 0.181 0.125-0.001 0.272 0.032 0.376-0.056 0.698-0.537 1.399-1.069 2.093-1.611-0.158-0.013-0.324-0.051-0.476 0.014-0.069 0.024-0.122 0.078-0.19 0.104-0.030-0.032-0.054-0.069-0.086-0.098-0.113-0.002-0.243 0.045-0.332-0.050 0.041-0.052 0.089-0.099 0.146-0.134 0.19-0.124 0.394-0.229 0.559-0.387 0.128-0.112 0.253 0.115 0.389 0.033 0.25-0.113 0.469-0.285 0.714-0.407 0.057-0.026 0.147-0.055 0.191 0.006-0.018 0.125-0.139 0.198-0.22 0.286 0.156 0.012 0.309-0.035 0.445-0.108 0.537-0.292 0.96-0.767 1.537-0.991 0.138-0.060 0.299-0.051 0.428-0.134 0.241-0.144 0.456-0.324 0.685-0.486 0.113-0.078 0.226-0.165 0.364-0.196 0.048 0.13 0.051 0.27 0.050 0.407-0.006 0.62-0.107 1.234-0.151 1.851 0.070 0.019 0.169 0.011 0.21 0.084 0.021 0.116-0.028 0.233-0.021 0.35 0.028 0.077 0.102 0.125 0.162 0.177 0.035 0.543 0.028 1.087 0.047 1.63 0.013 0.342 0.012 0.685 0.061 1.024 0.201-0.366 0.255-0.791 0.264-1.202 0.010-0.218-0.022-0.436-0.008-0.654 0.085 0.021 0.146 0.1 0.235 0.106 0.056-0.064 0.044-0.163 0.061-0.242 0.055-0.649 0.069-1.301 0.077-1.952 0.050 0.050 0.102 0.103 0.173 0.124 0.101 0.030 0.234 0.048 0.302-0.052 0.133-0.183 0.051-0.423 0.111-0.627 0.016-0.077 0.082-0.124 0.151-0.152 0.403 0.331 0.778 0.693 1.164 1.043 0.708 0.653 1.412 1.31 2.116 1.967 0.073 0.082 0.207 0.067 0.274 0.156 0.066 0.101 0.053 0.235 0.125 0.334 0.029 0.043 0.086 0.039 0.132 0.046 0.027-0.13 0.045-0.267 0.115-0.383 0.028-0.050 0.093-0.088 0.148-0.055 0.17 0.084 0.323 0.21 0.512 0.253 0.081 0.022 0.165 0.005 0.239-0.030-0.621-0.738-1.256-1.465-1.885-2.196 0.073-0.052 0.166-0.115 0.165-0.215-0.030-0.075-0.084-0.137-0.132-0.2-0.292-0.359-0.611-0.697-0.937-1.026-0.107-0.099-0.202-0.215-0.329-0.288-0.127 0.001-0.215 0.108-0.302 0.186-0.514-0.493-1.040-0.974-1.535-1.486 0.053-0.045 0.108-0.087 0.166-0.126 0.499-0.338 1.020-0.645 1.517-0.987 0.059-0.033 0.106-0.111 0.18-0.101 0.096 0.056 0.16 0.171 0.281 0.182 0.105 0.007 0.227-0.035 0.28-0.131 0.048-0.104 0.039-0.222 0.070-0.331 0.037-0.154 0.151-0.278 0.286-0.358 0.415-0.232 0.804-0.506 1.196-0.773 0.611-0.423 1.216-0.854 1.814-1.296 0.217-0.166 0.443-0.321 0.643-0.508-0.148 0.022-0.297 0.059-0.448 0.048-0.039-0.005-0.093-0.013-0.104-0.058 0.005-0.078 0.067-0.135 0.116-0.191 0.287-0.293 0.633-0.527 0.888-0.851-0.353 0.188-0.692 0.398-1.037 0.6-0.343 0.209-0.691 0.41-1.028 0.63-0.027 0.018-0.056 0.028-0.087 0.029-0.051-0.051-0.071-0.122-0.104-0.183-0.092 0.046-0.173 0.109-0.255 0.17-0.592 0.446-1.172 0.909-1.785 1.328-0.275 0.185-0.556 0.372-0.878 0.468-0.074-0.017-0.151-0.049-0.227-0.017-0.154 0.051-0.313 0.118-0.422 0.242-0.083 0.087-0.015 0.241-0.126 0.308-0.334 0.242-0.703 0.434-1.063 0.635-0.021-0.425-0.043-0.851-0.065-1.276-0.092 0.017-0.184 0.034-0.277 0.051-0.014-0.131-0.027-0.262-0.040-0.392-0.118-0.005-0.264-0.001-0.334-0.115-0.113-0.005-0.225 0.004-0.337 0.015-0.050 0.559-0.099 1.118-0.149 1.677-0.326-0.33-0.655-0.658-0.965-1.003-0.049-0.063-0.122-0.132-0.107-0.219 0.033-0.063 0.087-0.115 0.102-0.186-0.028 0.016-0.055 0.032-0.082 0.050-0.033-0.012-0.081-0.007-0.098-0.044-0.128-0.258-0.108-0.576-0.288-0.812-0.126 0.039-0.16 0.209-0.303 0.21-0.088 0.023-0.162-0.038-0.225-0.089-0.317-0.269-0.59-0.601-0.967-0.792-0.19-0.065-0.32-0.222-0.462-0.354-0.368-0.363-0.72-0.742-1.096-1.098-0.077-0.067-0.148-0.146-0.242-0.19-0.062 0.002-0.149 0.008-0.173 0.076-0.010 0.071 0.016 0.141 0.027 0.21-0.177-0.194-0.339-0.401-0.522-0.59-0.217-0.221-0.456-0.451-0.768-0.528z"></path>
</svg>
