<!-- Generated by IcoMoon.io -->
<svg version="1.1" xmlns="http://www.w3.org/2000/svg" width="32" height="32" viewBox="0 0 32 32">
<title>guild-selesnya</title>
<path fill="#444" d="M17.44 4.438l0.226 0.058c0.527 0.137 0.301 0.080 0.679 0.175-0.499 0.954-1.012 1.9-1.516 2.852-0.053 0.106-0.122 0.205-0.161 0.318-0.015 0.103 0.001 0.207 0.003 0.31 0.062 1.431 0.121 2.862 0.183 4.293 0.778-1.277 1.554-2.556 2.332-3.833 0.026-0.041 0.038-0.089 0.037-0.138 0.009-1.201 0.014-2.402 0.025-3.604 0.307 0.105 0.614 0.208 0.921 0.313 0.063 0.955 0.125 1.911 0.189 2.867 0.827-0.472 1.653-0.945 2.48-1.416 0.247 0.212 0.496 0.423 0.744 0.635-0.957 0.65-1.914 1.3-2.871 1.949-0.080 0.057-0.171 0.102-0.237 0.175-0.077 0.12-0.127 0.255-0.194 0.381-0.6 1.219-1.201 2.438-1.801 3.658 1.306-0.768 2.61-1.54 3.917-2.308 0.046-0.027 0.086-0.064 0.113-0.11 0.613-1.040 1.227-2.081 1.841-3.12 0.206 0.233 0.407 0.471 0.611 0.707-0.44 0.866-0.881 1.732-1.32 2.598 0.98-0.002 1.961-0.004 2.941-0.010 0.13 0.302 0.242 0.611 0.372 0.913-1.209 0.098-2.42 0.176-3.63 0.269-0.049 0.004-0.094 0.027-0.134 0.055-1.215 0.857-2.431 1.711-3.651 2.56 1.465-0.017 2.928-0.084 4.392-0.124 0.084-0.004 0.174 0 0.246-0.050 1.030-0.642 2.061-1.283 3.093-1.923 0.065 0.329 0.13 0.659 0.195 0.987-0.695 0.501-1.391 0.999-2.087 1.499-0.095 0.070-0.198 0.129-0.279 0.215 0.825 0.435 1.662 0.849 2.489 1.282-0.004 0.333-0 0.666-0.002 1-0.629-0.254-1.245-0.541-1.887-0.762-1.11-0.388-2.291-0.685-3.475-0.552-1.131 0.126-2.259 0.544-3.101 1.328-0.659 0.607-1.092 1.434-1.276 2.305-0.275 1.281-0.114 2.627 0.317 3.855 0.344 0.964 0.91 1.863 1.701 2.523 0.724 0.612 1.62 0.999 2.547 1.18 0.847 0.169 1.717 0.177 2.575 0.102-0.24 0.263-0.483 0.527-0.751 0.763-0.147 0.047-0.31 0.021-0.464 0.030-0.874-0.003-1.738-0.189-2.564-0.466-0.205-0.064-0.405-0.152-0.621-0.17 0.006 0.116 0.037 0.233 0.114 0.323 0.201 0.258 0.47 0.451 0.736 0.636 0.446 0.299 0.913 0.568 1.406 0.783-0.175 0.116-0.35 0.234-0.529 0.343-0.242-0.054-0.474-0.146-0.692-0.267-0.601-0.328-1.106-0.797-1.648-1.21-0.129-0.087-0.273-0.225-0.441-0.16 0.066 0.217 0.214 0.393 0.344 0.573 0.431 0.568 0.898 1.108 1.359 1.653-0.2 0.095-0.402 0.184-0.606 0.27-0.232-0.251-0.393-0.56-0.645-0.793-0.091-0.082-0.209-0.166-0.338-0.137-0.181 0.045-0.289 0.223-0.33 0.394-0.078 0.325-0.036 0.662 0.010 0.988-0.398 0.11-0.8 0.201-1.207 0.274-0.359-0.214-0.531-0.616-0.838-0.884-0.1-0.083-0.297-0.176-0.375-0.020-0.197 0.331-0.297 0.709-0.411 1.075-0.159 0.006-0.319 0.009-0.478 0.014h-0.043c-0.16-0.004-0.321-0.008-0.481-0.014-0.105-0.345-0.206-0.694-0.374-1.015-0.041-0.061-0.082-0.157-0.17-0.145-0.162 0.014-0.286 0.134-0.388 0.249-0.219 0.256-0.397 0.561-0.692 0.74-0.406-0.073-0.809-0.163-1.206-0.274 0.046-0.326 0.088-0.662 0.011-0.986-0.040-0.163-0.137-0.331-0.304-0.388-0.128-0.046-0.254 0.032-0.347 0.114-0.262 0.235-0.426 0.552-0.663 0.809-0.204-0.085-0.406-0.175-0.606-0.27 0.499-0.593 1.011-1.177 1.469-1.803 0.085-0.129 0.194-0.253 0.221-0.409-0.082-0.082-0.196-0.004-0.276 0.041-0.352 0.234-0.663 0.524-1 0.778-0.45 0.341-0.929 0.678-1.49 0.804-0.181-0.108-0.356-0.226-0.531-0.344 0.425-0.183 0.828-0.412 1.218-0.659 0.321-0.211 0.646-0.429 0.896-0.725 0.088-0.099 0.138-0.225 0.141-0.357-0.132 0.012-0.261 0.047-0.385 0.091-1.028 0.361-2.116 0.605-3.21 0.533-0.051-0.002-0.085-0.044-0.121-0.073-0.236-0.228-0.466-0.462-0.683-0.707 1.217 0.108 2.476 0.041 3.624-0.404 0.916-0.349 1.731-0.958 2.317-1.744 0.762-1.015 1.168-2.264 1.3-3.518 0.109-1.11-0.029-2.277-0.572-3.266-0.439-0.805-1.157-1.439-1.983-1.826-1.084-0.509-2.324-0.687-3.505-0.485-0.778 0.124-1.533 0.361-2.268 0.64-0.51 0.192-1.004 0.422-1.511 0.624-0.002-0.333 0.002-0.667-0.002-1 0.833-0.432 1.671-0.856 2.505-1.285-0.794-0.57-1.588-1.14-2.382-1.71 0.065-0.329 0.13-0.659 0.196-0.988 1.033 0.641 2.065 1.283 3.097 1.926 0.072 0.048 0.161 0.043 0.243 0.047 1.464 0.041 2.928 0.106 4.393 0.125-1.228-0.851-2.448-1.712-3.67-2.571-0.091-0.063-0.209-0.048-0.314-0.060-1.144-0.082-2.288-0.166-3.431-0.25 0.119-0.305 0.244-0.608 0.363-0.914 0.982-0.002 1.965 0.007 2.947 0.007-0.439-0.866-0.88-1.732-1.32-2.598 0.203-0.236 0.407-0.473 0.611-0.708 0.614 1.043 1.23 2.084 1.844 3.127 0.051 0.088 0.15 0.127 0.233 0.178 1.265 0.743 2.527 1.492 3.792 2.233-0.649-1.326-1.305-2.649-1.954-3.975-0.024-0.049-0.058-0.092-0.103-0.121-1.015-0.687-2.029-1.377-3.043-2.066 0.249-0.207 0.488-0.428 0.744-0.627 0.089 0.034 0.168 0.090 0.252 0.136 0.742 0.425 1.485 0.849 2.227 1.273 0.063-0.955 0.126-1.911 0.189-2.867 0.307-0.105 0.615-0.208 0.922-0.313 0.008 1.148 0.017 2.296 0.022 3.444 0.005 0.099-0.017 0.209 0.040 0.298 0.778 1.277 1.553 2.556 2.332 3.832 0.066-1.504 0.128-3.008 0.193-4.511 0.012-0.123-0.071-0.223-0.122-0.327-0.522-0.977-1.043-1.954-1.563-2.931 0.302-0.078 0.605-0.159 0.908-0.235 0.479 0.788 0.96 1.574 1.44 2.361 0.48-0.787 0.96-1.574 1.44-2.361zM17.356 29.203v0c0.105 0.267 0.236 0.522 0.37 0.775 0.155 0.28 0.312 0.565 0.528 0.804 0.065 0.061 0.149 0.155 0.248 0.116 0.044-0.073 0.043-0.161 0.048-0.242 0.002-0.193-0.014-0.386-0.049-0.575-0.035-0.193-0.188-0.333-0.326-0.459-0.235-0.196-0.501-0.399-0.818-0.418zM14.639 29.198v0c-0.299 0.029-0.553 0.208-0.778 0.392-0.139 0.124-0.291 0.255-0.349 0.439-0.046 0.194-0.060 0.395-0.062 0.594 0.004 0.092 0 0.193 0.048 0.276 0.165 0.033 0.271-0.149 0.366-0.258 0.225-0.305 0.403-0.64 0.572-0.978 0.072-0.152 0.154-0.302 0.202-0.464zM16.003 28.492v0c-0.057 0.029-0.085 0.091-0.118 0.143-0.134 0.239-0.24 0.492-0.331 0.75-0.024 0.080-0.061 0.164-0.040 0.249 0.045 0.18 0.123 0.349 0.196 0.519 0.086 0.186 0.167 0.376 0.292 0.54 0.109-0.145 0.185-0.311 0.262-0.474 0.088-0.209 0.198-0.416 0.232-0.643-0.048-0.256-0.164-0.494-0.269-0.73-0.065-0.122-0.115-0.262-0.222-0.354zM17.903 28.277v0c0.014 0.105 0.011 0.223 0.065 0.317 0.37 0.224 0.75 0.433 1.116 0.664 0.028-0.174-0.094-0.315-0.205-0.432-0.206-0.205-0.447-0.379-0.713-0.498-0.082-0.040-0.173-0.052-0.263-0.052zM14.096 28.277v0c-0.179-0.010-0.339 0.082-0.487 0.169-0.212 0.131-0.413 0.285-0.574 0.477-0.076 0.092-0.149 0.209-0.111 0.334 0.362-0.236 0.744-0.441 1.113-0.665 0.044-0.098 0.049-0.209 0.060-0.315zM4.627 10.427c-1.263 0.272-2.526 0.544-3.79 0.812 0.852 0.976 1.717 1.942 2.573 2.915-1.133 0.671-2.271 1.332-3.399 2.009 1.106 0.644 2.21 1.293 3.315 1.938-0.292-2.554 0.139-5.194 1.278-7.502 0.023-0.051 0.117-0.142 0.024-0.172zM27.37 10.424c-0.018 0.015-0.035 0.030-0.051 0.045 0.083 0.109 0.129 0.239 0.19 0.361 1.054 2.253 1.448 4.801 1.166 7.27 1.105-0.645 2.208-1.294 3.315-1.938-1.129-0.677-2.267-1.338-3.4-2.009 0.858-0.971 1.718-1.941 2.576-2.914-1.265-0.272-2.532-0.537-3.795-0.817zM25.409 3.237c-1.203 0.515-2.406 1.032-3.61 1.548 2.040 1.077 3.771 2.719 4.976 4.684 0.18 0.302 0.367 0.603 0.511 0.925 0.015 0.008 0.044 0.023 0.059 0.030 0.016-0.048 0.034-0.095 0.054-0.141 0.527-1.171 1.054-2.342 1.581-3.513-1.331 0.119-2.662 0.237-3.993 0.357 0.14-1.297 0.281-2.593 0.422-3.89zM6.59 3.236c0.141 1.297 0.282 2.593 0.422 3.89l-3.994-0.356c0.53 1.18 1.062 2.36 1.593 3.54 0.019 0.033 0.037 0.088 0.083 0.088 0.026-0.029 0.040-0.065 0.059-0.098 1.204-2.331 3.124-4.289 5.446-5.515-1.203-0.516-2.406-1.033-3.61-1.548zM20.992 0.932c-0.59 0.498-1.175 1.001-1.762 1.501-0.413 0.359-0.839 0.704-1.245 1.071 1.314 0.217 2.594 0.641 3.773 1.26-0.255-1.277-0.51-2.554-0.766-3.831zM11.009 0.933c-0.26 1.276-0.512 2.553-0.767 3.83 1.18-0.619 2.46-1.043 3.774-1.26-0.123-0.12-0.259-0.225-0.388-0.338-0.874-0.744-1.744-1.491-2.619-2.232zM16 0.141v0c-0.646 1.116-1.285 2.236-1.927 3.354 1.274-0.199 2.579-0.199 3.854 0-0.642-1.118-1.282-2.238-1.927-3.355z"></path>
</svg>
