<!-- Generated by IcoMoon.io -->
<svg version="1.1" xmlns="http://www.w3.org/2000/svg" width="29" height="32" viewBox="0 0 29 32">
<title>guild-dimir</title>
<path fill="#444" d="M18.088 0h0.003c-0.125 0.347-0.245 0.698-0.305 1.063-0.123 0.692-0.089 1.405 0.036 2.095-0.579-0.422-1.249-0.722-1.955-0.852 0.115-0.206 0.227-0.414 0.355-0.613 0.453-0.722 1.118-1.295 1.867-1.694zM11.037 0.015c0.069 0.216 0.153 0.427 0.21 0.647 0.223 0.817 0.209 1.683 0.056 2.511 0.579-0.422 1.249-0.724 1.956-0.852-0.126-0.223-0.246-0.449-0.388-0.663-0.45-0.7-1.103-1.255-1.835-1.643zM4.049 1.137c-0.675 0.805-1.294 1.656-1.856 2.543-0.494 0.782-0.942 1.595-1.313 2.443-0.43 0.986-0.763 2.025-0.873 3.099 0.132-0.251 0.258-0.506 0.394-0.755 0.51-0.931 1.125-1.826 1.942-2.515 0.641-0.544 1.436-0.935 2.283-0.994 0.852-0.074 1.702 0.225 2.39 0.716 0.671 0.481 1.234 1.143 1.509 1.929 0.346-1.254 0.901-2.471 1.748-3.468-0.612 0.156-1.265 0.136-1.867-0.054-0.862-0.268-1.606-0.826-2.217-1.48-0.604-0.649-1.091-1.403-1.457-2.21-0.247 0.23-0.464 0.489-0.683 0.744zM22.752 2.779c-0.609 0.606-1.346 1.111-2.185 1.333-0.558 0.149-1.154 0.153-1.714 0.011 0.846 0.998 1.402 2.213 1.747 3.468 0.288-0.819 0.886-1.505 1.597-1.99 0.452-0.304 0.963-0.527 1.502-0.62 0.631-0.107 1.288-0.020 1.879 0.219 0.853 0.345 1.553 0.981 2.122 1.691 0.572 0.707 1.008 1.509 1.418 2.317v-0.048c-0.107-0.884-0.346-1.748-0.675-2.575-0.379-0.96-0.866-1.875-1.407-2.753-0.585-0.94-1.233-1.841-1.944-2.69-0.225-0.262-0.447-0.527-0.699-0.764-0.403 0.887-0.952 1.712-1.641 2.401zM14.226 9.457c0.558-0.060 1.122 0.044 1.648 0.227 0.531 0.187 1.035 0.454 1.482 0.796 0.293 0.228 0.57 0.488 0.759 0.811 0.113 0.193 0.18 0.429 0.112 0.649-0.1 0.342-0.343 0.619-0.596 0.861-0.399 0.369-0.868 0.659-1.364 0.879-0.528 0.233-1.099 0.385-1.679 0.396-0.51 0.005-1.014-0.118-1.486-0.305-0.521-0.209-1.013-0.495-1.449-0.849-0.318-0.267-0.636-0.566-0.798-0.956-0.088-0.197-0.034-0.422 0.074-0.599 0.228-0.381 0.571-0.678 0.925-0.939 0.7-0.498 1.51-0.872 2.37-0.972zM14.020 4.070c-0.82 0.124-1.57 0.552-2.163 1.122-0.752 0.722-1.279 1.653-1.616 2.633-0.517 1.517-0.602 3.172-0.289 4.742 0.229 1.122 0.674 2.213 1.382 3.12 0.531 0.677 1.224 1.25 2.042 1.539 0.695 0.249 1.47 0.269 2.176 0.054 0.825-0.247 1.537-0.787 2.085-1.442 0.666-0.796 1.116-1.756 1.383-2.754 0.335-1.26 0.39-2.592 0.179-3.878-0.189-1.133-0.593-2.242-1.255-3.185-0.487-0.692-1.127-1.295-1.9-1.654-0.627-0.293-1.341-0.404-2.026-0.296zM21.007 9.96c0.049 0.665 0.068 1.335-0.017 1.997 0.183-0.081 0.388-0.102 0.586-0.086 0.376 0.028 0.737 0.162 1.068 0.337 0.496 0.267 0.927 0.644 1.285 1.077 0.498 0.6 0.857 1.307 1.103 2.045 0.302 0.913 0.438 1.875 0.465 2.835 0.026 0.932-0.049 1.865-0.186 2.787 0.242-0.58 0.417-1.186 0.587-1.79 0.25-0.91 0.463-1.831 0.649-2.756 0.174-0.882 0.325-1.769 0.422-2.663 0.058-0.572 0.104-1.149 0.065-1.724-0.775-0.083-1.535-0.277-2.268-0.537-0.965-0.346-1.897-0.8-2.731-1.4-0.429-0.315-0.839-0.67-1.141-1.112 0.051 0.328 0.089 0.659 0.115 0.99zM7.762 9.539c-0.647 0.619-1.425 1.083-2.227 1.472-1.086 0.512-2.245 0.89-3.442 1.023-0.028 0.396-0.012 0.793 0.016 1.188 0.056 0.743 0.163 1.481 0.287 2.215 0.221 1.27 0.5 2.53 0.841 3.773 0.167 0.593 0.341 1.187 0.577 1.757-0.224-1.523-0.288-3.087 0.013-4.604 0.222-1.113 0.654-2.207 1.388-3.084 0.489-0.581 1.115-1.072 1.847-1.299 0.345-0.101 0.733-0.154 1.073-0.007-0.040-0.349-0.066-0.701-0.059-1.052 0.008-0.648 0.058-1.295 0.156-1.935-0.137 0.2-0.296 0.385-0.471 0.554zM14.307 10.555c-0.335 0.075-0.628 0.315-0.763 0.631-0.148 0.332-0.114 0.737 0.088 1.040 0.225 0.351 0.662 0.549 1.075 0.483 0.333-0.046 0.637-0.257 0.799-0.55 0.142-0.25 0.177-0.558 0.098-0.834-0.076-0.272-0.262-0.51-0.508-0.65-0.235-0.138-0.522-0.18-0.788-0.12zM8.538 14.021c-0.046 0.532-0.185 1.059-0.44 1.53-0.263 0.499-0.649 0.924-1.081 1.282-0.359 0.307-0.771 0.55-1.112 0.879 0.105 0.547 0.286 1.076 0.458 1.606 0.602 1.78 1.297 3.527 2.021 5.26 0.713 1.685 1.455 3.359 2.296 4.985 0.317 0.603 0.643 1.204 1.026 1.769 0.167 0.239 0.339 0.48 0.565 0.669-0.466-1.008-0.867-2.045-1.216-3.098-0.727-2.211-1.245-4.493-1.518-6.805-0.082-0.764-0.166-1.529-0.235-2.294-0.043-0.534-0.085-1.072-0.034-1.607 0.030-0.257 0.077-0.531 0.245-0.738 0.118-0.148 0.313-0.211 0.498-0.203-0.692-0.971-1.153-2.090-1.472-3.234zM20.588 14.006c-0.319 1.145-0.782 2.261-1.471 3.235 0.18-0.006 0.369 0.050 0.488 0.192 0.179 0.213 0.226 0.5 0.256 0.768 0.049 0.552 0.003 1.106-0.043 1.657-0.055 0.622-0.126 1.243-0.19 1.864-0.114 1.107-0.292 2.208-0.519 3.298-0.505 2.391-1.231 4.743-2.254 6.965 0.191-0.156 0.34-0.355 0.484-0.553 0.322-0.456 0.598-0.941 0.865-1.431 0.49-0.906 0.936-1.835 1.367-2.771 0.576-1.256 1.12-2.527 1.641-3.807 0.582-1.44 1.144-2.889 1.63-4.363 0.143-0.448 0.287-0.897 0.379-1.359-0.374-0.365-0.835-0.625-1.221-0.976-0.381-0.331-0.719-0.718-0.959-1.164-0.262-0.478-0.407-1.014-0.452-1.556z"></path>
</svg>
