<!-- Generated by IcoMoon.io -->
<svg version="1.1" xmlns="http://www.w3.org/2000/svg" width="28" height="32" viewBox="0 0 28 32">
<title>guild-izzet</title>
<path fill="#444" d="M14.094 4.139l0.319 0.002c1.276 0.029 2.541 0.286 3.749 0.694 1.868 0.637 3.607 1.641 5.106 2.924 1.39 1.19 2.572 2.63 3.435 4.246 0.748 1.397 1.253 2.924 1.489 4.491 0.179 1.169 0.203 2.358 0.119 3.536-0.142 1.982-0.637 3.965-1.637 5.694-0.463 0.8-1.029 1.547-1.71 2.174-0.147 0.088-0.312 0.146-0.447 0.256-0.428 0.317-0.704 0.79-0.922 1.266-0.159-0.423-0.235-0.884-0.167-1.334 0.037-0.304 0.145-0.597 0.149-0.905 0.004-0.209-0.076-0.41-0.194-0.579-0.208 0.225-0.435 0.432-0.672 0.626-0.736 0.598-1.549 1.094-2.367 1.57-0.442 0.259-0.893 0.501-1.329 0.768-0.221 0.131-0.402 0.316-0.588 0.49-0.316 0.301-0.638 0.597-0.99 0.855-0.493 0.364-1.042 0.657-1.628 0.837-0.476 0.153-0.974 0.216-1.471 0.249h-0.294c-0.513-0.033-1.027-0.1-1.517-0.262-0.584-0.185-1.13-0.482-1.62-0.849-0.427-0.315-0.803-0.69-1.191-1.049-0.177-0.171-0.39-0.298-0.601-0.42-0.736-0.423-1.479-0.834-2.193-1.293-0.687-0.446-1.367-0.921-1.928-1.523-0.099 0.146-0.177 0.313-0.19 0.491-0.025 0.328 0.1 0.641 0.141 0.963 0.074 0.459-0.001 0.93-0.163 1.363-0.191-0.418-0.425-0.827-0.767-1.139-0.172-0.169-0.392-0.272-0.602-0.382-0.662-0.609-1.214-1.332-1.671-2.106-0.981-1.67-1.488-3.584-1.656-5.504-0.103-1.206-0.096-2.425 0.073-3.624 0.179-1.291 0.538-2.558 1.068-3.749 0.731-1.649 1.788-3.147 3.071-4.414 1.47-1.452 3.231-2.609 5.147-3.383 1.085-0.433 2.219-0.75 3.379-0.894 0.572-0.071 0.696-0.064 1.271-0.087h-0zM6.971 10.462c-0.328 0.652-0.519 1.364-0.657 2.078-0.217 1.162-0.273 2.352-0.185 3.53 0.090 1.172 0.328 2.336 0.738 3.439 0.602 1.634 1.611 3.123 2.943 4.249 0.116-0.156 0.241-0.305 0.386-0.434-0.063-0.383-0.089-0.771-0.108-1.158-0.023-0.473-0.019-0.948 0.042-1.418 0.081-0.655 0.249-1.298 0.474-1.918-1.436-0.846-2.56-2.189-3.183-3.731-0.596-1.459-0.745-3.091-0.45-4.637zM21.404 10.463c0.312 1.631 0.127 3.358-0.552 4.875-0.402 0.905-0.975 1.733-1.685 2.423-0.615 0.602-1.34 1.089-2.122 1.447 0.114 1.020 0.383 2.019 0.756 2.973 0.056 0.135 0.136 0.257 0.214 0.379 0.232 0.355 0.485 0.695 0.729 1.042 0.874-0.779 1.606-1.716 2.158-2.748 0.848-1.582 1.28-3.368 1.368-5.155 0.057-1.196-0.030-2.401-0.293-3.57-0.133-0.573-0.306-1.141-0.572-1.667zM14.345 4.966c-0.309 0.001-0.177 0.001-0.397 0.002-0.8 0.029-1.577 0.215-2.311 0.53-0.941 0.414-1.781 1.053-2.439 1.842-0.617 0.738-1.077 1.604-1.351 2.525-0.322 1.080-0.388 2.235-0.199 3.346 0.173 1.021 0.568 2.005 1.156 2.859 0.552 0.805 1.276 1.493 2.115 1.994 0.431-0.943 0.982-1.831 1.634-2.637 0.253-0.314 0.356-0.723 0.348-1.121 0.054-0.007 0.114-0.006 0.157-0.046 0.097-0.084 0.097-0.226 0.087-0.344-0.018-0.235-0.137-0.48-0.357-0.586-0.177-0.088-0.385-0.059-0.563 0.010-0.036-0.070-0.071-0.142-0.124-0.202-0.176-0.206-0.552-0.151-0.677 0.084-0.128 0.233-0.048 0.564 0.186 0.698-0.071 0.004-0.173 0.019-0.182 0.107-0.001 0.156 0.113 0.281 0.2 0.4-0.281-0.163-0.603-0.261-0.847-0.482-0.154-0.137-0.225-0.334-0.309-0.515-0.21-0.481-0.389-0.981-0.474-1.5-0.031-0.224-0.063-0.461 0.020-0.679 0.111-0.307 0.319-0.565 0.531-0.808 0.347-0.39 0.74-0.735 1.126-1.085 0.443-0.395 0.902-0.778 1.417-1.076 0.372-0.216 0.777-0.377 1.198-0.467 0.080-0.137 0.201-0.241 0.331-0.328 0.267-0.179 0.56-0.311 0.845-0.456 0.398-0.202 0.815-0.4 1.121-0.733-0.079 0.29-0.268 0.529-0.415 0.786-0.093 0.163-0.204 0.338-0.183 0.534 0.264 0.037 0.532-0.002 0.786-0.076 0.433-0.126 0.832-0.342 1.221-0.568-0.402 0.426-0.725 0.92-1.018 1.425-0.092 0.172-0.198 0.341-0.253 0.529 0.044 0.124 0.147 0.227 0.269 0.276 0.298 0.021 0.593-0.056 0.885-0.106 0.692-0.133 1.394-0.29 2.104-0.23-0.337 0.072-0.644 0.245-0.903 0.469-0.394 0.339-0.69 0.772-0.957 1.214 0.167 0.363 0.43 0.69 0.781 0.887 0.301 0.175 0.646 0.244 0.973 0.349-0.912 0.029-1.794 0.499-2.339 1.229-0.115 0.159-0.226 0.334-0.241 0.534-0.063 0.544-0.020 1.093-0.039 1.639-0.006 0.371-0.072 0.737-0.118 1.104-0.093 0.669-0.161 1.344-0.148 2.021 1.184-0.58 2.178-1.526 2.845-2.661 0.604-1.023 0.944-2.198 0.989-3.384 0.045-1.076-0.146-2.162-0.567-3.154-0.367-0.869-0.908-1.666-1.589-2.321-0.805-0.773-1.803-1.349-2.885-1.628-0.427-0.112-0.866-0.178-1.308-0.197l-0.132-0.004zM6.614 3.545v0c0.196 0.569 0.392 1.145 0.475 1.743 0.315-0.229 0.65-0.432 0.991-0.619-0.493-0.37-0.978-0.748-1.466-1.124zM21.762 3.545v0c-0.488 0.376-0.974 0.754-1.466 1.124 0.342 0.188 0.675 0.39 0.991 0.619 0.084-0.598 0.279-1.174 0.475-1.743zM9.956 1.283v0 0c0.083 0.855 0.12 1.723-0.060 2.57 0.534-0.198 1.078-0.365 1.631-0.501-0.2-0.221-0.382-0.458-0.564-0.694-0.679-0.911-0.344-0.453-1.007-1.375v0zM18.42 1.282v0 0c-0.512 0.715-0.254 0.359-0.775 1.068-0.257 0.34-0.511 0.684-0.796 1.001 0.552 0.136 1.097 0.304 1.631 0.501-0.019-0.106-0.043-0.211-0.057-0.318-0.027-0.213-0.052-0.427-0.064-0.642-0.030-0.538 0.004-1.077 0.060-1.611v0zM14.187 0v0 0c-0.163 0.665-0.339 1.329-0.581 1.971-0.148 0.383-0.305 0.77-0.554 1.101 0.753-0.091 1.517-0.091 2.271 0-0.244-0.325-0.4-0.705-0.546-1.081-0.229-0.654-0.439-1.315-0.59-1.992v0z"></path>
</svg>
