<!-- Generated by IcoMoon.io -->
<svg version="1.1" xmlns="http://www.w3.org/2000/svg" width="32" height="32" viewBox="0 0 32 32">
<title>guild-golgari</title>
<path fill="#444" d="M15.208 1.75h0.036c0.034 0.080 0.068 0.162 0.119 0.233 0.179 0.213 0.418 0.358 0.637 0.526 0.215-0.167 0.457-0.308 0.631-0.521 0.054-0.071 0.102-0.149 0.117-0.238h0.035c0.216 0.11 0.35 0.363 0.605 0.392 0.64 0.078 1.286 0.080 1.929 0.112 0.244 0.118 0.338 0.404 0.554 0.56 0.035 0.221 0.078 0.44 0.127 0.658 0.255 1.133 0.538 2.262 0.71 3.412 0.088 0.532 0.146 1.071 0.274 1.595 0.045 0.215 0.217 0.365 0.342 0.534-0.214 0.441-0.476 0.857-0.715 1.285-0.252 0.452-0.525 0.896-0.725 1.375-0.25-0.945-0.844-1.77-1.562-2.419-0.202-0.176-0.409-0.354-0.652-0.47-0.045 0.061-0.087 0.124-0.115 0.195-0.101 0.238-0.176 0.486-0.236 0.737-0.082 0.359-0.142 0.738-0.042 1.101 0.267 1.143 0.634 2.262 0.843 3.419 0.092 0.529 0.173 1.070 0.11 1.607-0.006 0.14-0.116 0.238-0.198 0.341-0.338 0.393-0.684 0.793-0.893 1.273-0.14 0.311-0.199 0.665-0.119 1.001-0.269-0.144-0.491-0.388-0.564-0.69-0.111-0.449 0.018-0.913 0.17-1.336 0.055-0.17 0.158-0.332 0.14-0.517-0.021-0.311-0.135-0.611-0.292-0.879-0.098-0.154-0.216-0.315-0.395-0.377-0.147-0.047-0.287 0.053-0.384 0.155-0.201 0.221-0.326 0.501-0.407 0.786-0.046 0.186-0.088 0.391-0.011 0.575 0.064 0.165 0.129 0.331 0.181 0.501 0.115 0.378 0.192 0.796 0.060 1.181-0.088 0.264-0.296 0.47-0.536 0.602 0.072-0.309 0.030-0.636-0.089-0.927-0.207-0.521-0.582-0.949-0.943-1.369-0.073-0.091-0.168-0.18-0.176-0.303-0.062-0.485 0.001-0.975 0.078-1.455 0.202-1.212 0.589-2.382 0.87-3.576 0.122-0.447 0.017-0.912-0.101-1.348-0.074-0.239-0.141-0.487-0.285-0.695-0.245 0.108-0.447 0.289-0.648 0.461-0.723 0.65-1.319 1.477-1.572 2.425-0.065-0.167-0.146-0.327-0.23-0.485-0.245-0.462-0.51-0.913-0.769-1.367-0.15-0.268-0.312-0.529-0.44-0.808 0.125-0.169 0.297-0.319 0.342-0.534 0.109-0.441 0.164-0.893 0.235-1.342 0.142-0.995 0.36-1.978 0.587-2.957 0.101-0.453 0.219-0.904 0.288-1.364 0.19-0.143 0.289-0.372 0.476-0.518 0.087-0.076 0.208-0.048 0.313-0.056 0.513-0.017 1.027-0.034 1.538-0.082 0.119-0.014 0.249-0.015 0.351-0.089 0.142-0.097 0.256-0.23 0.403-0.322zM10.651 2.222c-0.897 0.249-1.729 0.681-2.533 1.144-0.458 0.268-0.918 0.535-1.342 0.855-0.754 0.566-1.431 1.223-2.128 1.856-0.197 0.186-0.409 0.359-0.641 0.501-0.324 0.209-0.691 0.342-1.013 0.554-0.212 0.136-0.349 0.367-0.377 0.616 0.328-0.099 0.65 0.097 0.876 0.319 0.101 0.104 0.206 0.213 0.255 0.352-0.017 0.216-0.070 0.428-0.115 0.639-0.235 0.998-0.539 1.978-0.86 2.952-0.349 1.045-0.729 2.080-1.157 3.095-0.257 0.605-0.619 1.155-0.969 1.709-0.229 0.369-0.453 0.752-0.55 1.18-0.079 0.33-0.066 0.675 0.002 1.006 0.069-0.203 0.146-0.405 0.269-0.582 0.158-0.234 0.396-0.449 0.689-0.472 0.107-0.018 0.194 0.062 0.26 0.135 0.145 0.166 0.255 0.358 0.364 0.548 0.349 0.626 0.661 1.272 1.007 1.9 0.448 0.818 0.935 1.62 1.53 2.341 0.401 0.491 0.841 0.949 1.261 1.423 0.599 0.666 1.156 1.398 1.458 2.251 0.367 1.003 0.376 2.098 0.235 3.146 0.308-0.306 0.478-0.718 0.606-1.126 0.165-0.553 0.258-1.129 0.275-1.705 0.015-0.746-0.294-1.451-0.663-2.084-0.326-0.557-0.702-1.083-1.065-1.617-0.607-0.882-1.184-1.792-1.605-2.78-0.185-0.418-0.312-0.858-0.486-1.279-0.2-0.504-0.418-1.012-0.482-1.556-0.015-0.161-0.037-0.328 0.012-0.486 0.064-0.211 0.168-0.406 0.252-0.608 0.062-0.15 0.123-0.31 0.105-0.475-0.083-1.165 0.015-2.34 0.27-3.479 0.123-0.57 0.291-1.129 0.444-1.691 0.065-0.258 0.14-0.52 0.127-0.789-0.004-0.091 0.056-0.168 0.091-0.248 0.338-0.645 0.742-1.254 1.185-1.832 0.626-0.805 1.344-1.554 2.203-2.112 0.673-0.437 1.456-0.739 2.267-0.739 0.088-0.557 0.313-1.079 0.452-1.623 0.029-0.131 0.068-0.27 0.025-0.402-0.067-0.223-0.156-0.44-0.273-0.642-0.059-0.088-0.132-0.244-0.262-0.192zM21.138 2.332c-0.143 0.215-0.241 0.457-0.319 0.703-0.051 0.139-0.013 0.287 0.019 0.425 0.14 0.544 0.364 1.066 0.453 1.623 0.459 0.002 0.916 0.096 1.343 0.263 0.791 0.308 1.481 0.829 2.086 1.416 0.694 0.678 1.289 1.453 1.805 2.273 0.169 0.272 0.332 0.55 0.473 0.838 0.070 0.117 0.019 0.257 0.047 0.385 0.080 0.509 0.254 0.997 0.38 1.495 0.35 1.277 0.532 2.606 0.468 3.932-0 0.18-0.047 0.366 0.009 0.543 0.053 0.185 0.141 0.357 0.217 0.533 0.081 0.182 0.163 0.375 0.142 0.58-0.033 0.756-0.391 1.438-0.644 2.136-0.328 1.010-0.819 1.96-1.393 2.852-0.521 0.822-1.113 1.597-1.61 2.434-0.291 0.5-0.546 1.035-0.636 1.612-0.055 0.33-0.036 0.667 0.001 0.998 0.049 0.43 0.131 0.856 0.264 1.268 0.126 0.381 0.292 0.764 0.582 1.050-0.138-1.025-0.133-2.095 0.212-3.081 0.274-0.806 0.775-1.51 1.331-2.145 0.656-0.749 1.366-1.456 1.931-2.279 0.621-0.888 1.123-1.85 1.619-2.81 0.209-0.393 0.404-0.796 0.658-1.162 0.081-0.104 0.164-0.229 0.298-0.265 0.209-0.013 0.406 0.095 0.555 0.234 0.233 0.218 0.373 0.516 0.467 0.817 0.066-0.291 0.080-0.595 0.028-0.889-0.075-0.439-0.292-0.837-0.522-1.212-0.312-0.5-0.644-0.991-0.899-1.524-0.223-0.474-0.407-0.966-0.599-1.454-0.537-1.418-1.017-2.859-1.408-4.324-0.096-0.388-0.205-0.777-0.248-1.175 0.062-0.168 0.197-0.298 0.326-0.418 0.216-0.191 0.512-0.343 0.805-0.254-0.024-0.146-0.067-0.292-0.159-0.41-0.163-0.213-0.414-0.325-0.646-0.443-0.372-0.181-0.739-0.384-1.051-0.659-0.761-0.683-1.49-1.405-2.31-2.019-0.425-0.32-0.885-0.587-1.343-0.855-0.809-0.465-1.647-0.9-2.551-1.145-0.084-0.029-0.139 0.061-0.183 0.117zM13.804 9.747c-0.163 0.531-0.358 1.056-0.647 1.532-0.223 0.372-0.509 0.709-0.858 0.968-0.357 0.272-0.777 0.439-1.168 0.655-0.218 0.116-0.403 0.282-0.608 0.417-0.402 0.274-0.773 0.598-1.070 0.985-0.553 0.71-0.861 1.58-1.015 2.459-0.112 0.641-0.151 1.294-0.138 1.944 0.024 0.687 0.105 1.371 0.197 2.051 0.072 0.507 0.152 1.013 0.263 1.513 0.033 0.149 0.074 0.296 0.127 0.44 0.062-0.131 0.219-0.136 0.339-0.089 0.31 0.108 0.57 0.319 0.814 0.532 0.417 0.374 0.773 0.81 1.093 1.269 0.198 0.293 0.4 0.588 0.536 0.916 0.206 0.484 0.352 0.991 0.459 1.506 0.116 0.574 0.18 1.163 0.139 1.749-0.033 0.464-0.137 0.934-0.38 1.335-0.065 0.112-0.156 0.206-0.219 0.32h0.012c0.104-0.094 0.229-0.159 0.343-0.239 0.6-0.42 1.096-0.98 1.46-1.614 0.475-0.825 0.751-1.756 0.863-2.7 0.080-0.669 0.021-1.349-0.119-2.006-0.123-0.54-0.299-1.078-0.598-1.548-0.41 0.149-0.872 0.134-1.279-0.020-0.443-0.171-0.811-0.516-1.031-0.935-0.090-0.176-0.164-0.373-0.137-0.575 0.023-0.29 0.201-0.577 0.483-0.676 0.267-0.102 0.565-0.010 0.785 0.155-0.267-0.405-0.531-0.813-0.84-1.187-0.174-0.207-0.365-0.411-0.611-0.531 0.026-0.531 0.091-1.063 0.237-1.576 0.152-0.54 0.393-1.064 0.758-1.494 0.257-0.301 0.578-0.559 0.954-0.694 0.152-0.056 0.315-0.080 0.477-0.068-0.095-0.492-0.005-0.998 0.16-1.466 0.176-0.511 0.371-1.018 0.471-1.551 0.142-0.71 0.145-1.439 0.084-2.158-0.060 0.163-0.172 0.313-0.337 0.379zM17.857 9.367c-0.057 0.686-0.058 1.381 0.066 2.060 0.099 0.588 0.316 1.144 0.508 1.705 0.155 0.451 0.233 0.938 0.141 1.411 0.233-0.024 0.464 0.047 0.671 0.149 0.359 0.179 0.658 0.461 0.894 0.782 0.327 0.443 0.537 0.963 0.669 1.495 0.113 0.463 0.175 0.938 0.188 1.414-0.22 0.094-0.388 0.274-0.544 0.449-0.337 0.392-0.619 0.827-0.901 1.259 0.217-0.164 0.511-0.254 0.776-0.157 0.277 0.094 0.458 0.37 0.487 0.654 0.036 0.212-0.041 0.421-0.138 0.606-0.228 0.432-0.615 0.784-1.078 0.947-0.394 0.137-0.835 0.143-1.23 0.003-0.342 0.549-0.532 1.179-0.648 1.811-0.098 0.571-0.137 1.155-0.068 1.732 0.098 0.84 0.327 1.669 0.709 2.425 0.44 0.873 1.114 1.642 1.973 2.122-0.352-0.402-0.526-0.926-0.582-1.45-0.070-0.623-0.011-1.253 0.107-1.866 0.132-0.646 0.313-1.289 0.616-1.877 0.402-0.684 0.879-1.332 1.466-1.869 0.246-0.217 0.509-0.431 0.821-0.545 0.119-0.047 0.298-0.057 0.348 0.091 0.136-0.363 0.193-0.749 0.264-1.128 0.158-0.945 0.285-1.896 0.326-2.854 0.017-0.715-0.030-1.433-0.168-2.136-0.187-0.962-0.58-1.909-1.266-2.623-0.293-0.313-0.645-0.56-0.995-0.804-0.448-0.37-1.023-0.532-1.492-0.87-0.368-0.255-0.673-0.596-0.907-0.977-0.304-0.488-0.509-1.030-0.675-1.578-0.167-0.066-0.279-0.217-0.339-0.381zM22.026 10.075c-0.032 0.176-0.069 0.351-0.115 0.524-0.117 0.422-0.259 0.851-0.53 1.202 0.183 0.030 0.358 0.105 0.505 0.218 0.333 0.25 0.557 0.618 0.714 0.998 0.152-0.464 0.107-0.967 0.009-1.438-0.119-0.526-0.305-1.041-0.584-1.504zM9.971 10.076c-0.202 0.336-0.353 0.702-0.47 1.076-0.18 0.599-0.29 1.253-0.107 1.866 0.109-0.239 0.227-0.477 0.395-0.681 0.207-0.262 0.491-0.485 0.829-0.536-0.143-0.182-0.248-0.391-0.334-0.604-0.146-0.361-0.239-0.74-0.312-1.12z"></path>
</svg>
