<!-- Generated by IcoMoon.io -->
<svg version="1.1" xmlns="http://www.w3.org/2000/svg" width="32" height="32" viewBox="0 0 32 32">
<title>guild-boros</title>
<path fill="#444" d="M15.972 0.348c0.54 2.389 1.073 4.779 1.612 7.167 0.157 0.023 0.313 0.049 0.469 0.077 1.415-1.922 2.828-3.845 4.242-5.767-0.317 2.32-0.639 4.639-0.956 6.959 0.205 0.113 0.404 0.237 0.603 0.361 1.916-1.126 3.832-2.252 5.749-3.377-1.067 1.889-2.135 3.777-3.204 5.665 0.2 0.249 0.39 0.506 0.571 0.77 1.945-0.276 3.889-0.551 5.834-0.826-1.48 1.251-2.962 2.5-4.443 3.751 0.118 0.389 0.21 0.784 0.288 1.183 1.722 0.496 3.442 0.999 5.164 1.495-1.679 0.502-3.357 1.005-5.035 1.508-0.073 0.769-0.227 1.53-0.461 2.266-0.552 1.745-1.559 3.34-2.886 4.599 0.457 1.122 0.915 2.243 1.371 3.366-0.905 0.825-1.979 1.449-3.11 1.911-0.154 0.072-0.325 0.11-0.47 0.197h-0.034c-0.119-0.698-0.273-1.391-0.405-2.087-0.332-1.671-0.667-3.342-0.994-5.014 0.565-0.588 1.129-1.177 1.694-1.765 0.055-0.062 0.13-0.115 0.15-0.199 0.361-1.333 0.724-2.666 1.084-4-1.551 0.787-3.1 1.575-4.65 2.363-1.201-0.55-2.401-1.105-3.602-1.657-0.331-0.148-0.657-0.31-0.991-0.451-0.772-0.013-1.545-0.002-2.317-0.005-0.001-0.169-0.001-0.338 0-0.507 1.281-0.001 2.561 0 3.842-0 0.001-0.852 0.001-1.703 0-2.554-2.073-0.001-4.147-0.001-6.22-0 0.002 1.43-0.005 2.861 0.003 4.291 0.151 0.229 0.333 0.438 0.495 0.659 0.955 1.249 1.912 2.497 2.867 3.747-0.5 2.384-1.008 4.766-1.51 7.149-1.28-0.468-2.498-1.139-3.515-2.052 0.405-1.169 0.819-2.336 1.229-3.503-1.434-1.402-2.476-3.202-2.957-5.151-0.127-0.513-0.217-1.035-0.269-1.561-1.618-0.508-3.237-1.011-4.855-1.518-0.085-0.027-0.17-0.058-0.26-0.068v-0.009c0.342-0.107 0.689-0.194 1.033-0.292 1.403-0.39 2.807-0.778 4.21-1.169 0.068-0.367 0.155-0.731 0.26-1.089-1.525-1.278-3.052-2.554-4.577-3.832 1.983 0.297 3.964 0.6 5.947 0.895 0.19-0.286 0.393-0.562 0.609-0.829-1.074-1.901-2.15-3.801-3.224-5.702 1.928 1.133 3.854 2.27 5.782 3.402 0.172-0.11 0.346-0.215 0.522-0.318-0.293-2.324-0.588-4.649-0.881-6.973 1.397 1.917 2.791 3.835 4.186 5.752 0.163-0.031 0.327-0.059 0.492-0.083 0.506-2.391 1.006-4.782 1.513-7.172zM14.025 10.88c-0 1.495-0 2.99 0 4.486 0.531 0.001 1.062 0 1.592 0 0.001 0.901-0 1.802 0.001 2.703 0.409-0.002 0.818 0.006 1.227-0.004-0.004-2.394-0.002-4.789-0.001-7.183-0.939-0.005-1.879-0.001-2.818-0.002zM10.617 11.951c-0 1.138-0 2.276 0 3.415 0.974 0 1.948 0 2.921 0 0-1.138 0-2.276 0-3.415-0.974-0.001-1.948-0.001-2.921 0zM17.374 11.951c-0 2.039-0 4.078 0 6.118 0.875 0.001 1.751-0.001 2.626 0.001 0.003-2.039 0.001-4.079 0.001-6.119-0.876 0-1.752-0-2.627 0zM20.481 12.704c-0.001 1.788-0 3.576 0 5.364 0.789 0.001 1.578 0 2.366 0-0.001-1.789 0.003-3.577-0.002-5.366-0.788 0.002-1.576 0-2.364 0.001z"></path>
</svg>
