<!-- Generated by IcoMoon.io -->
<svg version="1.1" xmlns="http://www.w3.org/2000/svg" width="32" height="32" viewBox="0 0 32 32">
<title>half</title>
<path fill="#444" d="M17.018 0v11.308c0 1.353 0.569 2.029 1.709 2.029h0.297v0.774h-6.017v-0.774h0.378c1.102 0 1.653-0.676 1.653-2.029v-7.418c0-1.368-0.476-2.054-1.425-2.054h-0.605v-0.749h0.218c1.175 0 2.239-0.363 3.189-1.087l0.604 0z"></path>
<path fill="#444" d="M20.837 28.493l-1.039 3.507h-8.635v-0.75c0.419-0.467 1.339-1.41 2.758-2.83 0.855-0.855 1.701-1.758 2.539-2.709 0.419-0.467 0.742-0.871 0.967-1.209 0.5-0.725 0.75-1.466 0.75-2.225 0-0.741-0.229-1.395-0.689-1.959s-1.052-0.848-1.778-0.848c-1.564 0-2.789 1.057-3.676 3.169l-0.775-0.29c1.048-2.966 2.701-4.45 4.958-4.45 1.113 0 2.060 0.379 2.842 1.137s1.173 1.693 1.173 2.806c0 1.419-0.814 2.806-2.443 4.16l-1.693 1.402c-1.081 0.904-1.976 1.75-2.685 2.54-0.049 0.048-0.146 0.161-0.29 0.339h4.498c0.693 0 1.217-0.137 1.572-0.412 0.306-0.242 0.605-0.702 0.895-1.379h0.749z"></path>
<path fill="#444" d="M27.875 15.354v1.355h-23.75v-1.355h23.75z"></path>
</svg>
