<!-- Generated by IcoMoon.io -->
<svg version="1.1" xmlns="http://www.w3.org/2000/svg" width="32" height="32" viewBox="0 0 32 32">
<title>infinity</title>
<path fill="#444" d="M21.482 12.75q-0.761 0.488-1.779 1.296t-2.17 1.916q2.14 2.16 3.939 3.222t3.199 1.061q0.967 0 1.79-0.348t1.43-0.958 0.957-1.409 0.35-1.7-0.35-1.644-0.967-1.277-1.461-0.836-1.851-0.301q-1.481 0-3.086 0.977zM7.514 20.246q1.481 0 3.261-1.024t3.775-3.090q-2.037-2.179-3.888-3.269t-3.456-1.090q-0.967 0-1.78 0.329t-1.399 0.892-0.915 1.315-0.329 1.597q0 0.902 0.36 1.691t0.998 1.381 1.502 0.93 1.872 0.338zM7.144 9.425q4.361 0 8.969 4.884 1.358-1.315 2.633-2.311t2.242-1.522q0.988-0.526 2.037-0.789t2.078-0.263q1.481 0 2.746 0.488t2.191 1.353 1.44 2.076 0.514 2.639q0 1.447-0.566 2.658t-1.574 2.085-2.397 1.362-3.014 0.488q-1.913 0-4.053-1.174t-4.505-3.522q-2.304 2.348-4.526 3.522t-4.402 1.174q-1.461 0-2.726-0.507t-2.212-1.381-1.481-2.067-0.535-2.583q0-1.409 0.555-2.621t1.522-2.095 2.273-1.39 2.787-0.507z"></path>
</svg>
