<!-- Generated by IcoMoon.io -->
<svg version="1.1" xmlns="http://www.w3.org/2000/svg" width="32" height="32" viewBox="0 0 32 32">
<title>instant</title>
<path fill="#444" d="M13.701 2.542h11.528c0.286 0.096 0.558 0.283 0.628 0.595-0.053 0.387-0.288 0.713-0.566 0.974-0.488 0.611-1.080 1.127-1.625 1.685-0.336 0.304-0.577 0.695-0.915 0.998-0.544 0.559-1.14 1.071-1.621 1.688-0.459 0.473-0.933 0.93-1.399 1.396-0.275 0.266-0.481 0.595-0.767 0.851-0.557 0.571-1.166 1.095-1.658 1.725-0.527 0.551-1.091 1.066-1.612 1.622-0.335 0.446-0.756 0.813-1.145 1.21-0.307 0.31-0.666 0.604-0.825 1.024-0.071 0.29 0.311 0.431 0.543 0.378 2.471-0.492 4.942-0.988 7.414-1.482 0.346-0.065 0.775-0.007 0.975 0.317 0.406 0.644 0.477 1.436 0.849 2.094 0.2 0.36 0.643 0.469 1.024 0.491 0.56-0.039 1.117-0.179 1.682-0.115 0.146 0.030 0.257 0.139 0.379 0.218v0.396c-0.24 0.355-0.563 0.64-0.863 0.943-0.809 0.809-1.616 1.619-2.424 2.43-0.257 0.26-0.558 0.469-0.814 0.73-1.027 1.032-2.057 2.061-3.084 3.093-0.463 0.521-1.038 0.921-1.511 1.43-0.916 0.922-1.838 1.839-2.753 2.763-0.25 0.257-0.531 0.472-0.844 0.632l-0.32 0.080c0.116-0.691 0.641-1.197 0.968-1.79 1.713-2.678 3.402-5.372 5.113-8.051 0.133-0.218 0.242-0.474 0.201-0.734-0.082-0.376-0.518-0.538-0.863-0.518-3.796 0.585-7.585 1.199-11.38 1.787-0.684 0.089-1.372 0.278-2.064 0.163-0.235-0.065-0.424-0.228-0.542-0.438v-0.677c0.371-0.862 0.835-1.679 1.286-2.5 1.252-2.25 2.519-4.491 3.785-6.733 0.208-0.368 0.456-0.727 0.552-1.146 0.109-0.273-0.152-0.557-0.416-0.599-0.385-0.116-0.912-0.001-1.141-0.416-0.22-0.598 0.196-1.169 0.502-1.651 0.8-1.331 1.602-2.661 2.42-3.982 0.294-0.459 0.79-0.735 1.302-0.883z"></path>
</svg>
