<!-- Generated by IcoMoon.io -->
<svg version="1.1" xmlns="http://www.w3.org/2000/svg" width="32" height="32" viewBox="0 0 32 32">
<title>land</title>
<path fill="#444" d="M10.756 3.523l0.002-0.001c0.825-0.316 1.306 0.346 1.5 0.658 1.075 1.515 1.514 3.352 2.294 5.017 1.055 2.212 2.206 4.463 4.041 6.138 0.241 0.259 0.719 0.494 0.928 0.249 0.768-0.9 1.389-1.911 1.948-2.952 0.361-0.718 1.161-1.177 1.962-1.151 0.634-0.018 1.206 0.389 1.559 0.891 0.809 1.231 1.198 2.665 1.739 4.022 0.666 1.43 1.391 2.874 2.519 4.003 0.669 0.624 1.395 1.184 2.020 1.855 0.343 0.304 0.536 0.728 0.686 1.151l0.015 0.043c0.149 1.177-0.513 1.735-0.892 2.004-0.739 0.589-1.621 0.96-2.509 1.258-2.994 1.063-6.163 1.622-9.327 1.758-5.152 0.221-7.177 0.004-7.702-0.086-1.923-0.172-3.833-0.493-5.711-0.942-1.543-0.425-3.119-0.855-4.494-1.702-0.536-0.319-1.558-0.709-1.275-2.319l0.016-0.021c0.289-1.060 1.099-1.865 1.837-2.644 0.545-0.742 1.307-1.284 1.852-2.025 1.294-1.664 2.244-3.568 2.989-5.531 0.682-1.721 1.081-3.538 1.687-5.286 0.303-1.127 0.753-2.212 1.298-3.243 0.243-0.455 0.579-0.862 1.018-1.141z"></path>
</svg>
