<!-- Generated by IcoMoon.io -->
<svg version="1.1" xmlns="http://www.w3.org/2000/svg" width="30" height="32" viewBox="0 0 30 32">
<title>multiple</title>
<path fill="#444" d="M11.667 28.033c-2.469-2.469-2.967-3.038-2.967-3.395 0-0.346 0.36-0.795 1.875-2.339 1.762-1.796 1.875-1.947 1.875-2.504 0-0.782-0.471-1.246-1.267-1.246-0.531 0-0.711 0.136-2.483 1.875-1.544 1.515-1.993 1.875-2.339 1.875-0.356 0-0.926-0.498-3.394-2.967-2.237-2.237-2.967-3.057-2.967-3.333s0.729-1.096 2.967-3.333c2.469-2.469 3.038-2.967 3.394-2.967 0.346 0 0.795 0.36 2.339 1.875 1.796 1.762 1.947 1.875 2.504 1.875 0.782 0 1.246-0.471 1.246-1.267 0-0.531-0.136-0.711-1.875-2.483-1.515-1.544-1.875-1.993-1.875-2.339 0-0.356 0.498-0.926 2.967-3.394 2.237-2.237 3.057-2.967 3.333-2.967s1.096 0.729 3.333 2.967c2.469 2.469 2.967 3.038 2.967 3.394 0 0.346-0.36 0.795-1.875 2.339-1.762 1.796-1.875 1.947-1.875 2.504 0 0.782 0.471 1.246 1.267 1.246 0.531 0 0.711-0.136 2.483-1.875 1.544-1.515 1.993-1.875 2.339-1.875 0.356 0 0.926 0.498 3.395 2.967 2.237 2.237 2.967 3.057 2.967 3.333s-0.729 1.096-2.967 3.333c-2.469 2.469-3.038 2.967-3.395 2.967-0.346 0-0.795-0.36-2.339-1.875-1.796-1.762-1.947-1.875-2.504-1.875-0.782 0-1.246 0.471-1.246 1.267 0 0.531 0.136 0.711 1.875 2.483 1.515 1.544 1.875 1.993 1.875 2.339 0 0.356-0.498 0.926-2.967 3.395-2.237 2.237-3.057 2.967-3.333 2.967s-1.096-0.729-3.333-2.967zM15 17.35h5.171l3.459 3.45 4.793-4.8-4.793-4.8-3.459 3.45h-10.341l-3.458-3.45-4.793 4.8 4.793 4.8 3.458-3.45h5.17z"></path>
</svg>
