<!-- Generated by IcoMoon.io -->
<svg version="1.1" xmlns="http://www.w3.org/2000/svg" width="32" height="32" viewBox="0 0 32 32">
<title>p</title>
<path fill="#444" d="M25 15.976c0.019-1.745-0.535-3.507-1.622-4.874-0.525-0.578-0.957-1.237-1.513-1.783-1.226-1.217-3.061-1.298-4.538-2.064-0.086-0.77-0.367-1.54-0.197-2.316 0.052-0.258 0.128-0.52-0.009-0.767-0.387-0.892-0.055-1.861-0.123-2.791-0.052-0.486-0.019-1.081-0.481-1.381-0.108 1.011-0.48 1.952-0.781 2.912-0.139 0.748-0.139 1.527-0.461 2.232 0.204 0.715-0.2 1.316-0.639 1.844-0.969 0.496-2.121 0.614-2.964 1.342-0.601 0.51-1.25 0.957-1.923 1.372-0.505 0.631-1.063 1.24-1.288 2.038-0.902 1.089-1.008 2.551-1.52 3.826-0.010 1.894 0.374 3.932 1.584 5.45 0.865 0.714 1.47 1.675 2.334 2.39 0.829 0.495 1.715 0.902 2.571 1.348 0.558 0.13 1.135 0.194 1.69 0.346 0.451 2.321 0.758 4.699 1.663 6.901 0.3-0.904 0.264-1.872 0.523-2.786 0.365-1.351-0.384-2.756 0.038-4.082 0.633-0.566 1.688-0.198 2.39-0.684 1.336-0.824 2.75-1.626 3.719-2.887 0.361-0.725 1.119-1.266 1.119-2.135 0.006-1.171 0.689-2.267 0.428-3.45zM15.082 23.137c-0.968-0.235-1.87-0.698-2.682-1.264-0.874-0.582-1.2-1.669-2.062-2.264-0.807-0.964-0.633-2.28-0.963-3.421 0.133-0.796 0.289-1.586 0.372-2.392 0.394-0.639 1.001-1.148 1.17-1.917 0.577-0.827 1.456-1.399 2.161-2.116 0.513-0.592 1.33-0.342 2.005-0.365-0.067 0.653-0.12 1.328 0.043 1.973 0.080 0.396 0.258 0.786 0.197 1.2-0.135 0.881 0.196 1.765-0.038 2.636-0.471 1.821 0.043 3.66 0.088 5.496-0.067 0.813-0.105 1.633-0.29 2.433zM22.422 19.686c-0.641 0.456-1.188 1.016-1.747 1.562-0.973 0.673-1.934 1.385-3.092 1.721 0.105-0.826 0.206-1.675-0.057-2.484-0.646-1.827 0.146-3.737 0.279-5.584-0.118-1.098-0.005-2.27-0.509-3.281-0.066-0.76 0.263-1.494 0.485-2.209 0.765 0.305 1.485 0.717 2.121 1.247 0.769 0.576 1.946 0.95 2.118 2.024 0.088 0.706 0.86 1.132 0.838 1.854-0.048 1.716 0.188 3.511-0.437 5.149z"></path>
</svg>
