<!-- Generated by IcoMoon.io -->
<svg version="1.1" xmlns="http://www.w3.org/2000/svg" width="18" height="32" viewBox="0 0 18 32">
<title>polis-meletis</title>
<path fill="#444" d="M9.408 1.713l0.175 0.008c0.962 0.064 1.902 0.473 2.594 1.147 0.783 0.751 1.259 1.827 1.245 2.916 0.047 1.429-0.741 2.854-1.975 3.576-0.265 0.152-0.539 0.306-0.845 0.351 0.589 0.111 1.186 0.199 1.761 0.377 1.631 0.471 3.179 1.334 4.311 2.615 0.814 0.903 1.385 2.042 1.548 3.251 0.048 1.401 0.031 1.552 0.030 1.699l-0 11.291v1.282h-3.763v-1.282h0.003c0.002-5.858 0.003-2.725-0.002-9.399-0.014-0.419 0.036-0.845-0.052-1.258-0.123-0.594-0.571-1.096-1.13-1.322-0.104-0.030-0.207-0.059-0.309-0.092-0.321-0.033-0.649-0.025-0.955 0.086-0.545 0.218-0.987 0.692-1.127 1.267-0.086 0.369-0.087 0.75-0.083 1.126-0.006 3.607-0.001 7.214-0.004 10.82-1.121-0.003-2.243-0.002-3.364-0.001-0.001-3.711 0.004-7.421-0.004-11.132 0.009-0.341-0.023-0.689-0.14-1.012-0.161-0.433-0.494-0.782-0.898-0.998-0.126-0.047-0.254-0.093-0.38-0.139-0.267-0.046-0.542-0.050-0.809 0.002-0.11 0.037-0.22 0.075-0.331 0.105-0.66 0.303-1.097 0.997-1.094 1.722-0.012 3.816-0.006 7.633-0.004 11.449-1.279 0.002-2.521-0-3.799-0.006l-0.001-0.244c0.008-2.596 0.008-5.191 0.008-7.787 0.011-1.788-0.021-3.577 0.024-5.364 0.093-1.039 0.176-1.586 0.381-2.096 0.068-0.164 0.139-0.326 0.211-0.488 0.498-1.017 1.279-1.872 2.175-2.554 0.883-0.664 1.889-1.159 2.946-1.479l0.040-0.019c0.559-0.165 1.13-0.29 1.706-0.38 0.171-0.006 0.341-0.013 0.512-0.026-1.042-0.304-1.913-1.092-2.387-2.060-0.444-0.885-0.55-1.934-0.293-2.89 0.242-0.931 0.824-1.771 1.616-2.319 0.765-0.535 1.545-0.725 2.465-0.744z"></path>
</svg>
