<!-- Generated by IcoMoon.io -->
<svg version="1.1" xmlns="http://www.w3.org/2000/svg" width="25" height="32" viewBox="0 0 25 32">
<title>polis-akros</title>
<path fill="#444" d="M5.542 1.795c4.522-0.003 9.043 0.003 13.564-0.003-0.006 1.441 0.003 2.882-0.005 4.323 1.966 0.006 3.932 0.003 5.898 0.002-0.003 8.030 0.003 16.059-0.002 24.089-0.917-0.001-1.834-0.003-2.751 0.001-0.103 0.006-0.201-0.010-0.297-0.047 0.019-0.434-0.022-0.867-0.033-1.3l-0.031-0.040c-0.145-1.943-0.62-3.861-1.356-5.663-0.024-0.069-0.047-0.138-0.068-0.207-0.242-0.507-0.445-1.035-0.726-1.522-0.153-0.301-0.301-0.606-0.491-0.887-0.498-0.886-1.092-1.716-1.729-2.507-0.247-0.326-0.538-0.614-0.792-0.934-0.311-0.27-0.538-0.618-0.857-0.881-0.272-0.316-0.632-0.528-0.912-0.834-0.287-0.22-0.559-0.459-0.843-0.682-0.167-0.105-0.316-0.234-0.477-0.347-0.59-0.415-1.185-0.824-1.815-1.178-0.488-0.294-1.001-0.538-1.506-0.8-0.078-0.031-0.154-0.065-0.231-0.097-0.694-0.329-1.411-0.604-2.135-0.86-0.235-0.060-0.466-0.133-0.695-0.214-0.438-0.121-0.875-0.243-1.319-0.342-0.463-0.103-0.926-0.201-1.396-0.264-0.16-0.033-0.325-0.045-0.484-0.083-1.343-0.175-2.699-0.217-4.052-0.164 0-1.412 0.002-2.823-0.001-4.234 1.85-0.003 3.698 0.001 5.548-0.002-0.009-1.44 0.002-2.881-0.006-4.322zM0 13.266c0.004 5.646 0 11.293 0.001 16.939 6.166 0.002 12.332-0.001 18.497 0.001 0.171-0.010 0.359 0.036 0.514-0.058-0.033-0.1-0.049-0.201-0.051-0.306-0.015-0.893-0.147-1.781-0.311-2.658l-0.026-0.041c-0.118-0.725-0.336-1.432-0.576-2.126-0.933-2.719-2.578-5.177-4.697-7.114-0.491-0.392-0.931-0.852-1.47-1.183-0.734-0.554-1.527-1.026-2.34-1.455-0.185-0.101-0.371-0.203-0.568-0.28-0.154-0.089-0.327-0.137-0.477-0.231-0.925-0.392-1.881-0.705-2.849-0.973-0.937-0.22-1.888-0.386-2.846-0.482-0.355-0.042-0.714-0.025-1.069-0.056-0.577-0.064-1.156 0.004-1.734 0.024z"></path>
</svg>
