<!-- Generated by IcoMoon.io -->
<svg version="1.1" xmlns="http://www.w3.org/2000/svg" width="32" height="32" viewBox="0 0 32 32">
<title>polis-setessa</title>
<path fill="#444" d="M15.549 9.916c0.314-0.025 0.631-0.026 0.944 0.004 1.079 0.131 2.041 0.905 2.423 1.92 0.195 0.486 0.233 1.023 0.172 1.54-0.131 0.957-0.755 1.826-1.613 2.265-0.866 0.444-1.935 0.461-2.82 0.061-0.791-0.355-1.405-1.074-1.643-1.907-0.238-0.781-0.133-1.653 0.269-2.361 0.454-0.831 1.326-1.419 2.269-1.521zM7.698 15.151c0.658 4.112 4.086 7.202 8.261 7.315 4.117-0.032 7.714-3.214 8.312-7.276 0.079 0.685 0.059 0.372 0.076 0.938 0 4.054-3.734 7.507-8.354 7.507s-8.374-3.453-8.374-7.507c0.017-0.579-0.004-0.253 0.080-0.976zM3.827 2.848c-0.125 0.003-0.251 0-0.376 0.009-0.257 0.019-0.343 0.040-0.563 0.082-0.502 0.107-0.971 0.245-1.4 0.515-0.46 0.29-0.869 0.663-1.142 1.127-0.164 0.28-0.33 0.64-0.34 0.972-0.011 0.402-0.025 0.817 0.103 1.204 0.097 0.369 0.442 0.61 0.778 0.744 0.296 0.059 0.61 0.055 0.904-0.013 0.474-0.129 0.685-0.687 0.609-1.136-0.042-0.334-0.314-0.592-0.331-0.933-0.050-0.488 0.319-0.952 0.785-1.067 0.553-0.128 1.16-0.141 1.68 0.115 0.821 0.376 1.367 1.163 1.702 1.976 0.491 1.236 0.587 2.638 0.204 3.916-0.141 0.49-0.396 0.935-0.583 1.407-1.193 2.875-1.374 6.171-0.409 9.138 0.705 2.23 2.054 4.259 3.872 5.736 1.734 1.425 3.906 2.317 6.145 2.496 1.248 0.085 2.498-0.151 3.681-0.535 1.386-0.468 2.677-1.21 3.787-2.162 1.75-1.517 3.045-3.548 3.701-5.767 0.943-3.124 0.642-6.584-0.757-9.525-0.341-0.701-0.534-1.475-0.53-2.256-0.042-1.188 0.255-2.407 0.938-3.39 0.377-0.544 0.916-0.995 1.563-1.17 0.405-0.109 0.833-0.070 1.24 0.005 0.48 0.087 0.869 0.538 0.867 1.027-0.011 0.302-0.209 0.546-0.303 0.822-0.081 0.386-0.053 0.849 0.256 1.134 0.262 0.236 0.639 0.227 0.969 0.217 0.34-0.002 0.629-0.224 0.859-0.453 0.258-0.365 0.262-0.836 0.264-1.266 0.005-0.286-0.019-0.58-0.151-0.84-0.297-0.615-0.74-1.187-1.352-1.513-0.464-0.245-0.956-0.454-1.476-0.541-0.535-0.095-1.076-0.013-1.614-0.004-1.104 0.101-2.004 0.869-2.668 1.704-0.455 0.597-0.929 1.226-1.076 1.98-0.145 0.776-0.23 1.563-0.283 2.35-0.019 1.102 0.308 2.171 0.395 3.264 0.042 0.867-0.005 1.746-0.267 2.578-0.282 0.842-0.601 1.673-0.984 2.474-0.412 0.835-1.102 1.498-1.85 2.037-1.3 0.94-2.877 1.494-4.48 1.565-1.882 0.031-3.744-0.667-5.213-1.829-0.613-0.488-1.156-1.082-1.5-1.791-0.288-0.616-0.549-1.244-0.778-1.884-0.468-1.175-0.607-2.478-0.4-3.725 0.132-0.982 0.386-1.958 0.312-2.955-0.061-0.717-0.138-1.433-0.281-2.139-0.132-0.627-0.502-1.162-0.872-1.671-0.462-0.62-1.004-1.2-1.681-1.585-0.406-0.224-0.878-0.329-1.339-0.391-0.346-0.041-0.142-0.021-0.613-0.051z"></path>
</svg>
