<!-- Generated by IcoMoon.io -->
<svg version="1.1" xmlns="http://www.w3.org/2000/svg" width="18" height="32" viewBox="0 0 18 32">
<title>power</title>
<path fill="#444" d="M8.81 31.657c-0.084-0.189-0.467-1.019-0.851-1.845s-1.035-2.231-1.446-3.121l-0.748-1.619-0.52-6.703c-0.286-3.686-0.52-6.742-0.52-6.791 0-0.072-0.262-0.089-1.391-0.089h-1.391l-0.944 1.055-0.998 1.1v-3.854l1.049-1.081 1.030-1.055 2.324-0.010c1.278-0.005 2.339-0.024 2.357-0.043s-0.025-0.319-0.097-0.67c-0.102-0.503-0.13-0.904-0.132-1.91-0.002-1.305 0.028-1.51 0.381-2.596 0.045-0.138 0.029-0.147-0.254-0.147h-0.302v-1.829h0.581c0.447 0 0.589-0.022 0.617-0.095 0.079-0.206 0.451-0.315 1.184-0.347 0.905-0.039 1.451 0.053 1.648 0.277 0.133 0.151 0.188 0.164 0.702 0.164h0.558v1.829h-0.586l0.127 0.321c0.070 0.177 0.175 0.581 0.235 0.898 0.143 0.759 0.097 2.578-0.087 3.468l-0.125 0.604h4.654l1.088 1.095 1.108 1.134v1.815c0 1.015 0 1.785 0 1.886 0 0.031-0.55-0.492-1.062-1.031l-0.93-0.98h-1.394c-1.072 0-1.394 0.019-1.394 0.082 0 0.045-0.222 3.095-0.493 6.777l-0.494 6.695-0.59 1.274c-0.324 0.701-1.047 2.266-1.606 3.478s-1.044 2.205-1.076 2.205c-0.033 0-0.129-0.154-0.213-0.343zM9.81 25.607l0.723-1.592 0.167-2.523c0.092-1.388 0.21-3.168 0.262-3.957s0.083-1.445 0.070-1.459c-0.014-0.014-0.459 0.374-0.991 0.862s-0.991 0.887-1.022 0.887c-0.031 0-0.429-0.343-0.885-0.763s-0.899-0.824-0.985-0.898l-0.156-0.135 0.044 0.719c0.024 0.395 0.143 2.203 0.263 4.017l0.218 3.299 0.742 1.611c0.408 0.886 0.761 1.591 0.784 1.568s0.367-0.759 0.765-1.635zM10.015 14.506l0.947-0.833 0.018-0.798 0.018-0.798h-3.989v1.539l0.991 0.863c0.545 0.475 1.008 0.863 1.029 0.861s0.464-0.377 0.985-0.835zM2.338 10.253l0.324-0.332h4.479v0.719h3.658v-0.719h4.603l1.341 1.337v-1.106l-1.337-1.341h-2.696c-2.609 0-2.7 0.004-2.826 0.131-0.115 0.115-0.218 0.131-0.872 0.131-0.658 0-0.754-0.015-0.859-0.131-0.115-0.127-0.201-0.131-2.813-0.131h-2.695l-1.383 1.32v1.11l0.376-0.328c0.207-0.18 0.521-0.477 0.7-0.66zM9.855 7.279c0.204-0.204 0.204-0.455 0-0.659-0.149-0.149-0.207-0.16-0.808-0.16-0.556 0-0.672 0.019-0.819 0.135-0.125 0.098-0.172 0.196-0.172 0.355s0.047 0.256 0.172 0.354c0.148 0.116 0.264 0.135 0.819 0.135 0.6 0 0.659-0.012 0.808-0.16zM9.749 5.384c0.312-0.161 0.357-0.472 0.106-0.724-0.15-0.15-0.205-0.16-0.847-0.16-0.622 0-0.699 0.013-0.819 0.143-0.242 0.26-0.143 0.667 0.193 0.79 0.217 0.080 1.185 0.045 1.367-0.049zM9.88 3.413c0.075-0.095 0.135-0.223 0.135-0.285s-0.061-0.191-0.135-0.285c-0.132-0.168-0.153-0.172-0.878-0.172-0.693 0-0.749 0.010-0.844 0.145-0.056 0.080-0.102 0.22-0.102 0.312s0.046 0.232 0.102 0.312c0.095 0.136 0.151 0.145 0.844 0.145 0.725 0 0.746-0.004 0.878-0.172zM8.185 1.514c0.11-0.077 0.333-0.12 0.729-0.138 0.483-0.023 0.614-0.006 0.856 0.111 0.179 0.086 0.413 0.138 0.625 0.138h0.339v-0.588h-3.462v0.25c0 0.138 0.020 0.27 0.043 0.294 0.091 0.091 0.712 0.043 0.87-0.068z"></path>
</svg>
