<!-- Generated by IcoMoon.io -->
<svg version="1.1" xmlns="http://www.w3.org/2000/svg" width="32" height="32" viewBox="0 0 32 32">
<title>r</title>
<path fill="#444" d="M30.857 22.306c-1.393 3.322-4.16 4.983-8.304 4.983-0.759 0-1.583 0.095-2.468 0.284-1.329 0.285-1.993 0.681-1.993 1.188 0 0.158 0.11 0.339 0.332 0.545 0.221 0.206 0.412 0.308 0.569 0.308-0.791 0-0.253 0.024 1.613 0.071s3.038 0.071 3.512 0.071c-2.752 1.613-7.356 2.356-13.81 2.23-2.12-0.031-3.939-0.965-5.457-2.8-1.488-1.741-2.231-3.686-2.231-5.837 0-2.277 0.767-4.216 2.302-5.814 1.533-1.596 3.441-2.396 5.718-2.396 0.506 0 1.178 0.111 2.017 0.332s1.4 0.332 1.684 0.332c1.17 0 2.626-0.482 4.367-1.448s2.563-1.448 2.468-1.448c-0.317 3.322-1.424 5.553-3.323 6.691-1.36 0.791-2.040 1.566-2.040 2.325 0 0.475 0.285 0.855 0.854 1.14 0.443 0.222 0.933 0.333 1.471 0.333 0.823 0 1.63-0.506 2.421-1.518 0.79-1.013 1.139-1.93 1.044-2.753-0.095-0.949-0.031-2.089 0.19-3.416 0.063-0.38 0.292-0.846 0.687-1.399s0.752-0.894 1.068-1.021c0 0.284-0.103 0.759-0.309 1.423s-0.308 1.156-0.308 1.471c0 0.696 0.189 1.234 0.569 1.613 0.569-0.221 1.075-0.933 1.519-2.136 0.379-0.917 0.6-1.803 0.664-2.657-1.329-0.063-2.603-0.664-3.82-1.804s-1.827-2.373-1.827-3.701c0-0.221 0.031-0.443 0.095-0.665 0.189 0.285 0.474 0.728 0.853 1.329 0.538 0.791 0.95 1.186 1.235 1.186 0.379 0 0.569-0.396 0.569-1.186 0-1.012-0.27-1.93-0.807-2.752-0.601-0.981-1.377-1.471-2.326-1.471-0.443 0-1.108 0.238-1.992 0.712-0.887 0.474-1.694 0.712-2.42 0.712-0.222 0-1.204-0.286-2.943-0.855 3.068-0.505 4.603-0.964 4.603-1.376 0-1.075-2.104-1.804-6.311-2.183-0.412-0.031-1.171-0.095-2.278-0.19 0.126-0.158 1.028-0.332 2.706-0.522 1.423-0.157 2.42-0.237 2.989-0.237 7.529 0 12.307 3.655 14.332 10.963 0.348-0.288 0.523-0.77 0.523-1.443 0-0.866-0.253-1.957-0.759-3.272-0.191-0.513-0.491-1.283-0.902-2.309 2.594 3.306 3.892 6.438 3.892 9.394 0 1.558-0.365 2.972-1.092 4.243-0.474 0.859-1.361 1.955-2.657 3.29-1.297 1.335-2.183 2.368-2.658 3.099 1.74-0.474 2.88-0.838 3.418-1.092 1.201-0.537 2.293-1.344 3.274-2.42 0 0.412-0.174 1.030-0.522 1.852zM10.166 3.656c0 0.569-0.317 0.933-0.949 1.091l-1.234 0.19c-0.443 0.221-1.092 1.092-1.946 2.61-0.095-0.474-0.237-1.138-0.427-1.993-0.285 0.032-0.759 0.285-1.423 0.759-0.285 0.221-0.744 0.553-1.377 0.996 0.191-1.139 0.823-2.292 1.899-3.464 1.139-1.296 2.246-1.945 3.322-1.945 1.423 0 2.135 0.586 2.135 1.756zM18.424 8.022c0 0.538-0.293 0.989-0.878 1.353s-1.163 0.546-1.732 0.546c-0.759 0-1.44-0.427-2.040-1.282-0.729-1.044-1.472-1.724-2.231-2.042 0.158-0.157 0.348-0.237 0.57-0.237 0.285 0 0.766 0.221 1.447 0.664s1.115 0.665 1.306 0.665c0.158 0 0.419-0.221 0.783-0.665s0.767-0.664 1.21-0.664c1.044 0 1.566 0.554 1.566 1.661z"></path>
</svg>
