<!-- Generated by IcoMoon.io -->
<svg version="1.1" xmlns="http://www.w3.org/2000/svg" width="32" height="32" viewBox="0 0 32 32">
<title>rarity</title>
<path fill="#444" d="M17.851 17.908c1.479-2.914 4.54-4.699 7.621-5.484 0.203 3.385 0.257 7.017-1.451 10.065-1.536 2.734-4.524 4.221-7.467 4.936-0.149-3.213-0.015-6.531 1.296-9.517zM15.89 2.238c-0.031 0.098-0.041 0.201-0.054 0.302-0.049 0.456-0.071 0.915-0.099 1.373-0.059 1.034-0.117 2.069-0.208 3.1-0.054 0.605-0.118 1.21-0.208 1.81-0.082 0.537-0.179 1.074-0.344 1.592-0.22 0.015-0.44 0.035-0.66 0.055-0.079-0.223-0.123-0.457-0.168-0.69-0.099-0.55-0.167-1.105-0.231-1.661-0.134-1.168-0.231-2.34-0.341-3.51-0.018-0.174-0.033-0.348-0.060-0.52-0.026 0.075-0.032 0.155-0.044 0.234-0.032 0.247-0.057 0.495-0.082 0.743-0.139 1.378-0.264 2.759-0.478 4.128-0.053 0.332-0.112 0.662-0.186 0.99-0.049 0.211-0.104 0.421-0.18 0.625-0.204 0.063-0.408 0.131-0.605 0.216-0.092-0.214-0.155-0.439-0.213-0.664-0.129-0.518-0.213-1.045-0.288-1.573-0.094-0.659-0.161-1.32-0.251-1.979-0.026-0.17-0.046-0.343-0.097-0.507-0.003-0.001-0.010-0.002-0.013-0.002-0.024 0.081-0.035 0.165-0.048 0.248-0.063 0.456-0.105 0.914-0.15 1.372-0.131 1.409-0.244 2.821-0.351 4.232 0.775 0.294 1.494 0.733 2.119 1.277 0.843 0.733 1.516 1.653 2.005 2.655 0.428 0.874 0.702 1.816 0.883 2.77 0.11 0.583 0.182 1.173 0.233 1.764 0.020 0.219 0.034 0.439 0.060 0.658 0.011 0.068 0.013 0.141 0.052 0.2h0.021c0.042-0.080 0.045-0.173 0.057-0.261 0.034-0.33 0.055-0.661 0.090-0.99 0.109-1.073 0.311-2.142 0.67-3.162 0.285-0.81 0.682-1.581 1.184-2.279 0.481-0.669 1.062-1.268 1.729-1.753 0.498-0.362 1.044-0.661 1.62-0.879-0.075-1.014-0.158-2.027-0.244-3.040-0.006-0.059-0.012-0.118-0.011-0.177-0.001 0.005-0.004 0.014-0.005 0.019-0.031-0.421-0.073-0.84-0.113-1.26-0.039-0.387-0.076-0.774-0.13-1.159-0.014-0.084-0.023-0.17-0.053-0.25-0.061 0.188-0.081 0.385-0.111 0.58-0.112 0.852-0.197 1.708-0.34 2.556-0.067 0.393-0.143 0.785-0.253 1.169-0.044 0.148-0.090 0.295-0.152 0.436-0.197-0.084-0.4-0.153-0.604-0.215-0.122-0.326-0.194-0.668-0.261-1.008-0.1-0.521-0.175-1.047-0.243-1.573-0.148-1.146-0.252-2.297-0.37-3.447-0.019-0.173-0.037-0.346-0.061-0.518-0.009-0.057-0.014-0.115-0.035-0.17-0.042 0.251-0.058 0.506-0.084 0.76-0.113 1.229-0.218 2.46-0.367 3.686-0.039 0.314-0.081 0.627-0.131 0.94-0.056 0.334-0.11 0.671-0.219 0.993-0.22-0.024-0.441-0.040-0.661-0.057-0.167-0.526-0.264-1.070-0.347-1.615-0.169-1.154-0.254-2.318-0.33-3.481-0.045-0.711-0.081-1.423-0.127-2.134-0.020-0.267-0.036-0.535-0.075-0.8-0.010-0.050-0.013-0.103-0.038-0.148zM14.035 17.984c1.312 2.986 1.445 6.304 1.296 9.517-2.942-0.715-5.931-2.202-7.467-4.936-1.708-3.048-1.654-6.68-1.451-10.065 3.081 0.784 6.142 2.57 7.621 5.484zM5.833 19.462c0.023 0.162 0.078 0.507 0.128 0.684 0.26 0.92 0.603 1.804 1.027 2.666 1.343 2.863 4.187 4.838 7.212 5.553-1.271 0.53-1.84 0.622-3.195 0.6-1.848-0.029-4.269-0.87-5.643-1.933-2.459-1.865-3.951-4.62-5.363-7.292 1.898-0.571 3.914-0.888 5.833-0.279zM26.167 19.462c-0.023 0.162-0.078 0.507-0.128 0.684-0.26 0.92-0.603 1.804-1.027 2.666-1.343 2.863-4.187 4.838-7.212 5.553 1.271 0.53 1.84 0.622 3.195 0.6 1.848-0.029 4.27-0.87 5.643-1.933 2.459-1.865 3.951-4.62 5.363-7.292-1.898-0.571-3.915-0.888-5.833-0.279z"></path>
</svg>
