<!-- Generated by IcoMoon.io -->
<svg version="1.1" xmlns="http://www.w3.org/2000/svg" width="32" height="32" viewBox="0 0 32 32">
<title>s</title>
<path fill="#444" d="M16 0.382l3.132 4.41 0.752-1.303 1.386-0.016 2.717-1.308 0.226 3.007 0.679 1.208-0.752 1.304 5.385 0.507-2.254 4.917h1.505l0.707 1.192 2.491 1.699-2.491 1.699-0.707 1.192h-1.505l2.254 4.917-5.385 0.507 0.752 1.303-0.679 1.21-0.226 3.007-2.717-1.308-1.386-0.016-0.752-1.304-3.132 4.41-3.132-4.41-0.752 1.304-1.386 0.017-2.717 1.308-0.226-3.008-0.679-1.209 0.752-1.303-5.385-0.507 2.254-4.917h-1.505l-0.707-1.192-2.491-1.699 2.491-1.699 0.707-1.192h1.505l-2.254-4.917 5.386-0.507-0.752-1.304 0.679-1.208 0.226-3.007 2.717 1.308 1.386 0.016 0.752 1.303 3.132-4.41zM16 20.894l-2.253 3.926 2.253 3.926 2.252-3.926-2.252-3.926zM10.055 4.408l-1.12 0.647v1.293l1.12 0.647 4.32 8.067-9.147 0.292-1.12-0.646-1.119 0.646v1.293l1.119 0.647 1.12-0.647 9.147 0.292-4.321 8.067-1.12 0.646-0 1.293 1.12 0.646 1.12-0.646v-1.293l4.826-7.775 4.826 7.775v1.293l1.119 0.646 1.12-0.647v-1.293l-1.12-0.647-4.32-8.067 9.147-0.292 1.12 0.647 1.12-0.646v-1.294l-1.12-0.646-1.12 0.646-9.147-0.292 4.321-8.067 1.12-0.647v-1.293l-1.12-0.647-1.119 0.646-0.001 1.293-4.826 7.775-4.826-7.775-0-1.293-1.119-0.646zM20.239 18.448l2.274 3.914 4.526 0.012-2.274-3.913-4.526-0.012zM11.761 18.447l-4.526 0.012-2.274 3.914 4.526-0.012 2.274-3.914zM27.039 9.627l-4.526 0.012-2.274 3.914 4.527-0.012 2.273-3.914zM4.961 9.627l2.274 3.913 4.526 0.012-2.274-3.914-4.526-0.012zM16 3.253l-2.252 3.926 2.252 3.926 2.252-3.926-2.252-3.926z"></path>
</svg>
