<!-- Generated by IcoMoon.io -->
<svg version="1.1" xmlns="http://www.w3.org/2000/svg" width="32" height="32" viewBox="0 0 32 32">
<title>scheme</title>
<path fill="#444" d="M15.999 32l-8.95-9.158 0.95-1.191-5.472-5.055c0-9.933 9.055-14.811 9.055-14.811s-4.016 5.624-4.016 12.402c0 6.781 2.591 7.719 3.881 7.719 1.297 0 2.277-0.848 2.277-2.277 0-2.498-3.078-2.498-3.078-2.498l5.356-17.131 5.352 17.131c0 0-3.078 0-3.078 2.498 0 1.429 0.98 2.277 2.273 2.277s3.881-0.938 3.881-7.719c0-6.778-4.013-12.402-4.013-12.402s9.055 4.878 9.055 14.811l-5.472 5.055 0.95 1.191-8.952 9.158z"></path>
</svg>
