<!-- Generated by IcoMoon.io -->
<svg version="1.1" xmlns="http://www.w3.org/2000/svg" width="29" height="32" viewBox="0 0 29 32">
<title>school-prismari</title>
<path fill="#444" d="M19.114 0.967c1.715 0.522 3.195 1.746 4.071 3.304 1.023 1.795 1.201 3.934 1.007 5.955-0.668 0.796-1.589 1.329-2.498 1.808-1.404 0.707-2.904 1.207-4.425 1.59 1.8 0.237 3.659 0.188 5.411-0.317 0.808-0.236 1.585-0.589 2.277-1.071 0.057 1.009-0.138 2.059-0.68 2.922 1.171 0.054 2.347 0.146 3.495 0.403 0.581 0.135 1.171 0.303 1.669 0.644-1.060 0.349-1.946 1.092-2.649 1.94-0.731 0.884-1.286 1.902-1.712 2.964 1.324 0.422 2.663 1.045 3.552 2.152-1.239 0.644-2.398 1.441-3.464 2.341-1.427 1.216-2.69 2.662-3.504 4.363-0.897-1.273-2.224-2.262-3.733-2.676-1.329-0.372-2.765-0.269-4.060 0.186-1.739 0.604-3.144 1.957-4.018 3.556-3.202-0.711-6.112-2.706-7.893-5.466-0.981-1.51-1.608-3.227-1.96-4.987 0.723 0.94 1.604 1.765 2.632 2.363 1.515 0.91 3.343 1.303 5.095 1.056 1.799-0.312 3.259-1.532 4.511-2.788 1.109-1.064 2.080-2.29 3.355-3.167-0.408-1.236-1.433-2.251-2.688-2.611-1.131-0.362-2.419-0.135-3.364 0.58 0.707 0.323 1.369 0.852 1.654 1.596 0.298 0.756 0.114 1.639-0.363 2.279-0.585 0.828-1.609 1.258-2.605 1.26-0.604-0.015-1.227-0.096-1.768-0.382-0.844-0.45-1.424-1.287-1.728-2.177-0.526-1.539-0.319-3.275 0.426-4.707 0.703-1.35 1.915-2.361 3.226-3.094 1.375-0.765 2.881-1.283 4.418-1.604 1.318-0.244 2.639-0.539 3.874-1.073 0.925-0.399 1.854-0.97 2.329-1.895 0.566-1.12 0.791-2.4 0.718-3.648-0.051-0.573-0.185-1.182-0.608-1.602zM21.106 16.832c-2.67 0.828-5.084 2.46-6.873 4.606 1.25-0.64 2.596-1.102 3.993-1.281 1.943-0.252 3.951-0.071 5.807 0.568 0.384-1.667 1.279-3.206 2.523-4.379-1.824-0.213-3.693-0.054-5.45 0.486zM12.887 23.107c-1.526 0.713-2.983 1.626-4.642 2.006-1.331 0.315-2.784 0.345-4.055-0.215 1.709 1.122 3.805 1.534 5.826 1.439 1.821-0.050 3.612-0.41 5.407-0.688 2.25-0.316 4.65 0.5 6.166 2.207 0.427-1 1.073-1.893 1.829-2.67 0.914-0.925 1.967-1.712 3.108-2.335-2.636-1.077-5.516-1.724-8.372-1.39-1.842 0.206-3.607 0.843-5.267 1.645zM4.733 27.177c1.294 1.139 2.832 1.979 4.449 2.564 0.72-1.036 1.67-1.948 2.848-2.437-2.961 0.514-6.116-0.056-8.681-1.635 0.386 0.565 0.877 1.051 1.384 1.507z"></path>
</svg>
