<!-- Generated by IcoMoon.io -->
<svg version="1.1" xmlns="http://www.w3.org/2000/svg" width="29" height="32" viewBox="0 0 29 32">
<title>school-witherbloom</title>
<path fill="#444" d="M8.682 2.611c3.77-1.695 8.252-1.68 12.018 0.018 0.167 1.035-0.096 2.16-0.813 2.943-0.733 0.809-1.799 1.216-2.848 1.422 0.488-0.391 0.921-0.886 1.097-1.498 0.128-0.487 0.246-1.003 0.13-1.505-0.091-0.423-0.419-0.753-0.798-0.938-0.688-0.336-1.466-0.407-2.219-0.441-0.881-0.019-1.774-0.019-2.636 0.187-0.56 0.138-1.161 0.405-1.421 0.955-0.228 0.536-0.102 1.134 0.034 1.676 0.164 0.64 0.61 1.161 1.119 1.563-1.093-0.212-2.212-0.646-2.94-1.525-0.655-0.782-0.888-1.862-0.722-2.858zM12.655 3.774c-0.224 0.073-0.481 0.16-0.601 0.379-0.081 0.297-0.011 0.607 0.042 0.904 0.063 0.264 0.093 0.577 0.336 0.747 0.398 0.31 0.905 0.664 0.881 1.232-0.024 2.532-0.113 5.065-0.161 7.597 0.554-0.565 0.811-1.339 1.010-2.087 0.328-1.288 0.429-2.617 0.518-3.938 0.144 1.485 0.216 2.996 0.677 4.427 0.182 0.583 0.437 1.161 0.874 1.6-0.058-2.252-0.114-4.504-0.159-6.756-0.006-0.355-0.033-0.714 0.011-1.067 0.102-0.471 0.537-0.737 0.879-1.025 0.212-0.154 0.247-0.429 0.306-0.666 0.059-0.313 0.136-0.641 0.058-0.957-0.097-0.199-0.321-0.288-0.517-0.36-0.701-0.225-1.448-0.245-2.178-0.24-0.663-0.005-1.337 0.028-1.978 0.21zM13.545 16.593c0.079 0.485 0.363 0.899 0.579 1.331-0.227-0.067-0.447-0.157-0.651-0.276-0.747 0.706-1.453 1.453-2.151 2.208-1.075 1.186-2.215 2.355-2.914 3.815-0.29 0.62-0.542 1.316-0.394 2.008 0.161 0.775 0.626 1.452 1.179 2.003 1.046 1.015 2.455 1.576 3.878 1.802-0.659-0.549-1.257-1.184-1.684-1.932-0.593-0.99-0.844-2.202-0.588-3.337 0.303-1.392 1.171-2.579 2.123-3.605 0.944-0.975 1.885-1.974 2.58-3.149 0.194-0.37 0.423-0.788 0.302-1.219-0.134-0.535-0.699-0.896-1.241-0.824-0.579 0.044-1.067 0.59-1.016 1.174zM14.668 20.218c-0.719 0.839-1.436 1.729-1.79 2.792-0.206 0.711-0.336 1.471-0.189 2.207 0.125 0.64 0.529 1.21 1.074 1.563 0.455 0.289 1.048 0.329 1.544 0.124 0.718-0.291 1.24-0.983 1.363-1.744 0.147-0.892-0.063-1.802-0.405-2.627 0.877 0.747 1.654 1.652 2.088 2.731 0.102 0.277 0.232 0.575 0.14 0.873-0.322 1.353-1.217 2.497-2.279 3.364 0.735-0.119 1.462-0.308 2.145-0.61 1.058-0.466 2.029-1.206 2.617-2.216 0.346-0.591 0.549-1.307 0.364-1.986-0.28-1.119-0.947-2.094-1.647-2.992-1.075-1.255-2.197-2.471-3.361-3.644-0.471 0.782-1.045 1.495-1.664 2.165zM19.033 19.4c1.445 0.878 2.914 1.729 4.484 2.368 1.359 0.543 2.809 1.023 4.291 0.89-1.32 2.635-3.458 4.851-6.038 6.273-1.678 0.92-3.535 1.531-5.441 1.722 0.979-0.215 1.956-0.484 2.845-0.96 1.182-0.604 2.266-1.485 2.919-2.658 0.452-0.803 0.649-1.784 0.381-2.681-0.323-1.129-0.997-2.115-1.709-3.033-0.531-0.681-1.131-1.303-1.731-1.922zM4.176 22.357c2.208-0.63 4.222-1.775 6.174-2.957-1.071 1.089-2.11 2.237-2.859 3.578-0.471 0.844-0.847 1.819-0.657 2.8 0.254 1.398 1.257 2.536 2.392 3.329 1.165 0.799 2.52 1.337 3.922 1.524-0.503 0.031-0.996-0.095-1.488-0.183-3.469-0.704-6.641-2.733-8.759-5.567-0.526-0.701-0.989-1.448-1.384-2.23 0.896 0.102 1.797-0.053 2.659-0.294zM17.185 15.176c1.138 0.76 2.363 1.389 3.64 1.88 1.444 0.522 2.97 0.826 4.505 0.883 1.359 0.041 2.745-0.133 3.993-0.695-0.086 1.058-0.279 2.109-0.596 3.122-1.289 0.195-2.619 0.218-3.892-0.092-1.45-0.355-2.81-0.988-4.138-1.654-1.228-0.626-2.399-1.369-3.464-2.244-0.041-0.399-0.016-0.801-0.047-1.2zM6.157 17.704c2.167-0.38 4.203-1.316 6.029-2.525-0.021 0.399 0 0.799-0.031 1.198-1.766 1.44-3.806 2.504-5.911 3.354-1.33 0.53-2.758 0.857-4.196 0.768-0.488-0.014-0.973-0.068-1.453-0.15-0.303-1.017-0.512-2.065-0.587-3.124 1.921 0.863 4.112 0.85 6.15 0.478zM22.502 13.778c2.218-0.017 4.416-0.731 6.248-1.975 0.312 1.022 0.501 2.079 0.583 3.144-1.715 0.643-3.555 0.959-5.385 0.902-2.437-0.076-4.798-0.975-6.791-2.353 0.002-0.374-0.015-0.749-0.033-1.122 1.659 0.857 3.506 1.381 5.378 1.405zM0.586 11.778c1.833 1.249 4.028 1.974 6.25 2 1.885-0.016 3.745-0.542 5.414-1.404-0.011 0.369-0.001 0.742-0.034 1.11-1.36 0.975-2.919 1.677-4.546 2.065-2.541 0.597-5.236 0.283-7.669-0.614 0.079-1.070 0.276-2.131 0.586-3.158zM26.019 6.768c0.060 0.007 0.103 0.051 0.139 0.096 0.685 0.847 1.255 1.78 1.747 2.751-2.052 1.79-4.874 2.683-7.58 2.333-1.113-0.142-2.201-0.458-3.228-0.908-0.013-0.322-0.004-0.643-0.018-0.964 1.491 0.364 3.072 0.465 4.572 0.095 1.536-0.411 2.957-1.309 3.908-2.593 0.173-0.257 0.39-0.5 0.459-0.809zM1.446 9.595c0.496-1.025 1.117-1.988 1.839-2.868 0.731 1.4 1.989 2.501 3.445 3.097 1.752 0.768 3.755 0.691 5.582 0.251-0.031 0.319-0.028 0.64-0.024 0.961-1.936 0.851-4.128 1.245-6.22 0.808-1.705-0.317-3.314-1.112-4.622-2.249zM22.453 3.567c0.797 0.495 1.545 1.069 2.229 1.711-0.732 1.255-1.807 2.316-3.094 2.995-1.392 0.702-3.023 0.781-4.533 0.486-0.014-0.274-0.030-0.547-0.027-0.821 1.255-0.045 2.566-0.323 3.565-1.129 0.964-0.827 1.636-1.99 1.861-3.242zM4.683 5.236c0.65 1.176 1.635 2.158 2.78 2.855 1.448 0.869 3.231 0.984 4.86 0.67 0.015-0.275 0.018-0.55 0.017-0.826-1.277-0.043-2.617-0.336-3.616-1.179-0.93-0.837-1.603-1.981-1.796-3.225-0.799 0.497-1.546 1.074-2.244 1.704z"></path>
</svg>
