<!-- Generated by IcoMoon.io -->
<svg version="1.1" xmlns="http://www.w3.org/2000/svg" width="25" height="32" viewBox="0 0 25 32">
<title>school-quandrix</title>
<path fill="#444" d="M20.399 6.038c2.107 1.615 3.683 3.913 4.422 6.463 0.903 3.042 0.605 6.426-0.836 9.255-1.028 2.055-2.632 3.809-4.572 5.037 0.821 1.293 1.651 2.578 2.472 3.871l-18.438-0.001c3.114-4.831 6.142-9.715 9.223-14.566 0.954 1.534 1.911 3.065 2.847 4.61 0.759-0.468 1.421-1.117 1.84-1.91 0.58-0.924 0.824-2.042 0.746-3.125-0.092-1.202-0.596-2.36-1.394-3.261 1.227-2.126 2.464-4.246 3.69-6.373zM12.664 25.355c-1.255 0.806-2.721 1.229-4.196 1.374 2.67 1.068 5.753 1.065 8.421-0.007-1.489-0.12-2.958-0.569-4.225-1.367zM20.016 21.026c-1.127 0.46-2.357 0.602-3.565 0.523-0.308 0.188-0.625 0.368-0.918 0.577-0.516 1.063-1.26 2.016-2.188 2.75 1.523 0.884 3.326 1.213 5.073 1.080 0.989-1.443 1.603-3.17 1.598-4.93zM10.045 22.582c-0.723 1.133-1.451 2.261-2.169 3.396 1.434-0.023 2.87-0.385 4.115-1.105-0.788-0.629-1.46-1.406-1.945-2.291zM24.002 17.778c-0.828 1.202-1.935 2.215-3.226 2.901 0.057 1.491-0.299 2.977-0.929 4.323 2.221-1.779 3.744-4.406 4.155-7.224zM12.67 18.481c-0.722 1.117-1.43 2.244-2.155 3.361 0.485 1.028 1.24 1.92 2.153 2.593 0.913-0.671 1.669-1.562 2.149-2.592-0.714-1.121-1.437-2.238-2.147-3.361zM19.143 17.606c-0.305 1.199-0.932 2.315-1.799 3.196 0.903-0.018 1.798-0.222 2.629-0.578-0.101-0.917-0.391-1.807-0.829-2.618zM20.694 12.146c-0.184 1.222-0.654 2.403-1.391 3.397 0.020 0.314 0.026 0.628 0.008 0.942 0.741 0.983 1.194 2.163 1.384 3.374 1.528-0.881 2.715-2.279 3.471-3.861-0.766-1.575-1.945-2.974-3.473-3.853zM18.703 11.369c-0.184 0.315-0.366 0.631-0.55 0.945 0.441 0.647 0.769 1.37 0.958 2.13 0.472-0.812 0.748-1.728 0.862-2.658-0.409-0.18-0.836-0.315-1.27-0.417zM20.716 7.896c-0.106 0.183-0.213 0.366-0.318 0.548 0.28 0.934 0.409 1.911 0.379 2.885 1.281 0.672 2.357 1.686 3.202 2.852-0.398-2.369-1.551-4.599-3.263-6.285zM19.858 9.388c-0.262 0.426-0.503 0.865-0.758 1.295 0.309 0.086 0.616 0.183 0.916 0.298 0.002-0.535-0.059-1.068-0.158-1.593zM12.644 4.48l0.289 0.004c1.389 0.064 2.668 0.272 3.965 0.798-1.491 0.126-2.963 0.568-4.231 1.37-1.269-0.807-2.747-1.245-4.24-1.37 0.986-0.376 2.017-0.634 3.067-0.743 0.513-0.053 0.635-0.046 1.15-0.060zM17.461 6.018c-0.713 1.143-1.452 2.27-2.172 3.409-0.481-0.89-1.165-1.658-1.947-2.295 1.247-0.723 2.685-1.068 4.118-1.114zM7.364 6.025c0.181 0.001 0.362 0.001 0.542 0 0.219 0.014 0.438 0.020 0.657 0.041 1.2 0.116 2.378 0.461 3.423 1.068-0.81 0.653-1.502 1.456-1.99 2.377-0.073 0.13-0.12 0.278-0.218 0.393-0.295 0.201-0.613 0.367-0.905 0.573-1.206-0.133-2.433 0.070-3.56 0.503 0.005-1.762 0.612-3.492 1.609-4.936 0.147-0.007 0.295-0.018 0.442-0.019zM12.663 7.573c0.917 0.669 1.668 1.565 2.156 2.591-0.722 1.117-1.428 2.244-2.156 3.358-0.715-1.119-1.428-2.239-2.146-3.355 0.479-1.030 1.235-1.919 2.146-2.594zM5.484 7.012c-0.622 1.344-0.992 2.825-0.92 4.313-1.293 0.685-2.399 1.701-3.231 2.901 0.414-2.811 1.926-5.445 4.151-7.213zM7.999 11.194c-0.412 0.433-0.801 0.896-1.073 1.431-0.344 0.545-0.576 1.152-0.73 1.776-0.446-0.807-0.736-1.701-0.831-2.619 0.831-0.364 1.73-0.546 2.634-0.588zM4.64 12.146c0.177 1.198 0.64 2.352 1.344 3.338 0.086 0.308-0.001 0.647 0.054 0.966-0.737 0.999-1.212 2.181-1.398 3.406-1.493-0.85-2.656-2.205-3.413-3.735-0.011-0.032-0.032-0.097-0.043-0.129 0.741-1.581 1.939-2.965 3.456-3.846zM6.221 17.559c0.19 0.762 0.521 1.485 0.958 2.137-0.186 0.312-0.363 0.628-0.548 0.941-0.434-0.103-0.864-0.232-1.271-0.417 0.107-0.932 0.395-1.844 0.86-2.661zM5.312 21.023c0.301 0.12 0.61 0.218 0.923 0.302-0.256 0.431-0.503 0.868-0.758 1.3-0.104-0.528-0.158-1.065-0.165-1.603zM1.363 17.824c0.828 1.181 1.922 2.181 3.198 2.858-0.045 0.974 0.105 1.949 0.372 2.885-0.104 0.181-0.209 0.361-0.314 0.542-1.714-1.68-2.88-3.913-3.257-6.284zM12.666 1.336l-9.223 0c0.825 1.293 1.653 2.586 2.48 3.878-2.873 1.798-4.969 4.791-5.653 8.113-0.503 2.39-0.302 4.926 0.59 7.201 0.828 2.138 2.252 4.045 4.073 5.439 1.232-2.123 2.461-4.249 3.696-6.37-0.966-1.082-1.495-2.547-1.404-3.997 0.112-1.736 1.104-3.391 2.587-4.303 0.945 1.544 1.896 3.085 2.859 4.619 3.065-4.865 6.113-9.741 9.218-14.579l-9.223-0.001z"></path>
</svg>
