<!-- Generated by IcoMoon.io -->
<svg version="1.1" xmlns="http://www.w3.org/2000/svg" width="30" height="32" viewBox="0 0 30 32">
<title>school-lorehold-inner</title>
<path fill="#444" d="M1.744 12.451c4.447-3.289 8.901-6.569 13.351-9.856 4.449 3.279 8.894 6.564 13.342 9.844-1.315 0.98-2.641 1.947-3.963 2.918 0.845 2.901 1.696 5.802 2.534 8.706-2.266-1.852-4.537-3.699-6.801-5.555-0.795 0.597-1.608 1.175-2.388 1.789-0.922 2.63-1.803 5.276-2.721 7.909-0.916-2.625-1.787-5.268-2.702-7.894-0.828-0.609-1.702-1.162-2.546-1.753-2.256 1.836-4.504 3.681-6.762 5.515 0.87-2.86 1.75-5.716 2.625-8.574-1.322-1.019-2.645-2.033-3.969-3.048zM6.741 10.684c0.124 2.529 1.539 5.056 3.841 6.206-1.361-1.452-2.279-3.389-2.256-5.402 0.385-0.212 0.763-0.439 1.149-0.65 0.311 1.055 0.872 2.048 1.688 2.792 1.047 0.976 2.481 1.499 3.907 1.495 1.361 0.002 2.724-0.465 3.772-1.338 0.919-0.754 1.56-1.817 1.874-2.958 0.384 0.224 0.773 0.441 1.16 0.662 0.002 2.012-0.895 3.962-2.279 5.401 2.309-1.142 3.738-3.686 3.842-6.22-1.432-1.125-2.896-2.209-4.359-3.292-0.068 0.676-0.094 1.355-0.168 2.030-0.135 1.088-0.738 2.118-1.654 2.729-0.876 0.594-1.999 0.806-3.029 0.565-1.352-0.303-2.494-1.402-2.833-2.748-0.218-0.846-0.188-1.727-0.274-2.591-1.471 1.091-2.945 2.18-4.382 3.317zM3.185 5.475c0.353 1.328 0.629 2.675 0.83 4.034 1.439-1.051 2.868-2.116 4.304-3.171-1.696-0.37-3.41-0.657-5.134-0.863zM21.876 6.337c1.431 1.057 2.858 2.119 4.296 3.166 0.211-1.355 0.48-2.702 0.833-4.028-1.722 0.206-3.435 0.49-5.129 0.862zM18.684 20.918c-0.41 1.119-0.778 2.253-1.166 3.38 1.003-0.642 2.137-1.046 3.273-1.385-0.247 0.619-0.418 1.265-0.54 1.92 1.454-0.63 2.994-1.066 4.57-1.249-1.551-1.259-3.096-2.525-4.644-3.789-0.498 0.374-1.012 0.73-1.493 1.123zM5.314 23.573c1.593 0.191 3.155 0.617 4.625 1.26-0.116-0.656-0.294-1.299-0.536-1.92 1.138 0.345 2.277 0.743 3.282 1.392-0.351-1.074-0.733-2.138-1.085-3.211-0.028-0.081-0.055-0.168-0.135-0.21-0.519-0.354-1.040-0.704-1.557-1.060-1.535 1.245-3.066 2.496-4.594 3.749z"></path>
</svg>
