<!-- Generated by IcoMoon.io -->
<svg version="1.1" xmlns="http://www.w3.org/2000/svg" width="29" height="32" viewBox="0 0 29 32">
<title>school-prismari-inner</title>
<path fill="#444" d="M21.106 16.832c1.756-0.54 3.625-0.699 5.45-0.486-1.243 1.172-2.139 2.712-2.523 4.379-1.856-0.639-3.863-0.82-5.807-0.568-1.397 0.178-2.743 0.641-3.993 1.281 1.789-2.145 4.203-3.777 6.873-4.606zM12.887 23.107c-1.526 0.713-2.983 1.626-4.642 2.006-1.331 0.315-2.784 0.345-4.055-0.215 1.709 1.122 3.805 1.534 5.826 1.439 1.821-0.050 3.612-0.41 5.407-0.688 2.25-0.316 4.65 0.5 6.166 2.207 0.427-1 1.073-1.893 1.829-2.67 0.914-0.925 1.967-1.712 3.108-2.335-2.636-1.077-5.516-1.724-8.372-1.39-1.842 0.206-3.607 0.843-5.267 1.645zM4.733 27.177c1.294 1.139 2.832 1.979 4.449 2.564 0.72-1.036 1.67-1.948 2.848-2.437-2.961 0.514-6.116-0.056-8.681-1.635 0.386 0.565 0.877 1.051 1.384 1.507z"></path>
</svg>
