<!-- Generated by IcoMoon.io -->
<svg version="1.1" xmlns="http://www.w3.org/2000/svg" width="29" height="32" viewBox="0 0 29 32">
<title>school-witherbloom-outer</title>
<path fill="#444" d="M4.683 5.236c0.698-0.63 1.445-1.207 2.244-1.704 0.193 1.243 0.867 2.387 1.796 3.225 0.999 0.843 2.339 1.136 3.616 1.179 0.002 0.276-0.002 0.551-0.017 0.826-1.629 0.314-3.412 0.199-4.86-0.67-1.145-0.698-2.13-1.679-2.78-2.855zM22.453 3.567c-0.225 1.252-0.896 2.415-1.861 3.242-0.999 0.805-2.31 1.083-3.565 1.129-0.003 0.274 0.013 0.548 0.027 0.821 1.511 0.295 3.141 0.216 4.533-0.486 1.287-0.679 2.362-1.74 3.094-2.995-0.684-0.642-1.432-1.216-2.229-1.711zM1.446 9.595c1.308 1.137 2.917 1.932 4.622 2.249 2.091 0.437 4.284 0.044 6.22-0.808-0.003-0.321-0.006-0.642 0.024-0.961-1.827 0.44-3.83 0.517-5.582-0.251-1.456-0.596-2.714-1.697-3.445-3.097-0.722 0.88-1.343 1.843-1.839 2.868zM26.019 6.768c-0.070 0.309-0.287 0.552-0.459 0.809-0.951 1.284-2.373 2.182-3.908 2.593-1.5 0.371-3.082 0.269-4.572-0.095 0.015 0.321 0.005 0.643 0.018 0.964 1.027 0.449 2.114 0.766 3.228 0.908 2.706 0.35 5.528-0.543 7.58-2.333-0.491-0.97-1.062-1.903-1.747-2.751-0.036-0.045-0.079-0.089-0.139-0.096zM0.586 11.778c-0.31 1.027-0.507 2.088-0.586 3.158 2.433 0.896 5.128 1.21 7.669 0.614 1.628-0.388 3.186-1.090 4.546-2.065 0.034-0.368 0.024-0.74 0.034-1.11-1.669 0.862-3.529 1.388-5.414 1.404-2.222-0.026-4.417-0.751-6.25-2zM22.502 13.778c-1.873-0.024-3.72-0.549-5.378-1.405 0.018 0.374 0.035 0.748 0.033 1.122 1.994 1.378 4.355 2.277 6.791 2.353 1.831 0.057 3.671-0.259 5.385-0.902-0.082-1.064-0.271-2.122-0.583-3.144-1.832 1.244-4.030 1.958-6.248 1.975zM6.157 17.704c-2.038 0.371-4.229 0.385-6.15-0.478 0.075 1.060 0.284 2.107 0.587 3.124 0.481 0.082 0.965 0.136 1.453 0.15 1.437 0.089 2.866-0.238 4.196-0.768 2.105-0.85 4.145-1.914 5.911-3.354 0.031-0.399 0.011-0.799 0.031-1.198-1.825 1.209-3.862 2.145-6.029 2.525zM17.185 15.176c0.031 0.4 0.006 0.802 0.047 1.2 1.065 0.875 2.237 1.618 3.464 2.244 1.328 0.666 2.689 1.3 4.138 1.654 1.273 0.309 2.603 0.287 3.892 0.092 0.317-1.013 0.51-2.065 0.596-3.122-1.248 0.562-2.635 0.736-3.993 0.695-1.535-0.057-3.061-0.361-4.505-0.883-1.278-0.491-2.502-1.119-3.64-1.88zM4.176 22.357c-0.862 0.241-1.764 0.397-2.659 0.294 0.395 0.782 0.857 1.529 1.384 2.23 2.118 2.834 5.29 4.863 8.759 5.567 0.491 0.089 0.985 0.215 1.488 0.183-1.402-0.187-2.757-0.725-3.922-1.524-1.135-0.793-2.137-1.931-2.392-3.329-0.19-0.981 0.186-1.956 0.657-2.8 0.749-1.342 1.788-2.489 2.859-3.578-1.952 1.182-3.966 2.327-6.174 2.957zM19.033 19.4c0.6 0.619 1.2 1.241 1.731 1.922 0.712 0.918 1.386 1.904 1.709 3.033 0.268 0.897 0.072 1.878-0.381 2.681-0.653 1.172-1.737 2.053-2.919 2.658-0.889 0.475-1.866 0.744-2.845 0.96 1.906-0.19 3.763-0.802 5.441-1.722 2.58-1.423 4.718-3.638 6.038-6.273-1.482 0.133-2.933-0.348-4.291-0.89-1.57-0.639-3.039-1.49-4.484-2.368z"></path>
</svg>
