<!-- Generated by IcoMoon.io -->
<svg version="1.1" xmlns="http://www.w3.org/2000/svg" width="28" height="32" viewBox="0 0 28 32">
<title>school-silverquill-inner</title>
<path fill="#444" d="M7.494 11.74c1.546-2.396 3.093-4.794 4.639-7.19 0.002 1.968 0 3.936 0.001 5.904-0.367 0.489-0.726 0.983-1.095 1.471 0.924 1.997 1.868 3.986 2.805 5.977 0.936-1.981 1.877-3.959 2.792-5.949-0.312-0.528-0.73-1.003-1.085-1.509-0.003-1.967-0.002-3.934 0-5.901 1.552 2.395 3.094 4.797 4.644 7.193 0.13 0.189 0.31 0.338 0.474 0.498-1.759 2.716-3.041 5.712-4.084 8.766-0.972 2.895-1.71 5.864-2.419 8.832-0.215-0.001-0.428-0.001-0.643-0.001-0.807-3.392-1.651-6.786-2.85-10.065-0.969-2.615-2.119-5.179-3.647-7.519 0.163-0.161 0.341-0.314 0.468-0.508z"></path>
</svg>
