<!-- Generated by IcoMoon.io -->
<svg version="1.1" xmlns="http://www.w3.org/2000/svg" width="25" height="32" viewBox="0 0 25 32">
<title>school-quandrix-inner</title>
<path fill="#444" d="M8.426 5.283c2.692-1.068 5.78-1.070 8.472-0.001-1.491 0.126-2.963 0.568-4.231 1.37-1.269-0.807-2.747-1.245-4.24-1.37zM6.922 6.044c-0.996 1.443-1.604 3.174-1.609 4.936 1.127-0.433 2.354-0.637 3.56-0.503 0.292-0.206 0.61-0.372 0.905-0.573 0.098-0.115 0.145-0.263 0.218-0.393 0.488-0.92 1.181-1.724 1.99-2.376-1.52-0.889-3.321-1.207-5.065-1.090zM13.343 7.132c0.782 0.637 1.466 1.405 1.947 2.295 0.72-1.14 1.459-2.267 2.172-3.409-1.433 0.046-2.872 0.392-4.118 1.114zM1.333 14.225c0.833-1.2 1.938-2.215 3.231-2.901-0.072-1.488 0.298-2.968 0.92-4.313-2.226 1.768-3.737 4.403-4.151 7.213zM10.516 10.168c0.718 1.117 1.431 2.236 2.146 3.355 0.727-1.114 1.434-2.242 2.156-3.358-0.488-1.026-1.239-1.923-2.156-2.591-0.911 0.676-1.667 1.565-2.146 2.594zM20.716 7.896c-0.106 0.183-0.213 0.366-0.318 0.548 0.28 0.934 0.409 1.911 0.379 2.885 1.281 0.672 2.357 1.686 3.202 2.852-0.398-2.369-1.551-4.599-3.263-6.285zM19.1 10.682c0.309 0.086 0.616 0.183 0.916 0.298 0.002-0.535-0.059-1.068-0.158-1.593-0.262 0.426-0.503 0.865-0.758 1.295zM5.365 11.782c0.095 0.919 0.385 1.813 0.831 2.619 0.154-0.624 0.386-1.231 0.73-1.776 0.273-0.535 0.661-0.998 1.073-1.431-0.904 0.042-1.803 0.224-2.634 0.588zM18.153 12.314c0.441 0.647 0.769 1.37 0.958 2.13 0.472-0.812 0.748-1.728 0.862-2.658-0.409-0.181-0.836-0.315-1.27-0.417-0.184 0.315-0.366 0.631-0.55 0.945zM1.184 15.992c0.011 0.032 0.032 0.097 0.043 0.129 0.757 1.53 1.92 2.885 3.413 3.735 0.186-1.226 0.66-2.408 1.398-3.406-0.055-0.318 0.032-0.658-0.054-0.966-0.704-0.986-1.167-2.14-1.344-3.338-1.517 0.881-2.715 2.265-3.456 3.846zM20.694 12.146c-0.184 1.222-0.654 2.403-1.391 3.397 0.020 0.314 0.026 0.628 0.008 0.942 0.741 0.983 1.194 2.163 1.384 3.374 1.528-0.881 2.715-2.279 3.471-3.861-0.766-1.575-1.945-2.974-3.473-3.853zM6.221 17.559c-0.465 0.817-0.753 1.729-0.86 2.661 0.407 0.186 0.836 0.315 1.271 0.417 0.184-0.312 0.362-0.629 0.548-0.941-0.437-0.652-0.769-1.375-0.958-2.137zM19.143 17.606c-0.305 1.199-0.932 2.315-1.799 3.196 0.903-0.018 1.798-0.222 2.629-0.578-0.101-0.917-0.391-1.807-0.829-2.618zM20.776 20.68c0.057 1.491-0.299 2.977-0.929 4.323 2.221-1.779 3.744-4.406 4.155-7.224-0.828 1.202-1.935 2.215-3.226 2.901zM1.363 17.824c0.377 2.371 1.543 4.604 3.257 6.284 0.105-0.181 0.209-0.361 0.314-0.542-0.267-0.935-0.417-1.91-0.372-2.885-1.277-0.676-2.37-1.677-3.198-2.858zM10.515 21.841c0.485 1.028 1.24 1.919 2.153 2.593 0.913-0.671 1.669-1.562 2.149-2.592-0.714-1.121-1.437-2.238-2.147-3.361-0.722 1.117-1.43 2.244-2.155 3.361zM16.451 21.548c-0.308 0.188-0.625 0.368-0.918 0.577-0.516 1.063-1.26 2.016-2.188 2.75 1.523 0.884 3.326 1.213 5.073 1.080 0.989-1.443 1.603-3.17 1.598-4.93-1.127 0.46-2.357 0.602-3.565 0.523zM5.312 21.023c0.007 0.538 0.061 1.075 0.165 1.603 0.255-0.432 0.502-0.869 0.758-1.3-0.313-0.085-0.622-0.183-0.923-0.302zM10.045 22.582c-0.723 1.133-1.451 2.261-2.169 3.396 1.434-0.023 2.87-0.385 4.115-1.105-0.788-0.629-1.46-1.406-1.945-2.291zM8.468 26.729c2.67 1.068 5.753 1.065 8.421-0.007-1.489-0.12-2.958-0.569-4.225-1.367-1.255 0.806-2.721 1.229-4.196 1.374z"></path>
</svg>
