<!-- Generated by IcoMoon.io -->
<svg version="1.1" xmlns="http://www.w3.org/2000/svg" width="28" height="32" viewBox="0 0 28 32">
<title>school-silverquill</title>
<path fill="#444" d="M14.542 1.064c2.167 3.353 4.329 6.71 6.495 10.064 0.299 0.363 0.662 0.67 0.985 1.013-1.338 1.816-2.333 3.859-3.215 5.928 2.3-1.312 4.060-3.505 4.899-6.011 1.045-3.023 0.772-6.475-0.756-9.288-0.070-0.128-0.14-0.257-0.203-0.389 2.219 1.744 3.843 4.217 4.639 6.92 0.882 3.005 0.723 6.306-0.464 9.206-1.048 2.596-2.907 4.854-5.245 6.393-1.726 1.15-3.716 1.89-5.768 2.183-0.328 1.26-0.627 2.527-0.913 3.796-0.765 0-1.53-0.002-2.295 0.001-0.303-1.284-0.592-2.57-0.931-3.845-3.829-0.584-7.349-2.867-9.468-6.107-2.014-3.016-2.745-6.837-2.040-10.389 0.504-2.611 1.786-5.065 3.634-6.977 0.416-0.412 0.823-0.844 1.308-1.176-0.896 1.568-1.459 3.333-1.558 5.14-0.128 1.953 0.234 3.938 1.073 5.708 0.882 1.894 2.317 3.524 4.088 4.635-0.864-2.005-1.857-3.966-3.13-5.744 0.408-0.435 0.903-0.802 1.197-1.331 1.66-2.578 3.324-5.153 4.985-7.73 0.439-0.664 0.849-1.348 1.307-2 0.015 3.243 0.002 6.487 0.006 9.73-0.309 0.422-0.626 0.837-0.93 1.261 0.533 1.136 1.066 2.273 1.603 3.407 0.545-1.132 1.073-2.272 1.606-3.409-0.303-0.409-0.606-0.818-0.909-1.227 0-3.254-0.003-6.507 0.001-9.761zM7.494 11.74c-0.127 0.194-0.305 0.346-0.468 0.508 1.527 2.34 2.677 4.905 3.647 7.519 1.198 3.279 2.043 6.673 2.85 10.065 0.214 0 0.428 0 0.643 0.001 0.709-2.968 1.447-5.937 2.419-8.832 1.044-3.054 2.325-6.049 4.084-8.766-0.165-0.16-0.344-0.309-0.474-0.498-1.55-2.396-3.092-4.798-4.644-7.193-0.002 1.967-0.003 3.934 0 5.901 0.355 0.506 0.773 0.982 1.085 1.509-0.915 1.989-1.856 3.968-2.792 5.949-0.937-1.991-1.88-3.98-2.805-5.977 0.369-0.487 0.728-0.982 1.095-1.471-0.001-1.968 0.002-3.936-0.001-5.904-1.547 2.396-3.093 4.794-4.639 7.19z"></path>
</svg>
