<!-- Generated by IcoMoon.io -->
<svg version="1.1" xmlns="http://www.w3.org/2000/svg" width="29" height="32" viewBox="0 0 29 32">
<title>school-witherbloom-inner</title>
<path fill="#444" d="M8.682 2.611c3.77-1.695 8.252-1.68 12.018 0.018 0.167 1.035-0.096 2.16-0.813 2.943-0.733 0.809-1.799 1.216-2.848 1.422 0.488-0.391 0.921-0.886 1.097-1.498 0.128-0.487 0.246-1.003 0.13-1.505-0.091-0.423-0.419-0.753-0.798-0.938-0.688-0.336-1.466-0.407-2.219-0.441-0.881-0.019-1.774-0.019-2.636 0.187-0.56 0.138-1.161 0.405-1.421 0.955-0.228 0.536-0.102 1.134 0.034 1.676 0.164 0.64 0.61 1.161 1.119 1.563-1.093-0.212-2.212-0.646-2.94-1.525-0.655-0.782-0.888-1.862-0.722-2.858zM12.655 3.774c-0.224 0.073-0.481 0.16-0.601 0.379-0.081 0.297-0.011 0.607 0.042 0.904 0.063 0.264 0.093 0.577 0.336 0.747 0.398 0.31 0.905 0.664 0.881 1.232-0.024 2.532-0.113 5.065-0.161 7.597 0.554-0.565 0.811-1.339 1.010-2.087 0.328-1.288 0.429-2.617 0.518-3.938 0.144 1.485 0.216 2.996 0.677 4.427 0.182 0.583 0.437 1.161 0.874 1.6-0.058-2.252-0.114-4.504-0.159-6.756-0.006-0.355-0.033-0.714 0.011-1.067 0.102-0.471 0.537-0.737 0.879-1.025 0.212-0.154 0.247-0.429 0.306-0.666 0.059-0.313 0.136-0.641 0.058-0.957-0.097-0.199-0.321-0.288-0.517-0.36-0.701-0.225-1.448-0.245-2.178-0.24-0.663-0.005-1.337 0.028-1.978 0.21zM13.545 16.593c0.079 0.485 0.363 0.899 0.579 1.331-0.227-0.067-0.447-0.157-0.651-0.276-0.747 0.706-1.453 1.453-2.151 2.208-1.075 1.186-2.215 2.355-2.914 3.815-0.29 0.62-0.542 1.316-0.394 2.008 0.161 0.775 0.626 1.452 1.179 2.003 1.046 1.015 2.455 1.576 3.878 1.802-0.659-0.549-1.257-1.184-1.684-1.932-0.593-0.99-0.844-2.202-0.588-3.337 0.303-1.392 1.171-2.579 2.123-3.605 0.944-0.975 1.885-1.974 2.58-3.149 0.194-0.37 0.423-0.788 0.302-1.219-0.134-0.535-0.699-0.896-1.241-0.824-0.579 0.044-1.067 0.59-1.016 1.174zM14.668 20.218c-0.719 0.839-1.436 1.729-1.79 2.792-0.206 0.711-0.336 1.471-0.189 2.207 0.125 0.64 0.529 1.21 1.074 1.563 0.455 0.289 1.048 0.329 1.544 0.124 0.718-0.291 1.24-0.983 1.363-1.744 0.147-0.892-0.063-1.802-0.405-2.627 0.877 0.747 1.654 1.652 2.088 2.731 0.102 0.277 0.232 0.575 0.14 0.873-0.322 1.353-1.217 2.497-2.279 3.364 0.735-0.119 1.462-0.308 2.145-0.61 1.058-0.466 2.029-1.206 2.617-2.216 0.346-0.591 0.549-1.307 0.364-1.986-0.28-1.119-0.947-2.094-1.647-2.992-1.075-1.255-2.197-2.471-3.361-3.644-0.471 0.782-1.045 1.495-1.664 2.165z"></path>
</svg>
