<!-- Generated by IcoMoon.io -->
<svg version="1.1" xmlns="http://www.w3.org/2000/svg" width="30" height="32" viewBox="0 0 30 32">
<title>school-lorehold</title>
<path fill="#444" d="M9.325 5.558c1.927-1.414 3.845-2.84 5.772-4.253 1.924 1.415 3.846 2.836 5.767 4.255 2.216-0.514 4.463-0.898 6.725-1.132 0.52 1.146 1.034 2.293 1.556 3.439 0.028 0.085 0.102 0.179 0.050 0.271-0.401 0.911-0.744 1.846-1.050 2.792 0.677 0.508 1.365 1.002 2.041 1.514-0.99 0.74-1.993 1.463-2.984 2.202-0.274 1.345-0.452 2.709-0.574 4.077-0.008 0.109-0.027 0.224 0.007 0.331 0.767 2.64 1.545 5.278 2.303 7.921-0.943-0.756-1.876-1.525-2.811-2.291-2.887 0.215-5.704 1.196-8.148 2.735 0.075 0.277 0.142 0.557 0.218 0.833-1.142 0.627-2.199 1.415-3.097 2.361-0.91-0.935-1.957-1.738-3.107-2.356 0.074-0.279 0.144-0.559 0.221-0.836-2.466-1.551-5.305-2.533-8.215-2.746-0.97 0.789-1.931 1.588-2.909 2.366 0.815-2.675 1.639-5.348 2.456-8.022 0.055-0.171 0.006-0.351-0.003-0.525-0.117-1.257-0.293-2.508-0.529-3.747-1.002-0.773-2.013-1.532-3.014-2.304 0.683-0.503 1.367-1.005 2.046-1.512-0.314-0.973-0.67-1.932-1.085-2.867 0.542-1.212 1.096-2.419 1.637-3.633 2.264 0.227 4.511 0.619 6.727 1.128zM1.744 12.451c1.324 1.015 2.648 2.030 3.969 3.048-0.874 2.858-1.754 5.714-2.625 8.574 2.258-1.834 4.507-3.679 6.762-5.515 0.844 0.59 1.718 1.144 2.546 1.753 0.914 2.626 1.785 5.269 2.702 7.894 0.918-2.632 1.799-5.279 2.721-7.909 0.78-0.614 1.593-1.192 2.388-1.789 2.263 1.856 4.534 3.703 6.801 5.555-0.838-2.904-1.689-5.804-2.534-8.706 1.322-0.971 2.648-1.937 3.963-2.918-4.448-3.28-8.893-6.566-13.342-9.844-4.45 3.287-8.903 6.567-13.351 9.856zM3.185 5.475c0.353 1.328 0.629 2.675 0.83 4.034 1.439-1.051 2.868-2.116 4.304-3.171-1.696-0.37-3.41-0.657-5.134-0.863zM21.876 6.337c1.431 1.057 2.858 2.119 4.296 3.166 0.211-1.355 0.48-2.702 0.833-4.028-1.722 0.206-3.435 0.49-5.129 0.862zM18.684 20.918c-0.41 1.119-0.778 2.253-1.166 3.38 1.003-0.642 2.137-1.046 3.273-1.385-0.247 0.619-0.418 1.265-0.54 1.92 1.454-0.63 2.994-1.066 4.57-1.249-1.551-1.259-3.096-2.525-4.644-3.789-0.498 0.374-1.012 0.73-1.493 1.123zM5.314 23.573c1.593 0.191 3.155 0.617 4.625 1.26-0.116-0.656-0.294-1.299-0.536-1.92 1.138 0.345 2.277 0.743 3.282 1.392-0.351-1.074-0.733-2.138-1.085-3.211-0.028-0.081-0.055-0.168-0.135-0.21-0.519-0.354-1.040-0.704-1.557-1.060-1.535 1.245-3.066 2.496-4.594 3.749zM6.741 10.684c0.124 2.529 1.539 5.056 3.841 6.206-1.361-1.452-2.279-3.389-2.256-5.402 0.385-0.212 0.763-0.439 1.149-0.65 0.311 1.055 0.872 2.048 1.688 2.792 1.047 0.976 2.481 1.499 3.907 1.495 1.361 0.002 2.724-0.465 3.772-1.338 0.919-0.754 1.56-1.817 1.874-2.958 0.384 0.224 0.773 0.441 1.16 0.662 0.002 2.012-0.895 3.962-2.279 5.401 2.309-1.142 3.738-3.686 3.842-6.22-1.432-1.125-2.896-2.209-4.359-3.292-0.068 0.676-0.094 1.355-0.168 2.030-0.135 1.088-0.738 2.118-1.654 2.729-0.876 0.594-1.999 0.806-3.029 0.565-1.352-0.303-2.494-1.402-2.833-2.748-0.218-0.846-0.188-1.727-0.274-2.591-1.471 1.091-2.945 2.18-4.382 3.317z"></path>
</svg>
