<!-- Generated by IcoMoon.io -->
<svg version="1.1" xmlns="http://www.w3.org/2000/svg" width="32" height="32" viewBox="0 0 32 32">
<title>sorcery</title>
<path fill="#444" d="M12.781 1.938h0.013c0.58 0.136 1.216 0.232 1.689 0.624 0.163 0.113 0.166 0.317 0.17 0.496-0.593 0.041-1.178-0.157-1.771-0.066-0.921 0.117-1.898 0.407-2.517 1.14-0.556 0.667-0.596 1.605-0.437 2.422 0.152 0.83 0.798 1.453 1.465 1.912 1.048 0.667 2.248 1.066 3.251 1.808 1.058 0.741 1.792 1.85 2.855 2.585 0.371 0.256 0.803 0.458 1.266 0.434 0.707 0.051 1.404-0.406 1.681-1.049 0.368-1.21-0.184-2.666-1.31-3.272-0.762-0.427-1.624-0.616-2.427-0.944-0.216-0.082-0.433-0.222-0.477-0.466 0.040-0.158 0.141-0.318 0.317-0.341 1.29-0.192 2.594 0.14 3.769 0.666 1.745 0.907 3.329 2.162 4.493 3.756 1.124 1.493 1.752 3.299 2.093 5.121 0.059 0.428 0.125 0.855 0.204 1.28v2.759c-0.198 1.282-0.44 2.579-0.998 3.762-0.819 1.822-2.18 3.429-3.925 4.421-1.036 0.609-1.406 1.149-5.86 1.072v0c-0.507-0.148-0.662-0.32-0.75-0.652 0.138-0.466 0.672-0.597 1.087-0.698 0.453-0.118 1.032-0.153 1.272-0.624-0.127-0.544-0.669-0.83-1.15-1.009-0.727-0.268-1.525-0.239-2.282-0.146-1.097 0.197-2.099 0.832-3.238 0.802-1.393-0.023-2.711-0.632-3.821-1.438-0.803-0.575-1.424-1.37-1.902-2.227-0.336-0.601-1.042-1.925-0.652-3.675v-0.015c0.211-1.099 0.622-2.228 1.493-2.976 0.572-0.437 1.244-0.812 1.977-0.845 0.274 0.008 0.619 0.034 0.777 0.293-0.012 0.106-0.067 0.183-0.16 0.232-0.356 0.233-0.796 0.378-1.038 0.752-0.454 0.618-0.496 1.432-0.385 2.165 0.181 0.906 0.824 1.676 1.615 2.129 0.631 0.362 1.312 0.646 2.026 0.788 0.642 0.131 1.297 0.168 1.949 0.197 0.648 0.028 1.193-0.067 1.762-0.062 0.788 0.007 1.596 0.066 2.333 0.382 0.988 0.431 1.891 1.134 2.408 2.095 0.197 0.374 0.245 0.805 0.444 1.177 0.441-0.083 0.638-0.537 0.772-0.916 0.324-0.878 0.046-1.839-0.329-2.653-0.593-1.227-1.761-2.093-3.046-2.485-1.219-0.392-2.546-0.21-3.752-0.651-0.561-0.197-0.993-0.631-1.364-1.078-0.23-0.276-0.354-0.657-0.224-1.006 0.549-0.137 1.061 0.289 1.613 0.212 0.469-0.106 0.795-0.539 0.889-0.993 0.203-0.697 0.029-1.47-0.424-2.032-0.607-0.755-1.495-1.215-2.389-1.544-1.001-0.384-2.093-0.546-3.022-1.106-1.011-0.633-1.883-1.557-2.273-2.701-0.381-0.993-0.378-2.075-0.33-3.122 0.098-0.99 0.532-1.923 1.118-2.716 0.382-0.531 0.933-0.9 1.478-1.244 0.648-0.411 2.128-0.996 3.972-0.73z"></path>
</svg>
