<!-- Generated by IcoMoon.io -->
<svg version="1.1" xmlns="http://www.w3.org/2000/svg" width="32" height="32" viewBox="0 0 32 32">
<title>tap-alt</title>
<path fill="#444" d="M30.968 18.79l-3.676 4.427-0.901-0.9c0.35-0.884 0.572-1.697 0.663-2.439s0.054-1.429-0.113-2.064c-0.017-0.083-0.037-0.162-0.063-0.237-0.025-0.076-0.054-0.147-0.088-0.213-0.133-0.399-0.334-0.775-0.601-1.125-0.267-0.351-0.65-0.775-1.15-1.276l-2.626-2.676-12.205 12.205c-1.067 1.066-1.643 1.992-1.726 2.775-0.084 0.785 0.3 1.602 1.151 2.452l0.35 0.299-0.95 0.95-8.003-8.003 0.95-0.95 0.4 0.399c0.834 0.867 1.642 1.26 2.426 1.176 0.784-0.083 1.701-0.651 2.751-1.701l12.229-12.23-2.726-2.726c-0.767-0.733-1.421-1.246-1.963-1.538s-1.172-0.413-1.888-0.363c-0.101 0-0.205 0.004-0.313 0.012s-0.221 0.021-0.338 0.037c-0.217 0.017-0.409 0.041-0.575 0.075s-0.325 0.058-0.475 0.075c-0.050 0.017-0.096 0.029-0.137 0.037s-0.096 0.013-0.163 0.012c-0.184 0.050-0.392 0.109-0.625 0.175s-0.525 0.142-0.876 0.225l-0.825-0.876 4.326-3.776 17.758 17.759z"></path>
</svg>
