<!-- Generated by IcoMoon.io -->
<svg version="1.1" xmlns="http://www.w3.org/2000/svg" width="32" height="32" viewBox="0 0 32 32">
<title>tap</title>
<path fill="#444" d="M27.263 16.227h-12.874l4.714-3.355c-1.751-1.39-3.778-2.084-6.073-2.084-1.148 0-1.936 0.219-2.356 0.656-0.423 0.439-0.635 1.232-0.635 2.379 0 3.173 1.632 6.558 4.895 10.153l-3.715 3.762c-4.323-5.258-6.482-9.956-6.482-14.097 0-2.477 0.746-4.451 2.242-5.916 1.495-1.465 3.485-2.198 5.96-2.198 3.022 0 6.316 1.15 9.883 3.445l2.763-4.713 1.678 11.967z"></path>
</svg>
