<!-- Generated by IcoMoon.io -->
<svg version="1.1" xmlns="http://www.w3.org/2000/svg" width="25" height="32" viewBox="0 0 25 32">
<title>ticket</title>
<path fill="#444" d="M9.965 0.038c0.47-0.045 0.957-0.049 1.41 0.104 0.695 0.223 1.382 0.465 2.066 0.717 0.778 0.272 1.394 0.923 1.685 1.686 0.202 0.495 0.133 1.042 0.211 1.559 0.058 0.344 0.273 0.647 0.545 0.858 0.439 0.335 1.064 0.39 1.564 0.161 0.283-0.134 0.49-0.378 0.678-0.62 0.493-0.637 1.276-1.066 2.088-1.074 0.361-0.032 0.726 0.017 1.070 0.131 0.673 0.212 1.338 0.447 2.002 0.686 0.381 0.148 0.779 0.29 1.085 0.572 0.59 0.526 1.029 1.276 1.017 2.085-0.014 0.252 0.022 0.516-0.067 0.757-2.519 7.34-5.051 14.676-7.594 22.007-0.147 0.382-0.232 0.797-0.491 1.125-0.584 0.875-1.7 1.311-2.728 1.169-0.28-0.037-0.544-0.137-0.812-0.218-0.67-0.22-1.337-0.454-1.993-0.713-0.877-0.309-1.531-1.113-1.742-2.007-0.128-0.55 0.025-1.169-0.292-1.669-0.368-0.626-1.224-0.873-1.878-0.571-0.286 0.112-0.495 0.345-0.678 0.582-0.413 0.553-1.038 0.941-1.709 1.093-0.49 0.085-1.005 0.076-1.48-0.084-0.737-0.231-1.464-0.489-2.183-0.772-0.897-0.339-1.554-1.19-1.724-2.125-0.009-0.352-0.034-0.709 0.007-1.058 7.784-22.522 7.859-22.851 8.044-23.128 0.419-0.658 1.128-1.129 1.899-1.255zM10.073 1.033c-0.556 0.113-1.044 0.512-1.297 1.014-3.674 10.608-5.688 16.43-7.681 22.26-0.149 0.378-0.146 0.807-0.045 1.197 0.184 0.545 0.588 1.049 1.145 1.239 0.632 0.24 1.271 0.461 1.913 0.669 0.243 0.076 0.49 0.164 0.749 0.151 0.441-0.018 0.889-0.153 1.228-0.443 0.32-0.253 0.503-0.635 0.827-0.883 0.566-0.449 1.342-0.653 2.047-0.454 0.857 0.194 1.569 0.895 1.771 1.751 0.135 0.474-0.001 0.983 0.178 1.448 0.199 0.54 0.649 0.99 1.198 1.17 0.651 0.241 1.306 0.473 1.964 0.696 0.492 0.192 1.070 0.213 1.558 0.001 0.45-0.214 0.875-0.563 1.031-1.052 3.19-9.228 5.422-15.684 7.634-22.147 0.196-0.521 0.126-1.127-0.167-1.598-0.243-0.375-0.595-0.704-1.028-0.839-0.728-0.268-1.461-0.525-2.199-0.765-0.27-0.099-0.562-0.073-0.842-0.057-0.557 0.054-1.037 0.415-1.362 0.854-0.298 0.407-0.728 0.714-1.21 0.864-0.722 0.236-1.547 0.071-2.15-0.383-0.548-0.416-0.934-1.080-0.927-1.779-0.031-0.327-0.012-0.666-0.11-0.983-0.215-0.517-0.613-0.996-1.158-1.178-0.594-0.227-1.197-0.434-1.801-0.632-0.403-0.15-0.843-0.203-1.267-0.12zM10.224 1.895c-0.277 0.086-0.545 0.274-0.633 0.562-3.594 10.35-5.616 16.217-7.636 22.085-0.071 0.197-0.105 0.41-0.068 0.618 0.039 0.367 0.322 0.675 0.663 0.798 0.576 0.216 1.16 0.412 1.745 0.601 0.267 0.074 0.549 0.184 0.827 0.098 0.292-0.079 0.495-0.323 0.687-0.542 0.551-0.719 1.413-1.199 2.321-1.26 0.931-0.079 1.886 0.264 2.556 0.913 0.492 0.453 0.838 1.065 0.94 1.729 0.087 0.409 0.047 0.834 0.139 1.242 0.116 0.274 0.347 0.515 0.634 0.609 0.69 0.25 1.384 0.489 2.082 0.719 0.415 0.15 0.909 0.020 1.188-0.325 0.149-0.151 0.193-0.365 0.263-0.558 2.522-7.308 5.044-14.615 7.562-21.924 0.038-0.181 0.009-0.371-0.022-0.552-0.089-0.338-0.378-0.602-0.704-0.71-0.72-0.261-1.446-0.508-2.18-0.727-0.414-0.122-0.873 0.074-1.115 0.423-0.428 0.59-1.041 1.053-1.747 1.252-0.857 0.249-1.809 0.118-2.586-0.315-0.716-0.398-1.262-1.084-1.5-1.867-0.14-0.429-0.112-0.885-0.156-1.328-0.024-0.369-0.291-0.71-0.639-0.833-0.67-0.261-1.351-0.493-2.040-0.701-0.187-0.064-0.393-0.073-0.581-0.009z"></path>
</svg>
