<!-- Generated by IcoMoon.io -->
<svg version="1.1" xmlns="http://www.w3.org/2000/svg" width="18" height="32" viewBox="0 0 18 32">
<title>toughness</title>
<path fill="#444" d="M8.591 31.661c-0.813-0.684-2.142-2.062-2.911-3.016-1.231-1.528-2.007-2.738-2.903-4.529-1.994-3.984-2.877-8.138-2.758-12.983 0.051-2.064 0.197-3.443 0.59-5.56l0.147-0.794h0.532c1.095 0 2.573-0.307 3.633-0.755 1.779-0.751 3.258-2.124 4.055-3.765 0.077-0.159 0.162-0.276 0.189-0.259s0.146 0.218 0.265 0.448c0.55 1.063 1.59 2.221 2.586 2.881 1.285 0.851 2.921 1.355 4.645 1.431l0.846 0.038 0.041 0.203c0.85 4.25 0.922 8.563 0.205 12.292-0.969 5.038-3.356 9.649-6.777 13.091-0.889 0.895-1.733 1.616-1.89 1.615-0.051-0-0.274-0.153-0.494-0.339zM9.572 28.547c0.683-0.559 1.98-1.937 2.624-2.787 2.014-2.661 3.421-5.951 3.952-9.242 0.46-2.852 0.369-6.424-0.238-9.253l-0.074-0.344h-0.624c-0.744 0-1.405-0.118-2.25-0.401-1.561-0.523-2.831-1.576-3.622-3.004l-0.236-0.426-0.149 0.293c-0.709 1.394-1.985 2.507-3.551 3.096-0.648 0.244-1.722 0.441-2.401 0.441-0.325 0-0.605 0.023-0.622 0.051s-0.094 0.397-0.171 0.819c-0.909 5.012-0.419 9.85 1.414 13.95 0.861 1.927 2.23 4.003 3.626 5.501 0.367 0.394 1.772 1.682 1.835 1.682 0.014 0 0.233-0.17 0.487-0.377zM8.608 25.616c-0.754-0.622-1.738-1.807-2.437-2.935-2.013-3.249-2.656-7.188-1.872-11.48l0.079-0.435 9.448-0.034 0.105 0.586c0.229 1.277 0.274 1.831 0.274 3.395-0 1.721-0.072 2.382-0.409 3.773-0.489 2.020-1.452 3.975-2.775 5.635-0.492 0.617-1.755 1.861-1.89 1.861-0.044 0-0.28-0.165-0.524-0.366zM6.888 8.443l0.002-0.82 1.062-0.834c0.584-0.459 1.094-0.845 1.132-0.858s0.569 0.373 1.178 0.858l1.108 0.881-0.038 1.558-4.447 0.035 0.002-0.82z"></path>
</svg>
