<!-- Generated by IcoMoon.io -->
<svg version="1.1" xmlns="http://www.w3.org/2000/svg" width="32" height="32" viewBox="0 0 32 32">
<title>u</title>
<path fill="#444" d="M23.11 29.095c-1.903 1.937-4.248 2.905-7.033 2.905-3.126 0-5.605-1.070-7.439-3.21-1.733-2.038-2.599-4.637-2.599-7.795 0-3.397 1.478-7.271 4.433-11.62 2.411-3.566 5.248-6.692 8.509-9.375-0.476 2.175-0.713 3.72-0.713 4.637 0 2.107 0.662 4.162 1.986 6.166 1.631 2.378 2.87 4.145 3.72 5.299 1.325 2.005 1.987 3.958 1.987 5.859 0.001 2.82-0.951 5.198-2.852 7.133zM23.058 18.216c-0.509-1.138-1.104-1.893-1.784-2.268 0.102 0.204 0.153 0.493 0.153 0.867 0 0.714-0.204 1.732-0.612 3.057l-0.662 2.038c0 1.189 0.593 1.784 1.783 1.784 1.256 0 1.885-0.833 1.885-2.497 0-0.848-0.254-1.842-0.764-2.981z"></path>
</svg>
