<!-- Generated by IcoMoon.io -->
<svg version="1.1" xmlns="http://www.w3.org/2000/svg" width="32" height="32" viewBox="0 0 32 32">
<title>untap</title>
<path fill="#444" d="M15.773 4.737v12.874l3.355-4.714c1.39 1.751 2.084 3.778 2.084 6.073 0 1.148-0.219 1.936-0.657 2.356-0.439 0.423-1.232 0.635-2.379 0.635-3.173 0-6.558-1.632-10.153-4.895l-3.762 3.715c5.258 4.323 9.956 6.482 14.097 6.482 2.477 0 4.451-0.746 5.916-2.242 1.465-1.495 2.198-3.485 2.198-5.96 0-3.022-1.15-6.316-3.445-9.883l4.713-2.763-11.967-1.678z"></path>
</svg>
