<!-- Generated by IcoMoon.io -->
<svg version="1.1" xmlns="http://www.w3.org/2000/svg" width="32" height="32" viewBox="0 0 32 32">
<title>w-list</title>
<path fill="#444" d="M16 22.38c-3.524 0-6.38-2.856-6.38-6.38s2.856-6.38 6.38-6.38c3.523 0 6.38 2.856 6.38 6.38s-2.856 6.38-6.38 6.38zM16 9.029c3.854 0 6.979 3.124 6.979 6.979s-3.125 6.979-6.979 6.979-6.979-3.124-6.979-6.979c0-3.854 3.124-6.979 6.979-6.979zM16 0.078l-2.345 7.063-5.711-4.969 1.502 7.292-7.232-1.489 4.895 5.626-7.108 2.444 7.116 2.362-4.903 5.635 7.226-1.488-1.495 7.262 5.708-4.966 2.348 7.072 2.376-6.911 5.594 4.867-1.514-7.354 7.371 1.518-4.911-5.644 7.084-2.436-7.079-2.35 4.905-5.638-7.364 1.516 1.507-7.319-5.581 4.855-2.389-6.949z"></path>
</svg>
