<!-- Generated by IcoMoon.io -->
<svg version="1.1" xmlns="http://www.w3.org/2000/svg" width="32" height="32" viewBox="0 0 32 32">
<title>w-original</title>
<path fill="#444" d="M16.929 0.001c0.414 0.004 0.617 0.373 0.776 0.709 0.588 1.364 0.804 2.848 1.099 4.293 0.12 0.564 0.635 1.099 1.246 1.038 0.662 0.069 1.253-0.288 1.763-0.668 0.917-0.64 1.94-1.167 3.043-1.389 0.539-0.035 1.159 0.045 1.567 0.434 0.151 0.114 0.138 0.318 0.108 0.484-0.111 0.147-0.249 0.271-0.379 0.399-0.62 0.57-1.109 1.279-1.443 2.052-0.204 0.418-0.208 0.908-0.126 1.356 0.123 0.141 0.242 0.347 0.454 0.344 0.525 0.032 1.053 0.021 1.578-0.010 0.745-0.133 1.491-0.297 2.193-0.586 0.356-0.106 0.764-0.304 1.121-0.097 0.228 0.092 0.314 0.341 0.378 0.558-0.113 0.766-0.586 1.399-1.054 1.987-0.434 0.538-0.9 1.046-1.376 1.546-0.218 0.274-0.521 0.554-0.495 0.936-0.011 0.165 0.011 0.339 0.091 0.485 0.467 0.010 0.952 0.059 1.404-0.094 0.687-0.185 1.353-0.432 2.030-0.652 0.266-0.101 0.601-0.034 0.761 0.216 0.15 0.31 0.108 0.661 0.053 0.989-0.039 0.695-0.135 1.473-0.667 1.98-1.090 0.933-2.257 1.775-3.476 2.532-0.354 0.178-0.35 0.634-0.224 0.956 0.669 1.11 1.706 1.944 2.387 3.046 0.173 0.257 0.201 0.612 0 0.863-0.382 0.496-0.988 0.827-1.611 0.88-0.886-0.109-1.648-0.608-2.432-0.995-0.365-0.055-0.849-0.117-1.057 0.268-0.281 0.527-0.41 1.118-0.589 1.685-0.337 1.195-0.573 2.417-0.766 3.642-0.021 0.352-0.12 0.691-0.221 1.026-0.284 0.048-0.486-0.145-0.634-0.362-0.756-0.971-1.47-1.974-2.14-3.007-0.189-0.283-0.336-0.607-0.609-0.823-0.151-0.083-0.338-0.040-0.501-0.028-0.176 0.16-0.274 0.383-0.341 0.607-0.346 1.115-0.739 2.221-1.278 3.26-0.301 0.603-0.829 1.046-1.354 1.451-0.403 0.293-0.829 0.59-1.327 0.689-0.476-0.054-0.677-0.57-0.806-0.968-0.348-1.377-0.422-2.8-0.602-4.203-0.021-0.598-0.175-1.322-0.781-1.59-0.394-0.066-0.821-0.090-1.206 0.021-0.521 0.345-0.861 0.892-1.297 1.331-0.615 0.607-1.121 1.378-1.944 1.727-0.293-0.744-0.334-1.576-0.183-2.357 0.123-0.489 0.298-0.908 0.463-1.385 0.113-0.325 0.162-0.813 0.025-1.075-0.256-0.49-0.869-0.7-1.352-0.928-1.333-0.585-2.911-0.999-4.311-1.384-0.156-0.043-0.199-0.188 0.196-0.396 0.74-0.39 1.674-0.415 2.285-1.032 0.028-0.257 0.119-0.617-0.133-0.79-0.361-0.283-0.81-0.425-1.248-0.541-0.593-0.052-1.195-0.058-1.787 0.008-0.573 0.17-1.28 0.089-1.672-0.402-0.444-0.589-0.342-1.403-0.021-2.024 0.237-0.459 0.727-0.706 1.203-0.846 0.761-0.201 1.551-0.27 2.337-0.272 0.312-0.041 0.642-0.058 0.931-0.196 0.428-0.502 0.332-1.207 0.3-1.815-0.183-0.428-0.6-0.686-0.887-1.037-0.325-0.398-0.702-0.819-0.802-1.306-0.038-0.183 0.074-0.352 0.138-0.502 0.355-0.553 1.025-0.786 1.64-0.912 0.929-0.204 1.856 0.108 2.771 0.253 0.701 0.111 0.829 0.035 1.243 0.021 0.025-0.174 0.101-0.373 0.003-0.536-0.218-0.297-0.535-0.534-0.647-0.898-0.074-0.455 0.144-0.883 0.335-1.28 0.514-0.982 1.081-1.937 1.673-2.874 0.182-0.28 0.352-0.58 0.621-0.785 0.212 0.108 0.273 0.352 0.357 0.555 0.25 0.711 0.548 1.404 0.825 2.104 0.113 0.274 0.221 0.562 0.435 0.776 0.194 0.040 0.397 0.042 0.595 0.009 0.572-0.28 1.055-0.773 1.226-1.399 0.373-1.39 0.672-2.813 1.268-4.13 0.186-0.353 0.367-0.789 0.777-0.927l0.080-0.012zM16.427 8.67c-4.030 0-7.298 3.267-7.298 7.298s3.267 7.298 7.298 7.298c4.030 0 7.298-3.267 7.298-7.298s-3.267-7.298-7.298-7.298zM16.427 22.321c3.509 0 6.353-2.844 6.353-6.353s-2.844-6.353-6.353-6.353-6.353 2.844-6.353 6.353c0 3.509 2.844 6.353 6.353 6.353z"></path>
</svg>
