<!-- Generated by IcoMoon.io -->
<svg version="1.1" xmlns="http://www.w3.org/2000/svg" width="32" height="32" viewBox="0 0 32 32">
<title>w</title>
<path fill="#444" d="M31.915 18.358c-2.189-1.234-3.593-1.852-4.21-1.852-0.448 0-0.799 0.344-1.052 1.032s-0.758 1.031-1.515 1.031c-0.309 0-0.94-0.112-1.895-0.336-0.533 0.814-0.8 1.334-0.8 1.558 0 0.309 0.23 0.673 0.689 1.095s0.846 0.631 1.162 0.631c0.201 0 0.473-0.042 0.817-0.127 0.344-0.083 0.574-0.126 0.689-0.126 0.345 0 0.516 0.632 0.516 1.895 0 1.207-0.28 3.059-0.842 5.558-0.73-2.863-1.502-4.295-2.315-4.295-0.113 0-0.344 0.084-0.695 0.254-0.351 0.168-0.611 0.252-0.779 0.252-0.814 0-1.543-0.743-2.189-2.232-1.291 0.197-1.937 0.857-1.937 1.98 0 0.562 0.259 1.010 0.779 1.347 0.518 0.336 0.779 0.576 0.779 0.716 0 0.759-1.109 1.924-3.327 3.495-1.178 0.842-1.993 1.431-2.441 1.768 0.392-0.505 0.785-1.164 1.179-1.978 0.448-0.926 0.673-1.642 0.673-2.148 0-0.28-0.323-0.674-0.968-1.179s-0.968-1.038-0.968-1.599c0-0.477 0.168-1.066 0.505-1.768-0.365-0.421-0.799-0.632-1.305-0.632-1.123 0-1.684 0.366-1.684 1.095 0-0.505 0-0.127 0 1.137 0.027 0.926-0.674 1.39-2.106 1.39-1.094 0-2.934-0.253-5.515-0.758 2.919-0.73 4.379-1.572 4.379-2.526 0 0.112-0.056-0.224-0.168-1.011-0.113-0.869 0.505-1.656 1.852-2.357-0.253-1.291-0.925-1.938-2.021-1.938-0.168 0-0.478 0.295-0.926 0.883-0.449 0.591-0.87 0.885-1.262 0.885-0.674 0-1.545-0.73-2.61-2.19-0.506-0.729-1.278-1.81-2.316-3.242 0.645 0.338 1.291 0.674 1.937 1.011 0.842 0.392 1.515 0.589 2.021 0.589 0.393 0 0.779-0.344 1.158-1.032s0.877-1.032 1.495-1.032c0.085 0 0.646 0.168 1.684 0.506 0.533-0.814 0.8-1.418 0.8-1.811 0-0.337-0.204-0.723-0.611-1.158s-0.779-0.652-1.116-0.652c-0.141 0-0.358 0.042-0.653 0.126-0.294 0.084-0.512 0.127-0.652 0.127-0.506 0-0.758-0.632-0.758-1.895 0-0.337 0.323-2.259 0.969-5.768-0.029 0.42 0.154 1.207 0.547 2.357 0.477 1.404 1.038 2.105 1.685 2.105 0.111 0 0.336-0.084 0.673-0.253s0.603-0.252 0.8-0.252c0.645 0 1.178 0.365 1.6 1.094l0.632 1.137c0.589 0 1.081-0.21 1.473-0.631s0.59-0.927 0.59-1.516c0-0.617-0.259-1.088-0.779-1.411s-0.78-0.568-0.78-0.737c0-0.59 0.927-1.586 2.779-2.989 1.487-1.122 2.456-1.782 2.906-1.979-1.207 1.628-1.811 2.82-1.811 3.579 0 0.393 0.238 0.815 0.716 1.263 0.589 0.533 0.926 0.912 1.010 1.137 0.28 0.647 0.252 1.53-0.084 2.653 0.758 0.534 1.333 0.8 1.727 0.8 0.813 0 1.221-0.422 1.221-1.263 0-0.084-0.035-0.351-0.105-0.8-0.071-0.449-0.091-0.702-0.064-0.758 0.112-0.393 0.884-0.59 2.316-0.59 0.898 0 2.764 0.253 5.6 0.758-0.618 0.168-1.544 0.42-2.779 0.758-1.123 0.337-1.685 0.716-1.685 1.137 0 0.197 0.070 0.533 0.211 1.010s0.211 0.828 0.211 1.053c0 0.392-0.253 0.758-0.758 1.094l-1.432 1.011c0.337 0.618 0.561 0.983 0.674 1.094 0.28 0.336 0.659 0.505 1.137 0.505 0.337 0 0.645-0.295 0.926-0.884s0.73-0.884 1.347-0.884c0.758 0 1.614 0.702 2.569 2.106 0.532 0.788 1.36 1.98 2.483 3.58zM22.569 15.917c0-1.796-0.66-3.354-1.98-4.674s-2.877-1.979-4.673-1.979c-1.825 0-3.397 0.653-4.716 1.959s-1.993 2.87-2.021 4.694c-0.029 1.796 0.638 3.347 2 4.651 1.362 1.305 2.94 1.959 4.736 1.959 1.909 0 3.501-0.625 4.778-1.874 1.278-1.248 1.902-2.827 1.875-4.736zM21.937 15.917c0 1.712-0.576 3.131-1.727 4.252-1.152 1.124-2.583 1.685-4.295 1.685-1.656 0-3.074-0.575-4.252-1.727-1.178-1.15-1.768-2.554-1.768-4.21 0-1.627 0.596-3.025 1.788-4.189 1.194-1.165 2.604-1.748 4.232-1.748s3.038 0.589 4.232 1.769c1.193 1.179 1.79 2.568 1.79 4.168z"></path>
</svg>
