<!-- Generated by IcoMoon.io -->
<svg version="1.1" xmlns="http://www.w3.org/2000/svg" width="19" height="32" viewBox="0 0 19 32">
<title>watermark-herospath</title>
<path fill="#444" d="M9.6 5.494l-9.6 3.691v13.505c7.646-3.011 13.455-2.634 19.2-2.634v-10.871l-9.6-3.691zM19.2 20.056c-7.438 0.717-12.888 2.521-19.086 6.405 5.517 0.007 8.189 0.473 9.486-1.774 1.307 2.263 4 1.773 9.6 1.773v-6.404zM7.537 9.305h3.873l-0.009 0.015-0.948 1.537v5.57c1.029-0.449 1.496-0.926 1.671-1.431 0.176-0.507 0.058-1.043-0.084-1.605s-0.307-1.15-0.222-1.759c0.085-0.609 0.422-1.239 1.281-1.884l0.014-0.011 0.001 0.017c0.113 1.406 0.369 2.552 0.884 3.22l1.072-1.515 0.004 0.023c0.653 3.383-0.023 5.686-1.331 7.083-1.112 1.187-2.678 1.721-4.271 1.709-1.593 0.011-3.159-0.522-4.27-1.709-1.308-1.398-1.984-3.7-1.331-7.083l0.005-0.023 0.013 0.019 1.059 1.496c0.515-0.668 0.771-1.814 0.884-3.22l0.001-0.017 0.014 0.011c0.859 0.645 1.196 1.274 1.281 1.884s-0.080 1.197-0.222 1.759-0.26 1.098-0.084 1.605c0.175 0.505 0.643 0.983 1.672 1.431v-5.57l-0.958-1.552z"></path>
</svg>
