<!-- Generated by IcoMoon.io -->
<svg version="1.1" xmlns="http://www.w3.org/2000/svg" width="29" height="32" viewBox="0 0 29 32">
<title>watermark-cutiemark-apples</title>
<path fill="#444" d="M14.229 2.197h0.024c0.041 0.967 0.024 3.006-1.145 3.411-0.4 0.138-0.921 0.057-1.328-0.098-0.010-0.004-0.015-0.011-0.014-0.021 0.025-1.428 0.506-2.874 2.085-3.219 0.153-0.033 0.279-0.057 0.378-0.072zM11.609 6.028c-0.598-0.679-1.219-1.287-1.865-1.826-0.237-0.197-0.513-0.368-0.828-0.511-0.011-0.005-0.016-0.014-0.013-0.026 0.111-0.51 0.531-0.97 1.055-1.072 0.011-0.002 0.022-0 0.031 0.005 0.873 0.491 1.207 1.345 1.4 2.281 0.081 0.394 0.169 0.787 0.26 1.179 0.002 0.009-0.001 0.011-0.009 0.008s-0.014-0.009-0.018-0.017c-0.006-0.011-0.010-0.018-0.013-0.021zM11.961 7.383c0.93-0.972 1.948-1.923 3.235-2.393 2.242-0.819 3.623 0.954 3.916 2.929 0.494 3.324-1.484 6.667-5.252 6.117-0.019-0.003-0.047 0.001-0.082 0.011-0.513 0.148-1.021 0.241-1.526 0.279-2.986 0.224-5.060-1.955-5.351-4.796-0.084-0.828 0.002-1.683 0.376-2.418 0.44-0.864 1.281-1.279 2.242-1.063 0.908 0.203 1.72 0.739 2.415 1.336 0.009 0.008 0.018 0.007 0.026-0.001zM22.318 14.802c-0.007-0.003-0.010-0.011-0.008-0.018 0.163-0.43 0.427-0.768 0.92-0.781 0.052-0.001 0.103 0.012 0.151 0.039 1.367 0.779 0.998 3.102 0.811 4.346-0.001 0.004-0.004 0.007-0.008 0.007s-0.007-0.002-0.008-0.006c-0.257-0.756-0.547-1.5-0.87-2.232-0.187-0.423-0.527-1.178-0.989-1.357zM24.679 17.819c-0.017-0.001-0.034-0.002-0.052-0.003-0.008 0-0.011-0.004-0.009-0.012 0.503-1.667 1.472-2.823 3.281-3.031 0.010-0.001 0.015 0.004 0.015 0.014-0.038 1.306-0.464 2.631-1.91 2.946-0.437 0.095-0.879 0.124-1.326 0.086zM5.571 15.231c0.771-0.074 1.385 0.007 1.766 0.763 0.005 0.010 0.003 0.018-0.006 0.024-0.331 0.24-0.48 1.037-0.557 1.426-0.228 1.158-0.381 2.336-0.546 3.502-0.001 0.003-0.004 0.006-0.007 0.006s-0.006-0.002-0.007-0.005c-0.549-1.848-0.803-3.749-0.675-5.683 0.001-0.020 0.012-0.032 0.033-0.034zM29.333 20.019v0.293c-0.123 1.957-1.344 3.962-2.773 5.255-1.243 1.125-2.966 1.829-4.565 0.914-0.089-0.051-0.177-0.104-0.264-0.159-0.010-0.006-0.020-0.008-0.031-0.007-2.295 0.213-3.55-1.527-3.823-3.581-0.16-1.202-0.058-2.386 0.306-3.551 0.304-0.974 0.902-2.099 1.872-2.553 1.615-0.755 3.197 1.044 3.982 2.212 0.006 0.008 0.017 0.012 0.026 0.008 0.938-0.41 1.94-0.748 2.967-0.809 1.343-0.080 2.246 0.606 2.304 1.978zM4.102 20.396c-0.926-0.798-0.815-1.882-0.288-2.872 0.005-0.009 0.016-0.013 0.025-0.008 1.437 0.72 1.857 2.434 2.128 3.875 0.002 0.010-0.002 0.013-0.011 0.009-0.652-0.238-1.325-0.548-1.854-1.004zM4.944 29.803h-0.285c-2.53-0.15-4.206-2.668-4.594-4.938-0.025-0.145-0.046-0.352-0.065-0.622v-0.366c0.077-1.723 1.12-2.808 2.917-2.692 1.236 0.080 2.465 0.555 3.55 1.124 0.013 0.007 0.029 0.003 0.038-0.008 0.842-1.088 2.607-3.008 4.158-2.687 1.314 0.272 1.781 1.952 1.867 3.078 0.201 2.628-1.033 6.407-4.325 6.287-0.276-0.010-0.528-0.041-0.755-0.093-0.010-0.002-0.020-0.001-0.028 0.006-0.734 0.519-1.573 0.862-2.478 0.911z"></path>
</svg>
