<!-- Generated by IcoMoon.io -->
<svg version="1.1" xmlns="http://www.w3.org/2000/svg" width="19" height="32" viewBox="0 0 19 32">
<title>watermark-herospath-2</title>
<path fill="#444" d="M0 22.678v-13.505l9.6-3.691 9.6 3.691v10.871c-1.999 0-4.006-0.046-6.095 0.022l0.174-2.706h-0.949c-0.066 0.258-0.151 0.454-0.256 0.586-0.099 0.127-0.237 0.217-0.412 0.272-0.176 0.050-0.443 0.074-0.8 0.074h-2.928v-0.082c0.176-0.236 0.448-0.564 0.817-0.981 0.368-0.424 0.764-0.842 1.188-1.254 0.946-0.891 1.617-1.576 2.013-2.054 0.401-0.479 0.682-0.905 0.842-1.279 0.165-0.374 0.247-0.778 0.247-1.212 0-0.495-0.115-0.927-0.346-1.295-0.226-0.374-0.594-0.668-1.105-0.883-0.511-0.22-1.171-0.33-1.98-0.33-0.434 0-0.839 0.027-1.213 0.082-0.368 0.055-0.742 0.137-1.122 0.248-0.379 0.104-0.905 0.291-1.575 0.561v1.947h1.485c0.132-0.671 0.341-1.16 0.627-1.468 0.291-0.313 0.657-0.47 1.097-0.47 0.467 0 0.836 0.173 1.105 0.52 0.269 0.341 0.404 0.814 0.404 1.419 0 0.429-0.077 0.844-0.231 1.246s-0.388 0.828-0.701 1.278c-0.308 0.451-0.759 1.026-1.353 1.724-0.627 0.737-1.16 1.416-1.6 2.037-0.434 0.621-0.767 1.196-0.998 1.724v0.544h3.972c-2.897 0.32-6.009 0.989-9.505 2.365zM19.2 20.044v6.475l-4.342-0.027c-2.072-0.001-3.481-0.138-4.439-0.869-0.070-0.057-0.155-0.123-0.231-0.195-0.063-0.063-0.14-0.137-0.208-0.216-0.057-0.071-0.117-0.142-0.177-0.226-0.068-0.099-0.137-0.194-0.203-0.311-0.057 0.092-0.127 0.208-0.2 0.307-0.052 0.068-0.114 0.154-0.18 0.228-0.067 0.077-0.136 0.149-0.208 0.217-0.074 0.070-0.151 0.134-0.231 0.195-0.958 0.731-2.367 0.868-4.439 0.869l-4.342 0.027c6.245-3.934 11.717-5.754 19.2-6.475z"></path>
</svg>
