<!-- Generated by IcoMoon.io -->
<svg version="1.1" xmlns="http://www.w3.org/2000/svg" width="32" height="32" viewBox="0 0 32 32">
<title>watermark-junioreurope</title>
<path fill="#444" d="M9.653 12.86l0.219-1.026h-0.369c-0.229 0-0.41-0.137-0.459-0.333-0.146-0.1-0.237-0.262-0.237-0.454 0-0.066 0.005-0.096 0.023-0.195l0.101-0.478c0.076-0.306 0.284-0.468 0.6-0.468h2.011c0.384 0 0.591 0.288 0.591 0.56 0 0.064-0.004 0.136-0.030 0.226 0 0.001 0.001 0.002 0.001 0.003 0.079-0.041 0.173-0.063 0.277-0.063h0.476c0.3 0 0.536 0.231 0.536 0.526 0 0.060-0.012 0.128-0.018 0.164l-0.001 0.007-0.011 0.054c0.004 0.014 0.008 0.029 0.011 0.044l0.075-0.347c0.051-0.275 0.26-0.447 0.546-0.447h0.467c0.172 0 0.325 0.081 0.422 0.207 0.098-0.131 0.254-0.207 0.444-0.207h0.346c0.266 0 0.451 0.133 0.536 0.386l0.002 0.006 0.108 0.338 0.060-0.281c0.051-0.275 0.26-0.448 0.546-0.448h0.423c0.132 0 0.255 0.046 0.35 0.128 0.096-0.083 0.223-0.128 0.372-0.128h1.198c0.252 0 0.458 0.162 0.518 0.389 0.327-0.316 0.722-0.47 1.2-0.47 0.547 0 0.967 0.246 1.188 0.677l0.037-0.171c0.067-0.27 0.266-0.425 0.546-0.425h0.688c0.424 0 0.766 0.048 1.060 0.281 0.28 0.222 0.434 0.559 0.434 0.948 0 0.080-0.006 0.16-0.018 0.24 0.003 0.035 0.005 0.070 0.005 0.105 0 0.418-0.182 0.854-0.465 1.112-0.035 0.033-0.071 0.063-0.109 0.091l0.239 0.662c0.022 0.056 0.049 0.124 0.049 0.234 0 0.069-0.014 0.135-0.039 0.196 0.015 0.043 0.026 0.086 0.026 0.15 0 0.187-0.129 0.346-0.323 0.396l-0.48 0.128c-0.052 0.012-0.081 0.018-0.135 0.018-0.069 0-0.301-0.023-0.391-0.316-0.084-0.058-0.159-0.147-0.206-0.275l-0.032 0.155-0.001 0.007-0.002 0.007c-0.054 0.217-0.207 0.336-0.431 0.336h-0.452c-0.208 0-0.376-0.135-0.417-0.32-0.062-0.041-0.115-0.095-0.154-0.158-0.226 0.257-0.492 0.425-0.795 0.505 0.098 0.089 0.166 0.204 0.166 0.385 0 0.015-0 0.029-0.001 0.043 0.075-0.035 0.162-0.054 0.258-0.054h1.605c0.144 0 0.272 0.044 0.369 0.125 0.096-0.078 0.22-0.12 0.361-0.12h0.685c0.422 0 0.763 0.048 1.056 0.28 0.062 0.049 0.118 0.104 0.167 0.164v-0.001c0.052-0.276 0.256-0.443 0.545-0.443h1.193c0.133 0 0.257 0.046 0.353 0.128 0.097-0.086 0.226-0.133 0.376-0.133h1.605c0.158 0 0.297 0.053 0.397 0.149 0.079-0.042 0.164-0.079 0.253-0.109-9.263-16.89-39.874-4.739-27.137 9.083-2.722-6.581 1.382-10.67 6.598-11.771zM9.637 10.547c-0.182 0-0.27 0.069-0.314 0.245l-0.097 0.459c-0.017 0.092-0.019 0.102-0.019 0.142 0 0.131 0.101 0.264 0.295 0.264h0.888l-0.63 2.952c-0.114 0.538-0.262 0.582-0.416 0.582-0.116 0-0.192-0.016-0.192-0.231 0-0.041 0.018-0.187 0.040-0.286 0.010-0.029 0.015-0.062 0.015-0.099 0-0.053-0.019-0.225-0.264-0.225h-0.723c-0.311 0-0.311 0.443-0.311 0.767 0 0.783 0.501 1.269 1.309 1.269 0.557 0 1.031-0.193 1.369-0.557 0.279-0.287 0.436-0.65 0.58-1.336l0.752-3.526c0.021-0.069 0.021-0.119 0.021-0.156 0-0.127-0.092-0.264-0.295-0.264h-2.011zM21.090 11.191c0.666 0 1.063 0.435 1.063 1.164 0 0.756-0.255 1.61-0.62 2.077-0.307 0.389-0.685 0.578-1.155 0.578-0.682 0-1.073-0.426-1.073-1.169 0-0.758 0.255-1.61 0.62-2.073 0.302-0.388 0.683-0.578 1.164-0.578zM21.009 12.046c-0.051 0-0.205 0-0.399 0.388-0.17 0.345-0.294 0.931-0.294 1.393 0 0.328 0.066 0.328 0.131 0.328 0.089 0 0.228-0.040 0.4-0.383 0.171-0.337 0.299-0.935 0.299-1.393 0-0.333-0.066-0.333-0.135-0.333zM12.487 11.273c-0.142 0-0.225 0.064-0.259 0.202l-0.448 2.12c-0.035 0.15-0.053 0.303-0.053 0.454 0 0.602 0.419 0.947 1.149 0.947 0.412 0 0.74-0.108 0.999-0.33 0.273-0.227 0.351-0.426 0.474-0.995l0.437-2.062c0.007-0.029 0.014-0.075 0.014-0.107 0-0.127-0.106-0.23-0.235-0.23h-0.467c-0.145 0-0.231 0.071-0.256 0.211l-0.457 2.127c-0.043 0.22-0.086 0.307-0.136 0.369-0.078 0.095-0.186 0.147-0.306 0.147-0.214 0-0.232-0.095-0.232-0.183 0-0.068 0.007-0.106 0.039-0.271l0.438-2.062c0.002-0.011 0.013-0.067 0.013-0.106 0-0.129-0.105-0.23-0.24-0.23h-0.476zM15.432 11.273c-0.145 0-0.231 0.071-0.256 0.211l-0.664 3.116c-0.010 0.058-0.012 0.069-0.012 0.099 0 0.127 0.105 0.23 0.235 0.23h0.423c0.142 0 0.224-0.064 0.259-0.202l0.309-1.456 0.465 1.467c0.045 0.169 0.161 0.191 0.257 0.191h0.308c0.142 0 0.224-0.064 0.259-0.202l0.659-3.113c0.015-0.052 0.015-0.11 0.015-0.111 0-0.131-0.101-0.23-0.235-0.23h-0.423c-0.145 0-0.231 0.071-0.256 0.211l-0.291 1.373-0.448-1.401c-0.043-0.129-0.119-0.184-0.255-0.184h-0.346zM18.174 11.273c-0.146 0-0.23 0.069-0.256 0.21l-0.063 0.278c-0.011 0.058-0.012 0.079-0.012 0.099 0 0.129 0.108 0.23 0.245 0.23h0.060l-0.43 2.022h-0.145c-0.142 0-0.224 0.064-0.259 0.202l-0.060 0.282c-0.010 0.052-0.013 0.065-0.013 0.102 0 0.114 0.086 0.23 0.25 0.23h1.189c0.189 0 0.239-0.12 0.26-0.214l0.052-0.256c0.015-0.061 0.019-0.076 0.019-0.116 0-0.133-0.103-0.23-0.245-0.23h-0.060l0.43-2.022h0.145c0.142 0 0.224-0.064 0.259-0.202l0.059-0.281 0.004-0.022c0.005-0.029 0.009-0.055 0.009-0.082 0-0.131-0.103-0.23-0.24-0.23h-1.198zM22.86 11.273h0.688c0.434 0 0.679 0.061 0.876 0.216 0.208 0.165 0.322 0.419 0.322 0.716 0 0.366-0.165 0.761-0.41 0.983-0.080 0.075-0.172 0.138-0.322 0.217l0.402 1.114c0.021 0.053 0.031 0.078 0.031 0.131 0 0.082-0.050 0.19-0.192 0.225l-0.471 0.126c-0.048 0.011-0.062 0.014-0.096 0.014-0.062 0-0.172-0.025-0.223-0.194l-0.353-1.184-0.229 1.090c-0.034 0.138-0.117 0.202-0.259 0.202h-0.452c-0.142 0-0.25-0.099-0.25-0.23 0-0.036 0.004-0.051 0.019-0.112l0.66-3.112c0.034-0.138 0.116-0.202 0.259-0.202zM23.437 12.118l-0.126 0.592c0.19-0.005 0.261-0.038 0.319-0.097 0.061-0.061 0.126-0.212 0.126-0.351 0-0.062-0.022-0.107-0.038-0.121-0.037-0.016-0.111-0.024-0.232-0.024h-0.049zM19.231 15.283c-1.361 0-2.207 0.73-2.207 1.906 0 0.447 0.136 0.805 0.405 1.064 0.155 0.146 0.266 0.231 0.707 0.512 0.611 0.394 0.64 0.489 0.64 0.731 0 0.494-0.44 0.568-0.703 0.568-0.237 0-0.537-0.071-0.761-0.179-0.339-0.169-0.339-0.169-0.42-0.169-0.144 0-0.197 0.097-0.24 0.174l-0.349 0.666-0.003 0.008c-0.019 0.046-0.029 0.071-0.029 0.121 0 0.171 0.168 0.243 0.256 0.281 0.512 0.227 0.974 0.332 1.452 0.332 1.318 0 2.239-0.833 2.239-2.025 0-0.619-0.259-1.010-0.955-1.443-0.543-0.341-0.543-0.341-0.669-0.453-0.115-0.098-0.159-0.195-0.159-0.349 0-0.346 0.239-0.544 0.655-0.544 0.253 0 0.522 0.077 0.776 0.222l0.009 0.005c0.143 0.071 0.196 0.098 0.285 0.098 0.098 0 0.192-0.060 0.236-0.15l0.323-0.615c0.045-0.081 0.062-0.112 0.062-0.181 0-0.141-0.071-0.183-0.263-0.296-0.276-0.16-0.841-0.286-1.286-0.286zM30.994 16.083c0.28 0 0.637 0.080 0.813 0.182 0.121 0.072 0.194 0.114 0.194 0.24 0 0.060-0.017 0.092-0.046 0.144l-0.195 0.37c-0.038 0.077-0.119 0.128-0.205 0.128-0.071 0-0.115-0.022-0.204-0.067l-0.009-0.005c-0.143-0.082-0.293-0.125-0.434-0.125-0.149 0-0.326 0.045-0.326 0.259 0 0.072 0.018 0.111 0.072 0.157 0.073 0.065 0.073 0.065 0.396 0.268 0.445 0.276 0.61 0.529 0.61 0.931 0 0.762-0.585 1.294-1.423 1.294-0.299 0-0.587-0.066-0.906-0.207-0.032-0.014-0.090-0.038-0.134-0.084l-0.002 0.008c-0.022 0.095-0.071 0.215-0.26 0.215h-1.576c-0.145 0-0.249-0.099-0.249-0.235 0-0.031 0.003-0.043 0.019-0.107l0.657-3.098c0.034-0.137 0.116-0.202 0.258-0.202h1.605c0.175 0 0.254 0.112 0.254 0.216 0 0.059-0.018 0.102-0.044 0.154 0.241-0.279 0.633-0.437 1.135-0.437zM29.639 16.932c-0.050 0.053-0.119 0.080-0.206 0.080h-0.8l-0.097 0.455h0.6c0.142 0 0.245 0.097 0.245 0.23 0 0.016 0 0.053-0.014 0.095l-0.006 0.019-0.064 0.308c-0.025 0.14-0.113 0.211-0.261 0.211h-0.681l-0.129 0.598h0.805c0.119 0 0.213 0.072 0.238 0.174l0.105-0.201c0.027-0.049 0.078-0.141 0.206-0.141 0.066 0 0.074 0.004 0.285 0.11 0.126 0.061 0.295 0.101 0.428 0.101 0.235 0 0.354-0.092 0.354-0.273 0-0.112-0-0.154-0.355-0.383-0.271-0.173-0.341-0.226-0.438-0.317-0.177-0.171-0.266-0.404-0.266-0.694 0-0.133 0.017-0.258 0.049-0.372zM21.333 16.15c-0.142 0-0.224 0.064-0.258 0.202l-0.657 3.098c-0.016 0.064-0.019 0.076-0.019 0.107 0 0.136 0.105 0.235 0.249 0.235h1.576c0.189 0 0.238-0.12 0.26-0.215l0.060-0.305 0.006-0.019c0.014-0.041 0.014-0.078 0.014-0.094 0-0.131-0.105-0.23-0.245-0.23h-0.805l0.129-0.598h0.681c0.148 0 0.236-0.071 0.26-0.211l0.064-0.308 0.006-0.019c0.014-0.041 0.014-0.078 0.014-0.094 0-0.133-0.103-0.23-0.245-0.23h-0.6l0.097-0.455h0.8c0.119 0 0.204-0.051 0.255-0.151l0.168-0.335c0.028-0.056 0.048-0.1 0.048-0.161 0-0.104-0.079-0.216-0.254-0.216h-1.605zM23.668 16.155h0.685c0.432 0 0.677 0.060 0.872 0.216 0.207 0.164 0.321 0.418 0.321 0.714 0 0.364-0.164 0.758-0.408 0.98-0.079 0.075-0.171 0.138-0.32 0.216 0 0 0.401 1.111 0.402 1.112l0.044-0.208c0.034-0.137 0.116-0.201 0.258-0.201h0.144l0.428-2.012h-0.059c-0.137 0-0.245-0.101-0.245-0.23 0-0.020 0.002-0.041 0.012-0.099l0.063-0.276c0.025-0.141 0.109-0.209 0.256-0.209h1.193c0.137 0 0.24 0.099 0.24 0.23 0 0.027-0.004 0.052-0.009 0.080l-0.004 0.023-0.059 0.28c-0.034 0.137-0.117 0.201-0.259 0.201h-0.144l-0.428 2.012h0.059c0.142 0 0.244 0.097 0.244 0.23 0 0.040-0.004 0.057-0.019 0.116l-0.052 0.255c-0.022 0.094-0.071 0.214-0.26 0.214h-1.183c-0.124 0-0.204-0.067-0.235-0.149-0.025 0.034-0.070 0.076-0.149 0.096l-0.47 0.126c-0.047 0.010-0.062 0.014-0.096 0.014-0.061 0-0.172-0.025-0.223-0.194l-0.351-1.176-0.227 1.082c-0.035 0.137-0.117 0.201-0.258 0.201h-0.45c-0.142 0-0.249-0.099-0.249-0.23 0-0.036 0.004-0.051 0.019-0.112l0.657-3.098c0.034-0.138 0.116-0.202 0.258-0.202zM24.243 16.998l-0.125 0.588c0.188-0.005 0.258-0.038 0.316-0.096 0.060-0.060 0.125-0.211 0.125-0.349 0-0.062-0.021-0.106-0.037-0.12-0.036-0.016-0.11-0.024-0.231-0.024h-0.048zM14.14 18.209c-0.033-0.004-0.076 0.009-0.131 0.047-0.010 0.007-0.026 0.017-0.046 0.026-0.043 0.020-0.106 0.039-0.188 0.034-0.088-0.005-0.139-0.021-0.195-0.035-0.071-0.018-0.15-0.035-0.285-0.035-0.405 0-0.788 0.312-0.801 0.795-0.013 0.471 0.293 0.991 0.844 1.016 0.291 0.013 0.845-0.139 1.096-0.247 0.007-0.003 0.057-0.047 0.061-0.053l0.11-0.183c0.079-0.131 0.046-0.241-0.098-0.198-0.238 0.071-0.369 0.097-0.713 0.123-0.547 0.042-0.504-0.232-0.493-0.418 0.012-0.205 0.152-0.354 0.221-0.349 0.157 0.010 0.201 0.025 0.229 0.228 0.005 0.036 0.062 0.101 0.096 0.11l0.088 0.023c0.072 0.019 0.146-0.028 0.161-0.102 0.024-0.114 0.121-0.3 0.152-0.327 0.005-0.005 0.058-0.072 0.033-0.169-0.005-0.021-0.013-0.049-0.020-0.077-0.011-0.040-0.023-0.197-0.122-0.208zM12.421 18.236c-0.008 0-0.015 0.001-0.022 0.003-0.237 0.058-0.656 0.066-0.773 0.044-0.043-0.008-0.12 0.030-0.14 0.069l-0.041 0.080c-0.040 0.077-0.007 0.161 0.074 0.189 0.112 0.039 0.157 0.119 0.177 0.22 0.011 0.057 0.012 0.114 0.011 0.166-0.001 0.060-0.005 0.113-0.005 0.15 0 0.166-0.058 0.33-0.083 0.466-0.026 0.138-0.064 0.21-0.097 0.236-0.038 0.031-0.058 0.116-0.038 0.161l0.041 0.091c0.053 0.118 0.162 0.126 0.23 0.015 0.067-0.108 0.434-0.216 0.612-0.126 0.041 0.021 0.126 0.004 0.156-0.032l0.052-0.061c0.049-0.057 0.041-0.145-0.017-0.192-0.167-0.137-0.202-0.243-0.209-0.32-0.013-0.148 0.010-0.238 0.010-0.304 0-0.17 0.006-0.296 0.031-0.385 0.023-0.080 0.055-0.111 0.104-0.125 0.074-0.021 0.113-0.101 0.087-0.174l-0.030-0.084c-0.018-0.050-0.078-0.088-0.132-0.087zM11.197 18.246c-0.032-0.003-0.072 0.012-0.122 0.055-0.011 0.007-0.026 0.016-0.045 0.025-0.041 0.019-0.103 0.038-0.183 0.034-0.091-0.006-0.181-0.026-0.278-0.045-0.109-0.021-0.224-0.042-0.352-0.043-0.362-0.005-0.762 0.206-0.779 0.801-0.013 0.478 0.382 0.935 0.795 0.967 0.049 0.004 0.095 0 0.138-0.007 0.038-0.006 0.077-0.017 0.119-0.028 0.071-0.019 0.153-0.041 0.267-0.050 0.049-0.004 0.124 0.049 0.134 0.074 0.008 0.019 0.068 0.073 0.088 0.078l0.112 0.031c0.095 0.026 0.167-0.032 0.165-0.133-0.001-0.037-0.005-0.101-0.014-0.166-0.008-0.056 0.002-0.136 0.013-0.183 0.015-0.068 0.057-0.106 0.145-0.129 0.166-0.042 0.204-0.104 0.147-0.2l-0.067-0.114c-0.005-0.009-0.060-0.054-0.069-0.057-0.132-0.047-0.677-0.013-0.805 0.038-0.052 0.021-0.084 0.096-0.094 0.15l-0.018 0.089c0.011 0.054 0.087 0.101 0.194 0.104l-0.077 0c-0.355 0.061-0.405-0.227-0.391-0.456 0.011-0.181 0.159-0.337 0.317-0.314 0.194 0.029 0.261 0.054 0.285 0.226 0.005 0.036 0.062 0.102 0.096 0.111l0.086 0.023c0.072 0.020 0.146-0.028 0.161-0.101 0.023-0.112 0.119-0.293 0.149-0.32 0.005-0.004 0.058-0.071 0.034-0.169-0.005-0.020-0.013-0.048-0.020-0.075-0.011-0.039-0.034-0.207-0.13-0.215zM6.168 18.278c0.015-0 0.030 0.002 0.042 0.007 0.082 0.034 0.477 0.078 0.631 0.009 0.017-0.008 0.098-0.005 0.115 0.003 0 0 0.029 0.015 0.058 0.030 0.102 0.054 0.16 0.058 0.116 0.2s-0.003 0.392 0.133 0.626c0.047 0.082 0.132 0.252 0.218 0.441 0.017-0.11 0.070-0.212 0.141-0.301 0.093-0.118 0.154-0.273 0.181-0.352 0.030-0.086 0.124-0.166 0.236-0.144 0.009 0.002 0.019 0.005 0.028 0.009-0.184-0.072-0.373-0.142-0.383-0.146-0.1-0.036-0.125-0.129-0.057-0.211l0.095-0.114c0.024-0.029 0.108-0.054 0.144-0.042 0.106 0.034 0.733 0.133 0.942 0.041 0.028-0.013 0.111 0 0.135 0.019l0.125 0.109c0.009 0.007 0.056 0.035 0.064 0.077 0.074 0.383 0.209 0.868 0.492 1.273 0.034 0.050-0.044 0.131-0.109 0.219-0.015 0.020-0.126-0.030-0.154-0.039-0.262-0.085-0.431-0.035-0.473 0.007-0.056 0.057-0.146 0.053-0.197-0.008l-0.103-0.12c-0.038-0.074 0.024-0.157 0.026-0.166s0.002-0.024 0.001-0.045c-0.004-0.050-0.020-0.125-0.042-0.207 0.019 0.105-0.045 0.186-0.126 0.22-0.008 0.003-0.027 0.011-0.052 0.057-0.014 0.025-0.028 0.055-0.042 0.090-0.016 0.039-0.033 0.082-0.052 0.131s-0.096 0.092-0.147 0.083c-0.093-0.016-0.194-0.009-0.286-0.001-0.049 0.005-0.092 0.009-0.125 0.010-0.026 0.001-0.050-0.002-0.071-0.006 0.042 0.106 0.075 0.2 0.090 0.264 0.015 0.062 0.023 0.107 0.037 0.145 0.009 0.023 0.021 0.044 0.049 0.074 0.015 0.017 0.038 0.037 0.067 0.058 0.030 0.022 0.063 0.043 0.096 0.064 0.037 0.024 0.074 0.048 0.107 0.072 0.034 0.026 0.071 0.057 0.102 0.094 0.019 0.023 0.031 0.108 0.019 0.136l-0.042 0.099c-0.024 0.058-0.105 0.094-0.164 0.075-0.472-0.152-0.978-0.117-1.164 0.031-0.050 0.039-0.138 0.033-0.181-0.014l-0.103-0.11c-0.052-0.056-0.047-0.145 0.011-0.193 0.152-0.128 0.225-0.2 0.26-0.253 0.023-0.036 0.026-0.055 0.014-0.102-0.029-0.108-0.11-0.296-0.201-0.491-0.089-0.19-0.181-0.373-0.226-0.468-0.040 0.023-0.082 0.036-0.126 0.031-0.001 0.059-0.029 0.114-0.062 0.152-0.020 0.027-0.122 0.176-0.049 0.413 0.017 0.055 0.056 0.151 0.097 0.261 0.044 0.119 0.088 0.255 0.112 0.378 0.014 0.071-0.036 0.144-0.107 0.158-0.148 0.027-0.393 0.297-0.429 0.373-0.002 0.004-0.097 0.11-0.209 0.047l-0.053-0.029-0.075-0.043c-0.079-0.043-0.053-0.174-0.053-0.174 0.002-0.014 0.001-0.041-0.001-0.096-0.006-0.108-0.035-0.305-0.135-0.636-0.189-0.63-0.436-0.922-0.527-1.009l-0.005 0.009c-0.012 0.024-0.022 0.048-0.029 0.065-0.027 0.067-0.072 0.11-0.127 0.127 0.023 0.047 0.026 0.107-0.003 0.183-0.023 0.051-0.082 0.179-0.131 0.316-0.037 0.104-0.104 0.244-0.138 0.377s-0.017 0.191 0.012 0.217c0.026 0.023 0.045 0.035 0.055 0.041 0.132 0.077 0.1 0.219 0.1 0.219 0 0.087-0.069 0.145-0.154 0.132-0.364-0.056-0.686 0.079-0.769 0.156-0.071 0.067-0.163 0.052-0.209-0.035l-0.057-0.107c-0.030-0.056-0.008-0.141 0.046-0.176 0.001-0 0.15-0.096 0.233-0.202 0.075-0.094 0.154-0.277 0.227-0.474s0.132-0.385 0.166-0.467c0.060-0.145 0.086-0.209 0.101-0.246 0.024-0.065 0.066-0.1 0.112-0.115-0.029-0.052-0.030-0.118 0.014-0.201 0.021-0.055 0.117-0.358 0.119-0.37-0.017-0.005-0.144-0.039-0.162-0.042-0.156-0.031-0.185-0.105-0.102-0.231 0.010-0.014 0.098-0.133 0.098-0.133 0.034-0.040 0.069-0.053 0.109-0.051l0.831 0.023c0.064 0.001 0.127 0.064 0.13 0.128 0.001 0.012 0.008 0.039 0.048 0.104 0.040 0.066 0.097 0.144 0.165 0.247 0.076 0.114 0.141 0.235 0.205 0.345 0.032 0.055 0.063 0.105 0.093 0.149 0.021-0.020 0.039-0.033 0.054-0.045 0.054-0.047 0.114-0.064 0.171-0.057-0.001-0.055 0.020-0.112 0.073-0.159 0.015-0.014 0.037-0.036 0.067-0.076s0.071-0.101 0.12-0.192c-0.004-0.001-0.009-0.002-0.014-0.007-0.031-0.028-0.239-0.131-0.253-0.138-0.075-0.036-0.099-0.123-0.054-0.193l0.084-0.129c0.022-0.034 0.074-0.057 0.12-0.059zM8.095 18.818c0.004 0.002 0.009 0.004 0.012 0.005 0.016 0.007 0.036 0.014 0.053 0.021 0.035 0.014 0.077 0.032 0.077 0.032 0.068 0.047 0.092 0.152 0.062 0.252-0.003 0.014-0.007 0.029-0.011 0.042l0.021-0.002c0.010-0 0.041-0.002 0.073 0.005 0.041 0.010 0.098 0.036 0.132 0.101 0.009 0.025 0.015 0.044 0.022 0.063-0.049-0.16-0.108-0.323-0.143-0.393-0.049-0.027-0.171-0.077-0.299-0.127zM8.529 20.333l-0.012 0.175h0.062c0.010-0.056 0.029-0.083 0.090-0.083v0.438h-0.054v0.067l0.291-0.001v-0.066h-0.053v-0.438c0.062 0 0.080 0.027 0.091 0.082l0.062 0.001-0.012-0.175h-0.065v0.014h-0.335l0.001-0.014h-0.065zM9.273 20.333l-0.218 0.075v0.052l0.030-0.010v0.429l-0.032-0v0.051l0.222 0v-0.051h-0.033v-0.242c0.015-0.020 0.036-0.035 0.061-0.035 0.040-0.001 0.053 0.020 0.053 0.059v0.218h-0.032v0.051h0.219v-0.051h-0.031l-0.001-0.263c0-0.052-0.023-0.118-0.115-0.118-0.066 0-0.106 0.031-0.155 0.073v-0.169l0.032-0.011v-0.057zM10.614 20.333c-0.189 0-0.34 0.143-0.34 0.328 0 0.171 0.109 0.282 0.274 0.282 0.083 0 0.149-0.029 0.206-0.071l0.038 0.057h0.046v-0.272c0-0.023 0.006-0.032 0.024-0.046l-0.020-0.042c-0.013 0.005-0.027 0.013-0.041 0.013h-0.231v0.066h0.101v0.185c-0.125 0-0.212-0.069-0.212-0.241 0-0.041 0.003-0.178 0.113-0.178 0.029 0 0.058 0.015 0.058 0.048-0 0.012-0.003 0.024-0.012 0.032l0.032 0.048 0.185-0.119-0.036-0.054-0.031 0.020c-0.044-0.029-0.098-0.057-0.152-0.057zM11.949 20.333l-0.217 0.075v0.052l0.030-0.010v0.428h-0.032v0.051l0.221 0v-0.051h-0.034v-0.242c0.015-0.020 0.036-0.036 0.061-0.036 0.040 0 0.053 0.020 0.053 0.059v0.219h-0.032v0.051h0.219v-0.051h-0.031v-0.263c0-0.052-0.024-0.118-0.115-0.118-0.066-0-0.106 0.031-0.155 0.072v-0.169l0.032-0.011-0-0.057zM13.24 20.37c-0.037-0-0.092 0.031-0.092 0.073 0 0.035 0.024 0.053 0.058 0.053 0.043 0 0.11-0.019 0.11-0.073 0-0.044-0.039-0.054-0.076-0.054zM11.552 20.4c-0.026 0.065-0.086 0.111-0.153 0.13v0.047h0.042v0.253c0 0.074 0.030 0.113 0.107 0.113 0.055 0 0.104-0.030 0.147-0.061l-0.022-0.037c-0.012 0.008-0.026 0.014-0.041 0.014-0.013 0-0.035-0.008-0.035-0.034v-0.247l0.063 0.001 0.013-0.067h-0.076v-0.035c0-0.022 0.001-0.045 0.006-0.066l-0.051-0.010zM14.32 20.432c-0.046 0-0.061 0.013-0.071 0.044l-0.010 0.033c-0.024-0.004-0.048-0.011-0.094-0.011-0.093 0-0.19 0.053-0.19 0.176 0 0.089 0.074 0.14 0.147 0.151v0.002c-0.053 0.020-0.107 0.037-0.163 0.045l0.057 0.055c0.036-0.005 0.066-0.002 0.114 0.003v0.001c-0.037 0.005-0.082 0.032-0.083 0.074 0 0.069 0.077 0.085 0.152 0.085 0.051 0 0.175-0.022 0.175-0.115 0-0.096-0.143-0.111-0.213-0.118v-0.002c0.103-0.026 0.227-0.053 0.227-0.187-0-0.1-0.080-0.127-0.080-0.143 0-0.009 0.005-0.019 0.015-0.019 0.015 0 0.020 0.007 0.031 0.017l0.019-0.087c-0.011-0.001-0.022-0.002-0.032-0.002zM14.137 20.551c-0.031 0-0.044 0.016-0.044 0.057 0 0.046 0.026 0.175 0.091 0.175 0.032 0 0.044-0.016 0.044-0.057 0-0.046-0.026-0.175-0.091-0.175zM14.162 20.946c-0.011 0.017-0.015 0.038-0.015 0.058s0.011 0.044 0.035 0.044c0.021 0 0.032-0.010 0.032-0.031 0-0.040-0.022-0.053-0.052-0.071zM11.025 20.477l0.051 0.017-0.008 0.023c0.032-0.014 0.068-0.020 0.103-0.020 0.095 0 0.158 0.041 0.159 0.142v0.239h0.027v0.051h-0.171l-0.010-0.040c-0.035 0.030-0.073 0.053-0.121 0.053-0.078 0-0.136-0.050-0.135-0.129 0-0.099 0.061-0.156 0.137-0.156h0.117v-0.021c0-0.035-0.019-0.056-0.056-0.056-0.049 0-0.071 0.036-0.095 0.066l-0.053-0.019 0.054-0.148zM11.15 20.708c-0.043 0-0.074 0.030-0.074 0.074 0 0.033 0.010 0.071 0.051 0.071 0.039 0 0.047-0.030 0.047-0.062v-0.082h-0.025zM12.482 20.497c0.115 0 0.179 0.076 0.209 0.18l-0.243 0.089c0.020 0.049 0.055 0.075 0.107 0.075 0.040 0 0.078-0.014 0.104-0.045l0.032 0.035c-0.050 0.066-0.118 0.111-0.212 0.111-0.129 0-0.208-0.090-0.208-0.226 0-0.118 0.090-0.218 0.21-0.219zM12.456 20.562c-0.034-0.001-0.047 0.026-0.047 0.062 0.001 0.034 0.010 0.056 0.015 0.079l0.11-0.042c-0.012-0.036-0.032-0.099-0.078-0.099zM12.909 20.497l-0.171 0.046v0.052l0.027-0.011v0.294h-0.029v0.051h0.227v-0.051h-0.042v-0.207c0.017-0.026 0.041-0.031 0.056-0.032 0.025 0.002 0.047 0.011 0.069 0.019l0.051-0.144-0.047-0.016-0.010 0.017c-0.024-0.012-0.038-0.017-0.063-0.017-0.040-0-0.056 0.071-0.066 0.101h-0.002v-0.101zM13.31 20.497l-0.187 0.053v0.049l0.031-0.006v0.285h-0.033v0.051h0.217v-0.051h-0.028v-0.381zM13.592 20.497l-0.188 0.051v0.050l0.030-0.009v0.288h-0.030v0.051h0.22v-0.051h-0.033v-0.243c0.020-0.018 0.041-0.035 0.070-0.035 0.023 0 0.045 0.013 0.045 0.038v0.24h-0.033v0.051h0.218v-0.051h-0.029v-0.26c-0-0.047-0.015-0.121-0.124-0.121-0.059 0-0.102 0.035-0.146 0.069v-0.069zM9.806 20.497c0.115 0 0.179 0.076 0.209 0.18l-0.242 0.088c0.020 0.049 0.055 0.075 0.108 0.075 0.040 0 0.078-0.014 0.104-0.045l0.033 0.035c-0.050 0.066-0.118 0.111-0.213 0.111-0.129 0-0.208-0.090-0.208-0.226 0-0.118 0.090-0.218 0.21-0.218zM9.779 20.562c-0.033 0.001-0.047 0.027-0.047 0.063 0 0.034 0.010 0.055 0.014 0.078l0.11-0.042c-0.012-0.037-0.031-0.099-0.077-0.099z"></path>
</svg>
