<!-- Generated by IcoMoon.io -->
<svg version="1.1" xmlns="http://www.w3.org/2000/svg" width="20" height="32" viewBox="0 0 20 32">
<title>watermark-desparked</title>
<path fill="#444" d="M10.067-0c-0.085 0-0.17 0.029-0.172 0.086-0.23 8.17-1.558 13.049-1.558 13.049l-1.392 0.136c0 0-0.852-1.738-1.307-9.709-0.008-0.148-0.437-0.148-0.446 0-0.481 7.981-1.592 10.516-1.592 10.516l-1.295 0.352c0 0-0.756-0.958-1.303-6.611-0.013-0.135-0.398-0.136-0.407 0-0.375 5.621-0.594 8.859-0.594 8.859s8.774 2.759 9.895 15.155c0.020 0.225 0.326 0.224 0.344 0 0.97-12.377 9.921-15.155 9.921-15.155s-0.291-3.306-0.675-8.859c-0.009-0.124-0.362-0.124-0.374 0-0.494 5.458-1.401 6.611-1.401 6.611l-1.146-0.352c0 0-1.119-2.017-1.681-10.516-0.009-0.134-0.395-0.134-0.403 0-0.53 8.426-1.354 9.709-1.354 9.709l-1.312-0.136c0 0-1.352-4.88-1.575-13.049-0.002-0.057-0.087-0.086-0.172-0.086zM10.093 11.084l0.485 3.601-1.609 1.993 6.64-1.153-5.25 4.69c0.802 0.332 1.55 0.687 2.356 1.011l-2.233 2.749-0.389 3.277-0.656-3.613 1.345-1.812-3.782-1.056 4.407-3.313-5.919 1.248 4.178-4.525 0.428-3.097z"></path>
</svg>
