<!-- Generated by IcoMoon.io -->
<svg version="1.1" xmlns="http://www.w3.org/2000/svg" width="19" height="32" viewBox="0 0 19 32">
<title>watermark-herospath-1</title>
<path fill="#444" d="M0 22.678v-13.505l9.6-3.691 9.6 3.691v10.871c-1.903 0-3.812-0.041-5.793 0.013v-0.189c-0.424-0.011-0.765-0.030-1.023-0.058-0.259-0.033-0.473-0.077-0.643-0.132-0.171-0.060-0.302-0.14-0.396-0.239-0.088-0.104-0.151-0.237-0.19-0.396-0.033-0.165-0.050-0.407-0.050-0.726v-6.896c0-0.935 0.017-1.666 0.050-2.194h-1.056l-4.306 2.582 0.503 0.874c0.572-0.39 0.982-0.649 1.229-0.776 0.253-0.127 0.448-0.19 0.586-0.19 0.149 0 0.264 0.050 0.346 0.149 0.088 0.099 0.132 0.261 0.132 0.487v5.964c0 0.385-0.033 0.663-0.099 0.833-0.061 0.171-0.159 0.302-0.297 0.396s-0.338 0.165-0.602 0.215c-0.258 0.044-0.693 0.080-1.303 0.107v0.751h1.034c-2.271 0.387-4.687 1.022-7.322 2.060zM19.2 20.044v6.475l-4.342-0.027c-2.072-0.001-3.481-0.138-4.439-0.869-0.070-0.057-0.155-0.123-0.231-0.195-0.063-0.063-0.14-0.137-0.208-0.216-0.057-0.071-0.117-0.142-0.177-0.226-0.068-0.099-0.137-0.194-0.203-0.311-0.057 0.092-0.127 0.208-0.2 0.307-0.052 0.068-0.114 0.154-0.18 0.228-0.067 0.077-0.136 0.149-0.208 0.217-0.074 0.070-0.151 0.134-0.231 0.195-0.958 0.731-2.367 0.868-4.439 0.869l-4.342 0.027c6.245-3.934 11.717-5.754 19.2-6.475z"></path>
</svg>
