<!-- Generated by IcoMoon.io -->
<svg version="1.1" xmlns="http://www.w3.org/2000/svg" width="24" height="32" viewBox="0 0 24 32">
<title>watermark-transformers</title>
<path fill="#444" d="M12.009 3.839c-1.439-0.006-2.879 0.107-4.297 0.36-1.303 0.225-2.587 0.588-3.783 1.157 0.017 0.212 0.11 0.406 0.173 0.606 0.161 0.489 0.329 0.976 0.481 1.468 2.37 1.038 4.743 2.069 7.112 3.11 0.107 0.037 0.222 0.135 0.338 0.070 2.421-1.057 4.838-2.122 7.262-3.173 0.238-0.68 0.441-1.372 0.685-2.050-0.644-0.345-1.339-0.581-2.037-0.787-1.482-0.412-3.014-0.643-4.549-0.716-0.362-0.058-0.73-0.029-1.096-0.043-0.096-0.001-0.192-0.002-0.288-0.003zM0 4.707c0.092 0.582 0.208 1.159 0.31 1.739 0.169 1.002 0.379 1.998 0.532 3.002l0.029 0.043c0.065 0.455 0.152 0.906 0.238 1.356 0.084 0.539 0.208 1.071 0.283 1.611 1.091 0.831 2.197 1.643 3.303 2.454 1.635-0.004 3.27-0.002 4.905-0.001-0.028-0.586-0.175-1.159-0.225-1.744l-0.030-0.044c-0.121-0.995-0.297-1.982-0.441-2.974-1.64-0.734-3.294-1.438-4.937-2.166-0.331-1.056-0.698-2.101-1.029-3.158-0.303-0.026-0.609 0.005-0.91-0.046-0.489-0.035-0.983 0.002-1.47-0.059-0.185-0.011-0.371-0.012-0.557-0.014v0zM23.893 4.709c-0.578 0-1.151 0.068-1.73 0.058-0.399 0.035-0.798 0.053-1.199 0.054-0.251 0.72-0.484 1.447-0.722 2.171-0.091 0.281-0.187 0.561-0.276 0.842-0.031 0.061-0.037 0.151-0.111 0.176-1.623 0.725-3.264 1.412-4.883 2.148-0.215 1.587-0.489 3.166-0.702 4.753 1.648-0.002 3.296 0.001 4.945-0.002 1.083-0.817 2.174-1.623 3.267-2.427 0.13-0.73 0.275-1.457 0.387-2.19l0.028-0.040c0.315-1.85 0.665-3.695 0.996-5.543zM12.076 5.935c0.097-0.001 0.194-0 0.291 0.001l0.046 0.033c0.814 0.002 1.621 0.239 2.323 0.645-0.806 0.666-1.74 1.154-2.694 1.569-0.097 0.045-0.196-0.003-0.286-0.040-0.902-0.403-1.792-0.861-2.557-1.495 0.002-0.021 0.007-0.062 0.009-0.082 0.284-0.12 0.556-0.269 0.852-0.358 0.648-0.218 1.335-0.269 2.016-0.272v0zM21.579 8.282c-0.050 0.313-0.108 0.626-0.194 0.931-1.742 0.781-3.476 1.578-5.218 2.357 0.061-0.311 0.121-0.622 0.197-0.929 1.739-0.783 3.474-1.579 5.215-2.359zM2.292 8.287c1.758 0.765 3.499 1.575 5.247 2.365 0.040 0.307 0.139 0.604 0.159 0.915-1.736-0.786-3.47-1.577-5.207-2.358-0.065-0.308-0.136-0.614-0.199-0.922zM2.754 10.394c1.708 0.804 3.44 1.558 5.155 2.348 0.048 0.306 0.16 0.602 0.159 0.915-1.736-0.794-3.482-1.567-5.214-2.369-0.009-0.068-0.017-0.136-0.026-0.203-0.071-0.225-0.083-0.464-0.166-0.685 0.031-0.002 0.062-0.004 0.093-0.006v-0zM21.207 10.414c-0.062 0.296-0.125 0.591-0.19 0.886-1.739 0.787-3.473 1.588-5.22 2.358 0.032-0.268 0.113-0.527 0.15-0.795-0.004-0.094 0.086-0.145 0.158-0.18 1.612-0.732 3.227-1.46 4.839-2.193 0.085-0.032 0.172-0.057 0.262-0.076zM9.772 10.538c0.253 1.448 0.517 2.894 0.777 4.341 0.023 0.144 0.056 0.288 0.056 0.434-0.004 2.245 0.001 4.489-0.003 6.734 0.886 0.015 1.771 0.002 2.657 0.006 0.051-0.754 0.015-1.509 0.023-2.263-0.028-0.391 0.038-0.781-0.012-1.171 0.049-0.571-0.042-1.143 0.010-1.714-0.041-0.367 0.039-0.734 0.004-1.101-0.042-0.347 0.006-0.696 0.045-1.041 0.129-0.584 0.203-1.178 0.328-1.763 0.116-0.719 0.258-1.435 0.387-2.152 0.015-0.101 0.011-0.204 0.008-0.305-0.644 0.306-1.307 0.571-1.957 0.866-0.207 0.101-0.404-0.065-0.592-0.133-0.579-0.242-1.145-0.518-1.731-0.739v0zM1.567 13.543c-0.006 0.2 0.001 0.401 0.034 0.599 0.16 2.183 0.318 4.369 0.488 6.551 0.077 1.334 0.209 2.664 0.28 3.999 1.466 0.602 2.935 1.2 4.4 1.805 0.003-2.606 0.018-5.214-0.007-7.821-0.94-0.51-1.876-1.032-2.797-1.575-0.17-0.743-0.412-1.468-0.587-2.21-0.596-0.458-1.205-0.901-1.81-1.348zM22.302 13.583c-0.162 0.064-0.299 0.171-0.434 0.278-0.427 0.313-0.849 0.633-1.279 0.943-0.075 0.045-0.114 0.124-0.129 0.207-0.181 0.699-0.387 1.392-0.56 2.093-0.924 0.54-1.857 1.067-2.8 1.574-0.026 0.57-0.005 1.14-0.012 1.711 0.004 2.037-0.007 4.075 0.005 6.111 1.466-0.608 2.937-1.205 4.405-1.808 0.045-1.030 0.157-2.055 0.213-3.084 0.16-1.993 0.291-3.987 0.448-5.979 0.037-0.683 0.105-1.363 0.142-2.046v0zM9.826 16.942c-0.759 0.557-1.498 1.14-2.267 1.684-0.026 0.343-0.007 0.687-0.013 1.031 0.005 2.389-0.009 4.779 0.007 7.168 0.513 0.18 1 0.431 1.517 0.598 0.191-1.152 0.396-2.302 0.582-3.454 1.522-0.007 3.045-0.002 4.567-0.003 0.125 0.663 0.227 1.33 0.346 1.994 0.075 0.485 0.187 0.966 0.23 1.456 0.522-0.144 1.008-0.403 1.516-0.59 0.002-2.736 0.009-5.472-0.003-8.208-0.586-0.419-1.154-0.863-1.734-1.29-0.176-0.125-0.332-0.283-0.534-0.368-0.005 1.949-0 3.898-0.002 5.846-1.403 0.003-2.806 0.004-4.209-0.001-0.002-1.955 0.005-3.91-0.004-5.865v0zM10.305 24.717c-0.22 1.14-0.374 2.294-0.6 3.433 1.49 0.021 2.981 0.006 4.472 0.006-0.179-1.020-0.357-2.040-0.523-3.062-0.029-0.122-0.045-0.247-0.058-0.371-1.097-0.008-2.194 0.002-3.29-0.006v0z"></path>
</svg>
