<!-- Generated by IcoMoon.io -->
<svg version="1.1" xmlns="http://www.w3.org/2000/svg" width="32" height="32" viewBox="0 0 32 32">
<title>watermark-nerf</title>
<path fill="#444" d="M10.108 12.796c0.191-0.036 0.39-0.088 0.585-0.043 0.138 0.079 0.057 0.24 0.027 0.356-0.872 2.679-1.75 5.355-2.62 8.035-0.464 0.093-0.924 0.219-1.394 0.28-0.349 0.063-0.518-0.298-0.662-0.545-0.617-1.071-1.237-2.142-1.857-3.212-0.081-0.139-0.15-0.286-0.257-0.408-0.447 1.34-0.881 2.686-1.323 4.028-0.067 0.232-0.194 0.465-0.139 0.715 0.061 0.111 0.193 0.126 0.306 0.139-0.016 0.034-0.049 0.101-0.065 0.134-0.631 0.164-1.278 0.268-1.913 0.418-0.224 0.039-0.457 0.113-0.684 0.058-0.17-0.057-0.108-0.274-0.075-0.4 0.78-2.395 1.565-4.788 2.344-7.184 0.039-0.133 0.072-0.276 0.032-0.412-0.059-0.11-0.19-0.123-0.3-0.136 0.016-0.095 0.069-0.149 0.157-0.162 0.792-0.171 1.585-0.337 2.379-0.503 0.199-0.058 0.412 0.023 0.511 0.206 0.66 1.099 1.281 2.22 1.946 3.316 0.401-1.139 0.758-2.295 1.14-3.441 0.053-0.173 0.12-0.364 0.057-0.542-0.053-0.111-0.199-0.089-0.298-0.118 0.025-0.099 0.091-0.168 0.196-0.173 0.635-0.134 1.271-0.266 1.905-0.403zM11.382 13.643c1.749-0.355 3.494-0.725 5.242-1.083-0.133 0.406-0.213 0.984-0.714 1.091-0.829 0.202-1.673 0.338-2.507 0.522-0.156 0.505-0.338 1.002-0.48 1.511 0.929-0.192 1.855-0.401 2.781-0.602-0.109 0.292-0.192 0.594-0.316 0.88-0.075 0.17-0.258 0.25-0.428 0.291-0.643 0.155-1.292 0.283-1.934 0.44-0.268 0.063-0.525 0.232-0.608 0.506-0.186 0.559-0.372 1.119-0.545 1.682 0.932-0.184 1.861-0.391 2.791-0.584 0.322-0.081 0.693-0.127 0.922-0.396 0.062-0.082 0.147-0.135 0.248-0.159-0.079 0.314-0.19 0.62-0.286 0.93-0.061 0.182-0.126 0.383-0.293 0.497-0.202 0.133-0.447 0.171-0.679 0.225-1.578 0.331-3.154 0.667-4.733 1-0.111 0.015-0.239 0.055-0.34-0.013-0.091-0.102-0.013-0.247 0.009-0.36 0.625-1.9 1.241-3.802 1.866-5.702 0.046-0.137 0.075-0.284 0.045-0.428-0.054-0.086-0.177-0.078-0.258-0.121 0.055-0.073 0.127-0.115 0.216-0.127zM22.387 11.337c0.472-0.073 0.998-0.188 1.442 0.052 0.295 0.157 0.387 0.516 0.367 0.827-0.046 0.793-0.478 1.53-1.066 2.048-0.428 0.382-0.984 0.559-1.512 0.749 0.212 0.438 0.481 0.846 0.712 1.275 0.077 0.138 0.166 0.328 0.356 0.314 0.206-0.018 0.406-0.075 0.609-0.109-0.114 0.307-0.186 0.63-0.324 0.928-0.13 0.254-0.436 0.302-0.685 0.36-0.4 0.071-0.79 0.188-1.194 0.233-0.197 0.027-0.375-0.112-0.438-0.293-0.334-0.766-0.677-1.528-1.004-2.297-0.25 0.039-0.495 0.101-0.743 0.149-0.259 0.778-0.509 1.56-0.766 2.339-0.050 0.159-0.121 0.323-0.091 0.494 0.051 0.091 0.164 0.085 0.252 0.113-0.015 0.029-0.043 0.086-0.058 0.115-0.679 0.145-1.358 0.288-2.038 0.431-0.119 0.016-0.275 0.063-0.356-0.056-0.015-0.204 0.076-0.396 0.134-0.587 0.593-1.804 1.183-3.61 1.774-5.414 0.047-0.155 0.115-0.332 0.035-0.487-0.077-0.032-0.156-0.061-0.235-0.087 0.057-0.111 0.184-0.115 0.288-0.142 1.514-0.315 3.026-0.641 4.541-0.956zM19.796 12.837c-0.189 0.576-0.376 1.153-0.565 1.73 0.467-0.097 0.936-0.188 1.399-0.301 0.41-0.109 0.831-0.268 1.125-0.586 0.236-0.263 0.342-0.643 0.269-0.989-0.086-0.21-0.353-0.206-0.542-0.188-0.569 0.071-1.123 0.227-1.686 0.334zM30.209 11.186c0.323-0.069 0.657-0.125 0.946-0.294 0.553 0.54 0.907 1.313 0.835 2.094-0.080 0.874-0.515 1.669-1.037 2.356-0.651 0.852-1.455 1.574-2.303 2.224-2.128 1.603-4.551 2.777-7.044 3.694-2.694 0.978-5.507 1.629-8.358 1.92-1.374 0.133-2.759 0.194-4.139 0.105-1.475-0.095-2.963-0.322-4.339-0.883-0.153-0.064-0.307-0.127-0.465-0.177 1.793 0.401 3.642 0.467 5.47 0.37 2.381-0.139 4.749-0.537 7.045-1.185 2.616-0.744 5.171-1.784 7.452-3.279 0.192-0.114 0.352-0.296 0.579-0.342 0.449-0.093 0.897-0.188 1.346-0.284 0.061-0.232 0.157-0.455 0.192-0.694-0.025-0.039-0.073-0.119-0.098-0.158-0.031-0.013-0.094-0.039-0.125-0.053 0.685-0.661 1.317-1.469 1.487-2.429 0.581-0.148 1.173-0.248 1.757-0.381 0.348-0.061 0.756-0.178 0.905-0.537 0.141-0.419 0.275-0.841 0.406-1.264 0.047-0.119-0.050-0.224-0.097-0.326-1.031 0.214-2.064 0.428-3.092 0.655 0.072-0.2 0.142-0.402 0.196-0.608 0.828-0.175 1.655-0.353 2.483-0.525zM25.335 10.71c1.978-0.415 3.953-0.836 5.931-1.251-0.087 0.25-0.143 0.511-0.244 0.755-0.104 0.244-0.382 0.316-0.614 0.374-1.012 0.22-2.026 0.43-3.039 0.645-0.166 0.507-0.332 1.015-0.491 1.524 1.103-0.22 2.203-0.46 3.305-0.694-0.097 0.276-0.168 0.562-0.273 0.836-0.083 0.216-0.318 0.298-0.525 0.342-0.762 0.168-1.528 0.321-2.29 0.488-0.31 0.064-0.637 0.239-0.728 0.565-0.254 0.793-0.521 1.584-0.759 2.381-0.038 0.184 0.131 0.232 0.276 0.252-0.051 0.060-0.101 0.13-0.189 0.131-0.669 0.137-1.334 0.286-2.003 0.42-0.159 0.058-0.344-0.087-0.25-0.254 0.595-1.863 1.21-3.719 1.814-5.579 0.063-0.222 0.182-0.445 0.14-0.683-0.054-0.089-0.173-0.086-0.258-0.125 0.044-0.073 0.11-0.119 0.197-0.129zM20.155 8.811c0.687-0.064 1.377-0.118 2.069-0.113 0.776-0.060 1.554 0.001 2.33 0.023 1.541 0.101 3.083 0.355 4.536 0.892-1.384 0.275-2.76 0.588-4.143 0.865-0.047 0.178-0.102 0.354-0.157 0.53-2.109-0.694-4.36-0.795-6.562-0.732-0.691 0.034-1.379 0.085-2.068 0.143-2.887 0.336-5.749 0.962-8.488 1.946-0.235 0.083-0.462 0.186-0.702 0.251 1.415-0.696 2.859-1.339 4.352-1.852 2.855-0.992 5.825-1.656 8.833-1.953z"></path>
</svg>
