<!-- Generated by IcoMoon.io -->
<svg version="1.1" xmlns="http://www.w3.org/2000/svg" width="18" height="32" viewBox="0 0 18 32">
<title>watermark-brokers</title>
<path fill="#444" d="M5.474 25.433h0.898l1.244-1.52-2.28-8.428-1.036-1.105c0.773-1.987 2.312-3.542 3.454-5.181 0.049-0.152 0.025-0.24-0.138-0.207-0.856 0.247-1.202 0.728-1.174 1.382-0.948 0.014-1.485-1.044-1.796-2.694-0.065-0.345 0.857-0.491 5.112-2.556l2.142-1.865c0.402 0.266 0.709 0.599 0.967 0.967l-2.28 1.658c-1.061-0.054-1.827 0.276-2.211 1.105-0.218 0.518-0.46 0.745-0.76 0.276-0.029-0.204-0.131-0.263-0.345-0.138-1.118 0.714-1.359 1.428-1.244 2.142 1.196-1.166 2.090-1.477 2.58-0.672 0.362 0.596-0.18 1.395-2.235 4.195l1.451 1.451 1.244-1.52 1.244 1.52 1.451-1.451c-0.713-0.972-1.619-2.268-1.619-2.268l0.653-0.7c1.214 1.43 2.307 2.913 3.038 4.557l-1.036 1.105-2.28 8.428 1.244 1.52h0.898l-3.592 5.112-3.592-5.112zM5.751 13.62l-0.276 0.553 2.556 2.418-0.207-1.105-2.073-1.865zM12.383 13.62l-2.073 1.865-0.207 1.105 2.556-2.418-0.276-0.553zM10.31 25.571l-0.967-1.313 0.898-6.494-1.174 1.174-1.174-1.174 0.898 6.494-0.967 1.313 1.244 1.865 1.244-1.865zM7.823 29.993h-2.003c-0.134 0.553-1.089 0.666-1.382 0h-0.207c-0.735-0.735-0.373-3.517 0.276-3.454l0.276-0.415h0.345l2.694 3.869zM10.31 29.993l2.694-3.869h0.345l0.276 0.415c0.649-0.063 1.011 2.719 0.276 3.454h-0.207c-0.292 0.666-1.248 0.553-1.382 0h-2.004zM5.129 22.67c-1.338-1.078-1.938-4.725-0.967-7.669l0.76 0.691c-0.335 2.145-0.325 3.933 0.207 5.181v1.796zM13.005 22.67v-1.796c0.532-1.248 0.543-3.036 0.207-5.181l0.76-0.691c0.971 2.944 0.37 6.591-0.967 7.669zM5.889 1.668c0.072 0.757-0.337 1.079-1.144 1.672-0.876 0.644-2.152 4.626 0.798 8-2.26 2.996-2.831 6.399-1.658 10.225-3.702-0.461-1.403-8.755-0.622-9.327 0.050-0.14-0.071-0.298-0.207-0.207-1.092 1.434-1.563 3.37-1.589 5.665-1.459-0.653-1.672-5.141 0.76-7.807 0.088-0.199-0.134-0.398-0.276-0.276-0.71 0.868-1.189 1.696-1.451 2.487-0.75-1.209-0.887-2.769 1.244-4.56 0.218-0.183 0.041-0.504-0.207-0.345-0.508 0.372-0.932 0.864-1.313 1.313-0.567-1.31-0.056-2.649 1.796-3.869 0.090-0.059 0.046-0.479-0.207-0.345l-1.105 0.967c-0.824-0.755-0.675-3.42 0.138-3.385 0.293 1.421 1.608 1.347 3.109-0.207h1.934zM12.245 1.668h1.934c1.501 1.554 2.815 1.628 3.109 0.207 0.813-0.034 0.962 2.631 0.138 3.385l-1.105-0.967c-0.254-0.134-0.297 0.286-0.207 0.345 1.852 1.22 2.363 2.559 1.796 3.869-0.38-0.449-0.804-0.941-1.313-1.313-0.249-0.159-0.425 0.163-0.207 0.345 2.131 1.791 1.994 3.351 1.244 4.56-0.261-0.791-0.741-1.619-1.451-2.487-0.143-0.121-0.364 0.077-0.276 0.276 2.432 2.665 2.219 7.154 0.76 7.807-0.026-2.295-0.497-4.231-1.589-5.665-0.136-0.091-0.257 0.068-0.207 0.207 0.781 0.572 3.080 8.865-0.622 9.327 1.173-3.825 0.602-7.229-1.658-10.225 2.95-3.374 1.674-7.356 0.798-8-0.806-0.593-1.215-0.915-1.144-1.672zM7.754 13.067l-0.484-0.484 1.796-2.487 1.796 2.487-0.484 0.484-1.313-1.658-1.313 1.658zM13.005 4.638c0.369 0.678 0.459 1.233 0.415 1.727l-0.622 0.138c-0.151 0.014-0.115 0.309 0.069 0.276l0.622-0.069c0.080 0.568 0.058 1.124-0.138 1.658l-0.553-0.138c-0.116-0.010-0.201 0.222-0.069 0.276l0.553 0.276c-0.172 0.703-0.543 1.208-1.105 1.52l-0.967-1.244c0.544-1.205 0.509-2.222-0.138-3.040l1.934-1.382z"></path>
</svg>
