<!-- Generated by IcoMoon.io -->
<svg version="1.1" xmlns="http://www.w3.org/2000/svg" width="28" height="32" viewBox="0 0 28 32">
<title>watermark-protour</title>
<path fill="#444" d="M20.373 14.598c0.080-0.163 0.241-0.27 0.433-0.27l1.302 0.001c0.101 0 0.178 0.025 0.238 0.062 0.068-0.041 0.15-0.063 0.247-0.063l1.309 0.001c0.055 0 0.102 0.008 0.144 0.021 0.045-0.012 0.093-0.019 0.136-0.020 0.001 0 0.003 0 0.004 0 0 0 1.175-0.003 1.65 0.006 0.403 0.008 0.8 0.14 1.049 0.408 0.188 0.202 0.31 0.479 0.287 0.86-0.033 0.558-0.378 1.021-0.839 1.232-0.019 0.009-0.038 0.017-0.057 0.025 0.079 0.241 0.2 0.61 0.202 0.616 0.063 0.282-0.126 0.526-0.396 0.556-0.009 0.001-1.317 0.003-1.317 0.003h-0c-0.092 0-0.183-0.032-0.26-0.086-0.075 0.057-0.168 0.086-0.281 0.086-0.398 0.001-1.302-0.007-1.302-0.007h-0c-0.132-0.015-0.255-0.096-0.329-0.209-0.091 0.052-0.189 0.098-0.291 0.136-0.325 0.122-0.697 0.161-1.067 0.16-0.438-0.001-1.072-0.099-1.404-0.494-0.089-0.105-0.156-0.215-0.204-0.327-0.087 0.091-0.178 0.175-0.27 0.253-0.392 0.329-0.862 0.53-1.37 0.592h-0c-0.339 0.041-0.696 0.044-1.031 0.007-0.581-0.064-1.153-0.345-1.287-0.99-0.020-0.095-0.031-0.19-0.033-0.285l-0.408 0.895c-0.074 0.163-0.232 0.269-0.417 0.268 0 0-1.32-0-1.321-0s-0.002 0-0.003 0c-0.22-0.003-0.422-0.183-0.449-0.402-0.011-0.086 0.003-0.171 0.037-0.245l0-0 0.531-1.166c-0.203-0.022-0.385-0.194-0.41-0.399-0.011-0.086 0.003-0.171 0.037-0.245l0.444-0.978c0.074-0.163 0.232-0.269 0.417-0.268l2.554 0.001c0.001 0 0.002 0 0.003 0s0.001 0 0.002 0c0.179 0.002 0.346 0.122 0.417 0.285 0.355-0.194 0.748-0.295 1.167-0.325 0.309-0.022 0.583-0.022 0.822 0h0c0.492 0.045 0.941 0.234 1.184 0.597 0.038-0.083 0.11-0.24 0.125-0.273-0.001 0.001-0.001 0.002-0.001 0.003 0.001-0.003 0.006-0.013 0.008-0.018zM20.364 14.616c-0.003 0.006-0.002 0.004 0 0zM20.373 14.598c0.002-0.005 0.002-0.005-0.004 0.009 0.001-0.003 0.003-0.006 0.004-0.009zM13.935 16.008l-0.668 1.465c-0.018 0.040-0.026 0.085-0.020 0.131 0.015 0.117 0.123 0.214 0.24 0.215l0.002 0 1.319 0c0.099 0.001 0.183-0.056 0.223-0.143l0.76-1.668h0.255c-0.168 0.348-0.248 0.729-0.171 1.102 0.114 0.546 0.61 0.768 1.102 0.822 0.319 0.035 0.659 0.033 0.982-0.006 0.467-0.057 0.899-0.241 1.259-0.543 0.187-0.156 0.366-0.344 0.519-0.552 0.008 0.223 0.083 0.448 0.255 0.653 0.292 0.348 0.856 0.418 1.241 0.418 0.344 0 0.69-0.033 0.992-0.147 0.208-0.078 0.39-0.189 0.547-0.325l-0.021 0.049c-0.016 0.037-0.023 0.081-0.018 0.125 0.014 0.109 0.108 0.199 0.212 0.211l0.006 0.001 0.006 0c0.024 0.002 0.049 0.002 0.074 0.002 0.396 0.002 0.793 0.003 1.191 0.002 0.111 0 0.188-0.051 0.23-0.152 0.019-0.044 0.038-0.089 0.058-0.133 0.002 0.021 0.007 0.065 0.007 0.065l0 0.002c0.015 0.123 0.13 0.218 0.247 0.218 0 0 1.284-0.001 1.293-0.002 0.145-0.016 0.245-0.147 0.212-0.297-0.002-0.008-0.263-0.799-0.263-0.799 0.083-0.021 0.163-0.048 0.238-0.082 0.394-0.18 0.687-0.576 0.715-1.051 0.019-0.31-0.077-0.538-0.23-0.702-0.212-0.228-0.553-0.333-0.896-0.34-0.474-0.009-1.646-0.006-1.646-0.006-0.050 0.001-0.114 0.015-0.15 0.036-0.033-0.022-0.077-0.037-0.135-0.037l-1.309-0.001c-0.111 0-0.186 0.051-0.23 0.147l-0 0-0.015 0.034c-0.009-0.029-0.023-0.055-0.038-0.076-0.033-0.047-0.091-0.104-0.201-0.104l-1.302-0.001c-0.109 0-0.2 0.061-0.244 0.155l-0 0c-0.116 0.253-0.232 0.506-0.349 0.76-0.050-0.621-0.583-0.901-1.176-0.956-0.229-0.021-0.491-0.021-0.787 0-0.535 0.039-1.024 0.199-1.44 0.544-0.007 0.006-0.013 0.011-0.020 0.017l0.079-0.174c0.018-0.040 0.026-0.085 0.020-0.131-0.015-0.117-0.123-0.214-0.24-0.215l-2.556-0.001c-0.099-0.001-0.183 0.056-0.223 0.143l-0.444 0.978c-0.018 0.040-0.026 0.085-0.020 0.131 0.015 0.118 0.126 0.215 0.243 0.215h0.285zM14.3 15.768c0.003 0 0.005 0.002 0.005 0.005 0 0.001 0 0.002-0 0.002l-0.819 1.797c-0 0.001-0 0.002-0 0.002 0 0.003 0.003 0.005 0.005 0.005l1.318 0c0.002 0 0.003-0.001 0.004-0.002l0.823-1.807c0.001-0.002 0.002-0.002 0.004-0.002h0.563c0.002 0 0.003-0.001 0.004-0.002l0.444-0.977c0-0.001 0-0.002 0-0.002-0-0.003-0.003-0.005-0.005-0.005l-2.553-0.001c-0.002 0-0.003 0.001-0.004 0.002l-0.444 0.978c-0 0.001-0 0.002-0 0.002 0 0.003 0.003 0.005 0.005 0.005h0.65zM22.973 17.577c-0.001-0-0.002-0.001-0.002-0.002s0-0.001 0-0.001l1.189-2.783c0.002-0.004 0.005-0.006 0.009-0.006 0.633-0.007 1.186-0.005 1.658 0.004 0.461 0.009 0.926 0.21 0.892 0.788-0.023 0.383-0.259 0.702-0.576 0.847-0.133 0.061-0.289 0.094-0.442 0.108-0 0-0 0-0.001 0-0.006 0.001-0.009 0.006-0.007 0.012 0 0 0 0 0 0.001l0.34 1.030c0 0 0 0 0 0.001 0 0.001 0 0.003-0.001 0.004l0.002 0.006c0 0-1.282-0-1.282-0-0.040-0.369-0.097-0.748-0.084-1.113 0-0 0-0 0-0.001-0-0.001-0.001-0.002-0.002-0.002s-0.002 0.001-0.002 0.002c-0.037 0.141-0.079 0.268-0.138 0.408-0.097 0.233-0.195 0.465-0.296 0.696-0.002 0.004-0.005 0.007-0.010 0.007-0.397 0.001-0.793-0-1.189-0.002-0.020-0-0.040-0.001-0.060-0.002zM25.082 15.599l-0.163 0.372c-0.002 0.005-0 0.008 0.005 0.008 0.181 0.015 0.376 0.007 0.506-0.119 0.068-0.066 0.121-0.251-0.048-0.265-0.1-0.008-0.196-0.010-0.289-0.004-0.006 0-0.009 0.003-0.012 0.008zM23.265 16.198c0.214-0.469 0.433-0.948 0.648-1.417 0.002-0.005-1.328-0.007-1.33-0.001-0.221 0.481-0.444 0.972-0.665 1.454-0.063 0.137-0.101 0.227-0.192 0.305-0.073 0.063-0.236 0.108-0.331 0.035-0.046-0.035-0.054-0.086-0.024-0.152 0.176-0.393 0.425-0.936 0.744-1.632 0.002-0.005 0-0.007-0.005-0.007l-1.302-0.001c-0.012 0-0.022 0.006-0.026 0.016-0.23 0.5-0.459 1.001-0.688 1.504-0.144 0.316-0.188 0.704 0.085 1.028 0.248 0.294 0.732 0.332 1.058 0.333 0.314 0 0.631-0.028 0.907-0.131 0.396-0.149 0.681-0.43 0.864-0.79 0.081-0.159 0.168-0.34 0.26-0.543zM16.11 17.061c-0.145-0.694 0.345-1.411 0.853-1.832 0.377-0.312 0.82-0.454 1.305-0.489 0.281-0.020 0.53-0.021 0.748-0.001 0.523 0.048 1.009 0.294 0.958 0.908-0.051 0.602-0.459 1.174-0.909 1.551-0.325 0.272-0.713 0.438-1.134 0.489-0.305 0.037-0.625 0.039-0.927 0.006-0.392-0.043-0.803-0.198-0.894-0.632zM17.795 15.907c-0.128 0.115-0.507 0.571-0.285 0.733 0.034 0.025 0.108 0.049 0.147 0.053 0.403 0.035 0.695-0.235 0.876-0.571 0.075-0.14 0.13-0.359-0.092-0.406-0.243-0.051-0.469 0.032-0.646 0.191zM17.695 16.455c0.292 0.017 0.494-0.201 0.627-0.447 0.008-0.016 0.017-0.042 0.024-0.064-0.147-0.016-0.282 0.044-0.392 0.142-0.053 0.047-0.156 0.165-0.225 0.287-0.013 0.023-0.026 0.056-0.035 0.082zM1.98 14.606c0.086-0.181 0.231-0.278 0.441-0.278 0.528-0.001 1.050-0.001 1.564-0 0.428 0.001 0.901 0.057 1.226 0.384 0 0 0.025 0.027 0.033 0.035 0 0 0.002 0.002 0.001 0.001-0.019-0.046 0.062-0.404 0.426-0.417 0.001-0 0.002-0 0.004-0 0.638-0.007 1.195-0.005 1.672 0.004 0.403 0.008 0.8 0.14 1.049 0.408 0.063 0.068 0.119 0.145 0.164 0.231 0.054-0.051 0.109-0.1 0.164-0.146 0.451-0.374 0.98-0.551 1.561-0.593 0.309-0.022 0.583-0.022 0.822 0h0c0.455 0.042 0.874 0.209 1.125 0.519 0.175 0.217 0.274 0.505 0.243 0.878-0.060 0.718-0.532 1.411-1.070 1.861-0.392 0.329-0.862 0.53-1.37 0.592l-0 0c-0.339 0.041-0.696 0.044-1.031 0.006-0.38-0.042-0.756-0.177-1.008-0.445-0.028 0.204-0.191 0.361-0.404 0.385-0.009 0.001-1.317 0.003-1.317 0.003h-0c-0.092 0-0.184-0.032-0.26-0.086-0.075 0.057-0.168 0.086-0.281 0.086-0.389 0.001-1.296-0.007-1.302-0.007h-0c-0.197-0.023-0.373-0.191-0.399-0.396-0.010-0.084 0.003-0.166 0.033-0.235 0 0 0.083-0.194 0.083-0.194-0.185 0.050-0.384 0.076-0.597 0.080-0.156 0.003-0.312 0.004-0.468 0.004l-0.217 0.477c-0.074 0.164-0.234 0.273-0.423 0.272l-1.3-0c-0.21 0-0.32-0.106-0.384-0.197-0.072-0.103-0.134-0.256-0.041-0.462l0-0 1.258-2.757c-0.007 0.015 0.001-0.002 0.005-0.011zM1.98 14.606c0.003-0.006 0.004-0.008-0.003 0.007 0.001-0.002 0.002-0.005 0.003-0.007zM5.254 15.153c-0.009-0.021-0.018-0.042-0.029-0.062-0.259-0.497-0.785-0.549-1.24-0.55-0.514-0.001-1.035-0.001-1.563 0-0.12 0-0.203 0.056-0.251 0.161l-0 0-1.26 2.76c-0.051 0.112-0.018 0.195 0.021 0.251 0.035 0.049 0.095 0.106 0.21 0.106l1.3 0c0.103 0 0.188-0.058 0.229-0.147l0.274-0.602c0.2 0.001 0.401-0 0.602-0.004 0.388-0.007 0.723-0.095 1.006-0.271l-0.292 0.683c-0.016 0.037-0.023 0.081-0.018 0.125 0.014 0.109 0.108 0.199 0.212 0.211l0.006 0.001c0 0 0.874 0.006 1.271 0.005 0.111 0 0.188-0.051 0.23-0.152 0.019-0.044 0.038-0.089 0.058-0.133 0.002 0.021 0.005 0.043 0.007 0.064l0 0.004c0.015 0.123 0.13 0.218 0.247 0.218 0 0 1.284-0.001 1.293-0.002 0.144-0.016 0.245-0.147 0.212-0.297-0.002-0.008-0.263-0.799-0.263-0.799 0.083-0.021 0.163-0.048 0.238-0.082 0.054-0.025 0.105-0.053 0.155-0.085-0.022 0.166-0.019 0.335 0.016 0.502 0.114 0.546 0.61 0.768 1.102 0.822 0.319 0.035 0.659 0.033 0.982-0.006 0.467-0.057 0.899-0.241 1.259-0.543 0.496-0.416 0.938-1.052 0.994-1.715 0.065-0.77-0.519-1.107-1.175-1.167-0.229-0.021-0.491-0.021-0.787 0-0.535 0.039-1.024 0.199-1.44 0.544-0.137 0.114-0.272 0.247-0.395 0.395-0.024-0.21-0.108-0.373-0.225-0.5-0.212-0.228-0.553-0.333-0.896-0.34-0.474-0.009-1.029-0.010-1.665-0.004l-0.001 0c-0.108 0.002-0.182 0.053-0.225 0.149l-0.001 0.001-0.196 0.459zM1.142 17.58c-0.014 0-0.018-0.006-0.013-0.018l1.259-2.76c0.006-0.014 0.017-0.021 0.033-0.021 0.528-0.001 1.049-0.001 1.563-0 0.373 0.001 0.816 0.014 1.028 0.421 0.16 0.305 0.024 0.701-0.133 0.937-0.306 0.462-0.756 0.678-1.337 0.688-0.248 0.004-0.496 0.005-0.745 0.003-0.005 0-0.008 0.002-0.010 0.006l-0.336 0.738c-0.002 0.004-0.006 0.006-0.010 0.006l-1.3-0zM3.755 15.685c-0.017-0.133-0.308-0.099-0.388-0.098-0.005 0-0.009 0.002-0.011 0.007l-0.2 0.437c-0.002 0.003-0 0.005 0.004 0.005 0.201 0.012 0.377 0.006 0.519-0.128 0.062-0.059 0.087-0.134 0.076-0.223zM8.159 17.008c-0.145-0.694 0.345-1.411 0.853-1.832 0.377-0.312 0.82-0.455 1.305-0.49 0.281-0.020 0.53-0.020 0.748-0.001 0.523 0.048 1.009 0.294 0.958 0.908-0.051 0.602-0.459 1.174-0.909 1.551-0.325 0.272-0.713 0.438-1.134 0.489-0.305 0.037-0.625 0.039-0.927 0.006-0.392-0.043-0.803-0.198-0.894-0.632zM9.844 15.853c-0.128 0.115-0.507 0.571-0.285 0.733 0.034 0.025 0.108 0.049 0.147 0.053 0.403 0.035 0.695-0.235 0.876-0.571 0.075-0.14 0.13-0.359-0.092-0.406-0.243-0.051-0.469 0.032-0.646 0.191zM9.744 16.401c0.292 0.017 0.494-0.201 0.627-0.447 0.008-0.016 0.017-0.042 0.024-0.064-0.147-0.016-0.282 0.044-0.392 0.142-0.053 0.047-0.156 0.165-0.225 0.287-0.013 0.023-0.026 0.056-0.035 0.082zM4.483 17.576c-0.001-0-0.002-0.001-0.002-0.002s0-0.001 0-0.001l1.19-2.788c0-0 0.002-0 0.006-0 0.001-0 0.002-0 0.003-0 0.007-0 0.014-0 0.021-0 0.029-0 0.078-0.001 0.141-0.001 0.566-0.005 1.064-0.003 1.496 0.005 0.461 0.009 0.926 0.21 0.892 0.788-0.023 0.383-0.259 0.702-0.576 0.847-0.133 0.061-0.29 0.094-0.442 0.108-0 0-0 0-0.001 0-0.005 0.001-0.009 0.006-0.007 0.012 0 0 0 0 0 0.001l0.341 1.030c0 0 0 0 0 0.001 0 0.001 0 0.003-0 0.004l0.003 0.008c0 0-1.279-0.002-1.279-0.002-0-0.002-0.001-0.005-0.001-0.007-0.001-0.001-0.002-0.003-0.002-0.004v-0c-0.040-0.369-0.099-0.737-0.086-1.102 0-0 0-0 0-0.001s-0.001-0.002-0.002-0.002c-0.001 0-0.002 0.001-0.002 0.002-0.037 0.141-0.079 0.268-0.138 0.408-0.097 0.233-0.197 0.464-0.296 0.696-0.002 0.004-0.005 0.006-0.010 0.006-0.397 0.001-0.793-0-1.189-0.002-0.020-0-0.040-0.001-0.060-0.002zM6.591 15.598l-0.163 0.372c-0.002 0.005-0 0.008 0.005 0.008 0.181 0.015 0.376 0.007 0.506-0.119 0.068-0.066 0.121-0.251-0.048-0.265-0.1-0.008-0.196-0.010-0.289-0.004-0.006 0-0.009 0.003-0.012 0.008zM0.829 14.042l2.961-0.077c0.014-0 0.026-0.009 0.032-0.022 1.476-3.711 5.545-5.448 9.272-5.64 0 0 0.454-0.017 0.587-0.017 0.208 0 0.66 0.017 0.66 0.017 3.157 0.153 6.522 1.44 8.418 4.086 0.010 0.014 0.029 0.020 0.046 0.013 0.179-0.075 0.343-0.174 0.492-0.297 0.016-0.014 0.029-0.011 0.038 0.008 0.799 1.734 2.723 1.814 4.379 1.902 0.010 0 0.019 0.008 0.020 0.019 0.002 0.029-0.008 0.036-0.029 0.022-0.011-0.007-0.024-0.011-0.038-0.011-8.541 0.025-17.082 0.049-25.623 0.070-0.401 0.001-0.809 0.004-1.216 0.007 0-0.010 0-0.019 0-0.029 0-0.015 0.001-0.032 0.002-0.050zM22.151 12.583c-2.306-2.412-5.691-3.446-8.968-3.186-2.901 0.23-5.913 1.628-7.116 4.45-0.002 0.005-0.003 0.010-0.003 0.015 0 0.021 0.018 0.039 0.039 0.039 0 0 0.001 0 0.001 0 4.071-0.103 8.156-0.241 12.212-0.624 1.327-0.125 2.631-0.317 3.818-0.63 0.017-0.004 0.028-0.019 0.028-0.037 0-0.010-0.004-0.019-0.011-0.026zM18.157 10.532c-0.039 0.029-0.146 0.092-0.304 0.083-0.082-0.005-0.133-0.018-0.184-0.031-0.062-0.016-0.126-0.033-0.248-0.033-0.283 0-0.59 0.209-0.6 0.596-0.011 0.374 0.228 0.773 0.646 0.791 0.242 0.011 0.727-0.122 0.943-0.214l0.080-0.133c-0.203 0.061-0.288 0.084-0.6 0.108-0.037 0.003-0.072 0.004-0.106 0.004h-0c-0.19 0-0.329-0.046-0.414-0.136-0.105-0.112-0.11-0.268-0.102-0.392 0.014-0.229 0.205-0.462 0.37-0.451 0.195 0.013 0.295 0.064 0.333 0.316l0.058 0.015c0.028-0.117 0.117-0.298 0.174-0.355-0.004-0.021-0.025-0.095-0.045-0.167zM16.257 12.29l-0.165 0.057v0.009l0.028-0.009v0.441h-0.029v0.011h0.168v-0.011h-0.031v-0.249l0.004-0.005c0.019-0.026 0.045-0.041 0.071-0.041 0.045 0 0.067 0.025 0.067 0.074v0.221h-0.030v0.011h0.166v-0.011h-0.028v-0.262h-0c0-0.034-0.012-0.091-0.088-0.091-0.053 0-0.085 0.024-0.131 0.063l-0.030 0.026v-0.209l0.029-0.010 0-0.014zM17.141 12.432c-0.019 0-0.033 0.046-0.040 0.067-0.002 0.005-0.003 0.010-0.004 0.014l-0.004 0.012h-0.032l-0.002-0.018v-0.069l-0.122 0.033v0.007l0.025-0.010v0.318h-0.027v0.011h0.174v-0.011h-0.039v-0.216l0.003-0.005c0.021-0.033 0.052-0.038 0.068-0.038 0.019 0.001 0.037 0.006 0.053 0.012l0.035-0.098-0.012-0.004-0.011 0.018-0.015-0.008c-0.021-0.011-0.031-0.014-0.050-0.014zM17.786 12.435c-0.047 0-0.084 0.028-0.122 0.059l-0.030 0.023-0.002-0.036v-0.040l-0.137 0.037v0.008l0.028-0.008v0.31h-0.028v0.011h0.167v-0.011h-0.031v-0.252l0.006-0.006c0.019-0.016 0.042-0.037 0.077-0.037s0.060 0.022 0.060 0.053v0.241h-0.030v0.011h0.165v-0.011h-0.027v-0.259c0-0.063-0.031-0.094-0.096-0.094zM16.721 12.435c0.083 0 0.14 0.046 0.171 0.137l-0.226 0.083 0.007 0.018c0.022 0.053 0.062 0.081 0.117 0.081 0.038 0 0.071-0.012 0.096-0.034l0.006 0.007c-0.047 0.056-0.104 0.083-0.173 0.083-0.108 0-0.175-0.073-0.175-0.191 0-0.103 0.077-0.184 0.176-0.184zM16.697 12.458c-0.039 0-0.062 0.028-0.062 0.076 0 0.025 0.005 0.044 0.010 0.061 0.001 0.005 0.003 0.011 0.004 0.016l0.004 0.021 0.122-0.046 0.016-0.008-0.006-0.017c-0.012-0.036-0.034-0.103-0.089-0.103zM17.354 12.352c-0.025 0-0.067 0.023-0.067 0.050 0 0.020 0.012 0.031 0.035 0.031 0.022-0 0.084-0.009 0.084-0.049 0-0.010 0-0.031-0.052-0.031zM9.753 11.59c-0.009 0-0.022 0.003-0.031 0.028 0 0-0.001 0.003-0.001 0.003-0.014 0.035-0.038 0.094-0.092 0.225-0.016 0.038-0.038 0.103-0.064 0.178-0.077 0.223-0.193 0.561-0.315 0.716-0.079 0.099-0.2 0.184-0.237 0.209l0.038 0.071c0.108-0.089 0.355-0.18 0.624-0.18 0.056 0 0.111 0.004 0.165 0.011v-0.055c-0.016-0.007-0.051-0.025-0.097-0.066-0.146-0.131-0.046-0.381 0.035-0.582 0.016-0.040 0.031-0.077 0.043-0.11 0.042-0.119 0.091-0.225 0.117-0.283l0.006-0.014c0.022-0.057 0.006-0.066-0.030-0.082l-0.126-0.058c-0.014-0.008-0.026-0.012-0.036-0.012zM14.468 12.435c0.083 0 0.14 0.046 0.171 0.137l-0.226 0.083 0.007 0.018c0.021 0.053 0.062 0.081 0.117 0.081 0.038 0 0.071-0.012 0.096-0.034l0.006 0.007c-0.046 0.055-0.104 0.083-0.173 0.083-0.108 0-0.175-0.073-0.175-0.191 0-0.103 0.078-0.184 0.176-0.184zM14.443 12.458c-0.039 0-0.062 0.028-0.062 0.076 0 0.025 0.005 0.044 0.010 0.061 0.002 0.005 0.003 0.011 0.004 0.016l0.005 0.021 0.122-0.046 0.016-0.008-0.005-0.017c-0.012-0.036-0.034-0.103-0.089-0.103zM15.157 12.28c-0.167 0-0.297 0.125-0.297 0.285 0 0.148 0.092 0.243 0.236 0.243 0.064 0 0.124-0.020 0.181-0.062l0.016-0.011 0.040 0.061h0.014v-0.234c0-0.023 0.006-0.036 0.018-0.047l-0.005-0.010c-0.009 0.004-0.018 0.007-0.029 0.007h-0.196v0.025h0.094v0.208h-0.018c-0.139 0-0.215-0.086-0.215-0.242 0-0.16 0.077-0.184 0.123-0.184 0.036 0 0.072 0.022 0.072 0.063 0 0.011-0.003 0.022-0.007 0.030l0.012 0.019 0.14-0.090-0.013-0.019-0.024 0.016-0.010-0.007c-0.049-0.033-0.094-0.050-0.13-0.050zM15.49 12.419l0.013 0.004-0.014 0.043 0.038-0.016c0.025-0.011 0.056-0.017 0.089-0.017 0.086 0 0.129 0.037 0.129 0.113v0.24h0.025v0.011h-0.126l-0.012-0.052-0.023 0.020c-0.026 0.022-0.058 0.045-0.1 0.045-0.064 0-0.107-0.041-0.107-0.102 0-0.075 0.044-0.126 0.109-0.126h0.127v-0.038c0-0.043-0.027-0.070-0.071-0.070-0.049 0-0.074 0.031-0.094 0.057l-0.019-0.007 0.038-0.104zM15.595 12.592c-0.050 0-0.087 0.036-0.087 0.086 0 0.076 0.046 0.084 0.066 0.084 0.028 0 0.062-0.013 0.062-0.076v-0.094h-0.042zM15.95 12.346c-0.026 0.052-0.075 0.093-0.134 0.113v0.011h0.039v0.253c0 0.062 0.023 0.086 0.081 0.086 0.041 0 0.079-0.021 0.111-0.044l-0.003-0.005c-0.009 0.004-0.020 0.007-0.031 0.007-0.025 0-0.051-0.017-0.051-0.050v-0.247h0.062l0.005-0.025h-0.067v-0.050c0-0.014 0-0.031 0.002-0.047l-0.015-0.003zM9.771 10.656c-0.027 0.035-0.065 0.083-0.084 0.109 0.052 0.009 0.173 0.033 0.227 0.068 0.062 0.039 0.051 0.102 0.029 0.187-0.029 0.115-0.105 0.308-0.108 0.316-0.017 0.030-0.022 0.048-0.018 0.060s0.019 0.021 0.043 0.033l0.125 0.059c0.016 0.007 0.029 0.010 0.039 0.010 0.015 0 0.027-0.007 0.040-0.040l0.003-0.008c0.015-0.036 0.041-0.096 0.070-0.127l0.004-0.004c0.016-0.017 0.034-0.037 0.064-0.037 0.015 0 0.032 0.005 0.050 0.016 0.068 0.038 0.367 0.323 0.579 1.031 0.158 0.527 0.133 0.711 0.121 0.757l0.115 0.064c0.057-0.101 0.286-0.358 0.471-0.402-0.030-0.144-0.092-0.307-0.138-0.427-0.020-0.054-0.038-0.1-0.048-0.131-0.087-0.283 0.043-0.47 0.069-0.505 0.032-0.037 0.034-0.062 0.007-0.089l-0.087-0.098c-0.001-0.001-0.018-0.024-0.044-0.024-0.015 0-0.031 0.007-0.046 0.022-0.030 0.023-0.069 0.053-0.137 0.129-0.002 0.003-0.006 0.005-0.010 0.005s-0.008-0.002-0.010-0.004c-0.085-0.087-0.156-0.211-0.231-0.342-0.043-0.076-0.088-0.154-0.137-0.229-0.027-0.042-0.053-0.079-0.076-0.113-0.078-0.115-0.132-0.194-0.14-0.265l-0.742-0.020zM12.731 10.602l-0.069 0.083c0.106 0.039 0.613 0.227 0.687 0.285 0.001 0.001 0.002 0.002 0.003 0.004 0.063 0.1 0.219 0.559 0.233 0.74 0.007 0.084-0.016 0.127-0.030 0.145l0.060 0.070c0.053-0.045 0.139-0.069 0.248-0.069 0.11 0 0.234 0.025 0.35 0.070 0.012-0.016 0.024-0.033 0.030-0.041-0.213-0.313-0.348-0.659-0.451-1.154l-0.129-0.103c-0.071 0.029-0.177 0.044-0.315 0.044-0.248 0-0.532-0.049-0.615-0.072zM15.633 10.602c-0.039 0.028-0.143 0.090-0.298 0.081-0.079-0.005-0.157-0.020-0.238-0.037-0.104-0.021-0.211-0.042-0.333-0.044l-0.009-0c-0.13 0-0.554 0.043-0.569 0.601-0.010 0.352 0.29 0.723 0.605 0.747 0.066 0.005 0.125-0.010 0.196-0.029s0.152-0.040 0.264-0.049c0.096-0.007 0.217 0.065 0.254 0.146l0.078 0.021c-0.001-0.011-0.002-0.023-0.003-0.036-0.014-0.15-0.042-0.46 0.279-0.518l-0.049-0.082c-0.026-0.007-0.083-0.011-0.16-0.011-0.164 0-0.402 0.019-0.475 0.044l-0.019 0.052c0.11-0.008 0.211 0.049 0.217 0.12 0.003 0.034-0.013 0.116-0.225 0.152-0.168 0.029-0.299-0.004-0.388-0.098-0.131-0.139-0.132-0.37-0.126-0.463 0.012-0.202 0.173-0.418 0.392-0.418 0.017 0 0.034 0.001 0.052 0.004 0.188 0.028 0.335 0.069 0.373 0.313l0.056 0.015c0.027-0.114 0.114-0.292 0.17-0.348-0.004-0.021-0.024-0.093-0.044-0.163zM16.688 10.57c-0.162 0.038-0.391 0.051-0.541 0.051-0.086 0-0.157-0.004-0.201-0.011l-0.026 0.050c0.268 0.103 0.254 0.398 0.246 0.557-0.001 0.022-0.002 0.042-0.002 0.058 0 0.332-0.081 0.621-0.208 0.744l0.024 0.053c0.084-0.106 0.302-0.189 0.503-0.189 0.080 0 0.151 0.013 0.206 0.039l0.032-0.037c-0.258-0.216-0.245-0.364-0.229-0.535 0.004-0.042 0.008-0.086 0.008-0.133 0-0.296 0.015-0.529 0.207-0.595l-0.018-0.051zM17.403 12.441l-0.136 0.039v0.009l0.028-0.006v0.305h-0.030v0.011h0.164v-0.011h-0.026v-0.347zM14.001 12.29l-0.165 0.057v0.009l0.028-0.010v0.441h-0.029v0.011h0.168v-0.011h-0.031v-0.249l0.004-0.005c0.019-0.026 0.045-0.041 0.071-0.041 0.045 0 0.068 0.025 0.068 0.074v0.221h-0.030v0.011h0.166v-0.011h-0.028v-0.262h-0c0-0.034-0.011-0.091-0.088-0.091-0.053 0-0.085 0.024-0.131 0.063l-0.030 0.026v-0.209l0.029-0.010v-0.014zM13.415 12.282l-0.009 0.125h0.022c0.011-0.047 0.035-0.077 0.099-0.077h0.018v0.443h-0.050v0.025h0.234v-0.025h-0.049v-0.443h0.019c0.064 0 0.087 0.030 0.099 0.077h0.022l-0.008-0.125h-0.025v0.013h-0.347v-0.013h-0.025zM12.543 11.752c-0.080-0.176-0.16-0.338-0.204-0.416-0.144-0.248-0.196-0.514-0.134-0.683-0.015-0.009-0.051-0.028-0.085-0.046-0.083 0.034-0.2 0.042-0.284 0.042-0.152 0-0.315-0.024-0.384-0.048l-0.062 0.096c0.049 0.024 0.211 0.105 0.251 0.142 0.057 0.052 0.074 0.108 0.048 0.156-0.105 0.201-0.179 0.27-0.208 0.296-0.015 0.013-0.022 0.027-0.022 0.041 0 0.023 0.020 0.042 0.020 0.042h0c0.001 0.001 0.001 0.002 0.002 0.003 0.011 0.011 0.034 0.036 0.089 0.095 0.028 0.029 0.039 0.028 0.081 0.001 0.023-0.012 0.045-0.018 0.065-0.018 0.032 0 0.076 0.014 0.109 0.083 0.011 0.024 0.026 0.054 0.043 0.089 0.108 0.219 0.308 0.626 0.359 0.818 0.041 0.152-0.024 0.235-0.283 0.455l0.076 0.082c0.122-0.091 0.324-0.14 0.572-0.14 0.197 0 0.409 0.033 0.598 0.093l0.030-0.071c-0.036-0.042-0.095-0.079-0.156-0.119-0.063-0.041-0.129-0.083-0.173-0.132-0.067-0.070-0.079-0.123-0.101-0.219-0.003-0.013-0.006-0.027-0.010-0.043-0.021-0.087-0.083-0.246-0.156-0.415 0.004 0 0.008 0 0.012 0 0.023 0 0.055-0.003 0.091-0.006 0.051-0.005 0.115-0.011 0.182-0.011 0.047 0 0.088 0.003 0.128 0.009l0.009-0.023c0.065-0.164 0.104-0.263 0.198-0.297 0.026-0.011 0.035-0.030 0.029-0.061-0.010-0.062-0.012-0.070-0.035-0.114-0.009-0.017-0.025-0.026-0.050-0.026-0.003 0-0.006 0-0.008 0-0.095 0.007-0.155 0.032-0.25 0.101-0.005 0.003-0.011 0.004-0.016 0s-0.007-0.009-0.006-0.015c0.012-0.045 0.033-0.087 0.056-0.132 0.026-0.051 0.053-0.104 0.064-0.16 0.014-0.039-0.006-0.060-0.019-0.068-0-0-0.001-0.001-0.001-0.001-0.010-0.007-0.086-0.051-0.11-0.056-0.008-0.002-0.015-0.002-0.022-0-0.021 0.004-0.037 0.018-0.042 0.032-0.035 0.101-0.096 0.246-0.188 0.362-0.075 0.095-0.11 0.188-0.104 0.282zM18.267 12.374c0.002 0 0.004 0 0.007 0l-0.007 0.033c-0.005-0.002-0.010-0.003-0.016-0.003-0.019 0-0.033 0.015-0.033 0.036 0 0.013 0.010 0.021 0.022 0.032 0.021 0.018 0.052 0.044 0.052 0.101 0 0.106-0.095 0.13-0.186 0.154l-0.024 0.008 0 0.031 0.016 0.002c0.059 0.006 0.181 0.020 0.181 0.092s-0.107 0.088-0.144 0.088c-0.081 0-0.122-0.021-0.122-0.061 0-0.028 0.035-0.047 0.061-0.050l0.016-0.004v-0.033l-0.027-0.002c-0.024-0.002-0.044-0.004-0.062-0.004-0.010 0-0.019 0-0.028 0.001l-0.021-0.020c0.045-0.010 0.087-0.024 0.119-0.036l0.012-0.006v-0.029l-0.016-0.002c-0.056-0.008-0.12-0.045-0.12-0.122 0-0.107 0.085-0.145 0.158-0.145 0.029 0 0.049 0.004 0.066 0.007 0.006 0.001 0.012 0.002 0.018 0.003l0.015 0.002 0.014-0.045c0.006-0.019 0.011-0.028 0.049-0.028zM18.098 12.448c-0.060 0-0.060 0.054-0.060 0.072 0 0.046 0.025 0.181 0.102 0.181 0.060 0 0.060-0.054 0.060-0.071 0-0.046-0.025-0.181-0.102-0.181zM18.115 12.807l-0.010 0.015c-0.011 0.018-0.017 0.039-0.017 0.064 0 0.030 0.018 0.060 0.051 0.060 0.030 0 0.049-0.018 0.049-0.048 0-0.046-0.028-0.063-0.054-0.080l-0.002-0.001-0.015-0.010zM24.426 13.772c0.066 0 0.070-0.014 0.011-0.043-0.53-0.263-0.946-0.648-1.246-1.158-0.011-0.019-0.027-0.024-0.047-0.014-0.961 0.47-2.066 0.668-3.132 0.814-1.404 0.192-2.813 0.329-4.228 0.41-0.003 0-0.006 0.002-0.009 0.004s-0.004 0.005-0.003 0.005c2.886-0.002 5.867-0.031 8.654-0.018zM9.658 9.578c-0.032 0.006-0.072 0.018-0.122 0.037-2.149 0.816-4.052 2.125-5.024 4.285-0.002 0.004-0.003 0.008-0.003 0.013 0 0.017 0.014 0.032 0.032 0.032 0 0 0 0 0 0l0.786-0.019c0.032-0.001 0.060-0.022 0.070-0.052 0.684-1.974 2.316-3.464 4.255-4.258 0.037-0.015 0.069-0.027 0.098-0.034 0.010-0.003 0.016-0.012 0.016-0.022 0-0.013-0.010-0.023-0.023-0.023-0.001 0-0.002 0-0.003 0-0.023 0.004-0.040 0.011-0.051 0.022-0.009 0.010-0.020 0.016-0.033 0.018zM27.518 18.441c-4.422 0.105-8.845 0.219-13.262 0.436-2.345 0.116-4.701 0.285-7.025 0.631-0.013 0.002-0.023 0.014-0.023 0.027 0 0.006 0.002 0.013 0.006 0.018 3.010 3.519 8.674 4.393 12.785 2.498 0.050-0.023 0.142-0.090 0.219-0.115 0.001-0 0.003-0.001 0.004-0.001 0.008 0 0.014 0.006 0.014 0.014 0 0.005-0.003 0.009-0.007 0.012-1.696 1.039-3.879 1.631-5.617 1.737-0.604 0.037-1.817 0-1.817 0-2.951-0.204-5.804-1.34-7.781-3.584-0.027-0.030-0.057-0.035-0.092-0.013l-0.424 0.263c-0.013 0.008-0.023 0.006-0.031-0.007-0.428-0.76-0.89-1.259-1.746-1.522-0.864-0.266-1.811-0.327-2.709-0.379-0.009-0-0.013-0.004-0.013-0.010 0-0.002 0-0.003 0.001-0.005 0.002-0.005 0.002-0.007 0.003-0.007l27.51-0.074c0.001 0.027 0.003 0.054 0.005 0.081zM3.305 18.713h-0c-0.011 0-0.021 0.009-0.021 0.021 0 0.008 0.004 0.015 0.011 0.018 0.537 0.263 0.957 0.651 1.26 1.165 0.010 0.017 0.025 0.022 0.043 0.013 0.484-0.227 1.004-0.399 1.559-0.515 1.798-0.376 3.597-0.54 5.403-0.668 0.208-0.014 0.42-0.010 0.632-0.011 0.004 0 0.007-0.001 0.008-0.003 0.002-0.006 0.004-0.013 0.006-0.019 0.004-0.011-0-0.016-0.012-0.016l-8.89 0.015zM10.188 22.528c-1.418-0.652-2.713-1.613-3.674-2.849-0.018-0.023-0.041-0.031-0.069-0.024l-0.774 0.184c-0.039 0.009-0.045 0.029-0.017 0.058 1.337 1.419 3.020 2.321 4.897 2.816 0.002 0.001 0.004 0 0.004-0.002 0.002-0.005 0.003-0.009 0.004-0.014 0.004-0.013-0.001-0.022-0.014-0.027-0.122-0.041-0.241-0.089-0.358-0.142z"></path>
</svg>
