<!-- Generated by IcoMoon.io -->
<svg version="1.1" xmlns="http://www.w3.org/2000/svg" width="30" height="32" viewBox="0 0 30 32">
<title>watermark-colorpie</title>
<path fill="#444" d="M16.95 1.406c-0.139 0.061-0.439 0.265-0.899 0.612-0.573 0.434-0.86 0.743-0.86 0.925 0 0.052 0.080 0.128 0.241 0.228s0.241 0.245 0.241 0.436c0 0.182-0.061 0.339-0.183 0.469s-0.274 0.195-0.456 0.195l-0.195-0.352c-0.13-0.225-0.295-0.338-0.495-0.338-0.061 0-0.143 0.026-0.247 0.078s-0.174 0.078-0.208 0.078c-0.2 0-0.374-0.217-0.521-0.651-0.122-0.356-0.178-0.599-0.169-0.729-0.2 1.086-0.3 1.681-0.3 1.785 0 0.391 0.078 0.586 0.235 0.586 0.043 0 0.111-0.013 0.202-0.039s0.159-0.039 0.202-0.039c0.104 0 0.219 0.067 0.345 0.202s0.189 0.254 0.189 0.358c0 0.122-0.083 0.309-0.248 0.56-0.321-0.105-0.495-0.157-0.521-0.157-0.191 0-0.345 0.106-0.463 0.319s-0.236 0.319-0.358 0.319c-0.157 0-0.365-0.061-0.625-0.182-0.2-0.104-0.4-0.209-0.6-0.313 0.321 0.443 0.56 0.778 0.717 1.003 0.33 0.452 0.599 0.678 0.808 0.678 0.121 0 0.252-0.091 0.391-0.274s0.235-0.273 0.287-0.273c0.339 0 0.547 0.2 0.625 0.599-0.417 0.217-0.608 0.461-0.573 0.729 0.035 0.243 0.052 0.347 0.052 0.313 0 0.295-0.452 0.556-1.355 0.782 0.799 0.156 1.368 0.234 1.707 0.234 0.443 0 0.66-0.143 0.652-0.43v-0.352c0-0.226 0.174-0.339 0.521-0.339 0.156 0 0.291 0.065 0.404 0.196-0.104 0.217-0.156 0.4-0.156 0.547 0 0.174 0.1 0.339 0.299 0.495s0.3 0.278 0.3 0.365c0 0.157-0.070 0.378-0.208 0.665-0.122 0.252-0.243 0.456-0.365 0.612 0.139-0.104 0.391-0.286 0.755-0.547 0.686-0.486 1.029-0.847 1.029-1.081 0-0.043-0.081-0.118-0.241-0.222s-0.241-0.243-0.241-0.417c0-0.348 0.2-0.552 0.599-0.613 0.2 0.461 0.426 0.691 0.678 0.691 0.052 0 0.132-0.026 0.241-0.078s0.18-0.079 0.215-0.079c0.252 0 0.491 0.443 0.716 1.329 0.174-0.773 0.261-1.346 0.261-1.72 0-0.391-0.053-0.586-0.16-0.586-0.035 0-0.107 0.013-0.213 0.039s-0.191 0.039-0.253 0.039c-0.098 0-0.218-0.065-0.359-0.195s-0.213-0.243-0.213-0.339c0-0.069 0.083-0.23 0.248-0.482 0.295 0.069 0.491 0.104 0.586 0.104 0.235 0 0.391-0.106 0.469-0.319s0.187-0.319 0.326-0.319c0.191 0 0.625 0.191 1.303 0.573-0.347-0.495-0.604-0.864-0.768-1.108-0.295-0.435-0.561-0.652-0.795-0.652-0.191 0-0.33 0.091-0.417 0.274s-0.182 0.274-0.286 0.274c-0.148 0-0.265-0.052-0.352-0.157-0.035-0.034-0.104-0.147-0.209-0.339l0.443-0.313c0.156-0.104 0.234-0.217 0.234-0.339 0-0.070-0.022-0.178-0.065-0.326s-0.065-0.252-0.065-0.313c0-0.13 0.174-0.247 0.521-0.352 0.382-0.104 0.669-0.182 0.86-0.234-0.878-0.156-1.455-0.235-1.733-0.235-0.443 0-0.682 0.061-0.717 0.182-0.008 0.017-0.002 0.096 0.020 0.235s0.032 0.221 0.032 0.247c0 0.26-0.126 0.391-0.378 0.391-0.122 0-0.3-0.082-0.534-0.247 0.104-0.347 0.113-0.621 0.026-0.821-0.026-0.069-0.13-0.187-0.313-0.352-0.148-0.139-0.222-0.269-0.222-0.391 0-0.235 0.187-0.604 0.56-1.107zM16.155 4.272c0.556 0 1.038 0.204 1.446 0.613s0.612 0.891 0.612 1.446c0.009 0.591-0.185 1.079-0.58 1.466s-0.888 0.58-1.479 0.58c-0.556 0-1.044-0.202-1.466-0.606s-0.627-0.883-0.619-1.439c0.008-0.564 0.217-1.049 0.625-1.453s0.894-0.606 1.459-0.606zM16.155 4.494c-0.504 0-0.94 0.18-1.309 0.541s-0.554 0.793-0.554 1.296c0 0.512 0.183 0.947 0.547 1.303s0.803 0.534 1.316 0.534c0.53 0 0.973-0.174 1.329-0.522s0.534-0.786 0.534-1.316c0-0.495-0.185-0.925-0.554-1.29s-0.806-0.547-1.31-0.547zM4.365 8.944c-0.839 0-1.385 0.433-1.638 1.298-0.201-0.218-0.459-0.328-0.773-0.328-0.288 0-0.529 0.096-0.721 0.289s-0.289 0.433-0.289 0.721c0 0.245 0.048 0.415 0.144 0.511-0.201 0.105-0.293 0.297-0.275 0.577-0.218 0.026-0.395 0.123-0.531 0.289s-0.203 0.358-0.203 0.577c0 0.236 0.109 0.467 0.327 0.694-0.271 0.21-0.406 0.476-0.406 0.8 0 0.21 0.105 0.441 0.314 0.695s0.419 0.38 0.629 0.38c0.646 0 1.040-0.249 1.18-0.747 0.524 0.096 0.9 0.254 1.127 0.472 0.262 0.245 0.393 0.616 0.393 1.114 0 0.218-0.011 0.354-0.033 0.407s-0.1 0.111-0.236 0.177c-0.135 0.066-0.234 0.099-0.295 0.099-0.026 0-0.061-0.004-0.105-0.013s-0.079-0.013-0.105-0.013c-0.157 0-0.385 0.087-0.682 0.262-0.254 0.149-0.406 0.249-0.459 0.301l0.367 0.026c0.236-0.052 0.411-0.079 0.524-0.079 0.236 0 0.489 0.044 0.76 0.131 0.113 0.341 0.179 0.524 0.197 0.551h0.066c0.236-0.358 0.398-0.542 0.485-0.551 0.043 0.114 0.083 0.227 0.118 0.341 0.079 0.166 0.175 0.28 0.288 0.341 0-0.061 0.048-0.175 0.144-0.341s0.17-0.249 0.223-0.249c0.052 0 0.179 0.083 0.38 0.249s0.375 0.253 0.524 0.262c0.044-0.175 0.070-0.306 0.079-0.393h0.171c0.043 0 0.133 0.017 0.269 0.052s0.242 0.052 0.321 0.052c0.297 0 0.446-0.052 0.446-0.157l-0.367-0.183c0.306-0.070 0.52-0.096 0.642-0.079 0.026-0.087-0.048-0.157-0.223-0.21-0.123-0.035-0.24-0.053-0.354-0.053h-0.157c-0.079 0.009-0.136 0.013-0.171 0.013-0.052-0.009-0.195-0.050-0.426-0.125s-0.384-0.166-0.458-0.275c-0.074-0.109-0.112-0.282-0.112-0.518 0-0.149 0.026-0.38 0.078-0.695 0.061-0.384 0.14-0.629 0.236-0.734 0.061-0.070 0.297-0.162 0.708-0.275 0.384-0.113 0.642-0.171 0.774-0.171l0.616 0.026c0.131 0.262 0.337 0.393 0.616 0.393 0.175 0 0.33-0.070 0.466-0.21s0.203-0.297 0.203-0.472c0-0.253-0.113-0.446-0.341-0.577 0.122-0.279 0.184-0.498 0.184-0.656 0-0.559-0.28-0.996-0.839-1.311 0.070-0.122 0.105-0.205 0.105-0.249 0-0.236-0.096-0.402-0.288-0.498-0.131-0.044-0.228-0.070-0.288-0.079-0.088-0.35-0.245-0.638-0.472-0.865-0.262-0.254-0.564-0.38-0.904-0.38-0.097 0-0.25 0.020-0.459 0.059-0.092 0.017-0.141 0.029-0.173 0.039-0.017-0.024-0.066-0.081-0.168-0.19-0.332-0.35-0.717-0.524-1.154-0.524zM27.884 9.237c-0.926 0.762-1.731 1.65-2.416 2.662-0.839 1.235-1.259 2.335-1.259 3.299 0 0.897 0.246 1.635 0.738 2.214 0.521 0.608 1.225 0.911 2.112 0.911 0.791 0 1.457-0.275 1.997-0.825s0.81-1.225 0.81-2.026c0-0.54-0.188-1.094-0.564-1.664-0.241-0.328-0.593-0.83-1.056-1.505-0.376-0.569-0.564-1.152-0.564-1.751 0-0.261 0.067-0.699 0.202-1.317zM3.945 12.089c0.043 0 0.17 0.018 0.38 0.053v0.577l-0.38-0.433v-0.197zM5.44 12.089c0.288 0.131 0.485 0.218 0.59 0.262 0.017 0.341-0.179 0.629-0.59 0.865v-1.127zM3.185 12.666c0.096 0.157 0.21 0.31 0.341 0.459-0.087 0-0.232-0.024-0.433-0.072s-0.354-0.068-0.459-0.059c0-0.122 0.183-0.231 0.55-0.327zM6.462 13.544l0.288 0.354c-0.463 0.088-0.891 0.236-1.284 0.446 0.131-0.157 0.286-0.3 0.465-0.426s0.356-0.251 0.531-0.374zM28.536 13.766c0.193 0.106 0.362 0.321 0.507 0.644s0.217 0.605 0.217 0.846c0 0.473-0.179 0.709-0.535 0.709-0.338 0-0.506-0.169-0.506-0.506l0.188-0.579c0.116-0.376 0.174-0.666 0.174-0.868 0-0.106-0.015-0.188-0.043-0.246zM2.87 13.781c0.201 0 0.4 0.083 0.596 0.249s0.295 0.35 0.295 0.55v0.17c-0.585-0.559-1.11-0.826-1.573-0.8 0.21-0.113 0.437-0.17 0.682-0.17zM22.939 20.867c-0.261 0-0.634 0.032-1.119 0.094-0.153 0.018-0.382 0.090-0.688 0.216-0.342 0.135-0.512 0.252-0.512 0.351 0 0.422 0.076 0.723 0.229 0.903 0.404 0.342 0.732 0.589 0.984 0.741-0.494-0.18-0.768-0.279-0.823-0.297-0.269-0.063-0.445-0.103-0.526-0.121-0.108-0.405-0.184-0.728-0.229-0.971-1.079 0.872-1.618 1.964-1.618 3.276 0 0.881 0.31 1.38 0.93 1.496 0.449 0.090 0.75 0.153 0.903 0.189 0.251 0.054 0.391 0.086 0.418 0.094 0.153 0.216 0.229 0.359 0.229 0.431 0 0.018-0.009 0.049-0.027 0.094s-0.027 0.081-0.027 0.108l-0.108 1.617c-0.018 0.243 0.018 0.432 0.108 0.567s0.269 0.202 0.539 0.202c0.027 0 0.049-0.009 0.067-0.027l0.041-0.323c0.018-0.108 0.027-0.175 0.027-0.202 0-0.036-0.011-0.106-0.034-0.209s-0.034-0.173-0.034-0.209c0.009-0.027 0.063-0.198 0.162-0.513h0.108c0.162 0.584 0.274 1.025 0.337 1.321 0.18 0.009 0.332 0.009 0.459 0l0.161-1.267h0.162c0.072-0.009 0.117 0.009 0.135 0.054v0.957c-0.018 0 0.005 0.009 0.068 0.027 0.27-0.18 0.481-0.323 0.634-0.431 0.009-0.108-0.005-0.238-0.041-0.391-0.009-0.072 0-0.13 0.028-0.175h0.209c0.112 0.287 0.168 0.463 0.168 0.525 0 0.045-0.012 0.113-0.034 0.202s-0.034 0.157-0.034 0.202c0 0.099 0.036 0.283 0.108 0.553 0.225-0.045 0.423-0.086 0.593-0.122 0.063-0.305 0.094-0.526 0.094-0.66l-0.041-0.432c-0.027-0.234-0.040-0.373-0.040-0.418v-1.092c0-0.26 0.216-0.427 0.647-0.499 0.665-0.108 1.060-0.193 1.186-0.256 0.431-0.216 0.647-0.62 0.647-1.213h-0v-0.108c-0.009-0.090-0.014-0.238-0.014-0.445-0.099-0.593-0.292-1.146-0.58-1.658-0.099-0.17-0.229-0.364-0.391-0.579-0.216-0.288-0.36-0.431-0.431-0.431 0.063 0-0.113 0.090-0.526 0.27s-0.728 0.265-0.944 0.256c0.548-0.296 0.935-0.575 1.159-0.835-0.692-0.575-1.599-0.863-2.723-0.863zM8.981 20.936c-0.157 0-0.433 0.022-0.827 0.066-0.464 0.052-0.714 0.101-0.749 0.144 0.306 0.026 0.516 0.044 0.63 0.053 1.164 0.105 1.746 0.306 1.746 0.604 0 0.114-0.425 0.241-1.274 0.381 0.481 0.157 0.753 0.237 0.814 0.237 0.201 0 0.424-0.066 0.67-0.197s0.429-0.197 0.551-0.197c0.262 0 0.477 0.136 0.643 0.407 0.149 0.228 0.223 0.481 0.223 0.762 0 0.219-0.053 0.328-0.158 0.328-0.079 0-0.193-0.109-0.341-0.328-0.105-0.166-0.184-0.289-0.236-0.368-0.018 0.061-0.026 0.123-0.026 0.184 0 0.368 0.168 0.709 0.505 1.024s0.689 0.481 1.057 0.499c-0.018 0.236-0.079 0.481-0.184 0.735-0.123 0.333-0.263 0.53-0.42 0.591-0.105-0.105-0.158-0.254-0.158-0.446 0-0.087 0.028-0.223 0.085-0.407s0.085-0.315 0.085-0.394c-0.088 0.035-0.186 0.129-0.296 0.282s-0.173 0.282-0.19 0.387c-0.061 0.367-0.079 0.683-0.053 0.945 0.026 0.228-0.070 0.481-0.289 0.762s-0.442 0.42-0.67 0.42c-0.149 0-0.284-0.031-0.407-0.092-0.158-0.079-0.236-0.184-0.236-0.315 0-0.21 0.188-0.424 0.564-0.643 0.525-0.315 0.832-0.932 0.919-1.851 0.026 0-0.202 0.134-0.683 0.401s-0.884 0.4-1.208 0.4c-0.079 0-0.234-0.031-0.466-0.092s-0.418-0.092-0.558-0.092c-0.63 0-1.158 0.221-1.582 0.663s-0.637 0.979-0.637 1.609c0 0.595 0.205 1.134 0.617 1.615 0.42 0.508 0.923 0.766 1.51 0.774 1.786 0.035 3.059-0.171 3.821-0.617-0.131 0-0.455-0.007-0.972-0.020s-0.665-0.020-0.446-0.020c-0.044 0-0.096-0.028-0.157-0.085s-0.092-0.107-0.092-0.151c0-0.14 0.184-0.25 0.551-0.329 0.245-0.052 0.473-0.079 0.683-0.079 1.146 0 1.912-0.459 2.298-1.379 0.096-0.227 0.144-0.398 0.144-0.512-0.272 0.298-0.573 0.521-0.906 0.67-0.149 0.070-0.464 0.171-0.946 0.302 0.131-0.202 0.376-0.488 0.735-0.857s0.604-0.673 0.735-0.91c0.201-0.351 0.302-0.743 0.302-1.174 0-0.818-0.359-1.685-1.077-2.599 0.114 0.284 0.197 0.497 0.25 0.639 0.14 0.364 0.21 0.666 0.21 0.905 0 0.186-0.048 0.319-0.145 0.399-0.56-2.022-1.882-3.033-3.965-3.033zM7.326 21.462c-0.298 0-0.604 0.18-0.919 0.538-0.298 0.324-0.473 0.643-0.526 0.958 0.175-0.123 0.302-0.214 0.381-0.276 0.184-0.131 0.315-0.201 0.394-0.21 0.053 0.236 0.092 0.42 0.118 0.551 0.236-0.42 0.416-0.661 0.538-0.722l0.342-0.053c0.175-0.044 0.262-0.145 0.262-0.302 0-0.324-0.197-0.486-0.591-0.486zM8.456 22.695c-0.061 0-0.114 0.022-0.158 0.065 0.21 0.088 0.416 0.276 0.617 0.565 0.166 0.236 0.354 0.355 0.565 0.355 0.158 0 0.317-0.050 0.479-0.151s0.243-0.225 0.243-0.374c0-0.306-0.144-0.459-0.433-0.46-0.123 0-0.234 0.061-0.335 0.184s-0.173 0.184-0.217 0.184c-0.053 0-0.173-0.061-0.361-0.184s-0.321-0.184-0.4-0.184zM20.633 23.887c0.386 0 0.748 0.173 1.085 0.519s0.506 0.713 0.506 1.099c0 0.323-0.302 0.481-0.903 0.472h-0.741c-0.342-0.009-0.606-0.041-0.795-0.095-0.297-0.090-0.445-0.29-0.445-0.597 0-0.353 0.13-0.674 0.391-0.963s0.561-0.434 0.903-0.434zM25.406 23.901c0.35 0 0.66 0.143 0.93 0.427s0.404 0.608 0.404 0.97c0 0.443-0.292 0.67-0.876 0.678h-1.55c-0.306 0-0.459-0.157-0.459-0.472 0-0.378 0.164-0.739 0.492-1.085s0.681-0.519 1.058-0.519zM22.737 25.626c0.027 0 0.049 0.013 0.067 0.041v0.471c0-0.125 0.031 0.288 0.094 1.241 0.018 0.018 0.045 0.027 0.081 0.027 0.054 0 0.081-0.063 0.081-0.189l0.148-1.577c0.144 0.324 0.243 0.575 0.297 0.755 0.063 0.126 0.126 0.248 0.189 0.364v0.418c0 0.485-0.045 0.728-0.135 0.728-0.242-0.108-0.449-0.162-0.62-0.162s-0.274 0.009-0.31 0.027c-0.090 0.045-0.171 0.077-0.243 0.094-0.072-0.090-0.108-0.328-0.108-0.715 0-0.701 0.153-1.208 0.459-1.523z"></path>
</svg>
