<!-- Generated by IcoMoon.io -->
<svg version="1.1" xmlns="http://www.w3.org/2000/svg" width="21" height="32" viewBox="0 0 21 32">
<title>watermark-orderofthewidget</title>
<path fill="#444" d="M8.628 13.867h2.086v1.316c0.698 0.11 1.36 0.324 1.967 0.634l0.77-1.061 1.689 1.227-0.77 1.067c0.487 0.488 0.898 1.051 1.215 1.671l1.25-0.409 0.64 1.985-1.25 0.403c0.053 0.337 0.083 0.685 0.083 1.037s-0.030 0.7-0.083 1.037l1.25 0.403-0.64 1.985-1.25-0.409c-0.317 0.62-0.728 1.183-1.215 1.671l0.77 1.067-1.689 1.227-0.77-1.061c-0.608 0.31-1.269 0.524-1.967 0.634v1.316h-2.086v-1.316c-0.698-0.11-1.36-0.324-1.967-0.634l-0.77 1.061-1.689-1.227 0.77-1.067c-0.487-0.488-0.898-1.051-1.215-1.671l-1.25 0.409-0.64-1.985 1.25-0.403c-0.053-0.337-0.083-0.685-0.083-1.037s0.030-0.7 0.083-1.037l-1.25-0.403 0.64-1.985 1.25 0.409c0.317-0.62 0.728-1.183 1.215-1.671l-0.77-1.067 1.689-1.227 0.77 1.061c0.608-0.31 1.269-0.524 1.967-0.634v-1.316zM9.671 19.84c-1.047 0-1.896 0.849-1.896 1.896s0.849 1.896 1.896 1.896 1.896-0.849 1.896-1.896c0-1.047-0.849-1.896-1.896-1.896zM17.256 2.394h0.569v0.456c0.172 0.098 0.428 0.194 0.794 0.196 0.77 0.004 1.015-0.662 1.594-0.652s0.474 0.346 1.12 0.521c-0.001 0.096-0.317 0.388-1.108 0.397s-1.336 0.931-1.861 0.954c-0.231 0.010-0.409-0.044-0.539-0.107v2.033l1.138 1.037c0 0-0.008 0.514-1.138 0.812v4.119h1.138v9.766h-1.908c0.006-0.063 0.012-0.125 0.012-0.19 0-0.17-0.030-0.331-0.041-0.498l1.404-0.45-1.108-3.437-1.404 0.462c-0.177-0.281-0.369-0.546-0.581-0.8l0.865-1.203-2.916-2.116-0.871 1.191c-0.306-0.122-0.619-0.222-0.942-0.302v-1.476h-3.603v1.476c-0.323 0.080-0.636 0.18-0.942 0.302l-0.871-1.191-2.916 2.116 0.865 1.203c-0.212 0.253-0.404 0.519-0.581 0.8l-1.404-0.462-1.108 3.437 1.404 0.45c-0.012 0.167-0.042 0.327-0.042 0.498 0 0.065 0.006 0.127 0.012 0.19h-2.098v-9.766h1.138v-2.27c-1.325-0.286-1.327-0.859-1.327-0.859l3.129-2.844 3.129 2.844c0 0-0.002 0.573-1.327 0.859v2.27h1.991v-6.258l-1.233-1.043v-2.276h1.707v0.853h1.043v-0.853h1.896v0.853h1.043v-0.853h1.707v2.276l-1.233 1.043v6.258h1.991v-4.119c-1.129-0.297-1.138-0.812-1.138-0.812l3.129-2.844 1.422 1.292v-3.283z"></path>
</svg>
