<!-- Generated by IcoMoon.io -->
<svg version="1.1" xmlns="http://www.w3.org/2000/svg" width="32" height="32" viewBox="0 0 32 32">
<title>watermark-japanjunior</title>
<path fill="#444" d="M25.282 14.622c0.005-1.094-0.373-4.789-6.195-4.613-3.024 0.091-6.64 1.714-7.478 2.337-1.255-0.222-1.954 0.159-1.954 0.159s-1.103-0.458-2.588-0.4c2.98-2.979 7.241-4.665 9.775-5.308 1.298-0.33 3.287-0.618 4.697-0.37 4.522 0.797 5.226 3.563 4.221 7.216-0.106 0.386-0.234 0.806-0.352 1.016 0.005 0.011 0.008 0.023 0.008 0.036 0 0 0.015 1.599 0.015 1.599l1.678 0.198c0.038 0.005 0.069 0.033 0.076 0.071s-0.011 0.076-0.045 0.094l-2.098 1.125-0.25 0.984c1.166-0.658 2.412-0.73 2.884-0.123 0.521 0.669-0.086 1.927-1.344 2.787s-2.723 1.016-3.243 0.347c-0.512-0.657 0.065-1.883 1.278-2.741l-0.588-0.471-2.097 3.406c-0.030 0.047-0.084 0.077-0.141 0.077h-1.068c-0.082 0-0.103-0.034-0.063-0.101l1.83-3.005-1.050 0.399-1.581 2.638c-0.027 0.047-0.069 0.070-0.125 0.069l-1.098-0.002c-0.009 0-0.017-0.001-0.025-0.003-0.043-0.013-0.067-0.057-0.054-0.098 0.002-0.007 0.006-0.014 0.011-0.021 0.565-0.766 1.052-1.574 1.461-2.423 0.011-0.022 0.016-0.046 0.016-0.070 0-0.079-0.058-0.148-0.14-0.166-0.71-0.159-1.145 0.134-1.494 0.726-0.396 0.669-0.801 1.331-1.216 1.986-0.030 0.047-0.073 0.070-0.131 0.070l-1.029 0.002c-0.103 0.001-0.128-0.040-0.077-0.124l2.114-3.42c0.025-0.040 0.061-0.065 0.107-0.074 0.476-0.095 0.926-0.050 1.351 0.136 0.055 0.025 0.12 0.023 0.175-0.005 0.513-0.262 1.818-0.537 1.926 0.245l1.116-1.464-0.399-0.837c-0.012-0.025-0.011-0.053 0.001-0.078s0.035-0.041 0.062-0.046l1.486-0.272 1.621-1.478c0.004-0.004 0.008-0.006 0.012-0.009zM24.579 18.894l0.303-1.192c0.006-0.024 0.022-0.044 0.043-0.056l1.887-1.012-1.478-0.175c-0.044-0.005-0.077-0.042-0.077-0.086l-0.014-1.481-1.495 1.363c-0.012 0.011-0.027 0.018-0.043 0.021 0 0-1.399 0.256-1.399 0.256l0.373 0.782c0.014 0.030 0.011 0.065-0.009 0.091l-1.274 1.67 2.191-0.833c0.029-0.011 0.062-0.006 0.086 0.014l0.845 0.677c0.020-0.013 0.040-0.026 0.061-0.039zM24.436 16.379l-0.053 0.585 0.699 0.017-0.836 0.471-0.036 0.547-0.452-0.33-0.896 0.341 0.528-0.692-0.184-0.337 0.578-0.083 0.652-0.52zM24.442 21.24c0.281 0.227 0.947-0.060 1.475-0.635s0.731-1.234 0.45-1.461c-0.281-0.226-0.947 0.060-1.475 0.635s-0.731 1.234-0.45 1.461zM11.111 18.057l-0.859 0.049c-0.003 0-0.005 0-0.008 0-0.078 0-0.141-0.060-0.141-0.132 0-0.026 0.008-0.052 0.024-0.074l0.438-0.605c0.038-0.054 0.092-0.081 0.161-0.082l2.275-0.030c0.001 0 0.001 0 0.002 0 0.042 0 0.077 0.033 0.077 0.072 0 0.013-0.004 0.026-0.011 0.037-0.996 1.591-1.982 3.194-2.959 4.809-0.948 1.572-2.266 2.316-4.286 1.907-0.056-0.011-0.071-0.041-0.045-0.089l0.492-0.868c0.023-0.042 0.077-0.060 0.123-0.042 1.272 0.504 1.873-0.084 2.492-1.106 0.755-1.249 1.525-2.487 2.309-3.715 0.008-0.013 0.013-0.028 0.013-0.044 0-0.048-0.042-0.087-0.093-0.087-0.002 0-0.004 0-0.005 0zM13.176 21.147c0.694 0.080 1.007-0.129 1.365-0.69 0.415-0.651 0.816-1.313 1.204-1.986 0.019-0.033 0.056-0.055 0.097-0.057l1.141-0.035c0.062-0.002 0.078 0.022 0.048 0.074l-2.141 3.519c-0.029 0.047-0.082 0.077-0.14 0.077h-0.748c-0.056 0-0.107-0.016-0.152-0.047l-0.284-0.201c-0.040-0.028-0.094-0.030-0.134-0.005-0.76 0.467-2.758 0.715-1.789-0.933 0.471-0.802 0.958-1.595 1.46-2.379 0.026-0.041 0.065-0.063 0.116-0.066l1.080-0.057c0.002-0 0.004-0 0.006-0 0.045 0 0.082 0.035 0.082 0.077 0 0.014-0.004 0.027-0.011 0.039l-1.404 2.289c-0.024 0.039-0.036 0.083-0.036 0.128 0 0.129 0.104 0.239 0.24 0.255zM30.25 18.768c-0.004 0.009-0.006 0.018-0.006 0.027 0 0.035 0.031 0.064 0.068 0.064 0.015 0 0.030-0.005 0.042-0.014 0.462-0.342 0.995-0.501 1.601-0.478 0.045 0.002 0.057 0.022 0.034 0.059l-0.619 0.992c-0.024 0.038-0.059 0.058-0.105 0.060l-1.392 0.060c-0.077 0.004-0.147 0.044-0.188 0.107l-1.458 2.343c-0.027 0.044-0.068 0.065-0.122 0.064l-1.052-0.014c-0.095-0.001-0.119-0.041-0.072-0.119l2.134-3.45c0.025-0.040 0.063-0.062 0.113-0.065l1.013-0.057c0.002-0 0.004-0 0.007-0 0.074 0 0.134 0.057 0.134 0.126 0 0.018-0.004 0.036-0.012 0.052l-0.12 0.243zM6.166 16.708c-1.538 0.756-2.858 0.131-1.331-1.456 0.585-0.608 1.949-0.752 2.745-0.732 0.119 0.003 0.224-0.077 0.25-0.19 0.17-0.773-1.8-0.218-2.114-0.078-0.010 0.005-0.021 0.007-0.032 0.007-0.040 0-0.073-0.031-0.073-0.070 0-0.014 0.004-0.028 0.013-0.039l0.572-0.819c0.022-0.030 0.055-0.052 0.094-0.060 0.549-0.107 3.668-0.542 2.869 0.899-0.511 0.922-1.054 1.827-1.628 2.715-0.032 0.050-0.078 0.075-0.138 0.075h-0.879c-0.057 0-0.11-0.032-0.135-0.082l-0.060-0.12c-0.033-0.067-0.084-0.083-0.152-0.049zM7.209 15.309c-0.092-0.182-0.535-0.16-0.981 0.048s-0.736 0.529-0.644 0.711c0.092 0.182 0.535 0.16 0.981-0.048s0.736-0.529 0.644-0.711zM11.888 13.472c0.512-0.253 1.281-0.54 1.775-0.178 1.168 0.858-1.938 4.519-3.923 3.508-0.067-0.034-0.119-0.019-0.156 0.044l-0.783 1.339c-0.036 0.061-0.090 0.092-0.163 0.092h-1.022c-0.101 0-0.125-0.041-0.074-0.124l2.938-4.855c0.028-0.045 0.078-0.073 0.131-0.073l0.817-0.002c0.064-0.001 0.116 0.022 0.158 0.068l0.136 0.151c0.047 0.052 0.103 0.062 0.167 0.031zM12.182 14.053c-1.070-0.246-1.639 1.189-2.070 1.909-0.008 0.013-0.012 0.028-0.012 0.043 0 0.043 0.033 0.080 0.078 0.086 1.196 0.175 1.866-0.642 2.245-1.605 0.091-0.231 0.011-0.376-0.241-0.433zM15.093 16.69c-0.654 0.307-1.729 0.668-2.094-0.16-0.024-0.051-0.025-0.103-0.005-0.156 0.602-1.612 1.981-1.779 3.523-1.892 0.138-0.011 0.246-0.123 0.246-0.256 0-0.127-0.099-0.236-0.23-0.254-0.656-0.087-1.276 0.001-1.861 0.263-0.051 0.022-0.070 0.007-0.057-0.044 0.124-0.53 0.377-0.849 0.76-0.956 0.397-0.112 3.416-0.43 2.709 0.873-0.456 0.841-0.945 1.665-1.467 2.47-0.029 0.046-0.048 0.097-0.055 0.151-0.019 0.139-0.107 0.215-0.264 0.226-0.164 0.011-0.443 0.012-0.838 0.002-0.060-0.002-0.105-0.029-0.133-0.080l-0.073-0.136c-0.037-0.068-0.090-0.085-0.161-0.051zM16.119 15.3c-0.092-0.182-0.539-0.158-0.99 0.053s-0.746 0.534-0.653 0.716 0.54 0.158 0.99-0.053c0.451-0.211 0.746-0.534 0.653-0.716zM21.252 14.44c0.006-0.010 0.011-0.021 0.015-0.032 0.045-0.116-0.017-0.248-0.137-0.292-0.011-0.004-0.022-0.007-0.034-0.010-0.704-0.144-1.079 0.163-1.429 0.754-0.391 0.663-0.785 1.326-1.18 1.991-0.037 0.062-0.094 0.094-0.17 0.095l-0.991 0.017c-0.008 0-0.017-0.001-0.025-0.003-0.048-0.012-0.078-0.062-0.065-0.109 0.002-0.008 0.005-0.015 0.009-0.022l2.118-3.53c0.029-0.048 0.082-0.078 0.14-0.078h0.932c0.062 0 0.104 0.028 0.126 0.085l0.060 0.149c0.029 0.076 0.078 0.091 0.145 0.046 0.76-0.503 2.671-0.707 1.776 0.861-0.482 0.845-0.975 1.683-1.478 2.514-0.031 0.051-0.088 0.082-0.149 0.082h-0.946c-0.010 0-0.020-0.001-0.029-0.003-0.057-0.015-0.092-0.074-0.076-0.131 0.002-0.009 0.006-0.017 0.011-0.026l1.378-2.36zM3.332 17.253c0.368 0.333 0.883 0.617 1.653 0.691-0.977 1.356-1.65 2.934-1.93 4.498-0.135 0.76-0.081 1.575-0.026 2.366 0.003 0.043-0.008 0.048-0.035 0.014-1.519-1.895-1.556-4.015-0.879-6.351 0.045-0.156 0.201-0.538 0.402-0.729 0.021-0.019 0.039-0.055 0.073-0.060 0.311-0.043 0.769-0.332 0.743-0.431zM12.489 24.065v1.493c0 0.032-0.026 0.057-0.057 0.057h-0.545c-0.031 0-0.057-0.025-0.057-0.057 0 0 0-1.493 0-1.493h-0.391c-0.032 0-0.057-0.025-0.057-0.057v-0.438c0-0.032 0.025-0.057 0.057-0.057h1.44c0.031 0 0.057 0.025 0.057 0.057v0.438c0 0.032-0.026 0.057-0.057 0.057h-0.391zM12.859 24.87c0-0.109 0.023-0.211 0.070-0.306s0.11-0.176 0.192-0.245c0.081-0.068 0.177-0.123 0.289-0.162 0.111-0.039 0.231-0.059 0.362-0.059 0.129 0 0.249 0.019 0.359 0.057 0.112 0.038 0.208 0.092 0.29 0.16 0.083 0.070 0.148 0.152 0.194 0.249s0.070 0.202 0.070 0.319c0 0.116-0.024 0.223-0.071 0.319s-0.112 0.178-0.194 0.248c-0.081 0.069-0.179 0.122-0.293 0.16-0.112 0.037-0.233 0.056-0.364 0.056-0.129 0-0.248-0.019-0.357-0.056-0.111-0.038-0.207-0.091-0.287-0.161s-0.145-0.154-0.191-0.252c-0.046-0.098-0.069-0.206-0.069-0.326zM13.505 24.876c0 0.037 0.007 0.071 0.021 0.101 0.015 0.032 0.034 0.059 0.058 0.082s0.052 0.041 0.084 0.054c0.033 0.013 0.068 0.020 0.105 0.020s0.072-0.006 0.106-0.020c0.033-0.013 0.061-0.031 0.084-0.054s0.043-0.051 0.058-0.082c0.014-0.030 0.021-0.063 0.021-0.098 0-0.034-0.007-0.066-0.021-0.096-0.015-0.031-0.034-0.059-0.058-0.082s-0.052-0.041-0.084-0.054c-0.033-0.013-0.068-0.020-0.106-0.020s-0.072 0.007-0.105 0.020c-0.033 0.013-0.061 0.031-0.084 0.054s-0.043 0.050-0.058 0.081c-0.014 0.029-0.021 0.061-0.021 0.094zM15.479 24.206v0.762c0 0.065 0.014 0.115 0.047 0.147s0.085 0.046 0.152 0.046c0.067 0 0.118-0.014 0.152-0.046s0.047-0.082 0.047-0.147v-0.762c0-0.031 0.026-0.057 0.057-0.057h0.503c0.032 0 0.057 0.026 0.057 0.057v0.854c0 0.204-0.073 0.356-0.214 0.457-0.134 0.097-0.335 0.148-0.602 0.148s-0.467-0.051-0.602-0.148c-0.142-0.102-0.214-0.254-0.214-0.457v-0.854c0-0.031 0.026-0.057 0.057-0.057h0.503c0.032 0 0.057 0.026 0.057 0.057zM16.779 24.149h0.503c0.031 0 0.057 0.026 0.057 0.057 0 0 0 0.067 0 0.067 0.035-0.032 0.072-0.059 0.113-0.081 0.086-0.047 0.186-0.072 0.3-0.072h0.043c0.019 0 0.040 0.002 0.064 0.006 0.027 0.005 0.047 0.029 0.047 0.056v0.456c0 0.019-0.010 0.038-0.026 0.048s-0.037 0.012-0.055 0.003c-0.059-0.028-0.123-0.042-0.192-0.042-0.097 0-0.171 0.025-0.22 0.080-0.051 0.057-0.073 0.141-0.073 0.251v0.58c0 0.032-0.026 0.057-0.057 0.057h-0.503c-0.032 0-0.057-0.025-0.057-0.057v-1.352c0-0.031 0.025-0.057 0.057-0.057zM18.075 24.149h0.503c0.032 0 0.057 0.026 0.057 0.057 0 0 0 0.037 0 0.036 0.043-0.035 0.087-0.061 0.131-0.078 0.076-0.030 0.166-0.045 0.268-0.045 0.109 0 0.202 0.017 0.28 0.051 0.079 0.034 0.147 0.082 0.202 0.145 0.047 0.053 0.079 0.111 0.096 0.176 0.016 0.061 0.024 0.13 0.024 0.207v0.859c0 0.032-0.026 0.057-0.057 0.057h-0.503c-0.031 0-0.057-0.025-0.057-0.057v-0.683c0-0.061-0.004-0.111-0.014-0.149-0.007-0.030-0.019-0.054-0.038-0.071-0.016-0.015-0.033-0.026-0.053-0.032-0.022-0.007-0.046-0.011-0.072-0.011-0.067 0-0.119 0.017-0.154 0.055-0.037 0.039-0.053 0.095-0.053 0.168v0.722c0 0.032-0.025 0.057-0.057 0.057h-0.503c-0.031 0-0.057-0.025-0.057-0.057v-1.352c0-0.031 0.026-0.057 0.057-0.057zM21.022 24.149h0.506c0.032 0 0.057 0.026 0.057 0.057v1.352c0 0.032-0.025 0.057-0.057 0.057h-0.506c-0.032 0-0.057-0.025-0.057-0.057 0 0 0-0.018-0-0.018-0.104 0.078-0.23 0.117-0.38 0.117-0.112 0-0.214-0.020-0.308-0.058s-0.177-0.094-0.247-0.164c-0.070-0.070-0.125-0.153-0.164-0.248s-0.058-0.198-0.058-0.309c0-0.104 0.019-0.203 0.057-0.297s0.091-0.176 0.159-0.246 0.149-0.126 0.243-0.167c0.094-0.041 0.198-0.061 0.312-0.061 0.148 0 0.276 0.038 0.385 0.112v-0.013c0-0.031 0.025-0.057 0.057-0.057zM20.445 24.878c0 0.036 0.007 0.069 0.020 0.099s0.032 0.058 0.056 0.081c0.023 0.023 0.052 0.041 0.084 0.054s0.070 0.020 0.108 0.020c0.037 0 0.072-0.006 0.106-0.020s0.061-0.031 0.084-0.054c0.024-0.023 0.043-0.051 0.058-0.081 0.014-0.029 0.021-0.061 0.021-0.094s-0.007-0.066-0.021-0.096c-0.015-0.031-0.034-0.059-0.058-0.082s-0.052-0.041-0.084-0.054c-0.033-0.013-0.068-0.020-0.106-0.020-0.039 0-0.075 0.006-0.108 0.020s-0.061 0.031-0.084 0.054c-0.024 0.023-0.043 0.050-0.056 0.079-0.013 0.029-0.020 0.060-0.020 0.094zM21.87 24.149h0.503c0.031 0 0.057 0.026 0.057 0.057 0 0 0 0.049 0 0.048 0.123-0.084 0.259-0.126 0.405-0.126 0.204 0 0.365 0.072 0.484 0.215 0.12-0.145 0.282-0.217 0.484-0.217 0.073 0 0.141 0.010 0.206 0.030 0.068 0.021 0.126 0.054 0.175 0.1s0.087 0.103 0.116 0.175c0.027 0.069 0.041 0.152 0.041 0.25v0.878c0 0.032-0.026 0.057-0.057 0.057h-0.503c-0.031 0-0.057-0.025-0.057-0.057v-0.667c0-0.063-0.004-0.115-0.014-0.156-0.008-0.034-0.019-0.061-0.034-0.080-0.012-0.015-0.026-0.026-0.042-0.032-0.020-0.007-0.042-0.010-0.065-0.010-0.048 0-0.087 0.012-0.116 0.039-0.049 0.045-0.069 0.126-0.069 0.239v0.667c0 0.032-0.025 0.057-0.057 0.057h-0.503c-0.032 0-0.057-0.025-0.057-0.057v-0.667c0-0.064-0.004-0.117-0.013-0.159-0.008-0.036-0.018-0.065-0.032-0.087-0.010-0.015-0.023-0.026-0.040-0.032-0.022-0.008-0.049-0.011-0.079-0.011-0.025 0-0.049 0.003-0.072 0.011-0.018 0.006-0.033 0.017-0.047 0.034-0.017 0.020-0.029 0.048-0.039 0.084-0.011 0.041-0.016 0.095-0.016 0.161v0.667c0 0.032-0.026 0.057-0.057 0.057h-0.503c-0.032 0-0.057-0.025-0.057-0.057v-1.352c0-0.031 0.025-0.057 0.057-0.057zM26.198 24.913c0 0.001 0 0.001 0 0.001v0.048c0 0.052-0.057 0.058-0.057 0.058h-0.999c0.007 0.057 0.025 0.102 0.057 0.134 0.042 0.042 0.105 0.060 0.189 0.060 0.088 0 0.155-0.033 0.2-0.101 0.011-0.016 0.028-0.026 0.047-0.026h0.487c0.018 0 0.035 0.009 0.046 0.023s0.014 0.034 0.008 0.051c-0.106 0.333-0.368 0.504-0.791 0.504-0.127 0-0.244-0.018-0.349-0.054-0.108-0.037-0.2-0.090-0.277-0.158s-0.137-0.151-0.18-0.246c-0.042-0.095-0.063-0.201-0.063-0.318 0-0.12 0.020-0.229 0.060-0.326 0.040-0.098 0.098-0.182 0.173-0.251s0.164-0.121 0.269-0.158c0.103-0.036 0.219-0.055 0.348-0.055 0.128 0 0.242 0.018 0.344 0.055 0.105 0.037 0.193 0.091 0.265 0.162s0.128 0.157 0.167 0.259c0.037 0.1 0.056 0.213 0.056 0.338zM25.587 24.629c-0.014-0.023-0.032-0.042-0.053-0.059-0.042-0.033-0.094-0.049-0.154-0.049-0.063 0-0.115 0.014-0.155 0.046-0.021 0.017-0.038 0.037-0.050 0.062h0.413zM26.428 24.149h0.503c0.032 0 0.057 0.026 0.057 0.057 0 0 0 0.037 0 0.036 0.043-0.035 0.087-0.061 0.131-0.078 0.076-0.030 0.166-0.045 0.268-0.045 0.109 0 0.202 0.017 0.28 0.051 0.079 0.034 0.147 0.082 0.202 0.145 0.047 0.053 0.079 0.111 0.096 0.176 0.016 0.061 0.024 0.13 0.024 0.207v0.859c0 0.032-0.026 0.057-0.057 0.057h-0.503c-0.031 0-0.057-0.025-0.057-0.057v-0.683c0-0.061-0.004-0.111-0.014-0.149-0.007-0.030-0.019-0.054-0.038-0.071-0.016-0.015-0.033-0.026-0.053-0.032-0.022-0.007-0.046-0.011-0.072-0.011-0.067 0-0.119 0.017-0.155 0.055-0.037 0.039-0.053 0.095-0.053 0.168v0.722c0 0.032-0.025 0.057-0.057 0.057h-0.503c-0.032 0-0.057-0.025-0.057-0.057v-1.352c0-0.031 0.025-0.057 0.057-0.057zM28.893 24.661v0.897c0 0.032-0.026 0.057-0.057 0.057h-0.503c-0.031 0-0.057-0.025-0.057-0.057v-0.897h-0.11c-0.032 0-0.057-0.025-0.057-0.057v-0.398c0-0.031 0.025-0.057 0.057-0.057h0.11v-0.349c0-0.031 0.026-0.057 0.057-0.057h0.503c0.031 0 0.057 0.026 0.057 0.057 0 0 0 0.349 0 0.349h0.229c0.032 0 0.057 0.026 0.057 0.057v0.398c0 0.032-0.025 0.057-0.057 0.057h-0.229zM5.271 10.878l-0.856 0.061c-0.002 0-0.004 0-0.007 0-0.044 0-0.080-0.034-0.080-0.077 0-0.013 0.004-0.026 0.010-0.038l0.463-0.791c0.031-0.054 0.078-0.082 0.143-0.082h2.314c0.057 0 0.071 0.024 0.043 0.071-1.082 1.855-2.196 3.69-3.342 5.506-0.824 1.306-2.374 1.719-3.895 1.381-0.066-0.015-0.082-0.050-0.048-0.107l0.521-0.834c0.039-0.063 0.095-0.083 0.168-0.058 1.497 0.528 1.884-0.314 2.607-1.475 0.703-1.128 1.387-2.268 2.052-3.42 0.005-0.008 0.008-0.017 0.010-0.026 0.011-0.050-0.023-0.1-0.076-0.111-0.009-0.002-0.019-0.003-0.028-0.002z"></path>
</svg>
