<!-- Generated by IcoMoon.io -->
<svg version="1.1" xmlns="http://www.w3.org/2000/svg" width="30" height="32" viewBox="0 0 30 32">
<title>watermark-flavor-whenfluffybunniesattack</title>
<path fill="#444" d="M19.52 14.813c0.012 0.167 0.016 0.345 0.013 0.536-0.003 0.185 0.107 0.294 0.238 0.395 0.156 0.12 0.345 0.225 0.534 0.341 0.631 0.387 1.252 0.878 1.298 1.966 0.024 0.566 0.009 0.965-0.429 2.479-0.215 0.743-0.244 1.122-0.24 1.514 0.002 0.173 0.090 0.298 0.142 0.435 0.108 0.285 0.168 0.587-0.005 1.017-0.124 0.308-0.309 0.449-0.538 0.558-0.138 0.066-0.321 0.093-0.492 0.31-0.162 0.206-0.277 0.426-0.4 0.619-0.582 0.912-1.277 1.709-2.158 2.312-0.446 1.097-1.032 1.917-1.73 2.27-0.218 0.14-0.481 0.225-0.81 0.217-0.042-0.001-0.084-0.003-0.124-0.007-0.227-0.009-0.42-0.063-0.588-0.149-0.753-0.323-1.382-1.177-1.854-2.342-0.878-0.603-1.571-1.398-2.151-2.308-0.123-0.193-0.238-0.413-0.4-0.619-0.17-0.217-0.353-0.244-0.492-0.31-0.229-0.109-0.414-0.25-0.538-0.558-0.173-0.43-0.113-0.733-0.005-1.017 0.052-0.138 0.141-0.262 0.142-0.435 0.004-0.392-0.025-0.771-0.24-1.514-0.438-1.513-0.453-1.913-0.429-2.479 0.046-1.087 0.667-1.579 1.298-1.966 0.189-0.116 0.378-0.22 0.534-0.341 0.131-0.101 0.241-0.21 0.238-0.395-0.003-0.191 0.002-0.37 0.013-0.536-7.655-6.346-9.74-10.047-10.207-11.365-0.129-0.365-0.148-0.603-0.138-0.708 0.013-0.139 0.065-0.229 0.106-0.283 0.069-0.091 0.188-0.188 0.387-0.221 0.132-0.022 0.361-0.014 0.665 0.045 1.325 0.257 4.547 1.453 6.815 2.832 0.058 0.035 0.119 0.062 0.177 0.093 2.418 1.293 5.163 5.082 5.928 6.185 0.263-0.046 0.542-0.072 0.833-0.072 0.255 0 0.502 0.019 0.733 0.055 0.047 0.007 0.094 0.014 0.141 0.023 0.765-1.103 3.51-4.892 5.928-6.185 0.058-0.031 0.119-0.058 0.177-0.093 2.268-1.379 5.49-2.575 6.815-2.832 0.304-0.059 0.533-0.067 0.665-0.045 0.199 0.034 0.318 0.13 0.387 0.221 0.041 0.054 0.093 0.143 0.106 0.283 0.010 0.105-0.008 0.343-0.138 0.708-0.467 1.318-2.552 5.019-10.207 11.365zM12.766 26.97c0.424 1.1 0.969 1.933 1.667 2.223 0.118 0.062 0.254 0.1 0.415 0.105 0.035 0.003 0.070 0.006 0.105 0.006 0.229 0.006 0.412-0.053 0.561-0.154 0.656-0.318 1.172-1.122 1.579-2.17 0.886-0.575 1.572-1.357 2.145-2.255 0.131-0.205 0.255-0.438 0.427-0.657 0.39-0.495 0.791-0.326 0.962-0.751 0.228-0.567-0.167-0.797-0.171-1.269-0.004-0.428 0.024-0.842 0.259-1.652 0.412-1.421 0.433-1.794 0.41-2.326-0.074-1.761-2.090-1.54-2.070-2.73 0.005-0.272-0.008-0.516-0.036-0.735 0.005-0.004 0.009-0.007 0.014-0.011 9.596-7.917 10.483-11.666 10.344-11.849-0.244-0.32-4.468 1.090-7.238 2.775-0.066 0.040-0.134 0.071-0.199 0.106-2.632 1.407-5.649 5.863-5.94 6.299-0.135-0.035-0.276-0.063-0.423-0.085-0.211-0.033-0.435-0.050-0.665-0.050-0.374 0-0.729 0.046-1.046 0.129-0.291-0.435-3.308-4.891-5.94-6.299-0.065-0.035-0.134-0.066-0.199-0.106-2.771-1.685-6.995-3.096-7.238-2.775-0.139 0.183 0.748 3.933 10.344 11.849 0.005 0.004 0.009 0.008 0.014 0.011-0.028 0.219-0.040 0.464-0.036 0.735 0.020 1.19-1.996 0.969-2.070 2.73-0.022 0.532-0.001 0.905 0.411 2.326 0.235 0.81 0.263 1.224 0.259 1.652-0.005 0.473-0.4 0.703-0.171 1.269 0.171 0.426 0.572 0.256 0.962 0.751 0.172 0.219 0.296 0.452 0.427 0.657 0.571 0.896 1.256 1.675 2.138 2.25zM10.868 18.362c0.234-0.169 1.583 0.447 2.321 1.623s0.913 2.225 0.547 2.844c-0.058 0.098-1.812-0.503-2.55-1.679s-0.53-2.635-0.318-2.788zM18.881 18.362c0.212 0.153 0.42 1.612-0.318 2.788s-2.493 1.777-2.55 1.679c-0.366-0.619-0.191-1.668 0.547-2.844s2.088-1.791 2.321-1.623z"></path>
</svg>
