<!-- Generated by IcoMoon.io -->
<svg version="1.1" xmlns="http://www.w3.org/2000/svg" width="19" height="32" viewBox="0 0 19 32">
<title>watermark-cutiemark-balloons</title>
<path fill="#444" d="M8.187 10.773l-1.097-0.080c-0.010-0.001-0.014-0.006-0.010-0.015l0.555-1.566c0.003-0.008 0.002-0.017-0.003-0.023-0.494-0.706-0.931-1.444-1.31-2.215-0.475-0.966-0.834-2.026-0.881-3.102-0.074-1.682 0.912-3.088 2.674-3.188h0.341c1.311 0.087 2.42 0.907 2.815 2.171 0.675 2.16-0.795 4.678-2.068 6.315-0.005 0.006-0.006 0.014-0.005 0.022l0.439 1.765c0 0.001 0 0.003 0 0.004 0 0.009-0.007 0.016-0.016 0.016-0 0-0.001 0-0.001-0l-1.176-0.083c-0.221 0.69-0.387 1.393-0.424 2.116-0.074 1.459 0.506 2.601 1.587 3.542 0.217 0.189 0.526 0.401 0.73 0.605 1.204 1.204 1.556 3.38-0.116 4.408-0.457 0.281-0.911 0.439-1.434 0.225-0.922-0.378-1.319-1.819-0.555-2.534 0.282-0.264 0.678-0.394 1.068-0.405 0.19-0.005 0.187 0.23-0.026 0.247-0.813 0.066-1.329 0.609-1.159 1.445 0.1 0.492 0.465 0.989 0.991 1.077 0.58 0.096 1.243-0.377 1.582-0.809 0.8-1.019 0.358-2.519-0.442-3.384-0.2-0.216-0.481-0.424-0.729-0.625-1.045-0.846-1.705-1.988-1.752-3.353-0.030-0.874 0.147-1.744 0.421-2.576zM14.159 19.484c-0.389 0.958-0.639 1.948-0.751 2.969-0.121 1.103-0.023 2.232 0.495 3.23 0.048 0.093 0.141 0.245 0.279 0.458 0.639 0.982 1.472 2.425 1.181 3.638-0.174 0.721-0.757 1.222-1.412 1.5-0.189 0.080-0.388 0.127-0.597 0.138h-0.127c-1.622-0.104-2.746-2.375-1.296-3.501 0.147-0.114 0.314 0.073 0.132 0.217-1.085 0.859-0.403 2.481 0.685 2.923 0.641 0.261 1.296-0.006 1.795-0.436 0.636-0.548 0.738-1.284 0.525-2.067-0.205-0.756-0.578-1.466-0.996-2.109-0.194-0.298-0.38-0.588-0.517-0.895-0.835-1.865-0.393-4.267 0.349-6.107l-1.137-0.2c-0.001-0-0.001-0-0.002-0-0.005-0.002-0.007-0.007-0.005-0.012 0-0.001 0.001-0.001 0.001-0.002l1.1-1.641c0.006-0.009 0.007-0.019 0.003-0.029-0.436-1.147-0.76-2.351-0.863-3.569-0.049-0.571-0.021-1.138 0.084-1.7 0.246-1.328 1.123-2.43 2.549-2.516 1.636-0.099 2.976 1.184 3.033 2.786v0.167c-0.033 0.827-0.322 1.604-0.754 2.306-0.676 1.1-1.624 2.057-2.629 2.854-0.018 0.015-0.028 0.037-0.026 0.061l0.165 1.747c0.001 0.010-0.004 0.014-0.013 0.012l-1.25-0.221zM5.327 20.517l-1.144 0.556c-0.001 0-0.002 0.001-0.003 0.001-0.004 0-0.008-0.004-0.008-0.008-0.018-0.634-0.035-1.269-0.051-1.904-0.001-0.025-0.011-0.044-0.031-0.058-0.718-0.493-1.379-1.030-1.982-1.611-1.048-1.010-1.989-2.32-2.107-3.816v-0.363c0.079-1.361 1.077-2.514 2.461-2.665 1.645-0.18 2.71 1.068 3.1 2.539 0.452 1.701 0.152 3.592-0.237 5.292-0.002 0.010 0 0.018 0.007 0.026l1.274 1.379c0.002 0.002 0.002 0.004 0.002 0.006 0 0.003-0.002 0.007-0.005 0.008l-1.041 0.504c0.317 1.25 0.346 2.558-0.162 3.765-0.112 0.266-0.301 0.611-0.436 0.893-0.75 1.56-1.214 3.844 0.73 4.821 0.195 0.098 0.387 0.17 0.576 0.216 1.401 0.338 2.352-1.040 2.649-2.197 0.152-0.593 0.072-1.148-0.182-1.714-0.21-0.469-0.661-0.967-1.209-0.942-0.457 0.021-0.784 0.337-1.076 0.654-0.086 0.093-0.269-0.048-0.172-0.179 0.144-0.197 0.43-0.441 0.67-0.568 0.825-0.434 1.57 0.070 1.954 0.8 0.332 0.632 0.438 1.315 0.265 2.003-0.388 1.54-1.694 3.019-3.449 2.222-2.189-0.994-1.847-3.386-1.020-5.152 0.157-0.334 0.37-0.706 0.496-1.026 0.438-1.12 0.429-2.316 0.132-3.48z"></path>
</svg>
