<!-- Generated by IcoMoon.io -->
<svg version="1.1" xmlns="http://www.w3.org/2000/svg" width="32" height="32" viewBox="0 0 32 32">
<title>watermark-grandprix2</title>
<path fill="#444" d="M14.782 8.297c0 0 0.454-0.017 0.588-0.017 0.208 0 0.66 0.017 0.66 0.017 3.159 0.153 6.527 1.441 8.423 4.089 0.010 0.014 0.029 0.020 0.046 0.013 0.179-0.075 0.343-0.174 0.493-0.297 0.016-0.014 0.029-0.011 0.038 0.008 0.799 1.735 2.725 1.815 4.382 1.903 0.010 0 0.019 0.008 0.020 0.019 0.002 0.029-0.008 0.036-0.029 0.022-0.012-0.007-0.024-0.011-0.038-0.011-8.547 0.025-17.094 0.049-25.641 0.070-1.182 0.003-2.427 0.021-3.518 0.011-0.007-0-0.014-0.005-0.018-0.013-0.003-0.007-0.001-0.010 0.006-0.010l5.279-0.137c0.014-0 0.026-0.009 0.032-0.022 1.477-3.714 5.548-5.452 9.278-5.644zM23.846 12.581c-2.308-2.414-5.695-3.448-8.974-3.189-2.903 0.23-5.917 1.629-7.121 4.453-0.002 0.005-0.003 0.010-0.003 0.015 0 0.021 0.018 0.039 0.039 0.039 0 0 0 0 0.001 0 4.073-0.103 8.161-0.241 12.22-0.625 1.328-0.125 2.632-0.317 3.82-0.631 0.017-0.004 0.028-0.019 0.028-0.037 0-0.010-0.004-0.019-0.011-0.026zM11.44 11.587c0.010 0 0.022 0.004 0.036 0.012l0.126 0.058c0.035 0.015 0.051 0.025 0.030 0.082l-0.006 0.014c-0.026 0.057-0.075 0.164-0.117 0.283-0.012 0.033-0.027 0.071-0.043 0.111-0.081 0.201-0.182 0.452-0.035 0.583 0.045 0.041 0.080 0.059 0.097 0.066v0.055c-0.054-0.008-0.11-0.011-0.165-0.011-0.269 0-0.516 0.091-0.624 0.18l-0.038-0.071c0.037-0.025 0.159-0.11 0.237-0.209 0.123-0.156 0.239-0.493 0.316-0.717 0.026-0.075 0.048-0.14 0.064-0.178 0.054-0.13 0.078-0.19 0.092-0.225 0-0 0.001-0.003 0.001-0.003 0.009-0.025 0.022-0.028 0.031-0.028zM15.104 12.28h0.025v0.013h0.347v-0.013h0.025l0.008 0.125h-0.022c-0.011-0.047-0.035-0.077-0.099-0.077h-0.019v0.443h0.049v0.025h-0.234v-0.025h0.050v-0.443h-0.018c-0.064 0-0.088 0.030-0.099 0.077h-0.022l0.009-0.125zM16.847 12.277c0.037 0 0.081 0.017 0.131 0.050l0.010 0.007 0.024-0.016 0.013 0.019-0.141 0.090-0.012-0.019c0.005-0.009 0.007-0.019 0.007-0.030 0-0.041-0.036-0.063-0.072-0.063-0.046 0-0.123 0.024-0.123 0.184 0 0.156 0.077 0.242 0.216 0.242h0.018v-0.209h-0.094v-0.025h0.196c0.011 0 0.020-0.003 0.029-0.007l0.005 0.010c-0.012 0.012-0.018 0.025-0.018 0.047v0.234h-0.014l-0.040-0.061-0.016 0.011c-0.057 0.042-0.116 0.062-0.181 0.062-0.143 0-0.236-0.096-0.236-0.243 0-0.16 0.131-0.286 0.297-0.286zM15.691 12.287v0.014l-0.029 0.010v0.209l0.030-0.026c0.046-0.039 0.078-0.063 0.132-0.063 0.077 0 0.088 0.057 0.088 0.091h0v0.262h0.028v0.011h-0.167v-0.011h0.030v-0.221c0-0.049-0.023-0.074-0.068-0.074-0.026 0-0.052 0.015-0.071 0.041l-0.004 0.005v0.249h0.031v0.011h-0.168v-0.011h0.029v-0.442l-0.028 0.010v-0.009l0.165-0.057zM17.948 12.287v0.014l-0.029 0.010v0.209l0.030-0.026c0.046-0.039 0.078-0.063 0.131-0.063 0.077 0 0.088 0.057 0.088 0.091h0v0.262h0.028v0.011h-0.167v-0.011h0.030v-0.221c0-0.049-0.023-0.074-0.067-0.074-0.026 0-0.052 0.015-0.071 0.041l-0.003 0.005v0.249h0.031v0.011h-0.168v-0.011h0.029v-0.442l-0.028 0.009v-0.009l0.165-0.057zM19.046 12.349c0.052 0 0.052 0.021 0.052 0.031 0 0.040-0.062 0.049-0.084 0.049-0.023 0-0.035-0.010-0.035-0.031 0-0.026 0.042-0.050 0.067-0.050zM17.641 12.343l0.015 0.003c-0.002 0.016-0.003 0.032-0.003 0.047v0.050h0.067l-0.005 0.025h-0.062v0.247c0 0.033 0.026 0.050 0.051 0.050 0.011 0 0.022-0.003 0.031-0.007l0.003 0.005c-0.033 0.023-0.071 0.044-0.112 0.044-0.058 0-0.081-0.024-0.081-0.086v-0.253h-0.039v-0.011c0.059-0.020 0.108-0.061 0.134-0.113zM19.96 12.372c0.002 0 0.004 0 0.007 0l-0.007 0.033c-0.005-0.002-0.010-0.003-0.016-0.003-0.019 0-0.033 0.015-0.033 0.036 0 0.013 0.010 0.021 0.022 0.032 0.021 0.018 0.052 0.044 0.052 0.101 0 0.106-0.095 0.13-0.186 0.154l-0.024 0.008 0 0.031 0.016 0.002c0.059 0.006 0.181 0.020 0.181 0.092s-0.107 0.088-0.144 0.088c-0.081 0-0.123-0.021-0.123-0.061 0-0.028 0.035-0.047 0.061-0.050l0.016-0.004v-0.033l-0.027-0.002c-0.025-0.002-0.044-0.004-0.062-0.004-0.010 0-0.019 0-0.028 0.001l-0.021-0.020c0.045-0.010 0.087-0.024 0.119-0.036l0.012-0.006v-0.029l-0.016-0.002c-0.055-0.008-0.12-0.045-0.12-0.122 0-0.107 0.085-0.145 0.158-0.145 0.029 0 0.049 0.004 0.066 0.007 0.006 0.001 0.012 0.002 0.018 0.003l0.016 0.002 0.014-0.045c0.006-0.019 0.011-0.028 0.049-0.028zM19.79 12.446c-0.060 0-0.060 0.054-0.060 0.072 0 0.046 0.025 0.181 0.102 0.181 0.060 0 0.060-0.054 0.060-0.071 0-0.046-0.025-0.181-0.102-0.181zM19.808 12.805l-0.010 0.015c-0.011 0.018-0.017 0.039-0.017 0.064 0 0.030 0.018 0.060 0.051 0.060 0.030 0 0.049-0.018 0.049-0.048 0-0.046-0.028-0.063-0.055-0.080l-0.002-0.001-0.015-0.010zM16.158 12.433c0.083 0 0.14 0.046 0.171 0.137l-0.226 0.083 0.007 0.018c0.021 0.053 0.062 0.081 0.117 0.081 0.038 0 0.071-0.012 0.096-0.034l0.006 0.007c-0.046 0.055-0.104 0.084-0.173 0.084-0.108 0-0.175-0.073-0.175-0.191 0-0.103 0.078-0.184 0.176-0.184zM16.133 12.456c-0.039 0-0.062 0.028-0.062 0.076 0 0.025 0.005 0.044 0.010 0.061 0.002 0.006 0.003 0.011 0.004 0.016l0.005 0.021 0.122-0.046 0.016-0.008-0.005-0.017c-0.012-0.036-0.034-0.103-0.089-0.103zM19.094 12.439v0.347h0.026v0.011h-0.164v-0.011h0.030v-0.305l-0.028 0.006v-0.009l0.136-0.039zM17.181 12.416l0.013 0.004-0.014 0.043 0.038-0.016c0.025-0.011 0.056-0.017 0.089-0.017 0.087 0 0.129 0.037 0.129 0.113v0.24h0.025v0.011h-0.126l-0.012-0.052-0.023 0.020c-0.026 0.022-0.058 0.045-0.1 0.045-0.064 0-0.108-0.041-0.108-0.102 0-0.075 0.044-0.126 0.109-0.126h0.127v-0.038c0-0.043-0.027-0.071-0.071-0.071-0.049 0-0.074 0.031-0.094 0.057l-0.019-0.007 0.038-0.104zM17.285 12.589c-0.050 0-0.087 0.036-0.087 0.087 0 0.076 0.046 0.084 0.066 0.084 0.028 0 0.062-0.013 0.062-0.076v-0.094h-0.042zM18.413 12.433c0.083 0 0.14 0.046 0.171 0.137l-0.226 0.083 0.007 0.018c0.022 0.053 0.062 0.081 0.117 0.081 0.038 0 0.071-0.012 0.096-0.034l0.006 0.007c-0.047 0.056-0.104 0.083-0.173 0.083-0.108 0-0.175-0.073-0.175-0.191 0-0.103 0.077-0.184 0.176-0.184zM18.388 12.456c-0.039 0-0.062 0.028-0.062 0.076 0 0.025 0.005 0.044 0.010 0.061 0.001 0.005 0.003 0.011 0.004 0.016l0.004 0.021 0.122-0.046 0.016-0.008-0.005-0.017c-0.012-0.036-0.034-0.103-0.089-0.103zM18.833 12.43c0.019 0 0.029 0.003 0.050 0.014l0.015 0.008 0.011-0.018 0.012 0.004-0.035 0.098c-0.016-0.006-0.033-0.011-0.053-0.012-0.016 0-0.047 0.005-0.068 0.038l-0.003 0.005v0.216h0.039v0.011h-0.174v-0.011h0.027v-0.318l-0.025 0.010v-0.007l0.122-0.033v0.069l0.002 0.019h0.031l0.004-0.012c0.001-0.004 0.003-0.008 0.004-0.014 0.007-0.022 0.021-0.067 0.040-0.067zM19.478 12.433c0.065 0 0.096 0.031 0.096 0.094v0.259h0.027v0.011h-0.165v-0.011h0.030v-0.242c0-0.031-0.025-0.053-0.060-0.053s-0.058 0.021-0.077 0.037l-0.006 0.006v0.252h0.031v0.011h-0.167v-0.011h0.028v-0.31l-0.028 0.008v-0.008l0.137-0.037v0.040l0.002 0.036 0.030-0.023c0.038-0.030 0.074-0.059 0.122-0.059zM19.85 10.528c0.021 0.072 0.041 0.146 0.045 0.167-0.057 0.057-0.146 0.239-0.174 0.356l-0.058-0.015c-0.038-0.253-0.138-0.304-0.333-0.317-0.166-0.011-0.357 0.222-0.371 0.451-0.008 0.124-0.003 0.281 0.102 0.393 0.085 0.090 0.224 0.136 0.414 0.136h0c0.033 0 0.069-0.001 0.106-0.004 0.313-0.024 0.398-0.047 0.601-0.108l-0.080 0.133c-0.216 0.092-0.701 0.226-0.943 0.214-0.418-0.018-0.657-0.417-0.646-0.791 0.011-0.387 0.317-0.596 0.601-0.596 0.123 0 0.187 0.017 0.249 0.033 0.050 0.013 0.102 0.026 0.184 0.031 0.158 0.009 0.265-0.054 0.304-0.083zM18.38 10.566l0.018 0.051c-0.192 0.066-0.207 0.299-0.207 0.595 0 0.047-0.004 0.091-0.008 0.133-0.015 0.171-0.028 0.32 0.229 0.536l-0.032 0.037c-0.055-0.025-0.126-0.039-0.206-0.039-0.201 0-0.419 0.083-0.503 0.189l-0.024-0.053c0.126-0.123 0.208-0.413 0.208-0.744 0-0.016 0.001-0.036 0.002-0.058 0.008-0.159 0.021-0.454-0.246-0.557l0.026-0.050c0.045 0.007 0.116 0.011 0.201 0.011 0.15 0 0.379-0.013 0.541-0.051zM17.323 10.598c0.020 0.070 0.040 0.143 0.044 0.163-0.056 0.056-0.143 0.234-0.17 0.348l-0.056-0.015c-0.037-0.245-0.185-0.286-0.373-0.314-0.017-0.003-0.035-0.004-0.052-0.004-0.219 0-0.38 0.216-0.392 0.419-0.006 0.093-0.004 0.324 0.126 0.463 0.089 0.094 0.22 0.127 0.388 0.098 0.212-0.037 0.228-0.119 0.225-0.152-0.006-0.072-0.107-0.129-0.217-0.121l0.019-0.052c0.073-0.025 0.311-0.044 0.475-0.044 0.077 0 0.134 0.004 0.16 0.011l0.049 0.082c-0.321 0.058-0.293 0.368-0.279 0.519 0.001 0.013 0.002 0.026 0.003 0.037l-0.078-0.021c-0.037-0.081-0.158-0.152-0.254-0.146-0.112 0.009-0.193 0.030-0.264 0.049s-0.13 0.034-0.196 0.029c-0.315-0.025-0.615-0.395-0.605-0.748 0.016-0.558 0.44-0.602 0.569-0.602l0.009 0c0.122 0.002 0.229 0.023 0.333 0.044 0.082 0.016 0.16 0.032 0.239 0.037 0.155 0.009 0.259-0.053 0.298-0.081zM14.419 10.598c0.084 0.024 0.367 0.072 0.616 0.072 0.137 0 0.243-0.015 0.315-0.044l0.129 0.103c0.103 0.495 0.239 0.841 0.452 1.155-0.005 0.009-0.018 0.025-0.030 0.041-0.116-0.045-0.24-0.070-0.35-0.070-0.108 0-0.195 0.024-0.248 0.069l-0.060-0.070c0.014-0.018 0.037-0.060 0.030-0.145-0.014-0.181-0.17-0.64-0.233-0.741-0.001-0.001-0.002-0.003-0.003-0.004-0.074-0.058-0.582-0.246-0.688-0.285l0.069-0.083zM11.458 10.652l0.742 0.020c0.008 0.072 0.062 0.15 0.14 0.265 0.023 0.034 0.049 0.072 0.076 0.113 0.050 0.075 0.094 0.154 0.138 0.229 0.075 0.131 0.145 0.255 0.231 0.342 0.003 0.003 0.007 0.004 0.010 0.004s0.008-0.002 0.010-0.005c0.068-0.076 0.107-0.106 0.137-0.129 0.016-0.015 0.032-0.022 0.046-0.022 0.026 0 0.043 0.022 0.044 0.024l0.087 0.098c0.027 0.027 0.025 0.053-0.007 0.089-0.027 0.035-0.157 0.222-0.070 0.505 0.010 0.032 0.027 0.078 0.048 0.131 0.046 0.12 0.108 0.283 0.138 0.427-0.185 0.044-0.415 0.301-0.472 0.402l-0.115-0.064c0.012-0.046 0.037-0.23-0.121-0.757-0.213-0.709-0.511-0.995-0.579-1.032-0.019-0.011-0.035-0.016-0.050-0.016-0.030 0-0.048 0.020-0.064 0.037l-0.004 0.004c-0.030 0.032-0.055 0.092-0.070 0.128l-0.003 0.008c-0.013 0.033-0.025 0.040-0.040 0.040-0.010 0-0.023-0.004-0.039-0.010l-0.125-0.059c-0.024-0.012-0.039-0.021-0.043-0.033s0.002-0.030 0.019-0.060c0.003-0.008 0.079-0.2 0.108-0.316 0.022-0.085 0.032-0.148-0.029-0.187-0.054-0.034-0.176-0.059-0.227-0.068 0.019-0.025 0.057-0.074 0.084-0.109zM14.232 11.749c-0.006-0.093 0.029-0.187 0.104-0.282 0.092-0.116 0.153-0.261 0.188-0.363 0.005-0.014 0.021-0.029 0.042-0.032 0.007-0.001 0.014-0.001 0.022 0 0.024 0.005 0.1 0.049 0.11 0.056 0.001 0 0.001 0.001 0.001 0.001 0.013 0.009 0.033 0.029 0.019 0.068-0.011 0.057-0.038 0.109-0.064 0.16-0.023 0.045-0.045 0.087-0.057 0.132-0.001 0.006 0.001 0.012 0.006 0.015s0.011 0.003 0.016-0c0.095-0.069 0.155-0.094 0.25-0.101 0.002-0 0.005-0 0.008-0 0.025 0 0.041 0.008 0.050 0.026 0.024 0.044 0.025 0.052 0.035 0.114 0.005 0.032-0.004 0.051-0.029 0.061-0.094 0.034-0.133 0.133-0.198 0.298l-0.009 0.023c-0.039-0.006-0.081-0.009-0.128-0.009-0.067 0-0.13 0.006-0.182 0.011-0.037 0.003-0.068 0.006-0.091 0.006-0.005 0-0.009-0-0.012-0 0.073 0.169 0.135 0.328 0.156 0.416 0.004 0.015 0.007 0.029 0.010 0.043 0.023 0.096 0.035 0.149 0.101 0.219 0.044 0.050 0.11 0.092 0.173 0.132 0.062 0.040 0.12 0.078 0.156 0.119l-0.030 0.071c-0.19-0.060-0.402-0.093-0.599-0.093-0.249 0-0.451 0.050-0.573 0.14l-0.076-0.082c0.26-0.22 0.324-0.304 0.284-0.455-0.052-0.192-0.252-0.6-0.359-0.819-0.017-0.035-0.032-0.065-0.043-0.089-0.033-0.068-0.077-0.083-0.109-0.083-0.020 0-0.042 0.006-0.065 0.018-0.042 0.028-0.052 0.028-0.081-0.001-0.055-0.059-0.078-0.085-0.089-0.095-0.001-0.001-0.001-0.002-0.002-0.003h-0c-0-0-0.020-0.018-0.020-0.042-0-0.014 0.007-0.028 0.022-0.041 0.028-0.026 0.103-0.096 0.208-0.297 0.026-0.049 0.008-0.104-0.048-0.156-0.040-0.037-0.202-0.118-0.251-0.142l0.062-0.097c0.068 0.024 0.232 0.048 0.384 0.048 0.085 0 0.201-0.007 0.284-0.042 0.034 0.018 0.070 0.037 0.085 0.046-0.062 0.169-0.010 0.435 0.134 0.683 0.045 0.078 0.125 0.24 0.204 0.416zM11.345 9.573c-0.032 0.006-0.072 0.018-0.122 0.037-2.151 0.817-4.055 2.126-5.027 4.288-0.002 0.004-0.003 0.008-0.003 0.013 0 0.017 0.014 0.032 0.032 0.032 0 0 0 0 0 0l0.786-0.019c0.032-0.001 0.060-0.022 0.070-0.052 0.685-1.976 2.318-3.467 4.258-4.261 0.037-0.015 0.070-0.027 0.098-0.034 0.010-0.003 0.016-0.012 0.016-0.022 0-0.012-0.010-0.023-0.023-0.023-0.001 0-0.002 0-0.003 0-0.023 0.004-0.040 0.011-0.051 0.022-0.009 0.010-0.020 0.016-0.033 0.018zM2.266 16.668h-0.459c-0.022 0-0.028-0.010-0.019-0.029l0.281-0.625c0.009-0.018 0.023-0.027 0.043-0.027h1.807c0.032 0 0.041 0.015 0.029 0.044-0.276 0.659-0.718 1.13-1.326 1.414-0.592 0.276-1.284 0.408-1.914 0.229-0.438-0.125-0.673-0.374-0.704-0.748-0.053-0.648 0.492-1.329 1.024-1.687 0.446-0.299 0.938-0.47 1.476-0.512 0.479-0.037 1.403 0.109 1.522 0.711 0.004 0.019-0.004 0.031-0.023 0.036l-1.25 0.351c-0.019 0.006-0.033-0.001-0.041-0.019-0.108-0.258-0.472-0.216-0.684-0.135-0.392 0.15-0.638 0.413-0.739 0.79-0.043 0.159-0.013 0.283 0.089 0.373 0.246 0.217 0.676 0.081 0.909-0.101 0.053-0.042 0.046-0.063-0.022-0.063zM8.14 17.373l-0.227 0.314c-0.011 0.016-0.027 0.023-0.046 0.023h-2.545c-0.033-0-0.060-0.025-0.065-0.057l-0.108-0.867c-0-0.004-0.002-0.008-0.004-0.011-0.008-0.011-0.023-0.013-0.033-0.006-0.003 0.002-0.006 0.006-0.008 0.010l-0.398 0.882c-0.013 0.030-0.043 0.049-0.076 0.049h-1.091c-0.028 0-0.036-0.013-0.024-0.038l1.294-2.882c0.007-0.016 0.022-0.026 0.040-0.026 0.498-0.004 0.999-0.003 1.502 0.002 0.5 0.005 1.195 0.179 0.957 0.871-0.172 0.5-0.518 0.798-1.038 0.895-0.020 0.004-0.034 0.021-0.034 0.041 0 0.014 0.007 0.026 0.018 0.034 0.162 0.116 0.313 0.791 0.393 1.006 0.010 0.027 0.025 0.030 0.044 0.008l2.406-2.837c0.013-0.015 0.029-0.022 0.048-0.022h1.289c0.023 0 0.034 0.012 0.033 0.035l-0.113 2.873c-0.001 0.026-0.015 0.040-0.041 0.040h-1.201c-0.034 0-0.048-0.017-0.043-0.049l0.041-0.281c0.003-0.021-0.006-0.031-0.027-0.031h-0.894c-0.020 0-0.035 0.008-0.046 0.024zM5.994 15.585l-0.283-0.035c-0.030-0.004-0.052 0.008-0.065 0.036l-0.202 0.442c-0.010 0.021-0.003 0.033 0.019 0.036 0.28 0.046 0.573-0.050 0.616-0.368 0.001-0.004 0.001-0.009 0.001-0.013 0-0.050-0.037-0.092-0.087-0.098zM9.376 15.758c0-0.001 0-0.003 0-0.004 0-0.013-0.011-0.023-0.023-0.023-0.007 0-0.014 0.004-0.019 0.009l-0.619 0.878c-0.003 0.004-0.004 0.009-0.004 0.013 0 0.013 0.010 0.023 0.023 0.023h0.448c0.011 0 0.021-0.008 0.023-0.019l0.171-0.878zM12.293 16.155c-0.002-0.001-0.004-0.002-0.006-0.002-0.006 0-0.011 0.004-0.012 0.009-0.168 0.525-0.381 1.033-0.637 1.523-0.009 0.017-0.023 0.026-0.043 0.026h-1.077c-0.026 0-0.034-0.012-0.023-0.036l1.296-2.885c0.008-0.018 0.022-0.027 0.041-0.027h1.111c0.020 0 0.033 0.010 0.037 0.029l0.361 1.585c0.003 0.016 0.017 0.027 0.033 0.027s0.030-0.012 0.033-0.028c0.117-0.557 0.38-1.070 0.613-1.582 0.009-0.021 0.025-0.031 0.048-0.031h1.084c0.028 0 0.036 0.013 0.024 0.038l-1.29 2.877c-0.010 0.022-0.027 0.033-0.052 0.033h-1.102c-0.023 0-0.037-0.011-0.042-0.033-0.122-0.496-0.244-0.989-0.365-1.478-0.005-0.021-0.016-0.036-0.033-0.046zM15.537 14.774c0.002-0.004 0.006-0.007 0.011-0.007 0.744-0.010 3.058-0.276 2.685 1.178-0.214 0.833-0.951 1.455-1.757 1.67-0.616 0.164-1.507 0.101-2.214 0.095-0.029-0-0.037-0.014-0.026-0.040l1.301-2.895zM16.337 15.699l-0.495 1.103c-0.008 0.018-0.002 0.028 0.018 0.029 0.496 0.037 0.966-0.208 1.092-0.709 0.103-0.403-0.317-0.471-0.597-0.438-0.008 0.001-0.015 0.006-0.018 0.014zM20.267 14.773c0.002-0.005 0.007-0.008 0.012-0.008 0.551-0.004 1.103-0.003 1.656 0.002 0.565 0.006 1.105 0.342 0.815 0.989-0.265 0.592-0.706 0.938-1.323 1.040-0.255 0.042-0.591 0.023-0.885 0.026-0.019 0-0.032 0.009-0.040 0.026l-0.377 0.837c-0.008 0.018-0.022 0.027-0.042 0.027h-1.106c-0.012 0-0.022-0.010-0.022-0.022 0-0.003 0.001-0.006 0.002-0.009l1.308-2.908zM21.085 15.562l-0.217 0.481c-0.009 0.020-0.003 0.032 0.019 0.034 0.278 0.036 0.663-0.034 0.693-0.366 0.006-0.064-0.042-0.122-0.107-0.128l-0.366-0.035c-0.011-0.001-0.018 0.004-0.023 0.014zM23.832 16.783c-0-0.004-0.002-0.008-0.004-0.011-0.007-0.010-0.022-0.012-0.032-0.005-0.003 0.002-0.006 0.005-0.007 0.009l-0.413 0.913c-0.007 0.014-0.018 0.022-0.034 0.022h-1.123c-0.026 0-0.034-0.012-0.023-0.036l1.296-2.887c0.008-0.017 0.021-0.026 0.040-0.026 0.488 0.001 0.972 0.002 1.452 0.002 0.533 0.001 1.247 0.157 0.997 0.897-0.156 0.463-0.496 0.755-1.021 0.877-0.018 0.004-0.031 0.021-0.031 0.040 0 0.011 0.004 0.021 0.012 0.029 0.185 0.182 0.321 0.809 0.4 1.075 0.006 0.020-0.002 0.029-0.022 0.029h-1.345c-0.017 0-0.027-0.008-0.028-0.025l-0.112-0.903zM24.322 15.592l-0.192 0.432c-0.008 0.018-0.002 0.029 0.017 0.032 0.562 0.115 0.924-0.585 0.222-0.499-0.022 0.003-0.038 0.015-0.047 0.035zM26.851 14.763h1.174c0.010 0 0.018 0.008 0.018 0.018 0 0.002-0.001 0.005-0.002 0.007l-1.307 2.912c-0.003 0.006-0.009 0.011-0.016 0.011h-1.175c-0.010-0-0.018-0.008-0.018-0.018 0-0.003 0.001-0.005 0.002-0.007l1.308-2.912c0.003-0.006 0.009-0.011 0.016-0.011zM29.791 15.417c0.001 0.003 0.004 0.006 0.007 0.006 0.002 0 0.004-0.001 0.005-0.002l0.631-0.64c0.011-0.011 0.027-0.018 0.043-0.018h1.265c0.049 0 0.055 0.016 0.017 0.047l-1.592 1.309c-0.016 0.013-0.020 0.030-0.014 0.049l0.482 1.514c0.006 0.019-0.001 0.029-0.021 0.029h-1.326c-0.019-0-0.036-0.014-0.040-0.034l-0.116-0.758c-0.002-0.009-0.005-0.010-0.012-0.004l-0.826 0.776c-0.014 0.014-0.032 0.021-0.051 0.021h-1.294c-0.031 0-0.035-0.010-0.011-0.030l1.823-1.513c0.015-0.013 0.019-0.028 0.013-0.047l-0.424-1.318c-0.009-0.027 0.001-0.040 0.029-0.040h1.301c0.024 0 0.038 0.012 0.041 0.037l0.071 0.617zM16.303 23.704c-0.605 0.037-1.818 0-1.818 0-2.953-0.204-5.808-1.341-7.786-3.586-0.027-0.030-0.057-0.035-0.092-0.013l-0.424 0.264c-0.013 0.008-0.023 0.006-0.031-0.007-0.428-0.76-0.891-1.26-1.748-1.523-0.865-0.266-1.813-0.327-2.711-0.379-0.008-0-0.013-0.004-0.013-0.010 0-0.002 0-0.003 0.001-0.005 0.002-0.005 0.002-0.007 0.003-0.007l30.309-0.081c0.008 0 0.010 0.003 0.006 0.010-0.006 0.009-0.013 0.013-0.020 0.013-5.344 0.127-10.692 0.239-16.032 0.502-2.346 0.116-4.704 0.285-7.029 0.632-0.013 0.002-0.023 0.014-0.023 0.027 0 0.006 0.002 0.013 0.006 0.018 3.012 3.521 8.68 4.396 12.794 2.5 0.050-0.023 0.142-0.090 0.219-0.115 0.001-0 0.003-0.001 0.004-0.001 0.008 0 0.014 0.006 0.014 0.014 0 0.005-0.003 0.009-0.007 0.012-1.697 1.040-3.882 1.633-5.621 1.738zM11.875 22.533c-1.419-0.653-2.715-1.614-3.677-2.851-0.018-0.023-0.041-0.031-0.069-0.024l-0.774 0.184c-0.039 0.009-0.045 0.029-0.017 0.058 1.338 1.42 3.022 2.323 4.9 2.818 0.002 0.001 0.004 0 0.004-0.002 0.002-0.005 0.003-0.009 0.004-0.014 0.004-0.013-0.001-0.022-0.014-0.027-0.122-0.041-0.241-0.089-0.358-0.142z"></path>
</svg>
