<!-- Generated by IcoMoon.io -->
<svg version="1.1" xmlns="http://www.w3.org/2000/svg" width="32" height="32" viewBox="0 0 32 32">
<title>watermark-wpn</title>
<path fill="#444" d="M20.797 11.952c-0.001-1.614-2.089-2.093-3.323-1.994-1.974 0.159-3.782 1.34-4.982 2.878-0.009 0.011-0.022 0.018-0.037 0.018-0.020 0-0.037-0.013-0.044-0.031-0.734-2.089-2.277-3.828-4.395-4.543-0.005-0.002-0.010-0.004-0.014-0.007-0.030-0.019-0.039-0.058-0.020-0.088 0.003-0.004 0.006-0.009 0.010-0.012l1.059-0.999c1.011-0.816 2.126-1.433 3.345-1.849 0.83-0.287 1.698-0.469 2.57-0.53 1.752-0.123 3.52 0.237 5.036 1.198 1.172 0.741 2.030 1.804 2.287 3.186 0.006 0.033-0.005 0.059-0.034 0.078l-0.179 0.113-0.042 0.046c-0.139 0.031-0.249 0.103-0.331 0.216-0.019 0.026-0.023 0.054-0.014 0.084 0.108 0.374 0.098 0.744-0.032 1.11-0.001 0.004-0.001 0.007 0 0.010 0.002 0.007 0.007 0.014 0.017 0.019 0.017 0.008 0.029 0.004 0.036-0.013 0.142-0.303 0.178-0.622 0.107-0.956-0.020-0.091-0.015-0.165 0.015-0.222 0.036-0.069 0.085-0.088 0.147-0.058 0.022 0.011 0.033 0.029 0.033 0.054v0.299c0 0.019 0.016 0.034 0.035 0.034 0.014 0 0.027-0.009 0.032-0.021 0.047-0.116 0.069-0.244 0.066-0.383 0.033-0.009 0.040-0.056 0.023-0.143 0.043-0.059 0.089-0.065 0.138-0.016l0.053 0.823c0 0.007 0.003 0.013 0.007 0.018 0.011 0.013 0.030 0.014 0.044 0.003 0.005-0.004 0.009-0.010 0.010-0.016 0.081-0.318 0.085-0.605 0.013-0.861-0.105-0.514-0.185-0.836-0.239-0.966-1.154-2.756-4.048-3.85-6.855-3.809-0.76 0.011-1.514 0.105-2.225 0.272-0.027 0.007-0.053 0.003-0.076-0.012l-0.466-0.297c3.554-0.837 7.911-0.075 9.621 3.562l0.264 0.883c0.008 0.027 0.024 0.052 0.044 0.070 1.976 1.773 3.157 3.98 3.545 6.621 0.006 0.036-0.010 0.054-0.047 0.052-0.342-0.016-0.694-0.046-1.056-0.089-0.007-0.001-0.014-0.002-0.021-0.003l-0.049-0.217c0.005-0 0.010 0 0.015 0.001l0.272 0.042c0.028 0.004 0.042-0.008 0.040-0.037l-0.023-0.364c-0.002-0.026-0.017-0.049-0.038-0.063 0.042-0.009 0.079-0.025 0.113-0.045 0.073-0.044 0.136-0.112 0.169-0.22l0.001-0.002 0.065-0.225c0.035-0.118 0.011-0.213-0.032-0.288s-0.112-0.142-0.232-0.172l-2.997-0.756c-0.303-0.54-0.665-1.037-1.086-1.492-0.388-0.42 0.033-1.354 0.284-1.744 0.012-0.019 0.032-0.030 0.054-0.030 0.032 0 0.059 0.024 0.063 0.056 0.056 0.424-0.064 0.786-0.359 1.085-0.005 0.006-0.008 0.013-0.008 0.020 0 0.017 0.014 0.031 0.031 0.031 0.003 0 0.005-0 0.008-0.001 0.458-0.152 0.5-1.051 0.33-1.44l-0.080-0.252c-0.017-0.053-0.027-0.051-0.032 0.004-0.007 0.075 0.014 0.159 0.063 0.25-0.29 0.378-0.479 0.762-0.569 1.153-0.025 0.107-0.051 0.188-0.078 0.242-0.014 0.028-0.017 0.056-0.008 0.086 0.183 0.655-0.007 1.174-0.569 1.557l-0.955 0.831-1.236 0.197c-0.007-0.132 0.010-0.193 0.111-0.293 0.157-0.155 0.221-0.348 0.429-0.497 0.066-0.047 0.093-0.104 0.076-0.181l0.060-0.029c0.028-0.014 0.045-0.036 0.050-0.068 0.009-0.056-0.019-0.086-0.084-0.089-0.039-0.086-0.045-0.175-0.018-0.268 0.007-0.027 0.024-0.045 0.049-0.056 0.103-0.044 0.171-0.116 0.204-0.217 0.003-0.009 0.004-0.018 0.004-0.027 0-0.045-0.037-0.082-0.082-0.082-0.030 0-0.058 0.016-0.072 0.042-0.094 0.166-0.187 0.245-0.278 0.238-0.039-0.003-0.048 0.012-0.029 0.045l0.015 0.024c0.011 0.019 0.011 0.037 0.001 0.056-0.141 0.261-0.317 0.492-0.53 0.693-0.017 0.017-0.030 0.036-0.038 0.058-0.046 0.127-0.117 0.24-0.214 0.339-0.012 0.013-0.028 0.020-0.045 0.020-0.034-0.001-0.061-0.036-0.059-0.076 0.001-0.019 0.008-0.038 0.020-0.051 0.224-0.258 0.41-0.541 0.559-0.848 0.001-0.001 0.001-0.003 0.002-0.004 0.002-0.009-0.004-0.019-0.014-0.021-0.001-0-0.003-0-0.004-0-0.009 0-0.019-0-0.029-0.001-0.020-0.001-0.039 0.009-0.049 0.027-0.132 0.238-0.279 0.467-0.444 0.685-0.003 0.004-0.029 0.023-0.078 0.058-0.036 0.025-0.072 0.026-0.107 0.001-0.011-0.008-0.024-0.012-0.038-0.012-0.027 0-0.051 0.017-0.061 0.042-0.027 0.071-0.083 0.115-0.167 0.131-0.040 0.008-0.050-0.006-0.030-0.042l0.483-0.848c0.106 0.053 0.163 0.043 0.169-0.031 0.006-0.061-0.038-0.117-0.098-0.127-0.044-0.007-0.075 0.008-0.091 0.045-0.049 0.014-0.088 0.007-0.115-0.019-0.018-0.016-0.022-0.043-0.011-0.064l0.526-0.996c0.013-0.024 0.019-0.050 0.019-0.077v-0.044c-0-0.034-0.029-0.063-0.063-0.063-0.029 0-0.054 0.020-0.061 0.048-0.064 0.248-0.172 0.475-0.324 0.681-0.1 0.135-0.174 0.264-0.222 0.387-0.095 0.245-0.207 0.477-0.336 0.697-0.014 0.024-0.039 0.038-0.066 0.038-0.039 0-0.073-0.031-0.076-0.070l-0.031-0.354c-0.003-0.029-0.027-0.051-0.056-0.051-0.015 0-0.029 0.006-0.039 0.016l-0.039 0.039c-0.009 0.010-0.022 0.015-0.035 0.015-0.027 0-0.049-0.022-0.049-0.049 0-0.006 0.001-0.011 0.003-0.017l0.701-1.983c0.014-0.040-0.001-0.058-0.043-0.056-0.030 0.001-0.058 0.010-0.084 0.026-0.020 0.013-0.037 0.035-0.049 0.067-0.224 0.583-0.428 1.209-0.61 1.877-0.012 0.044-0.052 0.074-0.097 0.074-0.028 0-0.056-0.012-0.075-0.034-0.040-0.043-0.083-0.054-0.132-0.033-0.038 0.017-0.053 0.005-0.044-0.036 0.064-0.292 0.205-0.55 0.17-0.848-0.004-0.042-0.040-0.074-0.082-0.074-0.039 0-0.074 0.028-0.081 0.067l-0.508 2.452c-0.009 0.040-0.041 0.072-0.082 0.080-0.085 0.015-0.122-0.027-0.11-0.127 0.069-0.58 0.136-1.161 0.202-1.742 0.004-0.033 0.022-0.047 0.056-0.044 0.057 0.006 0.097-0.021 0.118-0.081 0.012-0.034 0.010-0.064-0.008-0.091-0.020-0.030-0.051-0.047-0.093-0.051-0.027-0.002-0.043-0.018-0.046-0.045-0.004-0.027 0.006-0.047 0.030-0.062 0.027-0.018 0.038-0.043 0.033-0.075-0.031-0.184-0.024-0.367 0.023-0.547 0.007-0.028 0.007-0.057-0.001-0.085-0.022-0.073-0.001-0.13 0.062-0.169 0.65-0.407 1.664-0.787 2.433-0.448 0.802 0.353 1.508 0.841 2.118 1.463 0.011 0.011 0.026 0.017 0.042 0.017 0.030 0 0.055-0.022 0.060-0.052l0.041-0.3c-0.004-0.005-0.003-0.013 0.003-0.023-0.152-0.564-0.533-0.957-1.144-1.18-1.863-0.682-3.869 0.126-5.262 1.415-0.006 0.006-0.015 0.009-0.023 0.009-0.019 0-0.034-0.015-0.034-0.034 0-0.003 0-0.005 0.001-0.008 0.037-0.145 0.015-0.282-0.066-0.41-0.019-0.030-0.015-0.056 0.013-0.079 0.808-0.65 1.719-1.078 2.734-1.283 1.198-0.243 2.914-0.097 3.675 1 0.112 0.161 0.169 0.359 0.173 0.594 0.007 0.084 0.041 0.14 0.1 0.169zM20.764 8.617c0.078-0.019 0.138 0.006 0.18 0.074 0.046 0.076 0.019 0.142 0.014 0.208-0.010 0.139 0.027 0.153 0.113 0.044 0.379-0.487-1.135-1.015-0.463 0.37 0.008 0.015 0.011 0.032 0.011 0.049 0 0.059-0.047 0.109-0.106 0.113s-0.105-0.014-0.137-0.050c-0.022-0.025-0.035-0.053-0.041-0.086l-0.036-0.2c-0.003-0.020-0.021-0.035-0.041-0.035-0.018 0-0.034 0.011-0.039 0.028l-0.089 0.254c-0.009 0.025-0.004 0.047 0.013 0.068 0.173 0.205 0.565 0.354 0.709 0.071 0.111-0.218-0.039-0.606-0.131-0.822-0.003-0.008-0.005-0.016-0.005-0.025 0-0.029 0.020-0.054 0.048-0.061zM13.278 11.447c0.264-0.064 0.426-0.344 0.359-0.619s-0.34-0.448-0.604-0.384c-0.264 0.064-0.426 0.344-0.359 0.619s0.34 0.448 0.604 0.384zM13.415 10.768c-0.132-0.188-0.353-0.26-0.495-0.161s-0.15 0.332-0.018 0.52c0.132 0.188 0.353 0.26 0.495 0.161s0.15-0.332 0.018-0.52zM19.652 10.027l-0.14-0.070c-0.051-0.026-0.065-0.013-0.042 0.040 0.082 0.194 0.372 0.154 0.372-0.044 0-0.102-0.081-0.215-0.107-0.332-0-0.002-0.001-0.004-0.001-0.007 0-0.020 0.017-0.037 0.037-0.037 0.009 0 0.018 0.003 0.025 0.009l0.093 0.086c0.022 0.021 0.040 0.019 0.056-0.007 0.007-0.013 0.010-0.027 0.009-0.042-0.002-0.018-0.013-0.035-0.034-0.052-0.075-0.059-0.15-0.075-0.227-0.048-0.058 0.020-0.097 0.075-0.097 0.137 0 0.031 0.010 0.062 0.029 0.087 0.056 0.075 0.080 0.16 0.073 0.255-0.003 0.031-0.018 0.040-0.046 0.026zM16.58 9.583l-0.034-0.214c-0.007-0.046 0.011-0.062 0.055-0.046 0.085 0.030 0.147 0.016 0.188-0.041 0.001-0.002 0.003-0.005 0.003-0.007 0.005-0.014-0.003-0.029-0.016-0.034-0.003-0.001-0.005-0.001-0.008-0.001h-0.195c-0.035 0-0.054-0.017-0.059-0.050l-0.015-0.105c-0.001-0.003-0.001-0.007-0.001-0.010 0-0.033 0.027-0.061 0.060-0.062l0.271-0.008c0.011 0 0.020-0.010 0.020-0.021s0-0.025 0.001-0.037c0-0 0-0.001 0-0.001 0-0.021-0.017-0.039-0.039-0.039-0.001 0-0.003 0-0.004 0l-0.44 0.043c-0.047 0.005-0.066 0.031-0.057 0.077l0.131 0.686c0.006 0.028 0.022 0.040 0.050 0.035l0.435-0.078c0.026-0.003 0.045-0.026 0.045-0.051 0-0.028-0.023-0.052-0.052-0.052-0.002 0-0.005 0-0.007 0-0.075 0.007-0.157 0.029-0.244 0.066-0.008 0.003-0.016 0.005-0.025 0.005-0.032 0-0.059-0.023-0.064-0.055zM19.986 7.755c-0.773-0.693-1.396 1.448-0.434 1.356 0.032-0.003 0.057 0.008 0.077 0.032 0.093 0.114 0.216 0.185 0.369 0.213 0.023 0.005 0.040-0.004 0.050-0.026 0.019-0.044 0.015-0.086-0.010-0.128-0.017-0.029-0.020-0.060-0.009-0.092l0.594-1.696c0.013-0.037 0.005-0.069-0.024-0.095l-0.44-0.399c-0.009-0.009-0.021-0.015-0.034-0.015-0.026 0-0.047 0.021-0.047 0.047 0 0.010 0.003 0.019 0.008 0.027l0.099 0.169c0.007 0.012 0.009 0.026 0.006 0.040l-0.141 0.547c-0.010 0.041-0.031 0.047-0.062 0.019zM19.864 8.44c0.093-0.303 0.079-0.576-0.031-0.61s-0.275 0.185-0.367 0.488c-0.093 0.303-0.079 0.576 0.031 0.61s0.275-0.185 0.367-0.488zM18.74 7.451l0.041-0.246c0.006-0.034-0.016-0.068-0.050-0.076l-0.551-0.134c-0.004-0.001-0.008-0.001-0.013-0.001-0.032 0-0.058 0.026-0.058 0.058 0 0.017 0.007 0.033 0.020 0.044 0.088 0.073 0.119 0.154 0.109 0.274-0.032 0.367-0.067 0.733-0.107 1.099-0.012 0.115-0.076 0.17-0.19 0.167-0.104-0.003-0.188-0.090-0.188-0.194 0-0.003 0-0.007 0-0.010 0.045-0.875 0.418-1.865-1.047-1.6-0.029 0.006-0.053 0.028-0.060 0.056l-0.082 0.325c-0.001 0.004-0.001 0.007-0.001 0.011 0 0.023 0.019 0.042 0.042 0.042 0.011 0 0.022-0.005 0.030-0.013 0.169-0.169 0.364-0.21 0.585-0.125 0.013 0.005 0.026 0.012 0.037 0.020 0.071 0.052 0.086 0.154 0.033 0.225-0.009 0.012-0.019 0.022-0.030 0.031-0.327 0.258-0.706 0.251-0.781 0.734-0.082 0.524 0.369 0.76 0.809 0.453 0.030-0.021 0.055-0.015 0.073 0.017l0.047 0.082c0.014 0.025 0.036 0.037 0.065 0.037 0.425-0.004 0.841 0.056 1.248 0.18 0.027 0.008 0.047 0 0.061-0.023l0.031-0.052c0.003-0.006 0.005-0.012 0.005-0.018 0-0.017-0.012-0.032-0.029-0.035-0.080-0.016-0.142-0.055-0.184-0.117-0.017-0.024-0.024-0.051-0.019-0.081 0.038-0.276-0.013-1.127 0.522-0.849 0.028 0.014 0.054 0.010 0.076-0.011l0.212-0.207c0.002-0.002 0.004-0.005 0.006-0.007 0.017-0.024 0.012-0.058-0.012-0.074-0.003-0.002-0.005-0.003-0.008-0.005l-0.244-0.119c-0.024-0.011-0.053-0.010-0.076 0.005l-0.269 0.175c-0.046 0.029-0.064 0.017-0.055-0.036zM16.886 8.334c0.089 0.134 0.323 0.154 0.378-0.019 0.046-0.143 0.060-0.344 0.042-0.605-0.002-0.030-0.016-0.038-0.043-0.025-0.193 0.094-0.534 0.409-0.377 0.649zM15.080 9.282l-0.631 0.27c-0.043 0.018-0.053 0.047-0.029 0.087l0.016 0.028c0.014 0.023 0.030 0.025 0.048 0.005 0.064-0.072 0.127-0.093 0.19-0.061 0.036 0.018 0.065 0.058 0.089 0.121 0.062 0.168 0.13 0.336 0.202 0.504 0.011 0.026 0.031 0.037 0.058 0.034 0.086-0.009 0.115-0.051 0.086-0.126-0.074-0.193-0.152-0.377-0.234-0.551-0.020-0.043-0.005-0.094 0.035-0.119l0.205-0.125c0.013-0.007 0.020-0.020 0.020-0.034 0-0.021-0.017-0.038-0.038-0.038-0.006 0-0.012 0.001-0.018 0.004zM20.135 9.95c0.016-0.030 0.015-0.060-0.002-0.090l-0.044-0.075c-0.004-0.006-0.005-0.013-0.005-0.021 0-0.023 0.019-0.042 0.042-0.042 0.009 0 0.017 0.003 0.024 0.008l0.202 0.144c0.033 0.025 0.033 0.049 0 0.072-0.13 0.092-0.219 0.216-0.265 0.372-0.001 0.003-0.002 0.006-0.004 0.009-0.012 0.019-0.037 0.025-0.057 0.014-0.003-0.002-0.005-0.004-0.008-0.006l-0.026-0.025c-0.018-0.019-0.022-0.047-0.010-0.069l0.154-0.291zM13.793 10.29c-0.059-0.040-0.090-0.095-0.094-0.168-0.002-0.033 0.015-0.064 0.044-0.080 0.088-0.049 0.178-0.094 0.27-0.137 0.017-0.008 0.027-0.017 0.032-0.028 0.007-0.015 0.007-0.031 0-0.047-0.019-0.041-0.047-0.050-0.085-0.027l-0.476 0.288c-0.025 0.015-0.030 0.035-0.014 0.059l0.467 0.706c0.011 0.017 0.030 0.027 0.051 0.027 0.016 0 0.032-0.007 0.043-0.018l0.037-0.036c0.020-0.020 0.023-0.043 0.006-0.067l-0.196-0.288c-0-0-0-0-0-0-0.017-0.025-0.010-0.059 0.015-0.075l0-0 0.18-0.118c0.015-0.010 0.023-0.025 0.022-0.044 0-0.011 0-0.022 0.001-0.033 0-0 0-0.001 0-0.001 0-0.016-0.013-0.029-0.029-0.029-0.005 0-0.010 0.001-0.015 0.004l-0.192 0.113c-0.022 0.014-0.044 0.013-0.067-0.002zM17.795 9.586c-0.024 0.011-0.050 0.017-0.076 0.017-0.081 0-0.154-0.054-0.177-0.131-0.069-0.226-0.006-0.386 0.188-0.479 0.025-0.012 0.049-0.010 0.073 0.004l0.158 0.093c0.030 0.018 0.052 0.011 0.066-0.021 0.005-0.011 0.006-0.023 0.003-0.036-0.004-0.019-0.019-0.035-0.044-0.049-0.191-0.11-0.357-0.102-0.497 0.024-0.389 0.349 0.129 0.95 0.502 0.582 0.008-0.008 0.013-0.019 0.013-0.031 0-0.023-0.019-0.043-0.043-0.043-0.006 0-0.012 0.001-0.018 0.004l-0.148 0.068zM15.839 9.415l-0.232 0.046c-0.030 0.006-0.060-0.013-0.068-0.043l-0.056-0.208c-0.010-0.038-0.034-0.051-0.071-0.040l-0.070 0.020c-0.037 0.010-0.049 0.034-0.037 0.070l0.244 0.718c0.013 0.038 0.037 0.047 0.071 0.027l0.041-0.024c0.032-0.019 0.042-0.047 0.031-0.082l-0.091-0.283c-0.002-0.006-0.003-0.012-0.003-0.018 0-0.027 0.019-0.050 0.045-0.057l0.205-0.052c0.001-0 0.002-0 0.003-0.001 0.032-0.006 0.063 0.014 0.070 0.045 0 0.001 0 0.002 0.001 0.003 0.017 0.104 0.038 0.196 0.064 0.274 0.009 0.034 0.040 0.057 0.075 0.057 0.043 0 0.078-0.035 0.078-0.078 0-0.007-0.001-0.014-0.003-0.021l-0.154-0.683c-0.006-0.027-0.022-0.039-0.049-0.036l-0.085 0.008c-0.040 0.004-0.056 0.026-0.046 0.065l0.060 0.257c0.004 0.018-0.003 0.029-0.021 0.032zM18.837 9.389c0-0.199-0.163-0.362-0.362-0.362s-0.362 0.163-0.362 0.362c0 0.199 0.163 0.362 0.362 0.362s0.362-0.163 0.362-0.362zM18.669 9.436c0.037-0.155-0.020-0.301-0.126-0.326s-0.222 0.080-0.258 0.235 0.020 0.301 0.126 0.326c0.106 0.025 0.222-0.080 0.258-0.235zM12.707 6.407c0.014 0.007 0.028 0.010 0.044 0.008 0.022-0.003 0.039-0.022 0.039-0.044 0-0.016-0.008-0.030-0.022-0.038l-0.135-0.080c-0.007-0.004-0.014-0.006-0.022-0.006-0.023 0-0.043 0.019-0.043 0.043 0 0.003 0 0.005 0.001 0.008 0.012 0.065 0.046 0.099 0.102 0.101 0.013 0 0.025 0.003 0.036 0.008zM19.198 9.456c0.009 0.004 0.016 0.010 0.021 0.020 0.005 0.011 0.005 0.027-0.001 0.047-0.037 0.125-0.044 0.254-0.022 0.386 0.005 0.033 0.034 0.057 0.067 0.057 0.036 0 0.066-0.029 0.068-0.065l0.026-0.538c0-0.001 0-0.003 0-0.005 0-0.058-0.048-0.107-0.107-0.107-0.035 0-0.067 0.017-0.087 0.045l-0.326 0.471c-0.004 0.006-0.006 0.012-0.006 0.019 0 0.019 0.016 0.035 0.035 0.035 0.007 0 0.013-0.002 0.019-0.005 0.129-0.087 0.221-0.202 0.276-0.345 0.007-0.018 0.019-0.023 0.037-0.017zM13.83 6.016c0.108 0.020 0.129-0.035 0.064-0.165-0.016-0.032-0.037-0.036-0.063-0.012l-0.055 0.050-0.263-0.581c-0.013-0.029-0.027-0.030-0.043-0.002-0.011 0.019-0.013 0.042-0.006 0.068 0.095 0.377 0.183 0.758 0.264 1.144 0.007 0.032-0.006 0.045-0.038 0.040-0.083-0.015-0.158-0.058-0.225-0.128 0.1-0.153 0.125-0.308 0.075-0.465-0.010-0.033-0.032-0.043-0.065-0.032l-0.569 0.203c-0.149-0.051-0.311-0.127-0.485-0.228-0.017-0.009-0.031-0.010-0.043-0.002-0.020 0.014-0.021 0.027-0.001 0.042l1.194 0.853c0.011 0.008 0.018 0.020 0.018 0.034 0 0.019-0.013 0.035-0.031 0.040l-0.111 0.026-0.229-0.207c-0.046-0.042-0.058-0.034-0.034 0.023l0.108 0.262-0.717 0.33-0.622-0.772c-0.022-0.027-0.047-0.032-0.078-0.016l-0.296 0.158c-0.035 0.018-0.046 0.046-0.034 0.083l0.261 0.809c0.010 0.029-0.001 0.062-0.025 0.081-0.046 0.036-0.096 0.065-0.152 0.084-0.009 0.004-0.016 0.010-0.021 0.019l-0.016 0.025c-0.001 0.002-0.001 0.004-0.001 0.006 0 0.007 0.006 0.013 0.013 0.013 0.001 0 0.002-0 0.003-0l0.288-0.085 1.741-0.558c0.034-0.010 0.048 0.002 0.042 0.036-0.008 0.047-0.034 0.097-0.078 0.15-0.093-0.023-0.169-0.012-0.23 0.032-0.027 0.020-0.036 0.045-0.029 0.077l0.079 0.345c0.013 0.125-0.024 0.255-0.111 0.391l-0.501-0.633c-0.019-0.024-0.051-0.034-0.082-0.026l-0.803 0.225c-0 0-0.001 0-0.001 0-0.035 0.010-0.054 0.048-0.044 0.083 0 0 0 0.001 0 0.001l0.365 1.098c0.019 0.056 0.006 0.064-0.036 0.023-0.433-0.419-0.851-0.854-1.255-1.303-0.137-0.152-0.127-0.302 0.056-0.399 0.029-0.015 0.040-0.039 0.032-0.070l-0.024-0.106c-0.014-0.059-0.045-0.071-0.094-0.035l-1.228 0.901c-0.026 0.019-0.035 0.044-0.029 0.076 0.015 0.078 0.070 0.104 0.165 0.079 0.014-0.004 0.027-0.010 0.039-0.018 0.139-0.097 0.264-0.095 0.376 0.005 0.795 0.712 1.561 1.407 2.299 2.086 0.038 0.035 0.088 0.055 0.14 0.055 0.113 0 0.206-0.093 0.206-0.206 0-0.020-0.003-0.040-0.009-0.059l-0.544-1.858c-0.022-0.075-0.008-0.083 0.044-0.024l0.657 0.764c0.019 0.023 0.025 0.055 0.015 0.083l-0.078 0.216c-0.002 0.004-0.002 0.008-0.002 0.012 0 0.016 0.013 0.029 0.029 0.029 0.011 0 0.022-0.007 0.026-0.017l0.087-0.166c0.018-0.033 0.039-0.035 0.063-0.006l0.427 0.514c0.022 0.027 0.052 0.048 0.084 0.060 0.104 0.039 0.222-0.015 0.262-0.119 0.012-0.033 0.016-0.068 0.011-0.103l-0.21-1.334c-0.002-0.014-0.009-0.028-0.019-0.038-0.027-0.028-0.072-0.028-0.099-0.002-0.010 0.010-0.017 0.024-0.020 0.038-0.048 0.272-0.158 0.48-0.329 0.624l0.626-1.327c0.020-0.042 0.039-0.042 0.057 0l0.667 1.498c-0.030-0.003-0.053-0.007-0.071-0.012-0.039-0.012-0.059-0.019-0.060-0.021-0.177-0.412-0.361-0.821-0.554-1.226-0.005-0.010-0.010-0.016-0.017-0.018-0.007-0.001-0.015 0.001-0.024 0.006-0.021 0.012-0.027 0.030-0.019 0.054 0.206 0.582 0.364 1.004 0.473 1.266 0.064 0.155 0.037 0.272-0.082 0.35-0.028 0.019-0.031 0.040-0.006 0.064l0.023 0.023c0.018 0.018 0.045 0.023 0.068 0.012 0.633-0.291 1.294-0.478 1.984-0.56 0.033-0.004 0.048-0.022 0.047-0.055l-0.013-0.52c-0-0.002-0-0.004-0.001-0.005-0.004-0.024-0.026-0.040-0.049-0.036-0.002 0-0.004 0.001-0.006 0.001l-0.031 0.009c-0.031 0.010-0.052 0.038-0.053 0.070-0.006 0.24-0.121 0.384-0.344 0.434-0.003 0.001-0.007 0.001-0.010 0.001-0.026 0-0.047-0.021-0.047-0.047 0-0.004 0.001-0.008 0.002-0.012l0.473-1.697c0.001-0.004 0.002-0.008 0.002-0.013 0.002-0.033-0.023-0.062-0.055-0.064-0.004-0-0.009-0-0.013 0.001l-1.389 0.194c-0.049 0.007-0.067 0.034-0.054 0.082l0.090 0.31-0.485-0.359c-0.048-0.035-0.043-0.060 0.016-0.073 0.641-0.146 1.255-0.282 1.842-0.41 0.014-0.003 0.025-0.010 0.032-0.020 0.010-0.017 0.006-0.025-0.014-0.022l-1.709 0.18c-0 0-0.001 0-0.001 0-0.009 0-0.017-0.008-0.017-0.017 0-0.006 0.003-0.011 0.008-0.014 2.629-1.576 6.029-0.824 7.23 2.161 0.011 0.027 0.027 0.031 0.048 0.010 0.017-0.016 0.020-0.036 0.011-0.060-1.168-3.021-4.763-3.999-7.461-2.386-0.006 0.003-0.012 0.005-0.018 0.005-0.020 0-0.037-0.017-0.037-0.037 0-0.004 0.001-0.008 0.002-0.011l0.408-1.175c0.004-0.010 0.001-0.016-0.009-0.019-0.007-0.003-0.015-0.005-0.021-0.007s-0.013 0-0.016 0.006l-0.658 1.298c-0.021 0.043-0.040 0.042-0.057-0.003l-0.16-0.427zM15.568 7.907l0.212-0.762c0.010-0.035-0.003-0.054-0.040-0.057-0.311-0.023-0.536 0.122-0.674 0.436l0.502 0.383zM15.533 8.034c0-0.028-0.011-0.049-0.033-0.063-0.412-0.259-0.831-0.51-1.258-0.755-0.033-0.019-0.051-0.009-0.054 0.028-0.004 0.054 0.029 0.108 0.1 0.163 0.031 0.001 0.068 0.012 0.11 0.033 0.031 0.016 0.053 0.041 0.065 0.075l0.455 1.294c0.008 0.023 0.027 0.040 0.051 0.044l0.244 0.046c0.026 0.005 0.053-0.010 0.061-0.036l0.259-0.83zM9.375 20.557l-0.697 0.011c-0.039 0.001-0.049 0.018-0.031 0.052 2.636 4.958 9.368 5.692 12.911 1.26 0.047 0.048 0.111 0.080 0.191 0.098l0 0 0.014 0.003-0.158 0.526c-0.009 0.031 0.002 0.050 0.033 0.057l2.527 0.607c0.039 0.009 0.047 0.030 0.023 0.062-4.501 6.202-13.703 5.96-17.762-0.601-0.002-0.003-0.003-0.006-0.004-0.009-0.008-0.023 0.004-0.050 0.028-0.058 0.003-0.001 0.006-0.002 0.009-0.002l0.58-0.077c0.033-0.004 0.047-0.023 0.042-0.056l-0.071-0.482c-0.004-0.029-0.021-0.044-0.050-0.044h-0.387c0.010-0.074-0.14-0.566-0.202-0.627-0.063-0.063-0.153-0.112-0.283-0.106l-0.403 0.017-0.16-0.546c-0.014-0.047 0.003-0.076 0.053-0.084 2.773-0.487 5.77-0.32 8.566-0.126l1.238 0.095-0.072 0.269-3.073-0.194-1.43 1.713c-0.028 0.033-0.056 0.034-0.085 0.002l-0.877-0.965c-0.030-0.033-0.027-0.063 0.007-0.091 0.255-0.208 0.697-0.67 1.034-0.566 0.030 0.009 0.033 0.023 0.007 0.043-0.080 0.062-0.159 0.122-0.237 0.179-0.098 0.072-0.122 0.136-0.071 0.19 0 0 0.001 0.001 0.001 0.001 0.030 0.031 0.079 0.032 0.109 0.003 0-0 0.001-0.001 0.001-0.001l0.387-0.39c0.025-0.025 0.052-0.027 0.080-0.004l0.112 0.094c0.009 0.007 0.020 0.011 0.031 0.011 0.016 0 0.031-0.008 0.040-0.021l0.095-0.14c0.003-0.004 0.009-0.007 0.014-0.007 0.009 0 0.016 0.006 0.017 0.015l0.005 0.029c0.002 0.022-0.004 0.040-0.020 0.055-0.256 0.238-0.55 0.605-0.828 0.794-0.093 0.063-0.079 0.12 0.042 0.171 0.037 0.016 0.081 0.007 0.109-0.022l1.008-1.012c0.020-0.020 0.022-0.042 0.007-0.066l-0.019-0.028-1.348-0.034c-0.098 0.115-0.207 0.222-0.328 0.32-0.1 0.081-0.261 0.107-0.361 0.231-0.020 0.025-0.037 0.023-0.053-0.004l-0.313-0.545zM20.179 24.726l-0.221-0.347c-0.024-0.038-0.055-0.044-0.093-0.020l-0.122 0.079c-0.028 0.017-0.033 0.040-0.015 0.068l0.728 1.122c0.017 0.026 0.039 0.031 0.066 0.015l0.144-0.089c0.002-0.001 0.004-0.002 0.005-0.004 0.025-0.019 0.029-0.056 0.009-0.081-0.001-0.002-0.003-0.003-0.004-0.005-0.117-0.118-0.186-0.258-0.207-0.421-0-0.002-0.001-0.005-0.001-0.007 0-0.026 0.021-0.047 0.047-0.047 0.011 0 0.021 0.004 0.029 0.010l0.4 0.301c0.028 0.021 0.066 0.022 0.095 0.003l0.164-0.109c0.023-0.016 0.024-0.032 0.001-0.048l-0.692-0.492c-0.030-0.021-0.046-0.050-0.048-0.087l-0.032-0.51c-0.003-0.036-0.019-0.044-0.050-0.026l-0.143 0.088c-0.029 0.017-0.042 0.043-0.039 0.076l0.043 0.512c0.001 0.006-0 0.013-0.003 0.018-0.008 0.017-0.029 0.024-0.047 0.015-0.006-0.003-0.010-0.007-0.014-0.012zM10.701 24.896l-0.113 0.749c-0.001 0.008-0.002 0.015-0.002 0.023 0 0.080 0.066 0.145 0.145 0.145 0.051 0 0.099-0.027 0.125-0.071l0.637-1.058c0.017-0.028 0.008-0.065-0.020-0.083l-0.118-0.075c-0.028-0.017-0.050-0.011-0.066 0.017l-0.371 0.643c-0.004 0.006-0.011 0.010-0.018 0.010-0.012 0-0.021-0.010-0.021-0.021 0-0.001 0-0.002 0-0.003l0.137-0.771c0.005-0.031 0.001-0.062-0.012-0.090-0.035-0.077-0.127-0.111-0.203-0.076-0.028 0.013-0.052 0.034-0.068 0.061l-0.633 1.060c-0.022 0.037-0.015 0.068 0.019 0.094l0.072 0.055c0.013 0.010 0.029 0.015 0.046 0.015 0.027 0 0.052-0.014 0.066-0.038l0.356-0.599c0.038-0.064 0.052-0.059 0.041 0.015zM18.971 25.83c0.205 0.1 0.366 0.531 0.626 0.282 0.020-0.019 0.021-0.038 0.001-0.057l-0.358-0.358c-0.023-0.022-0.026-0.058-0.008-0.084 0.197-0.299-0.020-0.678-0.369-0.701-0.097-0.007-0.261 0.060-0.494 0.2-0.027 0.016-0.034 0.038-0.022 0.067l0.507 1.213c0.010 0.025 0.028 0.032 0.053 0.021l0.161-0.069c0.020-0.009 0.032-0.028 0.032-0.050 0-0.008-0.002-0.015-0.005-0.022l-0.175-0.393c-0.027-0.061-0.010-0.077 0.050-0.048zM18.7 25.298l0.085 0.244c0.012 0.032 0.048 0.050 0.081 0.039l0.024-0.008c0.107-0.038 0.169-0.144 0.137-0.236l-0.009-0.028c-0.032-0.092-0.147-0.137-0.255-0.099l-0.023 0.007c-0.026 0.009-0.043 0.033-0.043 0.060 0 0.007 0.001 0.014 0.004 0.021zM12.299 25.55c-0.027-0.029-0.041-0.066-0.041-0.105 0-0.085 0.070-0.156 0.156-0.156 0.033 0 0.065 0.010 0.091 0.030 0.091 0.065 0.186 0.091 0.285 0.080 0.035-0.004 0.056-0.024 0.063-0.058l0.017-0.085c0.007-0.036-0.007-0.060-0.042-0.073l-0.576-0.215c-0.006-0.002-0.013-0.003-0.019-0.003-0.023 0-0.043 0.014-0.051 0.036l-0.458 1.237c-0.012 0.032-0.002 0.053 0.030 0.065l0.603 0.227c0.034 0.012 0.071-0.004 0.084-0.037l0.046-0.117c0.003-0.007 0.004-0.015 0.004-0.023 0-0.026-0.016-0.049-0.041-0.058l-0.356-0.131c-0.025-0.009-0.041-0.032-0.041-0.058 0-0.008 0.001-0.015 0.004-0.022l0.098-0.261c0.008-0.020 0.028-0.034 0.050-0.034 0.011 0 0.021 0.003 0.030 0.009 0.077 0.051 0.147 0.070 0.209 0.057 0.055-0.012 0.095-0.061 0.095-0.117 0-0.059-0.044-0.11-0.103-0.118-0.057-0.007-0.103-0.030-0.138-0.069zM9.425 23.694c-0.009-0.008-0.013-0.022-0.008-0.033l0.132-0.348c0.001-0.004 0.002-0.007 0.002-0.011 0-0.017-0.014-0.031-0.031-0.031-0.006 0-0.011 0.001-0.016 0.004l-0.32 0.189c-0.011 0.006-0.025 0.005-0.034-0.003l-0.29-0.233c-0.005-0.004-0.012-0.007-0.019-0.007-0.017 0-0.031 0.014-0.031 0.031 0 0.002 0 0.005 0.001 0.007l0.081 0.363c0.003 0.012-0.002 0.025-0.013 0.032l-0.312 0.204c-0.008 0.006-0.013 0.015-0.013 0.025 0 0.015 0.012 0.029 0.027 0.030l0.37 0.036c0.012 0.001 0.023 0.010 0.026 0.022l0.097 0.359c0.004 0.013 0.016 0.023 0.030 0.023 0.012 0 0.023-0.007 0.028-0.018l0.149-0.342c0.005-0.012 0.017-0.019 0.030-0.019l0.371 0.019c0.001 0 0.002 0 0.002 0 0.017 0 0.031-0.014 0.031-0.031 0-0.009-0.004-0.017-0.011-0.023l-0.279-0.247zM14.080 25.741l0.169 0.032c0.027 0.005 0.053-0.011 0.061-0.037l0.043-0.139c0.012-0.041-0.002-0.065-0.044-0.072l-0.732-0.137c-0.035-0.007-0.056 0.007-0.064 0.042l-0.046 0.191c-0.001 0.003-0.001 0.006-0.001 0.010 0 0.023 0.019 0.042 0.042 0.042 0.004 0 0.009-0.001 0.013-0.002 0.107-0.036 0.175-0.023 0.205 0.041 0.015 0.033 0.016 0.088 0.001 0.163-0.059 0.303-0.115 0.608-0.168 0.915-0.007 0.040 0.010 0.062 0.051 0.065l0.132 0.010c0.038 0.003 0.073-0.024 0.080-0.062l0.184-1.009c0.007-0.042 0.032-0.059 0.074-0.051zM22.246 23.579c-0.011-0.006-0.017-0.019-0.015-0.032l0.063-0.37c0-0.002 0-0.004 0-0.005 0-0.017-0.014-0.031-0.031-0.031-0.008 0-0.015 0.003-0.021 0.008l-0.275 0.257c-0.010 0.009-0.024 0.011-0.035 0.005l-0.332-0.175c-0.004-0.002-0.009-0.003-0.014-0.003-0.017 0-0.031 0.014-0.031 0.031 0 0.004 0.001 0.009 0.003 0.013l0.158 0.341c0.006 0.012 0.003 0.026-0.006 0.035l-0.269 0.262c-0.006 0.006-0.009 0.013-0.009 0.021 0 0.017 0.014 0.031 0.031 0.031 0.001 0 0.002-0 0.003-0l0.372-0.045c0.013-0.002 0.026 0.005 0.032 0.017l0.166 0.337c0.005 0.010 0.016 0.017 0.027 0.017 0.015 0 0.027-0.010 0.030-0.025l0.072-0.369c0.002-0.013 0.013-0.023 0.026-0.025l0.371-0.054c0.015-0.002 0.026-0.015 0.026-0.030 0-0.011-0.006-0.021-0.015-0.026l-0.329-0.183zM17.492 26.853c0.261-0.052 0.409-0.427 0.328-0.83s-0.361-0.692-0.622-0.64c-0.261 0.052-0.409 0.427-0.328 0.83s0.361 0.692 0.622 0.64zM17.544 26.080c-0.053-0.256-0.184-0.446-0.294-0.424s-0.156 0.249-0.103 0.505c0.053 0.256 0.184 0.446 0.294 0.424s0.156-0.249 0.103-0.505zM15.245 26.368l-0.079-0.69c-0.005-0.046-0.031-0.069-0.077-0.069h-0.13c-0.036 0-0.051 0.018-0.044 0.054l0.229 1.288c0.011 0.058 0.063 0.1 0.122 0.1s0.11-0.042 0.122-0.1l0.131-0.737c0.002-0.010 0.010-0.017 0.020-0.017s0.017 0.006 0.020 0.015c0.059 0.247 0.117 0.484 0.175 0.712 0.022 0.088 0.081 0.118 0.176 0.092 0.031-0.008 0.054-0.035 0.058-0.067l0.191-1.306c0.007-0.050-0.014-0.071-0.064-0.062l-0.139 0.025c-0.025 0.004-0.040 0.019-0.043 0.045l-0.073 0.746c-0.002 0.012-0.013 0.020-0.025 0.020s-0.022-0.009-0.025-0.020c-0.029-0.234-0.095-0.463-0.121-0.698-0.008-0.071-0.053-0.109-0.135-0.115-0.056-0.004-0.107 0.035-0.118 0.091l-0.13 0.695c-0.002 0.009-0.011 0.016-0.021 0.016s-0.019-0.008-0.021-0.018zM12.022 13.264c-0.177-0.617-0.44-1.173-0.791-1.667-0.013-0.019-0.035-0.030-0.058-0.030-0.015 0-0.030 0.005-0.042 0.014-0.306 0.225-0.581 0.483-0.825 0.774-0.020 0.024-0.019 0.047 0.003 0.069l0.774 0.769c0.012 0.013 0.939 0.070 0.939 0.070zM10.795 13.188l-0.588-0.67c-0.022-0.024-0.043-0.023-0.063 0.002l-0.419 0.54c-0.020 0.026-0.024 0.054-0.011 0.085 0.030 0.073 0.086 0.113 0.167 0.119 0.029 0.002 0.054 0.014 0.074 0.035l0.063 0.066 0.006-0.157c0.001-0.037 0.020-0.055 0.057-0.053l0.714 0.032zM10.011 13.583l-0.361-0.281c-0.034-0.027-0.063-0.023-0.088 0.012l-0.068 0.094c-0.016 0.022-0.013 0.041 0.010 0.056l0.343 0.232c0.024 0.017 0.051 0.023 0.081 0.019l0.063-0.009c0.028-0.059 0.035-0.1 0.020-0.123zM9.657 13.809c0.092 0.016 0.103-0.007 0.034-0.070-0.072-0.065-0.154-0.119-0.246-0.159-0.030-0.013-0.053-0.006-0.069 0.022l-0.091 0.156c-0.005 0.008-0.007 0.017-0.007 0.026 0 0.027 0.022 0.049 0.049 0.049 0.005 0 0.011-0.001 0.016-0.002 0.103-0.032 0.207-0.039 0.315-0.020zM13.769 20.821c0.002-0.007 0.005-0.015 0.008-0.024s0.010-0.016 0.018-0.019c0.017-0.006 0.038 0.006 0.045 0.027 0.004 0.010 0.004 0.021 0 0.031l-0.934 2.777c-0.013 0.038-0.038 0.048-0.074 0.032l-0.558-0.254c-0.036-0.016-0.045-0.042-0.029-0.078 0.337-0.73 0.68-1.455 1.027-2.176 0.051-0.107 0.092-0.258 0.204-0.344 0.009-0.007 0.021-0.011 0.033-0.011 0.030 0 0.055 0.025 0.055 0.055 0 0.006-0.001 0.012-0.003 0.018l-0.118 0.315c-0.001 0.002-0.001 0.004-0.002 0.006-0.004 0.020 0.008 0.040 0.028 0.044 0.002 0 0.004 0.001 0.006 0.001 0.057 0.002 0.094-0.026 0.109-0.084 0.030-0.115 0.087-0.213 0.17-0.295 0.006-0.006 0.010-0.013 0.012-0.020zM18.597 23.035l-0.874-1.537c-0.012-0.021-0.018-0.044-0.018-0.068 0-0.075 0.062-0.137 0.137-0.137 0.024 0 0.048 0.006 0.069 0.019l0.062 0.035c0.024 0.014 0.050 0.021 0.079 0.019 0.282-0.015 0.555 0.020 0.822 0.106 0.026 0.008 0.049 0.024 0.067 0.044 0.218 0.248 0.483-0.236 0.715 0.153 0.001 0.003 0.003 0.005 0.005 0.007 0.013 0.013 0.035 0.013 0.048 0 0.002-0.002 0.004-0.004 0.005-0.007 0.004-0.008 0.007-0.016 0.008-0.024 0.004-0.040 0.027-0.058 0.068-0.054l1.020 0.112c0.004 0 0.008 0.001 0.012 0.003 0.017 0.008 0.024 0.030 0.016 0.048-0.002 0.004-0.004 0.007-0.007 0.010l-0.724 0.706c-0.024 0.023-0.053 0.038-0.086 0.044-0.169 0.032-0.195 0.169-0.31 0.257-0.29 0.218-0.592 0.411-0.909 0.58-0.052 0.028-0.068 0.015-0.047-0.041 0.037-0.096 0.008-0.166-0.086-0.211-0.030-0.014-0.053-0.036-0.069-0.065zM19.581 22.168c0.043 0.040 0.081 0.036 0.117-0.011 0.018-0.024 0.021-0.057 0.007-0.083-0.012-0.023-0.029-0.041-0.051-0.052-0.019-0.010-0.042-0.015-0.066-0.013-0.055 0.004-0.097 0.042-0.094 0.084 0.001 0.018 0.011 0.035 0.028 0.048 0.015 0.012 0.028 0.019 0.038 0.019 0.008 0 0.015 0.003 0.020 0.008zM14.747 22.44c-0.12 0.164-0.156 0.371-0.108 0.621 0.001 0.008 0.002 0.016 0.002 0.024 0 0.068-0.056 0.123-0.123 0.123-0.019 0-0.037-0.004-0.054-0.012-0.036-0.017-0.046-0.077-0.030-0.179 0.075-0.451 0.080-0.903 0.014-1.356-0.004-0.033-0.023-0.052-0.057-0.056-0.176-0.023-0.201 0.112-0.205 0.263-0.004 0.186-0.053 0.358-0.149 0.516-0.015 0.024-0.041 0.038-0.069 0.038-0.045 0-0.082-0.037-0.082-0.082 0-0.006 0.001-0.011 0.002-0.017l0.202-0.881c0-0.002 0-0.003 0-0.005 0-0.017-0.014-0.031-0.031-0.031-0.012 0-0.023 0.007-0.028 0.019l-0.305 0.808c-0.006 0.015-0.018 0.022-0.034 0.020l-0.030-0.005c-0.012-0.001-0.020-0.011-0.020-0.023 0-0.002 0-0.005 0.001-0.007l0.144-0.49c0.003-0.011-0.001-0.019-0.012-0.022-0.010-0.004-0.020-0.007-0.030-0.010-0.008-0.003-0.013 0-0.016 0.008l-0.607 1.964c-0.013 0.040 0.010 0.084 0.050 0.097 1.239 0.422 2.504 0.511 3.797 0.269 0.354-0.067 0.688-0.176 1.001-0.328 0.025-0.012 0.035-0.042 0.023-0.067l-0.343-0.715c-0.010-0.020-0.030-0.033-0.052-0.033l-0.325-0.005c-0.156-0.003-0.208 0.070-0.156 0.217l0.193 0.536c0.012 0.034 0.001 0.059-0.032 0.074l-0.040 0.019c-0 0-0.001 0-0.001 0-0.015 0.006-0.032-0-0.038-0.015-0-0-0-0.001-0-0.001l-0.312-0.809c-0.012-0.030-0.040-0.052-0.072-0.054-0.501-0.041-1-0.022-1.496 0.056-0.030 0.004-0.047-0.009-0.049-0.039l-0.042-0.459-0.118 0.006c0.037 0.499-0.009 0.985-0.137 1.458-0.008 0.027-0.033 0.044-0.061 0.042-0.048-0.004-0.072-0.034-0.070-0.089 0.006-0.454 0.002-0.909-0.012-1.364-0.029 0.002-0.057-0.006-0.083-0.022zM11.175 22.404c-0.015 0.018-0.034 0.024-0.056 0.019l-0.127-0.027c-0.003-0.001-0.006-0.001-0.009-0.001-0.026 0-0.047 0.021-0.047 0.047 0 0.013 0.005 0.025 0.015 0.034 0.317 0.292 0.665 0.542 1.043 0.748 0.025 0.014 0.043 0.008 0.056-0.018l0.475-0.92c0.010-0.020 0.004-0.032-0.019-0.033l-0.040-0.003c-0.030-0.003-0.048 0.011-0.054 0.042-0.014 0.071-0.053 0.118-0.117 0.141-0.006 0.002-0.011 0.003-0.018 0.003-0.027 0-0.050-0.023-0.050-0.050 0-0.009 0.002-0.017 0.006-0.024l0.414-0.765c0.023-0.041 0.010-0.062-0.037-0.062h-0.065c-0.028 0-0.046 0.014-0.053 0.042-0.048 0.194-0.17 0.291-0.366 0.292-0.035 0-0.060 0.015-0.075 0.045-0.149 0.284-0.324 0.551-0.523 0.802-0.009 0.012-0.019 0.019-0.029 0.022-0.011 0.004-0.022 0.005-0.031 0.003-0.044-0.008-0.055-0.031-0.031-0.069l0.577-0.908c0.005-0.009 0.009-0.018 0.009-0.029 0.009-0.096-0.031-0.156-0.119-0.179-0.030-0.007-0.054 0.001-0.073 0.024l-0.291 0.352c-0.022 0.026-0.020 0.051 0.004 0.075l0.022 0.021c0.009 0.009 0.013 0.021 0.013 0.033 0 0.026-0.021 0.048-0.048 0.048h-0.11c-0.022 0-0.040 0.010-0.053 0.029-0.060 0.090-0.125 0.178-0.195 0.264zM17.802 22.363c-0.001-0-0.003-0-0.004-0-0.014 0-0.025 0.010-0.027 0.023-0.026 0.208 0.030 0.385 0.168 0.53 0.020 0.022 0.036 0.046 0.046 0.073l0.231 0.582c0.019 0.048 0.050 0.059 0.095 0.033l0.271-0.156c0.036-0.020 0.044-0.049 0.023-0.085l-0.525-0.922c-0.015-0.027-0.037-0.042-0.067-0.046l-0.212-0.032zM7.441 16.543c-0.127-0.040-0.263-0.050-0.408-0.032 0.319-2.26-1.467-2.765-3.184-1.928-0.026 0.013-0.037 0.034-0.032 0.062l0.305 2.258c0.117 0.805 0.25 1.647 0.401 2.526 0.117 0.681 0.269 1.351 0.456 2.011 0.017 0.059 0.073 0.1 0.134 0.097l0.99-0.042c0.035-0.002 0.052 0.015 0.051 0.051-0.004 0.104 0.023 0.198 0.082 0.28 0.027 0.038 0.017 0.060-0.030 0.066-1.381 0.17-2.755 0.387-4.122 0.651-0.006 0.001-0.013 0.002-0.019 0.002-0.050 0-0.093-0.039-0.097-0.089l-0.021-0.249c-0.003-0.031 0.017-0.060 0.047-0.069l0.617-0.183c0.055-0.017 0.092-0.069 0.088-0.127-0.109-1.55-0.417-3.068-0.648-4.587-0.144-0.918-0.271-1.947-0.568-2.794-0.010-0.030-0.032-0.045-0.063-0.046l-0.697-0.027c-0.033-0.001-0.053-0.018-0.058-0.051l-0.047-0.261c-0.007-0.040 0.009-0.063 0.050-0.069 1.943-0.245 3.497-0.58 5.249-0.885 0.84-0.147 1.926-0.121 2.589 0.505 0.714 0.676 0.87 1.767 0.602 2.695-0.533 1.741-2.462 2.324-4.093 2.328-0.041 0-0.058-0.020-0.053-0.059l0.117-0.835c0.005-0.035 0.025-0.054 0.060-0.056l0.712-0.052c-0.043 0.1-0.062 0.18-0.057 0.24 0 0.003 0.001 0.007 0.002 0.010 0.007 0.017 0.027 0.025 0.044 0.018 0.003-0.001 0.006-0.003 0.008-0.005l0.555-0.446c0.022-0.018 0.052-0.020 0.076-0.006l0.592 0.346c0.005 0.003 0.011 0.005 0.018 0.005 0.020 0 0.037-0.017 0.037-0.037 0-0.004-0.001-0.008-0.002-0.012l-0.242-0.637c-0.012-0.030-0.006-0.055 0.018-0.076l0.543-0.486zM7.51 15.115l-0.207 0.008c-0.011 0-0.023 0.004-0.032 0.011-0.024 0.018-0.029 0.054-0.010 0.079 0.007 0.009 0.016 0.016 0.027 0.020 0.101 0.032 0.184 0.144 0.184 0.144s0.002 0.152-0.062 0.254c-0.004 0.006-0.006 0.014-0.006 0.021 0 0.021 0.018 0.039 0.039 0.039 0.009 0 0.017-0.003 0.024-0.008l0.216-0.165c0.019-0.014 0.043-0.016 0.063-0.005l0.199 0.112c0.008 0.004 0.017 0.006 0.026 0.006 0.026-0.002 0.047-0.024 0.045-0.050-0.001-0.009-0.004-0.018-0.009-0.025-0.062-0.086-0.071-0.226-0.071-0.226s0.082-0.133 0.197-0.178c0.014-0.006 0.024-0.020 0.024-0.035 0-0.021-0.017-0.038-0.038-0.038h-0.257c-0.032 0-0.055-0.015-0.069-0.044l-0.084-0.189c-0.007-0.016-0.024-0.026-0.041-0.026-0.021 0-0.039 0.014-0.044 0.035l-0.053 0.211c-0.007 0.028-0.032 0.049-0.061 0.050zM12.266 15.538l0.162-1.459c0.004-0.034 0.031-0.061 0.065-0.065l0.654-0.074c0.030-0.004 0.046-0.020 0.048-0.050l0.029-0.328c0.003-0.038-0.014-0.058-0.052-0.061l-2.93-0.157c-0.041-0.002-0.061 0.017-0.061 0.058v0.327c0 0.036 0.018 0.060 0.053 0.069 0.126 0.035 0.392 0.083 0.47 0.185 0.048 0.062 0.006 0.205 0.006 0.205l0.18 0.305 0.211-0.013c0 0 0.012-0.003 0.018-0.003 0.027 0 0.048 0.022 0.048 0.048 0 0.013-0.005 0.026-0.015 0.035l-0.177 0.15c-0.019 0.017-0.026 0.043-0.017 0.067l0.090 0.237c0.020 0.051 0.004 0.067-0.047 0.047l-0.31-0.117c0.058 0.13 0.070 0.28 0.037 0.452-0.064 1.048-0.048 2.060-0.266 3.135-0.006 0.029-0.030 0.052-0.059 0.056l-0.384 0.057c-0.056 0.009-0.099 0.057-0.1 0.114l-0.005 0.287c-0.001 0.029 0.023 0.054 0.052 0.056l5.007 0.244c0.041 0.002 0.066-0.017 0.077-0.056l0.288-1.049c0.009-0.035-0.002-0.060-0.032-0.078l-0.149-0.083c-0.039-0.022-0.088-0.009-0.112 0.028l-0.18 0.279c-0.016 0.025-0.039 0.040-0.068 0.046-0.843 0.165-1.687 0.179-2.531 0.044-0.068-0.010-0.101-0.050-0.098-0.119l0.101-2.82zM23.959 16.473l0.557 0.594c0.042 0.045 0.032 0.064-0.029 0.056l-0.974-0.118c-0.028-0.003-0.049 0.007-0.063 0.032l-0.2 0.351c0.138 0.365 0.561 1.265 0.462 1.608-0.235 0.811-0.51 1.61-0.826 2.399-0.012 0.030-0.035 0.046-0.068 0.046-0.232 0.006-0.461-0.021-0.687-0.082-0.216-0.058-0.383 0.014-0.351 0.261 0.003 0.023 0.016 0.037 0.038 0.042 1.422 0.311 2.818 0.684 4.225 1.060 0.006 0.001 0.011 0.002 0.017 0.002 0.032 0 0.061-0.023 0.067-0.055l0.037-0.184c0.009-0.046-0.007-0.077-0.050-0.094l-0.815-0.328c-0.030-0.012-0.041-0.033-0.035-0.065 0.129-0.673 0.275-1.342 0.437-2.007 0.076-0.311 0.131-0.61 0.385-0.835 1.022-0.902 2.034-1.811 3.035-2.726 0.587-0.52 1.182-1.024 1.787-1.512 0.304-0.246 0.619-0.174 0.974-0.116 0.035 0.006 0.068-0.018 0.075-0.053l0.041-0.209c0.005-0.025-0.005-0.040-0.030-0.046l-2.68-0.678c-0.004-0.001-0.009-0.002-0.014-0.002-0.025 0-0.046 0.017-0.052 0.041l-0.044 0.182c-0.008 0.032 0.008 0.065 0.037 0.081l0.476 0.243c0.002 0.001 0.005 0.003 0.007 0.004 0.026 0.019 0.033 0.056 0.014 0.082-0.002 0.002-0.003 0.004-0.005 0.006l-1.453 1.524-2.665 2.571c-0.014 0.013-0.032 0.021-0.051 0.021-0.032 0-0.060-0.020-0.069-0.050l-0.711-2.103-0.393-1.723c-0.001-0.005-0.001-0.009-0.001-0.014 0-0.036 0.030-0.066 0.066-0.066 0.004 0 0.008 0 0.012 0.001l0.601 0.113c0.036 0.007 0.059-0.007 0.069-0.042l0.065-0.223c0.009-0.029-0.002-0.047-0.032-0.055l-3.725-0.939c-0.005-0.001-0.010-0.002-0.016-0.002-0.029 0-0.054 0.020-0.060 0.047l-0.073 0.291c-0.006 0.026 0.007 0.054 0.032 0.065l0.617 0.272c0.025 0.012 0.044 0.030 0.056 0.055l0.419 0.848 0.82 0.699c0.024 0.021 0.058 0.025 0.086 0.012l0.89-0.424c0.005-0.003 0.011-0.004 0.017-0.004 0.020 0 0.037 0.017 0.037 0.037 0 0.005-0.001 0.011-0.004 0.016l-0.411 0.877c-0.015 0.032-0.013 0.063 0.006 0.093 0.028 0.044 0.070 0.086 0.125 0.124zM19.951 15.553c0.596 1.353 1.268 2.694 2.014 4.023 0.015 0.028 0.039 0.040 0.071 0.035 0.124-0.017 0.252-0.011 0.383 0.019 0.032 0.007 0.061 0.024 0.082 0.049 0.056 0.064 0.050 0.162-0.014 0.219-0.024 0.021-0.055 0.035-0.087 0.038l-2.702 0.267c-0.005 0.001-0.011 0.001-0.017 0.001-0.085 0-0.155-0.070-0.155-0.155 0-0.066 0.042-0.125 0.104-0.146l0.328-0.115c0.072-0.026 0.109-0.105 0.084-0.177l-0.219-0.62 0.245 0.113c0.005 0.002 0.010 0.003 0.015 0.003 0.020 0 0.036-0.016 0.036-0.036 0-0.005-0.001-0.009-0.003-0.013l-0.121-0.304c-0.012-0.030-0.006-0.056 0.019-0.078l0.239-0.214c0.040-0.036 0.033-0.054-0.020-0.054h-0.329c-0.034 0-0.058-0.015-0.071-0.046l-0.131-0.308c-0.006-0.014-0.020-0.023-0.035-0.023-0.020 0-0.037 0.016-0.039 0.036-0.004 0.064-0.089 0.278-0.089 0.278s-0.206-0.411-0.238-0.408l-2.059 0.204c-0.028 0.003-0.044 0.019-0.050 0.046l-0.703 3.488c-0.010 0.048 0.020 0.097 0.068 0.11l0.429 0.12c0.036 0.010 0.067 0.033 0.089 0.064 0.051 0.073 0.033 0.175-0.040 0.225-0.031 0.021-0.068 0.031-0.106 0.028-0.632-0.052-1.26-0.046-1.886 0.020-0.008 0.001-0.016 0.002-0.023 0.002-0.091 0-0.166-0.075-0.166-0.166 0-0.079 0.057-0.148 0.135-0.163 0.133-0.030 0.253-0.078 0.359-0.145 0.030-0.018 0.051-0.047 0.059-0.081l1.313-4.931 0.671-2.501c0.015-0.057 0.051-0.089 0.109-0.097l1.654-0.232c0.027-0.004 0.054 0.011 0.066 0.036l0.729 1.588zM17.501 16.737l-0.143 0.684c-0.001 0.004-0.001 0.008-0.001 0.012 0 0.034 0.028 0.062 0.062 0.062 0.002 0 0.005-0 0.007-0l1.53-0.162c0.003-0 0.005-0.001 0.008-0.001 0.030-0.008 0.048-0.039 0.040-0.068-0.001-0.003-0.002-0.005-0.003-0.008l-0.599-1.387-0.351-0.822c-0.018-0.042-0.060-0.070-0.106-0.070-0.055 0-0.103 0.039-0.113 0.093l-0.332 1.669zM20.001 17.467c-0.030-0.015-0.057-0.013-0.080 0.006-0.004 0.003-0.007 0.007-0.009 0.011-0.014 0.022-0.008 0.052 0.014 0.066 0.004 0.003 0.009 0.005 0.013 0.006 0.148 0.042 0.183 0.132 0.106 0.27-0.009 0.016-0.006 0.031 0.006 0.044l0.024 0.024c0.005 0.005 0.012 0.008 0.018 0.008 0.009 0 0.017-0.004 0.021-0.011 0.094-0.136 0.198-0.141 0.312-0.016 0.007 0.007 0.017 0.011 0.027 0.011 0.021 0 0.038-0.017 0.038-0.038 0-0.003-0-0.006-0.001-0.010l-0.053-0.17c-0.008-0.026 0-0.054 0.020-0.071l0.118-0.101c0.008-0.007 0.013-0.018 0.013-0.029 0-0.021-0.017-0.038-0.038-0.038-0.003 0-0.006 0-0.009 0.001-0.159 0.037-0.244-0.016-0.257-0.16-0.001-0.014-0.005-0.025-0.012-0.032-0.011-0.010-0.024-0.015-0.040-0.015-0.023 0.001-0.041 0.020-0.041 0.044 0.002 0.086-0.028 0.15-0.091 0.193-0.033 0.022-0.067 0.025-0.102 0.007zM1.341 15.106c-0.021-0.081-0.042-0.161-0.065-0.24l-1.071 0.265c-0.106 0.057-0.173 0.149-0.203 0.274-0.007 0.031 0.005 0.043 0.036 0.035l1.303-0.334zM5.792 12.799c0.022-0.004 0.045-0.008 0.067-0.012 0.932-0.163 2.132-0.106 2.867 0.589 0.007 0.007 0.015 0.014 0.022 0.021 0.447-0.903 1.27-1.78 2.019-2.377 0.024-0.019 0.027-0.041 0.008-0.066-0.592-0.784-1.344-1.362-2.254-1.733-0.055-0.022-0.118-0.011-0.161 0.029-1.101 1.006-1.957 2.189-2.569 3.549zM9.296 14.188c0.044 0.1 0.083 0.202 0.115 0.307 0.126-0.012 0.248-0.002 0.367 0.030l0.698 0.025c0.001 0 0.003 0 0.004 0 0.007 0 0.014-0.001 0.021-0.002-0.045-0.076-0.082-0.17-0.109-0.284l-0.009-0.037-1.088-0.039zM12.718 14.414l-0.034 0.31 0.204 0.020 3.914 0.467 0.078-0.291-4.162-0.507zM20.234 15.392c0 0 0.095 0.214 0.136 0.305l2.194 0.296c0.031 0.004-0.041-0.286-0.080-0.291l-2.251-0.31zM24.986 15.955l0.072 0.317 2.313 0.105 0.293-0.283-2.679-0.139zM2.344 21.467c-0.009-0.103-0.020-0.207-0.030-0.31l-1.192 0.25c-0.109 0.086-0.189 0.206-0.239 0.359-0.010 0.032 0.001 0.044 0.033 0.036l1.429-0.335zM19.641 18.987l0.047-0.043c-0.017 0.007-0.033 0.021-0.047 0.043zM21.506 21.307c0.022-0.046 0.050-0.086 0.081-0.12 0.070-0.078 0.168-0.134 0.286-0.158l-4.118-0.311-0.041 0.237c-0.007 0.037 0.009 0.057 0.046 0.060l3.745 0.292zM30.245 16.118l-0.412-0.003-0.357 0.309 0.933-0.012-0.164-0.294zM26.683 21.294h-0.61l-0.064 0.309 0.854 0.013-0.181-0.322z"></path>
</svg>
