<!-- Generated by IcoMoon.io -->
<svg version="1.1" xmlns="http://www.w3.org/2000/svg" width="21" height="32" viewBox="0 0 21 32">
<title>watermark-leagueofdastardlydoom</title>
<path fill="#444" d="M10.667 2.676c-2.856 0-5.505 0.81-7.462 2.346s-3.205 3.822-3.205 6.646c0 2.113 1.203 4.088 2.467 5.672 0.632 0.792 1.287 1.486 1.832 2.044s0.992 0.995 1.155 1.191c0.559 0.675 0.98 2.431 1.125 3.912-0.289 0.176-0.467 0.698-0.46 1.125 0.007 0.407 0.13 0.886 0.72 1.088 0.061 0.022 0.121 0.040 0.181 0.061 0.176 0.398 0.405 0.782 0.695 1.131 0.68 0.817 1.7 1.433 2.951 1.433s2.271-0.616 2.951-1.433c0.29-0.348 0.519-0.732 0.695-1.131 0.060-0.021 0.121-0.039 0.181-0.061 0.59-0.202 0.713-0.681 0.72-1.088 0.007-0.427-0.17-0.948-0.46-1.125 0.145-1.481 0.566-3.238 1.125-3.912 0.162-0.196 0.61-0.634 1.155-1.191s1.2-1.252 1.832-2.044c1.264-1.583 2.467-3.559 2.467-5.672 0-2.823-1.248-5.109-3.205-6.646s-4.606-2.346-7.462-2.346zM10.667 3.643c2.673 0 4.821 0.904 6.573 2.28s2.63 3.225 2.63 5.769c-0.402 4.152-2.357 5.297-4.735 7.819-0.957 1.154-1.141 3.838-1.222 5.545-1.504 0.62-2.138 0.647-3.247 0.647s-1.743-0.027-3.247-0.647c-0.080-1.707-0.265-4.391-1.222-5.545-2.378-2.522-4.333-3.666-4.735-7.819 0-2.544 0.878-4.394 2.63-5.769s3.9-2.28 6.573-2.28zM10.667 7.132c-1.136 0-2.111 0.511-2.576 1.246-0.048-0.015-0.096-0.030-0.145-0.042-1.163-0.305-2.203 0.218-2.346 1.167-0.74 0.325-1.24 0.947-1.24 1.657 0 1.046 1.091 1.893 2.431 1.893 0.74 0 1.399-0.258 1.844-0.665 0.264 0.478 0.431 1.129 0.532 1.838 0.439 0.030 0.961 0.073 1.5 0.073s1.060-0.043 1.5-0.073c0.101-0.709 0.268-1.36 0.532-1.838 0.445 0.408 1.105 0.665 1.844 0.665 1.34 0 2.431-0.847 2.431-1.893 0-0.71-0.5-1.332-1.24-1.657-0.143-0.949-1.183-1.472-2.346-1.167-0.049 0.013-0.098 0.027-0.145 0.042-0.465-0.734-1.44-1.246-2.576-1.246zM9.016 10.803l0.163 0.224c0.458 0.617 0.916 0.974 1.487 0.974s1.030-0.356 1.488-0.974l0.163-0.224 0.151 0.236c0.252 0.392 0.568 0.747 1.016 0.919s2.431-0.121 2.431-0.121c-0.953 0.408-2.012 0.699-2.57 0.484-0.468-0.18-0.784-0.519-1.040-0.871-0.456 0.554-0.98 0.937-1.639 0.937s-1.183-0.383-1.639-0.937c-0.256 0.352-0.572 0.691-1.040 0.871-0.558 0.215-1.617-0.075-2.57-0.484 0 0 1.983 0.293 2.431 0.121s0.763-0.527 1.016-0.919l0.151-0.236zM8.986 13.705c-1.523 0.070-2.733 0.13-2.733 0.448 0 0.344 1.254 0.631 2.987 0.738 0.113 1.263 0.073 2.596 0.073 3.423 0 0.128 0.605 0.23 1.354 0.23s1.354-0.102 1.354-0.23c0-0.827-0.040-2.16 0.073-3.423 1.733-0.106 2.987-0.394 2.987-0.738 0-0.317-1.21-0.377-2.733-0.448-0.016 0.070-0.028 0.26-0.042 0.333 0.665 0.009 1.463 0.015 1.463 0.079 0 0.209-1.387 0.375-3.102 0.375s-3.102-0.166-3.102-0.375c0-0.064 0.798-0.070 1.463-0.079-0.014-0.073-0.026-0.262-0.042-0.333zM9.209 18.126c-1.005 0.094-1.699 0.28-1.699 0.496s0.69 0.402 1.693 0.496c-0.218 0.611-0.742 1.197-1.33 1.778 0 0 1.336 0.424 2.777 0.424s2.81-0.424 2.81-0.424c-0.589-0.581-1.113-1.167-1.33-1.778 1.003-0.094 1.693-0.281 1.693-0.496s-0.694-0.401-1.699-0.496c0.121 0.058 0.194 0.123 0.194 0.194 0 0.231-0.738 0.417-1.651 0.417s-1.651-0.186-1.651-0.417c0-0.070 0.072-0.135 0.194-0.194zM7.45 20.768l0.454 3.749c0 0 1.236 0.659 2.763 0.695 1.527-0.036 2.763-0.695 2.763-0.695l0.454-3.749c0 0-2.105 0.869-3.217 0.895-1.112-0.026-3.217-0.895-3.217-0.895zM8.048 21.802c0 0 1.472 0.629 2.618 0.629s2.618-0.629 2.618-0.629c0 0-0.878 0.907-2.618 0.907s-2.618-0.907-2.618-0.907zM8.048 22.673c0 0 1.472 0.629 2.618 0.629s2.618-0.629 2.618-0.629c0 0-0.878 0.907-2.618 0.907s-2.618-0.907-2.618-0.907zM8.048 23.544c0 0 1.472 0.629 2.618 0.629s2.618-0.629 2.618-0.629c0 0-0.878 0.907-2.618 0.907s-2.618-0.907-2.618-0.907zM7.746 26.996c0.97 0.283 1.915 0.447 2.921 0.447s1.951-0.164 2.921-0.447c-0.575 0.595-2.008 0.78-2.921 0.78s-2.345-0.185-2.921-0.78z"></path>
</svg>
