<!-- Generated by IcoMoon.io -->
<svg version="1.1" xmlns="http://www.w3.org/2000/svg" width="32" height="32" viewBox="0 0 32 32">
<title>watermark-dengekimaoh</title>
<path fill="#444" d="M13.202 16.533l-1.148 2.269c-0.043 0.084-0.129 0.137-0.223 0.137l-2.055 0.003c-0 0-0 0-0.001 0-0.047 0-0.086-0.039-0.086-0.086 0-0.014 0.003-0.027 0.009-0.039l3.482-6.841c0.038-0.074 0.114-0.121 0.197-0.121l2.864-0.011c0.069-0 0.126-0.055 0.13-0.124 0.009-0.186 0.013-0.362 0.009-0.528-0.003-0.126 0.046-0.192 0.147-0.199 0.611-0.043 1.221-0.047 1.831-0.014 0.032 0.002 0.048 0.019 0.049 0.051l0.026 0.668c0.004 0.090 0.050 0.134 0.14 0.134l2.649 0.002c0.057 0 0.103 0.046 0.103 0.103v1.11c0 0.076-0.062 0.138-0.137 0.139l-0.956 0.015c0.578 0.701 1.141 1.402 1.688 2.105 0.013 0.017 0.025 0.055 0.038 0.115l1.997-0.002c0.048 0 0.088-0.040 0.088-0.088l-0.002-0.67c-0-0.084-0.042-0.126-0.126-0.126h-2.433c-0.064 0-0.116-0.052-0.117-0.116l-0.010-1.095c-0-0.088 0.043-0.132 0.131-0.133 0.044-0 6.009 0.010 6.037 0.010 0.116 0 0.142 0.020 0.203 0.103 0.277 0.376 0.491 0.736 0.767 1.093 0.113 0.146-0.066 0.142-0.072 0.142h-2.025c-0.072 0.001-0.124 0.044-0.125 0.116l-0.001 0.594v0.001c0 0.089 0.073 0.162 0.162 0.163 0.768 0.001 2.685 0.006 2.685 0.006s0.053-0.019 0.146 0.097c0.011 0.013 0.727 1.033 0.727 1.033s0.111 0.14-0.129 0.139h-3.451c-0.113-0.006-0.127 0.090-0.127 0.156l0.004 0.646c0 0.001 0.001 0.066 0.001 0.066 0.001 0.104 0.086 0.124 0.189 0.123 0.001 0 0.001 0 0.002 0 0.015-0 4.093-0.001 4.135-0.002 0.138-0 0.165 0.052 0.255 0.168 0.012 0.016 1.082 1.546 1.102 1.599 0.083 0.218-0.058 0.177-0.088 0.184-0.004 0.001-11.373 0.001-11.373 0.001l-0.925 0.449c-0.635 0.348-1.281 0.664-1.939 0.947-0.19 0.082-0.568-0.117-0.744-0.203-0.958-0.467-1.92-0.926-2.886-1.377-0.184-0.086-0.198-0.22-0.256-0.444-0.119-0.461-0.233-0.942-0.342-1.444-0.033-0.329-0.106-0.67-0.219-1.024zM21.7 16.795l-0.194 0.881h2.379c0.166 0.011 0.184-0.057 0.181-0.151 0-0-0.010-0.74-0.010-0.74 0-0.049-0.041-0.090-0.090-0.090h-2.185c-0.023 0-0.069 0.032-0.081 0.1zM14.487 18.74c0.008 0.035 0.032 0.065 0.065 0.081l2.882 1.387c0.033 0.016 0.072 0.016 0.105-0.001l2.868-1.395c0.033-0.016 0.057-0.046 0.065-0.082l0.693-3.103c0.008-0.036-0.001-0.073-0.024-0.102l-1.994-2.469c-0.023-0.028-0.057-0.044-0.093-0.045l-3.191 0.003c-0.037 0-0.071 0.017-0.094 0.045l-1.977 2.481c-0.023 0.029-0.031 0.066-0.023 0.102l0.72 3.097zM17.877 15.835l-3.080 0.255c-0.011 0.001-0.022-0.008-0.023-0.019l-0.184-1.278c-0.002-0.012 0.007-0.023 0.018-0.024l4.476-0.742c0.007-0.001 0.015 0.001 0.020 0.006l1.276 1.334c0.007 0.008 0.008 0.019 0.002 0.028l-1.715 2.329c-0.003 0.004-0.004 0.008-0.004 0.013 0 0.008 0.004 0.015 0.011 0.019l0.84 0.435c0.007 0.004 0.012 0.011 0.012 0.019 0 0.005-0.002 0.010-0.005 0.014l-1.187 1.334c-0.007 0.008-0.020 0.010-0.029 0.003l-2.681-1.977c-0.009-0.006-0.012-0.019-0.006-0.028l0.64-1.035c0.006-0.009 0.018-0.013 0.028-0.007l0.912 0.477c0.010 0.006 0.023 0.002 0.029-0.008l0.67-1.114c0.002-0.003 0.003-0.008 0.003-0.012 0-0.012-0.010-0.022-0.022-0.022-0.001 0-0.001 0-0.002 0zM7.21 12.703l0.631-0.001c0 0.081 0.083 0.105 0.083 0.105h0.838c0 0 0.092-0.001 0.083 0.070l0.006 0.263c0 0.028-0.006 0.058-0.057 0.057h-0.794c-0.025 0.001-0.043 0.018-0.044 0.059-0 0.005 0.001 0.011 0.001 0.016-0.003 0.050 0.040 0.058 0.040 0.058h0.772c0.066 0.001 0.122 0.044 0.13 0.11 0 0.004 0.001 0.832 0.001 0.842-0.001 0.121-0.111 0.13-0.111 0.13h-0.777c0 0-0.056 0.002-0.057 0.063-0.002 0.094 0.075 0.079 0.075 0.079s1.066 0.005 1.599-0.006c0 0 0.001 0 0.001 0s0.031 0.008 0.046-0.018c0.015-0.027-0.024-0.051-0.035-0.055l-0.513-0.181c-0.032-0.013-0.088-0.034-0.078-0.134 0 0 0-0.268 0-0.268-0.001-0.051 0.054-0.086 0.106-0.087 0.001 0 0.001 0 0.002 0l2.325-0.003c0.047-0.019 0.048 0.018 0.003 0.111-0.364 0.756-1.137 2.192-1.137 2.192l-0.542-0.001c0 0-0.273-0.021-0.273 0.168-0 0.575-0.429 0.57-0.429 0.57h-2.196c0 0-0.086 0.017-0.083-0.084v-0.378c-0.006-0.097 0.092-0.083 0.092-0.083l1.472-0.005c0.028-0 0.076-0.009 0.073-0.056-0.005-0.083-0.080-0.070-0.080-0.070s-1.505-0.010-2.109-0.010c-0.025 0-0.054-0.042-0.055-0.067l-0.001-0.324c-0-0.001 0.001-0.076 0.066-0.072 0.001 0 2.127 0 2.127 0s0.054 0.004 0.053-0.062c-0.001-0.067-0.053-0.071-0.053-0.071l-2.125 0.002c-0.032 0-0.067-0.025-0.067-0.058v-0.364c0-0.049 0.025-0.066 0.073-0.066h2.102c0 0 0.050 0.005 0.050-0.059-0-0.060-0.051-0.088-0.051-0.088l-0.427 0.001 0.003 0.072-0.818-0.001-0.002-0.069-0.855 0.002c0 0-0.071 0.006-0.074-0.072l0.002-0.272c-0-0.025 0.020-0.034 0.046-0.034h0.8c0 0 0.056-0.035 0.056-0.068s-0.024-0.073-0.057-0.073l-0.71-0.001c-0.078-0.002-0.149-0.008-0.137-0.137v-0.832c0.001-0.057 0.053-0.111 0.109-0.112h0.745c0 0 0.042-0.005 0.043-0.061 0.002-0.077-0.047-0.071-0.047-0.071s-0.652 0.002-0.808 0.007c-0.028 0.001-0.042-0.013-0.042-0.041l0.001-0.297c-0.001-0.055 0.063-0.060 0.063-0.060s0.53-0.006 0.8 0c0.058 0.001 0.134-0.039 0.13-0.104zM7.104 13.71c0.001-0.039-0.030-0.075-0.11-0.073-0.072 0.002-0.106 0.028-0.106 0.066 0 0.034 0.037 0.060 0.109 0.060 0.074 0 0.106-0.033 0.107-0.053zM9.48 15.020c0.001 0.050 0.069 0.054 0.069 0.054h1.211c0 0 0.053 0.002 0.052-0.057-0.001-0.060-0.040-0.046-0.060-0.059-0.009-0.005-1.139 0-1.139 0s-0.134-0.018-0.133 0.062zM10.54 15.638v-0.012c0-0.034-0.028-0.061-0.061-0.061l-0.905-0.002c-0.034 0-0.061 0.028-0.061 0.061v0.012c0 0.034 0.029 0.056 0.063 0.056h0.9c0.034 0 0.065-0.020 0.065-0.054zM7.113 14.104c-0.011-0.048-0.041-0.074-0.118-0.078-0.052-0.003-0.107 0.030-0.105 0.075-0.001 0.040 0.055 0.060 0.107 0.063 0.1 0.006 0.116-0.059 0.116-0.059zM8.214 14.099c0 0-0.024-0.073-0.114-0.073-0.052-0-0.121 0.022-0.121 0.073 0 0.039 0.028 0.058 0.123 0.061 0.083 0.003 0.112-0.028 0.112-0.061zM10.456 14.229l0.054 0.047c0.019 0.016 0.039 0.017 0.059 0.001l0.093-0.072c0.004-0.003 0.007-0.007 0.009-0.012 0.008-0.016 0.001-0.036-0.016-0.044-0.004-0.002-0.009-0.003-0.014-0.003h-0.339c-0.009-0-0.018 0.003-0.026 0.009-0.016 0.013-0.020 0.034-0.009 0.047 0.005 0.006 0.013 0.010 0.022 0.010l0.13 0.002c0.014 0 0.027 0.006 0.038 0.015zM8.199 13.7c0 0-0.024-0.071-0.121-0.069-0.079 0.002-0.106 0.042-0.108 0.060 0.001 0.040 0.040 0.077 0.123 0.076 0.059-0.001 0.106-0.022 0.107-0.067zM5.867 14.549c0.008 0.001 0.017 0.002 0.016 0.002h-2.319c-0.031 0-0.046 0.015-0.046 0.046v0.043c0 0.031 0.015 0.046 0.046 0.046l1.765-0.001c0.079 0 0.145 0.066 0.145 0.145l-0.004 1.22c0 0.061-0.050 0.111-0.111 0.112l-1.83 0.004c-0.027 0-0.048 0.037-0.048 0.064 0 0.021 0.009 0.048 0.029 0.055 0.027 0.009 0.066 0.006 0.11 0.007 0.629 0.011 1.374 0 2.003 0.014 0.093 0.002 0.109 0.067 0.11 0.098l0.006 0.382c0 0 0 0 0 0.001 0 0.030-0.024 0.054-0.054 0.055-0 0-0 0-0.001 0-0.932-0.003-1.863-0.002-2.794 0.001-0.383 0.001-0.467-0.096-0.455-0.536 0.002-0.088-0.043-0.139-0.129-0.14l-1.671-0.004c-0.046-0-0.083-0.038-0.083-0.084l-0.001-1.279c0-0.054 0.025-0.111 0.099-0.114 0.012-0 0.036-0.001 0.036-0.001l1.731 0.001c0 0 0.048 0.005 0.045-0.077-0.002-0.071-0.045-0.074-0.057-0.075l-2.355 0.012c-0.027-0-0.049-0.023-0.049-0.049l0.006-0.821c0.001-0.118 0.098-0.274 0.275-0.273 0.74 0.005 2.125 0 2.125 0s0.046 0.004 0.041-0.084c-0.002-0.038-0.045-0.054-0.045-0.054s-1.184 0.005-1.796 0c-0.018 0-0.062-0.014-0.062-0.032v-0.421c0-0.046 0.038-0.084 0.084-0.084h4.787c0.032 0 0.059 0.027 0.059 0.059v0.337c0 0.079-0.015 0.141-0.094 0.141h-1.829c-0.029 0-0.047 0.012-0.053 0.040l0 0.046c-0.005 0.027 0.005 0.051 0.032 0.051 0.748-0.003 1.379-0.002 2.143 0 0.244 0.001 0.254 0.193 0.257 0.254l0.001 0.796c0 0.001 0.012 0.1-0.062 0.097zM3.517 13.91c-0.009 0.015-0.021 0.446-0.003 0.427 0.035-0.037 0.233-0.238 0.255-0.239 0.011-0.001 0.034-0.002 0.034-0.002l1.072 0c0 0 0.019 0 0.029-0 0.035 0 0.090 0.007 0.093-0.065 0.001-0.024 0.006-0.040 0.002-0.076 0.012-0.084-0.065-0.075-0.088-0.075-0.215 0-1.119-0.002-1.345 0.001-0.020 0-0.039 0.011-0.049 0.029zM0.966 13.945l-0.003 0.364c-0.001 0.045 0.013 0.050 0.043 0.016l0.157-0.185c0.013-0.015 0.036-0.044 0.057-0.044 0.351 0.001 0.802-0.002 1.175 0 0.057 0 0.055-0.062 0.056-0.098 0-0.001-0-0.064-0-0.064 0.002-0.028-0.019-0.052-0.046-0.054-0.001-0-0.002-0-0.002-0-0.462-0.012-0.896-0.003-1.356-0.007-0.032-0-0.083 0.021-0.079 0.072zM2.423 15.184c0-0.014-0.011-0.025-0.025-0.025h-1.005c-0.014 0-0.025 0.011-0.025 0.025v0.018c0 0.014 0.011 0.025 0.025 0.025h1.005c0.014 0 0.025-0.011 0.025-0.025v-0.018zM4.587 15.193c0-0.017-0.014-0.032-0.032-0.032l-1.001-0.002c-0.017 0-0.032 0.014-0.032 0.032v0.003c0 0.017 0.014 0.032 0.032 0.032l1.001 0.002c0.017 0 0.032-0.014 0.032-0.032v-0.003zM2.424 15.583c0-0.010-0.008-0.018-0.018-0.018l-1.016-0.004c-0.010-0-0.018 0.008-0.018 0.018l-0 0.035c0 0.010 0.008 0.018 0.018 0.018l1.016 0.004c0.010 0 0.018-0.008 0.018-0.018l0-0.035zM4.586 15.595c0-0.016-0.013-0.029-0.029-0.029l-1.008-0.002c-0.016 0-0.029 0.013-0.029 0.029v0.008c0 0.016 0.013 0.029 0.029 0.029l1.008 0.002c0.016 0 0.029-0.013 0.029-0.029v-0.008zM11.717 13.43c-0.032 0.117-0.080 0.201-0.143 0.253l-0.731-0.009c-0.019-0-0.035-0.016-0.035-0.036v-0.336c0-0.023-0.011-0.034-0.034-0.034l-0.755 0.003c-0.018 0-0.037 0.006-0.039 0.024l-0.008 0.32c-0.004 0.033-0.031 0.057-0.064 0.057l-0.812 0.001c-0.024 0-0.045-0.020-0.045-0.044l-0.003-0.822c0-0.029 0.011-0.086 0.068-0.080h2.535c0 0 0.080 0.007 0.081 0.080l-0.016 0.623zM8.935 17.374l0.357-0.002c0.002 0 0.004-0.002 0.004-0.004l-0.001-0.183c0-0.002 0.002-0.004 0.004-0.004l0.154-0.002c0.002 0 0.004 0.002 0.004 0.004l0.003 0.512c0 0 0 0 0 0 0 0.002-0.002 0.004-0.004 0.004-0 0-0 0-0 0l-0.157-0.002c-0.002 0-0.004-0.002-0.004-0.004l0.002-0.209c0-0 0-0 0-0 0-0.002-0.002-0.004-0.004-0.004-0 0-0 0-0 0l-0.359 0.005c-0.002 0-0.004 0.002-0.004 0.004l0.001 0.211c0 0.002-0.002 0.004-0.004 0.004-0 0-0 0-0 0l-0.156-0.004c-0.002-0-0.004-0.002-0.004-0.004v-0.509c0-0.002 0.002-0.004 0.004-0.004l0.151 0.002c0.002 0 0.004 0.002 0.004 0.004l0.004 0.181c0 0.002 0.002 0.004 0.004 0.004zM8.66 17.581v0c0 0.065-0.053 0.118-0.118 0.119l-0.442 0.002c-0.065 0-0.118-0.053-0.119-0.118l-0.001-0.278v-0c0-0.065 0.053-0.118 0.118-0.118l0.442-0.002c0.065 0 0.118 0.053 0.119 0.118l0.001 0.278zM8.496 17.304c-0-0.005-0.005-0.010-0.010-0.010l-0.34 0.002c-0.005 0-0.010 0.005-0.010 0.010l0.002 0.279c0 0.005 0.005 0.010 0.010 0.010l0.34-0.002c0.005-0 0.010-0.005 0.010-0.010l-0.002-0.279zM4.719 17.517l0.001 0.19c0 0.005-0.003 0.008-0.008 0.008h-0.142c-0.006 0-0.009-0.003-0.009-0.009l-0.001-0.502c0-0.003 0.002-0.005 0.005-0.005l0.15-0.001c0.003-0 0.005 0.002 0.005 0.005l0.002 0.15c0 0.013 0.006 0.016 0.018 0.010 0.1-0.053 0.198-0.105 0.295-0.155 0.010-0.005 0.035-0.013 0.035-0.013s0.154-0.006 0.212-0.004c0.024 0.001 0.024 0.006 0.003 0.015-0.009 0.004-0.025 0.011-0.045 0.022-0.131 0.068-0.261 0.137-0.391 0.207-0.004 0.002-0.004 0.005 0 0.007l0.455 0.265c0.001 0 0.001 0.001 0.001 0.002s-0.001 0.002-0.002 0.002l-0.22 0.001c-0.005 0-0.009-0.001-0.013-0.003l-0.342-0.197c-0.005-0.003-0.008-0.002-0.008 0.004zM6.903 17.313l-0.153 0.386c-0.001 0.002-0.002 0.003-0.004 0.003l-0.233 0.002c-0.002 0-0.003-0.001-0.004-0.003l-0.163-0.4c-0.001-0.002-0.002-0.003-0.004-0.003s-0.004 0.002-0.004 0.004l0.004 0.396c0 0.002-0.002 0.004-0.004 0.004h-0.156c-0.002 0-0.004-0.002-0.004-0.004v-0.504c0-0.002 0.002-0.004 0.004-0.004h0.285c0.002 0 0.003 0.001 0.004 0.003l0.152 0.395c0.001 0.002 0.002 0.003 0.004 0.003s0.003-0.001 0.004-0.003l0.165-0.395c0.001-0.002 0.002-0.003 0.004-0.003h0.269c0.002 0 0.004 0.002 0.004 0.004l0.004 0.503c0 0.002-0.002 0.004-0.004 0.004h-0l-0.158-0.003c-0.002-0-0.004-0.002-0.004-0.004l0.001-0.381c-0-0.002-0.002-0.004-0.004-0.004s-0.003 0.001-0.004 0.003zM7.343 17.522l0.004 0.174c0 0.005-0.002 0.007-0.007 0.007h-0.151c-0.004 0-0.007-0.002-0.007-0.007 0-0.109 0-0.219-0-0.328-0-0.135 0.030-0.175 0.163-0.177 0.201-0.003 0.334-0.003 0.4-0 0.087 0.004 0.13 0.051 0.13 0.141-0 0.122-0.001 0.244-0.002 0.365 0 0.003-0.003 0.006-0.006 0.006h-0.151c-0.004 0-0.006-0.002-0.006-0.006l0.001-0.176c0-0.004-0.002-0.007-0.006-0.007h-0.354c-0.005 0-0.008 0.003-0.008 0.008zM7.711 17.303c0-0.002-0.002-0.003-0.003-0.003h-0.358c-0.002 0-0.003 0.002-0.003 0.003v0.099c0 0.002 0.002 0.003 0.003 0.003h0.358c0.002 0 0.003-0.002 0.003-0.003v-0.099zM5.571 17.219v0.467c0 0.013-0.011 0.024-0.024 0.024h-0.108c-0.013 0-0.024-0.011-0.024-0.024v-0.467c0-0.013 0.011-0.024 0.024-0.024h0.108c0.013 0 0.024 0.011 0.024 0.024zM3.925 17.319v0.061c0 0.007 0.003 0.010 0.010 0.010l0.507-0.001c0.005 0 0.008 0.003 0.008 0.008v0.094c0 0.006-0.003 0.009-0.008 0.009l-0.511 0.002c-0.004 0-0.006 0.002-0.006 0.006l0.001 0.089c0 0.004 0.004 0.008 0.008 0.008l0.511-0.002c0 0 0 0 0 0 0.004 0 0.008 0.004 0.008 0.008 0 0 0 0 0 0l-0.004 0.099c-0 0.004-0.002 0.006-0.006 0.006-0.164 0-0.328 0-0.492 0-0.080-0-0.186-0.016-0.188-0.116-0.002-0.096-0.003-0.192-0.002-0.287 0-0.084 0.084-0.111 0.154-0.111 0.176 0.001 0.352 0 0.528-0.001 0.005-0 0.007 0.002 0.007 0.007v0.093c0 0.004-0.002 0.006-0.006 0.006l-0.513 0.007c-0.004 0-0.006 0.002-0.006 0.006zM1.539 17.322l-0 0.060c0 0.006 0.003 0.010 0.010 0.010h0.506c0.005 0 0.010 0.005 0.010 0.010l0 0.090c0 0.005-0.003 0.008-0.008 0.008l-0.506 0.001c-0.007 0-0.011 0.004-0.011 0.011v0.091c0 0.004 0.002 0.006 0.006 0.006h0.509c0.007 0 0.010 0.003 0.010 0.010v0.089c0 0.004-0.002 0.007-0.006 0.007-0.172 0-0.345 0-0.517 0-0.118-0-0.168-0.027-0.168-0.148-0-0.080 0-0.16 0.002-0.239 0.002-0.103 0.091-0.122 0.173-0.122 0.17 0 0.339-0 0.509-0.001 0.005 0 0.008 0.003 0.008 0.007v0.090c0 0.005-0.002 0.007-0.007 0.007l-0.508 0.002c-0.006 0-0.010 0.003-0.010 0.010zM2.331 17.716h-0.151c-0.003 0-0.006-0.003-0.006-0.006l-0.004-0.502v-0c0-0.003 0.002-0.005 0.005-0.005h0l0.212 0.002c0.002 0 0.003 0.001 0.004 0.002l0.278 0.301c0.001 0.001 0.002 0.002 0.004 0.002 0.003 0 0.005-0.002 0.005-0.005l0.007-0.295c0-0.003 0.003-0.005 0.006-0.005h0.158c0.003 0 0.006 0.003 0.006 0.006l0.004 0.501c0 0.003-0.002 0.006-0.005 0.006h-0.152c-0.002 0-0.003-0.001-0.004-0.002l-0.351-0.369c-0.001-0.001-0.002-0.002-0.004-0.002-0.003 0-0.006 0.003-0.006 0.006l-0.002 0.361c0 0.003-0.002 0.006-0.005 0.006zM3.128 17.325v0.275c0 0.003 0.003 0.006 0.006 0.006h0.347c0.005 0 0.008-0.003 0.008-0.008l0.003-0.091c0-0.004-0.002-0.007-0.006-0.007h-0.172c-0.003 0-0.005-0.002-0.005-0.005l0-0.097c0-0.004 0.002-0.007 0.007-0.007h0.33c0.004 0 0.007 0.002 0.007 0.007l-0 0.311c0 0.004-0.002 0.005-0.005 0.005-0.176 0-0.353 0.001-0.53 0.001-0.103 0-0.154-0.045-0.154-0.149 0-0.075 0-0.149-0-0.224-0.001-0.089 0.042-0.138 0.134-0.139 0.244-0.002 0.427-0.002 0.548-0.001 0.004 0 0.006 0.002 0.006 0.006l0.002 0.096c0 0.005-0.002 0.007-0.007 0.007h-0.507c-0.009 0-0.013 0.004-0.013 0.013zM0.572 17.212c0-0.002 0.001-0.003 0.003-0.003 0 0 0 0 0 0l0.548 0.001c0.079 0 0.145 0.057 0.145 0.126l-0 0.262c-0 0.069-0.066 0.126-0.145 0.125l-0.548-0.001c-0.002 0-0.003-0.001-0.003-0.003l0.001-0.508zM1.103 17.33c-0-0.010-0.008-0.018-0.018-0.018l-0.332 0.002c-0.010 0-0.018 0.008-0.018 0.018l0.001 0.263c0 0.010 0.008 0.018 0.018 0.018l0.332-0.002c0.010-0 0.018-0.008 0.018-0.018l-0.001-0.263zM6.068 17.397v0.069c0 0.010-0.008 0.018-0.018 0.018h-0.351c-0.010 0-0.018-0.008-0.018-0.018v-0.069c0-0.010 0.008-0.018 0.018-0.018h0.351c0.010 0 0.018 0.008 0.018 0.018z"></path>
</svg>
