<!-- Generated by IcoMoon.io -->
<svg version="1.1" xmlns="http://www.w3.org/2000/svg" width="32" height="32" viewBox="0 0 32 32">
<title>watermark-mps</title>
<path fill="#444" d="M28.578 9.522c0.55 0 1.076 0.029 1.577 0.088s1.073 0.162 1.716 0.311v2.69h-1.271c-0.117-0.488-0.267-0.876-0.45-1.164s-0.41-0.499-0.682-0.635c-0.272-0.136-0.615-0.204-1.029-0.204-0.352 0-0.668 0.062-0.946 0.186s-0.498 0.308-0.659 0.552c-0.161 0.244-0.241 0.539-0.241 0.886 0 0.359 0.070 0.669 0.209 0.932s0.373 0.519 0.7 0.77c0.328 0.25 0.804 0.536 1.428 0.858 0.761 0.396 1.359 0.784 1.795 1.164s0.757 0.795 0.965 1.243c0.207 0.448 0.311 0.969 0.311 1.563 0 0.761-0.176 1.421-0.529 1.98s-0.866 0.989-1.54 1.289c-0.674 0.3-1.453 0.45-2.337 0.45-0.631 0-1.288-0.036-1.971-0.107s-1.325-0.175-1.924-0.311v-2.857h1.271c0.155 0.736 0.413 1.285 0.774 1.646s0.892 0.543 1.591 0.543c0.365 0 0.693-0.062 0.983-0.186s0.524-0.323 0.7-0.598c0.176-0.275 0.264-0.62 0.264-1.034 0-0.383-0.071-0.716-0.213-0.997s-0.371-0.549-0.686-0.802c-0.315-0.254-0.754-0.522-1.317-0.807-0.482-0.241-0.918-0.492-1.308-0.751s-0.722-0.546-0.997-0.858c-0.263-0.287-0.457-0.627-0.619-0.979-0.063 0.306-0.216 0.583-0.366 0.853-0.365 0.606-0.893 1.065-1.586 1.377s-1.558 0.468-2.597 0.468c-0.6 0-1.091-0.012-1.475-0.037v2.968c0 0.408 0.015 0.697 0.046 0.867s0.082 0.306 0.153 0.408c0.071 0.102 0.173 0.187 0.306 0.255s0.339 0.127 0.617 0.176v0.612h-9.688v-0.612c0.272-0.074 0.461-0.139 0.566-0.195s0.187-0.128 0.246-0.218c0.059-0.090 0.102-0.226 0.13-0.408s0.042-0.484 0.042-0.904v-4.545c0-0.501 0.009-1.091 0.028-1.771s0.037-1.162 0.056-1.447h-0.195c-0.074 0.247-0.153 0.49-0.237 0.728s-0.24 0.663-0.468 1.275l-2.486 6.696h-1.632l-2.615-7.522c-0.155-0.427-0.291-0.85-0.408-1.271h-0.167c0.062 1.020 0.093 2.226 0.093 3.617v4.266c0 0.457 0.022 0.776 0.065 0.955s0.13 0.328 0.26 0.445c0.13 0.118 0.356 0.216 0.677 0.297v0.612h-3.506v-0.612c0.229-0.062 0.41-0.13 0.543-0.204s0.233-0.173 0.301-0.297c0.068-0.124 0.11-0.281 0.125-0.473s0.023-0.436 0.023-0.733v-8.023c0-0.47-0.020-0.791-0.060-0.965s-0.119-0.315-0.237-0.427c-0.117-0.111-0.349-0.216-0.696-0.315v-0.612h4.61l2.569 7.615 2.782-7.615h9.679c1.564 0 2.736 0.28 3.515 0.839 0.432 0.321 0.798 0.76 0.96 1.28 0.247-0.513 0.123-0.303 0.344-0.645 0.377-0.532 0.923-0.935 1.637-1.21s1.541-0.413 2.481-0.413zM14.283 10.291c-0.229 0.060-0.449 0.151-0.639 0.293-0.118 0.108-0.199 0.254-0.246 0.436s-0.070 0.505-0.070 0.969v8.023c0 0.377 0.019 0.676 0.056 0.895s0.113 0.386 0.227 0.501c0.186 0.165 0.435 0.237 0.67 0.302 0.178-0.045 0.349-0.111 0.513-0.191 0.133-0.071 0.232-0.17 0.297-0.297s0.107-0.287 0.125-0.482c0.019-0.195 0.028-0.441 0.028-0.737v-7.995c0-0.291-0.008-0.535-0.023-0.733s-0.056-0.359-0.121-0.482c-0.065-0.124-0.164-0.224-0.297-0.301-0.162-0.094-0.342-0.149-0.521-0.2zM19.121 10.755c-0.433 0-0.767 0.006-1.002 0.019v5.222h0.798c0.618 0 1.11-0.088 1.475-0.264s0.635-0.456 0.812-0.839 0.264-0.9 0.264-1.549c0-0.643-0.088-1.155-0.264-1.535s-0.434-0.651-0.774-0.812c-0.34-0.161-0.776-0.241-1.308-0.241z"></path>
</svg>
