<!-- Generated by IcoMoon.io -->
<svg version="1.1" xmlns="http://www.w3.org/2000/svg" width="18" height="32" viewBox="0 0 18 32">
<title>watermark-riveteers</title>
<path fill="#444" d="M5.069 27.455c0.663-0.579 1.248-1.21 1.757-1.892l2.027 1.419 2.027-1.419c0.509 0.682 1.094 1.313 1.757 1.892l-3.785 2.568-3.785-2.568zM6.691 25.022c0.524-1.061 0.862-2.524 1.014-4.393h2.298c0.151 1.869 0.49 3.332 1.014 4.393l-2.163 1.284-2.163-1.284zM6.488 8.87l-5.609 3.176v9.191l5.204 3.041c0.515-1.006 0.755-2.229 0.743-3.649h-1.892c0.025-0.423 0.155-0.678 0.405-0.743v-0.946c1.651 0.456 2.799 0.28 2.838-0.946 0.078-2.423-4.393-0.718-5.88-3.717h4.655c0.069-1.91-0.064-3.723-0.465-5.407zM11.219 8.87l5.609 3.176v9.191l-5.204 3.041c-0.515-1.006-0.755-2.229-0.743-3.649h2.838c-0.025-0.423-0.155-0.678-0.405-0.743v-0.405c-2.547-1.426-2.516-3.138 1.284-5.271h1.081v-0.541h-4.94c-0.066-0.982 0.065-3.441 0.48-4.798zM7.84 13.601c-0.028-2.25-0.197-4.461-0.887-6.529l1.234-1.234 0.667 0.667 0.667-0.667 1.234 1.234c-0.69 2.068-0.859 4.279-0.887 6.529h-2.027zM6.826 2.517h-4.866c-0.275-0.004-0.44-0.173-0.473-0.541h-1.487v5.542h1.487c0.065-0.318 0.234-0.532 0.541-0.608h3.92c-0.145-0.505-0.481-0.778-1.014-0.811h-2.906c-0.101-0.006-0.179-0.044-0.183-0.183v-2.385c0.004-0.096 0.053-0.142 0.141-0.141h3.894c0.481-0.027 0.86-0.217 0.946-0.872zM10.881 2.517h4.866c0.275-0.004 0.44-0.173 0.473-0.541h1.487v5.542h-1.487c-0.065-0.318-0.234-0.532-0.541-0.608h-3.92c0.145-0.505 0.481-0.778 1.014-0.811h2.906c0.101-0.006 0.179-0.044 0.183-0.183v-2.385c-0.004-0.096-0.053-0.142-0.141-0.141h-3.894c-0.481-0.027-0.86-0.217-0.946-0.872zM7.288 4.899l0.605 0.605-1.406 1.406c-0.219-0.479-0.625-0.904-1.419-1.216h-2.771v-1.892h3.514c0.981-0.071 1.504-0.649 1.487-1.825h3.109c-0.017 1.176 0.506 1.754 1.487 1.825h3.514v1.892h-2.771c-0.794 0.313-1.2 0.738-1.419 1.216l-1.406-1.406 0.605-0.605-1.565-1.571-1.565 1.571z"></path>
</svg>
