<!-- Generated by IcoMoon.io -->
<svg version="1.1" xmlns="http://www.w3.org/2000/svg" width="32" height="32" viewBox="0 0 32 32">
<title>watermark-fnm</title>
<path fill="#444" d="M13.355 22.675c0.144-0.083 0.291-0.082 0.441 0.001 0.015 0.009 0.025 0.025 0.025 0.042 0 0.013-0.005 0.025-0.014 0.034l-0.022 0.022c-0.020 0.020-0.028 0.043-0.024 0.070l0.020 0.15c0.005 0.034-0.009 0.056-0.042 0.067-0.202 0.068-0.409 0.095-0.62 0.082-0.036-0.002-0.050-0.021-0.043-0.055l0.047-0.232c0.002-0.008 0.001-0.017-0.002-0.025-0.032-0.073-0.027-0.142 0.017-0.206 0.015-0.023 0.036-0.037 0.062-0.042 0.085-0.019 0.137 0.012 0.155 0.093-0.038 0.013-0.066 0.032-0.086 0.056-0.013 0.016-0.012 0.032 0.003 0.046l0.029 0.029c0.003 0.003 0.008 0.005 0.013 0.005 0.008 0 0.016-0.006 0.017-0.015l0.025-0.122zM13.426 22.903c-0.023 0.017-0.018 0.038 0.014 0.062 0.014 0.010 0.033 0.008 0.043-0.005l0.054-0.063c0.025-0.028 0.020-0.050-0.014-0.066l-0.042-0.020c-0.029-0.013-0.045-0.004-0.049 0.029-0.002 0.023-0.004 0.044-0.006 0.063zM31.703 10.111c0.005 0.008 0.010 0.016 0.015 0.024 0.005 0.007 0.007 0.015 0.008 0.025 0.035 0.385 0.070 0.728 0.041 1.137-0.020 0.284 0.038 0.548 0.009 0.839-0.058 0.593 0.047 1.285-0.009 1.926-0.023 0.26-0.040 0.521-0.049 0.783-0.003 0.069 0.037 0.132-0.029 0.203-0.017 0.018-0.019 0.037-0.005 0.058 0.088 0.136 0.087 0.479 0.147 0.526 0.020 0.015 0.030 0.036 0.032 0.061 0.096 1.516 0.105 3.033 0.028 4.549-0.007 0.126-0.109 0.261-0.031 0.443 0.245 0.566-0.331 0.419-0.618 0.389-0.002-0-0.003-0-0.005-0-0.022 0-0.041 0.018-0.042 0.040-0.007 0.12-0.056 0.217-0.147 0.293-0.018 0.016-0.042 0.023-0.066 0.019-0.124-0.016-0.24 0.006-0.348 0.068-0.024 0.013-0.047 0.013-0.070-0.001l-0.026-0.015c-0.013-0.008-0.027-0.012-0.042-0.012-0.316-0.002-0.632-0.007-0.948-0.016-0.104-0.002-0.225 0.069-0.358-0.001-0.022-0.012-0.047-0.017-0.072-0.015-0.533 0.039-0.887 0.047-1.061 0.026-0.182-0.022-0.307 0.043-0.444 0.039-0.26-0.008-0.486-0.118-0.739-0.086-0.189 0.024-0.378 0.033-0.568 0.026-0.026-0.001-0.050 0.004-0.073 0.014-0.093 0.041-0.185 0.037-0.277-0.012-0.007-0.004-0.015-0.006-0.023-0.006l-0.572-0.018c-0.025-0.001-0.048 0.003-0.071 0.012-0.136 0.051-0.286-0.010-0.398-0.011-0.488-0.004-0.974 0.011-1.459 0.044-0.145 0.010-0.326-0.025-0.541-0.103-0.026-0.010-0.051-0.009-0.076 0.003-0.098 0.047-0.194 0.046-0.291-0.002-0.026-0.013-0.052-0.015-0.079-0.005-0.039 0.013-0.078 0.013-0.116-0.001-0.026-0.009-0.052-0.008-0.078 0.002l-0.235 0.098c-0.029 0.012-0.057 0.010-0.084-0.008-0.060-0.041-0.107-0.032-0.14 0.025-0.014 0.025-0.035 0.040-0.063 0.046-0.162 0.036-0.348 0.054-0.557 0.054-0.513 0.002-1.128 0.018-1.847 0.049-0.433 0.018-0.869-0.015-1.306-0.027-0.274-0.008-0.532 0.065-0.845-0.082-0.022-0.010-0.043-0.011-0.066-0.002-0.032 0.012-0.065 0.016-0.097 0.012-0.031-0.004-0.060 0.001-0.088 0.015-0.146 0.074-0.29 0.071-0.429-0.009-0.024-0.014-0.050-0.021-0.078-0.021-1.108-0.002-2.216-0.001-3.324 0.003-0.073 0-0.137-0.031-0.197-0.068-0.021-0.013-0.044-0.020-0.069-0.019l-0.662 0.005c-0.030 0.001-0.058 0.009-0.082 0.026-0.1 0.069-0.209 0.083-0.327 0.042-0.026-0.009-0.045-0.002-0.058 0.023-0.025 0.047-0.058 0.073-0.099 0.077-0.207 0.020-0.613 0.035-1.218 0.048-0.955 0.019-1.91 0.025-2.864 0.018-0.292-0.002-0.457-0.166-0.77-0.050-0.122 0.045-0.239 0.051-0.349 0.017-0.024-0.007-0.047-0.007-0.071 0.002-0.301 0.102-0.96 0.024-1.296 0.007-0.027-0.002-0.051 0.006-0.072 0.022-0.047 0.036-0.094 0.039-0.141 0.009-0.023-0.015-0.048-0.022-0.075-0.022-0.559 0.007-1.117 0.014-1.675 0.022-0.222 0.004-0.41-0.077-0.594-0.082-0.18-0.006-0.361-0.012-0.543-0.020-0.027-0.002-0.052 0.005-0.075 0.018-0.165 0.095-0.315 0.076-0.449-0.055-0.020-0.020-0.043-0.028-0.070-0.025-0.061 0.007-0.109-0.016-0.146-0.069-0.014-0.020-0.033-0.028-0.057-0.026l-0.802 0.066c-0.022 0.002-0.042-0.011-0.050-0.032-0.089-0.234-0.063-0.503-0.083-0.693-0.028-0.272-0.021-0.543 0.019-0.813 0.061-0.405 0.053-0.706 0.052-1.079-0.001-0.197-0.125-0.312-0.036-0.539 0.008-0.020 0.011-0.042 0.008-0.065-0.096-0.679-0.203-1.536-0.082-2.179 0.005-0.029 0.022-0.054 0.046-0.070 0.048-0.032 0.055-0.075 0.021-0.129-0.009-0.014-0.013-0.030-0.014-0.046-0.005-0.3-0.003-0.598 0.006-0.896 0.004-0.104-0.063-0.217-0.051-0.292 0.034-0.207 0.047-0.414 0.039-0.622-0.010-0.267 0.034-0.47 0.086-0.715 0.029-0.133-0.004-0.208-0.035-0.336-0.006-0.024-0.017-0.046-0.033-0.066-0.113-0.133-0.028-0.577-0.017-0.866 0.010-0.275-0.13-0.496-0.125-0.768 0.005-0.233 0.013-0.467 0.025-0.701 0.002-0.026-0.003-0.050-0.015-0.073-0.116-0.243 0.022-1.163 0.096-1.442 0.031-0.115 0.008-0.148-0.018-0.257-0.006-0.025-0.016-0.048-0.030-0.069-0.152-0.22-0.067-0.598-0.042-0.865 0.020-0.203-0.074-0.376-0.073-0.592 0.001-0.228-0.185-1.138 0.409-0.837 0.023 0.012 0.044 0.010 0.064-0.005 0.186-0.139 0.397-0.185 0.634-0.138 0.022 0.004 0.043-0.002 0.060-0.015 0.365-0.302 0.835-0.111 1.269-0.178 0.281-0.043 0.58 0.004 0.876 0.008 0.362 0.005 0.597 0.214 0.941-0.001 0.023-0.014 0.048-0.023 0.075-0.025 0.27-0.023 0.537-0.002 0.8 0.061 0.026 0.006 0.050 0.003 0.073-0.009 0.171-0.090 0.353-0.122 0.546-0.096 0.023 0.003 0.045-0.001 0.066-0.011 0.118-0.058 0.242-0.022 0.341-0.031 0.549-0.052 1.022-0.082 1.615-0.028 0.38 0.035 0.979 0.106 1.336-0.025 0.025-0.009 0.050-0.011 0.076-0.007 0.171 0.030 0.341 0.031 0.511 0.002 0.517-0.086 1.157-0.122 1.706-0.044 0.022 0.003 0.042 0.013 0.058 0.029l0.033 0.033c0.016 0.016 0.035 0.022 0.058 0.019 0.28-0.038 0.56-0.046 0.84-0.025 0.178 0.013 0.376-0.061 0.52-0.042 0.315 0.042 0.63-0.005 0.935 0.074 0.117 0.030 0.237 0.053 0.358 0.067 0.024 0.003 0.049-0.001 0.071-0.012 0.473-0.234 0.846-0.046 1.348-0.116 0.527-0.073 1.035-0.045 1.572-0.059 0.549-0.014 1.084 0.115 1.651 0.090 0.167-0.007 0.358-0.113 0.572-0.040 0.024 0.008 0.049 0.009 0.073 0.004 0.193-0.044 0.386-0.070 0.58-0.079 0.429-0.021 1.222-0.145 1.553 0.068 0.021 0.013 0.041 0.014 0.062 0.002 0.257-0.141 0.832 0.035 1.013-0.011 0.236-0.059 0.472-0.059 0.71-0.001 0.038 0.009 0.083 0 0.136-0.028 0.025-0.013 0.051-0.016 0.078-0.011l0.618 0.138c0.026 0.006 0.051 0.004 0.075-0.005 0.089-0.035 0.178-0.068 0.267-0.1 0.242-0.086 0.57-0.022 0.814 0.028 0.027 0.006 0.053 0.004 0.079-0.005 0.17-0.055 0.344-0.087 0.523-0.095 0.030-0.002 0.057 0.006 0.082 0.022 0.040 0.025 0.070 0.013 0.089-0.038 0.011-0.027 0.031-0.040 0.059-0.039 0.225 0.005 0.445 0.040 0.658 0.104 0.024 0.007 0.047 0.006 0.069-0.002 0.037-0.014 0.074-0.017 0.112-0.010 0.327 0.062 0.643 0.027 0.963 0.097 0.2 0.043 0.322 0.083 0.534 0.017 0.312-0.098 0.63-0.103 0.954-0.014 0.025 0.007 0.050 0.005 0.074-0.004 0.133-0.052 0.268-0.083 0.407-0.093 0.321-0.022 0.628-0.092 0.964 0.035 0.231 0.088 0.557-0.045 0.708 0.192 0.055 0.085 0.036 0.182 0.073 0.28 0.015 0.042 0.023 0.080 0.022 0.113-0.017 0.858-0.022 1.715-0.016 2.573 0.002 0.337 0.086 0.632-0.078 0.994-0.010 0.022-0.008 0.047 0.005 0.067zM11.286 7.165c-0.010-0.007-0.021-0.011-0.032-0.012-0.017-0.003-0.030-0.012-0.038-0.028-0.005-0.010-0.006-0.023-0.002-0.039 0.027-0.123 0.073-0.244 0.14-0.363 0.018-0.033 0.038-0.033 0.057-0.001 0.059 0.098 0.046 0.192-0.036 0.281-0.014 0.014-0.017 0.036-0.008 0.054l0.055 0.119c0.002 0.005 0.004 0.010 0.004 0.016 0 0.019-0.016 0.035-0.035 0.035-0.007 0-0.014-0.002-0.020-0.006l-0.084-0.056zM16.97 6.994c0.030-0.070 0.013-0.131-0.050-0.183-0.006-0.005-0.015-0.008-0.023-0.008-0.020 0-0.036 0.016-0.036 0.036v0.133c0 0.031 0.026 0.057 0.057 0.057 0.023 0 0.043-0.014 0.052-0.035zM9.029 6.976l-0.205-0.042c-0.028-0.005-0.048 0.004-0.062 0.029-0.044 0.077-0.050 0.156-0.018 0.236 0.001 0.002 0.001 0.003 0.002 0.005 0.010 0.018 0.033 0.024 0.051 0.014 0.002-0.001 0.003-0.002 0.005-0.003l0.239-0.187c0.007-0.006 0.011-0.014 0.011-0.023 0-0.014-0.010-0.026-0.023-0.029zM22.215 7.024c0.073 0.042 0.112 0.062 0.118 0.062 0.042 0 0.076-0.034 0.076-0.076 0-0.038-0.028-0.070-0.066-0.076-0.046-0.008-0.090 0.003-0.131 0.032-0.002 0.001-0.004 0.003-0.006 0.005-0.013 0.014-0.012 0.036 0.002 0.048 0.002 0.002 0.004 0.003 0.006 0.004zM12.22 7.137c0.005 0.001 0.011 0.002 0.016 0.002 0.036 0 0.066-0.030 0.066-0.066 0-0.020-0.009-0.039-0.025-0.051l-0.030-0.025c-0.018-0.015-0.038-0.016-0.057-0.002-0.096 0.066-0.086 0.114 0.030 0.142zM17.848 6.293c-0.006 0.004-0.012 0.006-0.019 0.006-0.019 0-0.035-0.016-0.035-0.035 0-0.010 0.004-0.019 0.012-0.026 0.088-0.091 0.184-0.097 0.29-0.017 0.010 0.006 0.016 0.017 0.016 0.028 0 0.018-0.015 0.033-0.033 0.033-0.005 0-0.011-0.001-0.015-0.004-0.076-0.030-0.147-0.025-0.215 0.014zM29.723 6.258c0.022-0.027 0.016-0.043-0.019-0.048l-0.433-0.055c-0.003-0-0.006-0.001-0.009-0.001-0.037 0-0.068 0.031-0.068 0.068 0 0.027 0.016 0.052 0.041 0.062l0.294 0.133c0.032 0.015 0.060 0.008 0.082-0.019l0.113-0.141zM15.063 6.324c0.065 0.010 0.099 0.024 0.102 0.042 0.004 0.029 0.017 0.057 0.036 0.080 0.051 0.063 0.137 0.080 0.189 0.037 0.020-0.016 0.033-0.039 0.038-0.066 0.010-0.052 0.041-0.092 0.092-0.119s0.049-0.044-0.009-0.051l-0.476-0.052c-0.029-0.004-0.048 0.009-0.056 0.038l-0.008 0.033c-0.007 0.029 0.004 0.045 0.033 0.049 0.022 0.004 0.041 0.007 0.059 0.009zM7.953 6.321c0.012 0.016 0.028 0.016 0.049 0.002 0.009-0.006 0.014-0.017 0.014-0.027s-0.006-0.022-0.015-0.028c-0.082-0.054-0.171-0.053-0.267 0.005-0.024 0.014-0.033 0.030-0.029 0.047 0.007 0.024 0.022 0.031 0.045 0.021 0.063-0.029 0.13-0.035 0.201-0.019zM4.756 6.442l0.326 0.166c0.038 0.019 0.070 0.012 0.095-0.022l0.106-0.146c0.024-0.033 0.015-0.049-0.025-0.048-0.143 0.003-0.394-0.086-0.506 0.019-0.001 0.001-0.002 0.002-0.002 0.002-0.006 0.008-0.005 0.020 0.003 0.027 0.001 0.001 0.002 0.001 0.003 0.002zM21.33 7.046c0.017 0.063 0.076 0.092 0.174 0.089 0.013-0.001 0.023-0.012 0.023-0.025 0-0.008-0.003-0.015-0.009-0.019-0.075-0.056-0.074-0.117 0.002-0.184 0.015-0.013 0.023-0.031 0.023-0.051v-0.192c-0.001-0.027-0.023-0.048-0.049-0.048-0.021 0-0.041 0.014-0.047 0.034-0.025 0.083-0.054 0.165-0.088 0.244-0.028 0.066-0.038 0.117-0.029 0.152zM1.935 7.295c0.070 0.037 0.117 0.037 0.139 0 0.012-0.022 0.019-0.049 0.018-0.077-0.003-0.066-0.045-0.119-0.095-0.117-0.021 0.001-0.041 0.011-0.056 0.029-0.038 0.047-0.046 0.094-0.027 0.141 0.004 0.010 0.012 0.018 0.022 0.023zM6.724 6.891l0.082 0.16c0.006 0.012 0.019 0.020 0.033 0.020 0.018 0 0.034-0.013 0.037-0.031 0.014-0.096-0.019-0.163-0.099-0.201-0.005-0.003-0.011-0.004-0.017-0.004-0.022 0-0.039 0.018-0.039 0.039 0 0.006 0.001 0.012 0.004 0.018zM18.862 6.918c-0.083 0.082-0.078 0.162 0.016 0.239 0.019 0.016 0.035 0.013 0.049-0.008 0.047-0.080 0.116-0.132 0.207-0.158 0.012-0.004 0.021-0.015 0.021-0.028s-0.009-0.025-0.021-0.028l-0.178-0.042c-0.036-0.009-0.067 0-0.093 0.026zM30.752 7.642c0.136-0.058 0.105-0.284-0.062-0.298-0.030-0.003-0.041 0.011-0.033 0.040 0.028 0.097 0.005 0.178-0.069 0.245-0.023 0.021-0.028 0.044-0.015 0.072l0.061 0.131c0.027 0.059 0.046 0.056 0.058-0.007l0.027-0.141c0.004-0.020 0.015-0.034 0.033-0.042zM0.553 12.296c0.004-0.054 0.025-0.099 0.063-0.134 0.021-0.020 0.033-0.043 0.039-0.071 0.024-0.132-0.026-0.219-0.152-0.263-0.027-0.009-0.035-0.001-0.025 0.026 0.079 0.22-0.119 0.361-0.015 0.518 0.001 0.001 0.002 0.003 0.003 0.004 0.014 0.016 0.038 0.017 0.054 0.003 0.001-0.001 0.002-0.002 0.003-0.003 0.017-0.019 0.028-0.046 0.031-0.080zM31.52 15.019l0.024-0.094c0.002-0.006 0.002-0.012 0.002-0.018 0-0.035-0.029-0.064-0.064-0.064-0.024 0-0.046 0.014-0.057 0.035-0.036 0.066-0.027 0.12 0.027 0.163 0.008 0.006 0.017 0.009 0.027 0.009 0.019 0 0.036-0.013 0.041-0.032zM25.23 6.284c0.122 0.179 0.296 0.127 0.372-0.058 0.010-0.026 0.002-0.039-0.026-0.039-0.091-0.002-0.208-0.016-0.351-0.045-0.091-0.019-0.148 0.006-0.17 0.075-0.011 0.035 0.001 0.050 0.037 0.045l0.068-0.009c0.030-0.004 0.053 0.006 0.071 0.032zM15.358 20.312c-0.105-0.055-0.2-0.042-0.284 0.039-0.031 0.030-0.025 0.049 0.017 0.057l0.092 0.018c0.029 0.006 0.056 0.017 0.080 0.034l0.143 0.103c0.030 0.021 0.071 0.014 0.093-0.015l0.121-0.158c0.033-0.044 0.023-0.066-0.032-0.066h-0.177c-0.018 0-0.036-0.005-0.052-0.013zM0.464 8.168c-0.002-0.075 0.022-0.136 0.072-0.183 0.021-0.019 0.034-0.043 0.042-0.071 0.036-0.145-0.017-0.245-0.158-0.3-0.035-0.013-0.047-0.002-0.035 0.033 0.026 0.078 0.029 0.159 0.010 0.244-0.002 0.008-0.005 0.016-0.010 0.024-0.058 0.1-0.046 0.191 0.035 0.273 0.002 0.003 0.005 0.005 0.009 0.006 0.013 0.005 0.028-0.002 0.033-0.015 0.001-0.003 0.002-0.007 0.002-0.010zM30.813 11.879l0.1-0.157c0.014-0.023 0.013-0.045-0.004-0.066l-0.143-0.173c-0.005-0.006-0.013-0.010-0.022-0.010-0.015 0-0.028 0.013-0.028 0.028 0 0.002 0 0.004 0.001 0.006 0.027 0.117 0.013 0.231-0.041 0.343-0.015 0.031-0.016 0.063-0.004 0.096l0.051 0.133c0.004 0.012 0.016 0.021 0.029 0.021 0.016 0 0.030-0.013 0.030-0.029l0.011-0.129c0.002-0.022 0.008-0.042 0.020-0.061zM7.272 7.554c-0.179-0.010-0.375-0.152-0.56-0.056-0.225 0.117-0.383-0.025-0.54 0.055-0.024 0.012-0.049 0.017-0.075 0.015-0.335-0.028-0.67-0.035-1.005-0.021-0.094 0.004-0.161-0.042-0.269 0.029-0.022 0.014-0.045 0.018-0.069 0.010-0.234-0.072-0.495-0.032-0.671-0.037-0.486-0.014-0.941 0.041-1.425-0.010-0.026-0.003-0.051-0.011-0.073-0.025-0.099-0.059-0.198-0.016-0.283-0.020-0.153-0.006-0.307-0.015-0.461-0.028-0.026-0.002-0.050 0.005-0.070 0.022-0.056 0.044-0.121 0.070-0.194 0.078-0.026 0.003-0.039 0.018-0.039 0.044-0.003 0.581-0.002 1.161 0.002 1.741 0.003 0.367 0.079 0.687-0.072 1.087-0.010 0.026-0.005 0.049 0.015 0.069l0.020 0.020c0.021 0.020 0.031 0.045 0.031 0.074l-0.010 1.621c0 0.027 0.005 0.053 0.015 0.078 0.015 0.038 0.020 0.076 0.013 0.116-0.074 0.441-0.028 0.963-0.028 1.414 0 0.097 0.062 0.178 0.053 0.276-0.030 0.302-0.106 0.59-0.094 0.895 0.005 0.128 0.005 0.256 0.002 0.385-0.004 0.143 0.071 0.273 0.054 0.43-0.003 0.025 0.001 0.048 0.010 0.071 0.119 0.288 0.102 0.521 0.11 0.821 0.020 0.661 0.004 1.323 0.051 1.982 0.022 0.314-0.031 0.661-0.021 0.941 0.006 0.158 0.009 0.317 0.008 0.477-0 0.025 0.017 0.046 0.042 0.051 0.275 0.053 0.551 0.064 0.827 0.032 0.245-0.029 0.45 0.003 0.687-0.002 0.314-0.007 0.817 0.189 1.061 0.060 0.231-0.123 0.583-0.073 0.833-0.035 0.187 0.029 0.311-0.049 0.457-0.065 0.596-0.066 1.503-0.181 2.232-0.083 0.364 0.049 0.73 0.066 1.098 0.049 0.124-0.006 0.254-0.072 0.387-0.064 0.149 0.009 0.243 0.010 0.284 0.005 0.367-0.050 1.677-0.23 2.033-0.006 0.022 0.013 0.045 0.020 0.070 0.018 0.261-0.012 0.522-0.016 0.782-0.012 0.075 0.001 0.241-0.008 0.5-0.029 0.454-0.035 0.928 0.069 1.38 0.112 0.025 0.002 0.050-0.002 0.072-0.013 0.441-0.213 0.851 0 1.32-0.108 0.54-0.123 1.020-0.024 1.63-0.046 0.496-0.018 0.986 0.109 1.502 0.088 0.173-0.007 0.359-0.076 0.552-0.076 0.647-0.001 1.541-0.212 2.185-0.039 0.115 0.031 0.212 0.045 0.292 0.041 0.263-0.012 0.789 0.096 1.002-0.014 0.021-0.011 0.045-0.016 0.069-0.015 0.234 0.012 0.467 0.020 0.701 0.024 0.284 0.005 0.561 0.12 0.881 0.083 0.026-0.003 0.049-0.014 0.067-0.033 0.125-0.129 0.644-0.061 0.824-0.045 0.247 0.020 0.473-0.072 0.735-0.045 0.025 0.003 0.049-0.002 0.072-0.013 0.105-0.051 0.211-0.064 0.318-0.039 0.343 0.079 0.671 0.109 0.982 0.093 0.025-0.001 0.048 0.004 0.070 0.015 0.056 0.028 0.113 0.028 0.17 0 0.023-0.012 0.047-0.015 0.072-0.009l0.617 0.13c0.027 0.006 0.054 0.003 0.080-0.007 0.304-0.12 0.616-0.152 0.934-0.096 0.284 0.050 0.58-0.057 0.872-0.063 0.027-0.001 0.042-0.014 0.045-0.041 0.058-0.483 0.076-0.967 0.052-1.454-0.005-0.109-0.055-0.241-0.042-0.366 0.015-0.129 0.020-0.217 0.014-0.264-0.085-0.682-0.11-1.369-0.077-2.060 0.002-0.029 0.015-0.051 0.040-0.066 0.064-0.038 0.073-0.089 0.029-0.153-0.016-0.022-0.023-0.047-0.022-0.074l0.033-0.906c0.001-0.023-0.004-0.045-0.015-0.066-0.025-0.052-0.038-0.106-0.039-0.163-0.006-0.478 0.035-0.95 0.124-1.415 0.043-0.223-0.135-0.373-0.122-0.609 0.018-0.331 0.062-0.633-0.019-0.971-0.088-0.364-0.053-0.816-0.066-1.071-0.012-0.26-0.017-0.521-0.013-0.782 0.004-0.323 0.119-0.682 0.095-1.055-0.002-0.025-0.012-0.049-0.029-0.067-0.168-0.187-0.055-0.698-0.032-0.939 0.003-0.026-0.009-0.040-0.035-0.041-0.816-0.023-1.331-0.030-1.544-0.021-0.57 0.023-1.144 0.055-1.71-0.031-0.321-0.049-0.666 0.037-0.949 0.025-0.891-0.036-1.781-0.033-2.671 0.008-0.183 0.009-0.358-0.041-0.547-0.047-0.021-0.001-0.044-0.014-0.069-0.039-0.018-0.018-0.039-0.025-0.064-0.020-0.325 0.060-0.582-0.103-0.862 0.1-0.020 0.014-0.047 0.016-0.069 0.003-0.057-0.033-0.1-0.025-0.13 0.024-0.015 0.025-0.041 0.042-0.070 0.045-0.127 0.015-0.317 0.025-0.571 0.029-1.37 0.024-2.452 0.002-3.366 0.050-0.2 0.011-0.398-0.016-0.592-0.081-0.269-0.090-0.417 0.167-0.68 0.019-0.021-0.012-0.043-0.019-0.067-0.021-0.478-0.047-0.958-0.048-1.438-0.002-0.104 0.010-0.207 0.006-0.31-0.012-0.464-0.082-1.183 0.095-1.745-0.045-0.275-0.069-0.523-0.013-0.799-0.045-0.024-0.003-0.046 0.003-0.065 0.019-0.106 0.087-0.218 0.104-0.334 0.051-0.023-0.010-0.039-0.004-0.049 0.019l-0.017 0.035c-0.013 0.028-0.034 0.043-0.065 0.045-0.879 0.082-1.771 0.056-2.654 0.089-0.109 0.004-0.221 0.002-0.335-0.004-0.398-0.022-0.848 0.001-1.27-0.022zM25.887 11.941l-0.303-0.005c-0.028-0.001-0.047 0.013-0.056 0.039l-0.183 0.511c-0.004 0.009-0.004 0.019-0.002 0.028 0.090 0.435 0.053 0.59-0.177 0.959-0.013 0.021-0.020 0.046-0.019 0.070 0.005 0.326-0.072 0.63-0.229 0.914-0.013 0.024-0.020 0.052-0.019 0.080 0.012 0.427 0.046 0.758-0.077 1.010-0.126 0.259-0.096 0.477-0.299 0.72-0.016 0.020-0.023 0.042-0.018 0.067 0.045 0.291-0.015 0.557-0.181 0.796-0.016 0.023-0.024 0.048-0.024 0.076-0.002 0.314-0.076 0.657-0.459 0.688-0.541 0.043-1.479 0.22-1.528-0.506-0.001-0.022-0.010-0.043-0.025-0.059-0.1-0.114-0.145-0.244-0.135-0.392 0.002-0.029-0.007-0.055-0.026-0.078-0.172-0.202-0.272-0.432-0.3-0.69-0.032-0.289-0.199-0.527-0.208-0.796-0.010-0.262-0.039-0.454-0.086-0.577-0.139-0.351-0.303-0.698-0.354-1.074-0.058-0.424-0.062-0.815-0.421-1.074-0.021-0.015-0.049-0.017-0.072-0.004l-0.167 0.096c-0.023 0.013-0.035 0.038-0.033 0.064 0.078 0.846-0.020 1.627-0.038 2.432-0.004 0.176 0.014 0.535 0.052 1.077 0.026 0.377 0.143 1.467-0.17 1.747-0.019 0.018-0.045 0.027-0.071 0.027-0.405-0.002-0.805 0.023-1.2 0.076-0.496 0.067-0.529-0.427-0.529-0.831-0.001-0.683-0.049-1.39-0.015-2.043 0.032-0.627 0.072-1.254 0.119-1.881 0.028-0.365-0.143-0.608-0.059-1.014 0.005-0.026 0.002-0.050-0.011-0.072-0.046-0.082-0.060-0.171-0.044-0.267 0.003-0.020 0.001-0.040-0.008-0.059-0.082-0.178-0.071-0.343 0.032-0.493 0.014-0.021 0.019-0.043 0.013-0.068-0.193-0.817-0.336-1.453-0.038-2.269 0.016-0.044 0.058-0.073 0.104-0.073 0.54-0.003 1.078-0.021 1.616-0.052 0.279-0.017 0.594 0.1 0.859-0.004 0.486-0.19 1.046-0.084 1.032 0.556-0.001 0.024 0.006 0.048 0.019 0.068 0.157 0.252 0.179 0.515 0.301 0.779 0.105 0.229 0.158 0.473 0.157 0.733 0 0.029 0.007 0.059 0.022 0.085 0.084 0.154 0.099 0.316 0.046 0.488-0.007 0.023-0.004 0.047 0.007 0.067 0.102 0.179 0.36 0.657 0.323 0.817-0.003 0.013 0.003 0.035 0.017 0.066 0.005 0.011 0.012 0.014 0.022 0.009 0.014-0.007 0.024-0.003 0.032 0.010 0.127 0.238 0.147 0.489 0.060 0.753-0.007 0.021 0.004 0.044 0.024 0.052l0.639 0.272c0.028 0.011 0.052 0.006 0.072-0.015 0.089-0.097 0.094-0.199 0.016-0.306-0.015-0.021-0.024-0.045-0.026-0.070-0.041-0.476-0.051-1.174 0.203-1.595 0.012-0.021 0.017-0.046 0.012-0.069-0.064-0.365 0.127-0.466 0.17-0.768 0.052-0.37 0.109-0.622 0.173-0.757 0.068-0.147 0.11-0.277 0.125-0.39 0.139-1.040 0.979-1.034 1.797-0.933 0.512 0.062 1.071-0.010 1.575-0.092 0.344-0.056 0.593 0.112 0.627 0.467 0.041 0.417 0.076 0.833 0.106 1.248 0.032 0.432-0.032 0.794-0.096 1.236-0.048 0.338 0.062 0.653 0.017 0.977-0.048 0.338-0.134 0.67-0.097 1.010 0.022 0.2 0.052 0.409 0.055 0.608 0.026 1.308 0.030 2.351 0.012 3.127-0.011 0.472-0.341 0.506-0.741 0.477-0.424-0.030-0.849-0.036-1.275-0.016-0.499 0.023-0.513-0.365-0.468-0.762 0.030-0.267-0.122-0.57-0.179-0.835-0.055-0.255 0.203-0.537 0.136-0.752-0.113-0.363-0.001-0.624 0.197-0.906 0.014-0.021 0.019-0.044 0.015-0.069-0.067-0.333-0.102-0.633-0.105-0.899-0.002-0.182-0.029-0.339-0.079-0.471-0.038-0.1-0.023-0.322 0.044-0.667 0.003-0.018-0.001-0.036-0.013-0.050l-0.135-0.16c-0.025-0.030-0.023-0.058 0.005-0.086 0.099-0.093 0.099-0.197-0.001-0.311-0.015-0.017-0.033-0.025-0.055-0.025zM23.461 16.505c-0.066-0.278-0.281-0.297-0.435-0.079-0.017 0.024-0.011 0.039 0.018 0.045 0.099 0.020 0.166 0.075 0.2 0.166 0.007 0.016 0.022 0.027 0.040 0.027 0.009 0 0.017-0.002 0.024-0.007l0.128-0.085c0.025-0.016 0.033-0.039 0.026-0.068zM26.381 16.809c0.084 0.119 0.133 0.288 0.067 0.426-0.011 0.025-0.007 0.046 0.012 0.066l0.159 0.159c0.021 0.021 0.039 0.019 0.053-0.007 0.131-0.228 0.137-0.46 0.019-0.696-0.011-0.022-0.029-0.031-0.053-0.027l-0.24 0.039c-0.027 0.005-0.032 0.018-0.017 0.040zM19.469 17.080l-0.002 0.227c0 0.015 0.013 0.028 0.028 0.028l0.123 0.001c0.126 0 0.229-0.024 0.229-0.055v-0.171c0-0.030-0.103-0.056-0.228-0.056l-0.123-0.001c-0.015 0-0.028 0.013-0.028 0.028zM27.587 17.216c-0.004 0.032 0.010 0.052 0.042 0.058l0.192 0.036c0.030 0.006 0.040-0.006 0.031-0.035l-0.033-0.106c-0.008-0.026-0.025-0.043-0.050-0.052-0.109-0.038-0.17-0.005-0.182 0.098zM24.693 11.27l0.437 0.086c0.022 0.004 0.032-0.005 0.031-0.027l-0.021-0.257c-0.002-0.020-0.018-0.035-0.038-0.035h-0.387c-0.001-0-0.003-0-0.004-0-0.064 0-0.117 0.053-0.117 0.117 0 0.057 0.042 0.107 0.099 0.116zM24.933 12.037c-0.034 0.012-0.065 0.037-0.087 0.071-0.044 0.070-0.035 0.156 0.021 0.191 0.027 0.017 0.061 0.020 0.096 0.008 0.055-0.018 0.102-0.024 0.14-0.019 0.039 0.005 0.059-0.012 0.060-0.052l0.007-0.24c0.001-0.029-0.013-0.038-0.040-0.029l-0.197 0.069zM24.871 10.012c-0.023 0.134-0.034 0.267-0.035 0.4-0 0.011 0.002 0.022 0.007 0.032 0.017 0.037 0.062 0.053 0.098 0.035 0.010-0.005 0.019-0.012 0.026-0.021l0.517-0.643c0.018-0.024 0.014-0.042-0.012-0.056-0.23-0.119-0.552-0.036-0.6 0.252zM25.382 9.495l0.205-0.103c0.005-0.003 0.009-0.008 0.009-0.014 0-0.002-0.001-0.005-0.002-0.007l-0.003-0.006c-0.030-0.058-0.102-0.082-0.161-0.052l-0.018 0.009c-0.058 0.030-0.082 0.102-0.053 0.16l0.003 0.006c0.004 0.007 0.013 0.010 0.020 0.007zM17.293 9.206c-0.008-0.015-0.011-0.032-0.009-0.049 0.003-0.023 0.014-0.042 0.032-0.056 0.526-0.403 0.712 0.345 0.718 0.685 0.022 1.378 0.033 2.417 0.034 3.117 0 0.084-0.018 0.174-0.053 0.268-0.009 0.024-0.008 0.047 0.001 0.071 0.093 0.24-0.008 0.438 0 0.645 0.030 0.712 0.012 1.24-0.053 1.584-0.018 0.099-0.119 0.265-0.301 0.497-0.016 0.021-0.023 0.047-0.019 0.072 0.062 0.401 0.031 0.7-0.397 0.852-0.026 0.009-0.036 0.028-0.030 0.055 0.066 0.275 0.237 0.383 0.514 0.324 0.023-0.005 0.038 0.003 0.045 0.025l0.137 0.367c0.003 0.007 0.005 0.015 0.007 0.023 0.025 0.105-0.040 0.212-0.145 0.237-0.008 0.002-0.016 0.003-0.024 0.004-0.222 0.025-0.444 0.039-0.666 0.042-0.371 0.007-0.704 0.254-1.036-0.045-0.291-0.261-0.491-0.653-0.664-0.883-0.239-0.317-0.465-0.643-0.679-0.977-0.039-0.059-0.105-0.093-0.136-0.167-0.097-0.236-0.203-0.468-0.321-0.695-0.175-0.339-0.473-0.543-0.66-0.875-0.137-0.243-0.275-0.484-0.416-0.724-0.099-0.169-0.13-0.399-0.325-0.572-0.019-0.016-0.028-0.042-0.022-0.067 0.096-0.39-0.362-0.626-0.464-0.244-0.007 0.025 0.001 0.043 0.024 0.055 0.131 0.071 0.173 0.183 0.126 0.335-0.007 0.023-0.008 0.046-0.002 0.069 0.038 0.156 0.052 0.312 0.043 0.469-0.023 0.387-0.012 0.762-0.089 1.143-0.056 0.277-0.061 0.542-0.016 0.795 0.053 0.296-0.028 0.489-0.015 0.761 0.004 0.097 0 0.195-0.012 0.294-0.003 0.025 0.002 0.047 0.016 0.068 0.288 0.441 0.41 0.587 0.228 1.135-0.087 0.26-0.548 0.258-0.77 0.246-0.328-0.018-0.655-0.036-0.98-0.055-0.177-0.010-0.317-0.159-0.317-0.336 0.003-0.902-0.079-1.911 0.029-2.814 0.030-0.252-0.099-0.373-0.123-0.583-0.15-1.388-0.195-2.779-0.137-4.172 0.008-0.19-0.015-0.51 0.039-0.774 0.007-0.034 0.026-0.064 0.053-0.085 0.189-0.142 0.396-0.162 0.62-0.059 0.024 0.011 0.049 0.014 0.076 0.010 0.521-0.077 0.977-0.1 1.37-0.069 0.496 0.040 0.854 0.879 1.113 1.246 0.311 0.44 0.594 0.898 0.85 1.372 0.012 0.023 0.019 0.046 0.021 0.071 0.005 0.058 0.039 0.104 0.103 0.138 0.206 0.111 0.329 0.289 0.371 0.533 0.005 0.029 0.018 0.055 0.037 0.077 0.345 0.388 0.587 0.835 0.725 1.34 0.007 0.024 0.026 0.041 0.050 0.045l0.328 0.049c0.003 0.001 0.007 0.001 0.011 0.001 0.039 0 0.071-0.032 0.071-0.071 0-0.008-0.001-0.015-0.004-0.022-0.124-0.37-0.166-0.762-0.124-1.177 0.018-0.183 0.016-0.337-0.006-0.46-0.005-0.026-0.017-0.048-0.037-0.065-0.113-0.097-0.17-0.193-0.17-0.291-0.005-0.894-0.083-1.723 0.083-2.601 0.086-0.449 0.913-0.17 1.114-0.018 0.021 0.016 0.047 0.027 0.075 0.033 0.080 0.016 0.156-0.021 0.168-0.082 0.004-0.021 0-0.043-0.011-0.064zM17.222 9.848c-0.026 0.003-0.047-0.005-0.063-0.023-0.009-0.010-0.014-0.023-0.014-0.036 0-0.018 0.009-0.035 0.024-0.044l0.257-0.171c0.002-0.002 0.005-0.003 0.008-0.004 0.020-0.008 0.042 0.002 0.050 0.022 0.001 0.003 0.002 0.005 0.002 0.008l0.042 0.255c0.004 0.024-0.005 0.040-0.028 0.048-0.1 0.037-0.192 0.019-0.277-0.055zM16.855 17.189c-0.006 0.147-0.22 0.341 0.018 0.45 0.023 0.011 0.035 0.003 0.035-0.022l0.001-0.425c0-0.022-0.011-0.031-0.033-0.025-0.013 0.003-0.020 0.011-0.021 0.023zM11.425 17.54c-0.148-0.060-0.289-0.036-0.422 0.072-0.032 0.026-0.051 0.065-0.051 0.106 0 0.074 0.061 0.135 0.135 0.135 0.006 0 0.011-0 0.017-0.001 0.176-0.020 0.344-0.008 0.504 0.035 0.009 0.003 0.019 0.002 0.028-0.002l0.266-0.135c0.014-0.007 0.022-0.021 0.022-0.036 0-0.008-0.002-0.016-0.007-0.023l-0.125-0.18c-0.017-0.025-0.040-0.033-0.069-0.025l-0.225 0.059c-0.025 0.006-0.049 0.005-0.073-0.005zM16.526 17.198c0.022-0.166-0.23-0.287-0.357-0.339-0.005-0.002-0.009-0.003-0.014-0.003-0.021 0-0.039 0.017-0.039 0.039 0 0.008 0.003 0.017 0.008 0.023l0.251 0.321c0.016 0.020 0.041 0.032 0.066 0.032 0.042 0 0.078-0.031 0.084-0.073zM16.329 9.803c-0.047 0.123-0.029 0.23 0.055 0.323 0.026 0.029 0.048 0.026 0.066-0.008 0.068-0.127 0.044-0.236-0.071-0.328-0.023-0.018-0.039-0.014-0.049 0.013zM6.109 13.149l0.181 0.095c0.007 0.003 0.014 0.005 0.022 0.005 0.026 0 0.048-0.022 0.048-0.048 0-0.002-0-0.004-0-0.005-0.006-0.043 0.001-0.078 0.020-0.103 0.016-0.022 0.044-0.035 0.085-0.039 0.478-0.049 1.003-0.234 1.401-0.045 0.024 0.011 0.050 0.016 0.076 0.013l0.794-0.086c0.007-0.001 0.013-0.001 0.020-0.002 0.164-0.007 0.305 0.122 0.313 0.287 0 0.007 0 0.014 0 0.020l-0.031 1.291c0 0 0 0.001 0 0.001-0.003 0.117-0.102 0.21-0.218 0.206-0-0-0.001-0-0.001-0l-1.769-0.060c-0.030-0.001-0.056 0.008-0.080 0.027-0.138 0.113-0.303 0.152-0.495 0.118-0.025-0.004-0.051 0.001-0.071 0.016-0.144 0.102-0.267 0.2-0.291 0.388-0.034 0.266-0.017 0.53 0.052 0.792 0.006 0.025 0.006 0.049 0 0.074-0.093 0.36-0.111 0.742-0.053 1.148 0.013 0.090-0.007 0.179-0.059 0.267-0.015 0.025-0.018 0.051-0.007 0.078 0.061 0.152 0.075 0.305 0.042 0.462-0.009 0.041-0.043 0.073-0.085 0.078-0.715 0.085-1.405 0.247-2.127 0.118-0.491-0.088-0.362-0.722-0.366-1.074-0.002-0.17 0.019-0.362 0.062-0.577 0.085-0.423 0.022-0.694 0-1.058-0.019-0.328-0.125-0.699-0.003-1.091 0.007-0.024 0.003-0.045-0.013-0.064-0.369-0.435-0.091-1.732-0.129-2.494-0.002-0.025-0.009-0.048-0.023-0.069-0.136-0.205-0.104-1.089 0.008-1.308 0.012-0.023 0.015-0.046 0.009-0.070-0.076-0.337-0.18-1.321 0.375-1.288 0.417 0.025 0.829-0.007 1.238-0.096 0.129-0.029 0.4 0.101 0.563 0.104 0.727 0.014 1.454 0.021 2.18 0.022 0.17 0.001 0.346-0.077 0.505-0.056 0.411 0.054 0.823 0.075 1.238 0.063 0.492-0.015 0.345 0.348 0.325 0.622-0.030 0.43-0.042 0.842-0.035 1.238 0.002 0.124-0.098 0.227-0.222 0.23-0.815 0.016-1.641 0.020-2.476 0.009-0.214-0.003-0.392-0.057-0.534-0.163-0.018-0.013-0.035-0.013-0.053-0.002l-0.321 0.203c-0.018 0.011-0.030 0.028-0.035 0.049l-0.083 0.353c-0.006 0.025-0.004 0.050 0.006 0.073 0.169 0.409 0.070 0.772-0.014 1.283-0.005 0.030 0.006 0.052 0.033 0.066zM5.621 16.209c0.005 0.005 0.012 0.008 0.019 0.008 0.015 0 0.027-0.011 0.028-0.026l0.076-0.728c0-0.001 0-0.002 0-0.003 0-0.016-0.013-0.029-0.029-0.029h-0.31c-0.015 0-0.028 0.012-0.029 0.027l-0.027 0.489c-0.001 0.009 0.003 0.017 0.009 0.023l0.261 0.238zM18.137 20.282c-0.113-0.034-0.185-0.002-0.217 0.099-0.001 0.003-0.001 0.006-0.001 0.008 0 0.014 0.011 0.025 0.025 0.025 0.007 0 0.015-0.003 0.019-0.009 0.052-0.062 0.114-0.073 0.185-0.035 0.030 0.016 0.045 0.007 0.045-0.026 0-0.030-0.018-0.050-0.055-0.061zM1.017 21.023c0.083 0.022 0.153-0.002 0.212-0.070 0.009-0.010 0.013-0.022 0.013-0.035 0-0.029-0.024-0.052-0.052-0.052-0.009 0-0.018 0.002-0.026 0.007l-0.154 0.085c-0.011 0.006-0.019 0.018-0.019 0.031 0 0.016 0.011 0.030 0.026 0.034zM17.010 20.907c-0.021-0.013-0.032-0.007-0.035 0.017-0.006 0.061 0.008 0.116 0.040 0.165 0.024 0.038 0.042 0.035 0.053-0.008 0.021-0.078 0.001-0.136-0.059-0.173zM6.821 20.977l0.094 0.19c0.005 0.010 0.016 0.017 0.028 0.017 0.016 0 0.029-0.012 0.031-0.027 0.010-0.087-0.012-0.166-0.065-0.235-0.010-0.013-0.025-0.020-0.041-0.020-0.029 0-0.052 0.024-0.052 0.052 0 0.008 0.002 0.015 0.005 0.022zM1.3 15.375l0.014-0.17c0.005-0.063-0.015-0.073-0.062-0.030l-0.078 0.073c-0.028 0.026-0.028 0.052 0 0.079l0.075 0.069c0.002 0.002 0.005 0.004 0.008 0.006 0.015 0.007 0.033-0.001 0.040-0.016 0.001-0.003 0.002-0.006 0.003-0.010zM31.577 15.862c0.006-0.013 0.008-0.028 0.007-0.043-0.001-0.027-0.015-0.040-0.042-0.038-0.114 0.010-0.242-0.070-0.315-0.055-0.038 0.008-0.066 0.029-0.085 0.064-0.003 0.006-0.005 0.013-0.005 0.020 0 0.018 0.011 0.034 0.027 0.041l0.33 0.132c0.028 0.011 0.050 0.004 0.066-0.022 0.009-0.016 0.013-0.036 0.011-0.059-0.001-0.014 0.001-0.027 0.007-0.039zM0.919 16.093c-0.018 0.007-0.030 0.025-0.030 0.044s0.012 0.037 0.030 0.044l0.332 0.134c0.025 0.010 0.042 0.003 0.052-0.022l0.062-0.17c0.001-0.002 0.001-0.004 0.001-0.007 0-0.011-0.009-0.020-0.020-0.020-0.004 0-0.007 0.001-0.010 0.003-0.181 0.113-0.251-0.076-0.418-0.006zM31.406 18.247l-0.059 0.24c-0.006 0.026 0.002 0.045 0.025 0.057l0.126 0.066c0.012 0.006 0.025 0.010 0.039 0.010 0.045 0 0.082-0.037 0.082-0.082 0-0.026-0.012-0.050-0.033-0.065-0.073-0.055-0.119-0.131-0.139-0.225-0.002-0.010-0.011-0.018-0.021-0.018s-0.019 0.007-0.021 0.017zM1.26 18.958c0.038 0.006 0.069-0.005 0.094-0.033 0.014-0.016 0.016-0.034 0.006-0.053l-0.146-0.27c-0.002-0.003-0.004-0.007-0.007-0.009-0.014-0.013-0.037-0.012-0.050 0.002-0.003 0.003-0.005 0.006-0.006 0.010-0.042 0.099-0.054 0.33 0.109 0.353zM30.805 19.433c0.005-0.008 0.008-0.022 0.010-0.040 0.001-0.014-0.003-0.027-0.011-0.035-0.019-0.020-0.056-0.015-0.082 0.009-0.011 0.011-0.020 0.025-0.023 0.039-0.016 0.085 0.001 0.165 0.052 0.239 0.006 0.009 0.017 0.014 0.027 0.014 0.019 0 0.034-0.015 0.034-0.034 0-0.001 0-0.002-0-0.004l-0.018-0.125c-0.003-0.021 0.001-0.043 0.011-0.063zM0.572 19.726c0.001-0.003 0.001-0.005 0.001-0.008 0-0.015-0.012-0.028-0.028-0.028-0.007 0-0.014 0.003-0.020 0.008-0.097 0.097-0.086 0.19 0.032 0.279 0.014 0.011 0.025 0.012 0.032 0.003 0.010-0.012 0.008-0.023-0.005-0.032-0.044-0.029-0.048-0.104-0.014-0.223zM25.713 20.324c0.002-0.003 0.002-0.006 0.002-0.010 0-0.011-0.009-0.021-0.021-0.021-0.001 0-0.003 0-0.004 0l-0.187 0.038c-0.023 0.005-0.046-0.004-0.059-0.023-0.077-0.104-0.167-0.117-0.271-0.041-0.010 0.008-0.016 0.020-0.016 0.033 0 0.018 0.012 0.034 0.029 0.039l0.134 0.038c0.022 0.006 0.039 0.018 0.053 0.035 0.118 0.15 0.264 0.039 0.338-0.089zM29.839 20.32c-0.144-0.016-0.28-0.036-0.409-0.059-0.059-0.011-0.113 0.024-0.135 0.076-0.002 0.004-0.003 0.009-0.003 0.013 0 0.019 0.015 0.034 0.034 0.034 0.001 0 0.001-0 0.002-0 0.077-0.005 0.138 0.023 0.185 0.082 0.020 0.025 0.051 0.039 0.083 0.039 0.119-0.003 0.202-0.060 0.249-0.172 0-0.001 0.001-0.002 0.001-0.003 0-0.004-0.003-0.008-0.008-0.008zM19.246 21.021l-0.214-0.050c-0.030-0.007-0.052 0.003-0.066 0.032l-0.059 0.124c-0.005 0.010-0.007 0.021-0.007 0.033 0 0.043 0.035 0.078 0.078 0.078 0.014 0 0.028-0.004 0.040-0.011l0.237-0.148c0.009-0.006 0.014-0.016 0.014-0.026 0-0.014-0.010-0.027-0.024-0.031zM22.295 21.094c0.045 0.072 0.11 0.097 0.197 0.075 0.018-0.005 0.027-0.016 0.025-0.035-0.010-0.078-0.063-0.123-0.16-0.136-0.003-0-0.005-0.001-0.008-0.001-0.035 0-0.063 0.029-0.063 0.063 0 0.012 0.003 0.024 0.010 0.034zM8.104 20.366c-0.055-0.082-0.207-0.044-0.263 0.008-0.005 0.005-0.008 0.011-0.008 0.018 0 0.014 0.011 0.025 0.025 0.025h0l0.22-0.005c0.017-0.001 0.030-0.014 0.030-0.031 0-0.006-0.002-0.012-0.005-0.017zM5.343 20.492l-0.375-0.061c-0.009-0.001-0.018 0.001-0.025 0.006l-0.1 0.079c-0.008 0.006-0.013 0.016-0.013 0.026 0 0.019 0.015 0.034 0.034 0.034 0.001 0 0.002-0 0.003-0 0.099-0.010 0.175 0.022 0.23 0.097 0.015 0.022 0.036 0.032 0.063 0.030 0.104-0.006 0.176-0.056 0.217-0.15 0.015-0.035 0.003-0.056-0.035-0.062zM31.26 20.637c-0.042 0.053-0.029 0.077 0.039 0.072 0.071-0.005 0.122-0.045 0.153-0.119 0.004-0.008 0.006-0.017 0.006-0.026 0-0.034-0.028-0.062-0.062-0.062-0.020 0-0.038 0.009-0.050 0.025l-0.086 0.109zM21.583 21.050c0.060-0.094 0.071-0.197 0.034-0.308-0.002-0.005-0.004-0.009-0.008-0.013-0.013-0.013-0.034-0.014-0.047-0.002-0.004 0.004-0.006 0.008-0.008 0.013l-0.133 0.362c-0.011 0.030-0.003 0.052 0.025 0.068l0.123 0.069c0.004 0.002 0.008 0.004 0.013 0.004 0.014 0 0.025-0.011 0.025-0.025 0-0.003-0-0.006-0.001-0.008l-0.031-0.089c-0.009-0.025-0.006-0.048 0.008-0.071zM11.402 21.255c-0.021-0.008-0.038-0.019-0.053-0.032-0.018-0.017-0.024-0.037-0.016-0.060 0.021-0.066 0.047-0.156 0.079-0.272 0.014-0.052 0.046-0.086 0.095-0.099 0.003-0.001 0.006-0.001 0.009-0.001 0.017 0 0.031 0.014 0.031 0.031 0 0.001-0 0.002-0 0.003l-0.042 0.452c-0.002 0.024-0.014 0.032-0.037 0.025-0.027-0.009-0.048-0.024-0.065-0.045zM9.016 21.063c-0.041-0.024-0.078-0.030-0.113-0.018-0.031 0.010-0.053 0.033-0.066 0.069-0.018 0.049-0.020 0.097-0.005 0.144 0.001 0.003 0.002 0.007 0.004 0.010 0.016 0.032 0.056 0.045 0.088 0.029 0.003-0.002 0.006-0.003 0.009-0.006l0.204-0.146c0.010-0.007 0.015-0.019 0.015-0.031 0-0.021-0.017-0.038-0.038-0.039h-0.045c-0.019 0-0.037-0.005-0.053-0.014zM12.257 21.227h0.132c0.045 0 0.054-0.018 0.028-0.054l-0.069-0.096c-0.008-0.011-0.021-0.018-0.035-0.018-0.016 0-0.031 0.009-0.038 0.023l-0.049 0.091c-0.019 0.036-0.008 0.054 0.032 0.054zM2.003 21.295c0.022 0.069 0.075 0.104 0.158 0.105 0.035 0 0.045-0.016 0.029-0.047l-0.055-0.111c-0.008-0.015-0.020-0.027-0.036-0.033-0.036-0.015-0.078 0.001-0.094 0.037-0.007 0.016-0.007 0.033-0.002 0.049zM29.488 22.769l0.033 0.034c0.016 0.016 0.025 0.039 0.025 0.062 0 0.044-0.033 0.081-0.076 0.087l-0.616 0.078c-0.001 0-0.001 0-0.002 0-0.021 0.001-0.039-0.015-0.040-0.036-0-0.001-0-0.002-0-0.002l-0.003-0.476c-0.001-0.021 0.008-0.038 0.025-0.049 0.096-0.064 0.184-0.055 0.265 0.027 0.022 0.022 0.045 0.025 0.072 0.008 0.109-0.067 0.226-0.071 0.351-0.012 0.024 0.011 0.036 0.030 0.037 0.055 0.003 0.061-0.020 0.11-0.067 0.148-0.029 0.024-0.031 0.049-0.004 0.075zM29.138 22.787c-0.021 0.066-0.004 0.078 0.052 0.038l0.073-0.052c0.008-0.006 0.013-0.016 0.013-0.026 0-0.017-0.013-0.031-0.029-0.033-0.055-0.005-0.091 0.020-0.109 0.074zM28.968 22.57l-0.027 0.045c-0.001 0.002-0.002 0.004-0.003 0.006-0.006 0.017 0.003 0.036 0.020 0.043 0.002 0.001 0.004 0.001 0.006 0.002l0.083 0.015c0.031 0.005 0.044-0.008 0.037-0.039-0.010-0.043-0.036-0.072-0.078-0.086-0.015-0.004-0.031 0.002-0.039 0.015zM19.478 24.848c0.024 0.045 0.060 0.078 0.107 0.097 0.023 0.010 0.050 0.003 0.066-0.016 0.155-0.186 0.473-0.083 0.411 0.196-0.002 0.006-0.020 0.029-0.044 0.055-0.028 0.032-0.025 0.068 0.010 0.107 0.022 0.025 0.019 0.045-0.010 0.062l-0.043 0.025c-0.035 0.021-0.057 0.011-0.067-0.028l-0.045-0.179c-0.004-0.016-0.001-0.032 0.008-0.045 0.045-0.064 0.043-0.138-0.008-0.222-0.009-0.015-0.018-0.015-0.027 0l-0.102 0.177c-0.012 0.021-0.031 0.031-0.055 0.029-0.041-0.004-0.068 0.011-0.081 0.045-0 0.001-0 0.001-0.001 0.002-0.009 0.026 0.005 0.054 0.031 0.063 0.001 0 0.001 0 0.002 0.001l0.019 0.006c0.046 0.015 0.078 0.058 0.078 0.107 0 0.053-0.038 0.1-0.090 0.11-0.934 0.184-0.892-0.973-0.829-1.528 0.001-0.005 0.001-0.010 0.001-0.015 0-0.070-0.054-0.129-0.124-0.134l-0.197-0.016c-0.016-0.002-0.024 0.006-0.025 0.022-0.015 0.489-0.015 0.978-0.001 1.467 0.001 0.006 0.002 0.011 0.004 0.015l0.044 0.092c0.012 0.025 0.004 0.040-0.022 0.047-0.19 0.047-0.366 0.035-0.557 0.043-0.15 0.008-0.187-0.126-0.19-0.257-0.006-0.291-0.020-0.582-0.042-0.873-0.002-0.027 0.006-0.051 0.025-0.070l0.032-0.032c0.025-0.025 0.024-0.049-0.004-0.071-0.087-0.069-0.135-0.16-0.143-0.274-0.002-0.030-0.027-0.054-0.057-0.054l-0.191-0.002c-0.034 0-0.058 0.016-0.070 0.048-0.026 0.068-0.063 0.129-0.111 0.183-0.017 0.018-0.036 0.034-0.057 0.047l-0.037 0.022c-0.036 0.022-0.048 0.069-0.027 0.105 0.078 0.137 0.115 0.283 0.109 0.44-0.001 0.029-0.008 0.056-0.022 0.082-0.024 0.044-0.015 0.079 0.026 0.106 0.023 0.015 0.035 0.036 0.035 0.064v0.361c0 0.084-0.067 0.153-0.15 0.156-0.163 0.005-0.34-0.007-0.516 0.005-0.104 0.007-0.158-0.053-0.163-0.181-0.011-0.299 0.012-0.618 0.008-0.823-0.016-0.666-0.014-1.226 0.008-1.678 0.004-0.078 0.040-0.146 0.108-0.204 0.007-0.006 0.016-0.009 0.026-0.009 0.012 0 0.024 0.006 0.031 0.016l0.045 0.061c0.019 0.026 0.043 0.032 0.072 0.018 0.131-0.063 0.265-0.064 0.403-0.002 0.021 0.010 0.034 0.026 0.040 0.049 0.059 0.236 0.051 0.472-0.024 0.706-0.003 0.010-0.005 0.020-0.005 0.031 0 0.055 0.045 0.099 0.099 0.099 0.023 0 0.046-0.008 0.063-0.023 0.356-0.294 0.718-0.303 1.088-0.026 0.014 0.011 0.032 0.017 0.049 0.017 0.028 0 0.055-0.015 0.070-0.039 0.069-0.113 0.173-0.171 0.31-0.173h0.001c0.049 0 0.090 0.041 0.090 0.090 0 0.017-0.005 0.033-0.014 0.048-0.031 0.050-0.032 0.099-0.002 0.147 0.001 0.002 0.003 0.004 0.005 0.005 0.007 0.005 0.018 0.003 0.023-0.005 0.001-0.002 0.002-0.004 0.003-0.006l0.036-0.221c0.004-0.027-0.006-0.047-0.031-0.059l-0.025-0.012c-0.019-0.009-0.029-0.025-0.029-0.046-0.001-0.1 0.027-0.189 0.083-0.267 0.017-0.024 0.020-0.056 0.008-0.083-0.036-0.078-0.041-0.156-0.012-0.237 0.009-0.024 0.032-0.041 0.058-0.041 0.028 0 0.053 0.020 0.060 0.047 0.041 0.183 0.034 0.359-0.021 0.526-0.012 0.035 0.001 0.054 0.039 0.056 0.12 0.006 0.202 0.067 0.244 0.185 0.012 0.035 0.001 0.059-0.035 0.069l-0.080 0.025c-0.024 0.008-0.042 0.023-0.054 0.045-0.039 0.070-0.097 0.123-0.175 0.157-0.020 0.007-0.033 0.026-0.033 0.047 0 0.028 0.023 0.050 0.050 0.050 0.006 0 0.012-0.001 0.017-0.003 0.126-0.039 0.223-0.113 0.29-0.224 0.016-0.026 0.050-0.034 0.076-0.018l0.055 0.034c0.002 0.001 0.004 0.003 0.005 0.004 0.012 0.014 0.004 0.041-0.018 0.059-0.003 0.002-0.005 0.004-0.008 0.006-0.010 0.007-0.017 0.024-0.019 0.052-0.002 0.021 0.003 0.042 0.013 0.059 0.032 0.053 0.111 0.064 0.176 0.025 0.021-0.013 0.040-0.030 0.053-0.051 0.053-0.082 0.124-0.143 0.214-0.183 0.032-0.014 0.044-0.038 0.036-0.071l-0.037-0.166c-0.001-0.004-0.001-0.008-0.001-0.012 0-0.029 0.024-0.052 0.052-0.052 0.010 0 0.019 0.003 0.028 0.008 0.221 0.132 0.123 0.545-0.218 0.511-0.003-0-0.007-0.001-0.010-0.001-0.054 0-0.099 0.044-0.099 0.098l-0.011 0.794c-0.001 0.030 0.007 0.059 0.022 0.085l0.059 0.102c0.003 0.006 0.004 0.012 0.003 0.019-0.002 0.016-0.017 0.028-0.033 0.026-0.007-0.001-0.013-0.004-0.017-0.009-0.024-0.025-0.051-0.042-0.082-0.053-0.038-0.013-0.048-0.002-0.029 0.033zM19.274 24.712c-0.032-0.020-0.065-0.021-0.098-0.005-0.040 0.020-0.038 0.035 0.005 0.045l0.19 0.049c0.003 0.001 0.005 0.001 0.008 0.001 0.016 0 0.029-0.013 0.029-0.029 0-0.003-0.001-0.006-0.002-0.010-0.013-0.040-0.039-0.054-0.079-0.043-0.019 0.005-0.037 0.002-0.053-0.008zM18.153 25.108c-0.017 0.039-0.017 0.074 0.001 0.107 0.004 0.008 0.011 0.014 0.019 0.016 0.019 0.006 0.039-0.007 0.046-0.028 0.003-0.009 0.003-0.018-0-0.027-0.040-0.106-0.101-0.2-0.183-0.281-0.015-0.014-0.028-0.013-0.039 0.004-0.046 0.067-0.060 0.137-0.042 0.211 0.004 0.017 0.020 0.029 0.037 0.029 0.010 0 0.019-0.004 0.026-0.010l0.072-0.067c0.007-0.006 0.017-0.010 0.026-0.010 0.022 0 0.040 0.018 0.040 0.040 0 0.005-0.001 0.010-0.003 0.015zM16.987 24.94l0.012 0.1c0.003 0.023 0.023 0.041 0.047 0.041 0.022 0 0.041-0.015 0.046-0.037 0.014-0.065-0.006-0.11-0.061-0.136-0.004-0.002-0.008-0.003-0.012-0.003-0.017 0-0.031 0.014-0.031 0.031 0 0.001 0 0.002 0 0.003zM19.33 25.11c0.028-0.006 0.046-0.020 0.055-0.044 0.003-0.011 0.002-0.022-0.003-0.031-0.012-0.021-0.045-0.026-0.072-0.010-0.011 0.007-0.020 0.016-0.026 0.027-0.009 0.021-0.011 0.034-0.006 0.038 0.019 0.016 0.036 0.023 0.052 0.020zM16.5 22.914l-0.006 0.076c-0 0.001-0 0.002-0 0.002 0 0.019 0.015 0.034 0.034 0.034 0.012 0 0.023-0.006 0.029-0.017 0.020-0.033 0.021-0.069 0.005-0.106-0.005-0.012-0.017-0.020-0.030-0.020-0.017 0-0.032 0.014-0.032 0.031zM19.159 24.023l0.21 0.499c0.007 0.017 0.024 0.027 0.042 0.027 0.022 0 0.041-0.016 0.045-0.037 0.033-0.203-0.007-0.391-0.122-0.564-0.002-0.003-0.004-0.007-0.004-0.011 0-0.010 0.008-0.018 0.018-0.018 0.004 0 0.007 0.001 0.011 0.003l0.082 0.052c0.003 0.002 0.007 0.004 0.011 0.004 0.017 0.003 0.034-0.007 0.037-0.024 0.001-0.004 0.001-0.008 0-0.012-0.029-0.172-0.222-0.134-0.338-0.179-0.010-0.004-0.020-0.006-0.031-0.006-0.046 0-0.085 0.038-0.085 0.085 0 0.023 0.009 0.045 0.025 0.061l0.054 0.053c0.019 0.020 0.034 0.042 0.045 0.066zM19.234 22.63c0.019 0.006 0.026 0.019 0.022 0.039-0.003 0.013-0.004 0.026-0.002 0.039 0.002 0.020 0.013 0.036 0.032 0.049 0.033 0.020 0.069 0.024 0.107 0.012 0.046-0.015 0.047-0.032 0.002-0.050-0.068-0.026-0.097-0.075-0.089-0.146 0.003-0.024-0.007-0.039-0.030-0.045-0.048-0.014-0.088-0.008-0.119 0.019s-0.029 0.049 0.012 0.062l0.066 0.022zM19.481 22.543c-0.012 0.139-0.014 0.267-0.008 0.385 0.007 0.106-0.038 0.157-0.134 0.155-0.027-0.001-0.049-0.010-0.068-0.029-0.016-0.015-0.036-0.017-0.060-0.005-0.011 0.006-0.018 0.018-0.018 0.031 0 0.015 0.009 0.028 0.022 0.033l0.273 0.104c0.006 0.002 0.012 0.003 0.018 0.003 0.022 0 0.042-0.015 0.048-0.037 0.063-0.221 0.055-0.438-0.025-0.648-0.004-0.009-0.013-0.015-0.023-0.015-0.013 0-0.024 0.010-0.025 0.022zM1.637 23.965c-0.147 0.012-0.285-0.014-0.414-0.077-0.018-0.009-0.026-0.003-0.026 0.016l-0.015 1.537c-0.001 0.071-0.057 0.131-0.127 0.136-0.237 0.018-0.769 0.058-0.642-0.37 0.008-0.025 0.005-0.049-0.008-0.072-0.045-0.075-0.049-0.152-0.014-0.232 0.011-0.025 0.013-0.050 0.006-0.076-0.062-0.235 0.005-0.483-0.041-0.733-0.005-0.026-0.020-0.044-0.045-0.052-0.284-0.096-0.403-0.546-0.042-0.583 0.026-0.003 0.046-0.023 0.049-0.049 0.068-0.576 0.701-0.936 1.23-0.707 0.188 0.081 0.248 0.256 0.21 0.445-0.006 0.027-0.022 0.042-0.049 0.045-0.231 0.024-0.365-0.102-0.524 0.158-0.010 0.016-0.015 0.035-0.015 0.054 0 0.057 0.047 0.103 0.103 0.103 0.003 0 0.007-0 0.010-0.001l0.987-0.104c0.068-0.007 0.094 0.022 0.078 0.089-0.030 0.125-0.090 0.234-0.178 0.328-0.007 0.008-0.011 0.019-0.011 0.029 0 0.024 0.020 0.044 0.044 0.044 0.003 0 0.006-0 0.009-0.001 0.098-0.023 0.185-0.007 0.262 0.045 0.022 0.015 0.045 0.018 0.069 0.010l0.304-0.102c0.019-0.007 0.031-0.020 0.033-0.041 0.018-0.126-0.029-0.216-0.139-0.27-0.037-0.018-0.064-0.008-0.081 0.029l-0.079 0.17c-0.010 0.022-0.024 0.025-0.043 0.010-0.005-0.005-0.009-0.011-0.012-0.018s-0.004-0.017 0-0.028c0.077-0.232 0.241-0.342 0.493-0.329 0.025 0.002 0.036 0.015 0.035 0.039-0.004 0.121-0.015 0.243-0.033 0.365-0.008 0.052 0.006 0.086 0.042 0.102 0.026 0.012 0.036 0.004 0.029-0.024-0.025-0.106-0.048-0.418 0.079-0.471 0.032-0.014 0.063-0.010 0.092 0.012 0.018 0.014 0.038 0.022 0.061 0.023l0.525 0.034c0.031 0.002 0.046 0.019 0.045 0.050-0.005 0.229 0.007 0.456 0.034 0.679 0.051 0.414 0.035 0.839-0.008 1.163-0.038 0.279-0.448 0.235-0.624 0.197-0.156-0.033-0.233-0.13-0.231-0.289l0.013-1.165c0-0.031-0.014-0.040-0.042-0.026l-0.101 0.049c-0.029 0.014-0.050 0.006-0.064-0.023l-0.026-0.055c-0.006-0.012-0.019-0.020-0.033-0.020s-0.027 0.008-0.033 0.021l-0.030 0.066c-0.012 0.026-0.034 0.045-0.062 0.052-0.126 0.034-0.176 0.112-0.151 0.235 0.005 0.024-0.007 0.048-0.028 0.060-0.084 0.046-0.112 0.104-0.084 0.176 0.109 0.277 0.092 0.546 0.004 0.827-0.010 0.030-0.033 0.054-0.063 0.063-0.176 0.055-0.357 0.062-0.543 0.022-0.021-0.004-0.040-0.017-0.053-0.035-0.226-0.314-0.089-1.145-0.090-1.492v-0c0-0.021-0.017-0.039-0.039-0.039-0.001 0-0.003 0-0.004 0zM2.269 24.206l-0.057-0.16c-0.005-0.015-0.020-0.025-0.036-0.025-0.021 0-0.038 0.016-0.039 0.037-0.004 0.152 0.053 0.273 0.17 0.365 0.013 0.010 0.020 0.007 0.021-0.009l0.015-0.17c0-0.001 0-0.001 0-0.002 0-0.014-0.011-0.025-0.025-0.025-0.001 0-0.001 0-0.002 0l-0.026 0.002c-0.011 0.001-0.018-0.004-0.022-0.014zM2.203 24.754l0.056 0.055c0.005 0.006 0.013 0.009 0.021 0.009 0.016 0 0.029-0.013 0.029-0.029 0-0.003-0.001-0.007-0.002-0.010-0.018-0.052-0.049-0.072-0.094-0.061-0.024 0.006-0.027 0.018-0.010 0.035zM3.692 25.028c-0.051 0.079-0.046 0.156 0.017 0.232 0.005 0.005 0.011 0.008 0.018 0.008 0.014 0 0.025-0.011 0.025-0.025 0-0 0-0 0-0.001l-0.009-0.202c-0.001-0.014-0.013-0.026-0.028-0.026-0.009 0-0.018 0.005-0.023 0.013zM0.849 25.327c-0 0.002-0.001 0.004-0.001 0.007 0 0.017 0.014 0.032 0.032 0.032 0.011 0 0.021-0.006 0.027-0.015l0.060-0.089c0.006-0.009 0.007-0.019 0.005-0.029-0.005-0.021-0.029-0.034-0.053-0.028-0.011 0.003-0.020 0.009-0.027 0.017-0.022 0.032-0.036 0.067-0.043 0.106zM0.988 22.899l0.016 0.022c0.006 0.008 0.016 0.013 0.026 0.013 0.015 0 0.028-0.010 0.032-0.025l0.019-0.075c0.001-0.002 0.001-0.005 0.001-0.007 0-0.014-0.011-0.025-0.025-0.025-0.006 0-0.011 0.002-0.016 0.005l-0.045 0.033c-0.018 0.013-0.022 0.039-0.009 0.058l0 0zM1.474 22.903l0.088 0.025c0.003 0.001 0.006 0.001 0.009 0.001 0.018 0 0.033-0.015 0.033-0.033 0-0.009-0.004-0.017-0.010-0.024-0.030-0.030-0.067-0.044-0.11-0.044-0.020 0-0.037 0.017-0.037 0.038 0 0.017 0.011 0.032 0.027 0.036zM0.565 25.32l0.122 0.073c0.007 0.004 0.014 0.006 0.022 0.006 0.024 0 0.043-0.020 0.043-0.043 0-0.008-0.002-0.016-0.007-0.023-0.034-0.053-0.085-0.084-0.153-0.093-0.002-0-0.003-0-0.005-0-0.024 0-0.043 0.019-0.043 0.043 0 0.015 0.008 0.029 0.020 0.036zM3.467 22.75c0.105-0.089 0.215-0.097 0.329-0.025 0.022 0.014 0.033 0.034 0.034 0.059l0.014 0.331c0.002 0.031-0.013 0.049-0.045 0.053l-0.621 0.077c-0.002 0-0.004 0-0.006 0-0.024 0-0.043-0.020-0.043-0.043 0-0.003 0-0.007 0.001-0.010 0.042-0.175-0.003-0.437 0.193-0.531 0.014-0.007 0.030-0.008 0.045-0.004 0.034 0.009 0.048 0.029 0.042 0.059-0 0.002-0.001 0.004-0.001 0.006 0 0.019 0.016 0.035 0.035 0.035 0.008 0 0.016-0.003 0.022-0.008zM3.531 23.055c0.044-0.067 0.062-0.11 0.053-0.127-0.004-0.008-0.011-0.016-0.019-0.023-0.024-0.019-0.056-0.020-0.071-0.001-0.005 0.006-0.007 0.014-0.008 0.022v0.116c0 0.013 0.011 0.024 0.024 0.024 0.008 0 0.016-0.004 0.020-0.011zM3.376 22.794c-0.001-0.001-0.001-0.002-0.002-0.003-0.010-0.013-0.030-0.016-0.044-0.005-0.001 0.001-0.002 0.001-0.003 0.002l-0.025 0.025c-0.008 0.008-0.012 0.018-0.012 0.029 0 0.018 0.011 0.033 0.028 0.039 0.090 0.030 0.11 0.001 0.058-0.087zM5.122 23.565c-0.004 0.010-0.003 0.019 0.001 0.027 0.010 0.019 0.040 0.022 0.066 0.008 0.011-0.006 0.020-0.014 0.026-0.024 0.069-0.125 0.135-0.183 0.196-0.176 0.017 0.002 0.025-0.005 0.023-0.022-0.022-0.23-0.014-0.46 0.022-0.69 0.005-0.029 0.021-0.039 0.049-0.031 0.117 0.035 0.17 0.097 0.159 0.185-0.003 0.026 0.001 0.050 0.012 0.073l0.072 0.146c0.001 0.002 0.002 0.004 0.004 0.006 0.014 0.020 0.042 0.024 0.062 0.010 0.002-0.001 0.004-0.003 0.005-0.004l0.098-0.098c0.006-0.006 0.015-0.010 0.024-0.010 0.019 0 0.034 0.015 0.034 0.034v0.062c0 0.029 0.012 0.036 0.037 0.022l0.022-0.013c0.026-0.015 0.027-0.032 0.005-0.051-0.043-0.035-0.057-0.082-0.044-0.14 0.007-0.029-0.002-0.052-0.027-0.069-0.082-0.056-0.157-0.051-0.225 0.016-0.004 0.004-0.008 0.006-0.014 0.006-0.011 0.001-0.021-0.008-0.021-0.018-0-0.005 0.002-0.010 0.005-0.014 0.098-0.121 0.227-0.168 0.387-0.139 0.025 0.005 0.045 0.017 0.061 0.037 0.174 0.223 0.126 0.632 0.126 0.904 0 0.592 0.050 1.195-0.052 1.815-0.004 0.026-0.024 0.047-0.049 0.053-0.2 0.051-0.403 0.062-0.608 0.031-0.026-0.004-0.048-0.017-0.064-0.038l-0.066-0.087c-0.019-0.024-0.041-0.028-0.066-0.012l-0.312 0.184c-0.021 0.012-0.042 0.018-0.066 0.018-0.125 0.002-0.234 0.021-0.346-0.045-0.214-0.126-0.402-0.261-0.489-0.505-0.253-0.707-0.093-1.857 0.97-1.631 0.006 0.001 0.011 0.003 0.016 0.006 0.031 0.016 0.042 0.055 0.026 0.086-0.003 0.005-0.006 0.010-0.010 0.014-0.019 0.020-0.035 0.044-0.047 0.072zM5.085 25.009c0.031 0.022 0.068 0.034 0.106 0.034 0.063 0 0.121-0.032 0.155-0.085l0.161-0.249c0.011-0.017 0.012-0.040 0.002-0.059-0.091-0.172-0.115-0.352-0.072-0.54 0.006-0.027-0-0.055-0.018-0.077l-0.203-0.255c-0.001-0.001-0.002-0.002-0.003-0.003-0.019-0.020-0.050-0.021-0.070-0.002-0.001 0.001-0.002 0.002-0.003 0.003l-0.2 0.22c-0.018 0.019-0.026 0.042-0.026 0.068 0.003 0.244-0.046 0.792 0.17 0.946zM4.769 25.286c0.050-0.006 0.074-0.032 0.070-0.076-0.001-0.013-0.006-0.025-0.015-0.035-0.021-0.023-0.058-0.023-0.081-0.002-0.009 0.009-0.016 0.021-0.018 0.033l-0.005 0.031c-0.005 0.037 0.012 0.053 0.049 0.049zM5.93 25.080c-0.019 0.016-0.021 0.039-0.006 0.068 0.019 0.038 0.035 0.037 0.048-0.004l0.046-0.155c0.001-0.003 0.001-0.005 0.001-0.008 0-0.019-0.015-0.034-0.034-0.034-0.012 0-0.023 0.006-0.029 0.016-0.018 0.032-0.027 0.071-0.026 0.117zM5.742 23.31v-0.094c0-0.002-0-0.005-0.001-0.007-0.004-0.013-0.018-0.021-0.031-0.018-0.002 0.001-0.005 0.002-0.007 0.003-0.019 0.012-0.030 0.028-0.035 0.047-0.004 0.015-0 0.038 0.012 0.068 0.013 0.033 0.016 0.070 0.008 0.111-0 0.002-0 0.003-0 0.005 0 0.018 0.015 0.032 0.032 0.032 0.008 0 0.016-0.003 0.022-0.009 0.075-0.072 0.164-0.116 0.267-0.133 0.041-0.006 0.045-0.023 0.015-0.049l-0.107-0.095c-0.007-0.006-0.015-0.009-0.024-0.009-0.019 0-0.035 0.016-0.035 0.035 0 0 0 0.001 0 0.001v0.096c0 0.034-0.017 0.053-0.052 0.055-0.010 0.001-0.021-0-0.032-0.002-0.021-0.004-0.032-0.017-0.032-0.039zM4.627 25.226c0.044-0.032 0.068-0.079 0.071-0.14 0.003-0.054-0.013-0.061-0.049-0.021l-0.083 0.093c-0.007 0.008-0.011 0.019-0.011 0.030 0 0.025 0.021 0.046 0.046 0.046 0.009 0 0.019-0.003 0.026-0.008zM26.851 24.438c0.054 0.042 0.068 0.099 0.043 0.172-0.007 0.020-0.001 0.031 0.020 0.035l0.506 0.096c0.025 0.005 0.050 0.004 0.075-0.003 0.614-0.164 1.138 0.208 0.973 0.861-0.006 0.022-0.019 0.042-0.036 0.057-0.23 0.19-0.334 0.46-0.696 0.405-0.024-0.004-0.048-0.002-0.072 0.005-0.165 0.050-0.331 0.064-0.498 0.042-0.22-0.029-0.347-0.046-0.381-0.051-0.502-0.072-0.831-0.526-0.398-0.956 0.018-0.018 0.018-0.037 0-0.055-0.26-0.261-0.005-0.622 0.277-0.708 0.038-0.011 0.044-0.032 0.017-0.061-0.037-0.041-0.081-0.071-0.132-0.091-0.026-0.010-0.048-0.026-0.066-0.047-0.093-0.106-0.246-0.398-0.093-0.513 0.020-0.015 0.034-0.034 0.042-0.059 0.072-0.215 0.412-0.327 0.598-0.318 0.028 0.002 0.055-0.002 0.082-0.009 0.102-0.029 0.206-0.037 0.312-0.025 0.024 0.003 0.045 0.011 0.065 0.024 0.033 0.023 0.069 0.034 0.108 0.034 0.025-0.001 0.045-0.012 0.061-0.032l0.311-0.42c0.020-0.026 0.052-0.041 0.086-0.039l0.376 0.032c0.036 0.003 0.064 0.034 0.064 0.070 0 0.027-0.016 0.052-0.040 0.063l-0.187 0.086c-0.013 0.006-0.021 0.019-0.021 0.033 0 0.017 0.012 0.032 0.029 0.036l0.172 0.034c0.010 0.002 0.016 0.011 0.016 0.020 0 0.004-0.001 0.008-0.003 0.011-0.065 0.096-0.155 0.149-0.272 0.159-0.030 0.002-0.053 0.028-0.053 0.058 0 0.009 0.002 0.018 0.006 0.026 0.201 0.406 0.136 0.713-0.193 0.921-0.247 0.156-0.689 0.102-0.985 0.109-0.021 0.001-0.037-0.008-0.048-0.025-0.011-0.018-0.027-0.028-0.048-0.027-0.004 0-0.008 0.001-0.012 0.003-0.013 0.006-0.018 0.023-0.011 0.036 0.002 0.004 0.004 0.007 0.007 0.009zM27.055 23.7c-0.030 0.035-0.032 0.087-0.005 0.124l0.183 0.251c0.019 0.027 0.044 0.034 0.075 0.022l0.261-0.104c0.022-0.009 0.037-0.030 0.039-0.053 0.018-0.306-0.351-0.481-0.553-0.24zM28.031 23.455c0.018-0.001 0.032-0.015 0.032-0.033 0-0.009-0.004-0.018-0.010-0.024l-0.047-0.047c-0.027-0.027-0.042-0.021-0.046 0.017-0.006 0.061 0.018 0.090 0.072 0.087zM27.821 23.64c0.025-0.006 0.040-0.022 0.043-0.049 0.004-0.025-0.007-0.035-0.032-0.030l-0.044 0.008c-0.001 0-0.002 0-0.003 0.001-0.016 0.005-0.025 0.022-0.020 0.038 0 0.001 0.001 0.002 0.001 0.003 0.016 0.039 0.029 0.052 0.040 0.039 0.004-0.005 0.008-0.008 0.015-0.010zM28.303 25.367c0.001 0.001 0.001 0.001 0.002 0.002 0.009 0.008 0.024 0.007 0.032-0.003 0.001-0.001 0.001-0.001 0.001-0.002 0.043-0.062 0.027-0.105-0.046-0.129-0.008-0.003-0.016-0.003-0.024-0.001-0.023 0.005-0.038 0.030-0.033 0.053 0.002 0.008 0.006 0.015 0.011 0.021l0.056 0.059zM26.895 25.552c0.309 0.157 0.617 0.166 0.923 0.026 0.025-0.011 0.038-0.039 0.032-0.065l-0.041-0.163c-0.004-0.017-0.019-0.028-0.036-0.028-0.3 0.006-0.509-0.107-0.913-0.030-0.023 0.005-0.039 0.018-0.048 0.039-0.040 0.099-0.012 0.172 0.082 0.22zM28.289 25.495c0.021-0.085-0.006-0.117-0.079-0.094-0.002 0.001-0.003 0.001-0.005 0.002-0.028 0.012-0.042 0.044-0.030 0.072 0.001 0.002 0.002 0.003 0.002 0.005 0.027 0.050 0.060 0.062 0.099 0.034 0.006-0.004 0.011-0.011 0.013-0.018zM26.423 25.598l0.18 0.069c0.002 0.001 0.005 0.001 0.007 0.001 0.015 0 0.028-0.012 0.028-0.028 0-0.010-0.005-0.019-0.014-0.024-0.060-0.026-0.122-0.047-0.187-0.063-0.006-0.002-0.012-0.001-0.018 0.002-0.012 0.006-0.017 0.020-0.011 0.032 0.003 0.006 0.008 0.010 0.014 0.011zM14.765 24.742c0.248 0.059 0.498 0.082 0.748 0.068 0.309-0.017 0.479 0.027 0.688 0.228 0.015 0.014 0.026 0.032 0.032 0.052l0.115 0.347c0.007 0.022 0.007 0.043 0.001 0.066-0.094 0.298-0.296 0.589-0.63 0.64-0.28 0.042-0.561 0.066-0.843 0.072-0.023 0.001-0.049-0.013-0.078-0.041-0.018-0.017-0.039-0.021-0.062-0.012-0.441 0.166-0.776-0.375-0.721-0.751 0.004-0.024 0.016-0.042 0.037-0.055l0.162-0.099c0.025-0.016 0.032-0.049 0.017-0.074-0.157-0.253-0.119-0.482 0.115-0.687 0.009-0.007 0.020-0.012 0.032-0.012 0.059-0.004 0.105-0.029 0.136-0.075 0.005-0.007 0.008-0.016 0.008-0.025 0-0.018-0.011-0.035-0.029-0.041-0.584-0.21-0.257-0.936 0.224-0.985 0.028-0.003 0.146-0.017 0.352-0.045 0.135-0.018 0.266 0.004 0.395 0.066 0.001 0 0.002 0.001 0.002 0.001 0.023 0.009 0.050-0.002 0.059-0.024 0-0.001 0.001-0.002 0.001-0.003 0.062-0.183 0.173-0.328 0.332-0.435 0.017-0.012 0.038-0.017 0.059-0.015l0.329 0.032c0.010 0.001 0.020 0.004 0.028 0.010 0.027 0.019 0.034 0.057 0.015 0.084-0.006 0.008-0.013 0.015-0.022 0.020l-0.172 0.087c-0.012 0.006-0.020 0.019-0.020 0.032 0 0.017 0.012 0.032 0.029 0.035l0.104 0.022c0.018 0.004 0.035 0.013 0.048 0.026 0.035 0.036 0.035 0.095-0.002 0.13-0.013 0.013-0.031 0.021-0.049 0.024l-0.193 0.032c-0.018 0.003-0.033 0.014-0.042 0.031-0.031 0.062-0.016 0.11 0.045 0.144 0.021 0.012 0.035 0.033 0.038 0.056 0.022 0.179 0.049 0.373-0.043 0.533-0.154 0.266-0.397 0.37-0.731 0.312-0.029-0.005-0.057 0-0.082 0.014-0.072 0.040-0.144 0.036-0.215-0.011-0.022-0.015-0.049-0.018-0.073-0.008-0.070 0.029-0.138 0.021-0.204-0.024-0.019-0.013-0.034-0.010-0.045 0.011l-0.014 0.026c-0.001 0.001-0.001 0.003-0.001 0.005 0 0.005 0.004 0.010 0.009 0.011 0.090 0.021 0.119 0.073 0.086 0.156-0.010 0.026-0.002 0.042 0.025 0.049zM16.129 25.49c-0.074-0.001-0.117 0.029-0.13 0.089-0.009 0.041 0.006 0.055 0.047 0.043l0.023-0.008c0.017-0.005 0.028-0.016 0.033-0.034l0.027-0.091zM16.129 25.49c0.028 0.001 0.052-0.015 0.072-0.049 0.005-0.009 0.008-0.019 0.008-0.029 0-0.024-0.016-0.046-0.039-0.053l-0.050-0.015c-0.038-0.012-0.049 0.001-0.035 0.037l0.043 0.11zM15.645 23.666c-0.023-0.026-0.031-0.007-0.024 0.055 0.002 0.018 0.018 0.032 0.035 0.032h0.020c0.001 0 0.001 0 0.002-0 0.011-0.001 0.020-0.011 0.019-0.023 0-0-0-0.001-0-0.001-0.004-0.028-0.016-0.045-0.037-0.052-0.006-0.002-0.011-0.005-0.015-0.010zM15.817 23.54c0.002 0.011 0.003 0.018 0.004 0.021 0.003 0.013 0.015 0.022 0.028 0.022 0.016 0 0.029-0.013 0.029-0.029v-0l-0.006-0.082c-0.002-0.018-0.018-0.033-0.036-0.033-0.012 0-0.023 0.006-0.029 0.015-0.014 0.021-0.013 0.043 0.003 0.066 0.004 0.006 0.007 0.013 0.008 0.019zM15.607 24.903l0.025 0.042c0.020 0.034 0.036 0.033 0.049-0.005 0.012-0.033 0.006-0.060-0.018-0.082-0.007-0.007-0.016-0.010-0.025-0.010-0.020 0-0.036 0.016-0.036 0.036 0 0.007 0.002 0.013 0.005 0.019zM14.639 25.61c0.193 0.131 0.381 0.179 0.563 0.146 0.025-0.004 0.050-0.003 0.076 0.002 0.187 0.045 0.42-0.043 0.387-0.271-0.004-0.027-0.019-0.045-0.045-0.053-0.087-0.026-0.176-0.032-0.268-0.020-0.011 0.002-0.020-0.002-0.029-0.009l-0.025-0.025c-0.020-0.020-0.043-0.028-0.071-0.025l-0.535 0.050c-0.057 0.006-0.102 0.054-0.102 0.112 0 0.037 0.018 0.072 0.049 0.093zM14.395 25.751c-0.007 0.027 0 0.047 0.022 0.059 0.006 0.003 0.013 0.005 0.020 0.005 0.022 0 0.041-0.018 0.041-0.041 0-0.010-0.004-0.019-0.010-0.027-0.049-0.056-0.11-0.092-0.185-0.106-0.001-0-0.002-0-0.004-0-0.020-0.001-0.038 0.014-0.039 0.034-0 0.001-0 0.003-0 0.004v0.024c0 0.022 0.018 0.040 0.040 0.040 0.005 0 0.009-0.001 0.014-0.002l0.064-0.024c0.035-0.013 0.048-0.001 0.038 0.035zM15.040 24.168c0.563 0.211 0.503-0.711-0.128-0.419-0.043 0.020-0.071 0.063-0.071 0.11 0 0.040 0.020 0.078 0.054 0.1 0.056 0.038 0.088 0.087 0.097 0.15 0.004 0.029 0.020 0.048 0.048 0.059zM29.352 23.232c0.078-0.057 0.246-0.018 0.205 0.121-0.008 0.026-0.009 0.053-0.005 0.080 0.085 0.601 0.088 1.201 0.008 1.801-0.006 0.043-0.030 0.069-0.072 0.079-0.19 0.047-0.691 0.139-0.721-0.192-0.053-0.577-0.053-1.155 0.001-1.733 0.006-0.068 0.028-0.15 0.064-0.244 0.005-0.012 0.016-0.020 0.029-0.020 0.010 0 0.019 0.004 0.025 0.012l0.057 0.072c0.017 0.022 0.039 0.028 0.065 0.016 0.101-0.044 0.196-0.041 0.284 0.008 0.021 0.012 0.040 0.011 0.059-0.003zM29.432 24.859c0.014-0.034-0.004-0.050-0.055-0.048-0.010 0.001-0.019 0.005-0.025 0.013-0.065 0.080-0.059 0.151 0.018 0.215 0.006 0.005 0.013 0.007 0.021 0.007 0.018 0 0.033-0.014 0.033-0.032v-0.114c0-0.014 0.003-0.028 0.008-0.042zM31.242 23.797c-0.089-0.107-0.193-0.139-0.31-0.096-0.024 0.009-0.041 0.026-0.050 0.051-0.126 0.35-0.048 0.543-0.077 0.893-0.003 0.031 0.011 0.051 0.040 0.061 0.076 0.026 0.127 0.077 0.153 0.153 0.006 0.018 0.022 0.030 0.041 0.030 0.007 0 0.013-0.002 0.019-0.004 0.107-0.051 0.181-0.132 0.222-0.244 0.009-0.024 0.026-0.045 0.049-0.057 0.133-0.075 0.782-0.215 0.655 0.173-0.2 0.612-1.022 0.795-1.528 0.448-0.41-0.281-0.579-0.675-0.508-1.182 0.056-0.4 0.533-0.887 0.95-0.897 0.456-0.011 0.875 0.131 1.076 0.549 0.107 0.222-0.155 0.332-0.329 0.304-0.101-0.015-0.129-0.001-0.213 0.036-0.020 0.009-0.043 0.007-0.061-0.006-0.050-0.035-0.082-0.083-0.096-0.144-0.006-0.025-0.017-0.047-0.033-0.066zM31.891 23.685c0.004-0.005 0.006-0.011 0.006-0.017 0-0.016-0.013-0.029-0.029-0.029h-0.056c-0.001 0-0.001-0-0.002-0-0.020 0-0.037 0.017-0.037 0.037 0 0.015 0.010 0.029 0.024 0.035 0.039 0.016 0.070 0.007 0.094-0.026zM31.659 23.471c-0.012 0.003-0.021 0.014-0.021 0.026 0 0.005 0.001 0.010 0.004 0.015 0.014 0.022 0.035 0.038 0.062 0.046 0.005 0.002 0.010 0.003 0.016 0.003 0.022 0 0.041-0.018 0.041-0.041 0-0.017-0.010-0.031-0.025-0.038-0.025-0.013-0.051-0.017-0.077-0.012zM30.203 24.759c0.013 0.021 0.033 0.033 0.060 0.039 0.039 0.008 0.048-0.006 0.028-0.040-0.031-0.052-0.073-0.091-0.127-0.117-0.003-0.002-0.007-0.003-0.011-0.003-0.011 0-0.021 0.009-0.021 0.021 0 0.006 0.003 0.012 0.007 0.016l0.020 0.020c0.004 0.004 0.018 0.025 0.043 0.065zM31.675 23.68c-0.046-0.044-0.1-0.070-0.162-0.079-0.043-0.007-0.050 0.007-0.022 0.040 0.056 0.069 0.112 0.099 0.167 0.092 0.041-0.006 0.047-0.024 0.017-0.052zM31.539 24.9c0.004 0.011 0.007 0.022 0.011 0.031 0.012 0.030 0.029 0.033 0.049 0.008l0.080-0.099c0.004-0.005 0.007-0.012 0.007-0.019 0-0.017-0.014-0.030-0.030-0.030-0.009 0-0.017 0.004-0.023 0.011-0.016 0.019-0.033 0.038-0.051 0.058-0.006 0.007-0.015 0.011-0.024 0.011-0.018 0-0.033-0.015-0.033-0.033 0-0.003 0-0.006 0.001-0.009 0.010-0.033 0.012-0.063 0.005-0.090-0.002-0.010-0.007-0.018-0.014-0.021-0.015-0.007-0.037 0.005-0.047 0.028-0.005 0.011-0.007 0.023-0.005 0.033 0.006 0.046 0.028 0.083 0.066 0.112 0.004 0.003 0.007 0.007 0.008 0.012zM30.501 24.799c0.011-0.023-0.010-0.055-0.047-0.073s-0.076-0.014-0.086 0.009c-0.011 0.023 0.010 0.055 0.047 0.073s0.076 0.014 0.086-0.009zM31.356 25.042l0.018 0.018c0.005 0.005 0.012 0.008 0.019 0.008 0.015 0 0.028-0.012 0.028-0.028 0-0.002-0-0.005-0.001-0.007-0.015-0.055-0.051-0.084-0.107-0.086-0.030-0.001-0.039 0.012-0.027 0.040 0.008 0.020 0.023 0.033 0.045 0.040 0.009 0.003 0.017 0.007 0.024 0.014zM30.936 25.11l0.143-0.014c0.015-0.003 0.025-0.015 0.025-0.030s-0.012-0.029-0.027-0.031l-0.241-0.011c-0.001-0-0.002-0-0.002-0-0.024 0-0.044 0.020-0.044 0.044 0 0.008 0.002 0.016 0.006 0.022 0.022 0.036 0.051 0.046 0.089 0.032 0.016-0.007 0.033-0.011 0.050-0.012zM25.148 23.82c-0.216-0.385-0.52-0.098-0.698 0.102-0.020 0.023-0.054 0.028-0.080 0.012-0.104-0.061-0.218-0.103-0.342-0.126-0.014-0.002-0.027-0.007-0.040-0.013-0.077-0.037-0.11-0.131-0.072-0.209 0.006-0.013 0.014-0.025 0.023-0.035 0.361-0.412 0.852-0.422 1.437-0.331 0.218 0.034 0.377 0.147 0.479 0.338 0.183 0.345 0.078 1.234 0.084 1.646 0.001 0.025-0.007 0.048-0.023 0.067-0.128 0.16-0.419 0.094-0.597 0.076-0.008-0.001-0.017-0.003-0.025-0.006-0.058-0.020-0.089-0.083-0.069-0.14 0.003-0.008 0.006-0.016 0.011-0.023 0.006-0.009 0.014-0.026 0.025-0.049 0.012-0.026 0.005-0.035-0.022-0.027l-0.17 0.050c-0.010 0.003-0.019 0.010-0.023 0.019l-0.021 0.043c-0.013 0.027-0.033 0.048-0.059 0.063-0.134 0.077-0.277 0.12-0.432 0.132-0.093 0.007-0.164-0.048-0.271-0.023-0.024 0.006-0.047 0.004-0.069-0.006-0.606-0.266-0.568-0.905-0.024-1.206 0.022-0.012 0.047-0.017 0.072-0.015 0.062 0.007 0.116-0.010 0.161-0.049 0.021-0.018 0.045-0.030 0.073-0.034l0.592-0.091c0.055-0.009 0.095-0.056 0.095-0.111 0-0.019-0.005-0.038-0.014-0.055zM25.599 23.491c-0.036-0.053-0.062-0.077-0.078-0.072-0.039 0.012-0.066 0.048-0.066 0.088 0 0.051 0.042 0.093 0.093 0.093 0.004 0 0.007-0 0.011-0.001 0.032-0.004 0.048-0.031 0.048-0.083 0-0.009-0.003-0.018-0.008-0.025zM24.894 23.347c-0.001-0.004-0.002-0.008-0.002-0.012 0-0.021 0.017-0.039 0.039-0.039 0.010 0 0.020 0.004 0.027 0.011l0.048 0.047c0.003 0.003 0.006 0.007 0.008 0.012 0.007 0.017-0.002 0.036-0.020 0.043-0.004 0.002-0.009 0.002-0.013 0.002-0.042-0.002-0.071-0.023-0.086-0.064zM24.362 23.522c0.008-0.026 0.019-0.051 0.032-0.075 0.023-0.044 0.013-0.055-0.032-0.033l-0.205 0.103c-0.013 0.007-0.022 0.021-0.022 0.036s0.009 0.029 0.023 0.036l0.147 0.071c0.005 0.002 0.010 0.004 0.015 0.004 0.019 0 0.035-0.016 0.035-0.035 0-0 0-0 0-0v-0.068c0-0.013 0.002-0.026 0.006-0.038zM25.683 24.396l0.032 0.015c0.005 0.002 0.011 0.003 0.016 0.003 0.018-0.001 0.033-0.018 0.032-0.037-0-0.006-0.002-0.011-0.005-0.016l-0.018-0.031c-0.007-0.012-0.020-0.019-0.033-0.019s-0.026 0.007-0.033 0.019c-0.007 0.012-0.009 0.022-0.007 0.030 0.007 0.022 0.012 0.034 0.015 0.035zM24.949 24.982c0.124-0.204 0.278-0.342 0.19-0.593-0.008-0.023-0.029-0.039-0.054-0.041-0.213-0.010-0.383 0.072-0.508 0.246-0.014 0.020-0.021 0.045-0.018 0.070 0.014 0.139 0.081 0.256 0.199 0.351 0.023 0.018 0.051 0.029 0.081 0.029 0.045 0 0.087-0.024 0.11-0.062zM25.714 24.851c-0.032 0.048-0.043 0.1-0.034 0.156 0.003 0.017 0.018 0.030 0.036 0.030 0.016 0 0.030-0.010 0.035-0.025 0.022-0.075 0.039-0.151 0.052-0.23 0.003-0.020 0.001-0.035-0.005-0.047-0.009-0.016-0.022-0.026-0.039-0.030-0.027-0.007-0.039 0.004-0.035 0.032l0.006 0.047c0.004 0.024-0.002 0.047-0.015 0.068zM25.257 25.012c0.012 0.016 0.032 0.016 0.059-0.001 0.007-0.004 0.013-0.010 0.018-0.017 0.016-0.025 0.008-0.060-0.018-0.076-0.007-0.004-0.015-0.007-0.023-0.008-0.043-0.005-0.075 0.008-0.094 0.037-0.017 0.026-0.012 0.046 0.016 0.060 0.011 0.005 0.025 0.007 0.042 0.005zM24.561 25.339c0.017-0.002 0.025-0.011 0.025-0.028v-0.030c-0-0.021-0.018-0.038-0.039-0.038-0.017 0-0.032 0.011-0.037 0.028-0.013 0.051 0.003 0.073 0.050 0.068zM24.474 24.475l0.225-0.078c0.020-0.007 0.033-0.026 0.033-0.048 0-0.028-0.023-0.051-0.051-0.051-0 0-0.001 0-0.001 0l-0.383 0.014c-0.019 0.001-0.034 0.017-0.034 0.035 0 0.008 0.002 0.015 0.007 0.021l0.025 0.035c0.026 0.035 0.017 0.052-0.027 0.051-0.066-0.003-0.125-0.025-0.177-0.068-0.023-0.018-0.043-0.016-0.060 0.007-0.11 0.146-0.148 0.311-0.114 0.496 0.006 0.030 0.021 0.053 0.046 0.071 0.047 0.031 0.075 0.076 0.086 0.133 0.003 0.020 0.020 0.037 0.041 0.039l0.372 0.050c0.007 0.001 0.015-0.002 0.018-0.008l0.021-0.035c0.015-0.025 0.035-0.031 0.062-0.018l0.056 0.026c0.004 0.001 0.007 0.002 0.011 0.002 0.017 0 0.031-0.014 0.031-0.031 0-0.009-0.004-0.018-0.011-0.024l-0.090-0.064c-0.016-0.011-0.033-0.012-0.050-0.002l-0.067 0.039c-0.031 0.018-0.051 0.011-0.061-0.024-0.048-0.18-0.035-0.355 0.040-0.524 0.009-0.022 0.028-0.038 0.051-0.046zM25.704 23.871c-0.002-0.004-0.003-0.009-0.003-0.013 0-0.016 0.013-0.029 0.029-0.029 0.005 0 0.009 0.001 0.013 0.003 0.052 0.027 0.071 0.072 0.056 0.136-0.010 0.043-0.024 0.044-0.044 0.005l-0.052-0.102zM21.492 25.017c0.172 0.062 0.385-0.075 0.493 0.115 0.015 0.026 0.032 0.028 0.052 0.005 0.062-0.070 0.074-0.143 0.035-0.219-0.008-0.016-0.010-0.032-0.005-0.049 0.010-0.033 0.028-0.042 0.053-0.027 0.024 0.014 0.036 0.036 0.035 0.064l-0.010 0.355c-0.001 0.027-0.014 0.046-0.039 0.058-0.135 0.058-0.488 0.083-0.52-0.109-0.003-0.021 0.004-0.025 0.022-0.015l0.051 0.030c0.003 0.002 0.006 0.003 0.009 0.004 0.020 0.005 0.040-0.007 0.046-0.027 0.001-0.003 0.001-0.006 0.001-0.010v-0.024c0-0.030-0.025-0.055-0.055-0.055-0 0-0.001 0-0.001 0l-0.172 0.003c-0.028 0.001-0.042 0.015-0.042 0.042v0.087c-0.001 0.027-0.023 0.048-0.049 0.048-0.016 0-0.031-0.008-0.040-0.021l-0.040-0.059c-0.020-0.029-0.015-0.052 0.015-0.070l0.044-0.026c0.015-0.009 0.023-0.023 0.022-0.041l-0.052-1.218c-0.001-0.026-0.016-0.049-0.039-0.061l-0.173-0.091c-0.031-0.016-0.056-0.009-0.075 0.021-0.059 0.099-0.183 0.23-0.13 0.342 0.010 0.022 0.014 0.044 0.013 0.069-0.021 0.381 0.036 0.785-0.075 1.149-0.008 0.025-0.024 0.043-0.048 0.055-0.184 0.085-0.374 0.096-0.567 0.032-0.001-0-0.002-0.001-0.002-0.001-0.069-0.024-0.106-0.102-0.082-0.17 0-0.001 0.001-0.002 0.001-0.003 0.128-0.338-0.158-0.549 0.015-0.931 0.010-0.023 0.009-0.046-0.002-0.069-0.116-0.224-0.191-0.862 0.143-0.947 0.237-0.060 0.444-0.005 0.621 0.164 0.018 0.017 0.036 0.017 0.055 0.001 0.326-0.297 0.742-0.266 1.038 0.039 0.017 0.018 0.036 0.020 0.057 0.005 0.219-0.156 0.462-0.244 0.727-0.264 0.56-0.041 0.633 0.89 0.563 1.193-0.099 0.432-0.429 0.299-0.734 0.328-0.027 0.003-0.053-0.015-0.061-0.042-0.015-0.049-0.009-0.098 0.018-0.146 0.010-0.019 0.014-0.039 0.010-0.060-0.040-0.228 0.057-0.703-0.28-0.703-0.025 0-0.044 0.010-0.059 0.031-0.060 0.083-0.14 0.064-0.184 0.131-0.024 0.035-0.026 0.076-0.007 0.122 0.010 0.022 0.012 0.045 0.008 0.069-0.022 0.121-0.072 0.229-0.15 0.325-0.006 0.008-0.009 0.019-0.008 0.029l0.033 0.315c0.004 0.036-0.022 0.068-0.057 0.073l-0.29 0.040c-0.013 0.002-0.026-0.002-0.036-0.012l-0.035-0.035c-0.028-0.027-0.048-0.023-0.060 0.014l-0.029 0.091c-0.009 0.027-0 0.046 0.027 0.056zM21.757 24.784l0.122-0.025c0.007-0.002 0.013-0.008 0.013-0.016s-0.005-0.014-0.013-0.016c-0.080-0.017-0.151 0.004-0.213 0.062-0.006 0.006-0.010 0.014-0.010 0.022 0 0.017 0.014 0.031 0.031 0.031 0.003 0 0.006-0.001 0.010-0.002 0.027-0.009 0.041-0.021 0.043-0.037 0.001-0.011 0.007-0.017 0.018-0.020zM22.086 23.829c-0.004-0.024-0.018-0.035-0.042-0.035h-0.035c-0.016 0-0.030 0.014-0.030 0.030 0 0.008 0.003 0.016 0.009 0.022 0.024 0.023 0.049 0.031 0.076 0.024 0.019-0.005 0.027-0.018 0.023-0.040zM20.737 24.697c0.015-0.020 0.033-0.022 0.053-0.008 0.017 0.011 0.023 0.030 0.019 0.055-0.004 0.020-0.022 0.035-0.042 0.035-0.018 0-0.035-0.012-0.041-0.029-0.006-0.018-0.003-0.036 0.011-0.053zM20.758 24.896l-0.032 0.033c-0.008 0.009-0.013 0.020-0.013 0.032 0 0.016 0.008 0.031 0.022 0.039 0.023 0.014 0.042 0.011 0.058-0.010 0.023-0.031 0.028-0.059 0.016-0.085-0.012-0.027-0.029-0.030-0.050-0.009zM19.502 23.329c-0.008 0.015-0.018 0.028-0.029 0.040l-0.045 0.045c-0.004 0.005-0.008 0.011-0.009 0.017-0.003 0.018 0.008 0.035 0.026 0.038 0.006 0.001 0.013 0 0.019-0.002l0.191-0.087c0.021-0.009 0.034-0.030 0.034-0.052 0-0.020-0.011-0.039-0.029-0.049-0.068-0.040-0.121-0.023-0.158 0.051zM11.715 23.542v-0.022c0.001-0.022 0.010-0.040 0.028-0.054 0.65-0.498 1.253 0.063 1.105 0.786-0.036 0.178-0.027 0.407 0.027 0.688 0.027 0.139-0.006 0.247-0.005 0.387 0.001 0.027-0.012 0.046-0.036 0.057-0.191 0.084-0.575-0.002-0.664 0.106-0.009 0.011-0.024 0.018-0.039 0.018-0.028 0-0.050-0.023-0.050-0.050 0-0.001 0-0.002 0-0.003 0.026-0.43 0.033-0.86 0.021-1.293-0.001-0.021-0.006-0.040-0.015-0.059l-0.111-0.227c-0.021-0.042-0.064-0.069-0.111-0.069-0.022 0-0.043 0.006-0.062 0.017-0.126 0.073-0.19 0.187-0.192 0.341-0.004 0.327-0.017 0.653-0.041 0.979-0.019 0.261-0.152 0.383-0.399 0.366-0.365-0.024-0.437-0.076-0.352-0.479 0.023-0.11 0.026-0.212 0.008-0.305-0.079-0.424-0.099-0.805-0.060-1.142 0.031-0.274 0.509-0.222 0.706-0.231 0.031-0.002 0.043 0.013 0.035 0.043l-0.039 0.143c-0.001 0.004-0.002 0.008-0.002 0.012 0 0.024 0.020 0.044 0.044 0.044 0.001 0 0.003 0 0.004-0l0.167-0.016c0.022-0.002 0.032-0.014 0.032-0.035zM12.512 25.253c-0.064-0.043-0.124-0.038-0.178 0.014-0.011 0.011-0.017 0.025-0.017 0.041 0 0.031 0.025 0.056 0.056 0.056 0.008 0 0.016-0.002 0.023-0.005l0.112-0.052c0.033-0.015 0.035-0.033 0.004-0.053zM11.007 24.032c0.035-0.007 0.054-0.029 0.056-0.066 0.001-0.017-0.004-0.032-0.015-0.043-0.024-0.025-0.068-0.021-0.099 0.008-0.014 0.013-0.023 0.030-0.026 0.047-0.004 0.023-0.002 0.036 0.005 0.040 0.027 0.014 0.053 0.019 0.078 0.015zM10.995 24.285l-0.015 0.049c-0.015 0.048-0 0.062 0.045 0.040l0.039-0.018c0.032-0.015 0.038-0.037 0.016-0.066l-0.082-0.109c-0.004-0.006-0.011-0.011-0.020-0.014-0.017-0.006-0.035-0.001-0.039 0.011-0.002 0.006-0.001 0.013 0.003 0.019 0.012 0.019 0.026 0.035 0.042 0.049 0.012 0.010 0.015 0.022 0.011 0.037zM13.312 23.352c0.157-0.028 0.312-0.022 0.465 0.020 0.026 0.007 0.041 0.024 0.045 0.051 0.105 0.663 0.11 1.327 0.015 1.992-0.004 0.024-0.018 0.038-0.042 0.040-0.326 0.036-0.768 0.136-0.769-0.373-0.001-0.558 0.016-1.136 0.050-1.735 0-0.008 0.002-0.017 0.005-0.025 0.016-0.039 0.062-0.058 0.101-0.042 0.008 0.003 0.015 0.008 0.021 0.013l0.049 0.043c0.017 0.014 0.036 0.020 0.058 0.015zM13.628 25.112c0.003 0.007 0.007 0.014 0.014 0.018 0.017 0.012 0.040 0.007 0.052-0.010 0.004-0.006 0.007-0.014 0.007-0.021v-0.146c0-0.044-0.013-0.048-0.040-0.014-0.043 0.056-0.054 0.114-0.032 0.173zM7.658 25.315c-0.15 0.229-0.381 0.248-0.678 0.218-0.791-0.081-0.798-1.035-0.103-1.239 0.285-0.083 0.559-0.13 0.822-0.141 0.065-0.002 0.117-0.056 0.117-0.121 0-0.041-0.021-0.080-0.056-0.102l-0.251-0.165c-0.030-0.020-0.060-0.018-0.089 0.003l-0.361 0.268c-0.010 0.008-0.024 0.011-0.036 0.008l-0.446-0.097c-0.021-0.005-0.032-0.017-0.033-0.039-0.010-0.163 0.027-0.273 0.11-0.329 0.464-0.312 0.949-0.374 1.454-0.185 0.342 0.128 0.425 0.449 0.428 0.813 0.003 0.374 0.015 0.732 0.035 1.077 0.007 0.108-0.070 0.204-0.177 0.222-0.154 0.026-0.308 0.018-0.462-0.022-0.031-0.008-0.050-0.027-0.058-0.058l-0.021-0.079c-0.013-0.048-0.056-0.082-0.106-0.082-0.037 0-0.071 0.019-0.091 0.049zM8.136 23.596c-0.012-0.015-0.031-0.019-0.055-0.012-0.017 0.004-0.027 0.021-0.024 0.039 0.014 0.065 0.053 0.104 0.116 0.116 0.003 0.001 0.006 0.001 0.009 0.001 0.025 0 0.045-0.020 0.045-0.045 0-0.002-0-0.004-0-0.005-0.007-0.046-0.037-0.077-0.091-0.093zM7.596 23.481c-0.018-0.030-0.042-0.052-0.072-0.066-0.043-0.020-0.055-0.008-0.036 0.035 0.024 0.056 0.064 0.094 0.119 0.115 0.003 0.001 0.007 0.002 0.011 0.002 0.017 0 0.032-0.014 0.032-0.032 0-0.001-0-0.002-0-0.003-0.002-0.030-0.020-0.047-0.053-0.051zM6.791 23.741l0.11 0.051c0.025 0.012 0.041 0.004 0.046-0.023l0.033-0.154c0.006-0.030-0.005-0.040-0.035-0.030l-0.15 0.052c-0.022 0.008-0.038 0.029-0.038 0.053 0 0.022 0.013 0.042 0.032 0.051zM8.357 24.576c0.052-0.049 0.058-0.093 0.015-0.13-0.003-0.003-0.007-0.005-0.011-0.007-0.020-0.007-0.042 0.002-0.049 0.022-0.002 0.004-0.002 0.009-0.002 0.013v0.081c0 0.044 0.016 0.050 0.048 0.020zM8.417 24.19c0.028-0.068 0.021-0.133-0.021-0.195-0.007-0.010-0.019-0.016-0.031-0.016-0.021 0-0.038 0.017-0.038 0.038 0 0.002 0 0.003 0 0.005l0.022 0.16c0.003 0.017 0.018 0.030 0.035 0.030 0.014 0 0.027-0.009 0.033-0.022zM6.89 24.611l-0.208-0.056c-0.035-0.010-0.053 0.003-0.055 0.039-0.002 0.034-0.018 0.062-0.046 0.084-0.002 0.002-0.005 0.004-0.007 0.006-0.11 0.094-0.112 0.276-0.004 0.403 0.002 0.003 0.005 0.005 0.007 0.008 0.042 0.045 0.073 0.097 0.093 0.156 0.010 0.028 0.030 0.042 0.059 0.042h0.5c0.039 0 0.047-0.016 0.024-0.047-0.060-0.081-0.121-0.094-0.185-0.039-0.010 0.009-0.023 0.014-0.037 0.014-0.031 0-0.057-0.026-0.057-0.057 0-0 0-0.001 0-0.001 0.008-0.25-0.067-0.542 0.287-0.583 0.031-0.005 0.054-0.032 0.054-0.063 0-0.035-0.029-0.064-0.064-0.064h-0l-0.34 0.012c-0.029 0.002-0.037 0.015-0.024 0.041l0.033 0.069c0.018 0.035 0.007 0.048-0.031 0.038zM7.72 24.502c-0.236-0.059-0.515 0.158-0.556 0.376-0.007 0.038 0.008 0.076 0.039 0.099 0.064 0.046 0.119 0.108 0.165 0.185 0.023 0.038 0.064 0.061 0.108 0.061 0.069 0 0.126-0.057 0.126-0.126 0-0.001-0-0.002-0-0.004-0.003-0.070 0.033-0.122 0.107-0.153 0.019-0.009 0.033-0.027 0.035-0.049l0.027-0.315c0.004-0.039-0.014-0.063-0.052-0.073zM8.325 25.075c-0.016 0.013-0.027 0.027-0.032 0.040-0.004 0.010-0.004 0.022-0 0.032 0.008 0.022 0.033 0.033 0.054 0.024 0.010-0.004 0.019-0.012 0.023-0.023 0.045-0.093 0.057-0.19 0.035-0.291-0-0.001-0.001-0.003-0.002-0.004-0.004-0.008-0.014-0.011-0.021-0.007-0.001 0.001-0.003 0.002-0.004 0.003-0.039 0.042-0.050 0.093-0.032 0.154 0.007 0.026-0.001 0.053-0.022 0.070zM7.902 25.163c0.026-0.004 0.042-0.039 0.036-0.077s-0.033-0.066-0.058-0.062c-0.026 0.004-0.042 0.039-0.036 0.077s0.033 0.066 0.058 0.062zM8.895 26.134l0.040 0.059c0.003 0.005 0.005 0.011 0.005 0.017 0 0.017-0.014 0.030-0.030 0.030-0.003 0-0.006-0-0.009-0.001-0.26-0.086-0.236-0.404-0.159-0.609 0.006-0.016 0.022-0.026 0.039-0.026 0.009 0 0.018 0.003 0.025 0.009l0.088 0.066c0.018 0.014 0.036 0.014 0.055 0.001 0.062-0.044 0.127-0.055 0.195-0.033 0.017 0.005 0.034 0.008 0.052 0.008 0.092 0 0.168-0.076 0.168-0.168 0-0.032-0.009-0.064-0.027-0.091-0.1-0.156-0.174-0.342-0.224-0.56-0.021-0.091-0.053-0.154-0.098-0.187-0.022-0.015-0.035-0.036-0.042-0.062-0.091-0.375-0.225-0.733-0.402-1.074-0.009-0.017-0.014-0.037-0.014-0.056 0-0.057 0.040-0.107 0.096-0.12 0.036-0.008 0.072-0.007 0.106 0.001 0.026 0.006 0.052 0.009 0.078 0.008l0.432-0.008c0.025-0.001 0.042 0.010 0.053 0.032l0.221 0.434c0.011 0.021 0.009 0.047-0.004 0.068-0.047 0.073-0.035 0.128 0.036 0.164 0.025 0.012 0.039 0.033 0.041 0.061l0.022 0.281c0.002 0.029 0.026 0.052 0.055 0.052 0.005 0 0.009-0.001 0.014-0.002 0.155-0.042 0.226-0.149 0.214-0.321-0.008-0.116 0.033-0.278 0.122-0.486 0.106-0.248 0.315-0.332 0.56-0.236 0.029 0.011 0.046 0.043 0.039 0.073l-0.062 0.27c-0.004 0.020-0.022 0.034-0.042 0.034-0.010 0-0.019-0.003-0.027-0.009l-0.093-0.070c-0.010-0.008-0.016-0.020-0.016-0.032 0-0.014 0.007-0.027 0.019-0.035l0.031-0.021c0.023-0.015 0.031-0.035 0.022-0.061-0.017-0.052-0.050-0.091-0.098-0.117-0.024-0.013-0.035-0.006-0.034 0.022 0.001 0.022 0.013 0.033 0.036 0.034 0.046 0.002 0.043 0.022-0.008 0.062-0.158 0.122-0.205 0.286-0.141 0.492 0.006 0.018-0 0.037-0.015 0.049l-0.115 0.094c-0.007 0.005-0.011 0.013-0.011 0.021 0 0.014 0.012 0.026 0.026 0.026 0.005 0 0.009-0.001 0.014-0.004l0.142-0.072c0.028-0.014 0.039-0.036 0.033-0.067-0.022-0.12 0.020-0.217 0.127-0.289 0.005-0.004 0.011-0.005 0.018-0.005 0.017 0 0.032 0.014 0.032 0.032-0.002 0.205-0.042 0.381-0.147 0.555-0.042 0.069-0.024 0.157-0.051 0.231-0.065 0.18-0.159 0.351-0.21 0.529-0.163 0.564-0.455 1.405-1.157 0.985-0.042-0.025-0.049-0.017-0.022 0.024zM9.071 24.164c0.011 0.015 0.024 0.019 0.039 0.010 0.029-0.019 0.033-0.046 0.012-0.080-0-0-0-0-0-0-0.007-0.012-0.022-0.016-0.034-0.009l-0 0-0.037 0.022c-0.011 0.007-0.016 0.016-0.015 0.029 0.002 0.019 0.013 0.029 0.035 0.029zM9.183 23.566c-0.002-0.035-0.016-0.056-0.044-0.062-0.018-0.004-0.032 0.003-0.039 0.020l-0.024 0.052c-0.015 0.031-0.032 0.033-0.052 0.005l-0.039-0.052c-0.012-0.017-0.028-0.022-0.048-0.016-0.063 0.020-0.106 0.090-0.076 0.157 0.026 0.056 0.070 0.091 0.132 0.106 0.028 0.006 0.052-0.001 0.072-0.021 0.018-0.018 0.040-0.025 0.066-0.019 0.030 0.007 0.043 0.025 0.041 0.055-0.006 0.077 0.025 0.117 0.094 0.12 0 0 0 0 0 0 0.012 0 0.022-0.010 0.022-0.022 0-0.005-0.002-0.011-0.006-0.015l-0.029-0.029c-0.009-0.009-0.014-0.022-0.014-0.035 0-0.019 0.011-0.036 0.028-0.044l0.052-0.025c0.018-0.009 0.025-0.023 0.019-0.042-0.019-0.063-0.057-0.095-0.114-0.095-0.027 0.001-0.041-0.013-0.042-0.041zM8.961 23.903c0.007 0.050 0.033 0.079 0.080 0.086 0.002 0 0.003 0 0.005 0 0.018 0 0.033-0.015 0.033-0.033 0-0.009-0.004-0.017-0.010-0.023l-0.056-0.055c-0.006-0.006-0.014-0.009-0.022-0.009-0.017 0-0.032 0.014-0.032 0.032 0 0.001 0 0.002 0 0.003zM9.657 24.63c-0.014-0.006-0.025-0.003-0.034 0.010-0.006 0.009-0.006 0.022-0.002 0.039 0.008 0.028 0.025 0.048 0.051 0.060 0.004 0.002 0.008 0.003 0.012 0.003 0.012 0 0.023-0.008 0.027-0.020 0.011-0.041-0.007-0.071-0.054-0.091zM9.674 25.073c-0.028-0.029-0.060-0.051-0.096-0.065-0.005-0.002-0.010-0.003-0.015-0.003-0.022 0-0.041 0.018-0.041 0.041 0 0.014 0.007 0.027 0.019 0.035 0.067 0.045 0.104 0.108 0.11 0.19 0.004 0.054 0.025 0.061 0.062 0.022l0.211-0.219c0.006-0.006 0.009-0.013 0.011-0.021 0.003-0.020-0.012-0.040-0.033-0.043-0.008-0.001-0.016 0-0.023 0.004l-0.138 0.071c-0.025 0.013-0.048 0.009-0.067-0.012zM9.848 25.276c-0.060 0.010-0.091 0.049-0.094 0.116-0.001 0.036 0.013 0.044 0.042 0.022l0.084-0.064c0.010-0.008 0.016-0.020 0.016-0.033 0-0.023-0.019-0.042-0.042-0.042-0.002 0-0.005 0-0.007 0.001zM9.656 25.627l-0.116 0.212c-0.003 0.004-0.005 0.010-0.005 0.015 0 0.015 0.012 0.027 0.027 0.027 0.007 0 0.013-0.003 0.018-0.007 0.070-0.055 0.12-0.125 0.152-0.212 0.002-0.005 0.002-0.009 0.002-0.014 0-0.023-0.019-0.042-0.042-0.042-0.015 0-0.030 0.008-0.037 0.022zM9.011 25.883c0.004-0.015 0.006-0.030 0.007-0.044 0.002-0.031-0.012-0.040-0.040-0.027l-0.117 0.055c-0.036 0.017-0.039 0.039-0.008 0.064 0.044 0.035 0.094 0.056 0.151 0.063 0.028 0.003 0.056 0 0.082-0.009 0.051-0.017 0.105-0.022 0.16-0.013 0.030 0.005 0.050-0.007 0.058-0.037l0.019-0.069c0.002-0.004 0.002-0.008 0.002-0.013 0-0.020-0.017-0.037-0.037-0.037-0.014 0-0.027 0.008-0.033 0.020-0.026 0.043-0.057 0.050-0.093 0.022-0.002-0.001-0.004-0.003-0.006-0.004-0.022-0.012-0.050-0.004-0.061 0.017-0.001 0.002-0.002 0.004-0.003 0.007-0.012 0.034-0.031 0.048-0.058 0.042-0.021-0.005-0.029-0.017-0.024-0.038zM9.987 24.625l0.139-0.093c0.010-0.007 0.015-0.018 0.015-0.029 0-0.019-0.016-0.035-0.035-0.035-0 0-0.001 0-0.001 0-0.108 0.002-0.199 0.042-0.273 0.122-0.021 0.022-0.021 0.044 0 0.066l0.099 0.104c0.023 0.024 0.040 0.020 0.049-0.012 0.006-0.018 0.003-0.036-0.008-0.053-0.018-0.027-0.013-0.050 0.014-0.068zM21.999 24.465l0.073 0.327c0.001 0.005 0.005 0.008 0.010 0.008 0.001 0 0.002-0 0.003-0l0.004-0.002 0-0c0.052-0.012 0.083-0.077 0.068-0.144l-0.022-0.1-0-0.001c-0.015-0.067-0.071-0.113-0.123-0.101l-0.005 0.002c-0.005 0.001-0.009 0.006-0.008 0.012zM23.191 24.894l0.059-0.022c0.038-0.014 0.059-0.002 0.065 0.038l0.048 0.36c0 0.003 0.001 0.007 0.001 0.011 0 0.041-0.034 0.076-0.076 0.076-0.016 0-0.032-0.005-0.045-0.015l-0.036-0.027c-0.021-0.015-0.043-0.017-0.066-0.007-0.331 0.146-0.604 0.005-0.519-0.39 0.006-0.028 0.031-0.048 0.060-0.048 0.019 0 0.037 0.009 0.048 0.024l0.14 0.176c0.006 0.008 0.014 0.013 0.023 0.015 0.022 0.005 0.045-0.009 0.050-0.032 0.002-0.009 0.001-0.019-0.003-0.027l-0.055-0.116c-0.003-0.007-0.005-0.015-0.005-0.022 0-0.028 0.023-0.050 0.050-0.050 0.007 0 0.014 0.001 0.021 0.004 0.038 0.016 0.073 0.007 0.108-0.027 0.028-0.028 0.050-0.024 0.067 0.012l0.024 0.052c0.009 0.019 0.023 0.025 0.042 0.018zM23.079 25.012c0.071 0.042 0.12 0.099 0.147 0.172 0.015 0.039 0.025 0.038 0.032-0.004 0.007-0.045-0.001-0.086-0.024-0.123-0.012-0.020-0.034-0.031-0.057-0.030-0.029 0.002-0.048-0.011-0.055-0.039-0.008-0.030-0.028-0.043-0.059-0.039l-0.032 0.005c-0.001 0-0.003 0.001-0.004 0.001-0.011 0.004-0.017 0.016-0.013 0.026 0 0.001 0.001 0.003 0.002 0.004 0.012 0.021 0.033 0.030 0.063 0.028z"></path>
</svg>
