<!-- Generated by IcoMoon.io -->
<svg version="1.1" xmlns="http://www.w3.org/2000/svg" width="32" height="32" viewBox="0 0 32 32">
<title>watermark-junior</title>
<path fill="#444" d="M14.988 14.326l0.002-0.010 0.001-0.005 0 0c0.011-0.053 0.022-0.105 0.034-0.157-0.002 0.003-0.004 0.005-0.006 0.008-0.486 0.655-1.414 0.808-2.154 0.644-0.333-0.074-0.564-0.219-0.721-0.404-0.151 0.778-0.699 1.376-1.495 1.648-0.933 0.318-1.955 0.159-2.829-0.276-0.127-0.063-0.191-0.139-0.227-0.209-0.047-0.091-0.056-0.187-0.030-0.291 0.016-0.064 0.054-0.137 0.096-0.218 0.134-0.256 0.274-0.508 0.42-0.757 0.047-0.081 0.116-0.133 0.209-0.155 0.137-0.033 0.275-0.016 0.412 0.059l0.001 0c0.29 0.158 0.557 0.271 0.877 0.3 0.14 0.012 0.296 0.007 0.43-0.043 0.092-0.034 0.174-0.092 0.209-0.196 0.072-0.213-0.075-0.351-0.248-0.462-0.256-0.163-0.511-0.328-0.764-0.496-0.071-0.047-0.14-0.097-0.204-0.149-5.178 1.406-9.184 5.628-4.932 11.647-9.417-7.089-0.649-15.319 7.763-17.1 7.591-1.607 17.977 0.548 19.873 7.29 0 0-0.372-0.331-0.889-0.38-0.709-0.067-1.042 0.115-1.299 0.156-1.66 0.013-3.764-0.013-6.052 0-0.015-0.001-0.030-0.002-0.045-0.003-0.023 0.012-0.047 0.022-0.073 0.029-0.010 0.003-0.021 0.005-0.030 0.007-0.232 0.043-0.469 0.084-0.71 0.122-0.066 0.011-0.123 0.020-0.17 0.018-0.089-0.003-0.164-0.031-0.229-0.084-0.052-0.042-0.104-0.106-0.136-0.215-0.027-0.091-0.053-0.182-0.080-0.273-0.005-0.002-0.012-0.030-0.022-0.074-0.043-0.147-0.086-0.294-0.128-0.441-0.016 0.075-0.032 0.15-0.048 0.225-0.033 0.152-0.065 0.304-0.098 0.456-0.006 0.026-0.016 0.065-0.033 0.116-0.041 0.126-0.158 0.214-0.292 0.216-0.017 0.004-0.002 0-0.002 0s-0.607 0.001-0.746 0.001l-0.503-0c-0.189 0-0.378 0-0.567 0 0.001 0.001 0.001 0.001 0.002 0.002 0.076 0.058 0.126 0.124 0.155 0.194 0.001-0 0.002-0 0.002-0.001 0.010-0.005 0.028-0.008 0.050-0.010s0.047-0.005 0.075-0.005c-0.009 0-0.017 0.001-0.025 0.002l0.001-0c0.008-0.001 0.016-0.002 0.024-0.002h0.001v0.001c0.001-0 0.003-0 0.004-0-0.001-0-0.003-0.001-0.004-0.001 0.713-0.002 1.426-0.002 2.14 0 0.079 0 0.153 0.028 0.211 0.074 0.063-0.048 0.141-0.078 0.239-0.078h0c0.387 0.001 0.78-0.008 1.166 0.013 0.432 0.023 0.817 0.166 1.058 0.452 0.011-0.050 0.022-0.1 0.033-0.151-0.008 0.037-0.006 0.068 0.003 0.095 0.007 0.025 0.019 0.049 0.036 0.069 0.028 0.035 0.068 0.059 0.111 0.069-0.024 0.112-0.046 0.224-0.067 0.337-0.012 0.063 0.003 0.109 0.030 0.141s0.068 0.056 0.132 0.056l0.162 0.002-0.506 2.365c-0.101 0.001-0.216-0.009-0.303 0.013-0.037 0.009-0.067 0.037-0.080 0.073-0.002 0.006-0.004 0.012-0.006 0.018-0.118-0.319-0.236-0.637-0.355-0.956 0.070-0.031 0.14-0.067 0.21-0.107 0.44-0.25 0.675-0.783 0.666-1.27-0.012-0.679-0.525-0.979-1.133-1.011-0.383-0.021-0.772-0.011-1.156-0.013h-0c-0.053-0-0.096 0.016-0.129 0.045-0.031 0.026-0.054 0.064-0.066 0.117-0.422 1.966-0.691 3.221-0.805 3.765l-0 0c-0.006 0.028-0.007 0.065 0.001 0.113 0 0 0 0.001 0 0.001 0.005 0.027 0.017 0.047 0.033 0.062s0.034 0.025 0.059 0.029l0.889 0.009c0-0.002 0-0.003 0-0.005 0.040-0.007 0.067-0.032 0.082-0.074 0-0 0-0.001 0-0.001 0.011-0.032 0.021-0.070 0.030-0.114 0.099-0.46 0.197-0.92 0.295-1.381l0.004-0c0.141 0.489 0.284 0.977 0.427 1.465 0.034 0.116 0.083 0.2 0.215 0.183 0.144-0.018 0.363-0.054 0.658-0.109 0.017 0.013 0.036 0.022 0.058 0.026 0.028 0.005 1.129 0.009 1.543 0.008h0c0.056-0 0.093-0.011 0.12-0.025l0 0 0.011-0.007-0-0c0.006-0.004 0.011-0.008 0.016-0.012 0.003-0.003 0.007-0.004 0.011-0.004l0.105-0.386-0-0.001c0.017-0.082 0.032-0.164 0.048-0.246 0.003-0.018 0.004-0.050-0-0.094-0.005-0.051-0.033-0.083-0.083-0.096-0.070-0.018-0.16-0.017-0.242-0.015l0.506-2.367h0.252c0.067 0 0.126-0.046 0.142-0.112 0.044-0.179 0.085-0.363 0.122-0.553l0-0c0.010-0.052 0.005-0.099-0.013-0.142l-0-0.001c-0.016-0.038-0.051-0.064-0.091-0.069-0.035-0.005-0.070-0.007-0.106-0.007-0.464-0.001-0.929-0.001-1.393 0-0.044 0-0.080-0.001-0.109 0.005-0.037 0.007-0.067 0.023-0.091 0.049-0.021 0.022-0.039 0.054-0.050 0.103v0c-0.011 0.048-0.021 0.097-0.032 0.145-0.052-0.080-0.15-0.224-0.159-0.188 0.021-0.094 0.059-0.152 0.099-0.194 0.053-0.057 0.117-0.091 0.195-0.107 0.038-0.008 0.087-0.009 0.146-0.009 0.465-0.001 0.93-0.001 1.394-0 0.045 0 0.089 0.003 0.133 0.009 0.070 0.010 0.134 0.043 0.182 0.093 0.051-0.049 0.112-0.080 0.186-0.094 0.037-0.007 0.083-0.008 0.137-0.008 0.673-0.001 1.346-0.001 2.018-0 0.049 0 0.097 0.004 0.145 0.012 0.001 0 0.002 0 0.003 0 0.072 0.013 0.132 0.046 0.181 0.099 0.020 0.022 0.036 0.044 0.050 0.066 0.098-0.055 0.202-0.1 0.31-0.136 0.437-0.146 0.946-0.143 1.365-0.041h0c0.101 0.024 0.439 0.137 0.598 0.27 0.181 0.152 0.214 0.336 0.128 0.504l-0 0c-0.072 0.14-0.147 0.279-0.223 0.418-0.035 0.064-0.069 0.122-0.105 0.163-0.061 0.068-0.133 0.111-0.218 0.128-0.072 0.015-0.16 0.013-0.271-0.037-0.18-0.082-0.342-0.174-0.552-0.195h-0c-0.059-0.006-0.122-0.003-0.178 0.015-0.051 0.016-0.098 0.046-0.107 0.107v0c-0.004 0.023 0.020 0.031 0.038 0.047 0.246 0.213 0.549 0.357 0.785 0.55 0.305 0.251 0.52 0.566 0.489 1.095-0.055 0.944-0.849 1.503-1.729 1.534-0.419 0.015-0.82-0.060-1.204-0.226-0.058 0.099-0.168 0.158-0.282 0.152-0.010 0.001-0.041 0.005-0.056 0.005-0.682 0.001-1.364 0.001-2.045-0-0.143 0-0.229-0.048-0.284-0.106 0.002-0.002 0.005-0.005 0.007-0.007-0.001 0-0.002-0-0.002-0l-0.015-0.003c0.003 0.003 0.006 0.007 0.009 0.010-0.004 0.004-0.009 0.008-0.013 0.012-0.051 0.045-0.127 0.093-0.276 0.094h-0.001c-0.479 0.001-0.958 0.001-1.436 0.001 0.012 0 0-0.003 0-0.003-0 0.002-0.001 0.003-0.001 0.003s-0.106-0.005-0.144-0.012c-0.018-0.003-0.034-0.008-0.051-0.014-0.267 0.049-0.468 0.082-0.604 0.099-0.112 0.014-0.194-0.012-0.258-0.057-0.078-0.054-0.134-0.146-0.168-0.265-0.071-0.242-0.142-0.485-0.212-0.727-0.045 0.21-0.090 0.419-0.135 0.629-0.011 0.053-0.023 0.098-0.036 0.135-0 0.001-0.001 0.002-0.001 0.003-0.047 0.136-0.142 0.205-0.286 0.207-0 0-0.001 0-0.001 0s-0.003 0-0.003 0c-0.182 0.002-0.364 0.003-0.545 0.003-0.054 0.001-0.272 0.006-0.323-0.007-0.005-0-0.009-0.001-0.014-0.001l-0.001-0c-0.071-0.008-0.125-0.036-0.168-0.074-0.012 0.009-0.024 0.018-0.037 0.026-0.045 0.028-0.112 0.056-0.231 0.056-0.669 0.001-2.061-0.003-2.061-0.003-0.239 0.576-0.722 1.016-1.371 1.237-0.933 0.318-1.955 0.159-2.829-0.276-0.127-0.063-0.191-0.139-0.227-0.209-0.047-0.091-0.056-0.187-0.030-0.291 0.016-0.064 0.054-0.137 0.096-0.218 0.134-0.256 0.274-0.508 0.42-0.757 0.047-0.081 0.116-0.133 0.209-0.155 0.137-0.033 0.275-0.016 0.413 0.059l0.001 0c0.29 0.158 0.557 0.271 0.877 0.3 0.14 0.013 0.296 0.007 0.43-0.043 0.092-0.034 0.174-0.092 0.209-0.196 0.072-0.213-0.075-0.351-0.248-0.462-0.256-0.163-0.511-0.328-0.764-0.496-0.455-0.301-0.792-0.695-0.855-1.271-0.088-0.806 0.225-1.5 0.808-1.927-0.008 0.001-0.015 0.001-0.023 0.001l-0.728-0.001c0 0-0.086 0.003-0.133-0.001l-0.018-0c0.002-0 0.004-0.001 0.006-0.001-0.003-0-0.006-0.001-0.008-0.001-0.001-0-0.002-0-0.002-0.001-0.166-0.028-0.289-0.179-0.279-0.35 0-0.007 0.001-0.015 0.002-0.020 0.002-0.019 0.005-0.038 0.008-0.057l-0-0 0.001-0.007c0.005-0.035 0.012-0.069 0.019-0.102-0.001 0.006-0.002 0.012-0.003 0.018l0.003-0.016c0-0.002 0-0.003 0-0.003v-0l0 0 0-0.002c-0 0.001-0.001 0.001-0.001 0.002zM24.684 15.359c-0.007 0.032-0.006 0.064 0.003 0.095 0.024 0.075 0.1 0.113 0.148 0.131 0.002-0.010 0.004-0.020 0.006-0.030l-0.157-0.196-0 0.001zM25.57 18.686c0 0 0.199-0.003 0.265 0.002-0.028 0.151-0.059 0.301-0.093 0.451-0.003 0.014-0.007 0.032-0.010 0.045-0.004 0-0.008 0-0.012 0.001-0.479 0.001-0.957 0.002-1.436 0.001-0.015-0-0.029-0-0.041-0.001-0.006-0.009-0.013-0.017-0.022-0.023-0.022-0.017-0.050-0.024-0.078-0.019-0.313 0.059-0.545 0.098-0.696 0.117-0.004-0.012-0.011-0.030-0.015-0.043-0.149-0.509-0.299-1.019-0.445-1.529-0.014-0.050-0.062-0.084-0.115-0.080l-0.134 0.009c-0 0-0 0-0.001 0-0.028 0.002-0.049 0.013-0.066 0.027s-0.030 0.034-0.035 0.061c-0.101 0.481-0.204 0.961-0.308 1.442-0.003 0.013-0.006 0.026-0.009 0.037-0.232 0.003-0.465 0.003-0.697 0-0.001 0-0.002-0-0.002-0 0.117-0.556 0.384-1.803 0.8-3.741 0-0.002 0.001-0.005 0.002-0.008 0 0 0 0 0 0 0.381 0.001 0.766-0.008 1.146 0.012 0.502 0.027 0.938 0.259 0.948 0.82 0.008 0.42-0.189 0.882-0.567 1.097-0.086 0.049-0.172 0.091-0.258 0.126-0 0-0 0-0.001 0-0.033 0.014-0.052 0.036-0.063 0.060s-0.014 0.053-0.001 0.087c0.167 0.446 0.332 0.893 0.496 1.339 0.015 0.041 0.056 0.067 0.099 0.064s0.080-0.036 0.088-0.079c0.016-0.081 0.032-0.162 0.048-0.243 0.002-0.009 0.005-0.019 0.008-0.031 0.090-0.011 0.201 0.004 0.289-0.003 0.028-0.002 0.050-0.013 0.067-0.028s0.031-0.035 0.037-0.063c-0 0.001 0.541-2.53 0.541-2.53l0-0c0.001-0.004 0.001-0.007 0.002-0.011 0.006-0.059-0.037-0.113-0.095-0.119-0.003-0-0.007-0.001-0.011-0.001l-0.235-0.003c0.031-0.164 0.065-0.326 0.101-0.488 0-0.001 0.001-0.003 0.001-0.004 0.014-0 0.039-0.001 0.059-0.001 0.464-0.001 0.928-0.001 1.392-0h0c0.005 0 0.010 0 0.015 0-0.034 0.169-0.070 0.333-0.108 0.493h-0.279c-0.030 0-0.054 0.010-0.072 0.025s-0.033 0.036-0.039 0.065c0-0-0.541 2.53-0.541 2.53v0c-0.009 0.043 0.004 0.074 0.021 0.096 0.013 0.016 0.030 0.030 0.056 0.037zM23.093 16.047l-0.204 0.963c-0.001 0.006 0.001 0.010 0.008 0.010 0.138 0.010 0.258 0.005 0.358-0.017 0.31-0.067 0.466-0.358 0.453-0.664-0.015-0.349-0.36-0.305-0.603-0.301-0.006 0-0.010 0.003-0.011 0.009zM20.395 13.532l0.093-0.436c-0.050 0.033-0.112 0.055-0.189 0.055l-0.821 0c-0.024 0.112-0.053 0.249-0.080 0.374l0.92 0c0.027 0 0.053 0.002 0.077 0.006zM24.295 18.305c0.041-0.005 0.086-0.007 0.131-0.008l0.238-1.112c-0.127 0.213-0.301 0.395-0.518 0.519-0.021 0.012-0.041 0.023-0.062 0.034 0.070 0.189 0.141 0.378 0.211 0.567zM12.254 11.483c-0.050 0.059-0.105 0.099-0.163 0.125-0.099 0.044-0.217 0.057-0.368-0-0.117-0.045-0.233-0.095-0.346-0.151-0.205-0.1-0.539-0.194-0.814-0.147-0.122 0.021-0.232 0.074-0.281 0.2-0.046 0.119 0.006 0.205 0.076 0.276 0.084 0.085 0.191 0.153 0.287 0.215 0.306 0.198 0.654 0.394 0.934 0.643 0.13 0.115 0.245 0.241 0.34 0.381 0.002-0.011 0.005-0.022 0.007-0.034 0.109-0.503 0.218-1.006 0.327-1.509zM15.034 14.356l-0.028-0.029c0.008 0.006 0.017 0.016 0.028 0.029zM20.728 11.972l0.078-0.367c-0.018 0.003-0.036 0.004-0.055 0.004h-0.943l-0.042 0.201 0.65-0c0.143 0 0.232 0.060 0.288 0.13 0.008 0.010 0.016 0.021 0.023 0.032zM22.386 19.572l-0-0c0 0 0-0.002 0 0zM16.425 14.693c0.163-0.084 0.341-0.151 0.532-0.198 0.22-0.054 0.466-0.090 0.721-0.101 0.017-0.088 0.042-0.209 0.075-0.363 0.075-0.349 0.149-0.698 0.224-1.046-0.357 0.239-0.792 0.318-1.235 0.323l-0.276 1.282c0 0-0 0.001-0 0.001-0.008 0.037-0.022 0.071-0.040 0.102zM21.593 16.374c-0.281 0-0.563 0.001-0.844 0.002 0 0-0.039 0.186-0.039 0.186l0.649 0c0.19 0 0.346 0.156 0.346 0.346 0 0.005-0 0.009-0 0.014 0.039-0.183 0.081-0.375 0.124-0.578-0.048 0.020-0.101 0.030-0.16 0.030h-0.001c-0.021 0-0.042 0-0.063 0l-0.014 0.001 0-0.001zM21.413 18.291c0.040-0.186 0.084-0.394 0.134-0.625-0.047 0.132-0.174 0.224-0.317 0.224 0 0-0.805 0.001-0.805 0.001l-0.076 0.356h0.847c0.037 0 0.078 0.006 0.111 0.010 0.001 0 0.001 0 0.002 0 0.038 0.005 0.073 0.017 0.105 0.034zM13.593 10.193c0.001-0.008 0.001-0.016 0.001-0.024 0-0.145-0.118-0.264-0.263-0.267-0.263-0.004-0.528-0.005-0.794-0.001h-0c-0.089 0.001-0.148 0.024-0.192 0.052-0.004 0.002-0.007 0.005-0.010 0.007 0.082 0.045 0.159 0.095 0.232 0.15 0.048 0.037 0.086 0.077 0.115 0.119 0.046-0.021 0.103-0.035 0.179-0.037 0.245-0.003 0.489-0.003 0.732 0zM26.114 19.267c0.004 0.015 0.010 0.028 0.017 0.040 0.025 0.039 0.072 0.073 0.164 0.073 0.681 0 1.363 0.001 2.045 0 0 0 0 0 0 0 0.020-0 0.040-0.002 0.063-0.005 0.066-0.009 0.092-0.021 0.112-0.064 0-0 0-0.001 0.001-0.001 0.015-0.033 0.029-0.077 0.041-0.133l0-0c0.002-0.011 0.005-0.021 0.007-0.032 0.020 0.013 0.042 0.024 0.066 0.036 0.395 0.195 0.811 0.285 1.247 0.27 0.78-0.028 1.492-0.513 1.541-1.35 0.026-0.451-0.159-0.719-0.418-0.932-0.237-0.195-0.542-0.34-0.788-0.554-0.074-0.064-0.118-0.133-0.103-0.225 0.038-0.239 0.286-0.305 0.497-0.285 0.232 0.023 0.414 0.12 0.614 0.211 0.062 0.028 0.111 0.032 0.151 0.024 0.044-0.009 0.080-0.032 0.111-0.066 0.028-0.032 0.053-0.078 0.080-0.127 0.075-0.137 0.149-0.274 0.22-0.413 0.046-0.089 0.017-0.184-0.080-0.265-0.137-0.115-0.432-0.209-0.519-0.23-0.386-0.093-0.855-0.097-1.257 0.037-0.244 0.082-0.464 0.213-0.628 0.406 0.041-0.095 0.074-0.172 0.096-0.232 0.020-0.052 0.013-0.105-0.034-0.157-0.019-0.021-0.042-0.034-0.070-0.039-0-0-0.001-0-0.001-0-0.038-0.006-0.075-0.009-0.113-0.009-0.672-0-1.345-0.001-2.018 0h-0c-0.040 0-0.074-0.001-0.102 0.004-0.036 0.007-0.065 0.021-0.089 0.045-0.021 0.021-0.040 0.052-0.051 0.101-0.255 1.188-0.509 2.376-0.762 3.564l-0 0c-0.011 0.052-0.022 0.104-0.032 0.156l-0.002-0.002c-0.004 0.027-0.010 0.087-0.005 0.156zM27.157 15.594l-0.016 0.013c0.009 0.015 0.015 0.024 0.016 0.026v-0.039zM28.808 16.375c-0.009 0.079-0.013 0.156-0.011 0.23-0.019-0.010-0.040-0.017-0.061-0.023-0.002-0.001-0.005-0.001-0.007-0.002-0.038-0.009-0.079-0.018-0.117-0.018-0.001 0-0.002 0-0.002 0-0.208-0.001-0.416-0.001-0.624-0.001 0 0 0.039-0.186 0.039-0.186 0.262-0 0.523-0 0.783-0.001zM28.661 18.976c0.014 0.008 0.038 0.021 0.055 0.029 0.365 0.181 0.75 0.264 1.153 0.249 0.68-0.024 1.31-0.437 1.353-1.167 0.026-0.451-0.206-0.68-0.491-0.878-0.21-0.146-0.448-0.276-0.649-0.45-0.131-0.113-0.194-0.24-0.168-0.404 0.056-0.349 0.4-0.479 0.709-0.448 0.255 0.025 0.456 0.128 0.676 0.228 0.009 0.004 0.017 0.007 0.024 0.009 0.002 0 0.004 0.001 0.006 0.001 0.003-0.003 0.012-0.013 0.017-0.020 0.015-0.022 0.028-0.048 0.043-0.076 0.073-0.133 0.145-0.267 0.215-0.402-0.005-0.007-0.018-0.022-0.029-0.032-0.031-0.026-0.072-0.050-0.117-0.072-0.122-0.060-0.268-0.105-0.322-0.118-0.353-0.085-0.782-0.091-1.15 0.032-0.354 0.118-0.651 0.357-0.753 0.765-0.119 0.47 0.012 0.833 0.412 1.097 0.196 0.129 0.392 0.258 0.588 0.386 0.249 0.162 0.338 0.499 0.161 0.742-0.108 0.148-0.279 0.219-0.469 0.236-0.26 0.023-0.555-0.056-0.74-0.149-0.072-0.036-0.146-0.070-0.221-0.103-0.002-0.001-0.005-0.002-0.007-0.002-0.003 0.003-0.006 0.008-0.009 0.012-0.099 0.172-0.195 0.347-0.286 0.525-0.001 0.003-0.003 0.005-0.004 0.008zM31.186 16.013c-0.001 0.002-0.002 0.003-0.003 0.004 0.001-0.001 0.002-0.004 0.003-0.004l0-0zM28.34 19.184c0 0 0.095-0.378 0.126-0.545-0.398-0-0.797-0.002-1.195-0.003h-0c-0.040-0-0.065-0.018-0.081-0.038s-0.029-0.048-0.021-0.088c0-0 0-0.001 0-0.001s0.196-0.912 0.196-0.912c0.012-0.057 0.062-0.098 0.12-0.098l0.976-0.001c0.042-0.183 0.082-0.365 0.119-0.547-0.301-0.001-0.963-0.002-0.963-0.002-0.053-0.011-0.091-0.060-0.086-0.116 0-0.004 0.001-0.007 0.002-0.011l0.157-0.752c0-0 0-0.001 0-0.001 0.011-0.051 0.057-0.086 0.107-0.086 0.379 0.001 0.758-0 1.135-0.001 0.004 0 0.009-0.001 0.013-0.001 0.002-0.005 0.006-0.013 0.008-0.018 0.005-0.013 0.011-0.027 0.018-0.041 0.097-0.209 0.169-0.371 0.216-0.486-0.004-0-0.008-0-0.013-0h-0c-0.672-0.001-1.345-0.001-2.017 0h-0c-0.017 0-0.038 0-0.052 0.001l-0.015 0.070c-0.25 1.163-0.499 2.326-0.746 3.489-0.013 0.062-0.026 0.124-0.038 0.186 0.613 0.001 2.032-0 2.034-0zM28.34 19.184v0c0.005 0 0.004-0.001 0-0zM28.663 18.47l-0.035-0.004c0.016 0.020 0.035 0.036 0.057 0.049-0.006 0.010-0.012 0.021-0.017 0.031-0.013-0.045-0.050-0.082-0.098-0.093-0.025-0.006-0.056-0.009-0.094-0.009-0.364-0-0.728-0.001-1.092-0.003 0.042-0.195 0.128-0.597 0.16-0.746l0.952-0.001c0.040 0 0.072-0.012 0.096-0.032s0.044-0.048 0.053-0.087c0.035-0.152 0.122-0.56 0.132-0.61l0-0c0.010-0.051 0.005-0.094-0.010-0.128-0-0-0-0.001-0-0.001-0.015-0.033-0.043-0.057-0.078-0.066-0.001-0-0.002-0-0.002-0.001-0.024-0.006-0.050-0.013-0.074-0.013-0 0-0 0-0.001 0-0.289-0.001-0.577-0.001-0.864 0l0.12-0.577c0.356-0 0.711-0 1.066-0.001 0.049-0 0.083-0.010 0.109-0.024 0.003-0.002 0.007-0.004 0.010-0.006-0.002 0.009-0.005 0.017-0.007 0.026-0.141 0.561 0.016 0.992 0.494 1.308 0.196 0.13 0.393 0.258 0.589 0.386 0.156 0.102 0.221 0.311 0.11 0.463-0.075 0.102-0.196 0.145-0.328 0.157-0.223 0.020-0.477-0.050-0.635-0.129-0.075-0.038-0.152-0.073-0.23-0.107l-0-0c-0.056-0.024-0.107-0.025-0.151-0.009-0.042 0.015-0.081 0.046-0.112 0.1l-0 0c-0.019 0.033-0.037 0.065-0.056 0.098l-0.103-0.178c0.010 0.003 0.020 0.006 0.029 0.009-0.018-0.026-0.032-0.039-0.039-0.027 0.058-0.101 0.135-0.157 0.214-0.186 0.087-0.031 0.186-0.034 0.295 0.013 0 0 0.001 0 0.001 0 0.081 0.035 0.16 0.072 0.238 0.111l0 0c0.133 0.066 0.344 0.126 0.531 0.109 0.074-0.007 0.146-0.020 0.188-0.078 0.045-0.062 0.005-0.143-0.059-0.185-0.197-0.128-0.394-0.257-0.59-0.387-0.222-0.147-0.385-0.316-0.49-0.507-0.033 0.16-0.069 0.32-0.106 0.481-0.020 0.089-0.066 0.151-0.122 0.196s-0.127 0.074-0.218 0.074l-0.794 0c-0.023 0.106-0.051 0.237-0.076 0.356 0.284 0.001 0.568 0.001 0.851 0.002 0.051 0 0.094 0.005 0.129 0.012 0.002-0.004 0.005-0.008 0.007-0.012-0.002 0.004-0.005 0.008-0.007 0.012l0 0c-0.009 0.019-0.015 0.039-0.017 0.059-0.006 0.063 0.032 0.114 0.075 0.15zM28.623 18.265l-0.010-0.018c0 0-0.001 0.001-0.001 0.002-0.002 0.004-0.005 0.008-0.007 0.012 0.003 0 0.005 0.001 0.008 0.002 0.003 0.001 0.007 0.002 0.010 0.003zM28.663 18.47c0.011 0.009 0.022 0.017 0.033 0.025 0.004-0.007 0.007-0.013 0.011-0.020l-0.044-0.005zM19.233 19.377c0.611 0.002 1.222 0.003 1.832 0.002 0.066-0 0.104-0.011 0.129-0.026s0.085-0.172 0.085-0.172c0.041-0.187 0.079-0.377 0.115-0.571 0.002-0.008 0.002-0.016 0.002-0.025 0-0.067-0.050-0.125-0.117-0.134-0-0-0-0-0.001-0-0.025-0.003-0.056-0.008-0.084-0.008h-1.088l0.16-0.747 0.963-0.001c0.066 0 0.124-0.047 0.138-0.111l0.14-0.643c0.002-0.010 0.003-0.021 0.003-0.032 0-0.083-0.068-0.151-0.151-0.151l-0.889-0.001 0.12-0.576c0.327-0.001 0.656-0.002 0.984-0.002 0.031-0 0.063-0 0.094-0v0l0.024-0.001c0.071-0.007 0.124-0.046 0.157-0.118 0.077-0.171 0.154-0.344 0.229-0.516 0.024-0.055 0.047-0.109 0.042-0.167l-0-0c-0.006-0.074-0.069-0.132-0.144-0.132-0.706-0.001-1.411-0.002-2.115-0l0-0.002c-0.008 0-0.016 0.001-0.024 0.001v0.001c-0.037 0-0.067 0.005-0.090 0.014-0-0.001-0-0.001-0.001-0.002-0.002 0.001-0.004 0.001-0.006 0.002-0 0.001-0 0.002-0 0.002-0.020 0.008-0.035 0.019-0.048 0.030-0.034 0.031-0.049 0.082-0.066 0.161-0.221 1.026-0.44 2.053-0.659 3.080-0.035-0.42-0.248-0.729-0.532-0.982-0.273-0.242-0.612-0.432-0.911-0.625-0.107-0.069-0.226-0.147-0.32-0.242-0.122-0.123-0.2-0.278-0.12-0.484 0.076-0.196 0.24-0.289 0.43-0.322 0.315-0.055 0.699 0.049 0.934 0.164 0.108 0.053 0.218 0.101 0.33 0.144 0.089 0.034 0.159 0.031 0.218 0.005 0.055-0.025 0.103-0.073 0.145-0.149 0.087-0.158 0.174-0.317 0.261-0.476 0.035-0.064 0.070-0.128 0.105-0.192v-0c0.037-0.068 0.046-0.131 0.034-0.188s-0.046-0.112-0.107-0.158c-0.221-0.168-0.492-0.282-0.784-0.352 0.49 0 0.98-0 1.47-0 0.027 0 0.142 0.004 0.189-0.070 0-0 0-0.001 0-0.001 0.016-0.034 0.027-0.069 0.035-0.106 0.040-0.188 0.078-0.377 0.113-0.567l0-0c0.009-0.047 0.006-0.081-0-0.101-0-0-0-0.001-0-0.001-0.021-0.070-0.069-0.105-0.142-0.105l-1.161-0c0.042-0.195 0.13-0.603 0.164-0.764l0.978-0.001c0.039 0 0.070-0.012 0.093-0.031s0.042-0.046 0.050-0.085l0.138-0.633c0.014-0.065-0.001-0.113-0.027-0.145s-0.070-0.058-0.136-0.058l-0.89 0.001 0.124-0.592h1.102c0.076 0 0.145-0.044 0.176-0.113 0.078-0.172 0.158-0.35 0.24-0.533l0.001-0.002c0.018-0.040 0.031-0.083 0.041-0.13l0-0.001c0-0.002 0.001-0.005 0.001-0.007 0.011-0.076-0.042-0.147-0.117-0.158-0.002-0-0.005-0.001-0.007-0.001-0.030-0.003-0.066-0.005-0.105-0.005l-0-0c-0.7-0.002-1.401-0.003-2.101-0.002h-0c-0.053 0-0.089 0.011-0.115 0.027-0.033 0.019-0.054 0.046-0.069 0.083-0.011 0.027-0.016 0.062-0.026 0.107-0.050 0.234-0.1 0.468-0.151 0.703-0.024-0.216-0.104-0.397-0.229-0.538-0.192-0.218-0.494-0.347-0.881-0.37-0.415-0.024-0.835-0.012-1.261-0.010-0.073 0-0.138 0.050-0.157 0.121-0.031 0.116-0.584 2.704-0.813 3.783v0c-0.008 0.040-0.015 0.081-0.021 0.124-0.001 0.017-0.003 0.062 0.007 0.098 0.020 0.046 0.065 0.080 0.119 0.083 0 0 0.001 0 0.002 0l0-0 0.032-0.001c0-0 0-0 0-0.001l0.026 0 0.008-0 0 0 0.768 0.001c0.074 0 0.138-0.052 0.154-0.124l0-0 0.309-1.437c0.615 0.014 1.237-0.088 1.626-0.619 0.040-0.054 0.076-0.11 0.108-0.168-0.125 0.582-0.25 1.165-0.374 1.747-0.038 0.179-0.066 0.313-0.082 0.402v0c-0.007 0.040-0.002 0.077 0.015 0.111-0.024-0-0.194 0.004-0.205 0.005-0.236 0.012-0.464 0.045-0.668 0.095-0.987 0.242-1.586 1.065-1.474 2.088 0.056 0.514 0.363 0.861 0.768 1.13 0.252 0.167 0.506 0.332 0.761 0.494l0 0c0.252 0.161 0.433 0.379 0.328 0.689-0.056 0.164-0.179 0.262-0.326 0.316-0.16 0.059-0.347 0.069-0.515 0.054-0.347-0.031-0.638-0.152-0.953-0.323l-0-0c-0.011-0.006-0.022-0.011-0.033-0.016-0.081-0.036-0.161-0.043-0.241-0.024-0.038 0.009-0.066 0.030-0.085 0.063-0.005 0.008-0.009 0.016-0.014 0.024-0.139 0.239-0.273 0.48-0.401 0.725-0.021 0.040-0.042 0.078-0.057 0.112-0.009 0.019-0.015 0.038-0.020 0.056-0.001 0.002-0.001 0.005-0.002 0.007-0.014 0.055-0.010 0.106 0.014 0.154 0.022 0.042 0.063 0.086 0.14 0.124l0 0c0.827 0.413 1.795 0.568 2.679 0.266 0.58-0.198 1.017-0.585 1.239-1.095 0 0 0.001 0 0.001 0.001l0.028-0.067-0.001 0c0.016-0.040 0.030-0.080 0.043-0.121 0.018 0.016 0.041 0.027 0.065 0.030l0 0c0.002 0 0.004 0 0.006 0.001l0.281 0.005zM15.37 14.407c0.229-1.079 0.777-3.64 0.805-3.75 0.412-0.002 0.821-0.013 1.224 0.010 0.326 0.019 0.584 0.12 0.746 0.304 0.16 0.182 0.222 0.442 0.17 0.77-0.037 0.235-0.125 0.447-0.262 0.636-0.363 0.496-0.959 0.56-1.532 0.537-0.053-0.002-0.101 0.035-0.112 0.087l-0.318 1.476-0.733-0c0.004-0.024 0.008-0.047 0.013-0.070zM16.879 11.287l-0.213 0.977c-0 0.001-0 0.002-0 0.003 0 0.007 0.006 0.013 0.013 0.013 0.111 0.002 0.222-0.008 0.332-0.030 0.309-0.062 0.484-0.338 0.495-0.637 0.007-0.172-0.059-0.292-0.236-0.319-0.125-0.019-0.252-0.024-0.38-0.016-0.006 0-0.009 0.003-0.011 0.009zM21.066 19.184h0c0 0 0.095-0.385 0.125-0.547h-1.199c-0.001 0-0.001 0-0.002 0-0.003-0-0.006-0-0.010-0.001-0.057-0.007-0.096-0.059-0.090-0.113 0-0.004 0.001-0.008 0.002-0.011l0.197-0.921c0-0 0-0 0-0.001 0.012-0.053 0.060-0.091 0.114-0.091l0.983-0.001 0.119-0.547-0.97-0.006c-0.024-0.007-0.041-0.021-0.053-0.036-0.018-0.022-0.031-0.053-0.022-0.098l0-0c0 0 0.154-0.74 0.154-0.739 0.006-0.028 0.020-0.048 0.037-0.063s0.039-0.025 0.068-0.025c0.001 0 0.001 0 0.002 0 0.383-0.001 0.765-0.002 1.148-0.003h0c0.002-0 0.003-0.002 0.004-0.005 0.077-0.171 0.153-0.342 0.228-0.514 0.004-0.009 0.009-0.017 0.013-0.026-0.692-0.002-1.384-0.002-2.075-0-0 0-0.001 0-0.001 0-0.003 0-0.005 0-0.008 0-0.003 0.014-0.008 0.036-0.012 0.053-0.264 1.229-0.527 2.459-0.788 3.689 0.613 0.003 2.004 0.003 2.036 0.003zM21.001 10.659c-0.006-0-2.124-0.002-2.126-0.002-0.003 0.015-0.511 2.385-0.74 3.455-0.034 0.157-0.059 0.279-0.075 0.365 0.005 0 0.009 0.001 0.013 0.001 0.683 0 1.366-0 2.049-0 0.009 0 0.019-0.001 0.028-0.001 0.002-0.007 0.004-0.014 0.005-0.022 0.038-0.179 0.074-0.358 0.108-0.538l-1.218-0c-0.042 0-0.067-0.019-0.084-0.040s-0.028-0.048-0.020-0.088c0-0 0-0 0-0.001l0.197-0.919c-0.002-0.061 0.025-0.107 0.111-0.107l1.009-0.001 0.122-0.561-0.965 0.001c-0 0-0 0-0.001 0-0.003-0-0.007-0-0.010-0.001-0.059-0.006-0.101-0.059-0.095-0.117 0-0.004 0.001-0.008 0.002-0.011 0 0 0.16-0.767 0.16-0.766 0.006-0.029 0.020-0.049 0.038-0.064s0.040-0.025 0.070-0.025h1.17c0.053-0.116 0.247-0.55 0.25-0.559zM17.903 14.778c-0.009 0.001-0.018 0.002-0.027 0.002-0.292-0.001-0.578 0.033-0.826 0.094-0.888 0.218-1.427 0.957-1.327 1.877 0.049 0.452 0.325 0.752 0.682 0.988 0.244 0.161 0.488 0.32 0.734 0.477 0.008 0.005 0.016 0.010 0.024 0.015l0 0c0.332 0.212 0.546 0.508 0.408 0.917-0.148 0.434-0.638 0.538-1.043 0.501-0.374-0.033-0.69-0.161-1.029-0.346l-0-0c-0.037-0.020-0.075-0.030-0.112-0.026-0.138 0.236-0.27 0.475-0.396 0.716l-0 0.001c-0.019 0.036-0.038 0.069-0.051 0.1-0.004 0.010-0.008 0.020-0.011 0.029-0 0.001-0 0.002-0.001 0.002-0.002 0.006-0.004 0.012-0.001 0.017 0.003 0.006 0.008 0.012 0.015 0.017 0.009 0.007 0.022 0.014 0.038 0.022l0 0c0.781 0.389 1.694 0.541 2.529 0.256 0.826-0.282 1.331-0.986 1.267-1.879-0-0.004-0.001-0.009-0.001-0.013-0.030-0.366-0.22-0.632-0.467-0.852-0.265-0.236-0.597-0.419-0.887-0.607-0.118-0.076-0.249-0.164-0.352-0.268-0.174-0.176-0.277-0.398-0.163-0.692 0.103-0.267 0.321-0.399 0.578-0.444 0.355-0.061 0.789 0.052 1.053 0.181 0.103 0.050 0.207 0.096 0.314 0.136 0.028 0.011 0.050 0.017 0.068 0.009 0.022-0.010 0.037-0.034 0.054-0.065 0.122-0.222 0.244-0.444 0.365-0.667 0.011-0.020 0.018-0.038 0.015-0.056s-0.016-0.029-0.034-0.042c-0.372-0.283-0.901-0.399-1.414-0.403zM11.897 9.777c-0.646-0.379-1.597-0.394-2.28-0.226-0.976 0.24-1.569 1.054-1.459 2.066 0.026 0.235 0.105 0.434 0.224 0.605-0.014-0.060-0.024-0.123-0.031-0.188-0.123-1.126 0.536-2.032 1.622-2.299 0.566-0.139 1.303-0.151 1.925 0.042zM20.531 14.672c0 0 0.861 0.007 0.862-0.003 0.039-0.009 0.072-0.038 0.084-0.077 0.014-0.042 0.023-0.074 0.027-0.096l0-0c0.090-0.421 0.18-0.842 0.27-1.263l0.035 0.026 0.047-0.050c0.134 0.46 0.268 0.92 0.402 1.38 0.017 0.059 0.044 0.095 0.072 0.118 0.032 0.026 0.069 0.039 0.113 0.040 0.037 0.001 0.081-0.007 0.132-0.015 0.239-0.038 0.474-0.079 0.704-0.121 0.004-0.001 0.009-0.002 0.014-0.003 0.087-0.024 0.139-0.115 0.115-0.202-0.001-0.004-0.003-0.009-0.004-0.013l-0-0-0.553-1.49c0.302-0.128 0.544-0.315 0.7-0.62 0.34-0.665 0.283-1.528-0.584-1.748-0.169-0.043-0.342-0.066-0.517-0.069-0.361-0.006-0.719-0.006-1.073-0-0.074 0.001-0.138 0.054-0.153 0.126l-0.835 3.905c-0.002 0.010-0.003 0.020-0.003 0.031 0 0.080 0.066 0.146 0.145 0.146h0zM21.308 14.477l-0.716 0 0.816-3.818c0.343-0.005 0.689-0.005 1.038 0.001 0.16 0.003 0.317 0.024 0.472 0.063 0.724 0.183 0.743 0.914 0.458 1.47-0.146 0.285-0.382 0.447-0.674 0.559-0 0-0.001 0-0.001 0-0.057 0.022-0.084 0.086-0.063 0.141-0-0.001 0.484 1.304 0.569 1.533-0.214 0.040-0.747 0.126-0.755 0.127-0.002-0.005-0.327-1.118-0.468-1.601l-0-0.001c-0.014-0.049-0.060-0.082-0.112-0.081-0 0-0.001 0-0.002 0l-0.134 0.007c-0.051 0.002-0.095 0.040-0.105 0.090-0.103 0.496-0.321 1.502-0.323 1.51zM22.092 11.279l-0.207 0.982c-0.001 0.007 0.002 0.011 0.009 0.012 0.125 0.009 0.246 0.003 0.363-0.020 0.317-0.062 0.468-0.366 0.463-0.665-0.006-0.363-0.369-0.322-0.618-0.317-0.005 0-0.009 0.003-0.010 0.008zM14.591 10.705c0 0 0 0 0 0-0.147 0.682-0.293 1.36-0.437 2.034-0.045 0.21-0.098 0.485-0.214 0.695-0.102 0.184-0.258 0.315-0.517 0.276-0.081-0.012-0.138-0.037-0.175-0.075-0.041-0.043-0.055-0.102-0.058-0.167-0.004-0.082 0.012-0.174 0.032-0.265 0.179-0.82 0.358-1.64 0.535-2.461 0.014-0.064 0.026-0.127 0.035-0.19 0.001-0.007 0.002-0.015 0.002-0.022 0-0.077-0.062-0.14-0.139-0.141-0.262-0.004-0.526-0.005-0.79-0.001-0.058 0.001-0.097 0.014-0.126 0.033-0.033 0.021-0.056 0.050-0.071 0.088-0.012 0.031-0.019 0.071-0.029 0.118-0.173 0.802-0.346 1.604-0.52 2.406-0.092 0.425-0.091 0.837 0.099 1.139 0.13 0.207 0.348 0.367 0.691 0.443 0.67 0.149 1.514 0.024 1.954-0.569 0.146-0.196 0.238-0.473 0.29-0.717 0.195-0.912 0.389-1.835 0.583-2.768v-0c0.011-0.056-0.003-0.096-0.026-0.124s-0.059-0.050-0.116-0.050l-0.803 0c-0.076-0-0.142 0.053-0.158 0.128l-0 0c-0.011 0.049-0.021 0.097-0.032 0.146l-0-0c-0.003 0.014-0.007 0.030-0.010 0.045zM15.531 10.582l-0.714 0c-0.159 0.738-0.317 1.471-0.473 2.198-0.049 0.227-0.109 0.522-0.235 0.749-0.141 0.254-0.359 0.428-0.717 0.374-0.134-0.020-0.226-0.069-0.287-0.133-0.060-0.063-0.094-0.141-0.107-0.231-0.017-0.113 0.001-0.246 0.030-0.378 0.179-0.82 0.358-1.64 0.535-2.461 0.009-0.040 0.016-0.079 0.023-0.117-0.24-0.003-0.48-0.004-0.722-0-0.006 0-0.014 0.001-0.019 0.002-0.002 0.007-0.005 0.019-0.007 0.028-0.003 0.017-0.007 0.035-0.011 0.055-0.173 0.802-0.346 1.605-0.52 2.407-0.080 0.37-0.092 0.73 0.073 0.993 0.106 0.169 0.288 0.294 0.568 0.357 0.6 0.134 1.361 0.036 1.755-0.495 0.13-0.175 0.209-0.423 0.256-0.641 0.191-0.892 0.381-1.794 0.571-2.706zM21.669 16.37h0c-0 0.002-0 0.003-0 0.003v-0.003zM7.754 15.313c-0.001 0.002-0.001 0.004-0.002 0.007-0.014 0.055-0.010 0.106 0.014 0.154 0.022 0.042 0.063 0.086 0.14 0.124l0 0c0.827 0.412 1.795 0.568 2.679 0.266 0.912-0.311 1.47-1.091 1.399-2.078-0.031-0.428-0.246-0.741-0.534-0.997-0.273-0.242-0.612-0.432-0.911-0.625-0.107-0.069-0.226-0.147-0.32-0.242-0.122-0.123-0.2-0.278-0.12-0.484 0.076-0.196 0.24-0.289 0.429-0.322 0.315-0.054 0.699 0.049 0.934 0.164 0.108 0.053 0.218 0.101 0.33 0.144 0.089 0.034 0.159 0.031 0.218 0.005 0.055-0.025 0.103-0.073 0.145-0.149 0.123-0.222 0.244-0.445 0.366-0.668v-0c0.037-0.068 0.046-0.131 0.034-0.188-0.005-0.024-0.014-0.047-0.027-0.070-0.018-0.032-0.044-0.061-0.080-0.088-0.635-0.483-1.691-0.523-2.431-0.341-0.987 0.242-1.586 1.065-1.474 2.088 0.056 0.514 0.363 0.861 0.768 1.13 0.252 0.167 0.506 0.332 0.761 0.494h0c0.252 0.161 0.433 0.379 0.328 0.689-0.056 0.164-0.179 0.262-0.326 0.316-0.16 0.059-0.347 0.069-0.515 0.054-0.347-0.031-0.638-0.152-0.953-0.323l-0-0c-0.011-0.006-0.022-0.011-0.033-0.016-0.081-0.036-0.161-0.043-0.241-0.024-0.038 0.009-0.066 0.030-0.085 0.063-0.005 0.008-0.009 0.016-0.014 0.024-0.139 0.239-0.273 0.48-0.401 0.725-0.021 0.040-0.042 0.078-0.057 0.112-0.009 0.019-0.015 0.038-0.020 0.056zM7.942 15.365c-0 0.001-0 0.002-0.001 0.002-0.002 0.006-0.004 0.012-0.001 0.017 0.003 0.006 0.008 0.012 0.015 0.017 0.009 0.007 0.022 0.014 0.038 0.022l0 0c0.781 0.389 1.694 0.541 2.529 0.256 0.826-0.282 1.331-0.986 1.267-1.879-0.027-0.372-0.218-0.642-0.468-0.865-0.265-0.236-0.597-0.419-0.887-0.607-0.118-0.076-0.249-0.164-0.352-0.268-0.174-0.176-0.277-0.398-0.163-0.692 0.103-0.267 0.321-0.399 0.578-0.444 0.355-0.061 0.789 0.052 1.053 0.181 0.103 0.050 0.207 0.096 0.314 0.136 0.028 0.011 0.050 0.017 0.068 0.009 0.022-0.010 0.037-0.034 0.054-0.065 0.122-0.222 0.244-0.444 0.365-0.667 0.011-0.020 0.018-0.038 0.015-0.056s-0.016-0.029-0.034-0.042c-0.592-0.45-1.577-0.476-2.267-0.307-0.888 0.218-1.427 0.957-1.327 1.877 0.049 0.452 0.325 0.752 0.682 0.988 0.244 0.161 0.488 0.32 0.734 0.477 0.008 0.005 0.016 0.010 0.024 0.015l0 0c0.332 0.212 0.546 0.508 0.408 0.917-0.148 0.434-0.638 0.538-1.043 0.501-0.374-0.033-0.69-0.161-1.029-0.346l-0-0c-0.038-0.020-0.075-0.030-0.112-0.026-0.138 0.236-0.27 0.475-0.396 0.716l-0 0.001c-0.019 0.036-0.038 0.069-0.051 0.1-0.004 0.010-0.008 0.020-0.011 0.029zM26.517 16.318c-0.018 0.003-0.035 0.004-0.054 0.004h-0.094c0 0-0.425 1.986-0.425 1.986 0.018 0.003 0.034 0.006 0.051 0.010 0.032 0.008 0.061 0.019 0.087 0.033 0.145-0.678 0.29-1.356 0.435-2.034zM20.46 14.124c0-0-0-0-0-0s0.001 0 0.001 0l-0 0zM23.437 10.524c-0.128-0.27-0.373-0.486-0.763-0.585l-0-0c-0.179-0.045-0.361-0.069-0.545-0.073-0.363-0.006-0.722-0.006-1.078-0-0.056 0.001-0.11 0.019-0.154 0.049-0.032-0.021-0.068-0.036-0.108-0.042-0.005-0.001-0.009-0.001-0.014-0.002-0.033-0.003-0.073-0.005-0.117-0.005-0.701-0.002-1.401-0.003-2.102-0.002-0.083 0-0.139 0.020-0.179 0.045-0.078 0.046-0.122 0.127-0.153 0.271-0.018 0.085-0.036 0.17-0.055 0.255-0.032-0.053-0.068-0.102-0.108-0.147-0.211-0.24-0.542-0.387-0.968-0.412-0.417-0.024-0.84-0.012-1.269-0.010h-0c-0.13 0.001-0.244 0.089-0.277 0.214l-0 0c-0.003 0.012-0.006 0.024-0.009 0.037-0.008-0.049-0.029-0.088-0.055-0.119-0.042-0.052-0.108-0.096-0.213-0.096l-0.803 0c-0.134-0-0.252 0.094-0.281 0.226l-0 0.001c-0.313-0.021-0.346 0.070-0.529 0.067 0.183 0.003 0.331 0.154 0.331 0.336 0 0.017-0.001 0.035-0.004 0.052-0.010 0.066-0.023 0.133-0.037 0.201-0.177 0.821-0.356 1.641-0.535 2.462-0.016 0.074-0.030 0.148-0.027 0.215 0.001 0.015-0.005 0.030 0.004 0.040 0.013 0.013 0.035 0.013 0.063 0.017 0.161 0.024 0.254-0.064 0.318-0.178 0.108-0.194 0.153-0.448 0.194-0.641 0.158-0.735 0.317-1.476 0.478-2.223-0 0.002-0 0.005 0 0.008l0.004-0.016c-0.001 0.001-0.003 0.002-0.003 0.005 0.036-0.164 0.182-0.281 0.349-0.281l0.803-0c0.132 0 0.215 0.057 0.267 0.122 0.014 0.017 0.027 0.036 0.038 0.057 0.065-0.064 0.154-0.102 0.249-0.103h0c0.43-0.002 0.855-0.014 1.273 0.011 0.448 0.026 0.794 0.184 1.016 0.436 0.007 0.008 0.014 0.016 0.021 0.024l0.021-0.1c0.012-0.057 0.021-0.103 0.035-0.137 0.031-0.079 0.080-0.137 0.15-0.179 0.049-0.029 0.115-0.055 0.215-0.055 0.701-0.001 1.402 0 2.102 0.002 0.046 0 0.088 0.002 0.123 0.005 0.006 0.001 0.012 0.001 0.017 0.002 0.035 0.005 0.068 0.016 0.098 0.031 0.046-0.023 0.099-0.037 0.153-0.038 0.357-0.006 0.716-0.006 1.080 0 0.19 0.003 0.377 0.028 0.561 0.075 0.164 0.042 0.304 0.103 0.422 0.18zM14.149 16.366c-0.034-0.004-0.079 0.009-0.136 0.049-0.011 0.008-0.027 0.018-0.048 0.028-0.044 0.020-0.11 0.041-0.195 0.036-0.092-0.005-0.144-0.022-0.202-0.037-0.073-0.019-0.156-0.036-0.296-0.037-0.42 0-0.817 0.327-0.831 0.834-0.014 0.494 0.303 1.040 0.876 1.066 0.302 0.014 0.876-0.146 1.137-0.26 0.007-0.003 0.059-0.049 0.063-0.056l0.114-0.192c0.082-0.137 0.048-0.253-0.101-0.208-0.247 0.074-0.382 0.102-0.739 0.129-0.568 0.044-0.523-0.243-0.511-0.438 0.013-0.215 0.158-0.371 0.229-0.367 0.163 0.011 0.208 0.027 0.238 0.239 0.005 0.038 0.064 0.106 0.1 0.116l0.091 0.024c0.074 0.020 0.151-0.029 0.167-0.107 0.025-0.119 0.126-0.315 0.158-0.343 0.005-0.005 0.060-0.075 0.034-0.178-0.005-0.022-0.013-0.051-0.021-0.080-0.012-0.042-0.024-0.207-0.126-0.219zM12.365 16.394c-0.008 0-0.016 0.001-0.023 0.003-0.246 0.061-0.68 0.070-0.802 0.046-0.044-0.008-0.125 0.031-0.145 0.073l-0.043 0.084c-0.041 0.081-0.007 0.169 0.077 0.198 0.116 0.040 0.163 0.125 0.184 0.231 0.011 0.059 0.013 0.12 0.012 0.174-0.001 0.063-0.005 0.119-0.005 0.158 0 0.175-0.060 0.347-0.086 0.489-0.027 0.145-0.066 0.22-0.101 0.248-0.039 0.032-0.060 0.122-0.039 0.169l0.043 0.096c0.055 0.124 0.168 0.132 0.238 0.016 0.069-0.113 0.45-0.226 0.635-0.132 0.043 0.022 0.13 0.004 0.162-0.034l0.054-0.064c0.051-0.059 0.043-0.152-0.017-0.202-0.173-0.143-0.21-0.255-0.217-0.336-0.014-0.156 0.011-0.249 0.011-0.319 0-0.178 0.006-0.31 0.032-0.404 0.024-0.084 0.057-0.117 0.108-0.131 0.077-0.022 0.117-0.106 0.091-0.183l-0.031-0.088c-0.019-0.052-0.081-0.092-0.137-0.091zM11.096 16.405c-0.033-0.003-0.074 0.013-0.127 0.058-0.011 0.008-0.027 0.017-0.047 0.027-0.043 0.020-0.107 0.040-0.19 0.035-0.095-0.006-0.188-0.027-0.288-0.047-0.113-0.022-0.232-0.044-0.365-0.045-0.375-0.005-0.791 0.216-0.808 0.84-0.014 0.501 0.396 0.981 0.825 1.015 0.051 0.004 0.098-0 0.143-0.008 0.039-0.007 0.080-0.018 0.124-0.029 0.073-0.020 0.159-0.043 0.277-0.052 0.051-0.004 0.128 0.051 0.139 0.077 0.008 0.020 0.071 0.077 0.091 0.082l0.116 0.032c0.098 0.027 0.174-0.034 0.171-0.139-0.001-0.039-0.005-0.106-0.015-0.174-0.008-0.059 0.002-0.143 0.013-0.192 0.016-0.072 0.059-0.111 0.15-0.135 0.172-0.044 0.211-0.109 0.152-0.21l-0.070-0.119c-0.005-0.009-0.062-0.057-0.072-0.060-0.137-0.049-0.703-0.014-0.835 0.040-0.054 0.022-0.088 0.101-0.097 0.158l-0.019 0.094c0.012 0.056 0.091 0.106 0.201 0.109l-0.079 0c-0.369 0.064-0.42-0.239-0.405-0.479 0.012-0.19 0.165-0.354 0.329-0.329 0.201 0.030 0.271 0.057 0.296 0.237 0.005 0.038 0.064 0.107 0.1 0.116l0.089 0.024c0.075 0.020 0.152-0.029 0.167-0.106 0.024-0.118 0.123-0.308 0.154-0.336 0.005-0.004 0.060-0.075 0.035-0.177-0.006-0.021-0.014-0.050-0.021-0.079-0.012-0.041-0.036-0.217-0.135-0.226zM5.879 16.439c0.016-0 0.031 0.002 0.044 0.007 0.085 0.036 0.495 0.081 0.654 0.010 0.018-0.008 0.102-0.006 0.12 0.003 0 0 0.030 0.016 0.060 0.031 0.105 0.057 0.165 0.061 0.12 0.21s-0.003 0.411 0.138 0.657c0.049 0.086 0.137 0.264 0.226 0.463 0.018-0.116 0.072-0.222 0.146-0.316 0.097-0.124 0.16-0.286 0.188-0.369 0.031-0.090 0.128-0.175 0.245-0.151 0.009 0.002 0.019 0.006 0.029 0.009-0.191-0.076-0.387-0.149-0.398-0.153-0.104-0.038-0.13-0.136-0.059-0.221l0.099-0.12c0.025-0.030 0.112-0.056 0.149-0.044 0.11 0.036 0.76 0.14 0.977 0.043 0.029-0.013 0.115 0 0.14 0.020l0.13 0.115c0.009 0.008 0.058 0.037 0.067 0.081 0.077 0.401 0.217 0.911 0.51 1.336 0.036 0.052-0.046 0.137-0.113 0.23-0.016 0.021-0.13-0.031-0.16-0.041-0.272-0.090-0.447-0.037-0.491 0.008-0.058 0.060-0.151 0.056-0.205-0.008l-0.107-0.126c-0.040-0.078 0.025-0.165 0.027-0.174s0.002-0.025 0.001-0.048c-0.004-0.052-0.021-0.131-0.044-0.217 0.020 0.11-0.046 0.195-0.131 0.231-0.009 0.003-0.028 0.012-0.054 0.059-0.015 0.027-0.029 0.058-0.043 0.094-0.017 0.040-0.034 0.086-0.054 0.137s-0.099 0.096-0.153 0.087c-0.097-0.017-0.201-0.010-0.296-0.001-0.051 0.005-0.096 0.010-0.13 0.011-0.027 0.001-0.052-0.002-0.073-0.007 0.043 0.111 0.077 0.21 0.093 0.277 0.016 0.065 0.024 0.112 0.039 0.152 0.009 0.024 0.022 0.047 0.051 0.078 0.016 0.018 0.039 0.038 0.069 0.060 0.032 0.023 0.066 0.045 0.1 0.068 0.038 0.025 0.077 0.050 0.111 0.076 0.036 0.027 0.074 0.059 0.105 0.099 0.020 0.024 0.032 0.114 0.020 0.143l-0.043 0.104c-0.025 0.061-0.109 0.099-0.17 0.079-0.489-0.16-1.014-0.122-1.207 0.032-0.052 0.041-0.143 0.035-0.188-0.014l-0.106-0.116c-0.054-0.059-0.048-0.152 0.012-0.203 0.157-0.135 0.234-0.21 0.269-0.265 0.024-0.038 0.027-0.058 0.014-0.107-0.030-0.113-0.114-0.311-0.209-0.516-0.092-0.2-0.187-0.392-0.235-0.491-0.042 0.024-0.086 0.038-0.131 0.032-0.001 0.062-0.030 0.12-0.065 0.16-0.021 0.028-0.127 0.185-0.051 0.433 0.018 0.058 0.058 0.159 0.1 0.274 0.045 0.125 0.092 0.267 0.117 0.396 0.014 0.074-0.037 0.151-0.111 0.165-0.154 0.028-0.408 0.312-0.445 0.391-0.002 0.004-0.1 0.115-0.217 0.049l-0.055-0.031-0.078-0.045c-0.082-0.045-0.055-0.183-0.055-0.183 0.002-0.015 0.001-0.043-0.001-0.1-0.006-0.114-0.037-0.32-0.14-0.667-0.196-0.661-0.452-0.968-0.547-1.059l-0.005 0.010c-0.013 0.025-0.023 0.050-0.030 0.068-0.029 0.070-0.075 0.116-0.132 0.133 0.024 0.049 0.027 0.113-0.003 0.192-0.024 0.054-0.086 0.188-0.136 0.331-0.038 0.11-0.108 0.256-0.144 0.396s-0.018 0.201 0.013 0.228c0.027 0.024 0.046 0.037 0.057 0.043 0.137 0.081 0.104 0.229 0.104 0.229 0 0.091-0.071 0.152-0.16 0.139-0.377-0.059-0.711 0.082-0.797 0.164-0.074 0.070-0.169 0.054-0.217-0.036l-0.059-0.112c-0.031-0.059-0.008-0.148 0.048-0.185 0.001-0 0.155-0.101 0.242-0.212 0.077-0.099 0.16-0.291 0.236-0.497s0.137-0.404 0.172-0.49c0.063-0.152 0.089-0.219 0.105-0.258 0.025-0.069 0.069-0.105 0.116-0.12-0.030-0.054-0.031-0.123 0.014-0.21 0.022-0.058 0.121-0.376 0.123-0.388-0.017-0.006-0.15-0.041-0.168-0.044-0.162-0.033-0.192-0.11-0.106-0.242 0.010-0.015 0.101-0.14 0.101-0.14 0.035-0.042 0.072-0.056 0.113-0.053l0.861 0.024c0.067 0.001 0.132 0.067 0.135 0.134 0 0.013 0.008 0.041 0.049 0.109 0.042 0.069 0.101 0.151 0.171 0.26 0.079 0.12 0.146 0.246 0.213 0.362 0.033 0.058 0.065 0.11 0.096 0.156 0.022-0.020 0.040-0.035 0.056-0.047 0.056-0.049 0.119-0.067 0.177-0.060-0.001-0.057 0.021-0.118 0.076-0.167 0.016-0.015 0.038-0.038 0.070-0.080s0.074-0.106 0.124-0.201c-0.004-0.001-0.009-0.002-0.015-0.007-0.032-0.029-0.248-0.138-0.263-0.145-0.078-0.038-0.103-0.129-0.056-0.202l0.087-0.136c0.022-0.036 0.077-0.060 0.125-0.061zM7.878 17.005c0.004 0.002 0.010 0.004 0.013 0.006 0.017 0.008 0.037 0.014 0.055 0.022 0.037 0.015 0.080 0.034 0.080 0.034 0.070 0.049 0.096 0.159 0.064 0.265-0.003 0.015-0.007 0.030-0.011 0.044l0.021-0.002c0.010-0 0.043-0.002 0.075 0.005 0.043 0.010 0.102 0.038 0.137 0.106 0.009 0.026 0.016 0.046 0.023 0.067-0.050-0.168-0.112-0.339-0.148-0.413-0.051-0.028-0.178-0.081-0.31-0.133zM8.391 18.539l-0.013 0.184h0.065c0.011-0.059 0.030-0.087 0.095-0.087v0.459h-0.057v0.070l0.306-0.001v-0.070h-0.056v-0.459c0.065 0 0.084 0.029 0.095 0.087l0.065 0.001-0.012-0.184h-0.068v0.014h-0.351l0.001-0.014h-0.068zM9.172 18.539l-0.229 0.079v0.054l0.031-0.011v0.45l-0.033-0v0.054l0.233 0v-0.054h-0.035v-0.254c0.015-0.021 0.038-0.037 0.064-0.037 0.042-0.001 0.055 0.022 0.055 0.062v0.229h-0.034v0.054h0.23v-0.054h-0.032l-0.001-0.276c0-0.054-0.024-0.123-0.12-0.123-0.069 0-0.111 0.033-0.162 0.076v-0.178l0.033-0.011v-0.060zM10.578 18.539c-0.199 0-0.357 0.15-0.357 0.344 0 0.18 0.115 0.296 0.288 0.296 0.087 0 0.156-0.030 0.217-0.074l0.039 0.060h0.048v-0.286c0-0.024 0.006-0.034 0.025-0.048l-0.021-0.044c-0.014 0.005-0.028 0.013-0.043 0.013h-0.242v0.070h0.106v0.194c-0.132 0-0.223-0.072-0.223-0.253 0-0.043 0.004-0.187 0.118-0.187 0.030 0 0.061 0.016 0.061 0.050-0 0.012-0.004 0.025-0.013 0.034l0.033 0.050 0.194-0.125-0.038-0.056-0.033 0.021c-0.046-0.030-0.103-0.060-0.159-0.060zM11.979 18.539l-0.228 0.079v0.055l0.031-0.011v0.449h-0.033v0.054l0.232 0v-0.054h-0.035v-0.254c0.015-0.021 0.038-0.038 0.064-0.038 0.042 0 0.056 0.021 0.055 0.062v0.229h-0.034v0.054h0.23v-0.054h-0.032v-0.276c0-0.055-0.025-0.124-0.121-0.123-0.069-0-0.111 0.033-0.162 0.076v-0.177l0.033-0.012v-0.060zM13.334 18.578c-0.038-0-0.096 0.033-0.096 0.077 0 0.037 0.025 0.056 0.061 0.056 0.045 0 0.115-0.020 0.115-0.076 0-0.047-0.041-0.057-0.080-0.056zM11.563 18.61c-0.028 0.068-0.090 0.116-0.16 0.136v0.049h0.044v0.265c0 0.078 0.031 0.118 0.113 0.118 0.058 0 0.109-0.031 0.154-0.064l-0.023-0.038c-0.012 0.008-0.027 0.014-0.043 0.014-0.013 0-0.037-0.008-0.037-0.036v-0.259l0.066 0.001 0.013-0.070h-0.080v-0.036c0-0.023 0.001-0.047 0.006-0.069l-0.054-0.010zM14.467 18.643c0.011 0 0.023 0.001 0.034 0.002l-0.020 0.091c-0.011-0.011-0.017-0.018-0.032-0.018-0.011 0-0.016 0.010-0.016 0.020 0 0.018 0.084 0.046 0.084 0.151 0 0.141-0.13 0.169-0.238 0.197v0.002c0.074 0.008 0.224 0.024 0.224 0.124 0 0.098-0.13 0.121-0.184 0.121-0.079 0-0.159-0.017-0.159-0.090 0.001-0.044 0.048-0.072 0.087-0.077v-0.001c-0.051-0.005-0.082-0.008-0.12-0.003l-0.060-0.058c0.059-0.009 0.115-0.027 0.171-0.048v-0.002c-0.077-0.012-0.154-0.064-0.154-0.158 0-0.129 0.102-0.185 0.2-0.185 0.048 0 0.073 0.008 0.098 0.012l0.011-0.034c0.011-0.033 0.026-0.046 0.075-0.046zM14.276 18.768c-0.033 0-0.046 0.017-0.046 0.060 0 0.048 0.028 0.183 0.095 0.183 0.033 0 0.047-0.017 0.047-0.060 0-0.048-0.028-0.183-0.095-0.183zM14.302 19.182c-0.011 0.018-0.016 0.040-0.016 0.061s0.011 0.047 0.037 0.047c0.022 0 0.034-0.011 0.034-0.033 0-0.041-0.023-0.055-0.055-0.075zM11.010 18.691l0.054 0.018-0.008 0.024c0.033-0.014 0.072-0.021 0.108-0.021 0.1 0 0.166 0.043 0.167 0.149v0.25h0.029v0.054h-0.18l-0.010-0.042c-0.037 0.031-0.076 0.056-0.127 0.056-0.081 0-0.142-0.053-0.142-0.136 0-0.104 0.064-0.163 0.144-0.163h0.123v-0.022c0-0.037-0.020-0.059-0.059-0.059-0.052 0-0.075 0.038-0.099 0.069l-0.055-0.020 0.057-0.156zM11.141 18.933c-0.045 0-0.077 0.031-0.077 0.077 0 0.035 0.010 0.074 0.054 0.074 0.041 0 0.049-0.031 0.049-0.065v-0.086h-0.026zM12.539 18.712c0.121 0 0.188 0.080 0.22 0.189l-0.255 0.093c0.021 0.051 0.057 0.079 0.113 0.079 0.042 0 0.082-0.014 0.109-0.047l0.034 0.036c-0.052 0.069-0.123 0.117-0.223 0.117-0.135 0-0.218-0.095-0.218-0.237 0-0.124 0.094-0.229 0.22-0.229zM12.511 18.78c-0.035-0.001-0.050 0.027-0.050 0.065 0.001 0.035 0.010 0.058 0.015 0.083l0.116-0.044c-0.013-0.038-0.033-0.104-0.081-0.103zM12.986 18.712l-0.18 0.048v0.054l0.029-0.011v0.308h-0.030v0.054h0.238v-0.054h-0.044v-0.217c0.018-0.028 0.043-0.033 0.059-0.033 0.026 0.002 0.049 0.011 0.072 0.020l0.053-0.151-0.049-0.017-0.011 0.018c-0.025-0.012-0.039-0.018-0.066-0.018-0.042-0-0.059 0.075-0.070 0.105h-0.002v-0.106zM13.407 18.712l-0.196 0.056v0.051l0.032-0.006v0.299h-0.034v0.054h0.227v-0.054h-0.029v-0.399zM13.703 18.712l-0.197 0.054v0.053l0.031-0.009v0.302h-0.031v0.054h0.23v-0.054h-0.035v-0.255c0.021-0.019 0.043-0.037 0.073-0.037 0.024 0 0.047 0.013 0.047 0.040v0.252h-0.034v0.054h0.228v-0.054h-0.030v-0.272c-0-0.049-0.016-0.127-0.13-0.127-0.062 0-0.107 0.037-0.153 0.072v-0.072zM9.731 18.712c0.121 0 0.188 0.080 0.219 0.189l-0.254 0.093c0.021 0.051 0.057 0.079 0.113 0.079 0.042 0 0.082-0.014 0.109-0.047l0.034 0.037c-0.052 0.069-0.123 0.116-0.223 0.116-0.135 0-0.219-0.095-0.218-0.237 0-0.124 0.094-0.229 0.22-0.229zM9.703 18.78c-0.035 0.001-0.049 0.028-0.049 0.066 0 0.035 0.010 0.058 0.015 0.082l0.115-0.044c-0.012-0.038-0.033-0.104-0.081-0.104z"></path>
</svg>
