<!-- Generated by IcoMoon.io -->
<svg version="1.1" xmlns="http://www.w3.org/2000/svg" width="18" height="32" viewBox="0 0 18 32">
<title>watermark-maestros</title>
<path fill="#444" d="M8.854 30.171c-1.757 0-4.492-0.261-5.272-1.164 0.308-1.112 4.027-0.729 4.314-3.424v-2.739l0.959 1.506 0.959-1.506v2.739c0.287 2.695 4.006 2.312 4.314 3.424-0.786 0.91-3.515 1.164-5.272 1.164zM1.802 7.849l2.739 1.78 6.71 10.408-0.137 0.822 0.753 0.205c1.603 1.991 2.241 4.458 3.834 3.081 0.89 2.467-1.777 4.377-4.040 2.739 1.262-0.52 0.147-1.918-1.575-4.451l0.068-0.959-0.822-0.137-0.479-0.685 0.834-0.834-7.887-11.97zM7.492 18.433l-1.034 1.604 0.137 0.822-0.753 0.205c-1.603 1.991-2.241 4.458-3.834 3.081-0.89 2.467 1.777 4.377 4.040 2.739-1.262-0.52-0.147-1.918 1.575-4.451l-0.068-0.959 0.822-0.137 0.479-0.685-1.362-2.221zM3.582 12.368l-0.616-0.89c-3.477 3.129-3.922 8.652-1.203 11.845 0.545 0.64 1.133 0.765 1.477 0.205-3.361-3.577-2.733-8.042 0.342-11.161zM14.127 12.368l0.616-0.89c3.477 3.129 3.922 8.652 1.203 11.845-0.545 0.64-1.133 0.765-1.477 0.205 3.361-3.577 2.733-8.042-0.342-11.161zM6.937 17.641l-3.013-4.588c-2.936 2.597-2.736 7.442-0.274 9.723l1.398-2.185-0.113-0.739 0.705-0.186 1.297-2.026zM10.772 17.641l3.013-4.588c2.936 2.597 2.736 7.442 0.274 9.723l-1.398-2.185 0.113-0.739-0.705-0.186-1.297-2.026zM9.336 15.573l0.76 1.095 5.811-8.819-2.739 1.78-3.832 5.943zM8.867 11.683c1.101-0.048 2.77-2.705 4.985-7.874-1.061-0.499-3.332-0.753-4.998-0.753s-3.92 0.246-4.998 0.753c2.225 5.189 3.898 7.847 4.998 7.874l0.013-0zM8.844 10.657c-0.886-0.030-2.853-3.56-3.55-5.067 0.755-0.529 2.373-0.616 3.559-0.621 1.289-0.005 2.83 0.108 3.562 0.621-0.7 1.513-2.68 5.064-3.56 5.067l-0.010-0zM7.759 13.327v-0.548c-3.13-4.179-4.767-7.238-5.546-9.654 1.043-0.986 4.428-1.301 6.642-1.301s5.631 0.346 6.642 1.301c-0.779 2.416-2.416 5.475-5.546 9.654v0.548l-1.096 1.506-1.096-1.506z"></path>
</svg>
