<!-- Generated by IcoMoon.io -->
<svg version="1.1" xmlns="http://www.w3.org/2000/svg" width="25" height="32" viewBox="0 0 25 32">
<title>watermark-crossbreedlabs</title>
<path fill="#444" d="M5.236 6.811c0.107-0.003 0.217 0.048 0.282 0.138l0.426 0.593c0.104 0.145 0.082 0.364-0.066 0.476l-0.648 0.488 5.706 6.954c-0.066-0.080 0.055 0.011 0.188 0.011s0.255-0.093 0.188-0.011l5.612-6.887-0.742-0.56c-0.148-0.112-0.165-0.326-0.061-0.471l0.426-0.593c0.105-0.145 0.311-0.19 0.459-0.078l4.921 3.723c0.148 0.112 0.176 0.331 0.072 0.477l-0.426 0.587c-0.105 0.145-0.317 0.19-0.465 0.078l-0.62-0.471-5.363 6.92 4.24 6.183c0.577 0.841 0.408 1.897-0.044 2.704s-1.188 1.468-2.042 1.468h-12.631c-0.924 0-1.7-0.71-2.131-1.579s-0.53-1.987 0.1-2.876l4.323-6.095-5.286-6.782-0.703 0.526c-0.148 0.112-0.355 0.073-0.459-0.072l-0.426-0.598c-0.104-0.146-0.087-0.359 0.061-0.471l4.926-3.723c0.056-0.042 0.119-0.059 0.183-0.061zM16.821 7.176l-0.404 0.571 4.882 3.69 0.41-0.565-4.887-3.696zM5.242 7.176l-4.882 3.69 0.404 0.571 4.887-3.696-0.41-0.565zM19.059 11.813l0.795-1.025-2.363-1.79-5.629 6.909c-0.222 0.272-0.486 0.271-0.736 0.271s-0.514-0.001-0.736-0.271l-5.723-6.976-2.374 1.795 5.463 7.009c0 0 0.114 0.153 0.116 0.233s-0.105 0.244-0.105 0.244l-4.494 6.339c-0.422 0.596-0.371 1.385-0.039 2.056s0.934 1.136 1.417 1.136h12.631c0.388 0 0.994-0.432 1.345-1.058s0.444-1.344 0.089-1.862l-4.406-6.427c0 0-0.1-0.117-0.1-0.233s0.111-0.238 0.111-0.238l4.195-5.409c-0.149 0.079-0.319 0.124-0.498 0.124-0.588 0-1.072-0.485-1.072-1.074s0.484-1.073 1.072-1.073c0.588 0 1.072 0.485 1.072 1.073 0 0.085-0.010 0.167-0.029 0.246zM9.603 18.208c0.484-0.005 0.538 0.497 1.029 0.51s0.363-0.294 0.819-0.299c0.457-0.005 0.545 0.409 1.079 0.438s0.584-0.289 0.985-0.271l4.24 6.194c0.745 1.086-0.148 2.322-1.041 2.322h-11.402c-0.967 0-1.873-1.302-1.218-2.227l4.605-6.494c0.115-0.163 0.419-0.167 0.902-0.172zM11.867 24.397c-0.442 0.045-0.786 0.421-0.786 0.875 0 0.485 0.39 0.875 0.874 0.875s0.875-0.391 0.875-0.875c0-0.485-0.39-0.875-0.875-0.875-0.030 0-0.059-0.003-0.089 0zM10.5 19.881c-0.722 0-1.306 0.585-1.306 1.308s0.584 1.308 1.306 1.308c0.722 0 1.306-0.585 1.306-1.308s-0.584-1.308-1.306-1.308zM7.987 23.172c-0.484 0-0.875 0.391-0.875 0.875s0.39 0.881 0.875 0.881c0.484 0 0.88-0.396 0.88-0.881s-0.396-0.875-0.88-0.875zM15.080 16.206c0 0.589-0.484 1.074-1.072 1.074s-1.072-0.485-1.072-1.074c0-0.589 0.484-1.073 1.072-1.073s1.072 0.485 1.072 1.073zM15.659 13.675c0 0.318-0.261 0.58-0.579 0.58s-0.579-0.262-0.579-0.58c0-0.318 0.262-0.58 0.579-0.58s0.579 0.262 0.579 0.58zM20.434 6.575v0.001c0 0.567-0.467 1.034-1.033 1.034s-1.033-0.467-1.033-1.034v-0.001c0-0.567 0.467-1.034 1.033-1.034s1.033 0.467 1.033 1.034zM24.489 2.681c0 0.443-0.364 0.807-0.806 0.807s-0.806-0.364-0.806-0.807c0-0.443 0.364-0.807 0.806-0.807s0.806 0.364 0.806 0.807zM24.802 6.363v0.002c0 0.899-0.739 1.638-1.636 1.638s-1.636-0.739-1.636-1.638v-0.002c0-0.898 0.738-1.638 1.636-1.638s1.636 0.739 1.636 1.638z"></path>
</svg>
