<!-- Generated by IcoMoon.io -->
<svg version="1.1" xmlns="http://www.w3.org/2000/svg" width="24" height="32" viewBox="0 0 24 32">
<title>watermark-conspiracy</title>
<path fill="#444" d="M1.759 23.313c-0.457-0.313-0.744-0.686-0.862-1.119-0.253-0.94-0.544-1.668-0.477-2.671 0.029-0.434 0.013-0.82-0.048-1.157-0.208-1.134-0.11-2.2-0.243-3.367-0.105-0.928 0.124-1.819 0.007-2.69-0.272-2.033-0.243-3.637 1.091-5.289 0.852-1.057 1.737-2.286 3.031-2.542 1.057-0.21 2.071-0.277 3.184-0.153 0.685 0.077 1.272-0.069 1.802-0.308 1.265-0.568 2.32-0.329 3.563-0.683 1.587-0.449 5.014-1.169 6.429-0.122 1.656 1.227 2.854 2.37 2.892 4.372 0.019 1.088 0.179 2.141 0.561 3.15 0.255 0.68 0.232 1.394 0.449 2.012 0.783 2.224 0.375 5.074-0.172 7.32-0.217 0.893-0.833 1.427-1.141 2.274-0.456 1.262-0.819 2.308-1.592 3.506-0.518 0.802-0.936 1.826-1.563 2.418-2.086 1.966-4.744 0.795-7.176-0.262-1.652-0.718-3.369-0.766-5.153-0.146-0.077 0.028-0.162 0.027-0.239-0.002-2.224-0.826-2.425-3.22-4.344-4.542zM11.463 5.060c-3.51 0.225-5.995 0.616-7.379 1.907-2.769 2.583-3.111 5.666-3.111 9.151 0 2.516 0.535 4.797 1.975 6.639 1.814 2.322 4.005 4.279 8.838 4.334 1.658 0.019 3.238 0.023 4.497-0.494 3.605-1.483 6.693-5.995 6.489-10.744-0.231-5.381-1.182-5.756-4.128-8.63-1.118-1.090-0.95-1.997-2.272-2.486-1.396-0.516-3.404 0.225-4.91 0.322zM12.095 6.273c5.434 0 9.846 4.412 9.846 9.846s-4.412 9.846-9.846 9.846c-5.434 0-9.846-4.412-9.846-9.846s4.412-9.846 9.846-9.846zM12.095 7.872c-4.552 0-8.247 3.695-8.247 8.247s3.695 8.247 8.247 8.247c4.552 0 8.247-3.695 8.247-8.247s-3.695-8.247-8.247-8.247zM8.362 16.264c0.044 0.287 0.31 0.349 0.452 0.336 0.127-0.011 0.346-0.117 0.346-0.406v-2.57c0-0.301 0.244-0.545 0.545-0.545h1.089c0.301 0 0.545 0.244 0.545 0.545v2.455c0.028 0.264 0.164 0.479 0.568 0.478 0.299-0 0.53-0.087 0.568-0.475l0.24-2.482c0.028-0.287 0.284-0.52 0.571-0.52h1.041c0.287 0 0.498 0.233 0.47 0.52l-0.25 2.58c-0.004 0.16-0.018 0.387 0.277 0.406 0.352 0.023 0.377-0.2 0.417-0.354l0.445-2.262c0.052-0.265 0.31-0.48 0.575-0.48h0.961c0.265 0 0.438 0.215 0.386 0.48l-0.591 3.001c-0.052 0.265-0.31 0.48-0.575 0.48h-9.226c-0.261 0-0.52-0.212-0.58-0.472l-0.627-2.754c-0.059-0.261 0.104-0.472 0.364-0.472h0.944c0.261 0 0.52 0.211 0.58 0.472l0.464 2.038zM16.838 11.521c0.43 0 0.78 0.349 0.78 0.78s-0.349 0.78-0.78 0.78c-0.43 0-0.78-0.349-0.78-0.78s0.349-0.78 0.78-0.78zM16.838 18.504v1.595c0 0.23-0.187 0.417-0.417 0.417h-9.239c-0.23 0-0.417-0.187-0.417-0.417v-1.595c0-0.23 0.187-0.417 0.417-0.417h9.239c0.23 0 0.417 0.187 0.417 0.417zM10.256 10.956c0.43 0 0.78 0.349 0.78 0.78s-0.349 0.78-0.78 0.78c-0.43 0-0.78-0.349-0.78-0.78s0.349-0.78 0.78-0.78zM6.935 11.736c0.43 0 0.78 0.349 0.78 0.78s-0.349 0.78-0.78 0.78-0.78-0.349-0.78-0.78c0-0.43 0.349-0.78 0.78-0.78zM13.675 10.956c0.43 0 0.78 0.349 0.78 0.78s-0.349 0.78-0.78 0.78c-0.43 0-0.78-0.349-0.78-0.78s0.349-0.78 0.78-0.78z"></path>
</svg>
