<!-- Generated by IcoMoon.io -->
<svg version="1.1" xmlns="http://www.w3.org/2000/svg" width="27" height="32" viewBox="0 0 27 32">
<title>watermark-cutiemark-sparkle</title>
<path fill="#444" d="M7.715 15.392l-5.354-4.868c-0.046-0.042-0.040-0.053 0.019-0.032l6.072 2.121c-0.008-0.045-0.011-0.1-0.025-0.139-0.391-1.102-0.79-2.199-1.197-3.292-0-0.001-0.001-0.002-0.001-0.004 0-0.006 0.005-0.011 0.011-0.011 0.003 0 0.006 0.001 0.008 0.003l2.6 2.531c0.009 0.009 0.022 0.013 0.034 0.010 0.015-0.003 0.028 0 0.040 0.009l1.535-9.74c0.005-0.033 0.011-0.034 0.018-0l2.066 9.633c0.012-0.007 0.026-0.012 0.042-0.014 0.013-0.001 0.024-0.007 0.033-0.016l2.409-2.392c0.034-0.034 0.043-0.028 0.028 0.017-0.376 1.109-0.756 2.22-1.139 3.335-0.008 0.023-0.004 0.060 0.011 0.111l7.619-2.824c0.001-0 0.003-0.001 0.004-0.001 0.006 0 0.011 0.005 0.011 0.011 0 0.003-0.001 0.006-0.004 0.009l-6.605 5.509 2.887 0.892c0.061 0.019 0.061 0.037-0.001 0.054l-2.645 0.742 4.4 4.958c0.002 0.002 0.003 0.005 0.003 0.007 0 0.006-0.005 0.011-0.011 0.011-0.002 0-0.003-0-0.004-0.001l-5.671-2.66c-0.016 0.050-0.021 0.085-0.014 0.105 0.46 1.304 0.922 2.606 1.384 3.907 0.003 0.007-0.001 0.015-0.009 0.018-0.011 0.004-0.018 0.001-0.021-0.011-0.893-0.879-1.771-1.777-2.679-2.64-0.009-0.008-0.019-0.013-0.031-0.013h-0.041l-1.712 9.056c-0 0.003-0.002 0.004-0.005 0.004-0.033 0.002-0.034-0-0.002-0.007 0.002-0 0.003-0.002 0.002-0.004l-1.671-8.817c-0.026 0.006-0.043 0.014-0.052 0.023-0.761 0.807-1.523 1.615-2.285 2.425-0.001 0.002-0.003 0.002-0.005 0.002-0.004 0-0.007-0.003-0.007-0.007 0-0.001 0-0.001 0-0.002l1.255-4.32-5.315 1.548c-0.001 0-0.002 0-0.004 0-0.008 0-0.014-0.006-0.014-0.014 0-0.004 0.001-0.007 0.004-0.010l3.529-3.529-2.519-0.766c-0.011-0.003-0.018-0.013-0.018-0.024s0.008-0.021 0.018-0.024c0.98-0.271 1.943-0.538 2.889-0.8 0.051-0.014 0.078-0.046 0.126-0.069zM20.139 4.033c0.364 0.389 0.768 0.767 1.112 1.178 0.002 0.002 0.002 0.004 0.002 0.006 0 0.005-0.004 0.009-0.009 0.009-0.001 0-0.003-0-0.004-0.001l-1.374-0.568c-0.040-0.016-0.066-0.004-0.077 0.039-0.012 0.047-0.008 0.103-0.015 0.145-0.133 0.712-0.267 1.422-0.4 2.129-0.001 0.005-0.005 0.008-0.010 0.008s-0.009-0.004-0.010-0.008l-0.425-2.272c-0.007-0.039-0.029-0.051-0.066-0.036l-1.401 0.562c-0.001 0.001-0.003 0.001-0.004 0.001-0.006 0-0.010-0.005-0.010-0.010 0-0.003 0.001-0.006 0.003-0.007l1.141-1.182c0.005-0.005 0.008-0.013 0.008-0.020s-0.003-0.016-0.009-0.021l-1.137-1.092c-0.003-0.003-0.005-0.007-0.005-0.011 0-0.008 0.007-0.015 0.015-0.015 0.002 0 0.004 0 0.005 0.001l1.419 0.502c0.002 0.001 0.005 0.001 0.008 0.001 0.011 0 0.021-0.008 0.024-0.019l0.427-2.283c0.001-0.009 0.009-0.015 0.017-0.015s0.016 0.006 0.017 0.015l0.42 2.259c0.004 0.022 0.023 0.038 0.046 0.038 0.005 0 0.011-0.001 0.016-0.003l1.366-0.493c0.002-0.001 0.005-0.001 0.007-0 0.007 0.002 0.010 0.010 0.008 0.018-0.001 0.003-0.002 0.005-0.004 0.007l-1.102 1.101c-0.013 0.013-0.013 0.026-0.001 0.040zM1.666 3.382c-0.002-0.002-0.004-0.006-0.004-0.009 0-0.007 0.006-0.013 0.013-0.013 0.001 0 0.003 0 0.004 0.001l1.51 0.536c0.012 0.004 0.019 0 0.021-0.012l0.451-2.414c0-0.001 0-0.002 0.001-0.002 0.002-0.004 0.008-0.006 0.012-0.004 0.001 0 0.001 0.001 0.002 0.001 0.011 0.010 0.018 0.023 0.021 0.039 0.147 0.786 0.296 1.575 0.447 2.368 0.002 0.012 0.013 0.020 0.025 0.020 0.003 0 0.006-0 0.008-0.001l1.461-0.523c0.001-0 0.002-0.001 0.003-0.001 0.006 0 0.011 0.005 0.011 0.011 0 0.003-0.001 0.006-0.003 0.008l-1.169 1.154c-0.006 0.006-0.009 0.013-0.009 0.021s0.003 0.015 0.008 0.021l1.175 1.231c0.002 0.002 0.003 0.005 0.004 0.008 0.002 0.009-0.004 0.017-0.013 0.019-0.003 0.001-0.006 0-0.009-0.001l-1.467-0.604c-0.016-0.007-0.026-0.001-0.030 0.016l-0.459 2.431c0 0.004-0.003 0.008-0.008 0.008s-0.007-0.003-0.007-0.008l-0.451-2.429c-0.004-0.019-0.014-0.024-0.031-0.017l-1.493 0.599c-0.001 0.001-0.003 0.001-0.004 0.001-0.007 0-0.014-0.006-0.014-0.014 0-0.003 0.001-0.006 0.003-0.009l1.198-1.241c0.010-0.010 0.010-0.020 0-0.029l-1.21-1.161zM23.639 20.161c-0.006-0.029-0.022-0.038-0.049-0.027l-2.273 0.919c-0.002 0.001-0.003 0.001-0.005 0.001-0.006 0-0.010-0.005-0.010-0.010 0-0.003 0.001-0.006 0.004-0.008l1.842-1.89c0.003-0.003 0.005-0.008 0.005-0.012s-0.002-0.010-0.006-0.013l-1.839-1.773c-0.002-0.002-0.003-0.005-0.003-0.008 0-0.006 0.005-0.011 0.011-0.011 0.001 0 0.003 0 0.004 0.001l2.294 0.804c0.011 0.004 0.017 0 0.020-0.011l0.692-3.664c0.001-0.007 0.007-0.012 0.014-0.012s0.014 0.006 0.015 0.013c0.009 0.105 0.024 0.213 0.045 0.322 0.209 1.095 0.42 2.203 0.632 3.324 0 0.001 0 0.002 0.001 0.002 0.005 0.017 0.022 0.027 0.039 0.022 0.001-0 0.002-0 0.003-0.001l2.206-0.794c0.002-0.001 0.004-0.001 0.006-0.001 0.011 0 0.020 0.009 0.020 0.020 0 0.005-0.002 0.010-0.006 0.014l-1.783 1.743c-0.009 0.009-0.009 0.022-0 0.031l1.788 1.875c0.001 0.001 0.002 0.003 0.002 0.005 0.001 0.015-0.005 0.020-0.019 0.015-0.746-0.305-1.491-0.609-2.233-0.914-0.002-0.001-0.004-0.001-0.007-0.001-0.008 0-0.015 0.006-0.017 0.014l-0.691 3.652c-0.002 0.006-0.007 0.011-0.014 0.011s-0.012-0.005-0.014-0.011c-0.193-1.215-0.449-2.426-0.674-3.627zM4.585 22.939c-0.076 0.087-0.156 0.171-0.241 0.252-0.369 0.352-0.736 0.71-1.103 1.074-0.011 0.010-0.011 0.021-0 0.032l1.381 1.437c0.003 0.003 0.005 0.007 0.005 0.011 0 0.009-0.007 0.016-0.016 0.016-0.002 0-0.005-0-0.006-0.001l-1.721-0.711c-0.002-0.001-0.004-0.001-0.006-0.001-0.007 0-0.014 0.005-0.015 0.013l-0.529 2.805c-0.001 0.006-0.006 0.010-0.012 0.010s-0.011-0.004-0.012-0.010l-0.52-2.78c-0.003-0.015-0.016-0.026-0.031-0.026-0.004 0-0.008 0.001-0.012 0.002l-1.644 0.66c-0.107 0.043-0.121 0.023-0.040-0.060l1.346-1.376c0.004-0.004 0.003-0.008-0-0.011l-1.403-1.352c-0.003-0.003-0.005-0.007-0.005-0.012 0-0.009 0.007-0.016 0.016-0.016 0.002 0 0.004 0 0.006 0.001l1.733 0.61c0.017 0.006 0.027 0 0.031-0.018l0.508-2.724c0.024-0.127 0.045-0.127 0.063 0.001 0.018 0.124 0.043 0.276 0.077 0.455 0.144 0.757 0.286 1.51 0.426 2.259 0.003 0.015 0.016 0.026 0.032 0.026 0.004 0 0.007-0.001 0.011-0.002l1.684-0.606c0.002-0.001 0.003-0.001 0.005-0.001 0.009 0 0.016 0.007 0.016 0.016 0 0.001-0 0.003-0.001 0.004-0.003 0.012-0.011 0.020-0.022 0.023zM16.625 27.879l-1.139-1.097c-0.003-0.003-0.004-0.006-0.004-0.010 0-0.008 0.007-0.015 0.015-0.015 0.002 0 0.003 0 0.005 0.001l1.44 0.506c0.023 0.008 0.036 0 0.040-0.023l0.44-2.327c0.001-0.006 0.006-0.011 0.013-0.011s0.012 0.005 0.013 0.011l0.442 2.336c0.004 0.018 0.014 0.024 0.031 0.018l1.405-0.506c0.002-0.001 0.004-0.001 0.007-0.001 0.012 0 0.021 0.010 0.021 0.021 0 0.005-0.002 0.011-0.006 0.015l-1.125 1.102c-0.013 0.013-0.014 0.035-0.001 0.048l1.143 1.194c0.002 0.002 0.004 0.005 0.004 0.008 0.001 0.008-0.006 0.015-0.015 0.016-0.003 0-0.007-0-0.010-0.001l-1.397-0.579c-0.002-0.001-0.003-0.001-0.005-0.002-0.026-0.008-0.053 0.007-0.061 0.033-0 0.002-0.001 0.003-0.001 0.005l-0.438 2.321c-0 0.002-0.001 0.004-0.003 0.005-0.004 0.004-0.010 0.003-0.013-0-0.001-0.001-0.002-0.003-0.003-0.005l-0.438-2.345c-0.002-0.013-0.014-0.022-0.026-0.022-0.003 0-0.007 0.001-0.010 0.002l-1.446 0.585c-0.002 0.001-0.003 0.001-0.005 0.001-0.008 0-0.014-0.006-0.014-0.014 0-0.004 0.001-0.007 0.004-0.009l1.138-1.181c0.025-0.026 0.025-0.052-0.001-0.078z"></path>
</svg>
