<!-- Generated by IcoMoon.io -->
<svg version="1.1" xmlns="http://www.w3.org/2000/svg" width="32" height="32" viewBox="0 0 32 32">
<title>watermark-grandprix</title>
<path fill="#444" d="M3.357 14.213l-0.442 0.328h-0.336c-0.373 0-0.716-0.063-1.027-0.188s-0.584-0.308-0.816-0.548c-0.232-0.242-0.413-0.552-0.544-0.927-0.128-0.378-0.192-0.806-0.192-1.283 0-0.437 0.072-0.841 0.216-1.211 0.144-0.373 0.338-0.685 0.584-0.935 0.248-0.253 0.536-0.449 0.863-0.588 0.331-0.141 0.68-0.212 1.047-0.212 0.818 0 1.462 0.235 1.931 0.704l-0.907 1.259-0.024-0.024c0.016-0.144 0.024-0.264 0.024-0.36 0-0.306-0.083-0.557-0.248-0.752-0.163-0.197-0.408-0.296-0.736-0.296-0.426 0-0.766 0.203-1.019 0.608s-0.38 0.981-0.38 1.727c0 0.85 0.119 1.479 0.356 1.887 0.237 0.405 0.61 0.608 1.119 0.608 0.094 0 0.185-0.007 0.274-0.020l-1.278-1.114 1.771 0.754v-0.652c0-0.373-0.087-0.664-0.26-0.871-0.173-0.211-0.425-0.37-0.756-0.48v-0.032h2.163v2.523l0.686 0.292 0.212-0.131-0.456-3.042 0.665 1.33v-2.871h1.015v-0.032l-1.467-0.899v-0.036h2.287c0.227 0 0.442 0.019 0.648 0.056 0.208 0.035 0.402 0.092 0.584 0.172 0.184 0.080 0.341 0.177 0.472 0.292 0.133 0.115 0.239 0.257 0.316 0.428 0.077 0.168 0.116 0.354 0.116 0.56 0 0.352-0.103 0.656-0.308 0.912s-0.482 0.433-0.832 0.532l0.828 1.464c0.593-0.233 1.339-0.498 2.179-0.737l1.624-3.921h0.036l1.329 3.31c0.587-0.069 1.186-0.106 1.785-0.099 0.15 0.002 0.299 0.005 0.448 0.011v-2.354l-0.204-0.312-0.412-0.276v-0.036h1.579l2.195 3.146h0.036v-2.087c0-0.157-0.009-0.289-0.028-0.396-0.019-0.109-0.044-0.199-0.076-0.268-0.029-0.069-0.077-0.127-0.144-0.172-0.064-0.048-0.131-0.084-0.2-0.108-0.069-0.027-0.164-0.053-0.284-0.080v-0.036h1.875v0.036l-0.448 0.276-0 3.231c0.534 0.138 1.056 0.299 1.564 0.48v-3.056h1.015v-0.032l-1.467-0.899v-0.036h2.251c0.554 0 1.037 0.12 1.447 0.36 0.413 0.24 0.728 0.576 0.943 1.007 0.219 0.432 0.328 0.931 0.328 1.499 0 0.912-0.241 1.618-0.724 2.119-0.201 0.209-0.434 0.374-0.7 0.495 0.959 0.573 1.836 1.224 2.615 1.935h0.344l0.471 0.804c0.286 0.305 0.555 0.618 0.805 0.939l0.606-0.883c0.099-0.139 0.148-0.285 0.148-0.44 0-0.101-0.031-0.187-0.092-0.256s-0.156-0.112-0.284-0.128v-0.036h1.835v0.036l-0.452 0.276-1.363 1.969c0.707 1.009 1.234 2.079 1.55 3.17l0.361 0.25v0.032h-1.635l-1.223-2.079-0.844 1.219c-0.096 0.139-0.144 0.286-0.144 0.444 0 0.221 0.125 0.349 0.376 0.384v0.032h-1.835v-0.032l0.452-0.28 1.635-2.375-1.603-2.734-0.404-0.276v-0.036h0.984c-0.752-0.654-1.618-1.277-2.606-1.82-0.297 0.092-0.628 0.138-0.992 0.138h-2.251v-0.032l0.452-0.28v-1.012c-0.499-0.155-1.020-0.29-1.564-0.401l0 2.1h-0.036l-1.656-2.355c-0.485-0.049-0.986-0.078-1.502-0.088v1.011c0 0.197 0.011 0.356 0.032 0.476 0.024 0.117 0.069 0.213 0.136 0.288 0.067 0.072 0.139 0.125 0.216 0.16 0.080 0.032 0.195 0.065 0.344 0.1v0.032h-1.875v-0.032l0.452-0.28v-1.753c-0.67 0.017-1.312 0.084-1.918 0.184l0.63 1.57 0.408 0.28v0.032h-1.595l-0.613-1.64c-0.075 0.019-0.15 0.038-0.224 0.057l-0.49 0.316h-0.561c-0.196 0.066-0.384 0.134-0.563 0.203l-0.031 0.073c-0.059 0.155-0.088 0.294-0.088 0.42 0 0.269 0.145 0.449 0.436 0.54v0.032h-1.747v-0.032l0.412-0.28 0.166-0.4c-0.405 0.181-0.742 0.353-1.001 0.494l0.21 0.372 2.793 0.064-2.43 0.578c0.232 0.402 0.502 0.669 0.812 0.8l-0.008 0.028c-0.043 0.011-0.092 0.016-0.148 0.016-0.203 0-0.432-0.057-0.688-0.172-0.252-0.114-0.511-0.274-0.779-0.48l-1.593 0.378 2.949 3.113-3.769-2.13 0.902 4.261-1.967-3.604-2.622 4.753 1.556-5.326-5.327 1.229 4.532-2.229c-0.271-0.325-0.59-0.542-0.958-0.651v-0.821l-0.237-0.207zM5.547 14.461l0.127 0.054-0.008-0.054h-0.119zM7.091 13.702l0.685-1.265-0.553-1.054v-0.032h0.236c0.376 0 0.644-0.092 0.804-0.276 0.163-0.187 0.244-0.453 0.244-0.8 0-0.317-0.093-0.558-0.28-0.724-0.184-0.165-0.486-0.248-0.907-0.248h-0.244v4.182c0 0.076 0.005 0.149 0.016 0.216zM8.187 13.22l-0.136 0.557c0 0 0.121-0.061 0.343-0.163-0.005-0.009-0.010-0.019-0.015-0.029l-0.192-0.366zM4.741 15.799l0.277-0.136-0.277-0.242v0.378zM13.508 11.973l-0.435-1.182h-0.032l-0.574 1.407c0.337-0.082 0.685-0.159 1.041-0.225zM18.664 11.855l-1.029-1.463h-0.032v1.353c0.357 0.027 0.711 0.063 1.061 0.11zM24.736 13.802c0.186-0.096 0.338-0.245 0.456-0.448 0.224-0.386 0.336-0.973 0.336-1.759 0-0.816-0.111-1.407-0.332-1.775-0.221-0.37-0.566-0.556-1.035-0.556h-0.572v3.978c0.392 0.174 0.775 0.361 1.147 0.559zM29.587 18.037c-0.070-0.087-0.142-0.173-0.215-0.26l0.181 0.309 0.034-0.049zM31.636 21.592c-0.229-0.728-0.761-1.834-1.643-3.029l-0.088 0.128 1.703 2.882 0.028 0.020zM23.589 13.578v0.352h0.572c0.069 0 0.135-0.004 0.198-0.013-0.25-0.118-0.506-0.232-0.77-0.339zM14.337 16.18v-0.036h2.287c0.64 0 1.149 0.14 1.527 0.42s0.568 0.684 0.568 1.211c0 0.272-0.057 0.52-0.172 0.744-0.112 0.224-0.262 0.406-0.452 0.548-0.189 0.139-0.401 0.247-0.636 0.324-0.232 0.075-0.473 0.112-0.724 0.112h-0.032l-0.688-0.444v3.678h-0.032c-0.117-0.173-0.284-0.343-0.5-0.508-0.216-0.163-0.448-0.28-0.696-0.352v-4.765h1.015v-0.032l-1.467-0.899zM16.016 18.93h0.376c0.677 0 1.015-0.369 1.015-1.107 0-0.384-0.089-0.664-0.268-0.84s-0.472-0.264-0.88-0.264h-0.244v2.211zM19.010 21.876v-0.032l0.452-0.28v-4.453h1.015v-0.032l-1.467-0.899v-0.036h2.287c0.227 0 0.442 0.019 0.648 0.056 0.208 0.035 0.402 0.092 0.584 0.172 0.184 0.080 0.341 0.177 0.472 0.292 0.133 0.115 0.239 0.257 0.316 0.428 0.077 0.168 0.116 0.354 0.116 0.56 0 0.352-0.103 0.656-0.308 0.911s-0.482 0.433-0.831 0.532l2.023 3.578c0.232 0.402 0.502 0.669 0.812 0.8l-0.008 0.028c-0.043 0.011-0.092 0.016-0.148 0.016-0.203 0-0.432-0.057-0.688-0.172-0.253-0.115-0.514-0.276-0.784-0.484-0.267-0.205-0.534-0.47-0.803-0.796-0.267-0.322-0.501-0.677-0.704-1.063l-1.155-2.203v-0.032h0.236c0.376 0 0.644-0.092 0.803-0.276 0.163-0.187 0.244-0.453 0.244-0.8 0-0.317-0.093-0.558-0.28-0.724-0.184-0.165-0.486-0.248-0.907-0.248h-0.244v4.182c0 0.128 0.015 0.244 0.044 0.348s0.067 0.188 0.112 0.252c0.045 0.064 0.1 0.121 0.164 0.172 0.067 0.048 0.128 0.084 0.184 0.108 0.059 0.024 0.123 0.045 0.192 0.064v0.032h-2.375zM24.077 16.18v-0.036h2.131v0.036l-0.452 0.276v6.28h-0.032c-0.117-0.173-0.284-0.343-0.5-0.508-0.216-0.163-0.448-0.28-0.696-0.352v-5.421l-0.452-0.276z"></path>
</svg>
