<!-- Generated by IcoMoon.io -->
<svg version="1.1" xmlns="http://www.w3.org/2000/svg" width="17" height="32" viewBox="0 0 17 32">
<title>watermark-flavor-farewelltoarms</title>
<path fill="#444" d="M0.963 8.517c-0.365 0.018-0.839-0.023-0.939 1.076-0.115 1.269 0.214 3.525 0.271 4.715 0.039 0.807 0.072 1.855 0.073 2.424 0.001 0.331-0.017 0.951 0.022 1.28 0.056 0.478 0.174 0.962 0.315 1.586 0.181 0.804 0.495 2.153 0.686 2.951 0.147 0.614 0.222 1.077 0.356 1.489 0.075 0.23 0.379 0.755 0.447 0.987 0.097 0.335 0.203 0.907 0.241 1.369 0.059 0.707 0.112 2.871 0.112 2.871l7.433 0.099c0 0 0.195-1.819 0.645-2.584 0.505-0.858 1.736-1.744 2.383-2.565 0.576-0.731 1.094-1.585 1.497-2.358 0.378-0.725 0.605-1.52 0.918-2.276 0.358-0.866 0.997-2.342 1.23-2.922 0.073-0.181 0.175-0.364 0.172-0.559-0.007-0.345-0.22-1.011-0.212-1.511s0.113-0.871 0.189-1.219c0.045-0.206 0.279-0.658 0.266-0.868-0.028-0.441-0.397-0.703-0.665-0.784s-0.714 0.061-0.943 0.298c-0.378 0.392-1.089 1.375-1.325 2.056-0.221 0.639-0.149 1.33-0.306 1.777-0.118 0.338-0.45 0.654-0.632 0.909-0.175 0.246-0.159 0.67-0.245 0.873-0.057 0.134-0.144 0.329-0.272 0.342s-0.45-0.082-0.498-0.264c-0.139-0.528-0.268-1.94-0.337-2.904-0.069-0.957-0.065-1.918-0.080-2.878-0.016-0.996 0.032-2.066-0.017-3.097-0.053-1.101-0.192-2.674-0.298-3.512-0.065-0.515-0.167-1.224-0.34-1.519-0.125-0.214-0.453-0.271-0.699-0.251-0.742 0.063-0.89 0.584-0.989 0.964-0.127 0.487-0.081 1.205-0.116 1.845-0.036 0.664-0.098 1.559-0.128 2.248-0.046 1.064-0.057 3.365-0.15 4.139-0.018 0.146-0.191 0.34-0.303 0.322s-0.345-0.243-0.369-0.431c-0.086-0.671-0.125-2.434-0.228-3.629-0.107-1.24-0.275-2.36-0.413-3.398-0.112-0.843-0.268-2.19-0.572-2.613-0.181-0.252-0.69-0.424-0.952-0.342s-0.636 0.229-0.748 0.653c-0.134 0.504-0.213 1.644-0.169 2.411 0.092 1.601 0.43 6.008 0.486 7.306 0.007 0.168-0.071 0.467-0.15 0.481s-0.302-0.229-0.325-0.399c-0.094-0.695-0.258-2.608-0.361-3.864-0.141-1.717-0.387-2.771-0.563-3.508-0.175-0.729-0.667-0.693-0.857-0.676s-0.707 0.326-0.77 0.553c-0.149 0.538-0.079 1.728-0.124 2.673-0.048 0.996 0.029 1.956 0.099 2.999 0.070 1.039 0.282 2.687 0.324 3.258 0.009 0.119-0.083 0.317-0.142 0.329s-0.191-0.146-0.211-0.255c-0.175-0.937-0.548-4.362-0.84-5.37-0.105-0.362-0.566-0.746-0.874-0.731z"></path>
</svg>
