<!-- Generated by IcoMoon.io -->
<svg version="1.1" xmlns="http://www.w3.org/2000/svg" width="29" height="32" viewBox="0 0 29 32">
<title>watermark-flavor-monkeymonkeymonkey</title>
<path fill="#444" d="M4.017 7.796l-1.675 1.69-2.342-2.224 4.211-3.873 2.842 2.357 4.867-2.357 5.169 3.446 5.811-3.856 4.505 4.086-0.34 16.923 1.734 2.241-2.279 2.575-2.908-2.849 1.454-1.729 0.125-15.774-3.165-2.771-4.303 3.205-0.062 14.801 1.588 2.303-2.92 3.032-3.422-3.466 1.921-1.967 0.168-15.137-3.504-2.771-3.689 3.205 0.145 13.975 1.897 2.479-3.872 3.683-3.11-4.25 1.729-2.319 0.075-13.568-0.649-1.089z"></path>
</svg>
