<!-- Generated by IcoMoon.io -->
<svg version="1.1" xmlns="http://www.w3.org/2000/svg" width="16" height="32" viewBox="0 0 16 32">
<title>watermark-cutiemark-gems</title>
<path fill="#444" d="M1.575 0.062c0.015 0.041 0.045 0.070 0.057 0.109 0.535 1.862 1.063 3.726 1.583 5.591 0.003 0.011-0.002 0.023-0.013 0.029-0.367 0.187-0.47 0.474-0.616 0.829-0.007 0.017-0.019 0.021-0.034 0.010l-1.642-1.157 0.665-5.412zM1.978 0.074l3.212 3.953c-0.036 0.030-0.060 0.063-0.072 0.098-0.251 0.721-0.497 1.439-0.74 2.153-0.003 0.009-0.010 0.015-0.019 0.018-0.011 0.003-0.024-0.002-0.030-0.012-0.18-0.284-0.431-0.468-0.754-0.553-0.017-0.004-0.028-0.015-0.033-0.032l-1.564-5.625zM5.419 4.308l1.276 1.573-1.898 1.333c-0.011 0.008-0.018 0.005-0.023-0.007l-0.185-0.488c-0.003-0.006-0.003-0.014-0-0.020l0.831-2.39zM0.863 5.887c0.049 0.017 0.12 0.058 0.212 0.122 0.473 0.329 0.944 0.661 1.414 0.995 0.013 0.010 0.019 0.023 0.017 0.039-0.042 0.351-0.040 0.702 0.006 1.053 0.002 0.020-0.010 0.040-0.029 0.046l-1.971 0.673 0.352-2.928zM4.567 7.869c0.149 1.046-0.114 1.95-0.588 2.018s-0.98-0.726-1.13-1.773 0.114-1.95 0.588-2.018c0.474-0.068 0.98 0.726 1.13 1.772zM6.821 6.255l-0.348 3.082-1.532-0.457c-0.016-0.005-0.023-0.015-0.021-0.031 0.039-0.41 0.021-0.818-0.054-1.224-0.004-0.019 0.002-0.034 0.018-0.045 0.619-0.431 1.235-0.862 1.849-1.294 0.021-0.015 0.050-0.026 0.088-0.032zM2.67 11.498l-1.979-2.349 1.868-0.652c0.018-0.006 0.029 0 0.033 0.019 0.088 0.446 0.261 0.855 0.518 1.228 0.010 0.014 0.013 0.030 0.008 0.046l-0.449 1.708zM6.424 9.69l-0.555 4.817c-0.042-0.068-0.072-0.134-0.090-0.199-0.413-1.444-0.828-2.889-1.243-4.335-0.005-0.018-0.002-0.033 0.009-0.048 0.152-0.203 0.253-0.429 0.301-0.677 0.006-0.028 0.022-0.038 0.050-0.030l1.528 0.47zM5.625 14.97c-0.1-0.086-0.23-0.224-0.39-0.415-0.753-0.899-1.517-1.811-2.292-2.738l0.445-1.746c0.005-0.020 0.017-0.025 0.034-0.013 0.268 0.183 0.489 0.255 0.802 0.135 0.019-0.007 0.031-0.001 0.037 0.018l1.364 4.758zM10.532 9.454c0.004 0.010 0.011 0.020 0.021 0.029s0.019 0.023 0.023 0.038l1.596 5.653c0.005 0.018-0.001 0.032-0.018 0.041-0.348 0.188-0.486 0.483-0.609 0.839-0 0.001-0.001 0.002-0.001 0.003-0.006 0.011-0.020 0.016-0.031 0.010-0.001-0-0.002-0.001-0.003-0.002l-1.646-1.164 0.666-5.448zM10.927 9.529c0.056 0.036 0.111 0.086 0.164 0.151 1.044 1.272 2.058 2.524 3.042 3.753l-0.802 2.287c-0.002 0.006-0.007 0.010-0.013 0.012-0.008 0.002-0.016-0.001-0.020-0.008-0.18-0.286-0.432-0.473-0.756-0.561-0.023-0.006-0.037-0.021-0.044-0.044l-1.572-5.59zM14.374 13.726l1.274 1.572-1.896 1.344c-0.002 0.001-0.004 0.002-0.006 0.003-0.009 0.002-0.017-0.003-0.020-0.011-0.035-0.111-0.073-0.222-0.114-0.332-0.024-0.066-0.090-0.118-0.056-0.214 0.266-0.771 0.539-1.558 0.818-2.361zM9.824 15.296l1.617 1.13c0.021 0.015 0.029 0.034 0.026 0.059-0.046 0.349-0.043 0.697 0.009 1.045 0.003 0.016-0.004 0.027-0.019 0.032-0.641 0.221-1.28 0.442-1.916 0.665-0.018 0.006-0.037 0.005-0.055-0.003l0.339-2.928zM1.076 16.964l1.62 5.723c0.005 0.016-0 0.028-0.015 0.036-0.349 0.195-0.476 0.48-0.605 0.838-0.006 0.018-0.018 0.022-0.034 0.011l-1.653-1.163c0.198-1.676 0.397-3.35 0.599-5.021 0.022-0.184 0.051-0.325 0.087-0.424zM1.435 17.005c0.093 0.084 0.228 0.234 0.405 0.452 0.964 1.181 1.903 2.342 2.816 3.482l-0.798 2.291c-0.002 0.006-0.007 0.010-0.013 0.011-0.007 0.002-0.015-0.001-0.019-0.008-0.182-0.292-0.438-0.482-0.767-0.572-0.018-0.005-0.029-0.016-0.033-0.034l-1.59-5.623zM13.526 17.299c0.148 1.047-0.117 1.951-0.591 2.017s-0.978-0.729-1.126-1.775 0.117-1.951 0.591-2.017c0.474-0.067 0.978 0.729 1.126 1.775zM15.787 15.655l-0.357 3.113-1.519-0.461c-0.019-0.006-0.028-0.018-0.026-0.038 0.037-0.41 0.016-0.816-0.063-1.219-0.003-0.017 0.002-0.031 0.016-0.041l1.948-1.354zM11.625 20.926l-1.973-2.357 1.873-0.654c0.001-0 0.001-0 0.002-0.001 0.012-0.003 0.024 0.004 0.027 0.016 0 0 0 0.001 0 0.001 0.083 0.447 0.253 0.857 0.51 1.23 0.010 0.015 0.013 0.031 0.009 0.049l-0.448 1.715zM15.385 19.118l-0.566 4.868-1.325-4.58c-0.005-0.017-0.002-0.032 0.009-0.047 0.15-0.208 0.255-0.437 0.314-0.687 0.005-0.020 0.017-0.027 0.037-0.021l1.532 0.466zM14.581 24.412l-2.682-3.174 0.444-1.72c0.009-0.036 0.029-0.043 0.059-0.020 0.239 0.183 0.502 0.226 0.79 0.128 0.015-0.005 0.025-0 0.030 0.015l1.36 4.77zM4.905 21.23l1.28 1.583-1.901 1.335c-0.014 0.010-0.024 0.007-0.029-0.009l-0.176-0.473c-0.006-0.015-0.006-0.031-0.001-0.046l0.827-2.39zM0.346 22.809l1.634 1.136c0.014 0.010 0.020 0.024 0.018 0.041-0.049 0.347-0.048 0.695 0.002 1.042 0.003 0.018-0.008 0.035-0.025 0.040l-1.974 0.678 0.346-2.938zM4.054 24.804c0.15 1.047-0.114 1.952-0.589 2.020s-0.982-0.727-1.132-1.774c-0.15-1.047 0.114-1.952 0.589-2.020s0.982 0.727 1.132 1.774zM6.309 23.164l-0.353 3.107-1.528-0.462c-0.016-0.005-0.023-0.015-0.021-0.032 0.039-0.408 0.020-0.814-0.057-1.217-0.003-0.016 0.002-0.028 0.015-0.037l1.944-1.36zM2.151 28.428l-1.98-2.352 1.864-0.651c0.022-0.008 0.036 0 0.041 0.023 0.089 0.447 0.263 0.856 0.521 1.228 0.008 0.012 0.011 0.028 0.007 0.042l-0.453 1.711zM5.909 26.634l-0.555 4.78c-0.051-0.084-0.092-0.177-0.121-0.281-0.212-0.745-0.616-2.15-1.212-4.216-0.005-0.016-0.002-0.032 0.008-0.046 0.145-0.204 0.247-0.428 0.306-0.67 0.004-0.018 0.018-0.031 0.035-0.036 0.009-0.002 0.018-0.002 0.026 0.001l1.513 0.468zM5.115 31.939l-2.69-3.189 0.454-1.749c0.005-0.021 0.016-0.024 0.032-0.010 0.239 0.202 0.507 0.247 0.804 0.135 0.015-0.005 0.025-0.001 0.029 0.015l1.371 4.798z"></path>
</svg>
