<!-- Generated by IcoMoon.io -->
<svg version="1.1" xmlns="http://www.w3.org/2000/svg" width="19" height="32" viewBox="0 0 19 32">
<title>watermark-herospath-4</title>
<path fill="#444" d="M0 22.678v-13.505l9.6-3.691 9.6 3.691v10.871c-2.192 0-4.393-0.055-6.702 0.044v-0.503c-0.176-0.049-0.322-0.099-0.437-0.148-0.115-0.055-0.206-0.132-0.272-0.231-0.066-0.105-0.113-0.242-0.14-0.412-0.028-0.176-0.041-0.41-0.041-0.701v-1.229h2.104l0.099-1.823h-0.866c-0.071 0.253-0.148 0.429-0.231 0.528-0.077 0.099-0.17 0.168-0.28 0.206-0.11 0.033-0.3 0.049-0.569 0.049h-0.256v-7.011h-1.856l-5.007 7.16v0.891h4.421v1.229c0 0.259-0.008 0.473-0.025 0.643s-0.055 0.311-0.115 0.421c-0.060 0.104-0.151 0.19-0.272 0.256-0.115 0.060-0.272 0.118-0.47 0.173v0.545h3.405c-3.514 0.208-7.298 0.82-11.688 2.548zM19.2 20.044v6.475l-4.342-0.027c-2.072-0.001-3.481-0.138-4.439-0.869-0.070-0.057-0.155-0.123-0.231-0.195-0.063-0.063-0.14-0.137-0.208-0.216-0.057-0.071-0.117-0.142-0.177-0.226-0.068-0.099-0.137-0.194-0.203-0.311-0.057 0.092-0.127 0.208-0.2 0.307-0.052 0.068-0.114 0.154-0.18 0.228-0.067 0.077-0.136 0.149-0.208 0.217-0.074 0.070-0.151 0.134-0.231 0.195-0.958 0.731-2.367 0.868-4.439 0.869l-4.342 0.027c6.245-3.934 11.717-5.754 19.2-6.475zM6.345 15.824v-0.14l2.821-4.248h0.083c-0.055 0.874-0.083 1.708-0.083 2.499v1.889h-2.821z"></path>
</svg>
