<!-- Generated by IcoMoon.io -->
<svg version="1.1" xmlns="http://www.w3.org/2000/svg" width="28" height="32" viewBox="0 0 28 32">
<title>watermark-judgeacademy</title>
<path fill="#444" d="M9.448 4.148c1.45-0.385 3.007-0.317 4.418 0.194 1.524-0.555 3.219-0.582 4.764-0.096 2.576 0.788 4.764 2.781 5.765 5.286 0.896 2.267 1.088 4.794 0.673 7.188 1.216 0.764 2.37 1.87 2.616 3.348 0.352 2.229-1.192 4.459-3.285 5.17 0.087-0.52 0.128-1.088-0.134-1.565-0.153-0.305-0.591-0.461-0.871-0.226-0.712 0.453-1.294 1.077-1.971 1.578-2.156 1.721-4.81 2.833-7.564 3.072-2.596-0.235-5.113-1.231-7.192-2.801-0.703-0.509-1.339-1.104-2.018-1.643-0.286-0.229-0.703-0.485-1.028-0.169-0.443 0.461-0.377 1.172-0.287 1.757-1.269-0.463-2.364-1.417-2.909-2.661-0.534-1.129-0.598-2.517 0.009-3.63 0.493-0.958 1.346-1.655 2.233-2.233-0.431-2.481-0.212-5.108 0.779-7.434 1.089-2.498 3.367-4.448 6.004-5.136zM9.35 5.244c-2.342 0.739-4.309 2.599-5.139 4.916-0.673 1.856-0.833 3.881-0.591 5.833 0.153 1.655 0.849 3.239 1.915 4.508-0.419-0.649-0.798-1.354-0.859-2.139-0.112-0.905 0.209-1.811 0.752-2.529-0.568-0.809-1.006-1.74-1.054-2.74-0.194-1.962 0.512-4.19 2.267-5.257 0.808-0.527 1.795-0.625 2.735-0.559 1.709 0.161 3.327 0.989 4.489 2.247 1.161-1.26 2.781-2.085 4.49-2.247 0.94-0.070 1.926 0.037 2.735 0.562 1.677 1.017 2.393 3.11 2.286 4.993-0.015 1.091-0.449 2.122-1.076 2.998 0.542 0.719 0.864 1.622 0.752 2.529-0.054 0.793-0.452 1.495-0.862 2.155 0.679-0.833 1.228-1.781 1.57-2.802 0.346-1.068 0.411-2.198 0.467-3.31-0.025-1.568-0.234-3.158-0.854-4.611-0.915-2.208-2.88-3.933-5.17-4.6-1.299-0.366-2.746-0.395-3.999 0.152-0.116 0.032-0.23 0.067-0.342 0.108-0.111-0.041-0.223-0.079-0.336-0.112-1.314-0.564-2.829-0.513-4.177-0.094zM7.562 8.357c-1.039 0.399-1.788 1.35-2.122 2.391-0.383 1.195-0.418 2.527 0.019 3.714 0.371 1.146 1.137 2.106 1.934 2.989-0.481-0.243-0.899-0.584-1.329-0.905-0.223 0.024-0.29 0.325-0.404 0.488-0.55 1.042-0.229 2.299 0.364 3.247 1.060 1.707 2.78 2.821 4.428 3.892-0.279-0.099-0.551-0.215-0.83-0.313-2.816-1.176-5.436-3.228-6.558-6.148-0.874 0.549-1.691 1.335-1.925 2.375-0.245 1.178 0.255 2.394 1.079 3.231 0.044 0.013 0.132 0.040 0.177 0.053 0.342-0.657 1.042-1.203 1.82-1.073 0.878 0.193 1.477 0.927 2.16 1.454 2.090 1.822 4.726 3.060 7.5 3.302 2.735-0.246 5.336-1.454 7.408-3.241 0.709-0.546 1.325-1.309 2.234-1.515 0.802-0.139 1.502 0.449 1.855 1.12 0.976-0.822 1.5-2.189 1.194-3.444-0.271-0.987-1.059-1.733-1.901-2.263-1.235 3.187-4.217 5.366-7.37 6.431 0.625-0.419 1.284-0.789 1.878-1.253 1.326-1.014 2.658-2.255 3.092-3.927 0.252-0.855-0.011-1.762-0.516-2.471-0.407 0.291-0.804 0.598-1.203 0.899-0.073 0.061-0.42 0.061-0.233-0.079 1.035-0.756 1.664-1.96 2.069-3.154l-0.005-0.015c0.34-1.206 0.26-2.521-0.197-3.685-0.385-0.987-1.18-1.848-2.209-2.167-0.791-0.247-1.634-0.115-2.422 0.070l0.067 0.026c-1.581 0.304-2.924 1.391-3.753 2.748-0.401-0.571-0.801-1.161-1.36-1.589-0.653-0.547-1.436-0.908-2.243-1.161-0.874-0.229-1.835-0.366-2.699-0.026zM17.907 12.535c0.638-0.056 1.284-0.038 1.913 0.091-0.401 0.43-0.136 1.052-0.383 1.544-0.29 0.677-1.006 1.126-1.738 1.125-0.516 0.021-1.137-0.248-1.519 0.238-0.086-0.78-0.329-1.63 0.005-2.381 0.381-0.541 1.134-0.518 1.722-0.617zM12.868 20.142c0.32-0.324 0.428-1.011 0.997-0.966 0.568-0.049 0.677 0.644 0.999 0.965 0.243 0.14 0.509-0.058 0.753-0.098-0.19 1.629-0.79 3.221-1.752 4.554-0.966-1.328-1.564-2.924-1.754-4.553 0.245 0.041 0.512 0.234 0.756 0.098zM7.884 12.635c0.932-0.193 1.901-0.159 2.829 0.037 0.378 0.079 0.806 0.256 0.913 0.669 0.201 0.719 0.009 1.47-0.074 2.194-0.346-0.447-0.912-0.258-1.389-0.241-0.715 0.048-1.441-0.33-1.787-0.962-0.256-0.408-0.215-0.908-0.237-1.369-0.086-0.108-0.171-0.218-0.255-0.328z"></path>
</svg>
