<!-- Generated by IcoMoon.io -->
<svg version="1.1" xmlns="http://www.w3.org/2000/svg" width="18" height="32" viewBox="0 0 18 32">
<title>watermark-flavor-myfirsttome</title>
<path fill="#444" d="M9.114 2.534c-1.989 0-7.39 0.412-9.114 2.728h3.285c1.445-1.882 4.053-2.016 6.225-1.977 1.163 0.099 4.589 0.391 4.589 1.679 0 1.335-4.976 2.316-6.981 4.19-0.281 0.288-2.091 2.703-2.091 4.403h6.225c0-1.342-0.061-3.016 1.010-4.087 2.122-2.122 5.872-2.852 5.872-3.993 0-1.047-2.534-2.896-9.020-2.943zM4.098 18.313l-2.179 11.153h12.442l-2.179-11.153h-8.084z"></path>
</svg>
