<!-- Generated by IcoMoon.io -->
<svg version="1.1" xmlns="http://www.w3.org/2000/svg" width="32" height="32" viewBox="0 0 32 32">
<title>watermark-flavor-aestheticconsultation</title>
<path fill="#444" d="M23.879 11.202c1.061-0.167 0.601-0.113 1.378-0.187 2.346-0.176 3.425 0.334 6.004-1.083 0.066-0.028 0.323-0.358 0.4-0.303 0.091 0.065-0.103 0.552-0.11 0.624-0.046 0.482-0.255 0.945-0.449 1.382 0.332-0.198 0.171-0.095 0.483-0.308 0.046-0.030 0.364-0.284 0.402-0.215 0.088 0.162-0.313 0.717-0.374 0.841-0.401 0.816-0.864 1.113-1.698 1.485-2.511 1.938-4.558 2.908-7.207 3.261-0.382 0.051-1.012-0.002-1.301-0.486-0.343-0.024-3.19 1.163-4.027 1.309-0.525 0.092-0.826-0.413-0.826-0.413l-14.928 5.072c-0.444 0.187-1.4 0.456-1.605-0.374-0.217-0.881 1.369-1.269 1.369-1.269l14.667-4.985c-0.078-0.205-0.043-0.547 0.225-0.76 1.060-0.839 4.271-1.512 4.276-1.569 0.019-0.218 0.32-0.586 0.344-0.616 0.667-0.814 2.070-1.183 2.977-1.406zM24.191 11.947c-1.070 0.257-2.174 0.617-2.38 1.56-0.047 0.217-0.016 0.448 0.357 0.444 1.067-0.010 1.671-0.741 2.684-1.057 1.501-0.71 2.368-0.59 3.476-1.075-1.062-0.073-2.178-0.16-3.239-0.029-0.302 0.037-0.599 0.105-0.898 0.158zM20.12 14.020c-0.736 0.198-2.663 0.679-2.979 1.17-0.242 0.377 0.109 0.846 0.463 0.768 0.149-0.033 2.986-0.959 3.082-1.165 0.319-0.686-0.474-0.789-0.566-0.773z"></path>
</svg>
