<!-- Generated by IcoMoon.io -->
<svg version="1.1" xmlns="http://www.w3.org/2000/svg" width="28" height="32" viewBox="0 0 28 32">
<title>watermark-cutiemark-rainbow</title>
<path fill="#444" d="M2.239 12.606c-0.756-0.276-1.416-0.698-1.774-1.45l-0.079-0.167c-0.019-0.049-0.039-0.097-0.059-0.146-0.574-1.379-0.401-2.883 0.599-4.015 0.238-0.269 0.531-0.485 0.846-0.667 0.549-0.316 1.131-0.51 1.747-0.583 0.005-0.001 0.008-0.003 0.009-0.009 0.029-0.199 0.092-0.397 0.188-0.593 0.458-0.927 1.115-1.708 2.053-2.18l0.080-0.038c0.894-0.398 1.902-0.457 2.834-0.146 1.128 0.376 1.763 1.4 2.043 2.504 0.009 0.068 0.021 0.135 0.034 0.202 0.039 0.193 0.060 0.38 0.078 0.573 0.001 0.006 0.004 0.009 0.010 0.007 0.004-0.001 0.008-0.004 0.012-0.008 0.023-0.002 0.048-0.025 0.067-0.034 0.415-0.208 0.893-0.294 1.357-0.315 0.912-0.041 1.828 0.13 2.646 0.549 0.71 0.363 1.329 0.867 1.79 1.513 0.57 0.798 0.803 1.746 0.765 2.722-0.004 0.107-0.017 0.219-0.037 0.334-0.296 1.658-1.134 3.253-3.018 3.429-0.897 0.084-1.783-0.182-2.573-0.604-0.008-0.004-0.012-0.002-0.012 0.007-0.006 0.252-0.002 0.496 0.012 0.734 0.063 1.109 0.24 2.22 0.492 3.302 0.035 0.152 0.079 0.308 0.129 0.468 0.009 0.028 0.016 0.027 0.023-0.001 0.25-1.071 0.514-2.138 0.792-3.202 0-0.001 0.001-0.002 0.002-0.002s0.004-0 0.005 0.002c0 0 0 0 0 0.001 0.605 1.971 1.712 3.749 3.005 5.339 1.759 2.164 3.871 4.067 6.084 5.769 1.683 1.295 3.442 2.496 5.278 3.604-0.017 0.005-0.035 0.002-0.055-0.008-1.023-0.523-1.93-1.003-2.877-1.546-1.105-0.633-2.185-1.306-3.24-2.019-1.779-1.202-3.475-2.528-5.007-4.035-1.258-1.238-2.386-2.617-3.216-4.181-0.002-0.003-0.005-0.004-0.008-0.003-0.002 0.001-0.003 0.002-0.003 0.004l-0.781 3.301c-0.002 0.010-0.007 0.011-0.013 0.003-0.017-0.020-0.033-0.042-0.050-0.067-0.172-0.25-0.34-0.504-0.502-0.761-0.93-1.467-1.784-2.994-2.506-4.574-0.006-0.013-0.014-0.015-0.026-0.007-1.037 0.719-2.037-0.023-2.642-0.875-0.522-0.735-0.9-1.66-0.897-2.573 0-0.001-0-0.002-0.001-0.003-0.002-0.003-0.006-0.005-0.009-0.003-0.308 0.158-0.627 0.29-0.959 0.396-0.007 0.002-0.011 0.006-0.010 0.010 0.002 0.004 0.004 0.007 0.006 0.009s0.005 0.005 0.006 0.009c0.633 1.986 1.566 3.866 2.67 5.63 1.39 2.221 2.975 4.277 4.754 6.175 0.097 0.104 0.196 0.206 0.298 0.307 0.001 0.001 0.001 0.001 0.002 0.001 0.004 0.002 0.008 0.001 0.010-0.003 0-0.001 0.001-0.001 0.001-0.002 0.025-0.129 0.047-0.26 0.068-0.392 0.215-1.393 0.381-2.792 0.548-4.195 0.002-0.020 0.009-0.022 0.020-0.005 1.055 1.628 2.509 2.986 4.059 4.136 1.155 0.857 2.375 1.618 3.636 2.309 2.168 1.189 4.443 2.189 6.771 3.019 0.005 0.002 0.009 0.005 0.012 0.010s0.006 0.009 0.011 0.013c-0.050 0.001-0.106-0.023-0.138-0.030-1.512-0.34-2.999-0.767-4.461-1.281-2.030-0.714-3.999-1.626-5.806-2.798-0.879-0.57-1.718-1.213-2.469-1.944-0.307-0.299-0.606-0.619-0.854-0.968-0.001-0.001-0.001-0.002-0.002-0.002-0.004-0.002-0.009-0.001-0.011 0.002-0.001 0.001-0.001 0.002-0.001 0.003-0.187 0.963-0.188 2.020-0.161 2.948 0.025 0.877 0.078 1.656 0.137 2.59 0.001 0.021 0.002 0.040 0.002 0.056-0 0.004-0.002 0.007-0.006 0.009s-0.007 0.001-0.010-0.001c-2.391-1.626-4.497-3.558-6.318-5.794-1.824-2.24-3.317-4.698-4.478-7.374-0.347-0.8-0.653-1.598-0.917-2.395z"></path>
</svg>
