<!-- Generated by IcoMoon.io -->
<svg version="1.1" xmlns="http://www.w3.org/2000/svg" width="19" height="32" viewBox="0 0 19 32">
<title>watermark-herospath-9</title>
<path fill="#444" d="M0 22.678v-13.505l9.6-3.691 9.6 3.691v10.871c-3.007 0-6.031-0.103-9.327 0.23 0.411-0.147 0.793-0.331 1.146-0.551 0.896-0.556 1.578-1.328 2.046-2.318s0.701-2.175 0.701-3.555c0-0.99-0.151-1.834-0.454-2.533-0.297-0.698-0.751-1.229-1.361-1.592-0.605-0.368-1.35-0.553-2.235-0.553-0.88 0-1.642 0.154-2.285 0.462s-1.138 0.751-1.485 1.328c-0.341 0.572-0.511 1.224-0.511 1.955 0 0.665 0.113 1.248 0.338 1.749 0.226 0.495 0.564 0.883 1.015 1.163 0.457 0.275 1.009 0.412 1.658 0.412 0.572 0 1.061-0.066 1.468-0.198 0.412-0.132 0.83-0.344 1.254-0.635l0.082 0.033c-0.049 0.429-0.127 0.841-0.231 1.237-0.099 0.396-0.237 0.762-0.412 1.097-0.176 0.33-0.396 0.624-0.66 0.883-0.215 0.214-0.465 0.396-0.751 0.544-0.28 0.143-0.58 0.247-0.899 0.313-0.27 0.060-0.583 0.093-0.94 0.099v0.594l0.31 0.352c-2.371 0.381-4.898 1.027-7.666 2.117zM19.2 20.044v6.475l-4.342-0.027c-2.072-0.001-3.481-0.138-4.439-0.869-0.070-0.057-0.155-0.123-0.231-0.195-0.063-0.063-0.14-0.137-0.208-0.216-0.057-0.071-0.117-0.142-0.177-0.226-0.068-0.099-0.137-0.194-0.203-0.311-0.057 0.092-0.127 0.208-0.2 0.307-0.052 0.068-0.114 0.154-0.18 0.228-0.067 0.077-0.136 0.149-0.208 0.217-0.074 0.070-0.151 0.134-0.231 0.195-0.958 0.731-2.367 0.868-4.439 0.869l-4.342 0.027c6.245-3.934 11.717-5.754 19.2-6.475zM9.402 15.112c-1.018 0-1.526-0.8-1.526-2.4 0-0.385 0.030-0.737 0.091-1.056 0.060-0.324 0.159-0.602 0.297-0.833 0.143-0.231 0.324-0.41 0.544-0.536 0.226-0.127 0.5-0.19 0.825-0.19 0.555 0 0.976 0.289 1.262 0.866 0.291 0.572 0.437 1.397 0.437 2.475 0 0.236-0.016 0.424-0.049 0.561-0.028 0.137-0.063 0.242-0.107 0.313s-0.135 0.165-0.272 0.28c-0.132 0.11-0.278 0.206-0.437 0.289-0.154 0.077-0.319 0.135-0.495 0.173s-0.366 0.058-0.569 0.058z"></path>
</svg>
