<!-- Generated by IcoMoon.io -->
<svg version="1.1" xmlns="http://www.w3.org/2000/svg" width="32" height="32" viewBox="0 0 32 32">
<title>watermark-dci</title>
<path fill="#444" d="M32 16.521v0.624c-0.191 1.325-1.561 2.442-2.645 3.041-2.808 1.552-7.060 2.213-9.278 2.357-1.289 0.084-2.602 0.093-4.047 0-3.452-0.221-6.129-0.769-8.903-2.141-0.010-0.005-0.017-0.011-0.021-0.019-0.003-0.005-0.005-0.011-0.006-0.018-0-0.001-0-0.001-0-0.002 0-0.006 0.005-0.012 0.011-0.012 0.001 0 0.002 0 0.004 0.001 1.273 0.431 2.079 0.693 2.418 0.788 1.113 0.312 2.383 0.529 3.811 0.651 3.496 0.3 6.949 0.046 10.359-0.763 1.26-0.299 2.462-0.698 3.607-1.197 1.756-0.765 5.045-2.778 3.23-5.112-0.239-0.307-0.512-0.563-0.819-0.769-1.854-1.245-4.336-1.766-6.457-1.983-2.944-0.301-5.875-0.208-8.793 0.279-2.27 0.379-4.573 1.037-6.621 2.105-0.003 0.002-0.005 0.004-0.006 0.006-0.004 0.008-0.001 0.018 0.006 0.022 0.003 0.001 0.006 0.002 0.009 0.002 1.041-0.119 2.073-0.287 3.098-0.504 0.009-0.002 0.014 0.001 0.012 0.007-0.001 0.005-0.004 0.007-0.009 0.009-1.488 0.453-2.969 0.918-4.444 1.395-0.002 0.001-0.004 0.002-0.006 0.003-0.010 0.007-0.013 0.021-0.007 0.030 0.001 0.002 0.003 0.003 0.004 0.005 0.921 0.793 1.872 1.548 2.854 2.264 0.017 0.012 0.027 0.008 0.032-0.012l0.724-3.209c0.005-0.023 0.025-0.039 0.049-0.039 1.447-0.001 2.901-0.002 4.362-0.002 0.86 0.001 1.846 0.269 2.037 1.25 0.131 0.67-0.077 1.543-0.366 2.145-0.651 1.363-1.801 1.661-3.207 1.666-1.325 0.004-2.649 0.004-3.974 0-0.024 0-0.033-0.012-0.028-0.035l0.364-1.612c0.010-0.043-0.004-0.077-0.041-0.1-1.038-0.647-2.118-1.215-3.239-1.705-0.005-0.002-0.009-0.003-0.014-0.003-0.020 0-0.036 0.016-0.036 0.036 0 0.001 0 0.002 0 0.004 0.162 1.638 0.379 3.269 0.65 4.893 0 0 0 0.001 0 0.001 0 0.005-0.004 0.009-0.009 0.009-0 0-0.001 0-0.001 0-0.009-0-0.014-0.003-0.016-0.008-0.398-1.598-0.786-3.18-1.316-4.742-0.004-0.012-0.015-0.019-0.027-0.019-0.009 0-0.018 0.004-0.023 0.012-0.866 1.169-1.707 2.36-2.524 3.573-0.005 0.009-0.013 0.014-0.024 0.016-0.001 0-0.002 0-0.003 0-0.007 0-0.014-0.006-0.014-0.014 0-0.002 0.001-0.004 0.002-0.006 0.702-1.302 1.359-2.628 1.957-3.973 0.019-0.041 0.005-0.060-0.039-0.056-1.576 0.129-3.1 0.351-4.572 0.666-0.020 0.004-0.041 0.004-0.062-0.001-0.004-0-0.004-0.001 0-0.003l4.496-1.377c0.037-0.011 0.040-0.029 0.011-0.053-1.126-0.935-2.286-1.832-3.481-2.691-0.006-0.005-0.009-0.009-0.008-0.015 0.001-0.008 0.005-0.010 0.012-0.006 1.24 0.766 2.521 1.455 3.844 2.067 0.039 0.018 0.057 0.006 0.053-0.037-0.139-1.554-0.331-3.088-0.575-4.604-0.012-0.072-0.018-0.143-0.019-0.213-0-0-0-0.001-0-0.001 0-0.003 0.002-0.005 0.005-0.005s0.005 0.002 0.005 0.004c0.022 0.079 0.017 0.172 0.035 0.24 0.386 1.487 0.808 2.964 1.264 4.43 0.007 0.021 0.017 0.022 0.030 0.003l2.578-3.642c0.003-0.003 0.007-0.005 0.011-0.005 0.008 0 0.015 0.007 0.015 0.015 0 0.002-0 0.004-0.001 0.006-0.593 1.009-1.132 2.046-1.618 3.111-0.001 0.002-0.002 0.005-0.002 0.007 0 0.009 0.007 0.016 0.016 0.016 0.003 0 0.006-0.001 0.008-0.002 1.751-0.975 3.699-1.557 5.662-1.908 4.551-0.815 9.421-0.7 13.88 0.572 2.166 0.617 5.161 1.859 5.775 4.284zM14.228 17.010c0.16-0.576 0.142-1.289-0.637-1.371-0.468-0.049-0.997-0.057-1.586-0.023-0.024 0.001-0.038 0.014-0.043 0.037l-0.547 2.42c-0.005 0.022 0.004 0.033 0.026 0.033 1.144 0.011 2.422 0.213 2.786-1.096z"></path>
<path fill="#444" d="M17.574 15.398c0.986-1.204 2.869-1.105 4.335-1.061 1.216 0.036 2.498 0.416 2.303 1.946-0.002 0.021-0.014 0.031-0.035 0.031h-2.332c-0.026 0-0.039-0.013-0.038-0.039 0.009-0.335-0.131-0.537-0.422-0.605-0.671-0.157-1.564-0.082-1.995 0.547-0.218 0.319-0.452 1.136-0.216 1.51 0.208 0.328 0.749 0.316 1.096 0.307 0.606-0.013 1.050-0.058 1.386-0.593 0.012-0.018 0.029-0.028 0.051-0.028h2.219c0.033 0 0.043 0.015 0.030 0.045-0.444 1.025-1.153 1.74-2.307 1.847-0.864 0.081-1.767 0.101-2.708 0.062-1.082-0.046-2.163-0.423-2.165-1.716-0.001-0.851 0.265-1.603 0.798-2.255z"></path>
<path fill="#444" d="M25.024 14.316h2.087c0.012 0 0.022 0.010 0.022 0.022 0 0.002-0 0.003-0.001 0.005l-1.128 5.016c-0.002 0.010-0.011 0.018-0.022 0.018l-2.093 0.007c-0.012-0-0.022-0.010-0.022-0.022 0-0.002 0-0.003 0.001-0.005l1.134-5.024c0.002-0.010 0.011-0.018 0.022-0.018z"></path>
</svg>
