<!-- Generated by IcoMoon.io -->
<svg version="1.1" xmlns="http://www.w3.org/2000/svg" width="28" height="32" viewBox="0 0 28 32">
<title>watermark-dnd</title>
<path fill="#444" d="M9.352 2.66c-0.291 0.002-0.581 0.026-0.867 0.071-0.896 0.16-1.806 0.538-2.391 1.261-0.036-0.349 0.045-0.703 0.195-1.019-0.732 0.464-1.287 1.161-1.7 1.914-0.254 0.476-0.457 0.988-0.528 1.526l-0.036-0.014c-0.144-0.363-0.196-0.758-0.195-1.147-0.592 0.793-0.72 1.83-0.662 2.792 0.078 0.977 0.417 1.985 1.154 2.663-0.268-0.94-0.1-1.957 0.316-2.827 0.102 0.242 0.181 0.493 0.3 0.728 0.34 0.749 0.93 1.366 1.63 1.79 0.12 0.065 0.229 0.159 0.366 0.184-0.163-0.781-0.074-1.597 0.111-2.366 0.007-0.102-0.025-0.202-0.041-0.302-0.101-0.628 0.005-1.304 0.367-1.835 0.347-0.529 0.951-0.896 1.591-0.9 0.493-0.019 0.995 0.156 1.352 0.501 0.407 0.397 0.619 0.959 0.672 1.517 0.080 0.812-0.136 1.643-0.583 2.324 0.653 0.889 1.543 1.558 2.316 2.334 0.72-0.914 1.231-1.992 1.495-3.124 0.26-1.1 0.113-2.278-0.351-3.303-0.412-0.909-1.112-1.691-1.994-2.164-0.768-0.415-1.644-0.61-2.516-0.605zM7.813 7.539c-0.282 0.372-0.394 0.837-0.477 1.288-0.074 0.45-0.099 0.909-0.055 1.364 0.030 0.243 0.062 0.494 0.166 0.718 0.66 0.416 1.254 1.028 1.44 1.808-0.123-0.194-0.236-0.398-0.403-0.558-0.635-0.65-1.495-0.996-2.246-1.485-0.646-0.39-1.249-0.907-1.558-1.612-0.161 0.68-0.108 1.442 0.291 2.034-0.68-0.205-1.398-0.224-2.103-0.202 0.433 0.233 0.803 0.579 1.092 0.975 0.124 0.19 0.264 0.444 0.148 0.667-0.112 0.182-0.307 0.289-0.479 0.407-0.868 0.514-1.825 0.903-2.569 1.602 0.546-0.090 1.115-0.188 1.662-0.048 0.302 0.072 0.591 0.269 0.707 0.565 0.156 0.362 0.109 0.769 0.029 1.143-0.052 0.199-0.082 0.41-0.195 0.588 0.121-0.067 0.21-0.175 0.316-0.261 0.35-0.294 0.728-0.552 1.119-0.788 0.592-0.352 1.221-0.663 1.9-0.807-0.404-0.136-0.835-0.2-1.26-0.231 0.358-0.426 0.863-0.704 1.379-0.896 0.772-0.271 1.618-0.387 2.426-0.223-0.775 0.040-1.55 0.225-2.241 0.583-0.093 0.060-0.218 0.096-0.268 0.204 0.428 0.066 0.848 0.176 1.258 0.314-0.78 0.345-1.418 1.012-1.728 1.806 0.448-0.267 0.989-0.378 1.504-0.29 0.364 0.053 0.728 0.206 0.978 0.483 0.282 0.296 0.379 0.733 0.324 1.13-0.074 0.447-0.301 0.884-0.679 1.145 0.102 0.006 0.204 0.005 0.306 0.001 0.016 0.008 0.049 0.024 0.065 0.032l-0.024-0.034c0.239-0.013 0.479-0.054 0.703-0.141-0.065 0.19-0.175 0.359-0.307 0.51-0.173 0.195-0.363 0.39-0.615 0.482 0.437 0.003 0.868-0.113 1.264-0.291 0.5-0.227 0.983-0.573 1.213-1.087-0.229 0.051-0.494 0.106-0.707-0.027-0.108-0.062-0.146-0.19-0.146-0.307-0.011-0.348 0.088-0.686 0.175-1.019-0.131 0.144-0.317 0.326-0.53 0.242-0.153-0.086-0.183-0.278-0.171-0.437 0.036-0.384 0.172-0.754 0.363-1.087-0.442-0.14-0.917-0.189-1.379-0.164 0.419-0.156 0.864-0.225 1.304-0.291 0.567-0.058 1.147-0.12 1.711-0.008 0.176 0.034 0.386 0.128 0.388 0.337-0.003 0.315-0.156 0.605-0.321 0.865 0.342 0.001 0.685-0.002 1.022 0.063 0.315 0.064 0.657 0.159 0.867 0.42 0.242 0.307 0.268 0.74 0.14 1.101 0.353-0.184 0.647-0.466 0.871-0.793 0.472-0.676 0.701-1.527 0.591-2.348-0.164 0.362-0.476 0.692-0.87 0.793 0.055-0.359-0.238-0.666-0.566-0.753 0.14-0.726-0.135-1.461-0.541-2.056-0.718-1.062-1.828-1.762-2.65-2.73-0.592-0.664-1.094-1.498-1.057-2.418-0.187 0.271-0.268 0.598-0.321 0.919-0.057 0.408-0.075 0.851 0.099 1.234 0.388 0.464 0.868 0.841 1.306 1.257 0.728 0.656 1.427 1.41 1.734 2.362-0.364-0.729-0.969-1.292-1.565-1.832-0.658-0.597-1.345-1.168-1.916-1.853-0.552-0.656-0.977-1.484-0.913-2.364zM22.186 11.866c-0.159 0.001-0.317 0.032-0.47 0.076-0.645 0.182-1.196 0.586-1.704 1.010-0.277 0.219-0.53 0.472-0.838 0.65-0.109 0.069-0.241 0.083-0.364 0.049-0.020-0.063-0.057-0.126-0.034-0.193 0.095-0.335 0.312-0.616 0.514-0.893-0.75 0.424-1.369 1.046-1.906 1.714-0.507 0.663-0.965 1.388-1.18 2.203 0.858-1.008 1.991-1.763 3.214-2.256 0.847-0.33 1.762-0.557 2.675-0.457-0.235 0.042-0.475 0.048-0.709 0.097-0.99 0.181-1.923 0.604-2.766 1.148-1.41 0.92-2.612 2.143-3.586 3.512 0.325 0.086 0.613 0.275 0.863 0.496 0.352 0.275 0.687 0.57 1.041 0.844 0.636-1.457 1.458-2.841 2.494-4.049 0.638-0.75 1.628-1.171 2.608-1.145 0.544 0.009 1.097 0.157 1.536 0.487 0.309-0.249 0.678-0.41 1.053-0.534 0.546-0.186 1.114-0.308 1.689-0.363 0.472-0.035 0.954-0.044 1.417 0.075-0.554-0.598-1.241-1.063-1.979-1.404-0.654-0.289-1.364-0.477-2.084-0.46-0.574-0.007-1.137 0.137-1.677 0.323-0.172 0.057-0.344 0.121-0.525 0.138-0.128 0.018-0.237-0.117-0.21-0.24 0.026-0.146 0.141-0.254 0.244-0.352 0.223-0.196 0.481-0.353 0.752-0.475-0.023-0.001-0.046-0.002-0.069-0.001v0zM10.729 13.395c0.581 0.219 1.043 0.709 1.254 1.29-0.267-0.001-0.544-0.078-0.742-0.263-0.287-0.268-0.418-0.656-0.512-1.026zM2.953 15.064c-0.58 0.543-1.091 1.158-1.555 1.802-0.57 0.815-1.108 1.677-1.398 2.636 0.396-0.329 0.806-0.648 1.268-0.877-0.493 1.021-0.702 2.163-0.696 3.292 0.026 1.167 0.265 2.334 0.738 3.403 0.269 0.595 0.603 1.173 1.066 1.64 0.086 0.077 0.162 0.179 0.282 0.204-0.034-0.071-0.071-0.141-0.080-0.22-0.045-0.312-0.073-0.628-0.040-0.942 0.019 0.025 0.056 0.076 0.075 0.101 0.373 0.62 0.917 1.119 1.503 1.535 0.861 0.603 1.858 1.013 2.897 1.174 0.933 0.13 1.891 0.070 2.806-0.148 1.021-0.244 1.978-0.73 2.796-1.385 1.249-1.007 2.172-2.365 2.856-3.803-0.756-0.679-1.55-1.313-2.33-1.963-0.489 0.885-1.142 1.681-1.928 2.318-0.586 0.462-1.267 0.848-2.021 0.932-0.684 0.061-1.392-0.121-1.95-0.522-0.524-0.37-0.914-0.91-1.14-1.507-0.36-0.926-0.343-1.967-0.070-2.913 0.341-1.19 1.063-2.244 1.951-3.093-0.227-0.114-0.49-0.137-0.74-0.132-0.643 0.038-1.228 0.393-1.668 0.848-0.003-0.695 0.221-1.396 0.632-1.958-0.62 0.215-1.178 0.576-1.728 0.929-0.605 0.414-1.208 0.847-1.688 1.406-0-0.47 0.064-0.938 0.155-1.398 0.061-0.34 0.164-0.68 0.142-1.029-0-0.123-0.070-0.227-0.134-0.326zM10.557 15.902c-0.2 0.397-0.172 0.901 0.066 1.276 0.335 0.49 0.939 0.706 1.272 1.196 0.236 0.361 0.137 0.814 0.246 1.212 0.134 0.642 0.626 1.123 1.127 1.508 0.805 0.639 1.593 1.296 2.368 1.97 0.313 0.277 0.552 0.646 0.64 1.059 0.206 0.856-0.122 1.741 0.082 2.599 0.205 0.933 0.961 1.703 1.869 1.977-0.692-0.755-0.697-2.048 0.033-2.779 0.048 0.718 0.318 1.415 0.747 1.991 0.498 0.681 1.249 1.177 2.079 1.341 0.887 0.191 1.823 0.058 2.66-0.275 0.582-0.247 1.175-0.567 1.536-1.104-0.308 0.115-0.639 0.142-0.964 0.112-0.627-0.063-1.256-0.269-1.749-0.672 0.764 0.089 1.559 0.003 2.257-0.332 0.809-0.367 1.49-1.044 1.796-1.884 0.269-0.71 0.244-1.524-0.061-2.219-0.307-0.712-0.886-1.287-1.567-1.645-0.677-0.357-1.456-0.493-2.216-0.441 0.484 0.139 0.933 0.433 1.206 0.863 0.282 0.423 0.333 0.983 0.137 1.451-0.184 0.461-0.605 0.776-1.049 0.965-0.56 0.223-1.185 0.302-1.779 0.183 0.447-0.323 0.684-0.868 0.727-1.407 0.071-0.748-0.17-1.538-0.703-2.078-0.124-0.116-0.249-0.242-0.412-0.3 0.263 0.601-0.023 1.373-0.609 1.665-0.329 0.173-0.732 0.178-1.075 0.040-0.417-0.154-0.725-0.49-1.069-0.758-0.791-0.652-1.579-1.306-2.371-1.955-0.216-0.175-0.425-0.367-0.686-0.473-0.378-0.167-0.8-0.162-1.204-0.178-0.17-0.015-0.365-0.038-0.48-0.179-0.205-0.26-0.185-0.609-0.277-0.912-0.052-0.214-0.18-0.418-0.38-0.52-0.501-0.259-1.112-0.079-1.609-0.358-0.359-0.163-0.617-0.538-0.589-0.938z"></path>
</svg>
