<!-- Generated by IcoMoon.io -->
<svg version="1.1" xmlns="http://www.w3.org/2000/svg" width="32" height="32" viewBox="0 0 32 32">
<title>watermark-flavor-shoetree</title>
<path fill="#444" d="M1.052 21.289c1.025-0.549 7.216-1.991 8.905-2.59 0.288-0.102 0.312-0.413 0.562-0.605 0.182-0.139 0.64-0.213 0.838-0.314 0.62-0.314 0.057-0.628 0.738-1.166 0.428-0.339 0.837 0.026 1.141-0.185 0.41-0.284-0.135-0.982 0.616-1.551 0.517-0.392 1.066 0.147 1.286-0.106 0.263-0.301-0.484-0.995 0.165-1.691 0.4-0.429 1.068-0.181 1.163-0.527 0.182-0.663-0.382-0.586-0.062-1.585 0.070-0.218 0.318-0.243 0.497-0.528 0.086-0.137-0.279-0.255-0.221-0.704 0.047-0.371 0.199-0.76 0.221-1.069 0.022-0.304-0.030-0.525 0.108-0.988 0.18-0.605 0.203-1.558 0.829-1.639 1.811-0.233 7.981-0.187 10.123-0.018 0.942 0.074 1.833 0.586 2.416 0.641 0.273 0.026 0.869-0.268 1.082-0.312 0.176-0.036 0.601-0.038 0.533 0.085s-0.739 0.324-0.938 0.648c-0.214 0.348-0.344 0.947-0.344 1.44 0 1.845 0.357 7.323 0.344 9.63-0.008 1.41-0.288 3.486-0.421 4.21-0.024 0.13-0.292 0.032-0.374 0.137-0.107 0.137-0.3 0.419-0.307 0.595-0.006 0.143 0.12 0.403 0.115 0.547-0.014 0.384-0.051 1.767-0.283 1.788-0.146 0.013-0.328 0.019-0.538 0.020-0.156 0.001-0.070-0.274-0.41-0.281-0.293-0.005-0.239 0.163-0.378 0.232-0.123 0.061-0.35 0.002-0.458-0.002-0.179-0.006-0.168-0.341-0.487-0.351-0.373-0.012-0.36 0.343-0.552 0.337-0.221-0.008-0.446-0.015-0.67-0.022-0.158-0.005-0.042-0.36-0.441-0.374-0.392-0.014-0.319 0.357-0.46 0.356-0.312-0.003-0.369 0.025-0.689 0.022-0.205-0.002-0.274-0.346-0.601-0.348-0.363-0.002-0.403 0.255-0.518 0.383-0.049 0.054-0.307 0.026-0.392 0.026-0.122-0-0.22-0.28-0.464-0.283-0.379-0.006-0.394 0.316-0.502 0.316-0.112 0-0.248 0.030-0.307 0.015-0.17-0.043-0.226-0.229-0.528-0.237-0.332-0.009-0.305 0.221-0.455 0.236-4.426 0.424-11.436 0.705-14.749 0.631-0.175-0.004-0.244-0.276-0.564-0.289-0.371-0.015-0.286 0.262-0.442 0.255-0.25-0.011-0.505-0.024-0.759-0.039-0.154-0.009-0.121-0.262-0.466-0.283-0.423-0.025-0.343 0.228-0.513 0.214-0.216-0.018-0.426-0.037-0.626-0.058-0.153-0.016-0.026-0.227-0.384-0.27-0.347-0.041-0.283 0.19-0.389 0.175-0.187-0.028-0.356-0.057-0.502-0.087-0.541-0.114-1.199-0.374-1.401-0.889-0.23-0.585-0.132-2.029 0.020-2.62 0.107-0.416 0.483-0.706 0.895-0.927zM17.841 9.331c-0.224 0-0.405 0.181-0.405 0.405s0.181 0.405 0.405 0.405c0.224 0 0.405-0.181 0.405-0.405s-0.181-0.405-0.405-0.405zM12.728 17.29c-0.223 0-0.405 0.181-0.405 0.405s0.181 0.405 0.405 0.405c0.224 0 0.405-0.181 0.405-0.405s-0.181-0.405-0.405-0.405zM17.307 11.117c-0.224 0-0.405 0.181-0.405 0.405s0.181 0.405 0.405 0.405c0.224 0 0.405-0.181 0.405-0.405s-0.181-0.405-0.405-0.405zM14.485 15.595c-0.224 0-0.405 0.181-0.405 0.405s0.181 0.405 0.405 0.405 0.405-0.181 0.405-0.405c0-0.223-0.181-0.405-0.405-0.405zM16 13.503c-0.223 0-0.405 0.181-0.405 0.405s0.181 0.405 0.405 0.405c0.224 0 0.405-0.181 0.405-0.405s-0.181-0.405-0.405-0.405zM29.643 7.598c-0.876-0.234-3.787-0.712-5.048-0.861-0.79-0.093-1.589 0.088-2.384 0.111-0.862 0.026-2.3-0.005-2.791 0.043-0.096 0.010-0.173 0.153-0.152 0.247 0.027 0.122 0.286 0.293 0.311 0.482 0.028 0.203-0.040 0.525-0.146 0.735s-0.455 0.289-0.491 0.526c-0.047 0.308 0.274 0.975 0.209 1.324-0.059 0.321-0.529 0.456-0.598 0.776-0.075 0.345 0.236 0.962 0.147 1.297-0.085 0.318-0.461 0.601-0.682 0.714-0.191 0.098-0.502-0.101-0.641-0.037s-0.197 0.268-0.195 0.424c0.003 0.253 0.291 0.746 0.215 1.091s-0.436 0.817-0.669 0.98c-0.199 0.14-0.608-0.092-0.729 0s-0.15 0.444 0 0.549c0.438 0.309 1.591 1.068 2.628 1.304 0.374 0.085 0.829 0.075 1.15 0.043 0.269-0.026 0.799-0.099 0.777-0.233s-0.51-0.453-0.732-0.546c-0.13-0.054-0.704 0.011-0.818-0.072-0.349-0.256-1.347-0.956-1.453-1.488s0.403-1.518 1.038-1.637c0.734-0.137 2.063 0.73 2.794 0.824 0.348 0.044 1.925-0.147 1.594-0.264-1.521-0.535-3.256-1.44-3.779-2.341-0.279-0.481 0.119-1.35 0.641-1.541 0.633-0.232 2.511 0.166 3.156 0.151 0.252-0.006 0.652-0.117 0.715-0.245s-0.146-0.45-0.341-0.519c-0.632-0.222-2.952-0.461-3.452-0.815-0.376-0.266-0.010-1.284 0.45-1.307 1.655-0.080 5.022-0.263 9.481 0.825 0.131 0.032-0.075-0.506-0.205-0.541zM12.147 24.998c-0.444 0.067 2.906 0.329 9.392-0.489 3.66-0.462 6.241 0.119 7.408-0.078 0.323-0.055-0.074-1.369 0.12-2.007 0.058-0.19 0.482-0.303 0.529-0.495 0.2-0.819 0.622-3.725 0.668-4.418 0.013-0.2-0.338 0.249-0.416 0.433-0.188 0.447-0.405 1.864-0.712 2.248-0.235 0.295-0.786-0.335-1.002-0.026-0.702 1.006-2.197 1.757-2.813 2.111-0.135 0.078-1.083 0.359-1.41 0.422-2.177 0.42-9.717 1.991-11.766 2.299zM10.843 18.674c-0.224 0-0.405 0.181-0.405 0.405s0.181 0.405 0.405 0.405 0.405-0.181 0.405-0.405c0-0.224-0.181-0.405-0.405-0.405zM18.117 7.289c-0.224 0-0.405 0.181-0.405 0.405s0.181 0.405 0.405 0.405c0.224 0 0.405-0.181 0.405-0.405s-0.181-0.405-0.405-0.405zM15.115 17.473c-0.137-0.085-0.491-0.179-0.63-0.021-0.161 0.183-0.525 0.778-0.335 1.117 0.252 0.451 1.369 1.234 1.85 1.588 0.312 0.23 0.866 0.563 1.034 0.533s0.098-0.51-0.029-0.71c-0.288-0.455-1.152-1.396-1.498-1.789-0.249-0.284-0.255-0.633-0.392-0.718zM12.827 19.005c-0.167-0.423-0.851 0.764-0.677 1.184 0.479 1.152 2.823 2.219 2.681 2.041-0.616-0.775-1.459-1.839-2.005-3.225zM1.266 22.425c-0.251 0.409-0.376 1.82-0.24 2.172s2.51 0.517 3.784 0.606c1.462 0.103 4.291 0.067 4.985 0.010s-0.639-0.247-0.927-0.274c-0.609-0.057-1.794 0.085-2.728-0.071-2.777-0.464-4.624-2.852-4.875-2.443z"></path>
</svg>
