<!-- Generated by IcoMoon.io -->
<svg version="1.1" xmlns="http://www.w3.org/2000/svg" width="19" height="32" viewBox="0 0 19 32">
<title>watermark-herospath-5</title>
<path fill="#444" d="M0 22.678v-13.505l9.6-3.691 9.6 3.691v10.871c-2.281 0-4.571-0.059-6.983 0.057 0.385-0.234 0.696-0.529 0.934-0.885 0.341-0.517 0.511-1.155 0.511-1.914 0-0.649-0.143-1.213-0.429-1.691-0.28-0.484-0.679-0.852-1.196-1.105-0.512-0.253-1.108-0.379-1.79-0.379-0.501 0-0.924 0.025-1.27 0.074-0.341 0.044-0.676 0.115-1.006 0.215v-2.97h5.065l0.165-2.631h-0.907c-0.071 0.176-0.137 0.297-0.198 0.363s-0.137 0.113-0.231 0.14c-0.093 0.028-0.242 0.041-0.446 0.041h-4.875v5.634l0.742 0.462c0.242-0.071 0.517-0.132 0.825-0.181 0.313-0.050 0.605-0.074 0.874-0.074 0.698 0 1.232 0.201 1.6 0.602s0.553 0.984 0.553 1.749c0 0.775-0.143 1.35-0.429 1.724-0.286 0.368-0.729 0.553-1.328 0.553-0.479 0-0.869-0.146-1.171-0.437-0.302-0.297-0.522-0.745-0.66-1.345h-1.493v2.062c0.426 0.196 0.935 0.352 1.529 0.468-2.348 0.382-4.849 1.026-7.586 2.104zM19.2 20.044v6.475l-4.342-0.027c-2.072-0.001-3.481-0.138-4.439-0.869-0.070-0.057-0.155-0.123-0.231-0.195-0.063-0.063-0.14-0.137-0.208-0.216-0.057-0.071-0.117-0.142-0.177-0.226-0.068-0.099-0.137-0.194-0.203-0.311-0.057 0.092-0.127 0.208-0.2 0.307-0.052 0.068-0.114 0.154-0.18 0.228-0.067 0.077-0.136 0.149-0.208 0.217-0.074 0.070-0.151 0.134-0.231 0.195-0.958 0.731-2.367 0.868-4.439 0.869l-4.342 0.027c6.245-3.934 11.717-5.754 19.2-6.475z"></path>
</svg>
