<!-- Generated by IcoMoon.io -->
<svg version="1.1" xmlns="http://www.w3.org/2000/svg" width="19" height="32" viewBox="0 0 19 32">
<title>watermark-herospath-7</title>
<path fill="#444" d="M0 22.678v-13.505l9.6-3.691 9.6 3.691v10.871c-3.126 0-6.271-0.112-9.72 0.272l4.439-10.413v-0.544h-7.902l-0.215 3.423h0.957c0.066-0.291 0.127-0.506 0.182-0.643 0.060-0.137 0.138-0.247 0.231-0.33 0.093-0.088 0.215-0.151 0.363-0.19s0.344-0.058 0.586-0.058h3.671v0.124l-4.141 8.389v0.49c-2.366 0.381-4.888 1.027-7.649 2.114zM19.2 20.044v6.475l-4.342-0.027c-2.072-0.001-3.481-0.138-4.439-0.869-0.070-0.057-0.155-0.123-0.231-0.195-0.063-0.063-0.14-0.137-0.208-0.216-0.057-0.071-0.117-0.142-0.177-0.226-0.068-0.099-0.137-0.194-0.203-0.311-0.057 0.092-0.127 0.208-0.2 0.307-0.052 0.068-0.114 0.154-0.18 0.228-0.067 0.077-0.136 0.149-0.208 0.217-0.074 0.070-0.151 0.134-0.231 0.195-0.958 0.731-2.367 0.868-4.439 0.869l-4.342 0.027c6.245-3.934 11.717-5.754 19.2-6.475z"></path>
</svg>
