<!-- Generated by IcoMoon.io -->
<svg version="1.1" xmlns="http://www.w3.org/2000/svg" width="32" height="32" viewBox="0 0 32 32">
<title>watermark-mtg15</title>
<path fill="#444" d="M4.63 20.418c-0.523-3.87 0.834-7.884 3.579-10.629 1.673-1.674 3.643-2.793 5.908-3.358-0.901-2.302 0.147-5.243 2.769-5.898 0.232-0.058 0.805-0.15 1.103-0.078 0.261 0.062 0.439 0.205 0.548 0.368 0.011 0.019 0.333 0.605-0.175 0.992-0.071 0.054-0.426 0.323-0.472 0.353-0.001 0.001-0.003 0.002-0.002 0.002-0.429 0.285-0.696 0.662-0.729 1.067-0.031 0.391 0.169 0.78 0.571 1.104 0.988 0.797 1.982 0.979 3.109 1.342l0 0c1.647 0.531 3.059 1.239 4.237 2.117 1.418 1.057 2.286 2.024 3.129 3.413l0 0c0.763 1.258 1.426 2.763 1.685 4.121 0.596 3.112 0.384 6.681-0.935 9.602-0.246 0.545-0.566 1.425-0.584 2.208-0.008 0.353 0.024 0.691 0.264 0.896 0.563 0.48 1.453 0.317 1.998-0.102 0.001-0.001 0.003-0.002 0.004-0.003 0.143-0.109 0.318-0.167 0.497-0.167 0.315 0 0.604 0.181 0.741 0.465l0 0.001c0.16 0.331 0.168 0.679-0.002 1.044-0.584 1.252-1.455 2.223-2.906 2.405-0.858 0.108-2.055-0.354-2.67-0.796l-0.001-0c-0.382-0.275-0.784-0.675-1.213-0.796-0.534-0.148-0.969 0.026-1.408 0.228-0.414 0.191-0.828 0.415-1.281 0.579l-0 0c-2.439 0.881-5.121 1.104-7.695 0.902-3.58-0.282-6.595-2.334-8.499-5.339l-0-0c-0.19-0.3-0.342-0.62-0.514-0.918-0.165-0.287-0.34-0.562-0.692-0.69l-0.001-0c-0.555-0.202-1.286-0.275-1.765 0.098-0.616 0.48-1.011 1.101-1.184 1.864-0 0.001-0.001 0.003-0.001 0.004-0.080 0.343-0.271 0.49-0.37 0.551-0.002 0.001-0.003 0.002-0.004 0.003-0.011 0.006-0.021 0.013-0.032 0.018-0.407 0.223-0.927 0.072-1.151-0.337-0.005-0.010-0.010-0.019-0.015-0.029l-0-0.001c-0.589-1.185-0.621-2.475-0.136-3.708 0.663-1.687 2.42-2.947 4.293-2.895zM8.724 10.303c-2.783 2.783-4.052 6.949-3.229 10.843 0.008 0.039-0.007 0.059-0.047 0.058-0.141-0.001-0.328-0.015-0.563-0.040-1.671-0.186-3.281 0.919-3.869 2.415-0.408 1.036-0.385 2.122 0.11 3.118 0.001 0.001 0.001 0.003 0.002 0.004 0.032 0.058 0.106 0.080 0.163 0.048 0.002-0.001 0.003-0.002 0.004-0.003 0.016-0.010 0.030-0.042 0.043-0.096 0.212-0.932 0.694-1.691 1.446-2.277 0.67-0.521 1.687-0.49 2.462-0.207 0.884 0.322 1.11 1.174 1.571 1.903 1.781 2.811 4.594 4.74 7.942 5.003 2.472 0.195 5.048-0.015 7.391-0.861 1.083-0.392 1.93-1.159 3.132-0.824 0.504 0.141 0.994 0.583 1.443 0.906 0.498 0.358 1.46 0.752 2.154 0.665 1.181-0.148 1.862-0.972 2.337-1.99 0.069-0.147 0.071-0.287 0.006-0.42-0.016-0.033-0.049-0.054-0.086-0.054-0.021 0-0.041 0.007-0.058 0.019-0.794 0.61-2.093 0.779-2.914 0.079-1-0.852-0.332-2.935 0.129-3.957 1.259-2.788 1.452-6.196 0.883-9.166-0.245-1.28-0.874-2.696-1.593-3.881-0.792-1.305-1.609-2.213-2.942-3.207-1.119-0.834-2.461-1.503-4.026-2.008-1.215-0.391-2.277-0.609-3.342-1.468-1.243-1.002-1.068-2.493 0.211-3.343l0-0c0.047-0.031 0.447-0.336 0.447-0.336-0.106-0.159-0.67-0.038-0.87 0.012-2.457 0.613-3.216 3.651-1.91 5.616 0.008 0.011 0.012 0.025 0.012 0.038 0 0.034-0.024 0.063-0.057 0.069-2.482 0.454-4.61 1.568-6.383 3.342zM25.424 27.303c-0.070 0.021-0.115 0.078-0.1 0.127s0.084 0.072 0.154 0.051 0.115-0.078 0.1-0.127c-0.015-0.049-0.084-0.072-0.154-0.051zM22.135 24.813c0.035 0.081 0.038 0.169 0.011 0.263-0.001 0.003-0.001 0.005-0.001 0.008 0 0.015 0.013 0.028 0.028 0.028 0 0 0 0 0.001 0l0.101-0.004c0.018-0.001 0.028-0.010 0.031-0.028 0.028-0.214 0.11-0.404 0.246-0.569 0.011-0.013 0.012-0.027 0.005-0.043l-0.068-0.138c-0.009-0.019-0.029-0.031-0.050-0.031-0.013 0-0.026 0.005-0.037 0.014-0.211 0.182-0.395 0.171-0.655 0.073-0.579-0.218-1.437-0.109-1.601 0.606-0.156 0.679 0.070 1.177 0.677 1.493 0.138 0.072 0.269 0.089 0.393 0.053 0.386-0.116 0.826-0.294 1.099 0.128 0.006 0.009 0.016 0.014 0.026 0.014l0.117-0.002c0.023-0.001 0.030-0.012 0.023-0.033-0.136-0.423-0.046-0.658 0.324-0.888 0.010-0.006 0.016-0.016 0.016-0.028 0.004-0.091-0.036-0.134-0.121-0.128-0.36 0.026-0.638 0.034-0.834 0.024-0.069-0.003-0.116 0.025-0.112 0.097 0 0.011 0.006 0.018 0.017 0.021l0.25 0.064c0.009 0.002 0.017 0.009 0.022 0.017 0.252 0.455-0.481 0.445-0.699 0.404-0.286-0.054-0.468-0.219-0.548-0.496-0.119-0.412-0.030-0.764 0.265-1.057 0.066-0.065 0.123-0.101 0.171-0.105 0.209-0.022 0.805 0.009 0.904 0.243zM17.111 27.415c-0.227-0.796-0.54-1.557-0.939-2.282-0.111-0.202-0.108-0.513-0.109-0.735 0-0.004-0-0.007-0.001-0.011-0.006-0.045-0.048-0.077-0.093-0.071-0.004 0-0.007 0.001-0.011 0.002-0.1 0.026-0.19 0.046-0.296 0.032-0.259-0.035-0.514-0.060-0.767-0.075-0.052-0.003-0.098 0.035-0.105 0.086-0.014 0.103 0.162 0.171 0.258 0.239 0.162 0.114 0.287 0.294 0.165 0.484-0.094 0.148-0.201 0.285-0.321 0.413-0.018 0.019-0.023 0.047-0.014 0.071 0.042 0.114 0.221 0.291 0.343 0.16 0.009-0.009 0.020-0.014 0.033-0.013 0.097 0.001 0.169 0.036 0.215 0.105 0.213 0.318 0.976 1.692 0.601 2.045-0.076 0.072-0.324 0.207-0.288 0.323 0.010 0.033 0.041 0.056 0.075 0.056 0.016 0 0.032-0.005 0.046-0.015 0.446-0.32 1.213-0.245 1.694-0.070 0.079 0.029 0.159 0.035 0.178-0.064 0.003-0.014-0.002-0.028-0.011-0.038-0.198-0.203-0.575-0.369-0.652-0.641zM17.611 25.931c-0.037-0.206 0.308-0.457 0.256-0.713-0.003-0.014-0.010-0.025-0.021-0.034-0.052-0.040-0.11-0.054-0.175-0.040-0.135 0.028-0.146 0.243-0.189 0.33-0.081 0.166-0.721 1.049-0.145 1.055 0.135 0.001 0.403 0.027 0.52-0.032 0.093-0.047 0.17-0.236 0.226-0.327 0.038-0.062 0.097-0.094 0.154-0.138 0.010-0.008 0.017-0.020 0.019-0.033 0.083-0.676-0.426-0.2-0.582-0.048-0.007 0.007-0.016 0.011-0.026 0.011-0.018 0-0.033-0.013-0.036-0.030zM18.729 21.427c0.067 0.024 0.181 0.044 0.201 0.043 0.201-0.009 0.297-0.119 0.345-0.213 0.061-0.086 0.108-0.212 0.044-0.389-0.001-0.003-0.002-0.005-0.003-0.008-0.148-0.387-0.447-0.507-0.819-0.499-0.029 0-0.058 0.004-0.085 0.010-0.044-0.025-0.096-0.044-0.161-0.056-0.139-0.025-0.269-0.027-0.39-0.010l-0 0c-0.34 0.049-0.658 0.127-0.963 0.234l-0.145-0.471c-0.007-0.023 0.001-0.037 0.025-0.040 0.417-0.061 2.527-0.289 2.887-0.282 0.021 0 0.038 0.016 0.041 0.037 0.047 0.388 0.199 0.718 0.453 0.99 0.236 0.253 0.574 0.364 0.905 0.419 0.16 0.026 0.286-0.013 0.462-0.065 0.516-0.153 0.836-0.508 0.96-1.064 0.177-0.794 0.093-2.099-0.811-2.455-0.728-0.286-1.522 0.017-2.051 0.575-0.012 0.012-2.526-0.252-2.522-0.28 0 0 0.876-5.582 0.897-5.582l6.96 0.018c0.019 0 0.007 2.212-0.001 2.212l-4.619 0.034c-0.031-0-0.273 1.569-0.268 1.567 0.473-0.188 0.956-0.312 1.449-0.372 0.111-0.014 0.219-0.005 0.328-0.027 0.485-0.101 1.341 0.169 1.799 0.386 1.424 0.674 2.088 2.127 1.762 3.691-0.152 0.729-0.438 1.385-0.928 1.914-0.008-0.002-0.016-0.004-0.024-0.006-0.143-0.033-0.3-0.005-0.449 0.094-0.108 0.072-0.218 0.2-0.296 0.298-0.055-0.027-0.115-0.043-0.177-0.046 0-0-0.227-0.013-0.227-0.013l-0.001-0c-0.099-0.005-0.197 0.022-0.279 0.077-0.062-0.017-0.137-0.020-0.226 0.003-0.051 0.013-0.108 0.035-0.169 0.063-0.109-0.125-0.28-0.201-0.497-0.188-0.171 0.010-0.39 0.088-0.536 0.15-0.033-0.039-0.073-0.073-0.119-0.1-0.020-0.012-0.042-0.023-0.064-0.032-0.171-0.069-0.33-0.057-0.467 0.017-0.047-0.013-0.103-0.020-0.167-0.016-0.001 0-0.002 0-0.003 0l-0.362 0.023c0 0.007-0 0.015-0.002 0.022-0.012 0.055-0.081 0.087-0.153 0.071-0.049-0.011-0.087-0.041-0.102-0.077l-0.075 0.005c-0.001 0-0.002 0-0.002 0-0.038 0.003-0.074 0.010-0.109 0.021-0.048-0.026-0.104-0.043-0.173-0.048-0.053-0.004-0.18 0.006-0.355 0.103-0 0-0.001 0-0.001 0.001-0.047 0.026-0.104 0.059-0.172 0.098-0.061-0.119-0.17-0.212-0.306-0.245-0.206-0.051-0.392-0.043-0.581 0.051-0.072-0.048-0.157-0.076-0.248-0.076-0.063 0-0.124 0.013-0.182 0.038-0.005 0.002-0.009 0.004-0.014 0.006-0.15-0.127-0.29-0.272-0.436-0.426-0.006-0.006-0.009-0.014-0.009-0.022 0-0.018 0.014-0.032 0.031-0.032 0.002 0 0.004 0 0.006 0.001 0.151 0.031 0.231-0.074 0.237-0.192 0.099-0.050 0.23-0.107 0.391-0.174 0.026-0.004 0.078-0.012 0.115-0.021 0.006 0.004 0.012 0.008 0.018 0.011l0.4 0.232c0.001 0.001 0.002 0.001 0.003 0.002 0.007 0.004 0.016 0.008 0.026 0.012 0.010 0.005 0.021 0.010 0.033 0.014-0.010-0.004-0.019-0.008-0.029-0.013zM18.725 21.426c-0.044-0.021-0.078-0.046-0.105-0.070 0.035 0.028 0.071 0.053 0.108 0.072-0.001-0-0.003-0.001-0.004-0.001zM23.495 27.568c-0.014 0.010-0.021 0.006-0.021-0.011v-0.164c0-0.014 0.007-0.026 0.019-0.034 0.030-0.018 0.039-0.044 0.028-0.079-0.004-0.011-0.014-0.019-0.026-0.019-0.003 0-0.006 0-0.008 0.001l-0.289 0.093c-0.017 0.006-0.028 0.021-0.028 0.039 0 0.012 0.005 0.023 0.014 0.031l0.033 0.028c0.010 0.009 0.015 0.020 0.015 0.033l-0.005 0.516c-0 0.018-0.007 0.032-0.021 0.043-0.027 0.021-0.035 0.050-0.024 0.088 0.004 0.015 0.018 0.025 0.033 0.025h0.27c0.059 0 0.071-0.024 0.037-0.072l-0.043-0.059c-0.003-0.004-0.005-0.009-0.004-0.014v-0.296c0-0.016 0.011-0.030 0.026-0.035l0.057-0.016c0.005-0.001 0.010-0.002 0.015-0.002 0.030 0 0.054 0.024 0.054 0.054v0l0 0.289c0 0.017-0.006 0.030-0.018 0.042-0.024 0.023-0.033 0.052-0.026 0.086 0.003 0.013 0.014 0.022 0.027 0.022h0.276c0.018 0 0.029-0.009 0.034-0.026 0.011-0.036 0.002-0.065-0.024-0.086-0.012-0.009-0.017-0.021-0.017-0.036 0.011-0.244 0.017-0.723-0.384-0.441zM18.324 25.106c-0.004-0.009-0.012-0.016-0.022-0.020l-0.244-0.073c-0.002-0-0.003-0.001-0.005-0.001-0.010 0-0.018 0.008-0.018 0.018 0 0.003 0.001 0.007 0.003 0.010 0.068 0.105 0.087 0.219 0.057 0.341-0 0.002-0.001 0.003-0.001 0.005 0 0.012 0.010 0.021 0.021 0.021h0c0.106-0.002 0.196 0.034 0.271 0.107 0.009 0.009 0.021 0.014 0.034 0.014 0.027 0 0.049-0.022 0.049-0.049 0-0.006-0.001-0.012-0.003-0.018l-0.142-0.356zM19.509 27.571c-0.014 0.010-0.021 0.006-0.021-0.012l0.007-0.178c0.001-0.012 0.006-0.022 0.015-0.030 0.024-0.019 0.031-0.044 0.021-0.076-0.005-0.015-0.015-0.021-0.031-0.015l-0.272 0.090c-0.015 0.005-0.027 0.018-0.030 0.034-0.005 0.025 0.002 0.044 0.022 0.057 0.013 0.009 0.020 0.021 0.022 0.037 0.024 0.221 0.013 0.44-0.031 0.655-0.004 0.018 0.004 0.026 0.022 0.026l0.277-0.007c0.014-0 0.022-0.007 0.024-0.021 0.005-0.034-0.004-0.064-0.028-0.088-0.008-0.008-0.012-0.019-0.012-0.030v-0.295c0-0.011 0.004-0.021 0.013-0.028 0.037-0.031 0.077-0.037 0.119-0.018 0.012 0.005 0.020 0.017 0.020 0.030l0 0.303c0 0.015-0.005 0.028-0.015 0.039-0.025 0.027-0.032 0.057-0.022 0.091 0.005 0.016 0.016 0.024 0.033 0.024l0.268-0.005c0.016-0 0.030-0.013 0.031-0.030 0.002-0.035-0.010-0.065-0.035-0.090-0.010-0.009-0.015-0.022-0.015-0.035 0.004-0.224 0.045-0.71-0.381-0.428zM23.153 24.327c-0.007 0.011-0.011 0.024-0.011 0.037 0 0.028 0.017 0.053 0.043 0.064 0.152 0.062 0.303 0.186 0.322 0.363 0.057 0.527 0.221 1.423-0.316 1.775-0.011 0.007-0.016 0.017-0.016 0.030-0.001 0.048 0.019 0.085 0.057 0.114 0.022 0.016 0.053 0.015 0.073-0.003 0.297-0.257 0.641-0.344 1.033-0.261 0.014 0.003 0.026-0.001 0.036-0.012 0.052-0.059 0.015-0.116-0.045-0.154-0.366-0.234-0.213-1.21-0.195-1.604 0.005-0.116 0.070-0.214 0.192-0.295 0.011-0.007 0.016-0.020 0.013-0.032-0.023-0.094-0.086-0.11-0.176-0.086-0.292 0.077-0.587 0.082-0.884 0.014-0.054-0.012-0.096 0.004-0.126 0.050zM12.128 25.579c-0.007 0.011-0.005 0.026 0.003 0.036 0.063 0.077 0.232 0.175 0.333 0.124 0.079-0.040 0.166-0.239 0.197-0.318 0.013-0.033 0.050-0.050 0.084-0.040 0.772 0.249 1.222 2.079 1.353 2.778 0.013 0.068 0.016 0.196 0.057 0.286 0.001 0.003 0.003 0.006 0.005 0.010 0.021 0.032 0.065 0.041 0.097 0.020 0.003-0.002 0.006-0.004 0.008-0.006l0.671-0.602c0.061-0.054 0.079-0.142 0.046-0.216-0.076-0.171-0.158-0.352-0.248-0.541-0.148-0.312-0.049-0.543 0.063-0.902 0.066-0.213-0.004-0.366-0.21-0.459-0.007-0.003-0.014-0.004-0.021-0.004-0.022 0-0.042 0.014-0.048 0.035-0.027 0.085-0.172 0.4-0.295 0.19-0.362-0.617-0.616-1.149-0.976-1.521-0.029-0.030-0.071-0.046-0.113-0.042-0.31 0.028-0.63 0.024-0.96-0.011-0.112-0.012-0.183 0.044-0.222 0.14-0.001 0.003-0.002 0.005-0.002 0.008 0 0.011 0.008 0.020 0.019 0.022 0.642 0.1 0.36 0.672 0.159 1.016zM21.572 27.962c-0.001 0.013-0.008 0.020-0.021 0.020-0.38 0.011-0.271-0.783-0.046-0.564 0.008 0.008 0.010 0.020 0.005 0.030-0.014 0.028-0.013 0.054 0.004 0.079 0.019 0.027 0.057 0.034 0.084 0.016l0.2-0.134c0.008-0.005 0.015-0.013 0.018-0.022 0.011-0.026-0.002-0.057-0.030-0.068-0.009-0.004-0.020-0.005-0.029-0.004-0.017 0.002-0.039-0.003-0.066-0.015-0.321-0.153-0.655 0.088-0.665 0.421-0.011 0.398 0.319 0.568 0.664 0.353 0.003-0.002 0.006-0.003 0.009-0.003 0.008 0 0.015 0.005 0.017 0.013 0.011 0.048 0.040 0.070 0.087 0.066 0.014-0.001 0.025-0.013 0.025-0.027l0.017-0.476c0-0 0-0.001 0-0.001 0-0.023-0.018-0.042-0.041-0.043-0 0-0.001 0-0.001 0l-0.345 0.001c-0.015 0-0.022 0.007-0.022 0.022v0.065c0 0.018 0.009 0.026 0.026 0.026h0.092c0.018 0 0.027 0.009 0.026 0.028l-0.011 0.214zM11.914 27.836c-0.009-0.004-0.016-0.011-0.020-0.020-0.203-0.498 0.232-1.284 0.463-1.699 0.007-0.012 0.005-0.028-0.005-0.038-0.079-0.082-0.175-0.132-0.289-0.148-0.027-0.004-0.054 0.012-0.062 0.038-0.146 0.438-0.306 0.875-0.48 1.31-0.142 0.356-0.392 0.721-0.742 0.898-0.010 0.005-0.017 0.013-0.021 0.023-0.024 0.061-0.010 0.112 0.041 0.151 0.012 0.010 0.030 0.010 0.043 0.002 0.364-0.242 0.766-0.326 1.206-0.252 0.018 0.003 0.037-0.004 0.047-0.019 0.040-0.053 0.042-0.109 0.008-0.167-0.002-0.004-0.005-0.007-0.009-0.008l-0.179-0.070zM18.585 27.393c0.002-0.001 0.003-0.001 0.005-0.002 0.013-0.003 0.025 0.005 0.028 0.017 0 0.002 0.001 0.004 0.001 0.005v0.579c0 0.017-0.007 0.030-0.022 0.038l-0.026 0.013c-0.015 0.008-0.021 0.020-0.019 0.036l0.007 0.053c0.002 0.016 0.011 0.024 0.026 0.024h0.339c0.014 0 0.028-0.004 0.039-0.014 0.025-0.021 0.029-0.058 0.008-0.082-0.009-0.011-0.022-0.018-0.036-0.020-0.003-0.001-0.008-0.002-0.014-0.006-0.012-0.006-0.019-0.017-0.019-0.030l0.001-0.59c0-0.001 0-0.002 0-0.002 0.001-0.010 0.011-0.017 0.021-0.016 0.001 0 0.001 0 0.002 0 0.050 0.011 0.077 0.043 0.080 0.095 0.001 0.015 0.009 0.023 0.024 0.023l0.070 0.001c0 0 0 0 0 0 0.013 0 0.024-0.011 0.024-0.024 0-0.001 0-0.001-0-0.002l-0.012-0.206c-0.002-0.032-0.028-0.057-0.060-0.057-0.012 0-0.024 0.004-0.034 0.010l-0.042 0.028c-0.006 0.004-0.013 0.006-0.020 0.006-0.134 0-0.366 0.028-0.482-0.043-0.003-0.002-0.006-0.003-0.009-0.004-0.022-0.007-0.045 0.005-0.053 0.027-0.001 0.003-0.002 0.006-0.002 0.010l-0.020 0.22c-0 0-0 0.001-0 0.001-0.001 0.017 0.013 0.031 0.029 0.032 0.001 0 0.001 0 0.002 0h0.054c0.013 0 0.024-0.009 0.027-0.021 0.011-0.048 0.038-0.081 0.079-0.102zM18.549 25.019c0.191 0.403 0.283 0.826 0.277 1.27-0.001 0.096 0.025 0.216 0.146 0.186 0.337-0.081 0.521-0.031 0.825 0.035 0.105 0.023 0.12-0.070 0.071-0.138-0.23-0.321-0.407-0.668-0.531-1.041-0.065-0.196-0.090-0.425-0.127-0.638-0.033-0.198-0.082-0.319-0.306-0.292-0.479 0.058-0.957 0.022-1.435-0.107-0.012-0.004-0.024-0.002-0.035 0.006-0.098 0.065-0.080 0.15 0.019 0.204 0.288 0.157 0.592 0.27 0.911 0.34 0.085 0.018 0.152 0.106 0.184 0.176zM11.564 10.193c-0.007 0.007-0.069 0.043-0.185 0.107-0.13 0.072-0.24 0.109-0.328 0.109-0.021 0-0.063-0.008-0.126-0.025s-0.113-0.025-0.151-0.025c-0.171 0-0.314 0.060-0.429 0.18s-0.173 0.265-0.173 0.436c0 0.161 0.056 0.307 0.167 0.438 0.114 0.138 0.25 0.208 0.409 0.21 0.484 0.009 0.829-0.046 1.036-0.167-0.036 0-0.123-0.002-0.264-0.005s-0.18-0.005-0.121-0.005c-0.012 0-0.026-0.008-0.043-0.023s-0.025-0.029-0.025-0.041c0-0.038 0.050-0.068 0.149-0.089 0.066-0.014 0.128-0.021 0.185-0.021 0.311 0 0.518-0.125 0.623-0.374 0.026-0.062 0.039-0.108 0.039-0.139-0.074 0.081-0.155 0.141-0.246 0.182-0.040 0.019-0.126 0.046-0.256 0.082 0.036-0.055 0.102-0.132 0.199-0.232s0.164-0.182 0.199-0.247c0.055-0.095 0.082-0.201 0.082-0.318 0-0.222-0.097-0.457-0.292-0.705 0.031 0.077 0.053 0.135 0.068 0.173 0.038 0.099 0.057 0.18 0.057 0.245 0 0.050-0.013 0.087-0.039 0.108-0.152-0.548-0.51-0.822-1.075-0.822-0.043 0-0.117 0.006-0.224 0.018-0.126 0.014-0.194 0.027-0.203 0.039 0.083 0.007 0.14 0.012 0.171 0.014 0.316 0.028 0.474 0.083 0.474 0.164 0 0.031-0.115 0.065-0.345 0.103 0.13 0.043 0.204 0.064 0.221 0.064 0.055 0 0.115-0.018 0.182-0.053s0.116-0.053 0.149-0.053c0.071 0 0.129 0.037 0.175 0.11 0.040 0.062 0.061 0.131 0.061 0.207 0 0.059-0.014 0.089-0.043 0.089-0.021 0-0.052-0.030-0.093-0.089-0.028-0.045-0.050-0.078-0.064-0.1-0.005 0.017-0.007 0.033-0.007 0.050 0 0.1 0.046 0.192 0.137 0.278s0.187 0.131 0.287 0.135c-0.005 0.064-0.021 0.131-0.050 0.199-0.033 0.090-0.071 0.144-0.114 0.16-0.029-0.028-0.043-0.069-0.043-0.121 0-0.024 0.008-0.061 0.023-0.11s0.023-0.085 0.023-0.107c-0.024 0.010-0.050 0.035-0.080 0.077s-0.047 0.076-0.052 0.105c-0.017 0.1-0.021 0.185-0.014 0.256 0.007 0.062-0.019 0.131-0.078 0.207s-0.12 0.114-0.182 0.114c-0.040 0-0.077-0.008-0.11-0.025-0.043-0.021-0.064-0.050-0.064-0.085 0-0.057 0.051-0.115 0.153-0.174 0.142-0.085 0.225-0.252 0.249-0.501zM11.564 10.193c0.001-0.001 0.001-0.001 0-0.001l-0 0.001zM24.994 27.749c0-0.021 0.011-0.031 0.033-0.030l0.132 0.009c0.012 0.001 0.023-0.007 0.027-0.018l0.055-0.168c0.005-0.017-0-0.028-0.017-0.033-0.116-0.040-0.203-0.018-0.261 0.067-0.008 0.012-0.019 0.014-0.031 0.004l-0.107-0.083c-0.011-0.009-0.028-0.008-0.038 0.004-0.033 0.039-0.066 0.078-0.099 0.119-0.017 0.021-0.024 0.040-0.021 0.058 0.005 0.025 0.024 0.039 0.057 0.041 0.012 0.001 0.022 0.011 0.022 0.023v0.256c0 0.014-0.005 0.027-0.014 0.037-0.026 0.029-0.034 0.063-0.026 0.104 0.003 0.012 0.010 0.018 0.023 0.019l0.296 0.003c0.028-0.001 0.051-0.024 0.051-0.052 0-0.024-0.017-0.046-0.041-0.051-0.010-0.002-0.018-0.005-0.024-0.011-0.015-0.013-0.022-0.023-0.022-0.030l0.004-0.267zM25.327 27.995c0 0.004-0.001 0.007-0.002 0.011l-0.050 0.105c-0.002 0.004-0.003 0.008-0.003 0.013 0 0.016 0.013 0.030 0.029 0.030l0.274 0.007c0.017 0 0.028-0.008 0.033-0.024 0.011-0.039 0.003-0.071-0.025-0.095-0.008-0.007-0.013-0.016-0.013-0.027v-0.501c0-0.017-0.008-0.024-0.025-0.019l-0.241 0.070c-0.004 0.001-0.008 0.003-0.012 0.006-0.018 0.012-0.022 0.038-0.010 0.056 0.003 0.004 0.006 0.007 0.009 0.009l0.020 0.015c0.010 0.007 0.014 0.016 0.014 0.028v0.317zM26.041 27.577c-0.014 0.012-0.022 0.009-0.022-0.010v-0.051c0-0.013-0.011-0.024-0.024-0.024-0.002 0-0.005 0-0.007 0.001l-0.233 0.064c-0.018 0.005-0.031 0.022-0.031 0.041s0.009 0.037 0.026 0.051c0.009 0.008 0.014 0.019 0.014 0.031v0.305c0 0.013-0.003 0.026-0.008 0.039l-0.035 0.086c-0.011 0.027-0.002 0.041 0.027 0.042l0.273 0.008c0.014 0.001 0.024-0.006 0.030-0.018 0.018-0.038 0.012-0.071-0.020-0.098-0.009-0.008-0.013-0.018-0.013-0.030v-0.303c0-0.014 0.007-0.023 0.021-0.026l0.097-0.023c0.001-0 0.002-0 0.004-0.001 0.016-0.002 0.030 0.010 0.032 0.025 0 0.001 0 0.002 0 0.003v0.314c0 0.002-0 0.005-0.001 0.007l-0.044 0.105c-0.011 0.026-0.002 0.039 0.025 0.039l0.278 0.004c0.013 0 0.025-0.008 0.030-0.021 0.014-0.040 0.005-0.072-0.027-0.097-0.010-0.008-0.016-0.021-0.016-0.034 0-0.116 0.030-0.374-0.044-0.459-0.088-0.1-0.235-0.054-0.331 0.029zM26.553 19.792l-0.612 0.313v0.292h-0.225v0.445h0.225v0.561c0 0.178 0.017 0.307 0.052 0.386s0.088 0.139 0.16 0.178c0.072 0.039 0.184 0.058 0.336 0.058 0.131 0 0.272-0.016 0.423-0.049l-0.045-0.421c-0.081 0.026-0.144 0.039-0.189 0.039-0.050 0-0.085-0.017-0.105-0.051-0.013-0.022-0.019-0.067-0.019-0.135v-0.565h0.336v-0.445h-0.336v-0.606zM27.18 19.792v2.198h0.61v-0.765c0-0.145 0.023-0.245 0.069-0.301s0.106-0.084 0.18-0.084c0.067 0 0.119 0.021 0.156 0.062s0.055 0.112 0.055 0.212v0.875h0.613v-1.012c0-0.209-0.048-0.364-0.143-0.465s-0.226-0.151-0.392-0.151c-0.112 0-0.209 0.018-0.291 0.055s-0.164 0.098-0.247 0.184v-0.81h-0.61zM14.204 22.328l0.2 0.188c0.012 0.011 0.025 0.013 0.039 0.007 0.157-0.070 0.286-0.205 0.386-0.276 0.287-0.206 0.576-0.41 0.867-0.61 0.712-0.489 1.411-0.791 2.254-0.909 0.083-0.012 0.172-0.009 0.267 0.008 0.028 0.005 0.028 0.011 0.001 0.019-0.049 0.014-0.107 0.011-0.15 0.028-0.341 0.137-0.568 0.246-0.681 0.325-0.608 0.43-1.135 0.903-1.582 1.419-0.324 0.374-0.579 0.664-0.765 0.87-0.103 0.114-0.265 0.396-0.376 0.458-0.105 0.058-0.156-0.053-0.136-0.14 0.030-0.138 0.072-0.266 0.040-0.407-0.029-0.126-0.058-0.292-0.168-0.376-0.012-0.010-0.030-0.010-0.042-0-0.132 0.097-0.36 0.278-0.685 0.543-0.303 0.247-0.708 0.498-1.213 0.755-0.061 0.031-0.745 0.329-1.396 0.247-0.169-0.021-0.35-0.044-0.508-0.104-0.291-0.11-0.327-0.33-0.281-0.606 0.003-0.016-0.002-0.029-0.015-0.040-0.205-0.162-0.367-0.356-0.383-0.627-0.008-0.132 0.041-0.495 0.181-0.703 0.186-0.276 0.362-0.431 0.565-0.556 0.249-0.152 0.407-0.221 0.636-0.299 0.263-0.090 0.6-0.080 0.855-0.212 0.481-0.251 0.968-0.402 1.459-0.453 0.212-0.022 0.821 0.043 0.936 0.287 0.17 0.36 0.006 0.881-0.303 1.125-0.015 0.012-0.016 0.025-0.001 0.038zM10.075 23.002c0 0.018-0.010 0.121-0.009 0.125 0.019 0.189 0.018 0.365 0.211 0.442 0.011 0.004 0.016 0.001 0.016-0.011-0.002-0.246 0.156-0.666 0.293-0.872 0.244-0.367 0.534-0.637 0.875-0.945 0.045-0.041 0.088-0.068 0.137-0.098 0.111-0.067 0.102-0.087-0.024-0.062-0.585 0.117-1.433 0.765-1.499 1.418-0 0.001-0 0.002-0 0.003zM10.415 23.898c0.211 0.672 1.311 0.485 1.744 0.276 0.271-0.13 0.601-0.331 0.992-0.603 0.346-0.241 0.735-0.574 1.112-0.852 0.014-0.010 0.016-0.023 0.006-0.038l-0.114-0.162c-0.019-0.027-0.050-0.043-0.083-0.043-0.026 0-0.052 0.010-0.071 0.029-0.616 0.605-1.186 1.011-2.018 1.248-0.522 0.149-1.004 0.226-1.523 0.096-0.003-0.001-0.006-0.001-0.009-0.001-0.021 0-0.039 0.017-0.039 0.039 0 0.004 0.001 0.008 0.002 0.012zM14.719 23.349c0.010-0.005 0.021-0.011 0.033-0.017 0.010-0.005 0.019-0.014 0.028-0.025 0.39-0.505 0.832-0.998 1.33-1.397 0.281-0.225 0.547-0.485 0.863-0.666 0.173-0.099 0.351-0.197 0.532-0.292 0.010-0.005 0.016-0.016 0.016-0.027 0-0.017-0.014-0.031-0.031-0.031-0.003 0-0.005 0-0.008 0.001-0.46 0.124-0.867 0.3-1.281 0.57-0.582 0.378-1.174 0.816-1.651 1.323-0.015 0.016-0.020 0.034-0.014 0.055l0.131 0.484c0.004 0.016 0.018 0.027 0.034 0.027 0.006 0 0.012-0.002 0.017-0.005zM15.803 21.965c0.023-0.027 0.018-0.033-0.014-0.018-0.16 0.078-0.309 0.173-0.447 0.285-0.014 0.011-0.013 0.020 0.005 0.025 0.203 0.060 0.332-0.142 0.456-0.293zM10.507 23.644c0.13 0.058 0.24 0.12 0.385 0.13 1.217 0.090 2.179-0.697 3.031-1.461 0.009-0.008 0.009-0.016 0-0.025-0.217-0.197-0.418-0.381-0.691-0.504-0.385-0.173-0.658-0.293-1.050-0.282-0.302 0.008-0.947 0.653-1.143 0.888-0.203 0.246-0.594 0.881-0.557 1.219 0.002 0.016 0.010 0.027 0.025 0.034zM12.337 21.412c0.681 0.091 1.147 0.302 1.759 0.753 0.012 0.009 0.030 0.008 0.041-0.002 0.258-0.228 0.476-0.567 0.222-0.898-0.309-0.404-1.71-0.224-2.032 0.119-0.001 0.001-0.002 0.003-0.003 0.004-0.004 0.008-0 0.018 0.008 0.022 0.002 0.001 0.003 0.001 0.005 0.002zM18.545 20.809l0.411 0.232c0.003 0.002 0.006 0.003 0.010 0.003 0.011 0 0.020-0.009 0.020-0.020 0-0.002-0-0.005-0.001-0.007-0.076-0.195-0.243-0.233-0.435-0.229-0.006 0-0.011 0.005-0.011 0.011 0 0.004 0.002 0.008 0.006 0.010zM24.233 23.746c0.001 0.002 0.002 0.003 0.002 0.005 0.014 0.024 0.045 0.032 0.069 0.019 0.002-0.001 0.003-0.002 0.005-0.003 0.418-0.307 0.853-0.632 1.204-1.016 0.010-0.011 0.023-0.019 0.037-0.022 0.077-0.019 0.511-0.218 0.523-0.214 0.015 0.005 0.025 0.018 0.025 0.034 0 0.010-0.004 0.019-0.011 0.025-0.333 0.326-0.661 0.641-0.985 0.947-0.020 0.018-0.049 0.064-0.089 0.138-0.007 0.014-0.007 0.026 0.003 0.039 0.049 0.063 0.111 0.044 0.165-0.004 0.431-0.381 0.884-0.734 1.361-1.058 0.073-0.049 0.158-0.073 0.238-0.107 0.028-0.012 0.031-0.007 0.008 0.013-0.245 0.213-0.462 0.467-0.76 0.644-0.167 0.099-0.275 0.212-0.406 0.342-0.053 0.052-0.128 0.065-0.171 0.119-0.143 0.179-0.337 0.241-0.582 0.184-0.015-0.004-0.026-0.012-0.034-0.026-0.028-0.051-0.021-0.101 0.020-0.151 0.004-0.005 0.007-0.011 0.008-0.017 0.003-0.019-0.011-0.036-0.030-0.039-0.006-0.001-0.013-0-0.019 0.002l-0.575 0.254c-0.015 0.007-0.032 0.010-0.048 0.010-0.065 0-0.119-0.054-0.119-0.119v-0.154c0-0.022-0.011-0.033-0.033-0.033-0.093-0.001-0.182 0.029-0.268 0.090-0.258 0.186-0.687 0.348-0.99 0.156-0.377-0.239 0.441-0.582 0.578-0.64 0.092-0.040 0.149-0.117 0.25-0.156 0.014-0.005 0.025-0.014 0.034-0.025 0.099-0.129 0.213-0.241 0.341-0.337 0.073-0.054 0.133-0.112 0.181-0.172 0.080-0.1 0.254-0.351 0.399-0.318 0.015 0.003 0.026 0.017 0.026 0.033 0 0.009-0.004 0.017-0.010 0.024-0.169 0.171-0.416 0.391-0.487 0.618-0.077 0.243-0.146 0.437-0.294 0.647-0.005 0.007-0.008 0.015-0.008 0.023-0.001 0.023 0.018 0.043 0.041 0.044 0.008 0 0.016-0.002 0.024-0.006 0.233-0.139 0.441-0.352 0.638-0.504 0.107-0.083 0.21-0.171 0.309-0.264 0.117-0.111 0.7-0.434 0.839-0.297 0.008 0.008 0.013 0.020 0.013 0.032 0 0.023-0.018 0.042-0.041 0.044-0.107 0.009-0.184 0.001-0.276 0.061-0.319 0.206-0.595 0.425-0.827 0.656-0.059 0.059-0.281 0.327-0.285 0.43-0.001 0.022 0.002 0.039 0.007 0.051zM22.941 23.747c0.24 0.054 0.377-0.018 0.54-0.207 0.162-0.187 0.342-0.371 0.415-0.614 0.001-0.003 0.001-0.005 0.001-0.008 0-0.013-0.009-0.024-0.021-0.027l-0.096-0.024c-0.014-0.004-0.026 0.001-0.035 0.013-0.092 0.124-0.173 0.252-0.298 0.344-0.168 0.123-0.428 0.236-0.553 0.394-0.011 0.014-0.017 0.032-0.017 0.050 0 0.038 0.026 0.071 0.063 0.079zM17.913 22.8c-0.002 0.001-0.005 0.001-0.008 0-0.007-0.002-0.012-0.009-0.010-0.016 0.001-0.003 0.002-0.005 0.004-0.007l0.305-0.28c0.010-0.009 0.015-0.021 0.015-0.034 0-0.025-0.020-0.045-0.045-0.045-0.006 0-0.013 0.001-0.019 0.004-0.158 0.066-0.275 0.134-0.409 0.251-0.269 0.236-0.54 0.47-0.814 0.702-0.158 0.134-0.353 0.231-0.53 0.352-0.013 0.009-0.013 0.017-0 0.026 0.025 0.017 0.049 0.020 0.074 0.008 0.172-0.082 0.346-0.169 0.52-0.258 0.040-0.020 0.048-0.012 0.024 0.026l-0.109 0.175c-0.005 0.007-0.007 0.016-0.007 0.025 0 0.026 0.021 0.047 0.047 0.047 0.007 0 0.015-0.002 0.021-0.005 0.017-0.009 0.036-0.023 0.057-0.042 0.351-0.333 0.739-0.7 1.15-0.929 0.189-0.105 0.388-0.199 0.595-0.28 0.005-0.002 0.009-0.002 0.014-0.001 0.015 0.002 0.025 0.016 0.022 0.031-0.001 0.005-0.003 0.009-0.006 0.013-0.115 0.133-0.223 0.241-0.378 0.352-0.25 0.178-0.687 0.462-0.566 0.823 0.008 0.024 0.029 0.041 0.054 0.044 0.324 0.040 0.474-0.169 0.736-0.298 0.003-0.002 0.006-0.002 0.009-0.002 0.011 0 0.021 0.009 0.021 0.021 0 0.001-0 0.003-0 0.004l-0.042 0.225c-0.003 0.014 0.006 0.029 0.020 0.032 0.276 0.071 0.637-0.151 0.86-0.3 0.003-0.002 0.006-0.003 0.009-0.003 0.009 0 0.016 0.007 0.016 0.016 0 0.002-0 0.004-0.001 0.006-0.029 0.075-0.036 0.153-0.021 0.232 0.006 0.030 0.030 0.054 0.061 0.058 0.151 0.021 0.293-0.004 0.427-0.075 0.549-0.289 1.016-0.676 1.401-1.159 0.002-0.002 0.004-0.005 0.005-0.008 0.017-0.030 0.007-0.068-0.022-0.085-0.003-0.002-0.005-0.003-0.008-0.004-0.095-0.037-0.172 0.017-0.228 0.099-0.194 0.286-1.243 1.158-1.488 1.156-0.024-0-0.031-0.011-0.021-0.032 0.106-0.232 0.504-0.627 0.793-0.788 0.178-0.099 0.34-0.224 0.487-0.372 0.024-0.024 0.019-0.035-0.015-0.033l-0.712 0.043c-0.029 0.002-0.052 0.026-0.052 0.056 0 0.026 0.017 0.048 0.042 0.054 0.116 0.029 0.266-0.086 0.356-0.031 0.010 0.006 0.016 0.017 0.016 0.029 0 0.014-0.008 0.026-0.020 0.031-0.333 0.151-0.587 0.308-0.909 0.542-0.226 0.164-0.427 0.302-0.682 0.331-0 0-0 0-0.001 0-0.018 0.002-0.035-0.012-0.037-0.030 0-0-0-0.001-0-0.001-0.011-0.169 0.225-0.308 0.343-0.392 0.218-0.155 0.38-0.311 0.529-0.483 0.126-0.146 0.104-0.173-0.066-0.082-0.050 0.027-0.111 0.061-0.184 0.102-0.142 0.080-0.263 0.201-0.388 0.307-0.175 0.147-0.383 0.267-0.567 0.417-0.191 0.155-0.302 0.225-0.525 0.254-0.002 0-0.004 0-0.006 0-0.027 0-0.049-0.022-0.049-0.049 0-0.007 0.001-0.014 0.004-0.020 0.103-0.229 0.364-0.422 0.632-0.612 0.185-0.13 0.296-0.236 0.33-0.447 0.004-0.027-0.013-0.054-0.040-0.060-0.133-0.032-0.251-0.025-0.375 0.056-0.2 0.13-0.412 0.234-0.639 0.313zM16.092 22.929c-0.038 0.021-0.040 0.019-0.005-0.008l0.523-0.4c0.006-0.005 0.010-0.012 0.010-0.020 0-0.014-0.012-0.026-0.026-0.026-0.002 0-0.003 0-0.005 0-0.483 0.1-0.823 0.575-1.172 0.922-0.048 0.048-0.089 0.156-0.123 0.324-0.003 0.014 0.003 0.024 0.017 0.028 0.058 0.020 0.108 0.007 0.149-0.040 0.236-0.268 0.417-0.467 0.725-0.659 0.295-0.184 0.588-0.364 0.878-0.54 0.007-0.004 0.014-0.006 0.022-0.006 0.023 0 0.043 0.019 0.043 0.043 0 0.007-0.002 0.014-0.005 0.020-0.056 0.105-0.133 0.191-0.232 0.26-0.211 0.147-0.408 0.311-0.591 0.493-0.13 0.13-0.193 0.25-0.136 0.427 0.010 0.030 0.039 0.051 0.071 0.051 0.041 0 0.075-0.034 0.075-0.075 0-0.001 0-0.002 0-0.002-0.012-0.268 0.452-0.589 0.695-0.755 0.167-0.114 0.266-0.282 0.296-0.505 0.002-0.013-0.004-0.020-0.017-0.023-0.507-0.081-0.789 0.266-1.192 0.491zM22.368 22.583c0.008 0.004 0.013 0.012 0.013 0.021 0 0.007-0.003 0.013-0.008 0.018-0.137 0.124-0.292 0.221-0.463 0.291-0.007 0.003-0.014 0.009-0.018 0.016-0.010 0.017-0.004 0.040 0.014 0.049 0.007 0.004 0.015 0.005 0.023 0.004 0.264-0.043 0.449-0.186 0.553-0.428 0.006-0.013 0.005-0.029-0.003-0.041-0.107-0.169-0.598 0.054-0.697 0.104-0.18 0.091-1.163 0.854-0.817 1.154 0.215 0.186 0.525-0.031 0.713-0.13 0.019-0.010 0.029-0.023 0.031-0.039 0-0.001 0-0.003 0-0.004 0-0.020-0.017-0.037-0.037-0.037-0.006 0-0.012 0.002-0.018 0.004-0.116 0.061-0.229 0.121-0.341 0.178-0.024 0.013-0.046 0.019-0.067 0.018-0.030-0.001-0.052-0.009-0.068-0.023-0.054-0.049-0.064-0.131-0.023-0.191 0.139-0.204 0.929-1.106 1.212-0.963zM22.627 23.015c-0.039 0.019-0.042 0.015-0.009-0.014 0.129-0.115 0.262-0.225 0.398-0.331 0.029-0.023 0.050-0.052 0.063-0.088 0.006-0.016 0.001-0.022-0.016-0.018-0.392 0.098-1.179 0.806-1.205 1.232-0 0.001-0 0.001-0 0.002 0 0.021 0.018 0.039 0.039 0.039 0.011 0 0.021-0.004 0.028-0.012 0.429-0.45 0.904-0.836 1.424-1.16 0.066-0.041 0.164-0.048 0.295-0.021 0.001 0.001 0.019-0.005 0.041-0.013 0.050-0.017 0.062-0.052 0.035-0.103-0.006-0.011-0.016-0.017-0.028-0.018l-0.238-0.014c-0.011-0.001-0.022 0.003-0.031 0.009-0.11 0.083-0.227 0.156-0.349 0.218-0.155 0.080-0.285 0.208-0.448 0.29zM27.317 22.654c0.016-0.016 0.025-0.037 0.025-0.060 0-0.046-0.038-0.084-0.084-0.084-0.006 0-0.011 0.001-0.017 0.002-0.087 0.017-0.178 0.054-0.273 0.111-0.338 0.2-1.335 0.759-1.435 1.135-0.001 0.005-0.002 0.010-0.002 0.016 0 0.035 0.029 0.064 0.064 0.064 0.019 0 0.037-0.008 0.049-0.023 0.372-0.454 0.895-0.772 1.376-1.123 0.026-0.019 0.053-0.031 0.080-0.035 0.065-0.009 0.176 0.037 0.216-0.002zM12.781 20.601c0.248-0.073 0.497-0.122 0.747-0.148h0c0.192-0.020 0.637 0.015 0.938 0.147 0.207 0.091 0.356 0.23 0.428 0.383 0.027 0.057 0.048 0.117 0.064 0.179 0.21-0.086 0.426-0.162 0.645-0.239 0.017-0.006 0.121-0.093 0.121-0.112 0.001-0.247-0.003-5.982 0.035-8.652 0-0.014-2.384-0.013-2.387-0.006-0.384 0.799-1.083 1.477-1.886 1.923-0.117 0.065-0.388 0.344-0.824 0.527-0.031 0.013-0.064 2.263-0.064 2.347 0 0.021 0.925-0.455 1.405-0.744 0.216-0.131 0.437-0.317 0.714-0.436 0.003-0.001 0.007-0.002 0.010-0.002 0.014 0 0.025 0.011 0.025 0.025 0 0-0 0.001-0 0.001l0.028 4.806zM10.578 9.366c-0.081 0-0.164 0.049-0.249 0.146-0.081 0.088-0.128 0.174-0.143 0.26 0.047-0.033 0.082-0.058 0.103-0.075 0.050-0.036 0.085-0.055 0.107-0.057 0.014 0.064 0.025 0.114 0.032 0.149 0.064-0.114 0.113-0.179 0.146-0.196l0.093-0.014c0.047-0.012 0.071-0.039 0.071-0.082 0-0.088-0.053-0.132-0.16-0.132zM10.885 9.701c-0.017 0-0.031 0.006-0.043 0.018 0.057 0.024 0.113 0.075 0.167 0.153 0.045 0.064 0.096 0.096 0.153 0.096 0.043 0 0.086-0.014 0.13-0.041s0.066-0.061 0.066-0.101c0-0.083-0.039-0.125-0.117-0.125-0.033 0-0.063 0.017-0.091 0.050s-0.047 0.050-0.059 0.050c-0.014 0-0.047-0.017-0.098-0.050s-0.087-0.050-0.109-0.050zM9.313 12.181c0.020 0.001 0.059 0.040 0.116 0.117 0.044 0.059 0.079 0.111 0.106 0.157 0.078 0.139 0.131 0.289 0.158 0.45 0 0.056 0.001 0.096 0.004 0.121l0 0.029c0 0.161-0.059 0.271-0.176 0.33-0.034 0.017-0.142 0.040-0.322 0.070-0.117 0.020-0.176 0.065-0.176 0.135v0.297c0 0.012 0.004 0.050 0.011 0.114l0.011 0.117c0 0.037-0.009 0.096-0.026 0.179-0.046 0.010-0.1 0.021-0.161 0.033-0.020-0.073-0.029-0.123-0.029-0.15 0-0.012 0.003-0.030 0.009-0.055s0.009-0.043 0.009-0.055c0-0.017-0.015-0.065-0.046-0.143h-0.057c-0.008 0.012-0.010 0.028-0.008 0.048 0.010 0.042 0.013 0.077 0.011 0.106-0.042 0.029-0.099 0.068-0.172 0.117-0.017-0.005-0.023-0.007-0.018-0.007v-0.26c-0.005-0.012-0.017-0.017-0.037-0.015h-0.044l-0.044 0.344c-0.034 0.002-0.076 0.002-0.125 0-0.017-0.081-0.048-0.2-0.092-0.359h-0.029c-0.027 0.086-0.042 0.132-0.044 0.139 0 0.010 0.003 0.029 0.009 0.057s0.009 0.047 0.009 0.057c0 0.007-0.002 0.026-0.007 0.055l-0.011 0.088c-0.005 0.005-0.011 0.007-0.018 0.007-0.073 0-0.122-0.018-0.146-0.055s-0.034-0.088-0.029-0.154l0.029-0.439c0-0.007 0.002-0.017 0.007-0.029s0.007-0.021 0.007-0.026c0-0.020-0.021-0.059-0.062-0.117-0.007-0.002-0.045-0.011-0.114-0.026-0.042-0.010-0.123-0.027-0.245-0.051-0.168-0.032-0.253-0.167-0.253-0.406 0-0.356 0.146-0.653 0.439-0.89 0.012 0.066 0.033 0.154 0.062 0.264 0.022 0.005 0.070 0.016 0.143 0.033 0.015 0.005 0.089 0.032 0.223 0.081-0.068-0.042-0.158-0.109-0.267-0.201-0.042-0.049-0.062-0.131-0.062-0.245 0-0.027 0.046-0.059 0.139-0.095 0.083-0.034 0.145-0.054 0.187-0.059 0.132-0.017 0.233-0.026 0.304-0.026 0.305 0 0.552 0.078 0.74 0.234-0.061 0.071-0.166 0.146-0.315 0.227 0.059 0.002 0.144-0.021 0.256-0.070 0.11-0.048 0.158-0.072 0.144-0.073zM8.433 13.155c-0.083 0.086-0.125 0.223-0.125 0.414 0 0.105 0.010 0.17 0.029 0.194 0.020-0.005 0.041-0.014 0.066-0.026 0.010-0.005 0.038-0.007 0.084-0.007s0.102 0.015 0.168 0.044c0.024 0 0.037-0.066 0.037-0.198v-0.114c-0.017-0.032-0.034-0.065-0.051-0.099-0.015-0.049-0.041-0.117-0.081-0.205l-0.040 0.428c0 0.034-0.007 0.051-0.022 0.051-0.010 0-0.017-0.002-0.022-0.007-0.017-0.259-0.026-0.371-0.026-0.337v-0.128c-0.005-0.007-0.011-0.011-0.018-0.011zM9.158 12.686c-0.103 0-0.198 0.047-0.288 0.141s-0.134 0.192-0.134 0.295c0 0.085 0.041 0.128 0.125 0.128h0.421c0.159-0.002 0.238-0.064 0.238-0.184 0-0.098-0.037-0.186-0.11-0.264s-0.158-0.116-0.253-0.116zM7.862 12.682c-0.093 0-0.175 0.039-0.245 0.118s-0.106 0.166-0.106 0.262c0 0.084 0.040 0.138 0.121 0.162 0.051 0.015 0.123 0.023 0.216 0.026h0.201c0.163 0.002 0.245-0.040 0.245-0.128 0-0.105-0.046-0.204-0.137-0.299s-0.19-0.141-0.295-0.141zM6.969 18.22c-0.098 0.133-0.148 0.23-0.148 0.292 0 0.032 0.019 0.066 0.058 0.103 0.048 0.043 0.076 0.074 0.082 0.093 0.023 0.053 0.021 0.125-0.007 0.216 0.062 0.044 0.109 0.065 0.141 0.065 0.066 0 0.099-0.034 0.099-0.103 0-0.007-0.003-0.029-0.009-0.065s-0.007-0.057-0.005-0.062c0.009-0.032 0.072-0.048 0.189-0.048 0.073 0 0.225 0.021 0.456 0.062-0.050 0.014-0.126 0.034-0.226 0.062-0.092 0.027-0.137 0.058-0.137 0.093 0 0.016 0.006 0.043 0.017 0.082s0.017 0.067 0.017 0.086c0 0.032-0.021 0.062-0.062 0.089l-0.117 0.082c0.027 0.050 0.046 0.080 0.055 0.089 0.023 0.027 0.054 0.041 0.093 0.041 0.027 0 0.053-0.024 0.075-0.072s0.059-0.072 0.11-0.072c0.062 0 0.132 0.057 0.209 0.172 0.043 0.064 0.111 0.161 0.202 0.292-0.178-0.101-0.293-0.151-0.343-0.151-0.037 0-0.065 0.028-0.086 0.084s-0.062 0.084-0.124 0.084c-0.025 0-0.077-0.009-0.154-0.027-0.043 0.066-0.065 0.109-0.065 0.127 0 0.025 0.019 0.055 0.056 0.089s0.069 0.051 0.095 0.051c0.016 0 0.039-0.003 0.067-0.010s0.047-0.010 0.056-0.010c0.028 0 0.042 0.051 0.042 0.154 0 0.098-0.023 0.249-0.069 0.453-0.060-0.233-0.122-0.35-0.189-0.35-0.009 0-0.028 0.007-0.057 0.021s-0.050 0.020-0.063 0.020c-0.066 0-0.126-0.061-0.178-0.182-0.105 0.016-0.158 0.070-0.158 0.161 0 0.046 0.021 0.082 0.064 0.11s0.063 0.047 0.063 0.058c0 0.062-0.090 0.157-0.271 0.285-0.096 0.069-0.162 0.117-0.199 0.144 0.032-0.041 0.064-0.095 0.096-0.161 0.037-0.076 0.055-0.134 0.055-0.175 0-0.023-0.026-0.055-0.079-0.096s-0.079-0.085-0.079-0.13c0-0.039 0.014-0.087 0.041-0.144-0.030-0.034-0.065-0.052-0.106-0.052-0.092 0-0.137 0.030-0.137 0.089v0.093c0.002 0.076-0.055 0.113-0.172 0.113-0.089 0-0.239-0.021-0.449-0.062 0.238-0.059 0.357-0.128 0.357-0.206 0 0.009-0.005-0.018-0.014-0.082-0.009-0.071 0.041-0.135 0.151-0.192-0.021-0.105-0.075-0.158-0.165-0.158-0.014 0-0.039 0.024-0.076 0.072s-0.071 0.072-0.103 0.072c-0.055 0-0.126-0.059-0.213-0.178-0.041-0.059-0.104-0.147-0.189-0.264 0.053 0.028 0.105 0.055 0.158 0.082 0.069 0.032 0.123 0.048 0.165 0.048 0.032 0 0.063-0.028 0.094-0.084s0.072-0.084 0.122-0.084c0.007 0 0.053 0.014 0.137 0.041 0.043-0.066 0.065-0.116 0.065-0.148 0-0.027-0.017-0.059-0.050-0.094s-0.063-0.053-0.091-0.053c-0.011 0-0.029 0.003-0.053 0.010s-0.042 0.010-0.053 0.010c-0.041 0-0.062-0.052-0.062-0.154 0-0.027 0.026-0.184 0.079-0.47-0.002 0.034 0.013 0.098 0.045 0.192 0.039 0.114 0.085 0.172 0.137 0.172 0.009 0 0.027-0.007 0.055-0.021s0.049-0.020 0.065-0.020c0.053 0 0.096 0.030 0.13 0.089l0.051 0.093c0.048 0 0.088-0.017 0.12-0.051s0.048-0.076 0.048-0.124c0-0.050-0.021-0.089-0.063-0.115s-0.064-0.046-0.064-0.060c0-0.048 0.075-0.129 0.226-0.244 0.121-0.091 0.2-0.145 0.237-0.161zM6.76 18.975c-0.149 0-0.277 0.053-0.384 0.16s-0.162 0.234-0.165 0.383c-0.002 0.146 0.052 0.273 0.163 0.379s0.24 0.16 0.386 0.16c0.156 0 0.285-0.051 0.389-0.153s0.155-0.23 0.153-0.386c0-0.146-0.054-0.273-0.161-0.381s-0.234-0.161-0.381-0.161zM6.76 19.033c-0.133 0-0.248 0.048-0.345 0.142s-0.146 0.209-0.146 0.341c0 0.135 0.048 0.249 0.144 0.343s0.212 0.141 0.346 0.141c0.14 0 0.256-0.046 0.35-0.137s0.141-0.207 0.141-0.346c0-0.13-0.049-0.244-0.146-0.34s-0.212-0.144-0.345-0.144zM14.253 7.479c0.117 0 0.219 0.047 0.308 0.14 0.027 0.029 0.040 0.044 0.045 0.051 0.008-0.003 0.022-0.006 0.046-0.010 0.056-0.011 0.097-0.016 0.123-0.016 0.091 0 0.172 0.034 0.242 0.102 0.061 0.061 0.103 0.138 0.126 0.231 0.016 0.002 0.042 0.009 0.077 0.021 0.051 0.026 0.077 0.070 0.077 0.133 0 0.012-0.009 0.034-0.028 0.066 0.149 0.084 0.224 0.201 0.224 0.35 0 0.042-0.016 0.1-0.049 0.175 0.061 0.035 0.091 0.086 0.091 0.154 0 0.047-0.018 0.089-0.054 0.126s-0.078 0.056-0.124 0.056c-0.075 0-0.13-0.035-0.165-0.105l-0.164-0.007c-0.035 0-0.104 0.015-0.207 0.046-0.11 0.030-0.173 0.055-0.189 0.073-0.026 0.028-0.047 0.093-0.063 0.196-0.014 0.084-0.021 0.146-0.021 0.186 0 0.063 0.010 0.109 0.030 0.138s0.061 0.054 0.122 0.073c0.062 0.020 0.1 0.031 0.114 0.033 0.009 0 0.024-0.001 0.046-0.004h0.042c0.030 0 0.062 0.005 0.094 0.014 0.047 0.014 0.067 0.033 0.060 0.056-0.033-0.005-0.090 0.002-0.172 0.021l0.098 0.049c0 0.028-0.040 0.042-0.119 0.042-0.021 0-0.050-0.005-0.086-0.014s-0.060-0.014-0.072-0.014h-0.046c-0.002 0.023-0.009 0.058-0.021 0.105-0.040-0.002-0.086-0.026-0.14-0.070s-0.088-0.066-0.101-0.066c-0.014 0-0.034 0.022-0.060 0.066s-0.039 0.075-0.039 0.091c-0.030-0.016-0.056-0.047-0.077-0.091-0.009-0.030-0.020-0.061-0.031-0.091-0.023 0.002-0.067 0.051-0.13 0.147h-0.018c-0.005-0.007-0.022-0.056-0.053-0.147-0.072-0.023-0.14-0.035-0.203-0.035-0.030 0-0.077 0.007-0.14 0.021l-0.098-0.007c0.014-0.014 0.055-0.041 0.123-0.081 0.079-0.047 0.14-0.070 0.182-0.070 0.007 0 0.016 0.001 0.028 0.004s0.021 0.004 0.028 0.004c0.016 0 0.043-0.009 0.079-0.026s0.057-0.033 0.063-0.047c0.006-0.014 0.009-0.050 0.009-0.109 0-0.133-0.035-0.232-0.105-0.298-0.061-0.058-0.161-0.1-0.301-0.126-0.037 0.133-0.142 0.2-0.315 0.2-0.056 0-0.112-0.034-0.168-0.102s-0.084-0.13-0.084-0.186c0-0.086 0.036-0.158 0.108-0.214-0.058-0.061-0.087-0.122-0.087-0.185 0-0.058 0.018-0.11 0.054-0.154s0.083-0.070 0.142-0.077c-0.005-0.075 0.020-0.126 0.074-0.154-0.026-0.026-0.039-0.071-0.039-0.136 0-0.077 0.026-0.141 0.077-0.193s0.116-0.077 0.193-0.077c0.084 0 0.153 0.029 0.207 0.088 0.068-0.231 0.214-0.347 0.438-0.347zM13.854 8.77c-0.065 0-0.126 0.015-0.182 0.045 0.124-0.007 0.264 0.064 0.42 0.214v-0.046c0-0.054-0.026-0.103-0.079-0.147s-0.106-0.066-0.159-0.066zM14.141 8.319c0.012 0 0.046 0.005 0.102 0.014v0.154l-0.102-0.116v-0.053zM14.813 8.707c-0.047 0.033-0.094 0.066-0.142 0.1s-0.089 0.072-0.124 0.114c0.105-0.056 0.219-0.096 0.343-0.119l-0.077-0.095zM14.54 8.319c0.077 0.035 0.13 0.058 0.158 0.070 0.005 0.091-0.048 0.168-0.158 0.231v-0.301zM13.938 8.473c-0.098 0.026-0.147 0.055-0.147 0.087 0.028-0.002 0.069 0.003 0.123 0.016s0.092 0.019 0.116 0.019c-0.035-0.040-0.065-0.081-0.091-0.123zM7.223 14.77c-0.036 0.166-0.054 0.284-0.054 0.354 0 0.161 0.051 0.317 0.152 0.47 0.124 0.181 0.219 0.316 0.284 0.404 0.101 0.153 0.152 0.302 0.152 0.447 0 0.215-0.073 0.397-0.218 0.544s-0.324 0.222-0.536 0.222c-0.238 0-0.428-0.082-0.568-0.245-0.132-0.156-0.198-0.354-0.198-0.595 0-0.259 0.113-0.555 0.338-0.886 0.184-0.272 0.4-0.511 0.649-0.715zM7.398 15.987c0.008 0.016 0.012 0.038 0.012 0.066 0 0.054-0.016 0.132-0.047 0.233l-0.050 0.156c0 0.091 0.045 0.136 0.136 0.136 0.096 0 0.144-0.064 0.144-0.191 0-0.065-0.019-0.14-0.058-0.227s-0.084-0.144-0.136-0.173zM23.023 28.015c-0.015 0-0.026-0.012-0.026-0.026l-0-0.329c0-0.012 0.006-0.018 0.018-0.019 0.061-0.001 0.089-0.036 0.084-0.104-0.001-0.014-0.008-0.021-0.022-0.021h-0.059c-0.011 0-0.019-0.009-0.020-0.020l-0.004-0.103c-0.001-0.025-0.022-0.046-0.048-0.046-0.016 0-0.032 0.008-0.040 0.022-0.052 0.084-0.201 0.153-0.221 0.218-0.005 0.015 0 0.027 0.015 0.034l0.035 0.017c0.012 0.006 0.018 0.016 0.018 0.029-0.001 0.12-0 0.24 0.001 0.359 0.002 0.215 0.274 0.148 0.363 0.050 0.006-0.007 0.010-0.016 0.010-0.025 0-0.020-0.017-0.037-0.037-0.037h-0.066zM26.916 28.044c0.1-0.002 0.175 0.039 0.224 0.124 0.008 0.013 0.010 0.028 0.006 0.043-0.059 0.231-0.538 0.24-0.482 0.008 0.003-0.013 0.010-0.023 0.020-0.032l0.035-0.030c0.004-0.004 0.006-0.009 0.006-0.015 0-0.011-0.009-0.020-0.020-0.020-0.002 0-0.005 0-0.007 0.001-0.064 0.026-0.115 0.010-0.152-0.045-0.011-0.016-0.007-0.027 0.012-0.033l0.156-0.046c0.022-0.006 0.022-0.014 0.001-0.023-0.371-0.158-0.103-0.547 0.231-0.478 0.014 0.003 0.023-0.002 0.027-0.016 0.022-0.072 0.073-0.104 0.153-0.095 0.011 0.001 0.019 0.010 0.020 0.020 0.005 0.053-0.015 0.092-0.059 0.117-0.006 0.003-0.009 0.009-0.009 0.016 0 0.004 0.001 0.008 0.004 0.011 0.203 0.237 0.031 0.37-0.173 0.464-0.005 0.002-0.009 0.008-0.009 0.013 0 0.008 0.007 0.015 0.015 0.015 0 0 0 0 0.001 0zM26.903 27.902c0.038-0.011 0.049-0.091 0.024-0.176s-0.077-0.147-0.115-0.136-0.049 0.091-0.024 0.176c0.025 0.086 0.077 0.147 0.115 0.136zM26.865 28.192c-0.027 0.040-0.024 0.074 0.009 0.101 0.005 0.004 0.011 0.006 0.017 0.006 0.015 0 0.027-0.012 0.027-0.027 0-0.002-0-0.004-0.001-0.006l-0.016-0.067c-0.002-0.009-0.010-0.015-0.019-0.015-0.007 0-0.013 0.004-0.017 0.009zM22.304 27.7c-0.003-0.032-0.021-0.053-0.054-0.062-0.012-0.003-0.024-0.001-0.034 0.005l-0.11 0.069c-0.009 0.005-0.019 0.008-0.029 0.008-0.029 0-0.054-0.024-0.054-0.054 0-0.007 0.001-0.014 0.004-0.020l0.063-0.157c0.006-0.015 0.023-0.022 0.038-0.016l0.066 0.027c0.010 0.004 0.021 0.005 0.031 0.002 0.124-0.036 0.227-0.004 0.31 0.095 0.008 0.009 0.012 0.020 0.012 0.032l0.001 0.375c-0 0.012 0.004 0.023 0.013 0.031 0.024 0.026 0.038 0.056 0.039 0.091 0 0.011-0.007 0.021-0.017 0.023-0.092 0.023-0.179 0.017-0.262-0.019-0.016-0.007-0.031-0.006-0.046 0.002-0.375 0.195-0.526-0.433 0.009-0.41 0 0 0.001 0 0.001 0 0.011-0 0.020-0.010 0.020-0.021 0-0 0-0.001-0-0.001zM22.295 27.995l0.013-0.15c0-0.001 0-0.001 0-0.002 0-0.010-0.008-0.019-0.018-0.019l-0.009-0.001c-0.049-0.004-0.092 0.033-0.096 0.082l-0.001 0.010c-0.004 0.049 0.033 0.093 0.081 0.097l0.009 0.001c0.001 0 0.001 0 0.002 0 0.010 0 0.019-0.008 0.019-0.018zM24.289 27.92c0.076 0.097 0.16 0.108 0.251 0.031 0.008-0.007 0.019-0.011 0.030-0.012 0.027-0.001 0.049 0.021 0.050 0.048 0 0.011-0.003 0.022-0.010 0.031-0.197 0.259-0.62 0.182-0.612-0.184 0.008-0.377 0.47-0.477 0.611-0.121 0.013 0.033 0.003 0.057-0.031 0.070l-0.281 0.107c-0.017 0.007-0.019 0.017-0.009 0.031zM24.252 27.778l0.099-0.032c0.012-0.004 0.019-0.017 0.015-0.029l-0.002-0.006c-0.021-0.064-0.069-0.107-0.107-0.095l-0 0-0.006 0.002c-0.038 0.012-0.052 0.075-0.031 0.14l0.002 0.005c0.003 0.010 0.012 0.016 0.022 0.016 0.002 0 0.005-0 0.007-0.001zM20.307 27.926c0.078 0.092 0.162 0.099 0.254 0.021 0.016-0.013 0.039-0.013 0.054 0.001 0.026 0.024 0.028 0.053 0.006 0.086-0.020 0.031-0.060 0.061-0.122 0.092-0.261 0.13-0.505-0.037-0.478-0.331 0.033-0.359 0.453-0.408 0.602-0.091 0 0.001 0.001 0.001 0.001 0.002 0.013 0.029-0.001 0.064-0.030 0.076-0.001 0-0.001 0.001-0.002 0.001l-0.276 0.106c-0.020 0.008-0.023 0.020-0.009 0.037zM20.257 27.778l0.122-0.035c0.005-0.001 0.007-0.006 0.006-0.011l-0.003-0.012c-0.019-0.068-0.067-0.116-0.105-0.105l-0 0c-0.038 0.011-0.054 0.076-0.034 0.144l0 0 0.003 0.012c0.001 0.004 0.005 0.006 0.009 0.006 0.001 0 0.002-0 0.003-0zM24.798 25.249c-0.145-0.010-0.281-0.047-0.383-0.138-0.003-0.003-0.004-0.006-0.004-0.010 0-0.007 0.006-0.014 0.014-0.014 0.002 0 0.003 0 0.005 0.001 0.126 0.052 0.252 0.081 0.375 0.091 0.071-0.649 0.648-1.139 1.464-0.892 0.099 0.030 0.207 0.080 0.311 0.101 0.248-0.203 0.517-0.458 0.808-0.762 0-0 0-0.001 0-0.002s-0.001-0.003-0.003-0.003c-0 0-0.001 0-0.001 0-0.227 0.122-0.395 0.244-0.664 0.251-0.050 0.002-0.094-0.037-0.098-0.088-0.016-0.196 0.132-0.38 0.278-0.502 0.142-0.119 0.281-0.288 0.396-0.384 0.177-0.149 0.373-0.259 0.588-0.33 0.002-0.001 0.005-0.001 0.007-0.001 0.013 0 0.023 0.010 0.023 0.023 0 0.007-0.003 0.013-0.008 0.017-0.392 0.33-0.792 0.634-1.099 1.036-0.007 0.010-0.011 0.021-0.011 0.034 0 0.025 0.017 0.047 0.042 0.053 0.3 0.073 1.221-0.823 1.452-1.036 0.071-0.065 0.216-0.14 0.293-0.128 0.046 0.008 0.051 0.025 0.013 0.053-0.227 0.164-0.426 0.354-0.6 0.568-0.296 0.365-0.66 0.743-1.023 1.069 0.075 0.049 0.12 0.12 0.134 0.213 0.002 0.013-0.003 0.023-0.013 0.031-0.173 0.119-0.261 0.284-0.264 0.495-0 0.030-0.013 0.055-0.037 0.074-0.044 0.034-0.083 0.034-0.117-0.001-0.010-0.010-0.013-0.022-0.010-0.036 0.035-0.14 0.025-0.34-0.092-0.43-0.089 0.076-0.18 0.146-0.286 0.201-0.251 0.13-0.515 0.271-0.79 0.356-0.010 0.069-0.011 0.141-0.001 0.214 0.139 1.051 1.274 0.854 1.968 0.634 0.006-0.002 0.012-0.002 0.018 0 0.015 0.005 0.023 0.021 0.018 0.036-0.002 0.006-0.006 0.011-0.011 0.014-0.468 0.31-1.053 0.562-1.634 0.451-0.326-0.062-0.682-0.186-0.854-0.476-0.153-0.26-0.216-0.532-0.203-0.785zM26.367 24.555c-0.242-0.011-0.476-0.021-0.657 0.18-0.091 0.1-0.154 0.206-0.188 0.318 0.247-0.101 0.483-0.248 0.705-0.398 0.046-0.031 0.093-0.065 0.141-0.1z"></path>
</svg>
