<!-- Generated by IcoMoon.io -->
<svg version="1.1" xmlns="http://www.w3.org/2000/svg" width="32" height="32" viewBox="0 0 32 32">
<title>watermark-flavor-moxlotus</title>
<path fill="#444" d="M14.753 18.43c-1.727 2.913-4.259 5.304-7.157 5.299-2.458-0.005-4.159-0.41-5.605-1.909-1.161-1.203-1.99-3.31-1.99-5.374 0-2.239 0.809-4.172 2.429-5.798s3.545-2.44 5.777-2.44c1.342 0 2.729 0.469 4.158 1.408s2.786 2.215 4.288 4.103c1.28-1.597 4.502-5.072 7.419-5.28 3.256-0.232 4.655 0.426 5.954 1.659 1.51 1.433 1.943 3.429 1.973 5.853 0.034 2.8-3.084 7.973-7.727 7.839-1.878-0.054-3.13-0.529-4.638-1.319-1.733-0.907-2.804-1.883-4.77-3.925-0.037-0.039-0.074-0.077-0.112-0.117zM17.898 15.643c0 0 1.661 2.954 4.293 4.341 2.717 1.432 5.877 0.16 6.701-0.808s1.311-2.148 1.237-3.533c-0.084-1.562-1.089-4.439-5.762-4.357-2.925 0.051-5.432 2.853-6.468 4.357zM13.765 16.637c0 0-1.452-2.574-3.613-3.998-1.063-0.7-2.038-0.986-2.709-0.972-1.976 0.041-3.029 0.331-4.090 1.541-0.834 0.951-1.123 2.027-1.123 3.415 0 1.318 0.452 2.417 1.357 3.297s1.938 1.245 3.779 1.191c1.035-0.031 3.711-0.974 6.399-4.474z"></path>
</svg>
