<!-- Generated by IcoMoon.io -->
<svg version="1.1" xmlns="http://www.w3.org/2000/svg" width="27" height="32" viewBox="0 0 27 32">
<title>watermark-mirran</title>
<path fill="#444" d="M24.238 7.359c1.918 2.353 3.069 5.358 3.069 8.629 0 7.542-6.118 13.666-13.653 13.666s-13.653-6.123-13.653-13.666c0-3.26 1.143-6.255 3.050-8.605l6.423 8.213c-0.012 0.129-0.018 0.26-0.018 0.392 0 2.319 1.881 4.203 4.199 4.203s4.199-1.883 4.199-4.203c0-0.147-0.008-0.292-0.022-0.434l6.408-8.194zM4.338 6c1.083-1.013 2.331-1.851 3.698-2.47l3.001 9.171c-0.483 0.386-0.879 0.876-1.155 1.436l-5.545-8.138zM9.854 2.859c0.951-0.276 1.945-0.451 2.97-0.512l0.349 9.466c-0.364 0.042-0.713 0.13-1.043 0.258l-2.276-9.212zM14.493 2.347c0.995 0.060 1.962 0.228 2.889 0.491l-2.223 9.225c-0.314-0.121-0.647-0.205-0.992-0.247l0.326-9.469zM19.261 3.526c1.354 0.612 2.59 1.438 3.666 2.436l-5.532 8.119c-0.284-0.556-0.687-1.041-1.176-1.419l3.042-9.136z"></path>
</svg>
