<!-- Generated by IcoMoon.io -->
<svg version="1.1" xmlns="http://www.w3.org/2000/svg" width="32" height="32" viewBox="0 0 32 32">
<title>watermark-mtg</title>
<path fill="#444" d="M26.225 15.719c0.16 0.516 0.015 0.869-0.436 1.057-0.233 0.097-0.412-0.030-0.645-0.037-0.526-0.017-0.9 0.258-1.293 0.564-0.019 0.015-0.041 0.023-0.066 0.024-0.761 0.024-0.953-0.545-0.976-1.188-0.001-0.025 0.009-0.043 0.031-0.055 0.19-0.103 0.416-0.196 0.533-0.373 0.369-0.556 0.157-1.827 0.084-2.465-0.007-0.056-0.041-0.105-0.091-0.131l-0.433-0.222c-0.024-0.012-0.045-0.009-0.063 0.011-0.275 0.304-0.429 0.663-0.462 1.078-0.005 0.066 0.025 0.092 0.089 0.078 0.457-0.099 0.922 0.362 0.906 0.813-0.002 0.072-0.028 0.216-0.077 0.43-0.005 0.023-0.021 0.043-0.043 0.052-0.366 0.174-0.742 0.344-0.596 0.846 0.069 0.238 0.148 0.464 0.235 0.677 0 0 0 0.001 0 0.001 0.017 0.044-0.005 0.095-0.049 0.113-0 0-0.001 0-0.001 0-0.54 0.207-1.114 0.476-1.542-0.102-0.31-0.418-1.1 0.049-1.495 0.095-0.687 0.079-1.203-0.26-1.764-0.712-0.021-0.017-0.035-0.012-0.041 0.015-0.075 0.364-0.275 0.573-0.599 0.629-0.306 0.053-0.699-0.12-1.008-0.151-0.218-0.022-0.451 0.019-0.698 0.125-0.023 0.009-0.047 0.012-0.071 0.007-0.531-0.1-0.798-0.427-0.801-0.982 0-0.024-0.011-0.032-0.034-0.025-0.14 0.041-0.231 0.104-0.273 0.188-0.492 0.987-0.884 0.858-1.878 0.889-0.026 0.001-0.036 0.014-0.029 0.039 0.094 0.343 0.177 0.887 0.492 1.094 0.329 0.216 0.834 0.537 0.955 0.911 0.219 0.678-0.48 1.132-1.079 0.911-0.717-0.264-1.933-0.418-2.601 0.057-0.094 0.067-0.181 0.104-0.26 0.112-0.78 0.079-1.055-0.584-0.802-1.235 0.008-0.019 0.021-0.034 0.039-0.045 0.216-0.123 0.414-0.27 0.594-0.442 0.019-0.018 0.027-0.040 0.025-0.066-0.070-0.864-0.638-1.971-1.072-2.692-0.025-0.041-0.069-0.065-0.116-0.065-0.062 0-0.117 0.043-0.132 0.103-0.13 0.525-0.427 1.072-0.152 1.614 0.16 0.315 0.304 0.636 0.432 0.965 0.169 0.432-0.022 0.829-0.346 1.116-0.285 0.253-0.569 0.508-0.852 0.765-0.268 0.244-0.477 0.386-0.626 0.425-0.473 0.124-0.867-0.296-0.928-0.763-0.155-1.174-0.516-2.334-0.983-3.447-0.197-0.47-0.444-0.892-0.742-1.265-0.001-0.001-0.002-0.002-0.003-0.003-0.014-0.014-0.037-0.013-0.051 0.001-0.001 0.001-0.002 0.002-0.003 0.003l-0.228 0.294c-0.018 0.023-0.027 0.050-0.027 0.079v0.299c0 0.022-0.006 0.044-0.017 0.063-0.449 0.757-0.855 1.506-0.933 2.394-0.005 0.053 0.024 0.104 0.073 0.126 0.62 0.297 0.596 1.268-0.088 1.473-0.097 0.029-0.251 0.035-0.462 0.016-0.676-0.061-1.084 0.083-1.659 0.422-0.356 0.21-0.789 0.048-0.977-0.301-0.171-0.315-0.142-0.638 0.085-0.968 0.014-0.020 0.033-0.035 0.055-0.044 0.57-0.235 0.915-0.721 1.171-1.279 0.237-0.517 0.557-1.396 0.959-2.636 0.007-0.022 0.022-0.041 0.042-0.054 0.137-0.088 0.16-0.208 0.069-0.361-0.013-0.021-0.012-0.048 0.002-0.069 0.225-0.329 0.39-0.687 0.495-1.073 0.001-0.005 0.002-0.010 0.002-0.016 0-0.029-0.022-0.054-0.051-0.059l-0.784-0.118c-0 0-0-0-0.001-0-0.034-0.006-0.057-0.038-0.052-0.072 0-0 0-0.001 0-0.001 0.052-0.305 0.091-0.667 0.262-0.91 0.228-0.326 0.51-0.458 0.926-0.434 0.418 0.024 0.836 0.033 1.253 0.026 0.387-0.006 0.709-0.073 1.027 0.191 0.174 0.143 0.361 0.368 0.561 0.674 0.366 0.558 0.711 1.128 1.035 1.711 0.007 0.012 0.020 0.020 0.034 0.020 0.009 0 0.018-0.003 0.024-0.009 0.098-0.078 0.21-0.118 0.337-0.119 0.015 0 0.027-0.006 0.037-0.018l0.662-0.833c0.013-0.017 0.020-0.037 0.020-0.058 0-0.034-0.019-0.066-0.049-0.082-0.247-0.135-0.691-0.376-0.763-0.668-0.122-0.491 0.201-1.092 0.784-1.060 0.453 0.025 0.904 0.071 1.352 0.138 0.47 0.071 0.904-0.264 1.253 0.284 0.27 0.426 0.016 1.027 0.264 1.489 0.267 0.496 0.518 1.004 0.752 1.523 0.004 0.009 0.013 0.014 0.023 0.014 0.009 0 0.017-0.004 0.021-0.011 0.145-0.232 0.289-0.468 0.432-0.706 0.214-0.353 0.168-0.683 0.531-0.985 0.001-0.001 0.003-0.002 0.004-0.004 0.012-0.013 0.010-0.034-0.004-0.046-0.001-0.001-0.002-0.002-0.004-0.003l-0.568-0.368c-0.020-0.013-0.034-0.031-0.043-0.053-0.258-0.679 0.036-0.863 0.47-1.266 0.049-0.045 0.1-0.058 0.154-0.037 0.811 0.303 1.572 0.321 2.46 0.278 0.884-0.043 1.253 0.166 1.407 1.065 0.103 0.599 0.182 1.117 0.448 1.679 0.001 0.005 0.005 0.008 0.010 0.008 0.006 0 0.011-0.005 0.011-0.011 0-0.001-0-0.002-0-0.003-0.18-1.339 0.409-2.528 1.785-2.863 0.738-0.18 1.446-0.123 2.124 0.171 0.335 0.146 0.593-0.138 0.862-0.306 0.021-0.013 0.043-0.015 0.067-0.007 0.3 0.097 0.537 0.275 0.711 0.534 0.018 0.027 0.035 0.026 0.049-0.004 0.176-0.371 0.524-0.605 0.938-0.498 0.429 0.11 0.856 0.114 1.283 0.010 0.764-0.185 0.98 0.144 1.255 0.794 0.007 0.017 0.024 0.028 0.042 0.028 0.013 0 0.026-0.006 0.034-0.015 0.947-1.041 2.11-1.111 3.403-0.621 0.019 0.007 0.041 0.001 0.053-0.016l0.226-0.331c0.014-0.021 0.034-0.030 0.060-0.025 0.824 0.141 1.211 0.638 1.159 1.491-0.002 0.032-0.017 0.055-0.048 0.067-0.171 0.070-0.314 0.175-0.43 0.317-0.013 0.016-0.021 0.036-0.022 0.056-0.012 0.22 0.011 0.41-0.119 0.597-0.4 0.575-1.128 0.393-1.401-0.159-0.009-0.019-0.013-0.040-0.010-0.061l0.051-0.389c0-0.002 0-0.003 0-0.005 0-0.020-0.015-0.036-0.035-0.038-0.709-0.059-1.045 0.256-0.928 0.973 0.209 1.289 2.028 0.757 2.839 0.527 0.82-0.233 1.14 0.833 0.445 1.239-1.575 0.917-3.067 1.33-4.719 0.35-0.256-0.152-0.474-0.385-0.652-0.7-0.037-0.065-0.044-0.062-0.022 0.010zM25.829 12.986c-0.082 0.759-0.192 1.592 0 2.341 0.006 0.025 0.023 0.047 0.046 0.058l0.205 0.104c0.035 0.018 0.045 0.009 0.030-0.028-0.37-0.87-0.401-1.954 0.101-2.782 0.035-0.057 0.026-0.065-0.025-0.022l-0.32 0.261c-0.021 0.017-0.034 0.040-0.037 0.068zM30.118 11.685l-0.228 0.31c-0.015 0.021-0.043 0.030-0.067 0.019-0.976-0.4-1.931-0.528-2.846 0.103-1.267 0.872-1.296 2.999-0.181 4.010 0.262 0.238 0.633 0.377 0.976 0.495 1.349 0.465 2.614 0.006 3.776-0.717 0.498-0.311 0.29-1.108-0.338-0.922-1.012 0.299-2.907 0.786-3.069-0.843-0.037-0.376 0.175-0.888 0.608-0.953 0.216-0.032 0.438-0.034 0.664-0.005 0.031 0.004 0.045 0.022 0.043 0.053l-0.028 0.477c-0.002 0.023 0.002 0.045 0.011 0.066 0.25 0.588 1.145 0.457 1.147-0.189 0.002-0.329 0.164-0.556 0.488-0.682 0.018-0.007 0.030-0.024 0.032-0.043 0.048-0.67-0.247-1.075-0.887-1.216-0.041-0.009-0.075 0.004-0.1 0.038zM26.81 15.439c-1.044-1.769 0.202-3.853 2.329-3.209 0.394 0.119 0.874 0.42 1.178-0.070 0.013-0.021 0.040-0.028 0.061-0.016 0.171 0.089 0.271 0.23 0.3 0.424 0.004 0.024-0.005 0.043-0.025 0.057-0.318 0.219-0.48 0.522-0.485 0.91-0.001 0.056-0.023 0.101-0.068 0.135-0.081 0.062-0.153 0.062-0.215-0.002-0.018-0.019-0.024-0.041-0.018-0.067 0.083-0.335 0.026-0.859-0.423-0.876-0.489-0.018-0.968-0.077-1.332 0.326-0.319 0.352-0.45 0.745-0.393 1.177 0.256 1.931 2.341 1.569 3.617 1.164 0.011-0.003 0.022-0.003 0.033 0.001 0.027 0.009 0.042 0.039 0.032 0.066-0.004 0.011-0.011 0.020-0.021 0.026-0.86 0.57-1.934 1.033-3.003 0.829-0.599-0.114-1.253-0.343-1.569-0.876zM11.87 15.44c-0.271-0.647-0.578-1.278-0.92-1.895-0.154-0.278-0.109-0.657-0.122-1.028-0.014-0.426-0.335-0.763-0.782-0.64-0.147 0.041-0.239 0.065-0.399 0.037-0.329-0.055-1.445-0.232-1.707-0.068-0.329 0.206-0.514 0.805-0.132 1.036 0.186 0.111 0.379 0.239 0.579 0.384 0.072 0.052 0.092 0.153 0.044 0.229-0.171 0.272-0.6 0.653-0.663 0.956-0.005 0.023-0.019 0.034-0.043 0.031-0.219-0.029-0.396 0.040-0.531 0.207-0.002 0.002-0.003 0.004-0.005 0.005-0.016 0.013-0.040 0.011-0.053-0.005-0.002-0.002-0.003-0.004-0.004-0.006-0.346-0.604-0.707-1.198-1.081-1.784-0.281-0.44-0.636-0.928-1.148-0.893-0.487 0.034-0.976 0.034-1.465-0.001-0.255-0.018-0.437-0.006-0.546 0.036-0.4 0.153-0.555 0.607-0.59 1.021-0.002 0.023 0.009 0.037 0.032 0.042l0.707 0.126c0.022 0.004 0.042 0.016 0.055 0.035 0.177 0.245-0.262 1.038-0.407 1.268-0.012 0.020-0.016 0.043-0.010 0.066l0.058 0.23c0.007 0.028-0.003 0.058-0.025 0.076-0.114 0.098-0.18 0.176-0.198 0.232-0.344 1.065-0.682 1.974-1.015 2.729-0.21 0.477-0.55 0.854-1.018 1.129-0.703 0.415-0.097 1.518 0.608 1.030 0.591-0.409 1.212-0.416 1.905-0.372 0.706 0.046 0.779-1.073 0.115-1.231-0.024-0.006-0.037-0.021-0.038-0.046-0.042-0.905 0.401-1.779 0.867-2.543 0.1-0.163 0.083-0.31 0.023-0.477-0.010-0.026-0.003-0.047 0.020-0.063 0.175-0.118 0.302-0.275 0.382-0.472 0.011-0.027 0.028-0.032 0.052-0.016 0.367 0.259 0.648 0.793 0.832 1.194 0.536 1.164 0.909 2.377 1.119 3.638 0.041 0.25 0.096 0.422 0.162 0.515 0.21 0.292 0.59 0.308 0.862 0.065 0.39-0.349 0.779-0.699 1.167-1.050 0.251-0.227 0.374-0.553 0.246-0.887-0.141-0.364-0.671-1.286-0.575-1.597 0.123-0.404 0.228-0.813 0.315-1.227 0.004-0.019 0.016-0.030 0.035-0.032l0.356-0.046c0.022-0.003 0.040 0.005 0.052 0.024 0.429 0.68 0.778 1.437 1.048 2.268 0.080 0.248 0.123 0.48 0.129 0.696 0.001 0.028-0.009 0.052-0.028 0.072-0.18 0.183-0.38 0.339-0.6 0.468-0.020 0.012-0.035 0.030-0.045 0.052-0.161 0.386-0.098 0.676 0.191 0.871 0.459 0.311 0.837-0.195 1.294-0.266 0.733-0.112 1.443-0.044 2.128 0.204 0.606 0.219 1.126-0.412 0.695-0.93-0.288-0.346-0.972-0.593-1.097-1.030-0.094-0.33-0.192-0.658-0.293-0.983-0.008-0.024 0.001-0.036 0.026-0.035 0.244 0.007 0.57 0.008 0.98 0.004 0.508-0.005 0.736-0.269 0.947-0.715 0.132-0.281 0.472-0.266 0.45-0.602-0.002-0.036 0.015-0.056 0.051-0.059l0.094-0.007c0.027-0.002 0.042 0.010 0.045 0.038 0.036 0.473-0.077 1.070 0.519 1.244 0.080 0.023 0.184 0.017 0.31-0.018 0.416-0.117 0.816-0.059 1.233 0.053 0.485 0.131 0.835-0.123 0.798-0.658-0-0.002-0-0.005-0-0.007 0-0.052 0.043-0.095 0.095-0.095 0.026 0 0.050 0.010 0.068 0.029 0.42 0.43 1.054 0.87 1.691 0.839 0.092-0.005 0.277-0.052 0.557-0.142 0.251-0.081 0.51-0.129 0.777-0.143 0.305-0.016 0.478 0.403 0.764 0.503 0.278 0.097 0.635-0.079 0.891-0.175 0.020-0.007 0.033-0.026 0.033-0.047 0-0.007-0.002-0.014-0.004-0.020-0.321-0.715-0.415-1.169 0.397-1.557 0.023-0.011 0.038-0.029 0.046-0.053 0.144-0.435 0.040-0.741-0.313-0.92-0.21-0.106-0.475-0.058-0.703-0.031-0.003 0-0.007 0.001-0.010 0.001-0.056 0-0.102-0.046-0.102-0.102 0-0.042 0.026-0.080 0.065-0.095 0.085-0.030 0.135-0.132 0.147-0.226 0.048-0.392 0.204-0.734 0.467-1.027 0.016-0.018 0.024-0.040 0.024-0.064-0.007-0.483-0.234-0.803-0.68-0.958-0.026-0.009-0.051-0.006-0.074 0.011-0.263 0.189-0.549 0.424-0.894 0.275-0.679-0.292-1.376-0.35-2.091-0.174-1.51 0.373-1.915 1.917-1.509 3.26 0.006 0.017 0.005 0.035-0.001 0.052-0.015 0.040-0.061 0.060-0.101 0.045-0.017-0.006-0.031-0.018-0.040-0.033-0.4-0.655-0.649-1.366-0.748-2.132-0.122-0.951-0.4-1.116-1.366-1.052-0.808 0.052-1.596 0.001-2.358-0.281-0.024-0.008-0.046-0.005-0.067 0.010-0.266 0.195-0.505 0.407-0.48 0.772 0.025 0.362 0.504 0.564 0.784 0.697 0.032 0.015 0.053 0.048 0.053 0.084 0 0.034-0.019 0.066-0.049 0.082-0.501 0.268-0.38 0.663-0.628 1.024-0.225 0.329-0.422 0.669-0.59 1.020-0.004 0.008-0.012 0.012-0.020 0.012s-0.017-0.005-0.020-0.013zM14.539 13.734l0.261 0.655c0.004 0.010 0.006 0.021 0.006 0.032 0 0.049-0.040 0.090-0.090 0.090-0.024 0-0.046-0.009-0.063-0.026-0.137-0.135-0.303-0.201-0.498-0.197h-0c-0.021 0-0.039-0.018-0.039-0.039 0-0.003 0-0.006 0.001-0.009 0.055-0.225 0.020-0.433-0.105-0.626-0.003-0.005-0.005-0.012-0.005-0.018 0-0.018 0.015-0.034 0.034-0.034 0.003 0 0.007 0.001 0.010 0.001l0.448 0.134c0.018 0.006 0.032 0.019 0.040 0.036zM14.335 13.8c-0.009-0.007-0.015-0.006-0.019 0.005-0.082 0.227-0.019 0.355 0.191 0.384 0.027 0.004 0.038-0.008 0.034-0.034-0.026-0.146-0.095-0.264-0.205-0.355zM13.23 15.25c0.005 0.032 0.034 0.056 0.066 0.056 0.018 0 0.035-0.007 0.047-0.019 0.286-0.279 1.222-1.152 1.069 0.089-0.003 0.024-0.015 0.045-0.034 0.060-0.105 0.080-0.213 0.138-0.283 0.253-0.103 0.168-0.244 0.515-0.415 0.602-0.214 0.109-0.706 0.061-0.955 0.059-1.057-0.010 0.117-1.634 0.267-1.938 0.079-0.159 0.099-0.554 0.347-0.606 0.12-0.025 0.227-0.001 0.322 0.073 0.020 0.016 0.033 0.037 0.038 0.062 0.097 0.469-0.538 0.932-0.47 1.31zM2.76 18.751l0.329 0.129c0.007 0.003 0.013 0.008 0.017 0.015 0.063 0.107 0.059 0.21-0.014 0.308-0.020 0.027-0.053 0.041-0.087 0.035-0.808-0.137-1.547 0.018-2.217 0.463-0.024 0.016-0.056 0.015-0.079-0.003-0.094-0.073-0.119-0.166-0.075-0.278 0.007-0.019 0.020-0.034 0.039-0.043 0.644-0.326 1.103-0.997 1.364-1.651 0.319-0.799 0.613-1.602 0.882-2.407 0.016-0.048 0.064-0.077 0.115-0.070 0.209 0.030 0.386 0.121 0.531 0.272 0.018 0.019 0.021 0.047 0.009 0.070-0.426 0.763-1.224 2.208-0.852 3.122 0.007 0.017 0.021 0.030 0.037 0.037zM19.735 13.407c0.1-0.131 0.161-0.213 0.34-0.221 0.342-0.015 0.672 0.036 0.99 0.154 0.050 0.018 0.081 0.069 0.076 0.122l-0.040 0.38c-0.004 0.034 0.008 0.062 0.035 0.083l0.218 0.171c0.024 0.020 0.039 0.049 0.039 0.081 0 0.057-0.047 0.103-0.103 0.103-0.008 0-0.016-0.001-0.024-0.003-0.79-0.197-0.889 0.476-0.992 1.049-0.005 0.028-0.031 0.048-0.060 0.046-0.367-0.030-0.602-0.234-0.725-0.584-0.169-0.485-0.087-0.946 0.245-1.382zM19.922 13.445c-0.244 0.27-0.36 0.568-0.347 0.894 0.015 0.389 0.111 0.728 0.511 0.852 0.027 0.008 0.043-0.002 0.049-0.029 0.12-0.555 0.207-1.035 0.87-1.090 0.024-0.002 0.028-0.012 0.010-0.029l-0.076-0.076c-0.020-0.019-0.028-0.043-0.024-0.071l0.049-0.376c0.004-0.023-0.006-0.039-0.028-0.047-0.243-0.087-0.817-0.248-1.015-0.028zM3.153 14.602c0.369-0.631 0.888-1.683-0.293-1.866-0.020-0.003-0.034-0.020-0.034-0.040 0-0.005 0.001-0.010 0.003-0.015 0.071-0.176 0.202-0.28 0.407-0.257 0.607 0.065 1.195 0.072 1.764 0.020 0.078-0.007 0.154 0.022 0.208 0.077 0.662 0.684 1.129 1.661 1.795 2.795 0.227 0.386 0.492-0.193 0.543-0.349 0.012-0.039 0.048-0.065 0.089-0.065 0.013 0 0.026 0.003 0.038 0.008 0.379 0.171 0.507 0.452 0.386 0.843-0.205 0.66-0.387 1.086-0.115 1.658 0.165 0.348 0.317 0.68 0.456 0.995 0.060 0.137 0.026 0.298-0.085 0.397l-1.233 1.107c-0.005 0.004-0.010 0.008-0.016 0.012-0.059 0.039-0.139 0.022-0.178-0.037-0.004-0.006-0.007-0.011-0.010-0.018-0.075-0.165-0.081-0.4-0.105-0.525-0.24-1.285-1.067-4.648-2.486-5.105-0.063-0.020-0.13 0.012-0.154 0.073-0.058 0.145-0.216 0.512-0.362 0.585-0.186 0.094-0.497-0.086-0.612-0.227-0.015-0.018-0.017-0.045-0.005-0.066zM21.544 13.196c-0.183-0.43-1.277-0.487-1.661-0.446-0.088 0.009-0.193 0.074-0.314 0.194-0.542 0.538-0.704 1.186-0.486 1.942 0.146 0.509 0.482 0.813 1.006 0.911 0.4 0.076 1.747 0.094 1.284-0.742-0.009-0.016-0.023-0.027-0.040-0.031l-0.459-0.118c-0.020-0.005-0.030-0.018-0.031-0.038-0.006-0.132 0.080-0.185 0.207-0.179 0.361 0.018 0.872 0.004 1.533-0.044 0.155-0.011 0.228 0.067 0.221 0.235-0.001 0.022-0.011 0.039-0.030 0.051-0.681 0.422-0.846 0.854-0.596 1.631 0.013 0.039-0.001 0.060-0.043 0.061l-0.215 0.005c-0.019 0-0.037-0.009-0.048-0.025-0.501-0.775-1.31-0.449-2.020-0.236-0.227 0.068-0.467 0.036-0.721-0.097-1.117-0.581-1.531-1.496-1.244-2.744 0.302-1.313 1.878-1.514 2.942-1.113 0.477 0.18 0.816 0.201 1.203-0.135 0.019-0.016 0.043-0.025 0.067-0.025 0.039 0 0.075 0.022 0.092 0.057l0.124 0.254c0.013 0.028 0.010 0.055-0.009 0.079-0.249 0.304-0.4 0.652-0.452 1.045-0.005 0.033-0.023 0.050-0.057 0.051l-0.185 0.007c-0 0-0.001 0-0.001 0-0.028 0-0.052-0.023-0.052-0.052 0-0.005 0.001-0.010 0.002-0.014 0.050-0.174 0.044-0.335-0.019-0.483zM12.311 17.977c0.142 0.499 0.835 0.805 1.198 1.178 0.018 0.018 0.026 0.044 0.021 0.070-0.036 0.182-0.183 0.171-0.328 0.118-0.884-0.321-2.293-0.459-3.112 0.129-0.025 0.017-0.054 0.027-0.084 0.027-0.063 0-0.12-0.042-0.138-0.103-0.065-0.213 0.39-0.462 0.53-0.593 0.69-0.649-0.713-3.173-1.104-3.758-0.084-0.126-0.215-0.19-0.394-0.192-0.022-0-0.044 0.008-0.060 0.025-0.225 0.24-0.553-0.084-0.631-0.294-0.017-0.045-0.007-0.096 0.026-0.131 0.22-0.234 0.416-0.487 0.59-0.759 0.224-0.349-0.006-0.68-0.304-0.89-0.175-0.123-0.5-0.25-0.474-0.439 0.013-0.094 0.098-0.164 0.193-0.158 0.464 0.028 0.934 0.074 1.409 0.138 0.195 0.026 0.361-0.010 0.545-0.059 0.006-0.002 0.013-0.003 0.019-0.004 0.082-0.011 0.159 0.048 0.17 0.13 0.001 0.006 0.001 0.013 0.001 0.020 0.002 0.407-0.003 0.98 0.201 1.351 0.733 1.332 1.309 2.73 1.726 4.194zM14.953 13.574c-0.061-0.128-0.183-0.29-0.339-0.323-0.588-0.128-1.146-0.336-1.675-0.624-0.182-0.1-0.216-0.256-0.035-0.376 0.020-0.013 0.041-0.017 0.064-0.010 0.879 0.239 1.758 0.304 2.638 0.198 0.412-0.050 0.501 0.173 0.563 0.537 0.067 0.391 0.113 0.813 0.233 1.173 0.228 0.685 0.553 1.323 0.975 1.913 0.089 0.125 0.062 0.295-0.131 0.253-0.558-0.121-0.897-0.214-1.516-0.064-0.222 0.054-0.27-0.165-0.268-0.343 0.011-0.816-0.158-1.593-0.509-2.333zM23.395 11.784c-0.382 0.126-0.519 0.537-0.412 0.909 0.006 0.019 0.018 0.034 0.035 0.045l0.542 0.312c0.025 0.014 0.039 0.035 0.043 0.064 0.103 0.731 0.321 2.161-0.16 2.774-0.105 0.134-0.296 0.195-0.442 0.297-0.021 0.015-0.031 0.040-0.028 0.065 0.077 0.498 0.141 0.905 0.758 0.914 0.025 0 0.047-0.008 0.067-0.023 0.489-0.397 0.938-0.65 1.585-0.527 0.652 0.123 0.903-0.411 0.634-0.964-0.011-0.022-0.028-0.038-0.052-0.046-0.156-0.053-0.271-0.12-0.311-0.296-0.183-0.808-0.056-1.608 0.011-2.4 0.002-0.027 0.016-0.052 0.037-0.069l0.412-0.332c0.017-0.014 0.021-0.031 0.013-0.051-0.214-0.525-0.388-0.822-1.012-0.674-0.441 0.104-0.883 0.109-1.328 0.014-0.173-0.037-0.304-0.041-0.393-0.011zM23.415 12.301c0.055-0.084 0.132-0.114 0.232-0.092 0.546 0.125 1.087 0.116 1.624-0.025 0.166-0.043 0.282-0.016 0.324 0.158 0.006 0.022-0.004 0.046-0.023 0.058-0.225 0.148-0.343 0.328-0.353 0.542-0.034 0.724-0.314 2.518 0.358 2.948 0.111 0.071 0.179 0.174 0.083 0.284-0.018 0.020-0.040 0.028-0.067 0.022-0.72-0.152-1.353 0.008-1.899 0.48-0.038 0.033-0.094 0.035-0.135 0.005-0.071-0.052-0.107-0.121-0.105-0.209 0-0.024 0.010-0.042 0.030-0.055 0.987-0.648 0.686-2.294 0.581-3.263-0.035-0.326-0.311-0.553-0.591-0.668-0.047-0.019-0.079-0.066-0.079-0.117 0-0.024 0.007-0.048 0.020-0.069zM15.019 17.937c-0.076 0.037-0.124 0.1-0.145 0.187-0.006 0.022-0.026 0.038-0.049 0.038h-0.1c-0.001 0-0.002 0-0.003 0-0.031-0.001-0.055-0.028-0.054-0.059 0-0.001 0-0.002 0-0.002l0.036-0.405c0.001-0.006 0.002-0.012 0.004-0.017 0.013-0.040 0.057-0.063 0.097-0.049 0.006 0.002 0.011 0.005 0.017 0.008 0.212 0.13 0.64 0.080 0.885 0.079 0.013 0 0.026-0.004 0.037-0.011l0.077-0.052c0.018-0.012 0.040-0.019 0.062-0.019 0.058 0 0.107 0.046 0.111 0.104l0.022 0.379c0 0.001 0 0.002 0 0.003 0 0.024-0.020 0.044-0.044 0.044-0 0-0.001 0-0.001 0l-0.129-0.002c-0.028-0.001-0.043-0.015-0.045-0.043-0.005-0.095-0.055-0.153-0.147-0.174-0.001-0-0.002-0-0.004-0.001-0.019-0.002-0.036 0.011-0.038 0.029-0 0.001-0 0.003-0 0.004l-0.002 1.085c0 0.025 0.011 0.044 0.034 0.056 0.011 0.006 0.020 0.009 0.026 0.010 0.026 0.004 0.049 0.017 0.066 0.037 0.037 0.045 0.030 0.113-0.015 0.151-0.020 0.017-0.046 0.026-0.072 0.025h-0.623c-0.029 0-0.045-0.014-0.049-0.043l-0.012-0.098c-0.004-0.030 0.007-0.052 0.034-0.067l0.047-0.025c0.027-0.015 0.041-0.038 0.041-0.070v-1.065c0-0.003-0-0.006-0.001-0.010-0.005-0.023-0.029-0.037-0.052-0.032-0.003 0.001-0.006 0.002-0.009 0.003zM20.509 18.983l0.021-0.394c0.002-0.034-0.015-0.051-0.049-0.051h-0.169c-0.032 0-0.049-0.016-0.049-0.049v-0.119c0-0.027 0.013-0.040 0.040-0.040l0.634-0.002c0.001 0 0.001 0 0.002 0 0.042 0.001 0.076 0.036 0.075 0.078 0 0.001-0 0.001-0 0.002l-0.032 0.874c-0.001 0.026-0.021 0.047-0.046 0.049-0.086 0.007-0.139-0.033-0.16-0.122-0.004-0.014-0.017-0.024-0.031-0.024-0.006 0-0.012 0.002-0.017 0.005-0.634 0.394-1.241 0.082-1.221-0.65 0.018-0.612 0.631-1.055 1.221-0.775 0.048 0.023 0.089 0.032 0.12 0.028 0.018-0.003 0.037-0 0.054 0.007 0.050 0.021 0.074 0.078 0.054 0.125-0.007 0.016-0.019 0.030-0.034 0.041l-0.367 0.245c-0.050 0.034-0.119 0.021-0.154-0.029-0.031-0.045-0.034-0.093-0.008-0.144 0.009-0.018 0.005-0.041-0.010-0.055-0.412-0.402-0.613 1.057 0.085 1.036 0.024-0.001 0.037-0.013 0.039-0.037zM16.718 18.264c0.782-0.519 0.708 0.375 0.7 0.787-0.001 0.024 0.009 0.048 0.027 0.065 0.047 0.046 0.069 0.101 0.065 0.165-0.001 0.030-0.026 0.054-0.056 0.055l-0.492 0.010c-0.031 0.001-0.051-0.014-0.060-0.044-0.018-0.062-0.005-0.118 0.040-0.167 0.019-0.020 0.028-0.044 0.028-0.072l-0.001-0.556c0-0.024-0.014-0.045-0.036-0.055-0.077-0.034-0.15-0.023-0.219 0.034-0.016 0.013-0.025 0.030-0.025 0.051v0.543c0 0.021 0.008 0.041 0.022 0.055 0.043 0.044 0.061 0.098 0.052 0.161-0.004 0.025-0.019 0.038-0.044 0.039l-0.51 0.012c-0.033 0.001-0.046-0.015-0.040-0.048 0.081-0.396 0.1-0.797 0.057-1.204-0.003-0.029-0.016-0.052-0.040-0.068-0.035-0.024-0.049-0.059-0.040-0.105 0.006-0.029 0.027-0.053 0.055-0.062l0.5-0.166c0.028-0.009 0.047 0 0.057 0.028 0.019 0.058 0.006 0.105-0.038 0.139-0.018 0.014-0.027 0.032-0.028 0.055l-0.013 0.327c-0.001 0.032 0.012 0.039 0.038 0.022zM24.043 18.258c0.738-0.519 0.726 0.362 0.706 0.81-0.001 0.027 0.009 0.050 0.031 0.067 0.049 0.038 0.064 0.091 0.045 0.158-0.009 0.031-0.030 0.047-0.063 0.047h-0.507c-0.024 0-0.046-0.017-0.050-0.041-0.013-0.063 0.003-0.116 0.048-0.159 0.022-0.021 0.033-0.047 0.033-0.077l-0.001-0.531v-0c0-0.055-0.045-0.1-0.1-0.1-0.009 0-0.019 0.001-0.028 0.004l-0.105 0.030c-0.028 0.008-0.048 0.035-0.048 0.064v0.545c0 0.009 0.003 0.018 0.008 0.025l0.079 0.109c0.063 0.088 0.041 0.132-0.067 0.132h-0.497c-0.028 0-0.053-0.019-0.061-0.046-0.021-0.069-0.006-0.123 0.044-0.162 0.025-0.020 0.038-0.046 0.039-0.079l0.009-0.948c0-0.024-0.009-0.045-0.028-0.061l-0.060-0.052c-0.016-0.014-0.026-0.035-0.026-0.057 0-0.033 0.021-0.062 0.052-0.072l0.531-0.171c0.005-0.002 0.010-0.002 0.015-0.002 0.022 0 0.041 0.014 0.048 0.035 0.020 0.064 0.002 0.113-0.052 0.146-0.021 0.014-0.034 0.037-0.034 0.062v0.302c0 0.031 0.013 0.037 0.038 0.019zM27.589 17.772c0.128-0.039 0.255 0.003 0.282 0.093s-0.055 0.195-0.183 0.234c-0.128 0.039-0.255-0.003-0.282-0.093s0.055-0.195 0.183-0.234zM23.175 19.081h0.12c0.037 0 0.068 0.031 0.068 0.068 0 0.017-0.006 0.033-0.018 0.046-0.165 0.181-0.665 0.303-0.668-0.091-0.002-0.219-0.002-0.439-0.002-0.659 0.001-0.025-0.010-0.043-0.033-0.054l-0.064-0.031c-0.027-0.013-0.036-0.034-0.027-0.063 0.037-0.12 0.311-0.245 0.406-0.4 0.016-0.026 0.044-0.041 0.074-0.041 0.047 0 0.085 0.037 0.087 0.084l0.007 0.189c0.001 0.020 0.017 0.036 0.037 0.036h0.108c0.025 0 0.039 0.013 0.040 0.038 0.009 0.125-0.043 0.189-0.155 0.191-0.022 0.001-0.033 0.012-0.033 0.034l0.001 0.605c0 0.027 0.022 0.049 0.049 0.049zM30.331 19.133c0.184-0.004 0.322 0.072 0.412 0.227 0.014 0.024 0.018 0.052 0.011 0.079-0.108 0.424-0.988 0.442-0.886 0.015 0.006-0.023 0.018-0.043 0.036-0.059l0.064-0.055c0.007-0.007 0.012-0.017 0.012-0.027 0-0.020-0.017-0.037-0.037-0.037-0.004 0-0.009 0.001-0.012 0.002-0.118 0.047-0.211 0.019-0.279-0.083-0.020-0.030-0.013-0.050 0.022-0.061l0.287-0.085c0.040-0.011 0.041-0.025 0.002-0.042-0.682-0.291-0.19-1.005 0.425-0.878 0.025 0.005 0.042-0.004 0.049-0.029 0.040-0.133 0.133-0.191 0.281-0.174 0.020 0.002 0.035 0.018 0.037 0.037 0.009 0.098-0.027 0.17-0.108 0.215-0.011 0.006-0.017 0.017-0.017 0.029 0 0.008 0.003 0.015 0.008 0.021 0.373 0.436 0.057 0.68-0.317 0.853-0.010 0.004-0.016 0.014-0.016 0.025 0 0.015 0.012 0.027 0.027 0.027 0 0 0.001 0 0.001 0zM30.305 18.873c0.070-0.020 0.090-0.167 0.045-0.324s-0.141-0.27-0.211-0.25c-0.070 0.020-0.090 0.167-0.045 0.324s0.141 0.27 0.211 0.25zM30.236 19.406c-0.049 0.074-0.043 0.136 0.016 0.185 0.009 0.007 0.020 0.011 0.031 0.011 0.027 0 0.050-0.023 0.050-0.050 0-0.004-0.001-0.008-0.001-0.012l-0.030-0.123c-0.004-0.016-0.019-0.028-0.036-0.028-0.012 0-0.024 0.006-0.031 0.017zM21.853 18.501c-0.005-0.059-0.038-0.097-0.099-0.114-0.022-0.006-0.044-0.002-0.063 0.009l-0.201 0.127c-0.016 0.010-0.034 0.015-0.053 0.015-0.054 0-0.099-0.045-0.099-0.099 0-0.013 0.002-0.025 0.007-0.037l0.115-0.288c0.011-0.027 0.042-0.040 0.069-0.029l0.122 0.049c0.019 0.007 0.038 0.008 0.058 0.003 0.227-0.065 0.418-0.007 0.57 0.174 0.014 0.016 0.022 0.037 0.022 0.058l0.002 0.689c0 0.022 0.008 0.042 0.023 0.058 0.045 0.047 0.069 0.103 0.072 0.167 0.001 0.020-0.013 0.038-0.032 0.043-0.169 0.043-0.329 0.031-0.482-0.035-0.029-0.012-0.057-0.011-0.085 0.003-0.69 0.359-0.967-0.796 0.016-0.754 0.001 0 0.002 0 0.002 0 0.020-0 0.036-0.018 0.036-0.038-0-0.001-0-0.002-0-0.002zM21.838 19.042l0.023-0.275c0-0.001 0-0.002 0-0.003 0-0.019-0.015-0.034-0.033-0.036l-0.017-0.002c-0.089-0.007-0.169 0.061-0.177 0.151l-0.002 0.018c-0.007 0.090 0.060 0.17 0.149 0.178l0.017 0.002c0.001 0 0.002 0 0.003 0 0.019 0 0.034-0.015 0.036-0.033zM25.502 18.905c0.14 0.179 0.294 0.198 0.462 0.056 0.016-0.013 0.035-0.021 0.056-0.021 0.049-0.001 0.090 0.038 0.091 0.088 0.001 0.020-0.006 0.040-0.018 0.057-0.361 0.476-1.139 0.334-1.125-0.339 0.014-0.694 0.863-0.876 1.123-0.221 0.024 0.061 0.006 0.104-0.056 0.128l-0.516 0.198c-0.030 0.012-0.036 0.031-0.016 0.056zM25.435 18.644l0.183-0.058c0.022-0.007 0.035-0.031 0.028-0.053l-0.003-0.010c-0.038-0.118-0.126-0.197-0.196-0.175l-0 0-0.010 0.003c-0.070 0.022-0.096 0.138-0.058 0.257l0.003 0.010c0.006 0.018 0.022 0.030 0.041 0.030 0.005 0 0.009-0.001 0.013-0.002zM18.184 18.916c0.143 0.169 0.298 0.182 0.467 0.039 0.029-0.025 0.072-0.024 0.099 0.002 0.047 0.044 0.051 0.097 0.012 0.158-0.036 0.056-0.111 0.113-0.224 0.169-0.48 0.239-0.929-0.067-0.879-0.608 0.061-0.659 0.832-0.751 1.107-0.168 0.001 0.001 0.001 0.002 0.002 0.003 0.023 0.054-0.002 0.117-0.056 0.14-0.001 0.001-0.002 0.001-0.004 0.002l-0.507 0.195c-0.037 0.014-0.043 0.037-0.017 0.067zM18.092 18.644l0.224-0.064c0.009-0.003 0.014-0.012 0.011-0.020l-0.006-0.022c-0.036-0.125-0.123-0.212-0.193-0.192l-0.001 0c-0.070 0.020-0.099 0.14-0.063 0.265l0 0 0.006 0.022c0.002 0.007 0.008 0.012 0.016 0.012 0.002 0 0.003-0 0.005-0.001zM26.797 18.59l-0.007 0.49c0 0.013 0.013 0.031 0.040 0.055 0.011 0.009 0.025 0.016 0.043 0.019 0.044 0.010 0.075 0.049 0.075 0.094 0 0.052-0.042 0.095-0.094 0.096l-0.543-0.006c-0.023-0.001-0.037-0.012-0.042-0.034-0.015-0.074 0-0.138 0.047-0.191 0.017-0.019 0.026-0.043 0.026-0.069v-0.47c0-0.022-0.017-0.041-0.040-0.043-0.062-0.005-0.097-0.030-0.105-0.076-0.006-0.032 0.007-0.067 0.038-0.106 0.059-0.074 0.12-0.147 0.181-0.218 0.018-0.020 0.049-0.023 0.070-0.007l0.197 0.153c0.022 0.017 0.041 0.014 0.056-0.008 0.106-0.156 0.265-0.197 0.479-0.123 0.030 0.010 0.041 0.031 0.031 0.061l-0.101 0.308c-0.007 0.021-0.028 0.035-0.050 0.034l-0.242-0.016c-0.039-0.002-0.059 0.016-0.060 0.055zM27.41 19.042v-0.583c0-0.021-0.009-0.038-0.026-0.051l-0.037-0.028c-0.006-0.005-0.012-0.011-0.017-0.017-0.023-0.033-0.015-0.080 0.018-0.103 0.007-0.005 0.014-0.008 0.022-0.010l0.443-0.128c0.031-0.009 0.046 0.002 0.046 0.034v0.921c0 0.020 0.008 0.037 0.023 0.050 0.051 0.044 0.067 0.102 0.046 0.174-0.009 0.030-0.029 0.045-0.061 0.044l-0.504-0.013c-0.030-0.001-0.054-0.025-0.054-0.055 0-0.008 0.002-0.016 0.005-0.024l0.091-0.192c0.003-0.006 0.005-0.013 0.005-0.019zM28.722 18.275c0.177-0.152 0.448-0.237 0.609-0.053 0.136 0.156 0.081 0.629 0.081 0.843-0 0.025 0.011 0.048 0.030 0.063 0.058 0.046 0.075 0.105 0.049 0.178-0.008 0.023-0.030 0.039-0.055 0.038l-0.511-0.008c-0.051-0.001-0.066-0.025-0.046-0.072l0.082-0.192c0.002-0.004 0.002-0.008 0.002-0.013v-0.578c0-0.002-0-0.004-0-0.006-0.003-0.029-0.030-0.050-0.058-0.047-0.002 0-0.004 0.001-0.006 0.001l-0.177 0.042c-0.025 0.006-0.038 0.022-0.038 0.049v0.557c0 0.022 0.008 0.040 0.025 0.055 0.058 0.050 0.070 0.11 0.036 0.18-0.011 0.023-0.030 0.035-0.056 0.034l-0.501-0.014c-0.054-0.002-0.071-0.028-0.050-0.077l0.065-0.159c0.009-0.023 0.014-0.047 0.014-0.071v-0.561c0-0.022-0.010-0.042-0.026-0.056-0.031-0.026-0.047-0.057-0.047-0.094 0-0.035 0.023-0.065 0.057-0.075l0.427-0.118c0.004-0.001 0.008-0.002 0.013-0.002 0.024 0 0.044 0.020 0.044 0.044v0.093c0 0.034 0.013 0.040 0.040 0.018z"></path>
</svg>
