<!-- Generated by IcoMoon.io -->
<svg version="1.1" xmlns="http://www.w3.org/2000/svg" width="32" height="32" viewBox="0 0 32 32">
<title>watermark-corocoro</title>
<path fill="#444" d="M23.707 12.657c0.053-0.221 0.055-0.481 0.129-0.672 0.256-0.662 0.708-1.050 1.357-1.163 0.241-0.042 0.611-0.024 1.113 0.054 1.264 0.198 2.528 0.394 3.792 0.589 0.967 0.148 1.702 0.478 1.881 1.503 0.041 0.234 0.025 0.578-0.046 1.032-0.231 1.477-0.465 2.953-0.704 4.428-0.029 0.185-0.056 0.34-0.122 0.52-0.286 0.79-0.583 1.575-0.889 2.357-0.010 0.026-0.029 0.039-0.057 0.039-3.457 0-6.912 0.003-10.365 0.011-0.268 0-0.507-0.077-0.718-0.231-0.022-0.016-0.047-0.022-0.074-0.016-0.554 0.113-1.121 0.266-1.669 0.062-0.633-0.236-1.078-0.914-1.23-1.562-0.003-0.012-0.014-0.020-0.026-0.020s-0.025 0.009-0.027 0.022c-0.106 0.799-0.446 1.452-1.283 1.623-0.23 0.047-0.619 0.026-1.166-0.062-1.185-0.192-2.37-0.384-3.554-0.576-0.445-0.072-0.809-0.208-1.090-0.409-0.023-0.016-0.046-0.018-0.071-0.004-0.18 0.097-0.308 0.153-0.383 0.168-1.318 0.256-2.637 0.507-3.956 0.755-0.811 0.152-1.29 0.066-1.878-0.484-0.618-0.577-1.123-1.146-1.516-1.707-0.541-0.774-0.252-1.831 0.464-2.384 0.027-0.020 0.026-0.040-0.003-0.058-0.593-0.352-0.853-0.768-1.096-1.438-0.335-0.92-0.821-1.754-0.263-2.669 0.263-0.432 0.653-0.699 1.169-0.8 1.497-0.294 2.995-0.585 4.494-0.871 1.191-0.227 2.112 0.314 2.331 1.555 0.035 0.196 0.062 0.34 0.082 0.432 0.014 0.065 0.027 0.065 0.040 0 0.049-0.252 0.066-0.535 0.159-0.755 0.262-0.625 0.703-0.992 1.321-1.102 0.243-0.044 0.629-0.025 1.158 0.058 1.423 0.22 2.845 0.439 4.268 0.658 0.206 0.032 0.439 0.142 0.698 0.33 0.021 0.015 0.049 0.016 0.071 0.001 0.24-0.171 0.445-0.273 0.614-0.306 1.434-0.27 2.868-0.542 4.302-0.816 0.478-0.091 0.838-0.121 1.081-0.089 0.701 0.092 1.182 0.492 1.443 1.2 0.082 0.223 0.108 0.538 0.173 0.798 0.017 0.067 0.034 0.067 0.050-0.001zM24.904 20l0.062-0.813c0-0.009-0.007-0.018-0.016-0.019l-2.073-0.16c-0.251-0.019-0.472 0.155-0.49 0.387l-0.001 0.005c-0.018 0.231 0.174 0.438 0.425 0.457l0.001 0 2.072 0.16c0.001 0 0.001 0 0.002 0 0.009 0 0.017-0.008 0.018-0.017zM15.646 12.406c-0.16-0.139-0.304-0.218-0.432-0.238-1.531-0.24-3.063-0.478-4.596-0.714-0.999-0.154-1.453 0.213-1.612 1.193-0.112 0.687-0.22 1.375-0.323 2.064-0.023 0.156-0.019 0.311 0.013 0.467 0.217 1.063 0.581 2.1 0.002 2.912-0.016 0.023-0.014 0.043 0.007 0.062 0.166 0.143 0.331 0.227 0.495 0.252 1.579 0.245 3.158 0.49 4.736 0.736 0.888 0.139 1.298-0.428 1.421-1.211 0.207-1.316 0.411-2.633 0.613-3.948 0.107-0.697 0.189-1.128-0.325-1.574zM13.487 14.894l-0.183 1.156c-0.055 0.348-0.383 0.586-0.731 0.531l-1.161-0.184c-0.348-0.055-0.586-0.383-0.531-0.731l0.183-1.156c0.055-0.348 0.383-0.586 0.731-0.531l1.161 0.184c0.348 0.055 0.586 0.383 0.531 0.731zM25.393 17.786l-0.008 0.682c0 0 0 0.001 0 0.001 0 0.031 0.026 0.057 0.057 0.057 0.006 0 0.012-0.001 0.017-0.003 0.201-0.060 0.392-0.039 0.573 0.062 0.021 0.012 0.043 0.013 0.065 0.002 0.292-0.15 0.565-0.125 0.819 0.073 0.025 0.019 0.049 0.018 0.071-0.004 0.285-0.277 0.612-0.328 0.982-0.152 0.026 0.012 0.045 0.005 0.057-0.021 0.196-0.431 0.409-0.74 0.93-0.741 0.5-0.002 1.247-0.083 1.712 0.074 0.004 0.001 0.009 0.002 0.013 0.002 0.022 0 0.040-0.017 0.042-0.039 0.005-0.060 0.018-0.153 0.037-0.28 0.189-1.218 0.378-2.436 0.566-3.655 0.163-1.058-0.096-1.567-1.188-1.74-1.399-0.221-2.799-0.439-4.2-0.653-0.907-0.139-1.432 0.178-1.583 1.103-0.117 0.716-0.229 1.432-0.336 2.15-0.024 0.16-0.020 0.32 0.011 0.48 0.139 0.716 0.453 1.714 0.252 2.422-0.009 0.030 0.002 0.046 0.033 0.048l1.032 0.081c0.031 0.003 0.047 0.020 0.047 0.051zM28.818 14.892l-0.183 1.158c-0.055 0.347-0.382 0.585-0.729 0.53l-1.164-0.184c-0.347-0.055-0.585-0.382-0.53-0.729l0.183-1.158c0.055-0.347 0.382-0.585 0.729-0.53l1.164 0.184c0.347 0.055 0.585 0.382 0.53 0.729zM26.678 20.027l-0.527 0.931c-0.017 0.031-0.009 0.046 0.026 0.046h0.775c0.029 0 0.051-0.013 0.066-0.038 0.28-0.49 0.557-0.981 0.831-1.474 0.302-0.545-0.345-0.909-0.646-0.378-0.135 0.238-0.275 0.476-0.418 0.713-0.004 0.008-0.013 0.013-0.022 0.013-0.013 0-0.025-0.011-0.025-0.024-0.015-0.245 0.135-0.875-0.283-0.866-0.401 0.009-0.28 0.713-0.276 0.98 0 0.026 0.014 0.040 0.041 0.040h0.426c0.044 0 0.055 0.019 0.033 0.057zM24.907 21.010l0.062-0.811c0-0.001 0-0.001 0-0.002 0-0.009-0.007-0.016-0.015-0.017l-2.091-0.16c-0.244-0.019-0.459 0.156-0.477 0.387v0.004c-0.018 0.231 0.168 0.436 0.412 0.455l2.090 0.16c0.001 0 0.001 0 0.002 0 0.009 0 0.016-0.007 0.017-0.015zM25.411 19.972h0.52c0.013 0 0.023-0.011 0.023-0.023v-0.723c0-0.148-0.117-0.27-0.259-0.27h-0.049c-0.142 0-0.259 0.122-0.259 0.27v0.723c0 0.013 0.011 0.023 0.023 0.023zM21.212 18.939v1.051c0 0.028-0.014 0.041-0.041 0.041-0.491 0-0.982 0.001-1.473 0.002-0.636 0.002-0.547 0.831-0.087 0.83 0.638-0.001 1.276-0.001 1.915-0.001 0.336 0 0.541-0.113 0.541-0.468-0.001-0.607 0.002-1.215 0.006-1.822 0.003-0.351-0.156-0.526-0.475-0.527-0.434 0-1.844-0.108-2.162 0.079-0.374 0.219-0.173 0.775 0.255 0.773 0.494-0.003 0.988-0.003 1.481 0.001 0.026 0.001 0.040 0.014 0.040 0.041zM29.793 19.002l-0.695 1.966c-0.014 0.038-0 0.057 0.040 0.057h0.689c0.032 0 0.060-0.020 0.071-0.050 0.251-0.717 0.504-1.433 0.758-2.149 0.135-0.382 0.016-0.614-0.415-0.616-0.47-0.003-0.924-0.003-1.364 0-0.127 0.001-0.244 0.073-0.302 0.186l-0.53 1.029c-0.003 0.006-0.004 0.012-0.004 0.019 0 0.023 0.019 0.041 0.041 0.041h0l0.755-0.013c0.020-0 0.038-0.012 0.048-0.029l0.237-0.447c0.013-0.024 0.033-0.036 0.061-0.036h0.58c0.032 0 0.042 0.015 0.032 0.045zM16.552 14.323c0.249 0.109 0.503 0.139 0.762 0.092 1.030-0.188 2.062-0.373 3.094-0.556 0.49-0.088 0.511 0.211 0.593 0.613 0.087 0.426 0.165 0.855 0.235 1.285 0.045 0.276-0.057 0.438-0.306 0.486-0.978 0.184-1.955 0.371-2.933 0.559-0.312 0.061-0.536 0.136-0.67 0.227-0.952 0.642-0.415 2.172 0.707 2.112 0.115-0.006 0.35-0.049 0.708-0.128 0.024-0.005 0.041-0.026 0.041-0.050-0.007-0.852 0.099-1.359 1.089-1.361 0.53-0.002 1.885-0.135 2.284 0.169 0.020 0.016 0.049 0.015 0.068-0.002 0.371-0.333 0.836-0.236 1.361-0.156 0.31 0.047 0.245-0.599 0.22-0.733-0.259-1.421-0.522-2.84-0.789-4.259-0.216-1.146-0.619-1.504-1.816-1.278-1.467 0.277-2.933 0.554-4.399 0.832-0.116 0.022-0.258 0.095-0.427 0.22-0.022 0.016-0.026 0.036-0.012 0.060 0.345 0.594 0.212 1.119 0.11 1.72-0.010 0.062 0.023 0.124 0.081 0.15zM7.216 11.534c-0.384-0.329-0.73-0.309-1.252-0.21-1.383 0.26-2.766 0.521-4.149 0.783-0.324 0.061-0.552 0.134-0.684 0.218-0.578 0.368-0.667 1.162-0.259 1.701 0.369 0.487 0.905 0.444 1.513 0.328 0.905-0.172 1.81-0.339 2.716-0.501 0.282-0.050 0.45 0.057 0.504 0.321 0.098 0.478 0.189 0.958 0.273 1.44 0.053 0.306 0.058 0.557-0.292 0.627-0.533 0.105-1.47 0.283-2.809 0.535-0.37 0.070-0.631 0.155-0.781 0.256-0.821 0.551-0.571 1.827 0.384 2.065 0.165 0.041 0.384 0.036 0.656-0.015 1.38-0.257 2.759-0.517 4.137-0.78 0.631-0.121 1.133-0.271 1.285-0.906 0.048-0.2 0.022-0.563-0.078-1.089-0.256-1.346-0.505-2.693-0.749-4.042-0.053-0.296-0.193-0.54-0.417-0.733zM22.609 18.788c0.037 0.026 0.081 0.042 0.126 0.045l2.158 0.175c0.001 0 0.003 0 0.004 0 0.024 0 0.045-0.020 0.045-0.045v-0.755c0-0.029-0.014-0.044-0.043-0.047-0.661-0.058-1.322-0.116-1.982-0.173-0.493-0.043-0.732 0.503-0.307 0.799z"></path>
</svg>
