<!-- Generated by IcoMoon.io -->
<svg version="1.1" xmlns="http://www.w3.org/2000/svg" width="32" height="32" viewBox="0 0 32 32">
<title>watermark-scholarship</title>
<path fill="#444" d="M27.057 8.619c0.025-0.022 0.088-0.091 0.067-0.075 0.195-0.144 0.387-0.143 0.535-0.097 0.161 0.049 0.325 0.164 0.397 0.409 0.041 0.141 0.080 0.283 0.116 0.425 0.035 0.136 0.033 0.224 0.015 0.312-0.018 0.085-0.052 0.18-0.152 0.292-0.019 0.021-0.036 0.047-0.053 0.075-0.090 0.157-0.161 0.317-0.211 0.481-0.012 0.039-0.026 0.099-0.047 0.148-0.001 0.002-0.002 0.004-0.003 0.006-0.047 0.106-0.12 0.189-0.218 0.25l-0.003 0.002c-0.001 0.001-0.002 0.001-0.003 0.002-0.079 0.047-0.218 0.1-0.398 0.077-0.075-0.009-0.182-0.040-0.242-0.058-0.084-0.025-0.164-0.059-0.235-0.115l-0.001-0.001-0.008-0.006c-0.006-0.005-0.011-0.009-0.017-0.014-0.096-0.084-0.16-0.197-0.182-0.322l-0-0-0.002-0.013-0-0.003-0-0.003-0.001-0.004-0-0.002-0-0.002c-0.006-0.047-0.012-0.1-0.024-0.152-0.006-0.024-0.005-0.051-0.018-0.069-0.012-0.003-0.042-0.010-0.059-0.012-0.023-0.003-0.046-0.004-0.068-0.006l-0.008 0.005c-0.081 0.059-0.139 0.156-0.178 0.236-0.034 0.071-0.057 0.142-0.065 0.214-0.013 0.108-0.020 0.226 0.001 0.334 0.013 0.065 0.035 0.127 0.089 0.171 0.173 0.138 0.441 0.112 0.651 0.1 0.409-0.023 0.777-0.066 1.15-0.177 0.089-0.027 0.179-0.053 0.268-0.080 0.114-0.034 0.347-0.014 0.455 0.045 0.143 0.078 0.215 0.18 0.259 0.276 0.075 0.165 0.075 0.376-0.046 0.575-0.073 0.12-0.145 0.239-0.217 0.359l-0 0c-0.087 0.145-0.212 0.228-0.374 0.29l-0 0c-0.081 0.031-0.162 0.061-0.243 0.089 0.534 0.096 0.891 0.611 0.804 1.139 0.065 0.243 0.059 0.501-0.013 0.741 0.021 0.091 0.032 0.188 0.030 0.292 0.029-0.003 0.058-0.004 0.089-0.003 0 0 0.001 0 0.002 0 0.673 0.011 1.363 0.031 2.070 0.061 0.338 0.014 0.578 0.136 0.745 0.303 0.177 0.178 0.294 0.427 0.288 0.769-0.001 0.045-0.006 0.090-0.016 0.135l-0.429 1.891c0 0-0.001 0.002-0.001 0.003-0.071 0.306-0.31 0.548-0.616 0.621l-1.179 0.283-0.331 1.491c-0 0.001-0.001 0.002-0.001 0.003-0.072 0.316-0.345 0.547-0.665 0.57 0.037 0.070 0.049 0.152 0.029 0.234l-0.555 2.216c-0.023 0.090-0.082 0.166-0.163 0.21s-0.177 0.052-0.264 0.021c0 0-5.388-1.869-11.852-1.858-5.932 0.011-11.778 1.861-11.778 1.861-0.088 0.028-0.183 0.018-0.263-0.028s-0.137-0.122-0.157-0.212l-0.51-2.216c-0.014-0.060-0.010-0.119 0.007-0.174-0.377 0.159-0.786 0.28-1.148 0.398-0.002 0-0.003 0.001-0.005 0.002-0.012 0.004-0.023 0.007-0.035 0.010-0.394 0.103-0.798-0.137-0.9-0.525-0.003-0.011-0.006-0.023-0.008-0.033 0 0-0.217-1.014-0.26-1.216-0.001-0.006-0.003-0.012-0.003-0.018l-0-0.002c-0.057-0.209-0.042-0.38 0.010-0.517-0.112-0.11-0.195-0.25-0.237-0.409 0.002 0.006 0.011 0.043-0-0.002l-0.001-0.002-0.645-2.519c-0.025-0.1-0.027-0.204-0.005-0.304 0.067-0.304 0.172-0.512 0.275-0.64 0.171-0.213 0.376-0.304 0.588-0.322 0.517-0.044 1.346-0.125 1.939-0.043 0.249 0.034 0.465 0.101 0.64 0.189 0.041-0.045 0.086-0.088 0.134-0.129 0.064-0.054 0.137-0.095 0.215-0.121-0.010-0.198 0.085-0.382 0.271-0.504l0-0c-0.003 0.003-0.057 0.062-0.080 0.083-0.006 0.005-0.009 0.007-0.010 0.006 0.001-0.003 0.006-0.010 0.016-0.023 0.018-0.022 0.038-0.041 0.061-0.058-0.026 0.018-0.046 0.038-0.061 0.058-0.012 0.015-0.017 0.022-0.016 0.023-0.002 0.004 0.003 0.001 0.010-0.006 0.027-0.023 0.1-0.097 0.080-0.083 0.208-0.137 0.405-0.293 0.525-0.51 0.284-0.513 0.457-1.086 0.653-1.639 0.088-0.248 0.194-0.491 0.293-0.734 0.046-0.112 0.105-0.196 0.171-0.259-0.003-0.064 0.003-0.132 0.020-0.206l0-0.001 0.004 0.001-0.004-0.005 0-0.001c0-0.001 0-0.002 0.001-0.005l0.001-0.002c0.002-0.008 0.005-0.017 0.007-0.025 0.009-0.029 0.026-0.075 0.052-0.138l0-0c0.070-0.168 0.132-0.338 0.186-0.511-0.036-0.006-0.072-0.012-0.106-0.019 0.021 0.004 0.041 0.006 0.062 0.006l-0.063-0.006c-0.224-0.044-0.363-0.184-0.432-0.329-0.079-0.165-0.105-0.382 0.061-0.61-0.028 0.038-0.045 0.075-0.052 0.111-0.002 0.007-0.003 0.011-0.003 0.014-0.005 0.032 0.008 0.001 0.023-0.038 0.020-0.044 0.045-0.105 0.033-0.089 0.084-0.114 0.169-0.224 0.255-0.33 0.114-0.141 0.287-0.221 0.466-0.218 0.042 0.001 0.127 0.003 0.127 0.003 0.56 0.016 1.12 0.031 1.68 0.047 0.165 0.005 0.286 0.066 0.377 0.146 0.096 0.085 0.171 0.2 0.193 0.362l0 0.002 0.002 0.014c0 0.001 0 0.001 0 0.002 0.009 0.075 0.070 0.132 0.112 0.194 0.137 0.205 0.28 0.408 0.408 0.618 0.116 0.192 0.23 0.385 0.34 0.58l0.033 0.058c0.050-0.027 0.1-0.049 0.151-0.064 0.043-0.102 0.111-0.198 0.201-0.285 0.050-0.048 0.094-0.1 0.134-0.156 0.023-0.032 0.045-0.064 0.066-0.096-0.093-0.050-0.187-0.099-0.282-0.145-0.167-0.081-0.258-0.203-0.305-0.321-0.060-0.15-0.080-0.334 0.056-0.546l0-0c0.060-0.094 0.121-0.188 0.182-0.282 0.143-0.219 0.416-0.316 0.663-0.237 0.050 0.016 0.102 0.030 0.155 0.039 0.248 0.045 0.499 0.061 0.752 0.048 0.101-0.005 0.206-0.016 0.3-0.055 0.107-0.043 0.268-0.078 0.471 0.017 0.057 0.027 0.146 0.074 0.268 0.142 0.168 0.095 0.24 0.215 0.279 0.333 0.035 0.105 0.052 0.232-0.007 0.399l-0 0c-0.108 0.304 0.047 0.68 0.187 0.956l0 0c0.057 0.114 0.153 0.279 0.224 0.419 0.018 0.036 0.036 0.072 0.054 0.108 0.023-0.034 0.048-0.068 0.075-0.104 0.146-0.195 0.252-0.411 0.335-0.641 0.028-0.078 0.060-0.148 0.097-0.209l-0.159-0.059c-0.223-0.082-0.31-0.226-0.356-0.355-0.045-0.127-0.047-0.269 0.007-0.41 0.025-0.066 0.069-0.135 0.111-0.187 0.064-0.079 0.128-0.157 0.194-0.233-0.026 0.031-0.044 0.063-0.054 0.093-0.004 0.010-0.005 0.014-0.005 0.016-0 0.004 0.002 0.001 0.006-0.006 0.019-0.027 0.074-0.128 0.056-0.109 0.144-0.167 0.371-0.24 0.585-0.188l0 0c0.001 0 0.001 0 0.001 0 0.361 0.088 0.741 0.133 1.111 0.153 0.164 0.009 0.328 0.006 0.492-0.007h0c0.090-0.007 0.185-0.030 0.284-0.064 0.177-0.062 0.373-0.055 0.568 0.101l0.001 0.001c0.096 0.077 0.193 0.155 0.288 0.231 0.143 0.115 0.207 0.191 0.247 0.38 0.043 0.203 0.090 0.405 0.143 0.604 0.011-0.043 0.023-0.087 0.036-0.13 0.232-0.756 0.841-1.229 1.622-1.304 0.466-0.045 0.927 0.060 1.381 0.145 0.115 0.021 0.231 0.042 0.343 0.033 0.094-0.008 0.179-0.042 0.255-0.1 0.002-0.001 0.003-0.003 0.005-0.004 0.090-0.067 0.2-0.106 0.314-0.111h0.001c0 0-0.172 0.039-0.070 0.010-0.136 0.035 0.106-0.011 0.070-0.010 0.148-0.005 0.266 0.038 0.359 0.101 0.057 0.038 0.108 0.086 0.15 0.145 0.116-0.147 0.283-0.228 0.52-0.198l0 0c0.001 0 0.001 0 0.002 0 0.095 0.012 0.191 0.019 0.287 0.021 0.304 0.006 0.607-0.008 0.91-0.043 0.124-0.014 0.247-0.035 0.368-0.062l0.001-0c-0.005 0.002-0.068 0.028-0.087 0.035-0.003 0.001-0.005 0.001-0.003-0.001 0.003-0.002 0.009-0.005 0.019-0.010 0.017-0.008 0.035-0.015 0.054-0.020-0.021 0.005-0.039 0.012-0.054 0.020-0.011 0.005-0.017 0.008-0.019 0.010-0.005 0.003-0.003 0.003 0.003 0.001 0.020-0.005 0.113-0.040 0.087-0.035 0.283-0.062 0.585 0.012 0.716 0.37 0.015 0.040 0.029 0.081 0.043 0.122 0.336-0.287 0.764-0.463 1.23-0.487 0.184-0.009 0.374 0.002 0.57 0.034 0.12 0.020 0.263 0.058 0.394 0.088h0c0.186 0.043 0.376 0.049 0.535-0.069l0-0c-0.003 0.003-0.047 0.054-0.067 0.075-0.007 0.006-0.010 0.009-0.009 0.006s0.003-0.005 0.006-0.009c0.017-0.023 0.036-0.044 0.059-0.062-0.025 0.020-0.045 0.041-0.059 0.062-0.003 0.005-0.005 0.008-0.006 0.009-0.004 0.007 0.001 0.003 0.009-0.006zM27.29 15.096c-0.005 0.001-0.011 0.002-0.016 0.003-0.101 0.024-0.191 0.075-0.256 0.163 0 0-0.002-0.003-0.003-0.003-0.139-0.169-0.329-0.252-0.577-0.226 0.001 0-0.606 0.005-0.606 0.005-0.001 0-0.003 0-0.004 0-0.104 0.002-0.184 0.039-0.245 0.091-0.035 0.030-0.066 0.066-0.090 0.111-0.018-0.048-0.045-0.088-0.076-0.121-0.062-0.067-0.152-0.12-0.286-0.12h-0.882c-0.116 0-0.204 0.040-0.272 0.097-0.043 0.037-0.080 0.083-0.105 0.141-0.026-0.025-0.055-0.048-0.089-0.068-0.001-0-0.001-0.001-0.002-0.001-0.158-0.094-0.413-0.16-0.715-0.19-0.586-0.057-1.368-0-1.735 0.030l-0.001 0c-0.18 0.015-0.314 0.082-0.413 0.179-0.029 0.029-0.055 0.060-0.078 0.095-0.001-0.001-0.002-0.002-0.002-0.003-0.075-0.114-0.186-0.195-0.324-0.244-0.168-0.059-0.385-0.064-0.549-0.062-0.615 0.007-1.231-0.004-1.848-0.030-0.002-0-0.005-0-0.007-0-0.095-0.002-0.183 0.021-0.265 0.068 0-0-0.058 0.033-0.058 0.033-0.1 0.056-0.163 0.16-0.167 0.275l-0.053 1.422-0.226-1.437c-0.016-0.106-0.065-0.183-0.128-0.239s-0.144-0.094-0.252-0.098c-0.002 0-0.003-0-0.005-0l-1.261-0.030c-0.102-0.002-0.182 0.029-0.245 0.077-0.065 0.049-0.117 0.118-0.143 0.217-0 0.001-0 0.001-0 0.002l-0.593 2.377-0.231-0.004c-0.022-0.671-0.058-1.343-0.108-2.017-0.008-0.105-0.048-0.185-0.104-0.245s-0.133-0.108-0.238-0.124l-0.971-0.148c-0.093-0.014-0.187 0.012-0.259 0.071-0.058-0.072-0.146-0.119-0.245-0.122-0.58-0.019-0.733 0.143-1.11 0.308l-0.368-0.259c-0.054-0.038-0.119-0.059-0.185-0.060l-0.68-0.009c-0.014-0-0.029 0-0.043 0.001-0.325 0.019-0.578 0.303-0.558 0.63l0 0.002c-0.084-0.029-0.198-0.035-0.328 0.051l-0.001 0.001c-0.077 0.052-0.16 0.022-0.226-0.026-0.098-0.071-0.176-0.185-0.185-0.297-0.019-0.238-0.167-0.316-0.28-0.341-0.003-0.001-0.006-0.001-0.010-0.002-0.058-0.011-0.146-0.012-0.257 0.035-0.077 0.033-0.139 0.094-0.173 0.171l-0.010 0.023c-0.028-0.064-0.069-0.112-0.116-0.149-0.066-0.052-0.15-0.086-0.258-0.084 0.001-0-1.016 0.014-1.016 0.014-0.097 0.001-0.188 0.045-0.25 0.12-0.020 0.024-0.036 0.050-0.048 0.078-0.224-0.176-0.582-0.248-1.084-0.146-0.223 0.042-0.458 0.169-0.682 0.26-0.054 0.022-0.107 0.041-0.158 0.052-0.033 0.007-0.064 0.014-0.093 0-0.051-0.024-0.084-0.084-0.124-0.172-0.043-0.094-0.127-0.162-0.227-0.184s-0.206 0.003-0.284 0.069c-0.116 0.098-0.205 0.212-0.265 0.341-0.014-0.017-0.029-0.032-0.045-0.047-0.155-0.14-0.409-0.238-0.722-0.281-0.571-0.079-1.369 0.003-1.867 0.045-0.13 0.011-0.254 0.070-0.359 0.2-0.081 0.1-0.158 0.266-0.21 0.504-0.011 0.050-0.010 0.102 0.003 0.152l0.646 2.52c0.051 0.196 0.203 0.347 0.391 0.401-0.017 0.016-0.035 0.032-0.053 0.049l-0.001 0c-0.101 0.094-0.174 0.247-0.111 0.478-0-0.001 0.268 1.251 0.268 1.251 0.001 0.006 0.003 0.013 0.004 0.019 0.056 0.215 0.28 0.347 0.498 0.29 0.007-0.002 0.013-0.004 0.020-0.006 0.001-0 0.002-0 0.002-0.001 0.594-0.193 1.333-0.389 1.796-0.77l0-0c0.18-0.148 0.332-0.308 0.457-0.478l0.017 0.078c0.036 0.175 0.194 0.303 0.375 0.303 0.037 0 0.074-0.006 0.11-0.016l0-0c0.733-0.22 1.482-0.41 2.246-0.571 0.126-0.026 0.219-0.087 0.281-0.183 0.073 0.043 0.166 0.069 0.285 0.043l0.895-0.195c0.107-0.023 0.192-0.097 0.232-0.192 0.016 0.016 0.032 0.030 0.050 0.042 0.078 0.057 0.181 0.093 0.318 0.069 0 0 0.888-0.154 0.888-0.154 0.077-0.013 0.144-0.053 0.192-0.108 0.068 0.047 0.15 0.067 0.232 0.056 0.506-0.068 1.003-0.131 1.489-0.187h0.001c0.204-0.024 0.56-0.171 1.056-0.467 0.143 0.188 0.386 0.296 0.688 0.324 0.318 0.030 0.713-0.024 1.038-0.052 0.064-0.005 0.122-0.021 0.173-0.048 0.060 0.033 0.129 0.051 0.202 0.052 0.001 0 0.002 0 0.003 0l0.394-0.002c0.173 0 0.3-0.078 0.377-0.24 0.001-0.001 0.001-0.002 0.002-0.003l0.096-0.206 0.333-0.085 0.027 0.178 0 0.001c0.029 0.184 0.134 0.295 0.318 0.331 0.002 0 0.003 0.001 0.005 0.001 0.388 0.072 0.716 0.035 0.985-0.093 0.004-0.002 0.009-0.004 0.013-0.006 0.055 0.076 0.143 0.127 0.244 0.134l0.92 0.063c0 0 0 0 0.001 0 0.128 0.009 0.248-0.045 0.328-0.137 0.066 0.114 0.174 0.179 0.323 0.191l0.999 0.088c0.055 0.005 0.109-0.004 0.159-0.025 0.040 0.028 0.088 0.047 0.139 0.055 0.384 0.057 0.771 0.108 1.161 0.154 0.513 0.060 0.939-0.038 1.435-0.138l-0.003 0.020c-0.028 0.175 0.087 0.34 0.261 0.375l0.905 0.181c0.124 0.025 0.22-0.006 0.294-0.057 0.015-0.010 0.029-0.022 0.043-0.035 0.031 0.066 0.085 0.122 0.154 0.155 0.297 0.144 0.63 0.238 0.999 0.28l0.001 0c0.093 0.010 0.17-0.007 0.233-0.040 0.004 0.007 0.008 0.014 0.012 0.021 0.048 0.076 0.123 0.143 0.244 0.173-0.001-0 0.842 0.209 0.842 0.209 0.002 0.001 0.004 0.001 0.006 0.001 0.004 0.001 0.007 0.002 0.011 0.002 0.090 0.018 0.178 0.003 0.254-0.035 0.037 0.083 0.107 0.15 0.199 0.18l0.845 0.278c0.041 0.013 0.083 0.020 0.126 0.020 0.189 0 0.354-0.132 0.396-0.316 0-0.001 0-0.001 0-0.002l0.376-1.692 1.379-0.331c0.185-0.044 0.329-0.19 0.372-0.375l0-0.001 0.429-1.891c0.005-0.022 0.008-0.045 0.008-0.067 0.004-0.235-0.070-0.409-0.192-0.532-0.117-0.117-0.287-0.197-0.524-0.206-0.705-0.029-1.392-0.050-2.062-0.061l-0.001-0c-0.114-0.002-0.202 0.035-0.271 0.089-0.003 0.003-0.006 0.005-0.009 0.008-0.063-0.065-0.15-0.101-0.241-0.1l-0.798 0.011c0.037-0.007 0.071-0.016 0.099-0.026 0.138-0.048 0.251-0.152 0.258-0.306 0.006-0.129-0.061-0.221-0.164-0.281-0.009-0.006-0.019-0.011-0.029-0.016 0.008-0.004 0.015-0.009 0.023-0.014 0.217-0.138 0.26-0.431 0.121-0.634-0.003-0.004-0.005-0.007-0.008-0.011 0.005-0.010 0.009-0.021 0.011-0.033l0.039-0.181c0-0.001 0.001-0.003 0.001-0.005 0.011-0.062-0.032-0.123-0.095-0.134-0.002-0-0.004-0.001-0.006-0.001-0.043-0.005-0.085-0.006-0.128-0.004-0.112 0.007-0.167 0.065-0.204 0.154-0.004-0.001-0.008-0.001-0.012-0.002-0.206-0.031-0.412 0.029-0.532 0.164-0.045 0.050-0.079 0.11-0.098 0.181-0.008-0.162-0.082-0.294-0.251-0.338-0.133-0.035-0.247-0.011-0.353 0.045-0.020-0.035-0.058-0.060-0.101-0.060-0.010 0-0.020 0.001-0.030 0.004l-0 0-0.401 0.109c-0.028 0.007-0.047 0.023-0.062 0.041-0.004 0.005-0.008 0.011-0.011 0.017v-0.059c0-0.020-0.005-0.038-0.014-0.054 0.015-0.026 0.024-0.054 0.027-0.085 0.007-0.070-0.012-0.126-0.048-0.168-0.033-0.040-0.083-0.069-0.147-0.079-0.118-0.019-0.217 0.008-0.297 0.076-0.068 0.058-0.105 0.148-0.094 0.227l-0.068-0.023c-0.032-0.011-0.066-0.007-0.094 0.009-0.059-0.017-0.115-0.021-0.163-0.005-0.009 0.003-0.019 0.007-0.028 0.011-0.022-0.017-0.054-0.030-0.098-0.018l-0.001 0-0.367 0.099c-0.050 0.014-0.085 0.059-0.085 0.111v0.010c-0.090-0.125-0.22-0.207-0.4-0.224-0.292-0.027-0.508 0.158-0.588 0.399-0.002-0.082-0.010-0.14-0.021-0.173-0.060-0.182-0.232-0.246-0.41-0.222-0.057 0.008-0.109 0.026-0.158 0.051l0-0.078c0.045-0.020 0.068-0.056 0.068-0.11l0-0.115c0-0.049-0.024-0.076-0.047-0.093s-0.057-0.030-0.103-0.014c0.001-0-0.47 0.162-0.47 0.162h-0c-0.053 0.018-0.080 0.056-0.079 0.113l0.002 0.104c0 0.002 0 0.004 0 0.006-0.008-0.002-0.016-0.003-0.024-0.003h-0.049c0.001-0.030 0.004-0.061 0.009-0.091 0.005-0.036-0.005-0.063-0.020-0.084s-0.038-0.040-0.074-0.046c0.001 0-0.101-0.019-0.101-0.019s-0.001-0-0.001-0c-0.029-0.005-0.053 0.001-0.073 0.011s-0.039 0.028-0.051 0.055c-0.056 0.119-0.144 0.178-0.268 0.221l-0 0c-0.041 0.014-0.070 0.050-0.076 0.092-0.046-0.066-0.111-0.11-0.186-0.137-0.105-0.038-0.232-0.038-0.345-0.016-0.010-0.007-0.021-0.014-0.035-0.018l-0.103-0.034c-0.060-0.020-0.126 0.012-0.147 0.072 0-0.001-0.116 0.316-0.116 0.316-0.013 0.034-0.008 0.064 0.003 0.087 0.003 0.007 0.008 0.015 0.013 0.022-0.041 0.040-0.074 0.088-0.097 0.141-0-0.036-0.001-0.071-0.001-0.107-0-0.008-0-0.015 0-0.023 0-0.004 0.001-0.011 0.002-0.014 0.047-0.032 0.065-0.094 0.040-0.145l-0-0.001-0.042-0.088c-0.016-0.032-0.039-0.049-0.064-0.057s-0.053-0.011-0.085 0.003c-0 0-0.001 0-0.001 0-0.018 0.008-0.034 0.017-0.055 0.017-0.026 0-0.052 0-0.079 0l0.222-0.142c0.032-0.021 0.045-0.047 0.051-0.074s0.003-0.056-0.017-0.087l-0-0.001-0.075-0.111c-0-0-0.001-0.001-0.001-0.001-0.035-0.050-0.104-0.064-0.156-0.032l-0.007 0.005c-0.118-0.072-0.25-0.111-0.391-0.102-0.214 0.014-0.418 0.102-0.567 0.257-0.178 0.185-0.253 0.413-0.223 0.686 0.034 0.299 0.223 0.527 0.522 0.593 0.211 0.047 0.418 0.012 0.602-0.092l0.019 0.029c0.023 0.036 0.057 0.053 0.099 0.053h0.093c0.036 0 0.061-0.014 0.080-0.032s0.033-0.043 0.034-0.079v-0.001c0-0.029 0.001-0.057 0.001-0.086 0.036 0.079 0.096 0.145 0.182 0.186 0.137 0.064 0.28 0.050 0.403-0.015 0.001 0.001 0.002 0.002 0.003 0.003 0.018 0.015 0.042 0.025 0.072 0.025l0.37-0c0.036 0 0.062-0.015 0.080-0.032s0.034-0.044 0.034-0.082l0-0.020c0.016 0.033 0.036 0.061 0.062 0.084 0.046 0.042 0.112 0.071 0.206 0.079 0.117 0.009 0.233-0.033 0.334-0.094 0.006 0.012 0.013 0.022 0.021 0.031 0.019 0.019 0.045 0.035 0.082 0.035h0.479c0.023 0 0.041-0.006 0.056-0.014 0.015 0.009 0.034 0.014 0.056 0.014h0.472c0.037 0 0.062-0.015 0.081-0.033s0.033-0.044 0.033-0.081v-0.096c0.201 0.303 0.644 0.307 0.909 0.074 0.002-0.002 0.004-0.004 0.006-0.005v0.028c0 0.037 0.015 0.062 0.032 0.080s0.044 0.034 0.082 0.034l0.491 0.001c0.037 0 0.063-0.015 0.082-0.033s0.033-0.044 0.033-0.082v-0l-0-0.103c0-0.036-0.015-0.062-0.033-0.081-0.015-0.015-0.034-0.027-0.060-0.031l0.002-0.301c0.008-0.004 0.018-0.004 0.027-0.002 0.029 0.004 0.059 0.016 0.089 0.029 0.035 0.016 0.066 0.011 0.091 0s0.049-0.030 0.062-0.067l0.019-0.055c0 0.116 0 0.293 0 0.402-0.041 0.017-0.070 0.058-0.070 0.104v0.107c0 0.062 0.051 0.113 0.113 0.113l0.469 0c0.029 0 0.056-0.011 0.076-0.030 0.018 0.017 0.043 0.030 0.078 0.030h0.472c0.024 0 0.043-0.006 0.058-0.015 0.017 0.010 0.037 0.016 0.058 0.016l0.472-0c0.036 0 0.062-0.015 0.080-0.033 0.012-0.012 0.023-0.028 0.029-0.048l0.042 0.041c0.015 0.014 0.031 0.024 0.050 0.030-0.023 0.076-0.009 0.16 0.047 0.23 0.054 0.067 0.142 0.109 0.243 0.124zM23.644 14.289c0.077 0.201 0.322 0.2 0.458 0.064 0.003-0.003 0.005-0.003 0.008 0l0.064 0.070c0.002 0.002 0.002 0.004 0 0.007-0.034 0.043-0.066 0.077-0.095 0.103-0.236 0.207-0.644 0.195-0.783-0.122-0.145-0.332 0.071-0.752 0.456-0.716 0.23 0.021 0.358 0.179 0.419 0.39 0.001 0.003-0 0.006-0.003 0.007l-0.521 0.192c-0.002 0.001-0.003 0.003-0.002 0.005zM23.821 14.049c-0.023-0.081-0.080-0.239-0.196-0.206-0.113 0.032-0.064 0.221-0.041 0.296 0.001 0.003 0.002 0.003 0.005 0.002l0.229-0.086c0.003-0.001 0.004-0.004 0.003-0.006zM23.665 13.996c-0.001-0.010-0-0.023 0-0.033 0.005 0.007 0.010 0.014 0.014 0.022 0.001 0.002 0.002 0.003 0.003 0.005l-0.017 0.006zM24.222 14.314l-0.032-0.035-0.001-0c-0.026-0.028-0.055-0.036-0.081-0.037s-0.057 0.007-0.084 0.034c-0.051 0.051-0.129 0.075-0.192 0.057l0.373-0.137c0-0 0.001-0 0.001-0 0.006-0.002 0.011-0.005 0.015-0.007l0 0.126zM25.778 13.906l-0.037 0.011c-0.003 0.001-0.005-0-0.005-0.004l0-0.102c0-0.003 0.002-0.005 0.005-0.006l0.401-0.109c0.001-0 0.001-0 0.002-0 0.003 0 0.006 0.003 0.006 0.006v0.136c0 0.005 0.002 0.005 0.006 0.003 0.122-0.102 0.25-0.177 0.415-0.133 0.124 0.032 0.169 0.137 0.169 0.259 0 0.184 0 0.371 0 0.559 0 0.003 0.002 0.005 0.005 0.005h0.054c0.003 0 0.004 0.001 0.004 0.004l0.001 0.105c0 0.002-0.001 0.003-0.003 0.003l-0.471 0c-0.003 0-0.005-0.002-0.005-0.005v-0.104c0-0.003 0.002-0.005 0.005-0.005h0.061c0.003 0 0.005-0.002 0.005-0.005 0-0.176 0-0.352 0-0.528 0-0.027-0.018-0.050-0.042-0.061-0.075-0.036-0.15 0.009-0.203 0.061-0.002 0.002-0.003 0.004-0.003 0.007l-0.001 0.521c0 0.004 0.002 0.006 0.006 0.006h0.060c0.004 0 0.007 0.003 0.007 0.007l-0.001 0.102c0 0.003-0.001 0.004-0.004 0.004h-0.472c-0.003 0-0.005-0.002-0.005-0.005l0-0.102c0-0.004 0.002-0.005 0.005-0.005l0.052-0.002c0.004-0 0.006-0.002 0.006-0.006v-0.615c0-0.003-0.002-0.005-0.005-0.005-0 0-0.001 0-0.001 0l-0.015 0.004 0 0.001c-0 0-0.001 0-0.001 0l-0-0.002zM24.9 13.714c0.011 0.004 0.023 0.009 0.034 0.014 0.003 0.001 0.005 0.001 0.007-0.002l0.015-0.028c0.002-0.003 0.005-0.004 0.008-0.003l0.095 0.032c0.003 0.001 0.004 0.003 0.003 0.006l-0.11 0.31c-0.001 0.004-0.004 0.005-0.007 0.003-0.095-0.041-0.2-0.072-0.267 0.028-0.001 0.001-0.001 0.003-0.001 0.005l-0.003 0.444c0 0.004 0.002 0.006 0.006 0.006l0.083 0.001c0.003 0 0.005 0.002 0.005 0.005l0 0.103c0 0.004-0.002 0.005-0.005 0.005l-0.491-0.001c-0.003 0-0.005-0.002-0.005-0.005v-0.104c0-0.003 0.002-0.005 0.005-0.005h0.056c0.003 0 0.004-0.001 0.004-0.004l-0.001-0.63c0-0.003-0.002-0.005-0.005-0.005-0.001 0-0.001 0-0.002 0l-0.046 0.020c-0.004 0.002-0.007 0.001-0.007-0.004v-0.106c0-0.002 0.002-0.005 0.004-0.005l0.367-0.099c0.004-0.001 0.006 0 0.006 0.005v0.208c0 0.001 0.001 0.002 0.002 0.002s0.002-0.001 0.002-0.001c0.015-0.043 0.030-0.085 0.046-0.127 0.030-0.076 0.079-0.094 0.136-0.085 0.002-0.007 0.005-0.014 0.008-0.021 0-0 0-0.001 0.001-0.001l0.016 0.027c0.012 0.003 0.025 0.007 0.038 0.012l-0.038-0.062c0.001-0.001 0.001-0.001 0.002-0.002l0.038 0.064zM19.73 14.027l-0.211 0c-0.005 0-0.007-0.002-0.007-0.007v-0.135c0-0.003 0.002-0.005 0.005-0.005 0.164-0 0.327-0.001 0.49-0.002 0.038-0 0.066-0.012 0.099-0.027 0.003-0.001 0.005-0 0.006 0.002l0.042 0.087c0.001 0.003 0 0.006-0.002 0.007-0.048 0.030-0.052 0.079-0.051 0.13 0.003 0.187 0.003 0.373 0 0.56-0 0.003-0.002 0.004-0.004 0.004h-0.093c-0.003 0-0.006-0.001-0.007-0.004l-0.075-0.113c-0.001-0.002-0.004-0.003-0.006-0.003s-0.003 0-0.005 0.001c-0.18 0.129-0.389 0.179-0.604 0.132-0.25-0.055-0.408-0.248-0.436-0.498-0.027-0.238 0.037-0.437 0.192-0.598 0.13-0.135 0.309-0.212 0.495-0.224 0.139-0.009 0.268 0.039 0.378 0.121 0.003 0.002 0.006 0.002 0.009 0l0.063-0.040c0.003-0.002 0.006-0.001 0.008 0.002l0.075 0.111c0.002 0.003 0.002 0.006-0.002 0.008l-0.4 0.256c-0.003 0.002-0.005 0.001-0.007-0.002l-0.064-0.098c-0.002-0.003-0.002-0.005 0-0.008 0.052-0.070 0.010-0.164-0.075-0.171-0.18-0.013-0.25 0.128-0.267 0.28-0.038 0.332 0.074 0.628 0.453 0.637 0.003 0 0.004-0.001 0.004-0.004l0-0.396c0-0.002-0.001-0.004-0.004-0.004zM22.481 13.846c0.081-0.071 0.169-0.133 0.278-0.148 0.124-0.017 0.248 0.021 0.291 0.148 0.010 0.030 0.015 0.082 0.016 0.158 0.001 0.119 0.002 0.238 0.002 0.357 0 0.038-0.005 0.108 0 0.164 0 0.004 0.002 0.006 0.006 0.006h0.054c0.003 0 0.005 0.002 0.005 0.005v0.104c0 0.003-0.002 0.005-0.005 0.005h-0.472c-0.003 0-0.005-0.002-0.005-0.005v-0.104c0-0.003 0.001-0.004 0.004-0.005l0.062-0.001c0.004-0 0.005-0.002 0.005-0.006-0.001-0.165-0.002-0.33-0.001-0.495 0-0.051-0.028-0.094-0.080-0.103-0.066-0.011-0.12 0.012-0.161 0.069-0.002 0.002-0.002 0.005-0.003 0.008l-0.003 0.522c0 0.003 0.002 0.005 0.005 0.005h0.061c0.005 0 0.007 0.002 0.007 0.007l-0 0.101c0 0.003-0.002 0.005-0.005 0.005h-0.479c-0.003 0-0.004-0.002-0.004-0.005l0.003-0.103c0-0.003 0.002-0.005 0.005-0.005l0.059-0.001c0.003-0 0.005-0.002 0.005-0.005l-0-0.925c0-0.003-0.002-0.005-0.005-0.005-0.001 0-0.001 0-0.002 0l-0.054 0.018c-0.004 0.001-0.006-0-0.006-0.005l-0.001-0.104c0-0.004 0.002-0.006 0.005-0.007l0.471-0.162c0.003-0.001 0.004 0 0.004 0.003l-0 0.115c0 0.006-0.003 0.010-0.009 0.012l-0.054 0.017c-0.003 0.001-0.005 0.003-0.005 0.006l-0.001 0.356c0 0.005 0.002 0.006 0.006 0.003zM25.779 13.908l0.014 0.103-0.015-0.103 0.001-0zM27.256 14.411c-0.149-0.025-0.286-0.12-0.309-0.276-0.048-0.323 0.235-0.475 0.514-0.432 0.033 0.005 0.066 0.010 0.099 0.015 0.003 0 0.006-0.001 0.006-0.004 0.023-0.086 0.042-0.156 0.134-0.162 0.036-0.002 0.072-0.001 0.108 0.003 0 0 0 0 0 0 0.003 0.001 0.006 0.004 0.005 0.007 0 0 0 0-0 0l-0.039 0.181c-0.002 0.008-0.005 0.009-0.010 0.002-0.016-0.025-0.039-0.036-0.068-0.033-0.003 0-0.006 0.002-0.008 0.004-0.021 0.020-0.021 0.040 0 0.059 0.034 0.030 0.074 0.062 0.099 0.098 0.105 0.154 0.074 0.376-0.090 0.48-0.097 0.062-0.219 0.094-0.326 0.121-0.023 0.006-0.022 0.009 0.001 0.011 0.148 0.011 0.454 0.056 0.445 0.267-0.004 0.107-0.088 0.174-0.184 0.207-0.128 0.044-0.403 0.069-0.502-0.055-0.052-0.066-0.040-0.151 0.024-0.205 0.033-0.027 0.072-0.045 0.116-0.052 0.006-0.001 0.006-0.002 0-0.003-0.079-0.012-0.158-0.014-0.237-0.007-0.003 0-0.007-0.001-0.009-0.003l-0.118-0.114c-0.003-0.003-0.002-0.005 0.002-0.005 0.119-0.021 0.234-0.054 0.347-0.097 0.006-0.002 0.006-0.004-0-0.005zM27.369 14.828c0.012 0.102 0.156 0.103 0.142-0.013-0.008-0.066-0.054-0.099-0.108-0.13-0.004-0.002-0.006-0.001-0.008 0.002-0.023 0.046-0.031 0.093-0.026 0.141zM27.383 14.297c0.050 0.040 0.136 0.031 0.153-0.039 0.026-0.109-0.050-0.504-0.233-0.437-0.090 0.033-0.043 0.229-0.022 0.296 0.022 0.073 0.048 0.135 0.103 0.18zM27.359 13.941c0.006 0.007 0.011 0.016 0.015 0.025 0.036 0.068 0.057 0.164 0.058 0.226-0.024-0.029-0.035-0.066-0.048-0.107-0.008-0.028-0.023-0.083-0.025-0.134-0-0.003-0-0.006-0-0.010zM14.302 17.93l0.409 0.008c0.042 0.097 0.040 0.179-0.004 0.247-0.021 0.030-0.049 0.046-0.086 0.049-0.51 0.043-1.207 0.166-1.44-0.148l-0.169-2.691 0.971 0.148c0.039 0.006 0.060 0.029 0.063 0.068 0.056 0.758 0.095 1.514 0.115 2.267 0.001 0.059 0.048 0.076 0.14 0.052zM7.941 15.832l0.162 1.104c0.007 0.047 0.033 0.064 0.079 0.048l0.382-0.125c0.038-0.012 0.061-0.051 0.055-0.090l-0.205-1.319 0.042-0.095c0.029-0.012 0.052-0.017 0.067-0.014 0.013 0.003 0.021 0.018 0.023 0.046 0.032 0.403 0.516 0.844 0.923 0.571 0.037-0.025 0.059-0.015 0.065 0.030l0.364 2.684-0.888 0.154c-0.057 0.010-0.090-0.014-0.098-0.071l-0.213-1.468c-0.007-0.047-0.032-0.062-0.077-0.044l-0.383 0.155c-0.039 0.015-0.055 0.044-0.048 0.086l0.149 0.902 0.056 0.524-0.895 0.195c-0.040 0.009-0.064-0.007-0.071-0.046l-0.67-3.701 1.017-0.014c0.040-0.001 0.064 0.018 0.072 0.057l0.092 0.433zM25.532 14.529h0.053c0.002 0 0.003 0.001 0.003 0.003l0.001 0.107c0 0.002-0.001 0.003-0.003 0.003l-0.469-0c-0.002 0-0.003-0.001-0.003-0.003v-0.107c0-0.002 0.001-0.003 0.003-0.003h0.064c0.002 0 0.003-0.001 0.003-0.003v-0.617c0-0.002-0.001-0.003-0.003-0.003-0 0-0 0-0.001 0l-0.060 0.011c-0 0-0 0-0.001 0-0.002 0-0.003-0.001-0.003-0.003l-0.001-0.101c0-0.001 0.001-0.003 0.002-0.003l0.407-0.115c0-0 0-0 0.001-0 0.002 0 0.003 0.001 0.003 0.003l0 0.829c0 0.002 0.001 0.003 0.003 0.003zM24.187 13.848c0.011-0.017 0.027-0.030 0.047-0.039 0-0 0.001-0 0.001-0.001l0.003 0.013c-0.016 0.021-0.025 0.047-0.023 0.075-0.009-0.017-0.018-0.033-0.027-0.048zM21.422 13.869h-0.084c-0.003 0-0.005-0.002-0.005-0.005v-0.095c0-0.003 0.002-0.005 0.004-0.006 0.154-0.054 0.261-0.13 0.331-0.28 0.001-0.003 0.003-0.004 0.006-0.003l0.102 0.019c0.004 0.001 0.005 0.003 0.005 0.007-0.010 0.070-0.013 0.14-0.009 0.21 0 0.004 0.002 0.006 0.006 0.006h0.151c0.003 0 0.006 0.003 0.006 0.006 0 0 0 0.001-0 0.001l-0.026 0.135c-0.001 0.003-0.003 0.005-0.006 0.005h-0.129c-0.003 0-0.005 0.002-0.005 0.005-0 0.175-0 0.35 0 0.525 0 0.102 0.095 0.1 0.16 0.056 0-0 0-0 0-0 0.002-0.002 0.006-0.001 0.007 0.002 0 0 0 0 0 0l0.043 0.073c0.002 0.004 0.002 0.008-0.002 0.010-0.097 0.074-0.221 0.141-0.346 0.131-0.16-0.013-0.204-0.103-0.205-0.248-0.002-0.183-0.002-0.366-0.003-0.549 0-0.003-0.002-0.005-0.005-0.005zM22.611 14.032c-0 0.132-0 0.264 0.001 0.396-0.005 0.002-0.009 0.004-0.013 0.006-0.004-0.003-0.009-0.005-0.014-0.007l0.003-0.387c0.007-0.005 0.015-0.008 0.024-0.008zM22.022 14.384c-0.034-0.039-0.092-0.051-0.14-0.026-0-0.126-0-0.252-0-0.378h0.024c0.031 0 0.055-0.011 0.073-0.026s0.034-0.037 0.040-0.067l0-0.001 0.003-0.014 0 0.513zM26.849 14.199c0.021 0.076 0.062 0.141 0.117 0.191-0.025 0.006-0.050 0.011-0.076 0.015-0.017 0.003-0.030 0.008-0.042 0.015 0-0.074 0-0.148 0-0.222zM18.763 18.309l-0.921-0.063 0.106-2.917 0.060-0.034c0.029-0.017 0.060-0.025 0.093-0.024 0.622 0.027 1.245 0.037 1.867 0.031 0.259-0.003 0.69-0.011 0.63 0.384-0.048 0.312-0.083 0.635-0.106 0.971-0.124 0.076-0.267 0.126-0.429 0.15-0.042 0.006-0.073 0.042-0.073 0.085 0 0.009 0.001 0.017 0.004 0.025l0.426 1.534-1-0.088c-0.042-0.004-0.070-0.026-0.082-0.066l-0.36-1.135c-0.005-0.019-0.022-0.033-0.042-0.033-0.023 0-0.043 0.019-0.043 0.043 0 0 0 0.001 0 0.001l-0.056 1.069-0 0.001c-0.003 0.038-0.036 0.068-0.074 0.065-0-0-0-0-0.001-0zM18.994 15.999l-0.061 0.642c-0.007 0.043 0.011 0.064 0.055 0.061 0.366-0.018 0.616 0.105 0.578-0.472 0.020-0.294-0.118-0.409-0.514-0.301-0.036 0.010-0.055 0.033-0.057 0.069zM28.374 15.405c-0.376 1.469-0.692 2.913-0.948 4.331-0 0.001-0 0.001-0 0.002-0.007 0.034-0.040 0.056-0.075 0.049-0.001-0-0.001-0-0.002-0l-0.843-0.21c-0.042-0.010-0.058-0.037-0.049-0.079 0.266-1.318 0.53-2.635 0.791-3.95 0.015-0.073 0.048-0.116 0.101-0.128l1.025-0.014zM2.435 18.935l0.207 0.863c0.009 0.042 0.031 0.049 0.064 0.021l0.346-0.29c0.032-0.045 0.054-0.097 0.041-0.155-0.103-0.449-0.2-0.889-0.294-1.318-0.021-0.098-0.075-0.12-0.16-0.067l-0.982 0.608c-0.037 0.023-0.080 0.035-0.124 0.035-0.107 0-0.201-0.073-0.228-0.177l-0.645-2.519c0.063-0.287 0.155-0.436 0.275-0.447 0.684-0.058 1.954-0.2 2.341 0.153 0.014 0.013 0.024 0.029 0.027 0.047l0.208 0.937c0.008 0.037-0.005 0.063-0.038 0.080l-0.796 0.41c-0.003 0.001-0.005 0.003-0.008 0.003-0.038 0.014-0.081-0.006-0.095-0.045-0.001-0.003-0.002-0.006-0.002-0.008l-0.137-0.579c-0.014-0.057-0.050-0.082-0.109-0.074l-0.37 0.050c-0.045 0.006-0.062 0.031-0.053 0.076l0.079 0.357 0.19 0.759c0.009 0.038 0.031 0.048 0.066 0.030l0.415-0.218c0.27-0.196 0.54-0.322 0.81-0.377 0.037-0.007 0.075 0.009 0.097 0.041 0.244 0.363 0.368 1.427 0.565 2.242-0.127 0.227-0.305 0.435-0.532 0.622-0.435 0.357-1.131 0.53-1.689 0.711-0.001 0-0.003 0.001-0.004 0.001-0.042 0.011-0.085-0.014-0.096-0.055-0-0.001-0.001-0.003-0.001-0.004l-0.27-1.262c-0.022-0.075-0.017-0.127 0.015-0.157 0.154-0.143 0.753-0.595 0.753-0.595 0.007-0.003 0.014-0.005 0.021-0.005 0.024 0 0.045 0.016 0.050 0.040l0.064 0.265zM17.355 17.51l0.067 0.64c-0.214 0.102-0.475 0.124-0.783 0.067-0.033-0.007-0.052-0.026-0.057-0.059l-0.070-0.463c-0.005-0.033-0.034-0.058-0.068-0.058-0.006 0-0.012 0.001-0.017 0.002l-0.714 0.183c-0.029 0.007-0.054 0.027-0.067 0.054l-0.143 0.306c-0.017 0.035-0.044 0.053-0.082 0.053l-0.394 0.002c-0.055-0-0.101-0.046-0.101-0.101 0-0.008 0.001-0.016 0.003-0.024l0.699-2.8c0.008-0.031 0.029-0.047 0.061-0.046l1.261 0.030c0.039 0.001 0.061 0.021 0.067 0.059l0.339 2.156zM16.308 16.1c-0.003-0.016-0.016-0.028-0.033-0.028-0.014 0-0.027 0.009-0.031 0.022l-0.42 1.289c-0.001 0.003-0.002 0.007-0.002 0.011 0 0.018 0.015 0.033 0.033 0.033 0.003 0 0.005-0 0.007-0.001l0.585-0.137c0.016-0.004 0.027-0.020 0.025-0.036l-0.165-1.153zM20.843 14.559c-0.111 0.101-0.261 0.148-0.402 0.081-0.235-0.111-0.197-0.498 0.047-0.58 0.087-0.029 0.241-0.018 0.348-0.019 0.003 0 0.004-0.001 0.004-0.004 0.003-0.064 0-0.131-0.071-0.153-0.118-0.035-0.192 0.043-0.253 0.132-0.002 0.003-0.005 0.004-0.008 0.003l-0.11-0.041c-0.003-0.001-0.004-0.003-0.003-0.006l0.116-0.317c0.001-0.004 0.005-0.005 0.009-0.004l0.103 0.034c0.003 0.001 0.004 0.003 0.003 0.006l-0.012 0.038c-0.001 0.004 0 0.005 0.004 0.004 0.185-0.067 0.486-0.069 0.553 0.161 0.009 0.033 0.014 0.089 0.014 0.17 0 0.153 0 0.306 0 0.459 0 0.004 0.002 0.006 0.006 0.006h0.049c0.004 0 0.006 0.002 0.006 0.006l-0.001 0.103c0 0.003-0.002 0.004-0.004 0.004l-0.37 0c-0.003 0-0.005-0.001-0.005-0.004l-0.018-0.077c-0-0.002-0.002-0.003-0.004-0.003s-0.002 0-0.003 0.001zM20.653 14.424c0.030 0.061 0.131 0.063 0.168 0.008 0.035-0.050 0.020-0.204 0.021-0.268 0-0.003-0.001-0.004-0.004-0.004-0.069-0.006-0.139 0.004-0.179 0.061s-0.038 0.141-0.007 0.204zM20.747 14.365c0.002 0.003 0.003 0.007 0.005 0.010-0.002-0.003-0.003-0.007-0.005-0.010zM23.592 16.276l-0.982 0.247c-0.047 0.012-0.068-0.007-0.064-0.055l0.034-0.335c0-0.002 0-0.004 0-0.007 0.004-0.073-0.054-0.137-0.128-0.14-0.002-0-0.004-0-0.006-0h-0.348c-0.048 0-0.075 0.024-0.079 0.071l-0.075 0.707c-0.005 0.052 0.018 0.074 0.070 0.066l1.476-0.229-0.268 1.901c-0.462 0.093-0.858 0.191-1.335 0.135-0.386-0.045-0.77-0.096-1.151-0.153l0.099-0.896 0.931-0.193c0.049-0.010 0.072 0.010 0.069 0.059 0 0-0.065 0.585-0.065 0.722 0 0.047 0.023 0.067 0.069 0.058l0.413-0.079c0.039-0.007 0.060-0.031 0.065-0.070l0.116-0.948c0.007-0.047-0.013-0.068-0.061-0.063l-1.464 0.177 0.155-1.622c0.017-0.18 0.115-0.278 0.295-0.293 0.507-0.042 1.83-0.139 2.254 0.114 0.034 0.021 0.049 0.050 0.045 0.089l-0.065 0.737zM6.615 16.896l-0.878 0.415c-0.039 0.018-0.062 0.006-0.070-0.036l-0.183-1.002c-0.010-0.050-0.040-0.073-0.091-0.068l-0.399 0.037c-0.042 0.004-0.060 0.026-0.052 0.068l0.55 2.774 1.38-0.27c0.038-0.007 0.068 0.005 0.090 0.037 0.059 0.087 0.081 0.193 0.066 0.318-0.015 0.040-0.045 0.065-0.089 0.074-0.774 0.163-1.532 0.356-2.274 0.578-0.005 0.002-0.010 0.002-0.015 0.002-0.025 0-0.047-0.018-0.053-0.043l-0.792-3.688c-0.064-0.319 0.007-0.565 0.212-0.737 0.345 0.753 0.909 0.143 1.422 0.046 0.434-0.088 0.726-0.040 0.878 0.143 0.155 0.187 0.246 1.001 0.298 1.352zM10.891 15.337l0.471 0.331c0.027 0.019 0.061 0.024 0.092 0.012 0.418-0.161 0.524-0.351 1.094-0.332l0.211 2.657c-0.439 0.262-0.749 0.403-0.929 0.425-0.489 0.056-0.987 0.119-1.496 0.188l-0.39-2.988c-0.001-0.006-0.001-0.012-0.002-0.018-0.009-0.146 0.104-0.273 0.249-0.282 0.006-0 0.013-0.001 0.019-0l0.68 0.009zM11.038 16.029l0.189 2.011c0 0.002 0 0.004 0.001 0.006 0.006 0.032 0.036 0.054 0.068 0.048 0.002-0 0.004-0.001 0.006-0.001l0.415-0.119c0.039-0.011 0.055-0.037 0.049-0.077l-0.194-1.916c-0.004-0.041-0.026-0.060-0.067-0.056l-0.414 0.040c-0.040 0.004-0.057 0.025-0.053 0.064zM23.187 14.435c-0.004-0.002-0.008-0.004-0.012-0.006 0-0.008 0.001-0.016 0.001-0.024 0.003 0.010 0.007 0.020 0.011 0.030zM25.639 14.433l-0-0.465c0.009 0.016 0.021 0.028 0.032 0.036 0.006 0.004 0.011 0.008 0.018 0.011v0.416c-0.010 0.005-0.019 0.011-0.026 0.018-0.007-0.007-0.015-0.013-0.024-0.017zM19.539 13.77l-0.022 0c-0.037 0-0.063 0.015-0.082 0.033s-0.033 0.044-0.033 0.082v0.135c0 0.038 0.015 0.064 0.034 0.083s0.045 0.034 0.083 0.034l0.105-0-0 0.171c-0.062-0.015-0.111-0.044-0.148-0.083-0.091-0.098-0.109-0.253-0.090-0.418 0.010-0.091 0.039-0.187 0.143-0.184-0.029 0.042-0.030 0.085-0.001 0.129l0.012 0.018zM21.32 14.449c-0.007-0.006-0.015-0.012-0.023-0.016 0-0.123 0-0.246-0-0.369-0-0.035-0.001-0.066-0.003-0.093 0.007 0.003 0.015 0.005 0.023 0.007 0 0.149 0.001 0.298 0.002 0.447 0 0.008 0 0.017 0.001 0.025zM31.341 15.873l-0.429 1.891c-0.015 0.064-0.065 0.114-0.128 0.129l-1.468 0.352c-0.067 0.016-0.12 0.069-0.135 0.137l-0.396 1.782c-0.008 0.035-0.039 0.060-0.075 0.060-0.008 0-0.016-0.001-0.024-0.004l-0.844-0.278 0.95-4.459c0.011-0.050 0.042-0.075 0.094-0.075 0.667 0.011 1.352 0.031 2.054 0.060 0.271 0.011 0.405 0.146 0.401 0.404zM29.381 17.742c0.054 0.004 0.464-0.094 0.464-0.094 0.040-0.007 0.065-0.030 0.075-0.069l0.217-0.914c0.097-0.194-0.057-0.271-0.46-0.232-0.031 0.003-0.049 0.019-0.056 0.049l-0.279 1.206c-0.008 0.033 0.005 0.051 0.038 0.054zM25.24 13.68c-0.098-0.043-0.077-0.151-0.010-0.209 0.056-0.048 0.126-0.065 0.209-0.052 0.069 0.011 0.111 0.056 0.103 0.127-0.013 0.12-0.216 0.171-0.303 0.133zM26.255 14.428l0-0.38c0.005-0.004 0.011-0.007 0.016-0.010 0.004-0.002 0.008-0.004 0.013-0.006 0 0.131 0 0.263 0 0.395-0.005 0.002-0.010 0.005-0.015 0.007-0.005-0.003-0.009-0.005-0.015-0.007zM25.639 13.875c0.012-0.030 0.038-0.055 0.071-0.064 0.001-0 0.001-0 0.002-0l0.025 0.183c-0.028-0.019-0.047-0.051-0.047-0.087v0.107c-0.023-0.012-0.041-0.032-0.050-0.056v-0.082zM25.787 14.418c-0.007 0-0.013 0.001-0.019 0.003-0.011 0.003-0.021 0.007-0.030 0.012l-0-0.013 0.049-0.002zM25.179 15.52l-0.258 1.51c-0.007 0.042 0.010 0.067 0.053 0.072 0.065 0.009 0.395-0.057 0.465-0.095 0.035-0.019 0.059-0.054 0.067-0.093l0.271-1.497c0.006-0.032 0.025-0.049 0.058-0.049l0.624-0.005c0.129-0.016 0.23 0.019 0.302 0.106 0.025 0.031 0.033 0.066 0.025 0.104l-0.73 3.784c-0.009 0.045-0.036 0.066-0.082 0.060-0.329-0.037-0.627-0.12-0.892-0.249 0 0 0.308-1.575 0.292-1.673-0.007-0.041-0.030-0.058-0.071-0.050l-0.393 0.075c-0.049 0.010-0.078 0.039-0.086 0.088l-0.249 1.428c-0.007 0.037-0.028 0.051-0.064 0.044l-0.905-0.181 0.559-3.496c0.008-0.048 0.036-0.072 0.084-0.072h0.882c0.040 0 0.059 0.020 0.056 0.060l-0.009 0.132zM5.945 10.178c0.016 0 0.032-0.001 0.048-0.004l-0.048 0.004zM13.188 13.007c-0.024-0.065-0.114-0.295-0.127-0.328v-0c-0.21-0.512-0.439-1.015-0.687-1.509l-0.201-0.371c-0-0-0-0.001-0.001-0.001-0.132-0.256-0.225-0.526-0.278-0.809-0-0.001-0-0.002-0.001-0.003l-0.019-0.15c-0-0.001-0-0.002-0-0.003-0.012-0.169-0.004-0.335 0.042-0.498l-0.126-0.067-0.095 0.032c-0.001 0-0.003 0.001-0.004 0.001-0.070 0.018-0.142 0.031-0.216 0.039-0.098 0.012-0.196 0.019-0.293 0.021h-0.001c-0.311 0.002-0.63-0.025-0.939-0.099l-0.079 0.123c0.144 0.071 0.285 0.147 0.424 0.229 0.001 0 0.001 0.001 0.002 0.001 0.125 0.079 0.22 0.165 0.269 0.309 0.001 0.002 0.001 0.004 0.002 0.006 0.017 0.077 0.011 0.143-0.015 0.198-0.071 0.149-0.166 0.307-0.284 0.473-0.029 0.040-0.059 0.079-0.090 0.117-0.050 0.060-0.085 0.098-0.104 0.114-0.022 0.018-0.040 0.034-0.053 0.051-0.007 0.010-0.013 0.019-0.013 0.029-0 0.018 0.012 0.036 0.034 0.060 0.065 0.072 0.131 0.143 0.197 0.215 0.011 0.012 0.023 0.025 0.036 0.034 0.008 0.006 0.017 0.009 0.028 0.003 0.036-0.020 0.073-0.043 0.108-0.057 0.080-0.031 0.155-0.034 0.22-0.015 0.097 0.028 0.176 0.102 0.229 0.209 0.054 0.11 0.109 0.221 0.163 0.331 0.241 0.489 0.479 0.981 0.68 1.488 0.059 0.148 0.14 0.357 0.148 0.532 0 0 0 0.001 0 0.001 0.004 0.186-0.083 0.34-0.203 0.476-0 0-0 0.001-0.001 0.001l-0.112 0.121c-0.001 0.001-0.001 0.001-0.002 0.002-0.112 0.108-0.228 0.214-0.348 0.316l0.094 0.1c0.126-0.079 0.261-0.141 0.404-0.184 0.298-0.090 0.606-0.126 0.917-0.126 0.477 0 0.944 0.069 1.401 0.205 0.011-0.024 0.021-0.049 0.031-0.073-0.126-0.112-0.271-0.2-0.41-0.293-0.152-0.101-0.298-0.209-0.413-0.358-0.102-0.132-0.138-0.273-0.177-0.432-0-0.001-0-0.001-0-0.002-0.031-0.147-0.077-0.3-0.136-0.459zM9.119 15.024l0.171 0.096c0.167-0.252 0.397-0.48 0.633-0.665 0.128-0.101 0.27-0.19 0.427-0.243-0.060-0.256-0.149-0.516-0.241-0.757-0-0-0-0-0-0.001l-0.053-0.143c-0.063-0.163-0.128-0.326-0.166-0.496-0.081-0.359-0.030-0.73 0.163-1.044 0.001-0.001 0.001-0.002 0.002-0.003 0.022-0.031 0.050-0.062 0.071-0.094 0.012-0.018 0.022-0.035 0.020-0.055-0.001-0.012-0.008-0.024-0.020-0.037-0.115-0.131-0.19-0.215-0.225-0.251-0.037-0.038-0.072-0.012-0.111 0.017-0.114 0.088-0.218 0.187-0.312 0.296-0.021 0.024-0.044 0.035-0.066 0.038-0.024 0.003-0.049-0.004-0.074-0.025-0.034-0.029-0.077-0.077-0.129-0.144l-0-0c-0.138-0.179-0.251-0.369-0.366-0.562-0-0.001-0.001-0.001-0.001-0.002-0.122-0.223-0.251-0.441-0.388-0.655-0.139-0.217-0.293-0.421-0.421-0.645-0.043-0.076-0.074-0.152-0.093-0.228-0.022 0-0.033 0-0.033 0s-0.001 0-0.002 0c-0.421-0.012-1.667-0.034-1.649-0.052-0.018 0.018-0.098 0.153-0.098 0.153 0.034 0.007 0.22 0.053 0.241 0.059 0.181 0.052 0.354 0.131 0.355 0.356 0 0.002 0 0.003-0 0.004-0.006 0.083-0.021 0.166-0.045 0.247l-0.030 0.111c-0 0.001-0.001 0.002-0.001 0.003l-0.126 0.372c-0.041 0.117-0.086 0.233-0.136 0.349-0.003 0.006-0.007 0.011-0.004 0.016 0.002 0.003 0.005 0.005 0.010 0.007 0.054 0.030 0.161 0.081 0.322 0.154 0.019 0.008 0.045 0.023 0.071 0.030 0.005 0.001 0.011 0.003 0.016 0.003 0.003 0 0.005 0.002 0.007 0 0.010-0.011 0.018-0.018 0.020-0.024 0.037-0.096 0.082-0.192 0.135-0.286 0.002-0.003 0.116-0.137 0.116-0.137 0.064-0.060 0.139-0.078 0.225-0.055 0.002 0.001 0.004 0.001 0.006 0.002 0.084 0.034 0.162 0.087 0.234 0.159 0.411 0.412 0.7 0.942 0.927 1.473l0 0c0.147 0.35 0.27 0.707 0.371 1.073 0.097 0.338 0.177 0.682 0.227 1.030 0 0 0 0.001 0 0.001 0.024 0.189 0.038 0.363 0.014 0.547 0.001 0.002 0.003 0.005 0.004 0.007zM21.949 12.934c0.071 0.044 0.138 0.050 0.196 0.038s0.119-0.044 0.167-0.114c0.031-0.045 0.069-0.083 0.115-0.113 0.329-0.221 0.871-0.339 1.246-0.174 0.065 0.029 0.119 0.031 0.168 0.021 0.045-0.010 0.092-0.031 0.137-0.081 0.032-0.036 0.091-0.096 0.124-0.143 0.045-0.063 0.060-0.125 0.061-0.164 0-0 0-0.002 0-0.002 0.001-0.053-0.015-0.102-0.047-0.144-0.022-0.030-0.044-0.051-0.062-0.067l-0-0c-0.199-0.167-0.402-0.359-0.453-0.625-0.016-0.084-0.015-0.184-0.008-0.272 0.015-0.178 0.028-0.331 0.029-0.503 0.001-0.174 0.008-0.347 0.021-0.521 0.012-0.157 0.037-0.377 0.153-0.498 0.047-0.050 0.104-0.070 0.166-0.095 0.123-0.049 0.189-0.187 0.148-0.313v-0c-0.021-0.065-0.043-0.131-0.067-0.196-0.061-0.166-0.205-0.191-0.336-0.162l-0 0c-0.133 0.029-0.267 0.052-0.402 0.068-0.317 0.036-0.635 0.051-0.954 0.045-0.108-0.002-0.216-0.010-0.324-0.024h-0c-0.121-0.015-0.201 0.035-0.252 0.121l-0 0c-0.035 0.060-0.072 0.133-0.11 0.218l-0 0c-0.025 0.057-0.027 0.122-0.004 0.18 0.031 0.078 0.087 0.136 0.175 0.166l0 0c0.344 0.12 0.416 0.468 0.41 0.796-0.007 0.381-0.006 0.756-0.077 1.132-0.055 0.295-0.145 0.613-0.35 0.821-0.047 0.048-0.065 0.089-0.074 0.127-0.010 0.044-0.014 0.093 0.017 0.164s0.062 0.142 0.095 0.211c0.019 0.041 0.050 0.076 0.089 0.101l0.001 0.001c0.007 0.005 0.003 0.002 0.001 0.001zM22.335 12.609c-0.103 0.072-0.222 0.297-0.299 0.186l-0-0c-0.107-0.126-0.133-0.283-0.129-0.3 0.003-0.015 0.012-0.030 0.030-0.049 0.228-0.23 0.334-0.579 0.396-0.906 0.072-0.386 0.073-0.769 0.079-1.159 0.007-0.399-0.103-0.809-0.521-0.954-0.038-0.014-0.064-0.038-0.077-0.072-0.007-0.017-0.006-0.035 0.001-0.052 0.036-0.079 0.070-0.147 0.102-0.203 0.018-0.030 0.046-0.046 0.089-0.041 0.113 0.015 0.227 0.023 0.342 0.025 0.326 0.007 0.652-0.009 0.976-0.046 0.141-0.016 0.281-0.040 0.419-0.070 0.055-0.012 0.121-0.012 0.146 0.057 0.023 0.063 0.045 0.126 0.065 0.189 0.014 0.044-0.009 0.093-0.052 0.11-0.085 0.034-0.159 0.066-0.224 0.134-0.141 0.147-0.184 0.409-0.199 0.6-0.014 0.177-0.021 0.355-0.022 0.533-0.001 0.167-0.014 0.316-0.028 0.489-0.009 0.102-0.009 0.219 0.010 0.318 0.059 0.303 0.281 0.529 0.509 0.72 0.011 0.009 0.023 0.022 0.036 0.040 0.009 0.012 0.014 0.027 0.014 0.042v0c-0 0.018-0.010 0.045-0.031 0.074-0.006 0.009-0.013 0.018-0.021 0.027 0.027 0.032 0.048 0.059 0.051 0.063l-0.056-0.058c-0.029 0.034-0.064 0.071-0.086 0.096-0.016 0.018-0.033 0.026-0.049 0.030-0.020 0.004-0.041 0.001-0.067-0.011-0.421-0.185-1.037-0.066-1.404 0.188zM22.063 9.284c0.502 0.244 0.566 0.789 0.544 1.293-0.007 0.169-0.007 0.359-0.016 0.487-0.015 0.215-0.045 0.427-0.090 0.637-0.062 0.284-0.166 0.577-0.351 0.806 0.218-0.184 0.51-0.288 0.79-0.337 0.269-0.050 0.566-0.050 0.817 0.047l0.002-0.003c-0.137-0.121-0.261-0.248-0.361-0.403-0.145-0.224-0.185-0.462-0.165-0.726 0.012-0.162 0.030-0.325 0.030-0.488-0.001-0.153 0.003-0.306 0.013-0.459 0.012-0.194 0.038-0.384 0.108-0.568 0-0 0-0.001 0-0.001 0.024-0.060 0.056-0.12 0.096-0.178 0-0 0-0.001 0.001-0.001 0.060-0.083 0.134-0.148 0.221-0.194l-0.003-0.017c-0.461 0.086-0.934 0.112-1.402 0.099-0.084-0.002-0.162-0.007-0.232-0.015l-0.001 0.021zM12.065 14.723c0.135-0.027 0.295-0.040 0.504-0.033 0.098 0.003 0.191 0.028 0.273 0.069 0.087-0.023 0.179-0.029 0.27-0.015l0.97 0.148c0.119 0.018 0.217 0.058 0.299 0.113 0.034-0.004 0.063-0.015 0.089-0.028 0.047-0.025 0.095-0.067 0.129-0.148l0-0c0.029-0.069 0.057-0.138 0.085-0.208 0.036-0.092 0.025-0.181-0.047-0.264-0.136-0.156-0.313-0.267-0.488-0.379-0.134-0.085-0.267-0.169-0.36-0.299-0.052-0.073-0.074-0.142-0.094-0.232-0.050-0.223-0.116-0.442-0.2-0.655-0.020-0.052-0.041-0.103-0.061-0.155 0.013 0.005 0.027 0.008 0.042 0.011 0.076 0.014 0.163 0.016 0.261 0.005 0.083-0.010 0.198-0.019 0.344-0.028 0.155-0.010 0.297-0.006 0.447 0.017 0.159 0.025 0.252-0.080 0.293-0.183 0.059-0.15 0.099-0.248 0.119-0.294 0.028-0.065 0.066-0.156 0.117-0.229 0.016-0.023 0.030-0.046 0.051-0.056 0.060-0.027 0.126-0.059 0.171-0.101 0.133-0.125 0.142-0.26 0.112-0.443-0.019-0.12-0.059-0.227-0.117-0.324-0.088-0.146-0.225-0.2-0.397-0.193-0.033 0.001-0.066 0.004-0.099 0.008 0.014-0.041 0.027-0.085 0.039-0.133 0.027-0.101 0.022-0.183 0.001-0.252-0.031-0.1-0.101-0.184-0.223-0.256-0.062-0.037-0.141-0.084-0.219-0.115-0.079-0.031-0.159-0.044-0.229-0.037h-0c-0.205 0.021-0.305 0.131-0.372 0.318-0.094 0.262-0.215 0.506-0.381 0.728-0.117 0.156-0.194 0.279-0.252 0.447-0.033 0.096-0.052 0.193-0.058 0.289-0.12-0.265-0.246-0.528-0.377-0.789-0.071-0.14-0.167-0.305-0.224-0.419-0.176-0.349-0.339-0.83-0.203-1.214l0-0c0.027-0.077 0.022-0.137 0.006-0.185-0.018-0.054-0.052-0.107-0.129-0.151-0.111-0.063-0.193-0.106-0.245-0.13-0.090-0.042-0.161-0.029-0.208-0.010-0.128 0.052-0.269 0.071-0.406 0.078-0.278 0.014-0.554-0.003-0.828-0.053-0.067-0.012-0.132-0.029-0.195-0.049-0.108-0.034-0.226 0.008-0.288 0.103-0.061 0.094-0.121 0.187-0.181 0.28-0.061 0.096-0.055 0.179-0.028 0.246 0.022 0.055 0.066 0.11 0.144 0.147 0.159 0.077 0.315 0.16 0.468 0.248 0.032 0.019 0.082 0.051 0.113 0.091-0.063 0.123-0.143 0.252-0.239 0.388-0.052 0.073-0.11 0.14-0.174 0.202-0.106 0.103-0.167 0.221-0.15 0.357-0.143-0.032-0.27 0.026-0.402 0.133-0.040 0.032-0.078 0.065-0.116 0.1-0.081-0.113-0.154-0.234-0.232-0.373-0.109-0.192-0.22-0.383-0.335-0.571-0.125-0.206-0.266-0.406-0.401-0.606-0.070-0.105-0.151-0.214-0.165-0.342v-0c-0.009-0.075-0.042-0.129-0.086-0.168-0.041-0.036-0.095-0.062-0.169-0.065-0.56-0.016-1.12-0.031-1.68-0.047-0.042-0.001-0.083-0.002-0.124-0.003-0.079-0.002-0.154 0.034-0.204 0.095-0.083 0.103-0.165 0.209-0.246 0.319l-0 0c-0.075 0.102-0.066 0.2-0.030 0.274 0.032 0.066 0.096 0.128 0.198 0.148h0c0.148 0.029 0.315 0.052 0.447 0.112-0.004 0.048-0.022 0.098-0.033 0.14-0.070 0.247-0.154 0.49-0.253 0.727-0.029 0.071-0.043 0.111-0.045 0.12 0 0-0 0.002-0 0.002-0.027 0.117-0.005 0.21 0.047 0.285-0.020 0.005-0.039 0.011-0.058 0.019-0.076 0.033-0.149 0.096-0.197 0.213-0.097 0.239-0.201 0.477-0.287 0.72-0.202 0.57-0.382 1.16-0.675 1.689-0.146 0.263-0.379 0.459-0.632 0.626l-0 0c-0.077 0.051-0.118 0.126-0.119 0.207 0.007 0.001 0.014 0.003 0.021 0.004 0.057 0.013 0.111 0.033 0.161 0.059l-0.003-0.005c-0.024-0.048-0.014-0.099 0.030-0.128 0.276-0.181 0.527-0.397 0.686-0.684 0.297-0.537 0.482-1.135 0.686-1.714 0.085-0.241 0.189-0.477 0.285-0.714 0.027-0.067 0.066-0.104 0.11-0.124 0.062-0.027 0.138-0.016 0.217 0.020 0.102 0.046 0.204 0.093 0.306 0.139 0.089 0.040 0.164 0.105 0.164 0.209-0 0.058-0.011 0.111-0.033 0.159-0.112 0.246-0.209 0.48-0.291 0.702-0.076 0.207-0.162 0.409-0.236 0.617-0.076 0.214-0.154 0.477-0.086 0.701 0.045 0.148 0.192 0.256 0.33 0.314 0.026 0.011 0.044 0.036 0.045 0.064 0.004 0.068 0.005 0.136 0.002 0.207-0.001 0.034-0.012 0.056-0.025 0.071-0.015 0.017-0.034 0.026-0.057 0.029-0.019 0.003-0.041 0-0.063-0.003-0.432-0.058-0.86-0.017-1.284 0.124-0.193 0.064-0.364 0.153-0.512 0.266-0.001 0.001-0.001 0.001-0.002 0.002 0.236-0.097 0.484-0.223 0.719-0.268 0.455-0.092 0.813-0.056 1.082 0.055 0.105-0.071 0.23-0.111 0.359-0.112-0.038 0.001-0.054-0.076-0.051-0.157 0.003-0.076 0.002-0.15-0.003-0.222l-0-0c-0.005-0.091-0.062-0.171-0.146-0.206-0.096-0.040-0.205-0.107-0.236-0.21-0.058-0.191 0.019-0.415 0.084-0.598 0.074-0.207 0.16-0.409 0.235-0.615 0.080-0.218 0.175-0.448 0.286-0.69 0.031-0.068 0.048-0.144 0.048-0.227 0-0.072-0.019-0.135-0.052-0.188 0.028-0.006 0.055-0.015 0.081-0.027 0.078-0.037 0.15-0.103 0.199-0.218 0.029-0.068 0.060-0.135 0.093-0.201l0-0c0.002-0.004 0.005-0.008 0.007-0.013 0.030 0.027 0.057 0.056 0.074 0.074 0.231 0.247 0.418 0.537 0.574 0.836 0.342 0.655 0.571 1.367 0.728 2.088 0.043 0.197 0.078 0.4 0.090 0.603 0.056 0.019 0.114 0.046 0.168 0.084-0.006-0.242-0.045-0.486-0.097-0.722-0.161-0.735-0.394-1.461-0.743-2.129-0.163-0.312-0.358-0.615-0.6-0.872-0.032-0.034-0.093-0.098-0.154-0.137-0.017-0.011-0.034-0.020-0.051-0.025-0.010-0.003-0.018-0.005-0.027-0.002-0.014 0.005-0.029 0.021-0.045 0.038-0.031 0.035-0.059 0.079-0.072 0.104-0.035 0.069-0.068 0.14-0.098 0.212-0.029 0.069-0.070 0.11-0.117 0.132-0.068 0.032-0.151 0.023-0.239-0.018-0.065-0.030-0.167-0.078-0.304-0.144-0.053-0.025-0.101-0.057-0.132-0.099-0.010 0.002-0.020 0.003-0.030 0.003l0.021-0.016c-0.025-0.040-0.035-0.088-0.021-0.148v-0c0.002-0.007 0.014-0.039 0.037-0.095 0.101-0.243 0.187-0.492 0.259-0.745 0.016-0.057 0.038-0.128 0.040-0.193 0.002-0.049-0.008-0.095-0.055-0.12-0.15-0.080-0.349-0.111-0.526-0.145-0.041-0.008-0.069-0.031-0.081-0.057-0.014-0.029-0.014-0.066 0.015-0.105 0.080-0.108 0.16-0.212 0.242-0.313 0.018-0.022 0.045-0.035 0.073-0.034 0.040 0.001 0.081 0.002 0.122 0.003 0.56 0.016 1.12 0.031 1.68 0.047 0.028 0.001 0.049 0.010 0.065 0.024s0.028 0.035 0.031 0.063c0.017 0.154 0.108 0.289 0.192 0.415 0.133 0.199 0.272 0.396 0.397 0.6 0.114 0.187 0.225 0.376 0.332 0.567 0.117 0.207 0.223 0.375 0.358 0.539 0.075-0.078 0.154-0.151 0.237-0.219 0.11-0.089 0.212-0.141 0.34-0.069 0.027 0.015 0.065 0.048 0.11 0.099 0.037 0.042 0.075 0.083 0.112 0.125 0.040 0.044 0.076 0.084 0.102 0.124 0.031 0.049 0.048 0.098 0.043 0.152-0.004 0.044-0.023 0.093-0.066 0.148-0.268 0.346-0.285 0.796-0.133 1.197 0.156 0.413 0.316 0.824 0.413 1.256 0.014 0.061-0.007 0.118-0.073 0.132-0.153 0.033-0.29 0.116-0.412 0.209-0.054 0.041-0.107 0.084-0.158 0.129 0.074-0.025 0.153-0.040 0.235-0.045 0.022-0.001 0.044-0.002 0.067-0.002l0.023 0c0.085-0.059 0.178-0.109 0.281-0.131 0.071-0.015 0.121-0.052 0.155-0.098 0.046-0.061 0.064-0.144 0.044-0.232-0.099-0.439-0.261-0.858-0.42-1.278-0.132-0.348-0.124-0.738 0.109-1.038 0.067-0.086 0.093-0.164 0.1-0.233 0.003-0.027 0.002-0.053-0.001-0.079 0.038 0.007 0.077 0.009 0.119 0.004 0.061-0.007 0.134-0.047 0.194-0.074 0.014 0.025 0.026 0.052 0.039 0.077 0.209 0.417 0.41 0.838 0.603 1.262 0.112 0.247 0.226 0.505 0.299 0.767 0.040 0.142-0.006 0.232-0.1 0.339-0.141 0.16-0.307 0.302-0.47 0.44-0.1 0.084-0.124 0.164-0.12 0.237 0.001 0.022 0.005 0.048 0.016 0.077 0.064 0.020 0.126 0.050 0.181 0.090 0 0 0.213 0.15 0.213 0.15 0.005-0.003 0.011-0.005 0.016-0.008-0.003-0.003-0.007-0.005-0.010-0.009-0.043-0.043-0.113-0.119-0.211-0.227-0.030-0.034-0.040-0.060-0.042-0.082-0.002-0.033 0.016-0.064 0.061-0.102 0.169-0.142 0.341-0.29 0.488-0.457 0.136-0.154 0.193-0.287 0.135-0.492-0.076-0.269-0.192-0.536-0.308-0.79-0.194-0.426-0.396-0.849-0.606-1.268-0.017-0.035-0.034-0.072-0.056-0.105-0.017-0.026-0.038-0.050-0.067-0.063-0.031-0.014-0.063-0.013-0.096 0-0.052 0.021-0.122 0.069-0.18 0.076-0.086 0.011-0.153-0.029-0.212-0.092s-0.117-0.126-0.175-0.189c-0.055-0.060-0.088-0.106-0.1-0.136-0.048-0.116-0.003-0.21 0.081-0.291 0.071-0.069 0.136-0.144 0.193-0.226 0.111-0.157 0.202-0.306 0.271-0.447 0.018-0.037 0.005-0.075-0.017-0.109-0.044-0.070-0.127-0.129-0.18-0.16-0.156-0.090-0.316-0.175-0.478-0.254-0.033-0.016-0.053-0.038-0.063-0.061-0.011-0.026-0.011-0.059 0.013-0.096 0.059-0.093 0.119-0.186 0.18-0.279 0.022-0.033 0.063-0.048 0.101-0.036 0.070 0.022 0.142 0.041 0.215 0.054 0.286 0.052 0.575 0.071 0.866 0.055 0.156-0.008 0.314-0.031 0.46-0.090 0.017-0.007 0.044-0.009 0.077 0.006 0.050 0.023 0.127 0.065 0.233 0.125 0.031 0.018 0.047 0.038 0.054 0.060 0.007 0.021 0.007 0.046-0.005 0.078-0.15 0.424 0.017 0.958 0.211 1.343 0.057 0.114 0.154 0.279 0.224 0.419 0.288 0.572 0.549 1.157 0.783 1.754 0.080 0.205 0.144 0.415 0.192 0.631 0.025 0.114 0.055 0.199 0.121 0.292 0.105 0.147 0.254 0.245 0.405 0.342 0.162 0.103 0.327 0.204 0.453 0.348 0.026 0.030 0.031 0.062 0.018 0.095-0.027 0.068-0.055 0.136-0.083 0.204-0.015 0.035-0.033 0.055-0.054 0.066-0.022 0.012-0.050 0.015-0.089 0.003-0.489-0.155-0.991-0.227-1.505-0.217-0.24 0.005-0.496 0.033-0.735 0.105zM14.484 11.080c0.126-0.060 0.258-0.093 0.398-0.098 0.107-0.004 0.195 0.023 0.25 0.114 0.048 0.079 0.080 0.168 0.096 0.265 0.020 0.121 0.026 0.214-0.062 0.297-0.033 0.031-0.083 0.051-0.127 0.071-0.045 0.021-0.084 0.063-0.118 0.111-0.058 0.083-0.101 0.185-0.133 0.258-0.020 0.047-0.061 0.147-0.121 0.299-0.016 0.042-0.050 0.091-0.115 0.081-0.162-0.025-0.315-0.029-0.482-0.018-0.15 0.009-0.268 0.019-0.353 0.029-0.079 0.009-0.149 0.008-0.211-0.003-0.045-0.008-0.081-0.039-0.106-0.082-0.152-0.255-0.2-0.546-0.103-0.827 0.052-0.152 0.124-0.261 0.229-0.402 0.175-0.235 0.304-0.493 0.404-0.771 0.043-0.121 0.102-0.196 0.234-0.21 0.047-0.005 0.1 0.006 0.153 0.027 0.069 0.027 0.139 0.070 0.194 0.102 0.079 0.047 0.129 0.098 0.15 0.164 0.014 0.044 0.014 0.097-0.003 0.161-0.031 0.117-0.066 0.213-0.103 0.289-0.023 0.047-0.047 0.094-0.070 0.14zM13.565 12.296c0.007 0.001 0.023 0.004 0.034 0.004 0.035 0.001 0.072-0.002 0.082-0.003 0.294-0.032 0.546-0.054 0.824-0.023 0.064-0.168 0.131-0.335 0.221-0.494 0.066-0.115 0.157-0.198 0.273-0.251 0.021-0.010 0.035-0.017 0.041-0.029 0.004-0.008 0.004-0.018 0.003-0.029-0.001-0.020-0.005-0.043-0.009-0.069-0.010-0.064-0.030-0.125-0.060-0.182-0.013-0.024-0.027-0.042-0.055-0.042-0.233 0.003-0.397 0.094-0.583 0.225-0.041 0.029-0.078 0.026-0.106 0.011-0.039-0.020-0.064-0.073-0.046-0.131 0.074-0.233 0.223-0.428 0.28-0.666 0.010-0.040 0.019-0.073-0.016-0.096-0.066-0.044-0.139-0.084-0.219-0.118-0.027-0.012-0.049-0.015-0.067-0.006-0.020 0.010-0.032 0.033-0.043 0.062-0.117 0.318-0.261 0.61-0.467 0.875 0 0-0.050 0.071-0.050 0.071-0.191 0.279-0.217 0.601-0.038 0.892zM5.935 13.746c-0-0.005 0.008-0.115 0.016-0.161v-0l0.022-0.123c0-0.001 0.001-0.003 0.001-0.004 0.078-0.304 0.204-0.581 0.311-0.874 0.087-0.238 0.184-0.471 0.29-0.701 0.014-0.031 0.025-0.063 0.031-0.097 0.003-0.016-0.008-0.024-0.020-0.031s-0.025-0.012-0.039-0.017c-0.001-0-0.002-0.001-0.003-0.001-0.092-0.042-0.183-0.084-0.274-0.126-0.019-0.009-0.036-0.018-0.053-0.024-0.006-0.002-0.015-0.004-0.018-0.004-0.001 0.001-0.002 0.003-0.003 0.004-0.003 0.005-0.006 0.011-0.009 0.018-0.066 0.172-0.178 0.416-0.264 0.655-0.074 0.207-0.147 0.414-0.218 0.623-0 0-0 0-0 0.001-0.144 0.41-0.308 0.846-0.535 1.229-0.153 0.258-0.389 0.467-0.637 0.639l0.026 0.049c0.109-0.075 0.226-0.133 0.35-0.182 0.294-0.117 0.599-0.185 0.915-0.204 0.171-0.011 0.342-0.007 0.513 0.012v-0.014c-0.122-0.065-0.244-0.162-0.313-0.276-0.068-0.112-0.083-0.186-0.090-0.389zM28.471 21.035c-8.253-2.732-16.468-2.743-24.903 0l0.51 2.216c0 0 5.896-1.865 11.877-1.876 6.524-0.012 11.961 1.876 11.961 1.876l0.555-2.216zM21.587 20.958c0.264 0.037 0.528 0.074 0.792 0.11 0.013 0.002 0.025 0 0.038-0.001 0.003-0 0.006-0.002 0.008-0.003 0.014-0.014 0.025-0.030 0.032-0.049 0.001-0.003 0.003-0.004 0.006-0.004l0.028 0.003c0.003 0 0.005 0.003 0.004 0.006l-0.063 0.453c-0.001 0.006-0.007 0.011-0.013 0.010-0.001-0-0.001-0-0.002-0l-0.015-0.005c-0.003-0.001-0.005-0.003-0.006-0.007-0.010-0.039-0.013-0.063-0.060-0.069-0.416-0.058-0.832-0.115-1.248-0.173-0.003-0-0.005-0.002-0.005-0.005-0.004-0.044 0.030-0.031 0.051-0.043 0.026-0.014 0.031-0.060 0.034-0.086 0.057-0.436 0.099-0.746 0.127-0.931 0.014-0.092 0.037-0.188 0.024-0.242-0.001-0.003-0.003-0.006-0.006-0.008l-0.043-0.026c-0.002-0.001-0.002-0.003-0.002-0.004l0.003-0.026c0-0.004 0.003-0.005 0.006-0.005 0.409 0.056 0.818 0.113 1.227 0.169 0.021 0.003 0.042 0.003 0.063 0.002 0.003-0 0.005-0.002 0.006-0.004l0.034-0.050c0.001-0.002 0.003-0.003 0.005-0.002l0.024 0.003c0.003 0 0.004 0.002 0.004 0.005l-0.063 0.459c-0.001 0.005-0.003 0.006-0.007 0.005l-0.027-0.008c-0.003-0.001-0.005-0.004-0.005-0.007 0.002-0.053-0.028-0.064-0.075-0.071l-0.777-0.108c-0.003-0-0.005 0.001-0.005 0.004l-0.028 0.198c-0 0.003 0.001 0.005 0.004 0.005 0.168 0.023 0.335 0.052 0.503 0.068 0.025 0.002 0.041-0.033 0.050-0.050 0.002-0.003 0.004-0.004 0.007-0.004h0.025c0.005 0 0.008 0.003 0.007 0.008l-0.055 0.403c-0.001 0.005-0.003 0.006-0.008 0.005l-0.029-0.007c-0.003-0.001-0.005-0.003-0.006-0.007-0.006-0.038-0.011-0.063-0.052-0.068-0.161-0.022-0.322-0.045-0.483-0.067-0.003-0-0.005 0.001-0.005 0.004l-0.030 0.216c-0 0.003 0.001 0.005 0.004 0.005zM7.104 21.739c0.112-0.018 0.374-0.077 0.322-0.246-0.027-0.087-0.127-0.092-0.201-0.086-0.104 0.009-0.207 0.019-0.31 0.031-0.155 0.018-0.341 0.017-0.48-0.060-0.156-0.086-0.196-0.292-0.114-0.441 0.162-0.297 0.659-0.363 0.96-0.327 0.066 0.008 0.131 0.015 0.197 0.022 0.043 0.004 0.076-0.010 0.099-0.044 0.001-0.002 0.004-0.003 0.006-0.002l0.020 0.005c0.005 0.001 0.007 0.005 0.006 0.010l-0.103 0.384c0 0-0 0-0 0-0.001 0.004-0.005 0.006-0.009 0.004-0 0-0 0-0-0l-0.024-0.009c-0.003-0.001-0.005-0.005-0.004-0.008 0.014-0.070-0.083-0.092-0.133-0.1-0.179-0.028-0.354-0.015-0.528 0.038-0.064 0.020-0.151 0.067-0.17 0.131-0.035 0.122 0.141 0.114 0.203 0.108 0.212-0.023 0.432-0.060 0.641-0.028 0.144 0.022 0.251 0.093 0.298 0.239 0.117 0.361-0.257 0.574-0.546 0.638-0.264 0.058-0.53 0.060-0.799 0.007-0.007-0.001-0.014 0.002-0.019 0.007l-0.028 0.041c-0.002 0.003-0.005 0.003-0.008 0.003l-0.021-0.007c-0.005-0.002-0.006-0.005-0.005-0.010l0.114-0.441c0.001-0.004 0.003-0.005 0.007-0.005l0.023 0.001c0.002 0 0.005 0.002 0.005 0.004 0 0 0 0.001 0 0.001-0.007 0.103 0.172 0.135 0.246 0.144 0.118 0.015 0.236 0.013 0.354-0.006zM10.606 20.492c0.119-0.017 0.238-0.035 0.358-0.051 0.046-0.006 0.092-0.014 0.138-0.024 0.033-0.007 0.036-0.034 0.041-0.062 0.001-0.004 0.003-0.007 0.007-0.008l0.017-0.006c0.001-0 0.002-0 0.002-0.001 0.007-0.001 0.014 0.004 0.015 0.011l0.058 0.394c0.001 0.005-0.001 0.008-0.007 0.008l-0.024 0.002c-0.003 0-0.006-0.001-0.008-0.003-0.024-0.033-0.025-0.059-0.076-0.052-0.209 0.031-0.369 0.054-0.478 0.071-0.003 0-0.004 0.002-0.004 0.005l0.028 0.212c0.001 0.006 0.004 0.008 0.010 0.007l0.792-0.117c0.038-0.006 0.056-0.029 0.054-0.069-0-0.003 0.002-0.006 0.005-0.007l0.027-0.007c0 0 0-0 0-0 0.004-0.001 0.007 0.002 0.008 0.005 0 0 0 0 0 0l0.066 0.454c0 0.003-0.001 0.005-0.004 0.007-0.032 0.015-0.045-0.023-0.059-0.043-0.002-0.002-0.004-0.004-0.007-0.005-0.015-0.005-0.031-0.006-0.047-0.003-0.415 0.061-0.829 0.122-1.244 0.184-0.003 0-0.005-0.001-0.005-0.004 0-0 0-0 0-0l-0.002-0.029c-0-0.004 0.002-0.007 0.006-0.008 0.049-0.012 0.051-0.043 0.044-0.088-0.057-0.384-0.114-0.769-0.17-1.154-0.007-0.046-0.033-0.043-0.068-0.054-0.003-0.001-0.005-0.003-0.005-0.006l-0.006-0.023c0-0 0-0-0-0-0.001-0.003 0.002-0.007 0.005-0.008 0-0 0-0 0-0 0.412-0.061 0.825-0.122 1.237-0.182 0.051-0.007 0.065-0.026 0.070-0.076 0-0.003 0.002-0.005 0.005-0.006l0.026-0.004c0.004-0.001 0.006 0.001 0.006 0.005l0.066 0.446v0c0.002 0.011-0.006 0.020-0.016 0.022-0.008 0.001-0.016-0.003-0.020-0.010-0.017-0.030-0.029-0.056-0.069-0.050-0.268 0.037-0.535 0.077-0.803 0.118-0.004 0.001-0.005 0.003-0.005 0.007l0.029 0.196c0.001 0.003 0.002 0.004 0.005 0.004zM14.574 20.475c-0.004 0-0.007 0.003-0.007 0.007 0.003 0.126 0.006 0.252 0.010 0.378 0.001 0.021 0.003 0.041 0.008 0.060 0.001 0.002 0.002 0.005 0.005 0.006l0.054 0.022c0.002 0.001 0.004 0.003 0.004 0.005l0.001 0.026c0 0.003-0.001 0.005-0.004 0.005l-0.518 0.012c-0.004 0-0.006-0.002-0.006-0.006l0.002-0.027c0-0.003 0.002-0.005 0.005-0.006 0.025-0.007 0.059-0.020 0.058-0.052-0.009-0.401-0.019-0.801-0.029-1.202-0.002-0.061-0.051-0.037-0.066-0.066-0.004-0.008-0.004-0.017 0-0.025 0.001-0.003 0.004-0.004 0.007-0.005 0.318-0.008 0.637-0.015 0.955-0.023 0.232-0.006 0.484 0.060 0.549 0.319s-0.074 0.47-0.325 0.541c-0.006 0.002-0.007 0.005-0.004 0.010 0.073 0.112 0.146 0.221 0.22 0.328 0.048 0.071 0.075 0.108 0.152 0.141 0.003 0.001 0.004 0.003 0.005 0.006l0.002 0.012c0 0 0 0.001 0 0.001 0.001 0.008-0.005 0.016-0.014 0.017-0 0-0.001 0-0.001 0l-0.537 0.013c-0.003 0-0.006-0.002-0.007-0.005-0.023-0.050 0.082-0.033 0.018-0.125-0.085-0.123-0.168-0.246-0.251-0.37-0.002-0.002-0.004-0.003-0.007-0.003l-0.277 0.005zM14.553 19.884l0.008 0.306c0 0.002 0.002 0.004 0.004 0.004l0.42-0.012c0.124-0.003 0.224-0.068 0.222-0.143l-0.001-0.040c-0.002-0.075-0.106-0.135-0.229-0.131l-0.42 0.012c-0.002 0-0.004 0.002-0.004 0.004zM18.143 19.599c0-0.003 0.002-0.005 0.005-0.005l0.516 0.021c0.003 0 0.005 0.002 0.006 0.005l0.002 0.022c0 0.004-0.002 0.007-0.006 0.008-0.040 0.011-0.066 0.024-0.068 0.070-0.017 0.398-0.034 0.796-0.049 1.194-0.001 0.026 0.033 0.044 0.061 0.054 0.003 0.001 0.005 0.003 0.005 0.006l0.002 0.016c0.001 0.010-0.003 0.015-0.014 0.015l-0.505-0.021c-0.008-0-0.012-0.005-0.012-0.013l0.002-0.015c0-0.004 0.002-0.006 0.006-0.007 0.022-0.008 0.062-0.020 0.063-0.049 0.013-0.33 0.027-0.66 0.041-0.99 0.005-0.111 0.007-0.19 0.008-0.239 0-0.004-0.001-0.007-0.004-0.009-0.016-0.014-0.034-0.025-0.054-0.032-0.004-0.001-0.006-0.005-0.006-0.008l0.002-0.023zM25.094 20.916c0.094-0.279 0.446-0.285 0.677-0.232 0.162 0.037 0.313 0.1 0.452 0.19 0.057 0.037 0.114 0.073 0.172 0.109 0.035 0.022 0.070 0.024 0.105 0.007 0.002-0.001 0.005-0.001 0.008-0.001 0.020 0.007 0.022 0.019 0.008 0.035-0.075 0.086-0.151 0.172-0.226 0.258-0.011 0.013-0.021 0.023-0.028 0.030-0.003 0.003-0.005 0.003-0.008 0l-0.019-0.019c-0.002-0.002-0.002-0.006-0-0.008 0.047-0.055-0.040-0.126-0.081-0.154-0.157-0.109-0.325-0.175-0.503-0.198-0.049-0.006-0.156 0.003-0.193 0.051-0.071 0.093 0.064 0.155 0.133 0.181 0.092 0.034 0.183 0.068 0.275 0.102 0.163 0.060 0.413 0.17 0.468 0.354 0.050 0.168-0.038 0.352-0.186 0.439-0.16 0.095-0.386 0.091-0.564 0.047-0.263-0.064-0.501-0.177-0.715-0.34-0.025-0.019-0.043-0.019-0.065 0.002-0 0-0.001 0.001-0.001 0.001-0.019 0.010-0.032 0.005-0.040-0.013-0.001-0.003-0.001-0.006 0.001-0.009l0.298-0.345c0.002-0.002 0.004-0.003 0.007-0.001l0.019 0.010c0.003 0.002 0.004 0.004 0.003 0.008-0.037 0.085 0.058 0.167 0.118 0.211 0.12 0.088 0.252 0.151 0.395 0.19 0.093 0.025 0.257 0.062 0.334-0.021 0.053-0.057 0.037-0.142-0.027-0.186-0.046-0.031-0.095-0.055-0.148-0.074-0.246-0.086-0.795-0.244-0.667-0.624zM17.24 12.63c0.1 0.037 0.22 0.010 0.288-0.068 0.038-0.043 0.078-0.098 0.12-0.164 0.044-0.069 0.050-0.121 0.047-0.167-0.003-0.042-0.014-0.087-0.053-0.145-0.34-0.504-0.588-1.054-0.773-1.644-0.101-0.321-0.181-0.652-0.252-0.986-0.021-0.096-0.057-0.133-0.131-0.191-0.096-0.077-0.192-0.154-0.288-0.232l-0-0c-0.087-0.070-0.175-0.075-0.254-0.047-0.128 0.045-0.25 0.072-0.366 0.082-0.178 0.015-0.357 0.017-0.536 0.008-0.391-0.021-0.791-0.069-1.172-0.162l-0-0c-0.095-0.023-0.195 0.009-0.258 0.083l-0 0c-0.065 0.076-0.129 0.153-0.192 0.231-0.022 0.028-0.046 0.064-0.060 0.099-0.024 0.062-0.024 0.125-0.004 0.181s0.060 0.12 0.159 0.156c0.467 0.171 0.935 0.347 1.39 0.548 0.029 0.013 0.097 0.040 0.152 0.070 0.003 0.002 0.006 0.003 0.009 0.005 0.040 0.087 0.080 0.18 0.118 0.282 0.122 0.322 0.224 0.643 0.304 0.965 0.025 0.101 0.045 0.203 0.058 0.306 0.007 0.060 0.019 0.123-0.021 0.17-0.031 0.035-0.053 0.080-0.059 0.128-0.010 0.077 0.010 0.146 0.058 0.205 0.060 0.075 0.122 0.148 0.186 0.219 0.061 0.069 0.131 0.094 0.196 0.095 0.053 0.001 0.113-0.012 0.176-0.068 0.137-0.123 0.356-0.122 0.535-0.106 0.213 0.019 0.42 0.068 0.62 0.147l0 0 0.001 0c0.005 0.002 0.004 0.002 0.004 0.001zM17.348 12.482c-0.017 0.002-0.035 0-0.051-0.006l-0-0c-0.215-0.086-0.437-0.139-0.667-0.159-0.221-0.019-0.488-0.005-0.659 0.147-0.023 0.020-0.044 0.026-0.064 0.026-0.025-0-0.051-0.013-0.075-0.040-0.062-0.069-0.122-0.14-0.181-0.213-0.019-0.023-0.027-0.050-0.022-0.081 0.002-0.014 0.008-0.028 0.017-0.037 0.074-0.083 0.076-0.194 0.063-0.302-0.014-0.11-0.034-0.218-0.061-0.325-0.082-0.328-0.186-0.655-0.31-0.983-0.046-0.12-0.092-0.23-0.141-0.33 0 0-0.008-0.008-0.014-0.013-0.013-0.010-0.029-0.019-0.047-0.029-0.059-0.032-0.133-0.062-0.164-0.076-0.458-0.202-0.93-0.379-1.4-0.552-0.037-0.014-0.053-0.035-0.061-0.057s-0.006-0.043 0.003-0.066c0.008-0.020 0.022-0.040 0.034-0.055 0.062-0.077 0.125-0.153 0.189-0.227 0.023-0.027 0.060-0.039 0.094-0.030 0.391 0.095 0.801 0.145 1.203 0.166 0.186 0.010 0.372 0.007 0.558-0.008 0.129-0.011 0.264-0.041 0.407-0.090 0.030-0.011 0.063-0.007 0.097 0.020 0.096 0.077 0.192 0.154 0.288 0.232 0.038 0.031 0.062 0.047 0.073 0.097 0.072 0.339 0.154 0.675 0.256 1 0.19 0.605 0.444 1.169 0.794 1.686 0.017 0.025 0.024 0.044 0.025 0.063 0.001 0.020-0.004 0.041-0.022 0.070-0.022 0.035-0.165 0.186-0.161 0.171zM13.77 9.372c0.465 0.171 0.933 0.348 1.383 0.556 0.031 0.014 0.101 0.046 0.147 0.078 0.028 0.019 0.048 0.040 0.057 0.058 0.053 0.103 0.104 0.218 0.153 0.345 0.122 0.318 0.224 0.633 0.306 0.943 0.036 0.137 0.065 0.276 0.085 0.416 0.020 0.136 0.014 0.282-0.048 0.403l0.070 0.083c0.153-0.098 0.334-0.135 0.525-0.137 0.295-0.003 0.579 0.046 0.853 0.149l0.015-0.020c-0.286-0.433-0.514-0.891-0.686-1.375-0.152-0.428-0.269-0.873-0.361-1.317l-0.258-0.206c-0.306 0.098-0.649 0.106-0.964 0.089l-0.062-0.003c-0-0-0-0-0.001-0-0.327-0.019-0.65-0.058-0.969-0.118-0.056-0.011-0.112-0.023-0.167-0.036l-0.076 0.092zM7.008 14.694c0.256-0.004 0.626-0.009 0.73-0.010 0.005-0 0.010-0 0.015 0s0.008-0 0.012-0h0.001c0.149-0.003 0.273 0.034 0.376 0.093 0.019-0.010 0.038-0.019 0.057-0.028 0.085-0.036 0.162-0.055 0.231-0.063-0.013-0.166-0.043-0.332-0.079-0.493-0.151-0.692-0.37-1.377-0.699-2.006-0.088-0.169-0.186-0.334-0.298-0.49l-0.016 0.017-0.024 0.023-0.018 0.015 0 0.021c-0 0.133-0.028 0.253-0.078 0.363-0.107 0.234-0.199 0.456-0.276 0.667l-0 0c-0.075 0.205-0.161 0.406-0.234 0.612-0.040 0.112-0.107 0.244-0.085 0.364 0.015 0.009 0.040 0.024 0.055 0.030 0.199 0.084 0.334 0.274 0.347 0.489v0.001c0.005 0.083 0.006 0.167 0.003 0.253-0.002 0.053-0.009 0.1-0.020 0.142zM26.823 10.492c0.039 0.031 0.084 0.048 0.131 0.062s0.13 0.040 0.188 0.047c0.084 0.011 0.15-0.011 0.187-0.033 0-0 0.002-0.001 0.002-0.001 0.041-0.025 0.071-0.060 0.091-0.104 0-0.001 0.001-0.002 0.001-0.003 0.016-0.038 0.025-0.085 0.034-0.115 0.057-0.187 0.137-0.37 0.24-0.549 0.029-0.050 0.060-0.094 0.093-0.131 0.049-0.054 0.066-0.1 0.075-0.141 0.010-0.046 0.007-0.092-0.012-0.162-0.035-0.139-0.073-0.277-0.113-0.415-0.032-0.111-0.104-0.164-0.177-0.186-0.068-0.021-0.154-0.019-0.243 0.047l-0 0c-0.24 0.178-0.524 0.19-0.805 0.125-0.124-0.029-0.259-0.066-0.374-0.084-0.172-0.028-0.338-0.038-0.499-0.030-0.739 0.037-1.367 0.532-1.566 1.249-0.199 0.718 0.056 1.625 0.6 2.136 0.379 0.356 0.838 0.516 1.376 0.48 0.162-0.011 0.323-0.031 0.483-0.060 0.537-0.096 1.064-0.243 1.574-0.438 0.088-0.034 0.162-0.072 0.209-0.152 0.072-0.12 0.145-0.241 0.217-0.361 0.056-0.093 0.063-0.191 0.028-0.268-0.020-0.043-0.053-0.088-0.117-0.123-0.048-0.026-0.151-0.034-0.202-0.019-0.090 0.027-0.18 0.054-0.27 0.080-0.397 0.118-0.789 0.165-1.224 0.19-0.285 0.016-0.642 0.016-0.876-0.171s-0.244-0.517-0.211-0.8c0.012-0.107 0.045-0.213 0.095-0.319 0.059-0.123 0.156-0.268 0.28-0.359 0.059-0.043 0.125-0.075 0.198-0.070 0.118 0.008 0.255 0.014 0.346 0.097 0.111 0.101 0.136 0.289 0.154 0.43l0 0.002c0.003 0.025 0.001 0.005 0 0.001 0.008 0.057 0.037 0.109 0.082 0.146l0.105 0.038-0.104-0.037 0.001 0.001c0.008 0.007 0.003 0.002 0.001 0.001zM27.163 10.437c-0.025-0.003-0.217-0.058-0.237-0.074l-0-0c-0.013-0.011-0.021-0.026-0.024-0.042v-0c-0.023-0.175-0.068-0.405-0.207-0.531-0.118-0.107-0.292-0.128-0.445-0.139-0.112-0.008-0.216 0.034-0.307 0.101-0.146 0.107-0.261 0.276-0.331 0.42-0.059 0.123-0.096 0.246-0.111 0.371-0.039 0.336-0.008 0.723 0.272 0.947 0.265 0.212 0.666 0.226 0.988 0.207 0.449-0.026 0.852-0.075 1.262-0.196 0.090-0.027 0.18-0.054 0.27-0.081 0.019-0.006 0.058-0.004 0.076 0.005 0.025 0.014 0.039 0.030 0.046 0.047 0.015 0.033 0.006 0.074-0.019 0.114-0.073 0.12-0.146 0.241-0.218 0.362-0.028 0.047-0.075 0.063-0.127 0.083-0.5 0.192-1.017 0.335-1.544 0.43-0.154 0.028-0.309 0.047-0.465 0.057-0.49 0.033-0.907-0.112-1.252-0.436-0.503-0.472-0.738-1.309-0.554-1.972 0.179-0.647 0.748-1.094 1.415-1.128 0.15-0.008 0.305 0.002 0.464 0.028 0.111 0.018 0.243 0.055 0.363 0.082 0.329 0.076 0.66 0.055 0.94-0.153 0.036-0.026 0.070-0.030 0.097-0.022 0.028 0.009 0.055 0.032 0.067 0.075 0.040 0.136 0.077 0.273 0.112 0.41 0.010 0.038 0.015 0.062 0.010 0.087-0.004 0.019-0.014 0.040-0.036 0.065-0.041 0.045-0.078 0.098-0.113 0.159-0.109 0.19-0.194 0.384-0.255 0.583-0.008 0.025-0.014 0.066-0.028 0.098-0 0-0 0-0 0.001-0.006 0.013-0.015 0.023-0.027 0.031l-0 0c-0.006 0.004-0.043 0.012-0.043 0.012-0.011 0.001-0.024 0.001-0.038-0.001zM27.085 10.215l0.031 0.008c0.056-0.179 0.133-0.359 0.231-0.539 0.050-0.092 0.102-0.172 0.156-0.24l-0.074-0.272c-0.262 0.15-0.559 0.19-0.858 0.139l-0.001-0c-0.070-0.009-0.14-0.023-0.211-0.043-0.105-0.026-0.216-0.056-0.319-0.070-0.366-0.051-0.71-0.012-1.030 0.186-0.532 0.331-0.713 0.923-0.61 1.523 0.059 0.35 0.212 0.698 0.456 0.959 0.325 0.349 0.735 0.493 1.209 0.454 0.192-0.016 0.383-0.044 0.572-0.085 0 0 0.001-0 0.001-0 0.448-0.090 0.894-0.218 1.338-0.384 0.027-0.010 0.041-0.015 0.057-0.041 0.026-0.043 0.052-0.086 0.079-0.13-0.245 0.072-0.465 0.122-0.71 0.154-0.119 0.015-0.238 0.028-0.358 0.038-0 0-0.001 0-0.001 0l-0.4 0.027c-0.001 0-0.003 0-0.004 0l-0.126-0.001c-0 0-0.001 0-0.001 0-0.427-0.010-0.87-0.127-1.088-0.531-0.124-0.231-0.141-0.509-0.126-0.766 0.020-0.329 0.159-0.635 0.383-0.877 0.099-0.107 0.22-0.198 0.359-0.244 0.11-0.036 0.229-0.033 0.343-0.014 0.081 0.008 0.16 0.025 0.238 0.052 0 0 0.001 0 0.001 0 0.309 0.111 0.417 0.402 0.464 0.695zM15.254 13.253c-0.018-0.016-0.042-0.029-0.076-0.029h-0.136c-0.035 0-0.060 0.013-0.078 0.030s-0.034 0.042-0.036 0.077c0-0.001-0.026 0.373-0.026 0.373-0.003 0.039 0.012 0.067 0.030 0.087s0.045 0.036 0.084 0.036h0.125c0.031 0 0.055-0.011 0.074-0.026 0.006-0.005 0.012-0.011 0.018-0.018l-0 0.6c0 0-0.005 0-0.005 0-0.036 0.001-0.062 0.016-0.080 0.034s-0.033 0.044-0.033 0.080c0-0.001-0.001 0.142-0.001 0.142-0.001 0.060 0.049 0.113 0.111 0.114 0 0 0.001 0 0.002 0h0.633c0.037 0 0.063-0.015 0.081-0.033s0.033-0.044 0.033-0.081v-0l-0-0.14c0-0.038-0.015-0.064-0.034-0.082s-0.044-0.033-0.080-0.033v-0.599c0.005 0.006 0.010 0.012 0.016 0.016 0.019 0.016 0.043 0.027 0.075 0.027h0.126c0.029 0 0.051-0.009 0.068-0.022l0 0.622c-0.014 0.006-0.026 0.015-0.036 0.024-0.019 0.018-0.033 0.044-0.033 0.081v0.102c0 0.065 0.055 0.118 0.119 0.118l0.472-0.003c0.021 0 0.039-0.005 0.054-0.013 0.016 0.010 0.035 0.016 0.060 0.016h0.001l0.473-0.003c0 0 0.001 0 0.001 0 0.037-0.001 0.062-0.016 0.080-0.034s0.033-0.044 0.033-0.081v-0.094c0.054 0.081 0.127 0.142 0.208 0.182 0.251 0.124 0.602 0.051 0.808-0.227l0-0c0.019-0.026 0.025-0.052 0.023-0.077s-0.010-0.049-0.031-0.073l-0.063-0.068c-0.027-0.029-0.057-0.038-0.084-0.038s-0.057 0.007-0.084 0.036c-0 0-0 0-0.001 0.001-0.050 0.053-0.125 0.074-0.186 0.054 0.153-0.056 0.37-0.136 0.37-0.136s0.001-0 0.001-0c0.045-0.017 0.075-0.061 0.075-0.109 0-0.015-0.003-0.030-0.009-0.045-0.002-0.004-0.003-0.009-0.006-0.016l-0-0c-0.094-0.268-0.264-0.448-0.568-0.44-0.251 0.007-0.447 0.168-0.523 0.387-0-0.012-0-0.023-0-0.033-0.002-0.132-0.055-0.225-0.133-0.283-0.074-0.056-0.175-0.081-0.288-0.069-0.060 0.007-0.117 0.026-0.17 0.053v-0.078c0.041-0.018 0.068-0.059 0.068-0.105v-0.115c0-0.050-0.024-0.079-0.049-0.096s-0.058-0.031-0.106-0.014l-0 0-0.454 0.157-0.004-0.058c0-0 0-0.001-0-0.001-0.003-0.034-0.018-0.058-0.036-0.075s-0.044-0.030-0.078-0.030h-0.136c-0.034 0-0.058 0.012-0.076 0.029l-0.587 0zM15.826 13.362h0.081c0.003 0 0.005-0.002 0.005-0.005v-0.019c0-0.003 0.002-0.005 0.005-0.005h0.136c0.003 0 0.005 0.002 0.005 0.005l0.026 0.375c0 0.003-0.001 0.004-0.004 0.004h-0.126c-0.004 0-0.006-0.002-0.007-0.006-0.018-0.105-0.072-0.182-0.189-0.174-0.004 0-0.005 0.002-0.005 0.006v0.947c0 0.003 0.001 0.004 0.004 0.004l0.103-0.002c0.004-0 0.006 0.002 0.006 0.006l0 0.14c0 0.003-0.002 0.005-0.005 0.005h-0.633c-0.002 0-0.003-0.001-0.003-0.003l0.001-0.143c0-0.003 0.002-0.005 0.005-0.005l0.107-0.001c0.003-0 0.005-0.002 0.005-0.005l0-0.946c0-0.003-0.002-0.005-0.005-0.005-0.123-0-0.167 0.065-0.189 0.176-0.001 0.004-0.003 0.005-0.007 0.005h-0.125c-0.004 0-0.005-0.002-0.005-0.005l0.026-0.374c0-0.003 0.002-0.005 0.005-0.005h0.136c0.003 0 0.004 0.002 0.004 0.005l-0 0.021c0 0.002 0.001 0.004 0.004 0.004l0.641-0-0.022-0.022 0-0.001 0.023 0.023zM17.316 14.435c-0.004-0.002-0.008-0.005-0.012-0.007 0-0.009 0-0.019 0-0.028 0.004 0.012 0.008 0.023 0.012 0.034zM16.738 14.034c0.001 0.132 0.002 0.263 0.003 0.393-0.005 0.002-0.010 0.004-0.014 0.007-0.005-0.003-0.010-0.005-0.015-0.007 0-0.127 0-0.255 0-0.383 0.001-0.001 0.002-0.001 0.003-0.002 0.006-0.004 0.016-0.007 0.023-0.008zM16.607 14.528l0.065 0.002c0.002 0 0.003 0.001 0.003 0.004l-0.001 0.103c-0 0.003-0.002 0.005-0.005 0.005l-0.472 0.003c-0.005 0-0.009-0.004-0.009-0.009v-0.102c0-0.003 0.002-0.005 0.005-0.005h0.058c0.003 0 0.006-0.003 0.006-0.006l-0-0.924c0-0.003-0.002-0.005-0.005-0.005-0.001 0-0.001 0-0.002 0l-0.053 0.018c-0.003 0.001-0.004-0-0.004-0.003v-0.109c0-0.002 0.001-0.003 0.003-0.004l0.465-0.16c0.006-0.002 0.009 0 0.009 0.006v0.115c0 0.002-0.001 0.004-0.003 0.005l-0.059 0.020c-0.003 0.001-0.005 0.003-0.005 0.007v0.355c0 0.002 0.002 0.004 0.004 0.004s0.002-0 0.003-0.001c0.080-0.072 0.175-0.138 0.286-0.151 0.165-0.018 0.296 0.062 0.299 0.245 0.002 0.084 0.002 0.278 0 0.583 0 0.004 0.002 0.005 0.006 0.005h0.057c0.004 0 0.006 0.002 0.006 0.006v0.101c0 0.004-0.002 0.005-0.005 0.005l-0.473 0.003c-0.004 0-0.006-0.002-0.006-0.006v-0.104c0-0.004 0.002-0.006 0.006-0.006h0.058c0.005 0 0.009-0.004 0.009-0.009-0.001-0.162-0.002-0.327-0.003-0.492-0.001-0.149-0.176-0.123-0.239-0.034-0.009 0.013-0.006 0.032-0.006 0.047 0 0.16 0 0.321-0 0.481 0 0.004 0.002 0.005 0.005 0.006zM18.299 14.432c-0.286 0.385-0.903 0.311-0.92-0.239-0.008-0.262 0.181-0.491 0.45-0.498 0.249-0.007 0.384 0.146 0.461 0.366 0.003 0.009 0.006 0.017 0.008 0.022 0 0.001 0.001 0.002 0.001 0.003 0 0.003-0.002 0.006-0.005 0.007l-0.522 0.192c-0.002 0.001-0.003 0.003-0.002 0.005 0.082 0.195 0.323 0.207 0.457 0.064 0.003-0.003 0.005-0.003 0.008 0l0.063 0.068c0.003 0.004 0.003 0.007 0.001 0.011zM17.843 13.86c-0.037-0.030-0.097-0.027-0.13 0.007-0.060 0.063-0.024 0.2-0.001 0.272 0.001 0.003 0.003 0.004 0.005 0.003l0.228-0.086c0.003-0.001 0.004-0.003 0.003-0.007-0.019-0.067-0.049-0.143-0.106-0.189zM17.791 13.996c-0-0.002-0-0.004-0.001-0.006-0.001-0.010-0.001-0.020-0.001-0.030 0.007 0.009 0.014 0.018 0.020 0.029l-0.018 0.007zM20.335 10.434c0.018 0.089 0.084 0.16 0.171 0.184l0 0c0.062 0.017 0.125 0.034 0.189 0.052 0.085 0.023 0.154 0.008 0.206-0.021 0.057-0.032 0.107-0.085 0.129-0.174 0.049-0.202 0.139-0.402 0.242-0.582 0.031-0.053 0.066-0.103 0.106-0.149l0-0c0.072-0.083 0.089-0.146 0.063-0.25l-0-0c-0.038-0.152-0.079-0.303-0.124-0.453l-0-0c-0.020-0.066-0.058-0.112-0.105-0.144-0.043-0.029-0.096-0.047-0.163-0.045h-0c-0.047 0.002-0.093 0.018-0.13 0.046-0.001 0-0.001 0.001-0.002 0.001-0.127 0.097-0.269 0.152-0.426 0.166-0.142 0.012-0.287-0.010-0.432-0.037-0.424-0.079-0.854-0.183-1.289-0.141-0.644 0.062-1.147 0.45-1.339 1.073-0.080 0.259-0.112 0.523-0.097 0.792 0.047 0.846 0.751 1.769 1.622 1.894 0.259 0.038 0.504-0.031 0.777-0.103 0.124-0.032 0.258-0.055 0.402-0.069 0.135-0.013 0.291 0.067 0.351 0.19 0.013 0.027 0.029 0.048 0.044 0.065 0.041 0.045 0.083 0.062 0.111 0.070 0.080 0.023 0.161 0.045 0.243 0.066 0.094 0.024 0.181 0.003 0.238-0.040 0.053-0.039 0.101-0.1 0.103-0.206 0.001-0.037-0.002-0.096-0.011-0.176-0.017-0.161-0.026-0.332 0.003-0.486 0.036-0.191 0.138-0.35 0.386-0.401 0.033-0.007 0.088-0.014 0.128-0.031 0.075-0.032 0.125-0.086 0.149-0.152 0.021-0.056 0.032-0.133-0.025-0.232-0.046-0.081-0.094-0.161-0.142-0.24-0.020-0.032-0.050-0.066-0.098-0.092-0.034-0.019-0.088-0.037-0.154-0.048-0.131-0.021-0.334-0.021-0.389-0.020-0.347 0.002-0.693 0.027-1.036 0.079-0.021 0.003-0.119 0.022-0.183 0.049-0.089 0.038-0.139 0.103-0.158 0.151v0c-0.024 0.061-0.047 0.123-0.069 0.185-0.044 0.121-0.007 0.212 0.045 0.271 0.049 0.056 0.13 0.1 0.242 0.086 0.036-0.005 0.084-0.004 0.131 0.005-0.171 0.060-0.363 0.088-0.542 0.060-0.382-0.060-0.486-0.414-0.519-0.752-0.011-0.113-0.011-0.218 0.001-0.314 0.036-0.292 0.231-0.595 0.535-0.663 0.139-0.031 0.305 0.013 0.45 0.051 0.188 0.049 0.3 0.168 0.34 0.359 0.009 0.042 0.017 0.084 0.025 0.126l0 0.001c0.005 0.024 0.001 0.004 0 0.001zM20.74 10.511c-0.034-0.009-0.175-0.048-0.189-0.052-0.027-0.007-0.048-0.030-0.054-0.058l-0-0c-0.008-0.042-0.017-0.085-0.026-0.129-0.054-0.259-0.205-0.418-0.459-0.484-0.17-0.044-0.364-0.089-0.528-0.052-0.371 0.082-0.618 0.447-0.662 0.803-0.013 0.107-0.013 0.223-0.001 0.35 0.040 0.412 0.192 0.825 0.658 0.899 0.215 0.034 0.448-0.002 0.651-0.077 0.039-0.014 0.093-0.040 0.133-0.076 0.028-0.025 0.050-0.056 0.036-0.093-0.020-0.050-0.066-0.084-0.119-0.107-0.092-0.040-0.206-0.047-0.285-0.038-0.045 0.005-0.078-0.009-0.098-0.032s-0.031-0.059-0.014-0.107c0.022-0.060 0.044-0.121 0.067-0.181 0.008-0.020 0.031-0.043 0.068-0.059 0.050-0.021 0.127-0.035 0.144-0.038 0.335-0.051 0.674-0.075 1.012-0.077 0.051-0 0.24-0.001 0.362 0.018 0.043 0.007 0.079 0.017 0.101 0.030 0.018 0.010 0.030 0.022 0.037 0.034 0.048 0.078 0.094 0.157 0.14 0.236 0.023 0.040 0.022 0.071 0.014 0.093-0.009 0.025-0.029 0.044-0.058 0.057s-0.072 0.016-0.097 0.021c-0.549 0.112-0.566 0.624-0.52 1.066 0.007 0.071 0.010 0.122 0.010 0.155-0.001 0.040-0.017 0.063-0.037 0.078-0.024 0.018-0.061 0.022-0.1 0.012-0.080-0.020-0.16-0.042-0.239-0.065-0.009-0.003-0.022-0.009-0.036-0.023-0.006-0.006-0.011-0.014-0.016-0.024-0.088-0.182-0.316-0.301-0.515-0.283-0.153 0.014-0.296 0.039-0.428 0.074-0.251 0.066-0.474 0.134-0.712 0.099-0.799-0.115-1.439-0.965-1.481-1.741-0.014-0.25 0.016-0.495 0.090-0.735 0.171-0.557 0.622-0.902 1.197-0.958 0.42-0.041 0.834 0.063 1.244 0.138 0.16 0.030 0.32 0.053 0.476 0.039 0.189-0.016 0.359-0.083 0.512-0.199 0-0 0-0 0.001-0 0.011-0.008 0.025-0.013 0.039-0.014 0.026-0.001 0.048 0.006 0.065 0.017 0.018 0.012 0.032 0.030 0.039 0.055 0.044 0.148 0.085 0.296 0.122 0.446 0.011 0.043 0.003 0.069-0.027 0.103-0.047 0.055-0.089 0.113-0.125 0.176-0.111 0.193-0.207 0.408-0.26 0.625-0.008 0.035-0.026 0.056-0.049 0.069-0.021 0.012-0.049 0.016-0.083 0.007zM20.792 12.464l0.065 0.018c-0.029-0.3-0.037-0.639 0.118-0.905 0.11-0.189 0.298-0.31 0.505-0.364-0.019-0.031-0.037-0.062-0.055-0.093-0.096-0.012-0.193-0.018-0.29-0.019-0.371-0.001-0.752 0.019-1.116 0.092-0 0-0.001 0-0.001 0-0 0.001-0.001 0.003-0.001 0.004 0.099 0.007 0.213 0.035 0.304 0.089 0.083 0.049 0.147 0.12 0.172 0.213 0.019 0.073 0.007 0.143-0.037 0.211-0.097 0.15-0.313 0.215-0.479 0.25-0.365 0.077-0.758 0.050-1.032-0.233-0.265-0.273-0.339-0.719-0.325-1.084 0.007-0.295 0.107-0.554 0.298-0.778 0.173-0.203 0.415-0.334 0.683-0.339 0.047-0.001 0.107 0.004 0.18 0.015 0.13 0.019 0.258 0.044 0.383 0.089 0.31 0.11 0.457 0.351 0.514 0.658l0.028 0.007c0.067-0.214 0.157-0.417 0.272-0.61 0.032-0.053 0.067-0.104 0.106-0.152l-0.072-0.263c-0.328 0.188-0.68 0.177-1.047 0.104-0.327-0.064-0.551-0.114-0.832-0.135-0.48-0.036-0.944 0.104-1.216 0.523-0.15 0.242-0.213 0.526-0.222 0.807-0.016 0.503 0.215 0.99 0.575 1.334 0.244 0.233 0.593 0.421 0.938 0.387 0.040-0.004 0.096-0.015 0.17-0.033 0.252-0.062 0.492-0.125 0.752-0.146 0.262-0.021 0.527 0.135 0.664 0.352z"></path>
</svg>
