<!-- Generated by IcoMoon.io -->
<svg version="1.1" xmlns="http://www.w3.org/2000/svg" width="32" height="32" viewBox="0 0 32 32">
<title>watermark-mtg10</title>
<path fill="#444" d="M24.026 5.012c-0.051 0.053-0.128 0.147-0.157 0.213l0-0c-0.001 0.004-0.002 0.007-0.002 0.011 0 0.017 0.014 0.030 0.030 0.030 0.004 0 0.008-0.001 0.011-0.002 0.111-0.049 0.171-0.103 0.281-0.199l0.005-0.004c0.183-0.16 0.352-0.335 0.514-0.529l-0 0c0.003-0.004 0.004-0.008 0.004-0.013 0-0.011-0.008-0.020-0.018-0.021l0.001 0c-0.012-0.002-0.024-0.002-0.036-0.002-0.066 0-0.126 0.024-0.173 0.063-0.093 0.077-0.247 0.229-0.461 0.453zM29.123 8.732l-0.001 0.001c0.036-0.053 0.057-0.117 0.057-0.186 0-0.022-0.002-0.044-0.006-0.062-0.002-0.009-0.007-0.017-0.014-0.022-0.166-0.113-1.031 0.551-1.193 0.739l0-0c-0.004 0.004-0.006 0.010-0.006 0.016 0 0.003 0.001 0.006 0.002 0.009 0.037 0.095 0.104 0.212 0.224 0.17l0.012-0.004c0.099-0.034 0.194-0.077 0.276-0.123 0.103-0.084 0.195-0.164 0.312-0.237 0.147-0.091 0.215-0.207 0.337-0.3zM2.767 16.952c-0.25-0.042-0.519-0.134-0.725-0.172-0.141-0.026-0.258-0.036-0.35-0.031-0.134 0.006-0.11 0.166-0.057 0.238l-0-0c0.003 0.005 0.006 0.010 0.006 0.016 0 0.011-0.007 0.021-0.017 0.025l0.007-0.001c-0.060 0.008-0.121 0.012-0.182 0.012-0.018 0-0.035-0-0.050-0.001-0.346-0.013-0.689-0.004-1.029 0.026-0.118 0.012-0.368 0.097-0.368 0.244-0.001 0.265 0.121 0.435 0.363 0.51 0.030 0.009 0.058 0.001 0.087 0.020l-0-0c0.007 0.005 0.015 0.008 0.024 0.009 0.141 0.016 0.282 0.018 0.423 0.006 0.058-0.005 0.133-0.036 0.211-0.021l-0-0c0.003 0.001 0.006 0.001 0.010 0.001 0.006 0 0.012-0.001 0.016-0.003 0.233-0.093 0.469-0.179 0.707-0.259 0.043-0.014 0.124-0.027 0.173-0.055 0.052-0.030 0.086-0.049 0.101-0.055 0.179-0.073 0.348-0.161 0.522-0.244 0.070-0.034 0.144-0.046 0.22-0.064l0-0c0.006-0.002 0.011-0.008 0.011-0.014 0-0.001-0-0.002-0-0.003l-0.027-0.142c-0.001-0.010-0.008-0.017-0.017-0.020l-0.057-0.021zM30.463 19.424l0-0c0.004-0.006 0.009-0.011 0.016-0.013 0.068-0.019 0.229-0.093 0.198-0.188-0.003-0.009-0.008-0.015-0.016-0.018-0.201-0.092-0.468-0.133-0.685-0.18l0.002 0c-0.016-0.003-0.033-0.005-0.050-0.005-0.019 0-0.037 0.002-0.053 0.005l-0 0c-0.009 0.002-0.016 0.008-0.018 0.017l-0.022 0.089-0 0c-0.002 0.009-0.008 0.016-0.017 0.019-0.126 0.053-0.215 0.067-0.369 0.063-0.093-0.002-0.194 0.006-0.302 0.026-0.409 0.074-0.142 0.501 0.133 0.518 0.316 0.020 0.649-0.126 0.962-0.234 0.065-0.022 0.13-0.071 0.206-0.090l0-0c0.003-0.001 0.005-0.002 0.007-0.004l0-0c0.002-0.002 0.004-0.005 0.006-0.007zM27.371 22.748l0.069-0.119 0.001-0.003c0-0.003-0.002-0.004-0.004-0.006l-0.761-0.443c-0.147-0.085-0.279-0.134-0.295-0.108l-0.020 0.035c-0.015 0.026 0.093 0.118 0.239 0.204l0.761 0.443c0.004 0.002 0.007 0.001 0.009-0.003zM27.338 25.549l-0.002-0.011c-0.047-0.233-0.143-0.448-0.273-0.628l-0.002-0.004c-0.082-0.114-0.184-0.214-0.304-0.296l0.007 0.004c-0.229-0.159-0.492-0.271-0.788-0.324-0.279 0.303 0.252 0.716 0.452 0.885 0.149 0.126 0.369 0.271 0.561 0.421 0.082 0.063 0.382 0.176 0.351-0.048zM24.627 27.18c-0.119-0.139-0.233-0.287-0.346-0.412l-0.010-0.011c-0.363-0.399-0.749-0.776-1.173-1.144-0.046-0.039-0.092-0.076-0.14-0.11-0.108-0.077-0.274-0.219-0.394-0.108-0.149 0.137-0.051 0.437 0.019 0.576 0.186 0.362 0.425 0.743 0.609 1.052 0.173 0.292 0.355 0.577 0.546 0.858l0.002 0.003c0.082 0.12 0.192 0.22 0.324 0.293l-0-0c0.006 0.004 0.013 0.006 0.020 0.006 0.001 0 0.002-0 0.003-0 0.454-0.037 0.909-0.572 0.539-1.003zM24.423 26.482l0 0c0.005 0.004 0.010 0.009 0.013 0.015l0 0.001c0.011 0.025 0.030 0.046 0.056 0.058l0 0c0.007 0.003 0.012 0.009 0.014 0.016l0 0.001c0.005 0.014 0.012 0.027 0.023 0.037 0.634 0.628 1.255 1.289 1.879 1.904 0.081 0.081 0.233 0.206 0.357 0.159 0.182-0.069 0.291-0.195 0.324-0.378 0.007-0.044 0-0.109-0.030-0.139l0.006 0.006c-0.681-0.662-1.397-1.287-2.205-1.915-0.283-0.22-0.548-0.453-0.82-0.684-0.066-0.057-0.275-0.099-0.239 0.059 0.030 0.134 0.094 0.235 0.193 0.302l0 0c0.005 0.003 0.009 0.009 0.009 0.016 0 0.002-0 0.003-0 0.004-0.014 0.089 0.115 0.189 0.193 0.277 0.026 0.028 0.037 0.073 0.090 0.091l0 0c0.007 0.002 0.012 0.008 0.014 0.015l0.001 0.002c0.027 0.061 0.068 0.113 0.122 0.153zM21.923 27.162c0.063 0.078 0.121 0.137 0.17 0.176l0 0c0.006 0.005 0.011 0.011 0.014 0.018l0 0.001c0.006 0.012 0.015 0.023 0.025 0.031l-0-0c0.005 0.004 0.011 0.007 0.018 0.007 0.001 0 0.002-0 0.003-0l-0 0c0.002-0 0.005-0 0.007-0 0.019 0 0.035 0.009 0.046 0.023 0.006 0.007 0.014 0.009 0.023 0.005l0.066-0.028c0.008-0.003 0.015-0.009 0.020-0.016 0.019-0.024 0.049-0.053 0.091-0.086 0.037-0.030 0.063-0.135 0.081-0.147l0-0c0.006-0.003 0.010-0.008 0.011-0.015l0.023-0.137c0.001-0.005-0.001-0.010-0.004-0.014l-0.053-0.066c-0.006-0.008-0.014-0.013-0.025-0.014-0.019-0.003-0.033-0.014-0.041-0.032-0.003-0.007-0.007-0.012-0.012-0.018-0.035-0.034-0.072-0.051-0.105-0.085l-0.002-0.002c-0.064-0.067-0.131-0.132-0.202-0.198-0.006-0.006-0.014-0.009-0.022-0.009-0.035-0.001-0.065-0.013-0.089-0.038-0.006-0.006-0.013-0.011-0.021-0.013-0.092-0.030-0.183-0.063-0.273-0.1-0.169-0.071-0.193 0.164-0.132 0.244 0.131 0.17 0.238 0.337 0.381 0.515zM20.63 28.774c-0.006-0.003-0.010-0.007-0.013-0.013-0.003-0.007-0.007-0.013-0.013-0.019-0.189-0.19-0.377-0.366-0.63-0.475-0.009-0.004-0.016-0.011-0.020-0.019-0.038-0.074-0.099-0.106-0.184-0.098h-0c-0.008 0.001-0.015 0.005-0.020 0.011-0.055 0.074-0.005 0.19 0.033 0.265 0.072 0.141 0.401 0.823 0.581 0.796l0.003-0c0.156-0.021 0.292-0.108 0.378-0.234 0.005-0.007 0.007-0.016 0.007-0.025l-0 0.001c0-0.004 0-0.008 0-0.012 0-0.080-0.050-0.149-0.122-0.177zM21.391 30.003l-0.076-0.004c-0.009-0.001-0.014 0.003-0.017 0.012-0.052 0.179 0.128 0.555 0.225 0.72 0.036 0.060 0.065 0.12 0.089 0.18 0.039 0.1 0.095 0.27 0.182 0.322 0.126 0.076 0.29-0.066 0.383-0.149 0.060-0.028 0.076-0.061 0.048-0.102-0.129-0.189-0.238-0.366-0.329-0.532-0.027-0.051-0.071-0.063-0.102-0.102-0.027-0.034-0.086-0.12-0.179-0.258l-0-0c-0.004-0.006-0.011-0.012-0.019-0.014l-0.206-0.073zM14.304 3.802l0.010 0.219c-0.013 0.1-0.021 0.187-0.003 0.29 0.052 0.291 0.095 0.935 0.383 1.103 0.258 0.151 0.431-0.337 0.445-0.525 0.016-0.212 0.025-0.424 0.027-0.636 0-0.016 0.013-0.029 0.029-0.029 0.002 0 0.005 0 0.007 0.001l-0-0c0.173 0.047 0.317 0.142 0.471 0.233 0.156 0.091 0.285 0.065 0.435-0.006 0.085-0.040 0.142-0.11 0.267-0.103 0.009 0.001 0.014 0.005 0.014 0.014 0.012 0.152-0.011 0.29-0.028 0.44-0.006 0.053-0.001 0.107 0.016 0.158 0.003 0.008 0.009 0.014 0.018 0.016 0.027 0.006 0.053 0.007 0.079 0.003 0.332-0.046 0.669-0.113 1.005-0.117 0.145-0.001 0.296 0.062 0.429 0.114 0.008 0.003 0.014 0.008 0.020 0.014 0.109 0.141 0.223 0.304 0.33 0.472l0.016 0.027c0.005 0.009 0.020 0.022 0.043 0.040 0.006 0.005 0.011 0.011 0.014 0.018 0.012 0.027 0.031 0.047 0.058 0.060 0.010 0.004 0.017 0.011 0.023 0.020 0.027 0.037 0.060 0.069 0.099 0.092 0.002 0.001 0.005 0.002 0.009 0.002 0.007 0 0.014-0.005 0.016-0.011l0-0c0.046-0.137 0.020-0.249-0.078-0.335-0.072-0.062-0.093-0.133-0.162-0.189-0.048-0.040-0.152-0.164-0.086-0.226l0.295-0.027c0.125 0.041 0.27 0.065 0.42 0.065 0.050 0 0.099-0.003 0.148-0.008l-0.006 0.001c0.008-0.001 0.015-0.008 0.015-0.016 0-0.006-0.004-0.012-0.009-0.014l-0-0c-0.102-0.050-0.306-0.142-0.155-0.283 0.198-0.185 0.406-0.081 0.627-0.007 0.013 0.004 0.021 0.016 0.021 0.030 0 0.001-0 0.002-0 0.003v-0l-0.021 0.217c-0 0.001-0 0.001-0 0.002 0 0.009 0.005 0.016 0.013 0.020l0 0 0.098 0.048c0.007 0.004 0.013 0.010 0.016 0.018 0.046 0.105 0.073 0.228 0.073 0.357 0 0.046-0.003 0.091-0.010 0.136l0.001-0.005c-0.001 0.009-0.007 0.017-0.015 0.021l-0 0c-0.167 0.084-0.288 0.15-0.276 0.361 0.005 0.096 0.083 0.188 0.135 0.273 0.008 0.012 0.021 0.021 0.037 0.021 0.012 0 0.023-0.005 0.031-0.014l0-0c0.267-0.285 0.537-0.552 0.815-0.81l0.011-0.010c0.009-0.009 0.031-0.020 0.040-0.025 0.029-0.018 0.048-0.010 0.055 0.024 0.022 0.104 0.016 0.301 0.082 0.371 0.016 0.017 0.031 0.016 0.044-0.004 0.148-0.231 0.285-0.464 0.409-0.699 0.017-0.032 0.047-0.047 0.090-0.046 0.008 0 0.013 0.004 0.013 0.013 0.003 0.032 0.005 0.070 0.005 0.108 0 0.135-0.024 0.264-0.069 0.384l0.002-0.008c-0.075 0.205-0.089 0.421-0.176 0.618-0.058 0.12-0.115 0.265-0.162 0.414l-0.006 0.024c-0.005 0.018-0.008 0.038-0.008 0.059 0 0.061 0.023 0.116 0.061 0.158l-0-0c0.005 0.006 0.012 0.011 0.020 0.012 0.383 0.084 0.631-0.157 0.833-0.443 0.121-0.171 0.361-0.247 0.476-0.017 0.021 0.041 0.030 0.095 0.051 0.139 0.012 0.027 0.043 0.039 0.070 0.030 0.065-0.022 0.139-0.035 0.216-0.035 0.006 0 0.011 0 0.017 0h-0.001c0.010 0 0.014 0.005 0.011 0.014-0.070 0.215-0.188 0.388-0.318 0.569-0.017 0.018-0.030 0.040-0.037 0.065l-0 0.001c-0.052 0.078-0.094 0.169-0.121 0.266l-0.002 0.007c-0.001 0.003-0.002 0.007-0.002 0.011 0 0.022 0.018 0.039 0.039 0.039 0.002 0 0.005-0 0.007-0.001l-0 0c0.018-0.003 0.038-0.014 0.062-0.032 0.52-0.396 0.981-0.796 1.415-1.223l-0.002 0.002c0.205-0.202 0.416-0.403 0.635-0.604 0.006-0.006 0.014-0.009 0.023-0.009 0.011 0 0.021 0.006 0.028 0.014l0 0 0.042 0.060c0.005 0.007 0.005 0.016 0.002 0.025-0.023 0.050-0.050 0.094-0.081 0.134l0.001-0.001c-0.153 0.157-0.301 0.32-0.444 0.487-0.368 0.431-0.771 0.837-1.101 1.255-0.091 0.115-0.215 0.235-0.31 0.362-0.006 0.008-0.009 0.018-0.009 0.028 0 0.026 0.021 0.047 0.047 0.047 0 0 0 0 0 0v0c0.010 0 0.020-0.004 0.028-0.011 0.509-0.4 0.965-0.845 1.431-1.299 0.021-0.020 0.055-0.033 0.103-0.038 0.007-0.001 0.014 0.002 0.020 0.007 0.073 0.075-0.053 0.234-0.116 0.306-0.121 0.141-0.267 0.291-0.37 0.414-0.25 0.297-0.482 0.627-0.684 0.976l-0.018 0.033c-0.004 0.008-0.007 0.017-0.007 0.027 0 0.017 0.008 0.031 0.019 0.041l0 0c0.092 0.075 0.196 0.105 0.312 0.055 0.134-0.057 0.249-0.127 0.352-0.212l-0.003 0.002c0.276-0.222 0.503-0.391 0.871-0.414 0.11-0.007 0.221-0.012 0.332-0.016 0.165-0.006 0.293-0.069 0.437-0.145 0.676-0.357 1.245-0.709 1.789-1.095l-0.048 0.033c0.044-0.031 0.149-0.083 0.315-0.156 0.009-0.004 0.020 0 0.024 0.009l0.034 0.077c0.001 0.003 0.002 0.005 0.002 0.009 0 0.006-0.003 0.012-0.007 0.015v0c-0.029 0.030-0.059 0.062-0.092 0.087-0.462 0.338-0.923 0.677-1.382 1.018-0.431 0.32-0.838 0.661-1.278 0.985-0.021 0.016-0.021 0.030 0.003 0.044l0.208 0.118c0.008 0.005 0.013 0.013 0.014 0.023 0.011 0.148 0.019 0.262-0.106 0.365-0.155 0.128-0.308 0.259-0.457 0.395-0.052 0.047-0.133 0.057-0.073 0.156 0.198 0.325 0.605 0.358 0.805 0.66 0.069 0.103 0.137 0.208 0.203 0.313 0.021 0.033 0.041 0.035 0.077 0.030 0.142-0.017 0.275-0.050 0.4-0.099 0.251-0.098 0.507-0.173 0.754-0.273 0.18-0.073 0.358-0.146 0.537-0.221 0.115-0.048 0.239-0.061 0.35-0.035 0.114 0.027 0.067 0.228 0.025 0.288-0.047 0.065-0.098 0.142-0.145 0.221l-0.008 0.014c-0.003 0.006-0.005 0.013-0.005 0.020 0 0 0 0 0 0v-0c-0 0.002-0 0.005-0 0.008 0 0.006 0 0.011 0.001 0.017l-0-0.001c0.002 0.006 0.007 0.011 0.013 0.011 0.002 0 0.004-0.001 0.006-0.002l-0 0c0.51-0.239 1.018-0.485 1.534-0.706 0.343-0.147 0.684-0.299 1.022-0.457 0.070-0.032 0.179-0.102 0.285-0.131 0.027-0.007 0.057 0.003 0.073 0.026 0.086 0.122-0.257 0.268-0.323 0.312-1 0.65-1.606 1.062-2.209 1.481l0.346-0.228c-0.092 0.063-0.221 0.126-0.322 0.202-0.007 0.005-0.011 0.013-0.011 0.022 0 0.015 0.012 0.027 0.027 0.027 0.001 0 0.002-0 0.004-0h-0c0.105-0.011 0.314-0.072 0.389-0.003 0.006 0.005 0.009 0.012 0.009 0.020 0 0.030-0.013 0.051-0.039 0.062-0.162 0.071-0.35 0.123-0.546 0.146l-0.010 0.001c-0.169 0.020-0.299 0.106-0.464 0.128-0.29 0.037-0.599 0.172-0.879 0.263-0.135 0.045-0.33 0.163-0.362 0.322-0.044 0.214 0.011 0.445-0.051 0.66-0.043 0.151-0.125 0.278-0.199 0.416-0.003 0.004-0.004 0.009-0.004 0.015v0c0 0.016 0.013 0.029 0.029 0.030 0.052 0.004 0.109 0.004 0.17-0.002 0.33-0.030 0.668-0.075 0.998-0.062 0.26 0.011 0.453 0.017 0.597 0.212 0.031 0.042 0.041 0.087 0.029 0.134-0.020 0.082-0.172 0.227-0.236 0.289-0.235 0.228-0.483 0.465-0.734 0.698l-0.029 0.026c-0.010 0.009-0.026 0.019-0.048 0.029-0.005 0.002-0.011 0.004-0.017 0.004-0.002 0-0.004-0-0.006-0l0 0-0.541-0.062c-0.017 0-0.031 0.014-0.031 0.031 0 0.002 0 0.003 0 0.005l-0-0c0.025 0.139 0.065 0.229 0.151 0.353 0.093 0.132 0.211 0.307 0.248 0.463 0.005 0.020 0.023 0.034 0.044 0.032 0.434-0.029 0.871-0.046 1.295-0.077 0.905-0.065 1.481-0.098 1.731-0.101 0.181-0.002 0.336-0.008 0.466-0.019 0.398-0.033 0.796-0.054 1.195-0.079 0.151-0.009 0.296 0.002 0.444 0.012 0.010 0.001 0.013 0.006 0.011 0.016-0.014 0.058-0.060 0.101-0.118 0.111l-0.001 0c-0.204 0.042-0.395 0.108-0.603 0.136-0.173 0.024-0.4 0.027-0.561 0.087-0.1 0.038-0.217 0.070-0.339 0.090l-0.011 0.002c-0.065 0.013-0.122 0.029-0.176 0.049l0.008-0.002c-0.079 0.028-0.16 0.044-0.245 0.050-0.313 0.020-0.575 0.044-0.834 0.074l0.076-0.007c-0.011 0.004-0.019 0.014-0.019 0.025 0 0.005 0.001 0.009 0.003 0.013l-0-0c0.041 0.076 0.172 0.047 0.245 0.053 0.269 0.021 0.546-0.005 0.805-0.001 0.594 0.011 1.124 0.017 1.593 0.017 0.109 0 0.216 0.013 0.316 0.011 0.24-0.005 0.48 0.008 0.718 0.041 0.009 0.001 0.014 0.005 0.016 0.014 0.036 0.139-0.13 0.212-0.238 0.264-0.191 0.092-0.454 0.114-0.659 0.111-0.26-0.004-0.455-0.006-0.586-0.006-0.157 0-0.307-0.018-0.461-0.019-0.648-0.002-1.317-0.031-1.962 0.032-0.037 0.004-0.049 0.026-0.034 0.067 0.026 0.071 0.11 0.075 0.173 0.094 0.102 0.031 0.333 0.231 0.388 0.323-0.012 0.066 0.005 0.139 0.052 0.218l-0.009 0.030c-0.003 0.009-0.009 0.013-0.017 0.013l-0.406-0.014c0 0 0 0 0 0-0.012 0-0.023 0.010-0.023 0.022v0c0 0.004 0.001 0.007 0.003 0.011 0.090 0.165 0.229 0.294 0.398 0.368l0.005 0.002c0.15 0.067 0.281-0.029 0.412-0.107 0.006-0.004 0.014-0.005 0.022-0.004 0.057 0.007 0.082-0.021 0.119-0.034l0.213-0.076c0.007-0.003 0.016-0.002 0.023 0.003 0.030 0.017 0.049 0.048 0.049 0.084 0 0.021-0.006 0.040-0.017 0.055l0-0c-0.092 0.125-0.229 0.213-0.387 0.238l-0.003 0c-0.229 0.027-0.454 0.075-0.675 0.145-0.094 0.030-0.21 0.011-0.32-0.018-0.251-0.066-0.497-0.119-0.746-0.217-0.138-0.054-0.236-0.242-0.102-0.356 0.112-0.096 0.228-0.189 0.346-0.278 0.030-0.022 0.081-0.042 0.103-0.089 0.002-0.004 0.003-0.008 0.003-0.012v0c0-0.016-0.013-0.030-0.030-0.030l-0.411-0.008c-0.155-0.002-0.169-0.084-0.256-0.181-0.032-0.035-0.063-0.068-0.095-0.097-0.006-0.005-0.013-0.008-0.021-0.008-0.014 0-0.025 0.008-0.030 0.020l-0 0c-0.045 0.119-0.119 0.219-0.214 0.294l-0.001 0.001c-0.043 0.033-0.154 0.053-0.178 0.083-0.109 0.132 0.155 0.335 0.247 0.411 0.154 0.125-0.152 0.442-0.267 0.53l-0.284 0.050c-0.047 0.021-0.1 0.031-0.159 0.030-0.009 0-0.015 0.004-0.017 0.013-0.063 0.206-0.123 0.364-0.040 0.543 0.016 0.034 0.055 0.054 0.087 0.057 0.282 0.025 0.452 0.101 0.685 0.274 0.22 0.163 0.489 0.009 0.755 0.044 0.008 0.001 0.014 0.008 0.014 0.016 0 0 0 0 0 0.001v-0c-0.004 0.111-0.15 0.173-0.234 0.221-0.060 0.034-0.288 0.213-0.198 0.316 0.184 0.209-0.005 0.368-0.195 0.482-0.004-0-0.009-0.001-0.014-0.001-0.035 0-0.066 0.014-0.089 0.036l0-0c-0.006 0.006-0.013 0.009-0.022 0.011l-0 0-0.226 0.029c-0.027-0.055-0.051-0.12-0.068-0.188l-0.002-0.007c-0.042-0.166-0.187-0.322-0.311-0.434-0.005-0.005-0.012-0.008-0.020-0.008-0.001 0-0.001 0-0.002 0h0l-0.224 0.012c-0 0-0 0-0 0-0.010 0-0.018 0.007-0.021 0.016l-0 0c-0.016 0.043-0.030 0.095-0.039 0.149l-0.001 0.006c-0.035 0.294-0.194 0.516-0.285 0.772-0.018 0.027-0.022 0.064-0.016 0.112-0.003 0.221 0.020 0.439 0.071 0.654 0.051 0.219 0.023 0.343-0.217 0.364-0.151 0.013-0.296 0.021-0.434 0.026-0.030 0.001-0.054 0.025-0.054 0.055 0 0.002 0 0.003 0 0.005v-0c0.019 0.218 0.042 0.43 0.067 0.637 0.002 0.014 0.003 0.031 0.003 0.048 0 0.061-0.016 0.119-0.044 0.169l0.001-0.002c-0.208 0.057-0.635 0.118-0.745 0.301-0.005 0.009-0.008 0.019-0.008 0.030 0 0.021 0.012 0.040 0.029 0.050l0 0c0.056 0.031 0.108 0.068 0.157 0.11 0.007 0.006 0.015 0.010 0.024 0.012 0.074 0.018 0.11 0.068 0.108 0.149-0.007 0.35-0.124 0.671-0.317 0.932l0.003-0.004c-0.059 0.080-0.285 0.285-0.391 0.229-0.153-0.081-0.275-0.244-0.374-0.388-0.005-0.007-0.011-0.012-0.019-0.014l-0-0c-0.411-0.123-0.233 0.569-0.555 0.615-0.204 0.029-0.444 0.057-0.5 0.301-0.036 0.155-0.031 0.333-0.056 0.477-0.064 0.381-0.378 0.716-0.69 0.921-0.404 0.265-1.027 0.22-1.396-0.087-0.004-0.004-0.010-0.006-0.016-0.006-0.001 0-0.003 0-0.004 0l0-0-0.147 0.019c-0.013 0.002-0.024 0.009-0.030 0.019l-0 0c-0.169 0.266-0.271 0.546-0.366 0.844-0.029 0.091-0.020 0.193-0.047 0.292-0.015 0.093-0.027 0.173-0.073 0.258-0.016 0.028-0.029 0.061-0.037 0.095l-0.001 0.003c-0.004 0.016-0.012 0.019-0.026 0.011-0.093-0.060-0.142-0.16-0.224-0.211-0.104-0.065-0.347-0.151-0.458-0.054-0.151 0.133-0.188 0.423-0.213 0.617-0.015 0.116-0.034 0.187-0.056 0.213-0.149 0.18-0.325 0.331-0.523 0.449l-0.009 0.005c-0.162 0.096-0.326 0.087-0.494-0.026-0.252-0.17-0.416-0.389-0.492-0.659-0.025-0.089-0.019-0.189-0.037-0.288-0.014-0.075-0.070-0.107-0.098-0.159-0.127-0.241-0.469-0.604-0.774-0.544-0.318 0.062-0.058 0.512-0.013 0.681 0.026 0.096 0.041 0.195 0.045 0.294 0.002 0.037 0.009 0.079-0.020 0.105-0.059 0.053-0.129 0.096-0.206 0.124l-0.005 0.002c-0.045 0.017-0.085 0.004-0.131 0.012-0.257 0.044-0.452-0.275-0.508-0.48-0.107-0.389-0.363-0.309-0.696-0.335-0.001-0-0.002-0-0.003-0-0.008 0-0.014 0.003-0.019 0.009l-0 0c-0.161 0.172-0.344 0.369-0.577 0.434-0.411 0.111-0.692 0.198-0.97 0.292l0.127-0.037c-0.025 0.008-0.053 0.013-0.083 0.013-0.051 0-0.098-0.014-0.139-0.039l0.001 0.001c-0.007-0.004-0.012-0.010-0.014-0.018l-0-0-0.056-0.181c-0.002-0.009-0.009-0.015-0.017-0.018l-0-0-0.050-0.015c-0.007-0.002-0.012-0.008-0.013-0.014l-0-0c-0.062-0.293-0.23-0.506-0.503-0.638-0.062-0.030-0.25-0.1-0.254 0.026-0.003 0.080 0.024 0.451-0.182 0.313-0.095-0.063-0.153-0.103-0.211-0.144l0.032 0.021c-0.051-0.036-0.117-0.052-0.172-0.092-0.030-0.023-0.064-0.043-0.1-0.059l-0.003-0.001c-0.042-0.016-0.145-0.052-0.168-0.091-0.026-0.043-0.043-0.040-0.048 0.011-0.012 0.1-0.021 0.199-0.028 0.297-0.018 0.277-0.226 0.356-0.444 0.473-0.186 0.1-0.397 0.147-0.598 0.208-0.027 0.009-0.064 0.010-0.11 0.004-0.008-0.001-0.015-0.005-0.020-0.012l-0-0c-0.101-0.136-0.068-0.28-0.047-0.435 0.037-0.272 0.348-0.419 0.537-0.559 0.121-0.089 0.157-0.197 0.108-0.324-0.125-0.304-0.277-0.566-0.459-0.803l0.006 0.008c-0.084-0.114-0.219-0.098-0.321-0.014-0.25 0.206-0.425 0.381-0.653 0.458-0.126 0.043-0.252-0.068-0.34-0.144-0.052-0.045-0.109-0.206-0.124-0.271-0.048-0.208-0.103-0.414-0.166-0.618-0.051-0.165-0.116-0.293-0.268-0.356-0.193-0.081-0.416-0.129-0.651-0.129-0.072 0-0.143 0.004-0.213 0.013l0.008-0.001c-0.5 0.053-0.945 0.131-1.379 0.234l0.073-0.015c-0.044 0.010-0.106 0.031-0.184 0.064-0.108 0.047-0.234 0.074-0.367 0.074-0.022 0-0.045-0.001-0.067-0.002l0.003 0c-0.026-0.002-0.046-0.022-0.049-0.047v-0c-0.006-0.055 0.051-0.059 0.080-0.075 0.123-0.070 0.223-0.163 0.346-0.226 0.238-0.122 0.443-0.26 0.63-0.418l-0.005 0.004c0.169-0.142 0.243-0.332 0.222-0.567-0.001-0.007-0.005-0.014-0.011-0.018l-0-0c-0.144-0.104-0.325-0.167-0.521-0.167-0.029 0-0.058 0.001-0.086 0.004l0.004-0c-0.456 0.049-0.868 0.131-1.267 0.245l0.053-0.013c-0.052 0.014-0.115 0.006-0.17 0.009-0.009 0-0.014-0.004-0.014-0.013 0-0.038 0.018-0.065 0.053-0.080 0.005-0.002 0.009-0.007 0.010-0.012v-0l0.009-0.043c0.002-0.008 0.005-0.013 0.013-0.016 0.313-0.143 0.602-0.386 0.868-0.601 0.114-0.092 0.266-0.22 0.268-0.379 0.002-0.127-0.312-0.010-0.369 0.014-0.188 0.080-0.551 0.18-0.784 0.324-0.035 0.028-0.207 0.133-0.381 0.237l-0.147 0.082c-0.145 0.085-0.313 0.218-0.484 0.308-0.067 0.035-0.122 0.010-0.144-0.059-0.001-0.002-0.001-0.005-0.001-0.008 0-0.005 0.002-0.010 0.005-0.015l-0 0c0.059-0.092 0.139-0.116 0.212-0.165 0.486-0.325 1.36-0.883 1.338-1.408-0.006-0.156-0.109-0.352-0.148-0.509-0.032-0.125-0.072-0.254-0.185-0.326-0.212-0.134-0.367 0.003-0.619 0.006-0.012 0-0.017-0.005-0.014-0.017l0.020-0.109c0.002-0.011 0.007-0.017 0.018-0.020 0.205-0.071 0.354-0.137 0.446-0.349 0.144-0.333 0.010-0.45-0.297-0.539-0.078-0.022-0.164-0.010-0.251-0.026-0.134-0.025-0.090-0.146-0.017-0.21 0.114-0.1 0.227-0.202 0.338-0.305 0.006-0.005 0.010-0.013 0.012-0.021 0.007-0.034 0.011-0.063 0.011-0.087-0.004-0.183 0-0.367 0.011-0.55 0.002-0.024 0.003-0.052 0.003-0.080 0-0.051-0.003-0.102-0.010-0.151l0.001 0.006c-0.005-0.034-0.034-0.059-0.069-0.059-0.001 0-0.002 0-0.002 0h0c-0.131 0.005-0.255 0.014-0.371 0.028-0.137 0.016-0.261 0.062-0.393 0.102-0.147 0.045-0.301 0.051-0.454 0.075-0.078 0.012-0.153 0.053-0.253 0.027-0.010-0.003-0.012-0.008-0.008-0.017 0.031-0.059 0.106-0.126 0.064-0.196-0.004-0.006-0.010-0.011-0.018-0.012h-0c-0.123-0.018-0.245-0.005-0.363-0.019-0.048-0.006-0.116-0.012-0.184-0.016l-0.012-0.001c-0.005-0-0.010-0.002-0.013-0.005l0 0c-0.005-0.004-0.009-0.011-0.009-0.018 0-0.011 0.007-0.020 0.018-0.023l0-0 0.609-0.162c0.008-0.003 0.012-0.008 0.011-0.016-0.007-0.139-0.145-0.137-0.1-0.298 0.002-0.008 0.011-0.014 0.019-0.013 0.044 0.005 0.085 0.018 0.125 0.038 0.052 0.027 0.181 0.043 0.235 0.044 0.267 0.007 0.448-0.169 0.622-0.345 0.099-0.1 0.159-0.257 0.018-0.351-0.103-0.069-0.222-0.138-0.346-0.198l-0.018-0.008c-0.048-0.023-0.048-0.046 0.001-0.067 0.275-0.121 0.513-0.331 0.752-0.519 0.132-0.104 0.222-0.213 0.124-0.372-0.115-0.185-0.235-0.248-0.395-0.35-0.155-0.098-0.27-0.142-0.441-0.142-0.097 0.001-0.162-0.001-0.194-0.004-0.495-0.050-1.022 0.020-1.559 0.122-0.080-0.004-0.097-0.039-0.053-0.107 0.057-0.086 0.306-0.117 0.403-0.136 0.234-0.046 0.468-0.112 0.707-0.15 0.148-0.024 0.286-0.069 0.433-0.101 0.009-0.002 0.011-0.006 0.005-0.014-0.001-0.002-0.003-0.004-0.005-0.005l-0-0c-0.002-0.001-0.004-0.002-0.006-0.002-0.001 0-0.001 0-0.002 0h0c-0.043 0.002-0.084 0-0.124-0.006-0.013-0.008-0.029-0.013-0.046-0.013-0.006 0-0.013 0.001-0.019 0.002l0.001-0-0.113-0.065c-0.006-0.004-0.008-0.009-0.005-0.015 0.033-0.068 0.071-0.109 0.116-0.122 0.067-0.024 0.226-0.068 0.387-0.109l0.090-0.020c0.047-0.012 0.055-0.037 0.025-0.075-0.162-0.197-0.37-0.366-0.549-0.547-0.044-0.045-0.043-0.098 0.004-0.136 0.005-0.004 0.011-0.007 0.018-0.007 0.001 0 0.003 0 0.004 0l-0-0c0.044 0.006 0.077 0.017 0.1 0.034 0.181 0.132 0.851 0.566 1.040 0.415 0.047-0.038 0.053-0.177 0.056-0.235 0-0.009-0.003-0.016-0.011-0.021-0.122-0.082-0.299-0.193-0.532-0.333-0.147-0.089-0.134-0.255-0.018-0.365 0.183-0.174 0.441-0.166 0.713-0.171 0.219-0.004 0.436-0.007 0.655-0.010 0.019 0 0.031-0.002 0.035-0.004 0.012-0.007 0.020-0.019 0.020-0.034 0-0.005-0.001-0.011-0.003-0.015l0 0c-0.186-0.432-0.395-1.022-0.785-1.31-0.252-0.187-0.537-0.361-0.837-0.508l-0.032-0.014c-0.1-0.049-0.191-0.113-0.287-0.159-0.209-0.099-0.552-0.261-0.669-0.457-0.089-0.148-0.031-0.326-0.177-0.45-0.182-0.154-0.416-0.275-0.624-0.391-0.289-0.16-0.659-0.336-0.978-0.531-0.069-0.043-0.079-0.093-0.047-0.164 0.004-0.007 0.010-0.011 0.019-0.009 0.083 0.019 0.141 0.037 0.176 0.054 1.546 0.745 2.197 1.082 2.845 1.424l-0.859-0.412c0.394 0.204 0.85 0.348 1.199 0.467 0.123 0.042 0.277 0.188 0.421 0.118 0.022-0.011 0.027-0.027 0.015-0.048-0.089-0.156-0.19-0.334-0.338-0.441-0.101-0.075-0.214-0.145-0.335-0.204l-0.013-0.006c-0.251-0.116-0.499-0.235-0.747-0.356-0.197-0.097-0.415-0.153-0.614-0.274-0.007-0.004-0.011-0.011-0.011-0.020 0-0.002 0-0.004 0.001-0.006l-0 0 0.022-0.086c0.006-0.023 0.027-0.039 0.051-0.039 0.005 0 0.009 0.001 0.013 0.002l-0-0c0.405 0.105 0.802 0.231 1.179 0.434 0.171 0.092 0.347 0.219 0.517 0.337 0.252 0.175 0.535 0.274 0.813 0.395 0.047 0.022 0.102 0.035 0.161 0.035 0.029 0 0.058-0.003 0.086-0.010l-0.003 0.001c0.054-0.004 0.067-0.020 0.038-0.048-0.041-0.057-0.122-0.1-0.174-0.15-0.159-0.15-0.339-0.252-0.482-0.418-0.003-0.003-0.005-0.007-0.005-0.012 0-0.003 0.001-0.006 0.003-0.009l-0 0c0.087-0.144 0.218-0.014 0.325 0.011 0.069 0.016 0.4 0.085 0.343-0.083-0.056-0.166 0.205-0.261 0.322-0.29 0.213-0.053 0.422-0.123 0.638-0.162l0.008-0.003c0.011-0.005 0.019-0.017 0.019-0.030 0-0.008-0.003-0.015-0.008-0.021l0 0c-0.133-0.158-0.307-0.201-0.316-0.444-0.004-0.103 0.194-0.167 0.264-0.183 0.021-0.005 0.037-0.024 0.037-0.046 0-0.017-0.009-0.031-0.021-0.039l-0-0c-0.067-0.043-0.125-0.094-0.175-0.151l-0.001-0.001c-0.129-0.148-0.089-0.476-0.103-0.617s-0.221-0.363-0.334-0.473c-0.5-0.486-1.057-0.964-1.365-1.603-0.035-0.073-0.044-0.18-0.084-0.256-0.043-0.082-0.099-0.153-0.165-0.211l-0.001-0.001c-0.32-0.285-0.593-0.509-0.818-0.673-0.035-0.022-0.061-0.055-0.073-0.095l-0-0.001c-0-0.002-0.001-0.004-0.001-0.006 0-0.009 0.005-0.016 0.011-0.021l0-0c0.062-0.042 0.123-0.037 0.188 0.005 0.312 0.208 0.612 0.432 0.901 0.671 0.074 0.1 0.175 0.177 0.292 0.221l0.004 0.002 0.961 0.713c0.015 0.011 0.030 0.011 0.044-0.002 0.079-0.071-0.027-0.236 0.154-0.246 0.007-0.001 0.013 0.002 0.018 0.007l0.653 0.705c0.008 0.008 0.018 0.013 0.030 0.013 0.020 0 0.036-0.013 0.040-0.032l0-0c0.024-0.104 0.050-0.227 0.089-0.377 0.013-0.051 0.001-0.098-0.038-0.143-0.086-0.097-0.172-0.203-0.253-0.313l-0.009-0.012c-0.022-0.030-0.035-0.068-0.035-0.109 0-0.034 0.009-0.066 0.025-0.093l-0 0.001c0.003-0.006 0.009-0.011 0.016-0.012h0c0.052-0.009 0.091 0 0.116 0.026 0.391 0.397 0.782 0.782 1.179 1.161l0.021 0.020c0.289 0.276 0.642 0.565 0.999 0.71 0.018 0.007 0.035 0.011 0.053 0.012 0.009 0.001 0.017-0.002 0.023-0.006 0.098-0.074 0.011-0.267-0.033-0.359-0.004-0.009-0.009-0.016-0.016-0.021l-0-0c-0.017-0.013-0.030-0.030-0.040-0.049l-0-0.001c-0.001-0.002-0.001-0.003-0.001-0.005 0-0.007 0.005-0.012 0.012-0.012 0.001 0 0.002 0 0.003 0l-0-0c0.078 0.024 0.169 0.038 0.262 0.038 0.035 0 0.069-0.002 0.103-0.006l-0.004 0c0.012-0.002 0.021-0.013 0.021-0.026 0-0.002-0-0.004-0.001-0.007l0 0c-0.016-0.057-0.167-0.147-0.217-0.181-0.066-0.044-0.118-0.106-0.185-0.155-0.099-0.074-0.19-0.238-0.292-0.283-0.009-0.004-0.012-0.010-0.009-0.019 0.027-0.102 0.126-0.070 0.199-0.060 0.055 0.021 0.111 0.028 0.168 0.022l0.272 0.065h0.005c0.011-0 0.020-0.009 0.020-0.020 0-0.005-0.002-0.010-0.005-0.013l0 0c-0.1-0.113-0.174-0.251-0.213-0.403l-0.001-0.007c-0.026-0.095 0.109-0.172 0.188-0.085 0.056 0.061 0.108 0.128 0.156 0.198l0.004 0.006c0.004 0.007 0.010 0.012 0.017 0.015 0.028 0.014 0.045 0.036 0.051 0.066 0.002 0.008 0.004 0.015 0.010 0.021 0.069 0.089 0.246 0.3 0.353 0.244 0.046-0.024 0.051-0.082 0.007-0.11-0.004-0.003-0.008-0.008-0.008-0.013v-0l-0.062-0.657v-0.002c0-0.014 0.011-0.025 0.025-0.025 0.005 0 0.009 0.001 0.013 0.004l-0-0c0.194 0.124 0.387 0.239 0.609 0.315l0.008 0.002c0 0 0 0 0 0 0.014 0 0.025-0.011 0.025-0.025 0-0.006-0.002-0.012-0.006-0.017l0 0c-0.089-0.099-0.181-0.198-0.277-0.297-0.106-0.11-0.159-0.256 0.042-0.296 0.256-0.051 0.424 0.029 0.685 0.146 0.068 0.030 0.151 0.098 0.247 0.111 0.001 0 0.002 0 0.003 0 0.015 0 0.028-0.012 0.028-0.028 0-0.006-0.002-0.012-0.005-0.016l0 0-0.147-0.199c-0.037-0.087-0.080-0.156-0.091-0.252l-0.016-0.13 0.327 0.024c0.011 0.001 0.016-0.004 0.014-0.015-0.016-0.104-0.029-0.177-0.043-0.249l0.006 0.035c-0.059-0.306 0.368-0.241 0.527-0.188 0.132 0.039 0.231 0.15 0.249 0.287l0 0.002c0.015 0.104 0.009 0.218 0.139 0.255 0.298 0.085 0.456-0.043 0.718-0.133 0.192-0.067 0.358-0.148 0.513-0.244l-0.011 0.006c0.214-0.132 0.355-0.371 0.143-0.589-0.006-0.006-0.009-0.013-0.011-0.021l-0-0c-0.052-0.301-0.13-0.591-0.156-0.898-0.002-0.020-0.003-0.044-0.003-0.068 0-0.061 0.006-0.121 0.018-0.179l-0.001 0.006c0.004-0.011 0.014-0.019 0.026-0.019 0.005 0 0.009 0.001 0.013 0.003l-0-0 0.237 0.117c0.012 0.006 0.018 0.003 0.019-0.011l0.027-0.713c0.001-0.021 0.018-0.038 0.040-0.038 0.008 0 0.015 0.002 0.022 0.006l-0-0c0.095 0.062 0.164 0.156 0.192 0.267l0.001 0.003c0.045 0.165 0.136 0.265 0.225 0.406 0.006 0.010 0.011 0.009 0.016-0.002 0.013-0.031 0.015-0.063 0.005-0.094 0.018-0.195 0.018-0.389 0.001-0.583 0.005-0.594 0.041-1.188 0.054-1.782 0.001-0.065 0.012-0.13 0.034-0.194 0.006-0.017 0.021-0.029 0.040-0.029 0.014 0 0.027 0.007 0.035 0.018l0 0c0.041 0.060 0.108 0.113 0.151 0.165 0.137 0.172 0.228 0.302 0.272 0.391 0.082 0.161 0.185 0.325 0.222 0.497 0.029 0.138 0.041 0.267 0.035 0.387-0.008 0.148-0.079 0.266-0.143 0.4-0.066 0.139-0.134 0.276-0.204 0.412-0.043 0.081-0.068 0.176-0.068 0.278 0 0.066 0.011 0.13 0.031 0.19l-0.001-0.004c0.029 0.075 0.065 0.183 0.096 0.292l0.008 0.031zM24.345 19.207c0.067-0.187 0.144-0.446 0.209-0.708l0.014-0.065c0.103-0.053 0.208-0.11 0.313-0.171 0.385-0.225 0.262-0.779-0.134-0.78 0.055-0.409 0.083-0.827 0.083-1.251 0-5.155-4.185-9.339-9.339-9.339s-9.34 4.185-9.34 9.339c0 0.913 0.131 1.795 0.376 2.629-0.056 0.144-0.107 0.267-0.153 0.367-0.157 0.341-0.368 0.64-0.718 0.783-0.013 0.005-0.025 0.015-0.034 0.027-0.119 0.174-0.149 0.344-0.089 0.511 0.002 0.015 0.007 0.031 0.016 0.049 0.002 0.005 0.005 0.009 0.010 0.012l0.011 0.021c0.116 0.214 0.381 0.313 0.599 0.185 0.353-0.208 0.603-0.296 1.017-0.259l0.027 0.003c1.562 2.978 4.684 5.011 8.277 5.011 0.766 0 1.512-0.092 2.225-0.267 0.107-0.023 0.205-0.045 0.295-0.065 0.185-0.042 0.374-0.11 0.56-0.169 0.438-0.138 0.875-0.341 1.273-0.543 0.58-0.298 1.080-0.631 1.538-1.013l-0.013 0.011c0.633-0.533 1.191-1.098 1.639-1.753l0.004-0.005c0.243-0.33 0.464-0.675 0.662-1.035l0.061-0.101c0.008-0.014 0.029-0.059 0.059-0.123 0.054 0.065 0.129 0.11 0.215 0.124l0.002 0c0.030 0.005 0.064 0.009 0.099 0.009 0.107 0 0.208-0.029 0.295-0.079l-0.003 0.002c0.090-0.051 0.156-0.135 0.184-0.235l0.001-0.003c0.004-0.016 0.007-0.035 0.007-0.054 0-0.040-0.011-0.078-0.030-0.11l0.001 0.001v-0.001c-0.024-0.042-0.053-0.077-0.086-0.109l-0-0c0.062-0.052 0.108-0.12 0.131-0.199l0.001-0.003c0.022-0.086 0.015-0.188-0.054-0.305 0.029-0.049 0.042-0.108 0.035-0.178-0.008-0.085-0.074-0.152-0.158-0.162l-0.001-0c-0.013-0.002-0.028-0.003-0.044-0.003s-0.031 0.001-0.046 0.003l0.002-0zM11.315 21.333l0.006-0.004c-0.039 0.026-0.080 0.049-0.13 0.076-0.087 0.049-0.161 0.073-0.219 0.073l-0.002-0c-0.030-0.003-0.058-0.009-0.083-0.016l0.003 0.001c-0.036-0.011-0.074-0.017-0.113-0.017-0.109 0-0.208 0.046-0.278 0.12l0-0c-0.072 0.073-0.116 0.173-0.116 0.284 0 0.003 0 0.006 0 0.008v0c0 0 0 0 0 0 0 0.113 0.043 0.216 0.112 0.293l0.001 0.001c0.063 0.083 0.161 0.137 0.273 0.139 0.324 0.006 0.555-0.031 0.693-0.112l-0.008-0c-0.090-0.001-0.18-0.004-0.249-0.007-0.007 0-0.018-0.005-0.029-0.016-0.011-0.010-0.017-0.019-0.017-0.027 0-0.026 0.034-0.045 0.1-0.060 0.044-0.010 0.086-0.014 0.124-0.014 0.209 0 0.347-0.084 0.417-0.251l-0.001 0.002c0.014-0.029 0.024-0.060 0.027-0.094l-0 0c-0.045 0.050-0.099 0.091-0.164 0.121-0.027 0.013-0.084 0.031-0.172 0.054l0.002-0.003c0.039-0.054 0.083-0.105 0.131-0.152 0.065-0.067 0.11-0.122 0.133-0.165 0.037-0.063 0.055-0.135 0.055-0.213 0-0.148-0.065-0.306-0.195-0.472 0.020 0.052 0.036 0.090 0.045 0.116l-0.001-0.003c0.023 0.051 0.036 0.107 0.040 0.167 0 0.034-0.009 0.058-0.027 0.072-0.101-0.366-0.341-0.55-0.72-0.55l-0.003 0c-0.052 0.002-0.104 0.006-0.147 0.011-0.084 0.011-0.13 0.019-0.136 0.027l0.114 0.010c0.211 0.019 0.317 0.056 0.317 0.109 0 0.021-0.077 0.044-0.231 0.069 0.087 0.028 0.137 0.043 0.148 0.043h0.001c0.045-0.002 0.086-0.015 0.121-0.035 0.044-0.024 0.078-0.036 0.1-0.036 0.047 0 0.087 0.025 0.117 0.074l-0.001-0.001c0.026 0.039 0.041 0.086 0.041 0.136 0 0.001 0 0.002-0 0.003 0 0.040-0.010 0.060-0.028 0.060-0.014 0-0.035-0.020-0.062-0.060l-0.043-0.067c-0.004 0.011-0.005 0.022-0.005 0.033 0 0.067 0.031 0.129 0.092 0.186l0 0c0.049 0.051 0.116 0.084 0.192 0.091-0.003 0.043-0.014 0.087-0.034 0.133-0.022 0.060-0.047 0.096-0.076 0.107-0.019-0.019-0.029-0.046-0.029-0.081 0-0.016 0.005-0.041 0.016-0.074s0.015-0.058 0.015-0.071c-0.015 0.006-0.034 0.023-0.053 0.051s-0.031 0.051-0.034 0.070c-0.011 0.067-0.015 0.124-0.010 0.171 0.005 0.042-0.013 0.087-0.053 0.139s-0.080 0.076-0.121 0.076c-0.027 0-0.052-0.006-0.074-0.017-0.029-0.014-0.043-0.033-0.043-0.057 0-0.038 0.034-0.077 0.102-0.117 0.095-0.057 0.15-0.169 0.166-0.335zM11.315 21.334v-0.001zM22.495 19.266c-0.079 0.024-0.129 0.088-0.113 0.143s0.094 0.081 0.173 0.058c0.078-0.025 0.129-0.089 0.113-0.144s-0.094-0.081-0.173-0.057zM17.886 21.488c-0.025 0.112-0.037 0.192-0.037 0.238 0 0.109 0.034 0.215 0.102 0.318 0.084 0.123 0.148 0.213 0.192 0.273 0.061 0.084 0.098 0.188 0.102 0.301l0 0.001c0 0.146-0.049 0.268-0.147 0.368-0.089 0.092-0.213 0.149-0.351 0.149-0.004 0-0.008-0-0.012-0h0.001c-0.161 0-0.289-0.055-0.383-0.165-0.090-0.105-0.134-0.239-0.134-0.402 0-0.175 0.076-0.375 0.228-0.599 0.125-0.185 0.27-0.343 0.435-0.48l0.004-0.003zM18.005 22.309c0.005 0.011 0.007 0.026 0.007 0.045 0 0.037-0.011 0.089-0.031 0.158l-0.034 0.105c0 0.061 0.031 0.092 0.092 0.092 0.064 0 0.097-0.043 0.097-0.129 0-0.044-0.013-0.094-0.039-0.154s-0.057-0.098-0.092-0.117zM11.122 13.991c0.231-0.010 0.461 0 0.691 0.031 0.236-0.203 0.559-0.473 0.885-0.739l0.107-0.085c0.254-0.207 0.537-0.431 0.836-0.542 0.033-0.011 0.072-0.020 0.111-0.024l0.002-0c0.009-0.001 0.020-0.002 0.031-0.002 0.022 0 0.044 0.003 0.064 0.009l-0.002-0c0.019 0.007 0.033 0.018 0.043 0.032s0.014 0.033 0.010 0.057c-0.003 0.017-0.013 0.036-0.032 0.054-0.47 0.472-0.919 0.966-1.345 1.479l-0.029 0.036c0.053 0.043 0.091 0.103 0.106 0.172l0 0.002c0.084-0.089 0.165-0.179 0.244-0.271 0.007-0.009 0.016-0.023 0.027-0.044-0.005-0.008-0.010-0.015-0.017-0.020l-0-0c-0.011-0.010-0.022-0.019-0.035-0.028l-0.001-0.001c-0.014-0.010-0.024-0.025-0.027-0.042l-0-0c-0.004-0.022 0.001-0.039 0.010-0.050 0.007-0.010 0.018-0.016 0.032-0.019 0.013-0.002 0.029 0 0.045 0.008 0.025 0.012 0.052 0.037 0.064 0.053 0.047 0.057 0.078 0.128 0.086 0.206l0 0.002c0.071-0.056 0.153-0.103 0.241-0.137l0.006-0.002c0.044-0.018 0.096-0.029 0.15-0.029 0.027 0 0.054 0.003 0.080 0.008l-0.003-0c0.224 0.054 0.172 0.296 0.069 0.425-0.051 0.066-0.105 0.124-0.164 0.178l-0.001 0.001c-0.086 0.077-0.381 0.32-0.548 0.507-0.041 0.046-0.075 0.089-0.094 0.125-0.005 0.009-0.010 0.019-0.014 0.030l-0 0.001 0.004-0.001c0.015-0.003 0.033-0.009 0.052-0.017 0.107-0.054 0.199-0.112 0.285-0.178l-0.004 0.003c0.24-0.181 0.469-0.375 0.675-0.594 0.125-0.133 0.256-0.266 0.37-0.409 0.006-0.008 0.011-0.014 0.010-0.019 0-0.004-0.004-0.007-0.007-0.011-0.005-0.004-0.010-0.009-0.016-0.012l-0-0c-0.023-0.018-0.048-0.037-0.058-0.060-0.003-0.006-0.004-0.013-0.004-0.020s0.001-0.014 0.004-0.021l-0 0c0.004-0.011 0.012-0.021 0.025-0.029 0.008-0.005 0.017-0.008 0.027-0.008 0.001 0 0.002 0 0.004 0h-0c0.035 0.003 0.069 0.029 0.098 0.066 0.032 0.042 0.057 0.092 0.072 0.145l0.001 0.003c0.004 0.018 0.007 0.036 0.009 0.055 0.069-0.054 0.148-0.1 0.233-0.134l0.006-0.002c0.048-0.019 0.103-0.030 0.16-0.030 0.028 0 0.055 0.003 0.082 0.008l-0.003-0c0.058 0.013 0.107 0.044 0.133 0.099 0.037 0.076 0.025 0.158-0.013 0.237-0.052 0.107-0.155 0.207-0.223 0.269-0.059 0.053-0.39 0.331-0.56 0.526-0.034 0.035-0.063 0.075-0.087 0.119l-0.001 0.003-0.004 0.012c0.016-0.002 0.032-0.007 0.049-0.014 0.191-0.090 0.363-0.225 0.522-0.359 0.275-0.233 0.533-0.483 0.774-0.75 0.014-0.015 0.030-0.033 0.041-0.051 0.007-0.011 0.013-0.023 0.009-0.034s-0.015-0.019-0.035-0.028c-0.017-0.008-0.030-0.024-0.034-0.042l-0-0c-0.006-0.027 0.005-0.048 0.021-0.060 0.009-0.006 0.021-0.010 0.033-0.010 0.010 0 0.020 0.003 0.028 0.007l-0-0c0.036 0.018 0.068 0.048 0.094 0.092 0.085 0.142 0.066 0.253-0.020 0.386-0.075 0.108-0.158 0.203-0.25 0.287l-0.001 0.001c-0.227 0.214-0.401 0.363-0.546 0.572 0.022-0.009 0.044-0.020 0.067-0.032 0.166-0.097 0.309-0.197 0.443-0.309l-0.005 0.004c0.288-0.239 0.548-0.487 0.788-0.753l0.006-0.006c0.019-0.021 0.043-0.051 0.069-0.091 0.007-0.011 0.004-0.020-0.003-0.028-0.009-0.009-0.018-0.016-0.029-0.022l-0.001-0c-0.019-0.011-0.032-0.031-0.032-0.054 0-0.011 0.003-0.021 0.008-0.030l-0 0c0.007-0.013 0.020-0.021 0.036-0.025 0.017-0.004 0.037 0 0.051 0.009 0.084 0.059 0.138 0.156 0.138 0.265 0 0.052-0.012 0.101-0.034 0.145l0.001-0.002c-0.037 0.070-0.079 0.131-0.128 0.186l0.001-0.001c-0.227 0.261-0.514 0.462-0.715 0.747 0.116-0.005 0.252-0.094 0.34-0.159 0.272-0.199 0.503-0.436 0.69-0.705l0.006-0.010c0.079-0.107 0.14-0.232 0.177-0.366l0.002-0.008c0.002-0.011 0-0.022-0.004-0.034-0.005-0.017-0.012-0.034-0.015-0.050-0.007-0.032-0.004-0.062 0.023-0.087 0.022-0.021 0.046-0.025 0.066-0.019 0.028 0.007 0.052 0.035 0.054 0.072 0.016 0.203-0.124 0.459-0.238 0.62-0.132 0.185-0.278 0.347-0.441 0.49l-0.003 0.003c-0.175 0.155-0.4 0.329-0.634 0.365-0.060 0.009-0.101-0.002-0.129-0.023-0.026-0.021-0.045-0.051-0.051-0.086l-0-0.001c-0.004-0.023-0.007-0.049-0.007-0.075 0-0.002 0-0.005 0-0.007v0c-0.097 0.078-0.207 0.15-0.322 0.213l-0.012 0.006c-0.068 0.034-0.129 0.050-0.167 0.040-0.025-0.006-0.028-0.024-0.028-0.031-0-0.001-0-0.001-0-0.002 0-0.011 0.006-0.021 0.015-0.027l0-0c-0.023 0.002-0.042-0.001-0.059-0.007-0.036-0.015-0.062-0.045-0.073-0.082l-0-0.001c-0.009-0.029-0.014-0.062-0.014-0.096 0-0.004 0-0.009 0-0.013l-0 0.001c-0.097 0.078-0.205 0.15-0.32 0.213l-0.012 0.006c-0.067 0.033-0.128 0.050-0.168 0.042-0.026-0.005-0.029-0.023-0.030-0.030 0-0.007 0-0.026 0.024-0.035-0.014 0.002-0.027 0.002-0.038 0-0.060-0.008-0.099-0.049-0.12-0.104-0.012-0.035-0.019-0.076-0.019-0.118 0-0.039 0.006-0.076 0.017-0.111l-0.001 0.003c0.047-0.142 0.238-0.325 0.351-0.427 0.148-0.135 0.298-0.271 0.447-0.405 0.034-0.030 0.064-0.064 0.090-0.1-0.010-0.005-0.023-0.008-0.035-0.009l-0-0c-0.039-0.004-0.085 0.004-0.112 0.012-0.142 0.048-0.262 0.128-0.357 0.232l-0.001 0.001c-0.264 0.273-0.526 0.559-0.782 0.852l-0.023 0.027c-0.035 0.040-0.073 0.078-0.109 0.116-0.020 0.020-0.052 0.023-0.075 0.006-0.021-0.016-0.036-0.039-0.046-0.066-0.006-0.017-0.011-0.036-0.014-0.057l-0-0.001c-0.070 0.052-0.197 0.139-0.298 0.185-0.034 0.016-0.065 0.027-0.091 0.030-0.021 0.004-0.041 0.002-0.055-0.004-0.020-0.009-0.022-0.024-0.022-0.032 0-0 0-0 0-0 0-0.011 0.005-0.021 0.014-0.026l0-0c-0.092 0.001-0.147-0.069-0.161-0.154-0.003-0.019-0.005-0.041-0.005-0.063 0-0.082 0.026-0.159 0.069-0.222l-0.001 0.001c0.055-0.078 0.115-0.146 0.181-0.207l0.001-0.001c0.167-0.163 0.338-0.322 0.512-0.477 0.030-0.027 0.074-0.064 0.107-0.1 0.014-0.015 0.026-0.029 0.033-0.043-0.010-0.005-0.021-0.007-0.034-0.009-0.008-0.001-0.017-0.001-0.026-0.001-0.024 0-0.048 0.003-0.070 0.009l0.002-0c-0.192 0.051-0.325 0.178-0.457 0.316-0.282 0.297-0.547 0.608-0.826 0.907-0.021 0.023-0.045 0.028-0.065 0.024-0.022-0.006-0.040-0.022-0.049-0.042l-0-0c-0.046-0.091-0.053-0.221 0.022-0.301 0.124-0.134 0.252-0.266 0.373-0.402 0.062-0.070 0.112-0.139 0.109-0.21-0.001-0.039-0.019-0.078-0.059-0.119-0.256 0.3-0.495 0.633-0.706 0.985l-0.019 0.034c-0.021 0.037-0.052 0.052-0.091 0.048-0.014-0.002-0.026-0.010-0.034-0.021l-0-0c-0.017-0.032-0.027-0.070-0.027-0.111 0-0.014 0.001-0.027 0.003-0.040l-0 0.001c0.008-0.077 0.037-0.162 0.060-0.214 0.135-0.304 0.345-0.582 0.562-0.834-0.075-0.029-0.152-0.051-0.231-0.067-0.567 0.532-1.209 1.077-1.958 1.327-0.189 0.064-0.409 0.108-0.636 0.124l-0.008 0c-0.441 0.033-0.882-0.141-0.971-0.625-0.063-0.345 0.062-0.722 0.252-1.013 0.22-0.338 0.535-0.605 0.886-0.798 0.288-0.159 0.679-0.297 1.041-0.283 0.245 0.011 0.477 0.090 0.655 0.277 0.036 0.039 0.059 0.094 0.069 0.155 0.016 0.085 0.011 0.182-0.002 0.251-0.027 0.15-0.075 0.285-0.14 0.408l0.004-0.008zM13.61 12.783c-0.045 0.021-0.089 0.047-0.125 0.069-0.123 0.076-0.227 0.148-0.327 0.226l0.008-0.006c-0.396 0.307-0.758 0.655-1.123 1 0.069 0.019 0.137 0.043 0.203 0.073 0.285-0.32 0.576-0.628 0.873-0.923 0.157-0.156 0.324-0.309 0.491-0.439zM11.679 14.137c-0.097-0.009-0.209-0.014-0.323-0.014-0.109 0-0.218 0.005-0.325 0.014l0.014-0.001c-0.334 0.526-0.9 1.017-1.522 1.155-0.080 0.018-0.188 0.028-0.276 0.005-0.097-0.026-0.172-0.089-0.175-0.219-0.002-0.111 0.055-0.221 0.14-0.32 0.121-0.142 0.298-0.262 0.419-0.332 0.34-0.201 0.739-0.346 1.164-0.409l0.018-0.002c0.058-0.108 0.107-0.233 0.14-0.364l0.002-0.011c0.022-0.089 0.039-0.226 0.019-0.343-0.012-0.073-0.038-0.137-0.091-0.174-0.134-0.098-0.334-0.106-0.496-0.085-0.803 0.102-1.723 0.81-1.892 1.626-0.052 0.25-0.007 0.459 0.114 0.607s0.318 0.234 0.57 0.237c0.58 0.009 1.14-0.302 1.608-0.651 0.337-0.251 0.627-0.487 0.908-0.734l-0.016 0.014zM10.714 14.178c-0.454 0.086-0.857 0.256-1.21 0.493l0.012-0.007c-0.097 0.064-0.18 0.14-0.248 0.227l-0.002 0.002c-0.041 0.051-0.068 0.116-0.072 0.186l-0 0.001c0 0.033 0.009 0.058 0.026 0.075s0.041 0.027 0.068 0.032c0.098 0.018 0.233-0.021 0.295-0.044 0.464-0.169 0.865-0.553 1.131-0.965zM20.32 19.564c-0.015 0.011-0.023 0.007-0.023-0.012v-0.185c0-0.016 0.008-0.030 0.021-0.038 0.034-0.020 0.044-0.050 0.032-0.090l-0-0c-0.004-0.012-0.016-0.021-0.029-0.021-0.003 0-0.006 0-0.009 0.001l-0.327 0.106c-0.018 0.006-0.031 0.024-0.031 0.044 0 0.014 0.006 0.026 0.016 0.035l0.037 0.032c0.010 0.009 0.017 0.022 0.017 0.036 0 0 0 0.001 0 0.001l-0.005 0.581c0 0.020-0.008 0.036-0.024 0.048-0.031 0.024-0.040 0.057-0.027 0.099l0 0c0.005 0.016 0.020 0.027 0.037 0.027 0 0 0 0 0 0h0.305c0.066 0 0.080-0.027 0.041-0.081l-0.048-0.067c-0.003-0.005-0.005-0.010-0.005-0.015v-0.334c0-0.018 0.012-0.034 0.029-0.039l0.064-0.018c0.006-0.002 0.011-0.003 0.017-0.003 0.034 0 0.061 0.027 0.061 0.061v0.325c0 0.019-0.006 0.035-0.020 0.047-0.027 0.026-0.037 0.059-0.029 0.098l0 0c0.003 0.014 0.016 0.025 0.031 0.025h0.311c0.020 0 0.033-0.010 0.038-0.029 0.012-0.041 0.003-0.073-0.028-0.097-0.013-0.011-0.019-0.025-0.019-0.041 0.012-0.275 0.020-0.816-0.433-0.498zM19.579 10.478h-0.875v0.308h0.237v1.231h0.4v-1.231h0.238v-0.308zM20.589 10.478h-0.4v0.55h-0.119v-0.55h-0.4v1.539h0.4v-0.646h0.12v0.646h0.4v-1.539zM14.441 13.811l-0.006 0.002c0.082-0.029 0.17-0.044 0.262-0.044 0.054 0 0.107 0.005 0.152 0.015l0.004 0.001c0.077 0.018 0.148 0.051 0.208 0.097l0.001-0.002c0.067-0.11 0.185-0.185 0.323-0.191l0.001-0.004c0.031-0.093 0.089-0.174 0.164-0.235l-0.001 0.001c0.087-0.074 0.199-0.118 0.322-0.118 0.090 0 0.174 0.024 0.244 0.064v-2.54c0-0.346 0.020-0.566 0.060-0.661s0.122-0.143 0.246-0.143c0.127 0 0.208 0.045 0.243 0.134s0.052 0.313 0.052 0.67v2.752l0.003 0.001c0.142 0.034 0.256 0.142 0.3 0.284l-0.008 0.004c0.103-0.050 0.213-0.086 0.337-0.11 0.063-0.012 0.195-0.042 0.284-0.029l0.002 0c0.064 0.009 0.124 0.032 0.174 0.065l0.002-0.004c0.118-0.213 0.328-0.368 0.581-0.413v-1.985c0-0.508-0.026-0.879-0.076-1.111l-0.002-0.010c-0.051-0.23-0.153-0.44-0.291-0.616-0.143-0.186-0.361-0.342-0.651-0.471s-0.619-0.193-0.987-0.193c-0.451 0-0.834 0.092-1.15 0.278s-0.528 0.431-0.634 0.738c-0.107 0.307-0.16 0.769-0.16 1.385v2.393zM10.656 20.78c-0.054 0-0.109 0.033-0.166 0.098l-0 0c-0.047 0.046-0.081 0.105-0.096 0.174 0.032-0.022 0.055-0.039 0.069-0.050 0.034-0.024 0.057-0.037 0.072-0.038l0.021 0.1c0.043-0.076 0.075-0.12 0.098-0.131l0.061-0.009c0.032-0.008 0.048-0.027 0.048-0.055 0-0.059-0.036-0.089-0.107-0.089zM10.861 21.004v0c-0.011 0-0.021 0.005-0.028 0.012l0.002 0.001c0.045 0.023 0.083 0.058 0.11 0.102 0.030 0.043 0.064 0.064 0.102 0.064h0c0.032-0.001 0.062-0.011 0.087-0.027 0.029-0.018 0.044-0.041 0.044-0.068 0-0.055-0.026-0.084-0.078-0.084-0.022 0-0.043 0.011-0.061 0.034s-0.031 0.034-0.039 0.034c-0.010 0-0.031-0.011-0.066-0.034s-0.058-0.034-0.073-0.034zM15.827 19.567c-0.017 0.011-0.024 0.006-0.023-0.013l0.008-0.201v-0c0-0.014 0.007-0.026 0.018-0.034 0.027-0.021 0.035-0.050 0.023-0.085-0.006-0.017-0.018-0.023-0.035-0.017l-0.307 0.101c-0.018 0.006-0.030 0.020-0.034 0.038-0.006 0.028 0.003 0.049 0.024 0.064l0 0c0.014 0.009 0.023 0.024 0.024 0.041 0.027 0.25 0.015 0.496-0.035 0.739-0.004 0.020 0.004 0.029 0.025 0.029l0.313-0.007c0.016-0.001 0.025-0.008 0.028-0.024 0.005-0.039-0.005-0.072-0.032-0.099-0.009-0.009-0.014-0.021-0.014-0.034v-0.333c0-0 0-0.001 0-0.001 0-0.012 0.006-0.023 0.015-0.030l-0 0c0.022-0.020 0.051-0.033 0.083-0.033 0.019 0 0.037 0.004 0.052 0.012l0 0c0.013 0.006 0.022 0.018 0.022 0.033 0 0 0 0 0 0l0.001 0.341c0 0.018-0.006 0.032-0.018 0.044v0c-0.018 0.018-0.030 0.043-0.030 0.071 0 0.011 0.002 0.022 0.005 0.031 0.005 0.019 0.017 0.027 0.036 0.027l0.302-0.005c0.019-0.001 0.034-0.016 0.034-0.034 0.003-0.039-0.011-0.073-0.040-0.101-0.011-0.010-0.017-0.025-0.017-0.040 0.005-0.252 0.051-0.8-0.429-0.482zM19.788 20.068c-0.017 0-0.030-0.013-0.030-0.030v-0.371c0-0.014 0.007-0.021 0.020-0.021 0.069-0.001 0.1-0.040 0.095-0.117-0.001-0.016-0.009-0.023-0.025-0.023h-0.067c-0.012 0-0.022-0.010-0.022-0.022l-0.004-0.116v-0c-0.001-0.029-0.024-0.052-0.053-0.052-0.019 0-0.036 0.010-0.046 0.026-0.058 0.094-0.227 0.172-0.249 0.245-0.006 0.017 0 0.030 0.017 0.038l0.039 0.019c0.013 0.006 0.020 0.017 0.020 0.033-0.001 0.135-0.001 0.27 0.001 0.404 0.002 0.242 0.308 0.167 0.41 0.056l-0 0c0.006-0.007 0.010-0.017 0.010-0.028 0-0.023-0.018-0.042-0.041-0.042h-0.074zM21.215 19.961c0.085 0.11 0.18 0.121 0.283 0.034 0.009-0.008 0.022-0.012 0.035-0.012 0.030 0 0.055 0.025 0.055 0.055 0 0.012-0.004 0.024-0.011 0.033l0-0c-0.221 0.292-0.699 0.205-0.69-0.208 0.009-0.426 0.529-0.537 0.689-0.135 0.015 0.037 0.003 0.064-0.035 0.078l-0.317 0.121c-0.019 0.007-0.021 0.019-0.010 0.035zM21.175 19.801l0.112-0.036c0.010-0.004 0.018-0.014 0.018-0.025 0-0.003-0-0.005-0.001-0.008l0 0-0.002-0.006c-0.023-0.073-0.077-0.121-0.12-0.108l-0.007 0.002c-0.043 0.014-0.059 0.085-0.035 0.157l0.002 0.006c0.004 0.011 0.014 0.018 0.025 0.018 0.003 0 0.005-0 0.008-0.001l-0 0zM16.726 19.967c0.087 0.103 0.183 0.111 0.286 0.024 0.008-0.007 0.018-0.011 0.030-0.011s0.023 0.005 0.031 0.012l-0-0c0.029 0.027 0.031 0.060 0.007 0.097-0.022 0.035-0.068 0.069-0.138 0.103-0.295 0.147-0.57-0.041-0.539-0.373 0.037-0.404 0.51-0.46 0.679-0.103l0.001 0.002c0.003 0.008 0.005 0.017 0.005 0.026 0 0.028-0.017 0.051-0.041 0.061l-0 0-0.311 0.119c-0.023 0.009-0.027 0.023-0.011 0.042zM16.67 19.801l0.138-0.039c0.005-0.002 0.009-0.007 0.007-0.012l-0.004-0.013c-0.021-0.077-0.075-0.13-0.118-0.118s-0.061 0.085-0.039 0.163l0.004 0.013c0.001 0.005 0.005 0.007 0.010 0.007h0.003zM15.811 21.781c-0.068 0.091-0.102 0.158-0.102 0.201 0 0.022 0.013 0.046 0.040 0.071 0.033 0.030 0.052 0.051 0.057 0.064 0.016 0.036 0.014 0.085-0.005 0.149 0.043 0.029 0.075 0.044 0.098 0.044 0.045 0 0.068-0.023 0.068-0.071 0-0.005-0.002-0.020-0.006-0.045s-0.005-0.039-0.004-0.043c0.006-0.022 0.050-0.033 0.13-0.033 0.051 0 0.155 0.014 0.315 0.043l-0.156 0.043c-0.063 0.019-0.094 0.040-0.094 0.064 0 0.011 0.004 0.030 0.012 0.057s0.012 0.046 0.012 0.059c0 0.022-0.014 0.043-0.043 0.062l-0.080 0.057c0.019 0.035 0.031 0.055 0.037 0.062 0.016 0.019 0.037 0.028 0.064 0.028 0.019 0 0.036-0.017 0.052-0.050s0.041-0.050 0.075-0.050c0.043 0 0.091 0.039 0.144 0.118 0.030 0.044 0.077 0.111 0.14 0.201-0.123-0.069-0.202-0.104-0.236-0.104-0.025 0-0.045 0.019-0.059 0.058s-0.043 0.058-0.085 0.058c-0.018 0-0.053-0.006-0.107-0.019-0.030 0.046-0.045 0.075-0.045 0.087 0 0.017 0.013 0.037 0.038 0.061s0.048 0.036 0.066 0.036c0.017-0.001 0.032-0.004 0.047-0.008l-0.002 0c0.019-0.005 0.032-0.007 0.038-0.007 0.020 0 0.029 0.036 0.029 0.107 0 0.067-0.016 0.172-0.047 0.312-0.041-0.161-0.084-0.241-0.13-0.241-0.006 0-0.019 0.004-0.039 0.014s-0.034 0.014-0.044 0.014c-0.045 0-0.086-0.042-0.123-0.125-0.073 0.011-0.109 0.048-0.109 0.111 0 0.031 0.014 0.057 0.044 0.076s0.044 0.032 0.044 0.040c0 0.043-0.062 0.108-0.187 0.196-0.066 0.047-0.112 0.080-0.137 0.099 0.021-0.028 0.044-0.065 0.066-0.111 0.025-0.052 0.037-0.092 0.037-0.121 0-0.016-0.018-0.038-0.054-0.066s-0.054-0.059-0.054-0.090c0-0.027 0.009-0.060 0.028-0.099-0.017-0.022-0.044-0.035-0.073-0.035-0 0-0 0-0 0v0c-0.063 0-0.095 0.020-0.095 0.061v0.064c0.002 0.052-0.037 0.078-0.118 0.078-0.062 0-0.165-0.014-0.309-0.043 0.163-0.041 0.245-0.089 0.245-0.142 0 0.006-0.003-0.012-0.010-0.057-0.006-0.049 0.029-0.093 0.104-0.133-0.014-0.072-0.052-0.109-0.113-0.109-0.010 0-0.027 0.017-0.052 0.050s-0.049 0.050-0.071 0.050c-0.037 0-0.086-0.041-0.147-0.123-0.061-0.089-0.104-0.149-0.147-0.207l0.018 0.025 0.108 0.057c0.048 0.021 0.085 0.033 0.114 0.033 0.022 0 0.044-0.019 0.065-0.058s0.049-0.058 0.084-0.058c0.005 0 0.036 0.010 0.095 0.028 0.030-0.045 0.045-0.079 0.045-0.101 0-0.019-0.011-0.041-0.034-0.065s-0.044-0.037-0.063-0.037c-0.008 0-0.020 0.003-0.037 0.007-0.016 0.004-0.028 0.007-0.036 0.007-0.028 0-0.043-0.036-0.043-0.107 0-0.019 0.018-0.127 0.054-0.324-0.002 0.023 0.009 0.068 0.031 0.132 0.027 0.079 0.058 0.118 0.094 0.118 0.006 0 0.019-0.005 0.037-0.014s0.034-0.014 0.045-0.014c0.036 0 0.066 0.020 0.090 0.061l0.036 0.064c0.033 0 0.061-0.012 0.083-0.036s0.033-0.052 0.033-0.085c0-0.034-0.014-0.061-0.044-0.079s-0.044-0.032-0.044-0.042c0-0.033 0.052-0.089 0.156-0.167 0.048-0.039 0.101-0.076 0.157-0.108l0.006-0.003zM15.667 22.301c-0.001-0-0.003-0-0.004-0-0.102 0-0.194 0.042-0.26 0.11l-0 0c-0.070 0.066-0.113 0.16-0.114 0.263v0c-0 0.002-0 0.005-0 0.008 0 0.1 0.043 0.19 0.112 0.253l0 0c0.068 0.068 0.161 0.11 0.264 0.11 0.001 0 0.001 0 0.002 0h-0c0.107 0 0.197-0.035 0.268-0.105 0.065-0.063 0.105-0.152 0.105-0.25 0-0.006-0-0.012-0-0.018l0 0.001c0-0.1-0.037-0.188-0.111-0.262-0.065-0.068-0.158-0.111-0.259-0.111-0.001 0-0.002 0-0.003 0h0zM15.667 22.341h0c-0.001 0-0.002 0-0.003 0-0.092 0-0.175 0.038-0.235 0.099-0.067 0.065-0.101 0.143-0.101 0.235v-0c-0 0.002-0 0.004-0 0.006 0 0.091 0.038 0.173 0.099 0.231 0.066 0.065 0.146 0.097 0.239 0.097h-0c0.003 0 0.006 0 0.010 0 0.090 0 0.172-0.036 0.232-0.095 0.065-0.063 0.097-0.143 0.097-0.239v0c0-0.001 0-0.001 0-0.002 0-0.092-0.039-0.174-0.101-0.232-0.067-0.066-0.146-0.099-0.237-0.099zM13.243 21.537c0.079 0 0.149 0.032 0.209 0.095 0.019 0.020 0.028 0.030 0.031 0.035 0.034-0.010 0.073-0.016 0.114-0.018l0.001-0c0.064 0 0.122 0.027 0.164 0.069l0 0c0.041 0.042 0.071 0.095 0.085 0.155l0 0.002c0.011 0.002 0.029 0.006 0.053 0.014 0.035 0.018 0.052 0.047 0.052 0.091 0 0.008-0.006 0.022-0.019 0.045 0.101 0.057 0.153 0.137 0.153 0.238 0 0.028-0.011 0.068-0.034 0.119 0.041 0.023 0.062 0.059 0.062 0.105 0 0.032-0.012 0.060-0.037 0.085s-0.053 0.038-0.084 0.038c-0.001 0-0.003 0-0.004 0-0.048 0-0.089-0.029-0.107-0.070l-0-0.001-0.112-0.005c-0.023 0-0.070 0.011-0.14 0.031-0.075 0.021-0.117 0.037-0.128 0.050-0.018 0.019-0.032 0.064-0.043 0.133-0.007 0.037-0.013 0.080-0.014 0.124l-0 0.002c0 0.043 0.006 0.074 0.020 0.094s0.041 0.037 0.083 0.050c0.043 0.013 0.068 0.021 0.077 0.022 0.006 0 0.017-0.001 0.031-0.002h0.028c0.021 0 0.042 0.003 0.064 0.010 0.032 0.009 0.045 0.022 0.041 0.037-0.003-0-0.006-0-0.010-0-0.038 0-0.075 0.006-0.109 0.016l0.003-0.001 0.067 0.033c0 0.019-0.027 0.029-0.081 0.029-0.014 0-0.034-0.003-0.059-0.010-0.014-0.004-0.030-0.008-0.047-0.009l-0.001-0h-0.031c-0.002 0.016-0.006 0.039-0.014 0.071-0.027-0.002-0.059-0.018-0.095-0.048s-0.059-0.045-0.069-0.045c-0.009 0-0.022 0.015-0.040 0.045s-0.026 0.051-0.026 0.062c-0.021-0.012-0.038-0.032-0.052-0.062-0.006-0.020-0.013-0.041-0.021-0.061-0.016 0.002-0.045 0.035-0.088 0.1h-0.012c-0.003-0.005-0.015-0.038-0.035-0.1-0.041-0.015-0.089-0.023-0.138-0.024h-0c-0.020 0-0.052 0.005-0.094 0.014l-0.067-0.005c0.010-0.009 0.037-0.027 0.083-0.054 0.035-0.024 0.077-0.041 0.122-0.047l0.001-0c0.004 0 0.011 0.001 0.019 0.003s0.014 0.002 0.019 0.002 0.029-0.006 0.053-0.018c0.025-0.012 0.039-0.022 0.043-0.032s0.006-0.034 0.006-0.074c0-0.091-0.024-0.158-0.071-0.202-0.041-0.039-0.109-0.068-0.205-0.085-0.025 0.091-0.096 0.135-0.213 0.135-0.038 0-0.077-0.023-0.115-0.069-0.038-0.045-0.057-0.088-0.057-0.126 0-0.059 0.025-0.107 0.074-0.145-0.039-0.041-0.059-0.083-0.059-0.126 0-0.001-0-0.002-0-0.002 0-0.039 0.014-0.075 0.037-0.102l-0 0c0.025-0.030 0.057-0.048 0.096-0.053-0.003-0.051 0.014-0.085 0.050-0.105-0.017-0.017-0.026-0.048-0.026-0.093-0-0.001-0-0.003-0-0.005 0-0.098 0.080-0.178 0.178-0.178 0.002 0 0.004 0 0.006 0h-0c0.057 0 0.103 0.020 0.14 0.059 0.046-0.157 0.145-0.235 0.297-0.235zM12.972 22.414h0c0.042 0.002 0.079 0.018 0.108 0.045 0.035 0.030 0.053 0.063 0.053 0.1v0.031c-0.106-0.101-0.202-0.149-0.285-0.145 0.038-0.020 0.079-0.030 0.124-0.030zM13.166 22.107v0.036l0.069 0.078v-0.105c-0.038-0.006-0.061-0.010-0.069-0.010zM13.623 22.371l-0.096 0.068c-0.033 0.023-0.061 0.049-0.084 0.077 0.071-0.038 0.149-0.065 0.233-0.081l-0.052-0.065zM13.438 22.107v0.205c0.075-0.043 0.11-0.095 0.107-0.157-0.019-0.007-0.054-0.023-0.107-0.047zM13.029 22.212c-0.067 0.018-0.1 0.037-0.1 0.060 0.019-0.002 0.047 0.002 0.083 0.011 0.023 0.007 0.050 0.011 0.078 0.013l0.001 0c-0.022-0.025-0.043-0.052-0.061-0.081l-0.001-0.002zM24.178 20.101c0.005-0 0.012-0.001 0.018-0.001 0.101 0 0.189 0.056 0.234 0.138l0.001 0.001c0.009 0.014 0.011 0.032 0.007 0.048-0.066 0.261-0.606 0.271-0.543 0.010 0.004-0.014 0.011-0.027 0.022-0.037l0.040-0.034c0.005-0.004 0.007-0.010 0.007-0.017 0-0.012-0.010-0.022-0.022-0.022-0 0-0 0-0 0h0c-0.003 0-0.005 0-0.008 0.002-0.072 0.028-0.129 0.012-0.171-0.051-0.013-0.019-0.008-0.031 0.013-0.037l0.176-0.052c0.025-0.007 0.025-0.016 0.002-0.026-0.419-0.179-0.117-0.617 0.261-0.539 0.015 0.003 0.026-0.003 0.030-0.018 0.025-0.082 0.082-0.117 0.172-0.107 0.012 0.001 0.021 0.011 0.022 0.023 0.006 0.060-0.016 0.104-0.066 0.132-0.007 0.003-0.011 0.010-0.011 0.018 0 0.005 0.002 0.010 0.005 0.013v-0c0.229 0.267 0.035 0.417-0.195 0.523-0.006 0.003-0.010 0.008-0.010 0.015 0 0 0 0 0 0v0c0 0.010 0.007 0.017 0.016 0.017h0.001zM24.121 20.268c-0.030 0.046-0.027 0.084 0.010 0.114 0.005 0.004 0.012 0.007 0.019 0.007 0.017-0 0.031-0.014 0.031-0.031 0-0.002-0-0.005-0.001-0.007l0 0-0.019-0.076c-0.002-0.010-0.011-0.017-0.022-0.017-0.008 0-0.015 0.004-0.019 0.010l-0 0zM24.163 19.941c0.043-0.013 0.055-0.102 0.027-0.198s-0.086-0.166-0.13-0.154c-0.043 0.013-0.055 0.102-0.027 0.199s0.086 0.165 0.129 0.153zM12.115 13.335l-0.151 0.122c0.156-0.129 0.312-0.258 0.63-0.516 0.282-0.23 0.6-0.474 0.931-0.596l-0.006 0.002c0.085-0.029 0.176-0.046 0.271-0.048v-3.151h-0.987c-0.42 0.542-1.035 0.9-1.845 1.074v0.784h0.166c0.387 0 0.636 0.027 0.748 0.081s0.18 0.133 0.205 0.238 0.037 0.417 0.037 0.937v1.074zM20.137 20.773c0.013 0.001 0.039 0.027 0.078 0.078 0.029 0.039 0.053 0.074 0.071 0.105 0.050 0.087 0.086 0.188 0.104 0.295l0.001 0.005c0 0.037 0.001 0.065 0.002 0.081v0.019c0 0.108-0.039 0.181-0.117 0.22-0.022 0.012-0.094 0.027-0.215 0.046-0.078 0.013-0.117 0.043-0.117 0.091v0.198c0 0.009 0.002 0.034 0.007 0.076l0.007 0.078c0 0.025-0.005 0.065-0.017 0.12l-0.108 0.022c-0.009-0.029-0.016-0.063-0.019-0.099l-0-0.002c0-0.008 0.002-0.020 0.006-0.037s0.006-0.028 0.006-0.037c-0.008-0.036-0.018-0.068-0.032-0.098l0.001 0.003h-0.038c-0.004 0.007-0.006 0.014-0.006 0.023 0 0.003 0 0.006 0.001 0.010l-0-0c0.006 0.028 0.009 0.051 0.007 0.070-0.028 0.020-0.066 0.046-0.115 0.078-0.011-0.003-0.015-0.005-0.012-0.005v-0.173c-0.003-0.008-0.011-0.011-0.025-0.010h-0.029l-0.029 0.229c-0.012 0.001-0.027 0.001-0.042 0.001s-0.029-0-0.044-0.001l0.002 0c-0.011-0.053-0.032-0.133-0.061-0.239h-0.020l-0.029 0.093c0 0.006 0.002 0.019 0.006 0.037 0.004 0.019 0.006 0.032 0.006 0.038 0 0.005-0.002 0.017-0.005 0.037l-0.007 0.059c-0.003 0.003-0.007 0.005-0.011 0.005-0 0-0.001 0-0.001-0h0c-0.049 0-0.082-0.012-0.098-0.037s-0.023-0.059-0.020-0.103l0.020-0.293c0-0.005 0.002-0.011 0.005-0.020s0.005-0.014 0.005-0.017c0-0.013-0.014-0.039-0.042-0.078-0.032-0.009-0.113-0.027-0.194-0.044l-0.046-0.008c-0.112-0.021-0.169-0.112-0.169-0.272 0-0.238 0.098-0.436 0.293-0.594 0.009 0.044 0.022 0.102 0.042 0.176l0.096 0.022 0.149 0.053c-0.067-0.043-0.126-0.088-0.181-0.136l0.002 0.001c-0.028-0.033-0.042-0.087-0.042-0.164 0-0.018 0.031-0.039 0.093-0.064 0.036-0.017 0.078-0.030 0.121-0.038l0.003-0.001c0.088-0.011 0.155-0.017 0.203-0.017 0.204 0 0.369 0.052 0.494 0.157-0.059 0.061-0.129 0.111-0.206 0.149l-0.004 0.002c0.039 0.002 0.096-0.014 0.171-0.046 0.074-0.032 0.106-0.048 0.096-0.049zM19.168 21.108h0c0.078 0.003 0.148 0.039 0.196 0.094 0.061 0.062 0.092 0.129 0.092 0.199 0 0.059-0.054 0.087-0.164 0.086h-0.135c-0.062-0.002-0.11-0.007-0.144-0.018-0.054-0.017-0.081-0.052-0.081-0.108v-0c0-0.068 0.027-0.13 0.071-0.175 0.047-0.052 0.102-0.079 0.164-0.079zM19.549 21.424c0.005 0 0.009 0.002 0.012 0.007v0.085l-0.001-0.013c0.009 0.077 0.015 0.155 0.018 0.239l-0-0c0.004 0.003 0.009 0.005 0.014 0.005 0 0 0.001 0 0.001-0 0.010 0 0.015-0.011 0.015-0.034l0.027-0.286c0.026 0.059 0.044 0.105 0.054 0.138 0.011 0.023 0.023 0.044 0.034 0.066v0.076c0 0.088-0.009 0.132-0.025 0.132-0.044-0.020-0.082-0.029-0.113-0.029s-0.050 0.002-0.056 0.005c-0.017 0.008-0.031 0.014-0.044 0.017-0.013-0.016-0.019-0.059-0.019-0.13 0-0.127 0.027-0.219 0.083-0.276zM20.034 21.111c-0.069 0-0.133 0.031-0.192 0.094-0.053 0.050-0.087 0.119-0.090 0.196l-0 0.001c0 0.057 0.028 0.085 0.083 0.085h0.281c0.106-0.002 0.159-0.043 0.159-0.123 0-0.066-0.024-0.125-0.073-0.176-0.041-0.047-0.101-0.077-0.168-0.078h-0zM18.977 19.712c-0.004-0.036-0.024-0.060-0.061-0.069-0.004-0.001-0.008-0.002-0.013-0.002-0.009 0-0.018 0.003-0.026 0.007l0-0-0.124 0.078c-0.009 0.006-0.020 0.009-0.032 0.009-0.034 0-0.061-0.027-0.061-0.061 0-0.008 0.002-0.016 0.004-0.023l-0 0 0.071-0.177c0.006-0.016 0.026-0.025 0.042-0.018l0.075 0.030c0.012 0.005 0.023 0.005 0.035 0.002 0.030-0.011 0.065-0.017 0.101-0.017 0.101 0 0.191 0.048 0.248 0.123l0.001 0.001c0.009 0.011 0.013 0.023 0.013 0.036l0.001 0.423c0 0.013 0.005 0.026 0.014 0.035 0.027 0.029 0.042 0.063 0.044 0.102 0 0.001 0 0.001 0 0.002 0 0.012-0.008 0.022-0.020 0.025l-0 0c-0.035 0.010-0.075 0.015-0.117 0.015-0.065 0-0.126-0.014-0.182-0.038l0.003 0.001c-0.007-0.003-0.015-0.005-0.024-0.005-0.010 0-0.020 0.003-0.028 0.007l0-0c-0.423 0.221-0.594-0.489 0.010-0.462h0.001c0.012-0 0.022-0.010 0.022-0.023 0-0.001-0-0.001-0-0.002v0zM18.967 20.044l0.014-0.169v-0.002c0-0.011-0.009-0.021-0.020-0.022l-0.011-0.001c-0.002-0-0.005-0-0.007-0-0.053 0-0.097 0.041-0.101 0.093l-0 0-0.001 0.011c-0 0.003-0 0.006-0 0.009 0 0.052 0.040 0.095 0.091 0.101l0 0 0.011 0.001h0.002c0 0 0 0 0.001 0 0.011 0 0.021-0.009 0.021-0.020v-0zM15.762 13.707c-0.073 0.060-0.089 0.152-0.046 0.205s0.138 0.054 0.211-0.005c0.073-0.059 0.089-0.152 0.046-0.205-0.043-0.052-0.138-0.054-0.21 0.005zM22.010 19.768c0.001-0.025 0.013-0.036 0.037-0.034l0.149 0.009c0.001 0 0.002 0 0.003 0 0.013 0 0.024-0.008 0.028-0.020l0.062-0.189c0.006-0.019 0-0.031-0.019-0.037-0.131-0.046-0.229-0.021-0.293 0.075-0.010 0.014-0.021 0.016-0.035 0.005l-0.121-0.093c-0.005-0.004-0.012-0.006-0.019-0.006-0.009 0-0.018 0.004-0.024 0.011-0.038 0.043-0.075 0.088-0.111 0.133-0.020 0.024-0.027 0.045-0.023 0.065 0.005 0.028 0.027 0.044 0.065 0.046h0c0.014 0.001 0.024 0.012 0.024 0.026v0.288c0 0.016-0.006 0.031-0.016 0.043l0-0c-0.021 0.023-0.033 0.053-0.033 0.086 0 0.011 0.001 0.022 0.004 0.031 0.003 0.014 0.012 0.021 0.026 0.021l0.333 0.004c0 0 0 0 0.001 0 0.032 0 0.059-0.026 0.059-0.059 0-0.028-0.020-0.052-0.048-0.058-0.011-0.002-0.020-0.006-0.027-0.012-0.017-0.014-0.025-0.026-0.025-0.034l0.004-0.3zM22.386 20.045v0c0 0 0 0 0 0 0 0.004-0.001 0.008-0.003 0.012l-0.056 0.118c-0.002 0.004-0.003 0.009-0.003 0.015 0 0.018 0.015 0.034 0.033 0.034l0.309 0.008c0.019 0 0.032-0.009 0.037-0.028 0.013-0.044 0.004-0.080-0.028-0.107-0.010-0.008-0.014-0.018-0.014-0.030v-0.565c0-0.020-0.010-0.027-0.028-0.021l-0.272 0.079c-0.019 0.006-0.032 0.023-0.032 0.043 0 0.015 0.007 0.028 0.018 0.036l0.023 0.017c0.010 0.007 0.016 0.018 0.016 0.031 0 0 0 0.001 0 0.001v0.358zM23.19 19.574c-0.016 0.014-0.025 0.011-0.025-0.011v-0.057c0-0.015-0.012-0.027-0.027-0.027h-0c-0.003 0-0.006 0.001-0.008 0.002l-0.262 0.072c-0.021 0.006-0.035 0.025-0.035 0.046s0.010 0.041 0.029 0.057l0 0c0.010 0.008 0.016 0.020 0.016 0.034 0 0 0 0 0 0.001v0.344c0 0.015-0.003 0.029-0.009 0.043l-0.040 0.098c-0.012 0.030-0.002 0.046 0.031 0.047l0.308 0.009c0.001 0 0.002 0 0.002 0 0.014 0 0.026-0.009 0.032-0.021 0.021-0.043 0.014-0.080-0.022-0.11-0.010-0.009-0.015-0.020-0.015-0.034v-0.341c0-0.016 0.007-0.026 0.023-0.030l0.109-0.026c0.003-0.001 0.005-0.001 0.008-0.001 0.017 0 0.030 0.013 0.032 0.029v0.358c0 0 0 0 0 0 0 0.003-0.001 0.005-0.002 0.007l-0.050 0.118c-0.012 0.029-0.003 0.044 0.029 0.044l0.313 0.005c0 0 0 0 0 0 0.015 0 0.028-0.010 0.033-0.023 0.016-0.045 0.006-0.081-0.030-0.109-0.011-0.009-0.018-0.023-0.018-0.038 0-0.131 0.034-0.422-0.050-0.517-0.099-0.113-0.265-0.061-0.373 0.033zM21.268 15.96l0.050-0.050c0.182-0.187 0.359-0.379 0.53-0.575-0.097 0.063-0.209 0.113-0.33 0.142l-0.007 0.002c-0.086 0.019-0.144 0.007-0.181-0.021-0.024-0.019-0.042-0.045-0.051-0.075l-0-0.001c-0.007-0.024-0.010-0.051-0.010-0.079 0-0.005 0-0.009 0-0.014l-0 0.001c-0.1 0.079-0.211 0.153-0.329 0.218l-0.012 0.006c-0.038 0.019-0.075 0.032-0.105 0.037-0.025 0.005-0.045 0.004-0.062-0.001-0.015-0.003-0.026-0.016-0.027-0.032v-0c0-0.006 0.002-0.021 0.019-0.030-0.012 0.001-0.023 0.001-0.034-0.001-0.073-0.012-0.105-0.064-0.109-0.137-0.013-0.196 0.075-0.325 0.204-0.458 0.121-0.125 0.245-0.246 0.374-0.363 0.068-0.062 0.166-0.144 0.203-0.222 0.001-0.002 0.001-0.004 0-0.006-0.001-0.009-0.003-0.017-0.006-0.024l0 0.001c-0.007-0.019-0.014-0.035-0.021-0.050l0.001 0.002c-0.333 0.347-0.674 0.681-1.051 0.979-0.092 0.074-0.195 0.144-0.303 0.207l-0.012 0.007c-0.044 0.028-0.095 0.051-0.15 0.065l-0.004 0.001c-0.010 0.002-0.021 0.004-0.033 0.004-0.027 0-0.053-0.008-0.075-0.022l0.001 0c-0.026-0.018-0.043-0.045-0.051-0.079-0.005-0.024-0.008-0.052-0.008-0.080 0-0.032 0.004-0.063 0.011-0.093l-0.001 0.003c-0.131 0.115-0.305 0.242-0.456 0.276-0.012 0.004-0.025 0.006-0.039 0.006-0.025 0-0.048-0.007-0.069-0.018l0.001 0c-0.027-0.016-0.044-0.043-0.054-0.076-0.007-0.029-0.011-0.062-0.011-0.096 0-0.031 0.003-0.062 0.010-0.091l-0.001 0.003c-0.242 0.173-0.54 0.355-0.837 0.355h-0.001c-0 0-0.001 0-0.001 0-0.013 0-0.024-0.007-0.029-0.017l-0-0c-0.003-0.005-0.005-0.011-0.005-0.017s0.001-0.011 0.004-0.015l-0 0c0.003-0.006 0.008-0.011 0.013-0.014l0-0c-0.118-0.002-0.223-0.051-0.261-0.193-0.090 0.070-0.192 0.135-0.3 0.19l-0.011 0.005c-0.062 0.028-0.117 0.041-0.151 0.030-0.015-0.003-0.026-0.016-0.027-0.032v-0c0-0.007 0.002-0.025 0.023-0.033-0.006 0.001-0.013 0.002-0.020 0.002-0.029 0-0.056-0.009-0.078-0.025l0 0c-0.029-0.022-0.050-0.061-0.053-0.123-0.011-0.236 0.141-0.398 0.309-0.556 0.122-0.114 0.243-0.229 0.364-0.345 0.035-0.033 0.066-0.068 0.094-0.107 0.014-0.019 0.014-0.039 0.008-0.059-0.005-0.018-0.012-0.033-0.020-0.047l0.001 0.001c-0.277 0.295-0.562 0.57-0.861 0.83l-0.014 0.012c-0.139 0.123-0.294 0.235-0.458 0.332l-0.014 0.008c-0.129 0.071-0.257 0.115-0.354 0.1-0.125-0.020-0.17-0.107-0.174-0.21 0-0 0-0.001 0-0.002 0-0.095 0.020-0.186 0.055-0.268l-0.002 0.004c0.051-0.123 0.119-0.228 0.203-0.318l-0.001 0.001c0.237-0.255 0.582-0.541 0.934-0.604 0.040-0.007 0.122-0.036 0.178-0.027 0.027 0.004 0.048 0.014 0.063 0.034 0.014 0.018 0.022 0.043 0.019 0.081-0.008 0.046-0.027 0.087-0.056 0.12l0-0c-0.042 0.054-0.101 0.107-0.146 0.142-0.178 0.143-0.391 0.252-0.623 0.312l-0.012 0.003c-0.012 0.003-0.022 0.008-0.030 0.016l0-0c-0.12 0.111-0.228 0.233-0.323 0.364l-0.005 0.007c-0.037 0.047-0.066 0.102-0.083 0.162l-0.001 0.003c-0.007 0.031-0.007 0.051 0.005 0.061s0.033 0.010 0.055 0.007c0.061-0.007 0.135-0.041 0.166-0.056 0.095-0.049 0.177-0.1 0.253-0.158l-0.004 0.003c0.448-0.331 0.804-0.69 1.202-1.104 0.034-0.181 0.2-0.321 0.379-0.349 0.005-0.001 0.010-0.002 0.016-0.002 0.024 0 0.046 0.012 0.060 0.030l0 0c0.012 0.014 0.012 0.036 0.001 0.050-0.014 0.019-0.030 0.035-0.046 0.050-0.106 0.092-0.203 0.183-0.296 0.277l-0 0c0.001 0.006 0.003 0.012 0.006 0.018 0.045 0.080 0.073 0.147 0.084 0.2 0.026 0.119-0.036 0.221-0.106 0.306-0.157 0.191-0.348 0.357-0.527 0.527-0.050 0.047-0.12 0.115-0.15 0.183l0.001-0.001c0.176-0.080 0.344-0.203 0.492-0.325 0.012-0.011 0.023-0.024 0.032-0.040 0.041-0.074 0.162-0.234 0.281-0.303 0.059-0.034 0.117-0.046 0.167-0.026 0.020 0.008 0.033 0.027 0.033 0.049 0 0.012-0.004 0.023-0.011 0.032l0-0c0.001-0 0.002-0 0.003-0 0.008 0 0.016 0.002 0.023 0.007l-0-0c0.016 0.010 0.022 0.022 0.024 0.033 0 0.002 0 0.003 0 0.005 0 0.014-0.006 0.026-0.015 0.034l-0 0c-0.141 0.137-0.29 0.269-0.445 0.393l-0.012 0.009c-0.002 0.001-0.002 0.004-0.002 0.005-0.001 0.007-0.002 0.015-0.002 0.023 0 0.013 0.002 0.026 0.006 0.038l-0-0.001c0.022 0.049 0.049 0.075 0.080 0.082s0.063-0.004 0.095-0.023c0.050-0.032 0.092-0.071 0.127-0.116l0.001-0.001c0.175-0.22 0.279-0.458 0.378-0.709 0.079-0.203 0.229-0.423 0.435-0.489 0.034-0.011 0.072-0.017 0.112-0.017 0.035 0 0.070 0.005 0.102 0.014l-0.003-0.001c0.050 0.015 0.092 0.044 0.117 0.090 0.096 0.179-0.113 0.29-0.253 0.241-0.021-0.008-0.036-0.028-0.036-0.052 0-0.017 0.007-0.032 0.019-0.042l0-0c0.022-0.019 0.050-0.037 0.071-0.061 0.014-0.016 0.026-0.034 0.023-0.057-0.017-0.015-0.040-0.025-0.065-0.025-0.015 0-0.030 0.004-0.043 0.010l0.001-0c-0.045 0.021-0.082 0.050-0.112 0.086l-0 0.001c-0.137 0.162-0.153 0.364-0.19 0.57-0.026 0.144-0.082 0.272-0.16 0.382l0.002-0.003c0.105-0.067 0.194-0.133 0.28-0.203l-0.005 0.004c0.12-0.094 0.226-0.188 0.327-0.287l-0.001 0.001c0.125-0.133 0.319-0.317 0.524-0.441 0.14-0.085 0.285-0.142 0.417-0.141 0.045-0.024 0.098-0.038 0.154-0.038 0.013 0 0.025 0.001 0.037 0.002l-0.002-0c0.036 0.005 0.068 0.020 0.091 0.044 0.017 0.018 0.029 0.040 0.034 0.069 0.054-0.015 0.121-0.019 0.17 0.006 0.026-0.023 0.049-0.036 0.068-0.039 0.023-0.004 0.039 0 0.051 0.008 0.013 0.010 0.022 0.025 0.023 0.048 0 0.025-0.016 0.046-0.041 0.062-0.021 0.014-0.051 0.023-0.064 0.035-0.044 0.037-0.085 0.076-0.127 0.116-0.275 0.269-0.548 0.548-0.786 0.85-0.020 0.026-0.038 0.051-0.055 0.077 0.143-0.068 0.267-0.147 0.379-0.24l-0.003 0.002c0.381-0.296 0.718-0.637 1.104-1.043 0.031-0.181 0.224-0.343 0.406-0.346 0 0 0.001-0 0.001-0 0.029 0 0.052 0.023 0.052 0.052 0 0.009-0.002 0.017-0.006 0.024l0-0c-0.005 0.009-0.021 0.031-0.032 0.039-0.107 0.093-0.21 0.189-0.31 0.288 0.002 0.012 0.004 0.020 0.007 0.026 0.041 0.069 0.069 0.136 0.084 0.2 0.012 0.052 0.004 0.106-0.016 0.156-0.034 0.074-0.078 0.138-0.131 0.193l0-0c-0.178 0.197-0.425 0.405-0.564 0.559-0.028 0.030-0.053 0.064-0.073 0.101l-0.001 0.003 0.012-0.005c0.147-0.072 0.273-0.153 0.39-0.246l-0.004 0.003c0.35-0.278 0.661-0.572 0.946-0.89l0.006-0.007c0.021-0.024 0.034-0.039 0.035-0.053 0-0.006-0.004-0.011-0.009-0.017-0.010-0.012-0.025-0.025-0.043-0.042-0.009-0.008-0.015-0.021-0.015-0.034 0-0.001 0-0.003 0-0.004v0c0.002-0.022 0.011-0.037 0.022-0.045s0.028-0.013 0.050-0.007c0.034 0.009 0.065 0.034 0.090 0.066 0.034 0.044 0.058 0.101 0.066 0.14 0.031 0.157-0.068 0.294-0.161 0.399-0.244 0.274-0.518 0.471-0.708 0.741 0.121-0.005 0.237-0.063 0.342-0.131 0.216-0.14 0.402-0.301 0.563-0.484l0.003-0.003c0.134-0.151 0.269-0.309 0.412-0.444 0.095-0.090 0.208-0.16 0.345-0.12 0.027-0.024 0.058-0.038 0.094-0.043 0.002-0 0.004-0 0.006-0 0.015 0 0.029 0.008 0.036 0.020l0 0c0.011 0.015 0.013 0.029 0.012 0.042-0.002 0.025-0.022 0.047-0.049 0.061-0.043 0.022-0.073 0.041-0.091 0.057-0.668 0.581-1.21 1.298-1.871 1.862-0.056 0.048-0.12 0.101-0.186 0.151l-0.012 0.009c-0.029 0.471-0.176 1.507 0.222 1.762 0.068 0.043 0.11 0.107 0.051 0.174-0.007 0.009-0.019 0.015-0.031 0.015-0.003 0-0.007-0-0.010-0.001l0 0c-0.442-0.093-0.83 0.005-1.165 0.294-0.023 0.020-0.058 0.021-0.083 0.003-0.039-0.027-0.064-0.071-0.064-0.122 0-0.002 0-0.004 0-0.006v0c0-0.014 0.005-0.026 0.018-0.034 0.504-0.331 0.46-1.086 0.395-1.673-0.265 0.12-0.544 0.192-0.824 0.176-0.211-0.012-0.395-0.084-0.529-0.245-0.008-0.009-0.016-0.019-0.023-0.029l-0.001-0.001c-0.007 0.032-0.012 0.065-0.017 0.098-0.003 0.020-0.014 0.030-0.035 0.031l-0.114 0.004c-0.017-0-0.031-0.015-0.031-0.032 0-0.003 0-0.006 0.001-0.008l-0 0c0.031-0.107 0.027-0.205-0.012-0.297-0.112-0.264-0.784-0.299-1.019-0.274-0.054 0.005-0.119 0.045-0.193 0.119-0.333 0.331-0.432 0.727-0.299 1.191 0.090 0.313 0.295 0.499 0.618 0.559 0.245 0.046 1.071 0.057 0.788-0.455-0.005-0.010-0.014-0.017-0.025-0.019l-0-0-0.281-0.073c-0.012-0.003-0.019-0.011-0.019-0.023-0.004-0.082 0.049-0.114 0.126-0.11 0.221 0.011 0.535 0.002 0.94-0.027 0.095-0.007 0.14 0.041 0.136 0.144-0.001 0.013-0.008 0.025-0.018 0.031l-0 0c-0.418 0.259-0.519 0.524-0.365 1.001 0.008 0.024-0.001 0.036-0.026 0.037l-0.132 0.003c-0 0-0 0-0 0-0.012 0-0.023-0.006-0.029-0.016l-0-0c-0.308-0.476-0.804-0.275-1.239-0.144-0.139 0.041-0.287 0.021-0.443-0.060-0.685-0.356-0.94-0.917-0.764-1.684 0.186-0.805 1.152-0.929 1.805-0.683 0.292 0.11 0.5 0.123 0.738-0.083 0.011-0.010 0.026-0.016 0.042-0.016 0.025 0 0.046 0.014 0.056 0.035l0 0 0.076 0.156c0.003 0.006 0.005 0.013 0.005 0.020 0 0.011-0.004 0.020-0.010 0.028l0-0c-0.088 0.106-0.161 0.23-0.211 0.365l-0.003 0.009c0.027 0.045 0.060 0.082 0.099 0.114l0.001 0.001c0.1 0.081 0.224 0.135 0.36 0.152l0.004 0c0.304 0.035 0.588-0.021 0.849-0.136-0.008-0.067-0.016-0.13-0.022-0.19-0.021-0.199-0.191-0.339-0.363-0.41-0.029-0.012-0.048-0.040-0.048-0.072 0-0.015 0.004-0.030 0.012-0.042l-0 0c0.034-0.052 0.081-0.070 0.142-0.057 0.14 0.034 0.301 0.054 0.466 0.054 0.189 0 0.371-0.025 0.545-0.073l-0.014 0.003c0.102-0.027 0.173-0.009 0.199 0.097 0.002 0.009 0.001 0.019-0.004 0.027zM21.101 16.118c0.053-0.048 0.106-0.098 0.157-0.149-0.063 0.039-0.115 0.089-0.156 0.148l-0.001 0.002zM19.206 15.39c0.021-0.003 0.047-0.014 0.075-0.028 0.106-0.060 0.197-0.124 0.282-0.196l-0.002 0.002c0.32-0.267 0.617-0.556 0.892-0.869 0.014-0.016 0.033-0.044 0.038-0.071 0.002-0.008 0.003-0.016-0.001-0.023-0.004-0.006-0.011-0.010-0.021-0.013-0.020-0.005-0.046 0.002-0.077 0.014-0.076 0.037-0.142 0.079-0.201 0.128l0.002-0.001c-0.3 0.233-0.696 0.67-0.797 0.788-0.061 0.071-0.155 0.178-0.189 0.27zM16.995 14.601c0.172-0.066 0.32-0.158 0.446-0.273l-0.001 0.001c0.043-0.039 0.085-0.077 0.105-0.134-0.012 0-0.027 0.004-0.043 0.010-0.045 0.019-0.083 0.040-0.119 0.066l0.002-0.001c-0.144 0.105-0.271 0.214-0.389 0.332v0zM23.131 20.673c-0.179 0.002-0.935-0.009-1.043-0.014-1.453 2.314-3.811 3.854-6.743 3.854-2.414 0-4.915-1.096-6.418-2.756-0.019-0.021-0.552 0.002-0.606 0.031 1.629 1.916 4.314 3.391 7.024 3.391 3.31 0 6.26-1.817 7.786-4.506zM14.743 16.69l-0.008-0.019c0.206 0.422 0.321 0.896 0.321 1.397 0 0.019-0 0.038-0 0.054-0.001 0.109 0.029 0.243 0.164 0.21 0.38-0.092 0.588-0.035 0.931 0.039 0.118 0.026 0.135-0.078 0.080-0.155l0.009 0.013c-0.253-0.35-0.456-0.738-0.607-1.186-0.073-0.221-0.102-0.48-0.142-0.72-0.038-0.223-0.092-0.36-0.346-0.33l0.020-0.002c-0.171 0.021-0.346 0.032-0.522 0.032-0.397 0-0.782-0.055-1.116-0.151-0.014-0.004-0.027-0.002-0.039 0.006-0.111 0.074-0.090 0.17 0.021 0.23l-0.020-0.010c0.316 0.175 0.659 0.307 1.047 0.393 0.096 0.021 0.171 0.12 0.208 0.198zM7.503 17.321l0-0c-0.003 0.005-0.005 0.012-0.005 0.018 0 0.009 0.003 0.016 0.008 0.023 0.071 0.086 0.262 0.197 0.376 0.139 0.089-0.045 0.187-0.27 0.222-0.359 0.015-0.037 0.057-0.057 0.095-0.044 0.87 0.281 1.378 2.343 1.525 3.132 0.014 0.077 0.018 0.221 0.064 0.323l0 0c0.013 0.027 0.040 0.045 0.071 0.045 0.016 0 0.031-0.005 0.043-0.013 0.004-0.002 0.006-0.004 0.010-0.007l0.757-0.679c0.068-0.061 0.090-0.16 0.052-0.244-0.085-0.193-0.179-0.396-0.279-0.61-0.167-0.351-0.055-0.613 0.070-1.018 0.075-0.24-0.004-0.413-0.237-0.517l0 0c-0.007-0.003-0.015-0.005-0.024-0.005-0.025 0-0.047 0.016-0.055 0.040-0.031 0.095-0.194 0.451-0.333 0.214-0.409-0.695-0.695-1.295-1.101-1.715-0.034-0.034-0.080-0.051-0.128-0.047-0.349 0.031-0.71 0.028-1.082-0.012-0.126-0.014-0.206 0.050-0.25 0.158l0-0c-0.001 0.003-0.002 0.006-0.002 0.009 0 0.012 0.009 0.023 0.021 0.025 0.724 0.113 0.406 0.758 0.179 1.145zM13.123 19.391l-0.022-0.087c-0.261-0.896-0.622-1.749-1.037-2.486-0.125-0.227-0.122-0.579-0.123-0.828v0c0-0 0-0 0-0 0-0.051-0.042-0.093-0.093-0.093-0.009 0-0.017 0.001-0.025 0.003-0.113 0.030-0.214 0.052-0.334 0.036-0.292-0.039-0.58-0.068-0.865-0.085h0c-0.002-0-0.004-0-0.006-0-0.057 0-0.104 0.042-0.112 0.097-0.016 0.116 0.183 0.193 0.291 0.269 0.183 0.129 0.324 0.332 0.187 0.546-0.107 0.167-0.227 0.322-0.362 0.466-0.020 0.022-0.027 0.053-0.016 0.081 0.048 0.129 0.25 0.327 0.387 0.18 0.010-0.010 0.023-0.015 0.037-0.015 0.11 0.001 0.19 0.041 0.242 0.118 0.24 0.359 1.101 1.907 0.677 2.306-0.086 0.081-0.365 0.233-0.325 0.364l0 0.001c0.011 0.036 0.045 0.062 0.085 0.062 0.019 0 0.037-0.006 0.051-0.016 0.503-0.361 1.367-0.276 1.909-0.079 0.089 0.033 0.18 0.039 0.201-0.073 0.003-0.016-0.002-0.032-0.013-0.043-0.223-0.228-0.647-0.416-0.735-0.723zM22.018 17.834c0.193 0.327 0.595 0.467 0.962 0.537 0.656 0.125 1.315-0.158 1.843-0.508l0-0c0.006-0.004 0.010-0.009 0.013-0.016l-0 0c0.001-0.003 0.002-0.007 0.002-0.011 0-0.018-0.014-0.032-0.032-0.032-0.004 0-0.007 0.001-0.010 0.002-0.783 0.249-2.062 0.47-2.219-0.715-0.035-0.265 0.045-0.506 0.241-0.722 0.223-0.247 0.517-0.21 0.817-0.199 0.276 0.011 0.31 0.332 0.26 0.538l0-0c-0.001 0.004-0.002 0.008-0.002 0.012 0 0.011 0.005 0.022 0.012 0.029 0.038 0.038 0.082 0.039 0.132 0.001l0-0c0.025-0.018 0.041-0.048 0.041-0.082 0-0 0-0.001 0-0.001 0.003-0.238 0.102-0.424 0.298-0.558 0.012-0.009 0.018-0.020 0.015-0.035l-0-0.002c-0.014-0.113-0.085-0.209-0.184-0.258l0 0c-0.004-0.002-0.008-0.003-0.013-0.003-0.010 0-0.019 0.005-0.024 0.013-0.187 0.3-0.481 0.116-0.723 0.043-1.305-0.395-2.069 0.883-1.429 1.969zM19.67 8.448c1.905 0.923 3.403 3.918 3.461 4.803 0.091 0.015 0.837 0.010 0.861 0.015-0.662-2.086-2.047-3.709-3.988-4.829-0.038 0.010-0.297 0-0.335 0.010zM13.686 17.719c-0.042-0.232 0.347-0.516 0.288-0.804-0.003-0.015-0.011-0.028-0.023-0.038l0 0c-0.039-0.032-0.090-0.052-0.145-0.052-0.019 0-0.037 0.002-0.053 0.006-0.153 0.033-0.165 0.275-0.213 0.372-0.092 0.187-0.813 1.183-0.164 1.189 0.153 0.001 0.454 0.031 0.586-0.036 0.105-0.053 0.191-0.266 0.254-0.369 0.043-0.070 0.109-0.106 0.173-0.155l0-0c0.011-0.009 0.019-0.022 0.021-0.037 0.094-0.762-0.48-0.226-0.656-0.054v0c-0.008 0.007-0.018 0.012-0.029 0.012-0.020 0-0.037-0.015-0.041-0.034zM7.262 19.866c-0.010-0.004-0.018-0.012-0.023-0.022-0.228-0.561 0.261-1.448 0.523-1.916l-0 0c0.003-0.005 0.004-0.011 0.004-0.018 0-0.010-0.004-0.019-0.010-0.026-0.089-0.092-0.197-0.148-0.325-0.167-0.031-0.004-0.061 0.014-0.070 0.043-0.165 0.495-0.345 0.987-0.541 1.477-0.16 0.402-0.442 0.813-0.837 1.012l-0 0c-0.011 0.005-0.019 0.015-0.023 0.027-0.027 0.069-0.012 0.126 0.046 0.171l-0-0c0.007 0.006 0.016 0.009 0.026 0.009 0.008 0 0.016-0.002 0.022-0.007 0.411-0.274 0.864-0.368 1.36-0.284 0.020 0.003 0.041-0.005 0.053-0.021l-0 0c0.023-0.027 0.036-0.062 0.036-0.101 0-0.033-0.010-0.064-0.027-0.089-0.002-0.004-0.006-0.007-0.011-0.009l-0.202-0.080zM14.784 19.367l-0 0c0.004-0.002 0.007-0.003 0.012-0.003 0.012 0 0.023 0.009 0.026 0.020l0.001 0.006v0.653c0 0.001 0 0.001 0 0.002 0 0.018-0.010 0.033-0.025 0.041l-0.029 0.015c-0.017 0.009-0.024 0.022-0.021 0.041l0.007 0.060c0.002 0.018 0.012 0.027 0.030 0.027h0.382c0.001 0 0.001 0 0.002 0 0.037 0 0.066-0.030 0.066-0.066 0-0.016-0.006-0.030-0.015-0.042s-0.024-0.020-0.040-0.022c-0.004-0.001-0.009-0.003-0.016-0.006-0.014-0.007-0.021-0.019-0.021-0.035l0.002-0.666v-0c0.001-0.011 0.010-0.020 0.021-0.020 0.001 0 0.002 0 0.002 0h0.002c0.057 0.013 0.087 0.049 0.091 0.107 0.001 0.018 0.010 0.027 0.028 0.027l0.081 0.001c0.015-0 0.027-0.012 0.027-0.027 0-0.001-0-0.001-0-0.002l-0.014-0.233v-0c-0.003-0.035-0.032-0.063-0.068-0.063-0.014 0-0.027 0.004-0.037 0.011l-0.047 0.032c-0.006 0.004-0.014 0.007-0.022 0.007-0.15 0-0.413 0.031-0.543-0.049l0 0c-0.007-0.004-0.015-0.007-0.024-0.007-0.025 0-0.045 0.019-0.047 0.043l-0.022 0.249v-0c-0 0.001-0 0.002-0 0.002 0 0.019 0.015 0.034 0.033 0.035h0.063c0.015 0 0.027-0.010 0.030-0.023l0-0.001c0.010-0.050 0.043-0.091 0.089-0.114zM18.153 20.009c-0.001 0.015-0.009 0.023-0.024 0.023-0.428 0.013-0.306-0.882-0.052-0.636v0c0.005 0.005 0.009 0.012 0.009 0.020 0 0.005-0.001 0.009-0.003 0.013l0-0c-0.007 0.012-0.011 0.026-0.011 0.041 0 0.018 0.006 0.035 0.016 0.048l0 0c0.013 0.018 0.033 0.029 0.057 0.029 0.014 0 0.027-0.004 0.038-0.011l0.225-0.151c0.009-0.006 0.016-0.014 0.021-0.024l-0 0c0.003-0.007 0.004-0.014 0.004-0.022 0-0.033-0.027-0.060-0.060-0.060-0.004 0-0.007 0-0.010 0.001-0.019 0.003-0.044-0.003-0.074-0.017-0.363-0.172-0.739 0.099-0.749 0.475-0.013 0.449 0.359 0.641 0.749 0.399l-0 0c0.003-0.002 0.006-0.003 0.010-0.003 0.009 0 0.017 0.006 0.019 0.015 0.013 0.054 0.045 0.079 0.098 0.075h0c0.016-0.001 0.028-0.014 0.029-0.030l0.020-0.537v-0.001c0-0.026-0.021-0.048-0.046-0.048l-0.39 0.002c-0.017 0-0.025 0.009-0.025 0.025v0.073c0 0.020 0.010 0.030 0.030 0.030h0.104c0.021 0 0.030 0.010 0.030 0.031l-0.013 0.241z"></path>
</svg>
