<!-- Generated by IcoMoon.io -->
<svg version="1.1" xmlns="http://www.w3.org/2000/svg" width="16" height="32" viewBox="0 0 16 32">
<title>watermark-obscura</title>
<path fill="#444" d="M8.014 30.385c-1.668-0.040-3.19-0.998-3.677-2.546 1.403 0.498 2.257-1.028 2.253-1.73-0.005-0.726-0.712-1.38-2.148-1.398-1-0.013-2.679 0.38-3.959 1.476-0.267-0.254-0.474-0.545-0.482-0.964l2.547-3.166-0.344 1.79c0.689-0.049 0.846-0.892 3.373-2.891l-0.413 2.34h0.62c0.879-3.496 1.74-6.99 2.271-10.462l0.012 0.081c0.533 3.446 1.387 6.913 2.259 10.381h0.62l-0.413-2.34c2.527 1.999 2.684 2.842 3.373 2.891l-0.344-1.79 2.547 3.166c-0.008 0.418-0.215 0.71-0.482 0.964-1.28-1.096-2.959-1.489-3.959-1.476-1.436 0.019-2.144 0.672-2.148 1.398-0.004 0.701 0.85 2.227 2.253 1.73-0.491 1.561-2.033 2.521-3.717 2.547l-0.039-0.001zM8.091 29.282c0.786-0.050 1.376-0.274 1.752-0.686-0.428-0.049-0.715-0.307-0.826-0.826-0.054 0.615-0.427 0.839-0.939 0.892l-0.024 0.002c-0.525-0.049-0.909-0.27-0.964-0.895-0.111 0.519-0.398 0.777-0.826 0.826 0.382 0.419 0.985 0.643 1.79 0.688l0.038-0.002zM8.063 25.264c0.21-0.585 0.628-1.028 1.229-1.349l-1.239-1.239-1.239 1.239c0.61 0.326 1.033 0.778 1.239 1.377l0.010-0.028zM8.042 11.044c-0.982 0.006-1.778 0.806-1.778 1.79 0 0.617 0.313 1.161 0.788 1.483l-0.031 0.1-0.826 3.855 0.62 0.275-0.275 0.964c-1.765-0.625-3.029-1.738-3.595-3.53-0.191-0.603-0.509-0.8-0.879-1.564v-3.235l0.551-0.688v-0.964c0.033-0.235 0.355-0.374 0.535-0.375 0.442-0.003 0.996 0.617 0.979 0.857v3.442l0.688 1.101c0.159 0.035 0.219-0.044 0.207-0.207l-0.413-0.688v-9.774c0.015-0.554 0.565-0.831 1.032-0.834 0.405-0.003 0.933 0.277 0.964 0.834v5.3c0.115 0.195 0.233 0.19 0.353 0v-6.479c0.095-0.666 0.431-1.062 1.093-1.093l0.015 0.001c0.651 0.036 0.983 0.431 1.077 1.092v6.479c0.12 0.19 0.238 0.195 0.353 0v-5.713c0.031-0.558 0.558-0.837 0.964-0.834 0.467 0.003 1.017 0.28 1.032 0.834v6.952c0.091 0.16 0.182 0.159 0.275 0v-4.268c0.083-0.453 0.513-0.76 0.876-0.758 0.348 0.002 0.767 0.293 0.845 0.758v7.778c-0.101 3.034-1.565 4.741-3.923 5.575l-0.275-0.964 0.62-0.275-0.826-3.855-0.031-0.1c0.475-0.322 0.788-0.866 0.788-1.483 0-0.984-0.796-1.783-1.778-1.79h-0.023z"></path>
</svg>
