<!-- Generated by IcoMoon.io -->
<svg version="1.1" xmlns="http://www.w3.org/2000/svg" width="32" height="32" viewBox="0 0 32 32">
<title>watermark-arena</title>
<path fill="#444" d="M18.412 5.815c-3.203-0-5.86 0.793-8.161 2.232 1.834-0.943 4.068-1.56 6.464-1.56 0.572 0 1.154 0.035 1.741 0.11 6.522 0.826 11.167 5.567 10.555 10.5-0.549 4.426-5.262 7.561-10.937 7.561-0.649 0-1.31-0.041-1.98-0.126-3.931-0.498-7.231-2.392-9.099-4.898 4.14-1.087 12.84-1.25 21.544-1.587l-28.539 0.109c2.038 0.229 3.907 0.244 4.718 2.593 0.28-0.356 0.824-0.656 1.586-0.911 2.031 3.671 6.743 6.314 12.25 6.348 0.036 0 0.073 0 0.109 0 7.341 0 13.302-4.651 13.337-10.249 0.035-5.625-6.075-10.075-13.466-10.122-0.041-0-0.082-0-0.122-0zM24.079 7.576c1.3 0.467 2.473 1.088 3.496 1.849 0.054 0.040 0.107 0.081 0.16 0.122l-0.484 0.483c-0.090-0.097-0.181-0.192-0.276-0.287-0.839-0.841-1.815-1.569-2.895-2.167zM22.237 8.841c-0.047 0.034-0.174 0.11-0.363 0.099-0.098-0.006-0.16-0.022-0.22-0.037-0.074-0.019-0.15-0.039-0.297-0.039-0.339 0-0.705 0.25-0.718 0.712-0.013 0.448 0.273 0.924 0.772 0.946 0.29 0.013 0.869-0.146 1.127-0.256l0.096-0.159c-0.242 0.073-0.344 0.101-0.718 0.129-0.044 0.003-0.086 0.005-0.126 0.005h-0c-0.227 0-0.393-0.055-0.494-0.162-0.125-0.133-0.131-0.321-0.122-0.469 0.017-0.274 0.245-0.552 0.443-0.539 0.233 0.015 0.353 0.076 0.398 0.378l0.069 0.018c0.033-0.139 0.14-0.357 0.208-0.425-0.005-0.025-0.030-0.114-0.054-0.2h0zM20.37 8.854c-0.194 0.045-0.468 0.061-0.647 0.061-0.103 0-0.187-0.005-0.241-0.013l-0.031 0.060c0.32 0.124 0.303 0.475 0.294 0.666-0.001 0.027-0.002 0.050-0.002 0.070 0 0.396-0.097 0.743-0.248 0.889l0.028 0.063c0.101-0.127 0.361-0.226 0.601-0.226 0.095 0 0.18 0.016 0.246 0.046l0.038-0.044c-0.308-0.258-0.293-0.435-0.274-0.64 0.004-0.051 0.009-0.103 0.009-0.159 0-0.354 0.019-0.632 0.248-0.711l-0.022-0.061zM18.993 8.891c-0.046 0.034-0.17 0.108-0.356 0.097-0.094-0.005-0.187-0.024-0.285-0.044-0.124-0.025-0.252-0.051-0.398-0.052l-0.010-0c-0.155 0-0.662 0.052-0.68 0.719-0.012 0.421 0.346 0.864 0.723 0.893 0.078 0.006 0.149-0.012 0.234-0.035s0.182-0.048 0.316-0.058c0.115-0.008 0.259 0.077 0.304 0.174l0.093 0.025c-0.001-0.013-0.002-0.028-0.004-0.044-0.017-0.18-0.050-0.55 0.334-0.62l-0.058-0.098c-0.031-0.009-0.099-0.014-0.191-0.014-0.196 0-0.48 0.023-0.567 0.053l-0.023 0.062c0.131-0.010 0.252 0.059 0.259 0.144 0.004 0.040-0.016 0.138-0.269 0.182-0.201 0.035-0.358-0.005-0.463-0.117-0.156-0.166-0.158-0.442-0.151-0.553 0.015-0.242 0.207-0.5 0.469-0.5 0.020 0 0.041 0.001 0.062 0.005 0.225 0.033 0.401 0.082 0.446 0.375l0.067 0.018c0.033-0.136 0.137-0.349 0.204-0.416-0.005-0.025-0.029-0.111-0.053-0.195v0zM13.518 8.899l-0.075 0.115c0.059 0.029 0.252 0.126 0.3 0.17 0.068 0.062 0.088 0.129 0.058 0.187-0.126 0.24-0.215 0.323-0.248 0.354-0.018 0.016-0.027 0.032-0.026 0.049 0 0.028 0.024 0.050 0.024 0.050h0c0.001 0.001 0.002 0.002 0.002 0.003 0.013 0.013 0.041 0.043 0.106 0.114 0.034 0.034 0.046 0.034 0.096 0.001 0.028-0.014 0.053-0.021 0.078-0.021 0.038 0 0.091 0.017 0.13 0.099 0.014 0.028 0.032 0.064 0.052 0.106 0.129 0.262 0.368 0.749 0.429 0.978 0.049 0.181-0.028 0.281-0.339 0.544l0.091 0.098c0.145-0.108 0.387-0.168 0.684-0.168 0.235 0 0.488 0.039 0.715 0.111l0.036-0.085c-0.043-0.050-0.113-0.095-0.187-0.142-0.076-0.049-0.154-0.099-0.207-0.158-0.080-0.084-0.094-0.147-0.121-0.261-0.004-0.016-0.008-0.033-0.012-0.051-0.061-0.252-0.405-1.001-0.528-1.215-0.172-0.296-0.234-0.615-0.16-0.816-0.018-0.011-0.061-0.034-0.102-0.055-0.099 0.041-0.239 0.050-0.34 0.050-0.182 0-0.377-0.029-0.459-0.057v0zM15.34 8.91l-0.082 0.099c0.126 0.046 0.733 0.272 0.821 0.341 0.002 0.001 0.003 0.003 0.004 0.004 0.075 0.12 0.262 0.669 0.278 0.885 0.008 0.101-0.019 0.152-0.036 0.173l0.071 0.084c0.063-0.053 0.167-0.083 0.296-0.083 0.131 0 0.279 0.030 0.418 0.083 0.014-0.019 0.029-0.039 0.036-0.049-0.254-0.375-0.416-0.788-0.54-1.38l-0.155-0.123c-0.085 0.035-0.212 0.053-0.376 0.053-0.297 0-0.636-0.058-0.736-0.086v0zM11.51 8.962c-0.033 0.042-0.078 0.1-0.1 0.13 0.062 0.011 0.207 0.040 0.272 0.081 0.074 0.047 0.061 0.122 0.035 0.224-0.035 0.138-0.125 0.368-0.129 0.377-0.020 0.036-0.027 0.058-0.022 0.072s0.022 0.025 0.051 0.039l0.149 0.071c0.019 0.008 0.035 0.012 0.046 0.012 0.018 0 0.032-0.008 0.047-0.048l0.004-0.009c0.018-0.043 0.049-0.114 0.084-0.152l0.005-0.005c0.019-0.021 0.041-0.044 0.076-0.044 0.018 0 0.038 0.006 0.060 0.019 0.082 0.045 0.438 0.386 0.692 1.233 0.189 0.63 0.159 0.85 0.144 0.905l0.138 0.077c0.068-0.121 0.342-0.428 0.563-0.48-0.036-0.173-0.11-0.367-0.165-0.51-0.024-0.064-0.045-0.119-0.057-0.157-0.104-0.339 0.051-0.562 0.083-0.603 0.038-0.044 0.041-0.075 0.008-0.107l-0.105-0.117c-0.001-0.001-0.022-0.028-0.053-0.028-0.018 0-0.037 0.009-0.056 0.026-0.036 0.027-0.082 0.063-0.163 0.154-0.003 0.003-0.007 0.005-0.012 0.006s-0.009-0.002-0.012-0.005c-0.102-0.104-0.186-0.252-0.276-0.409-0.052-0.090-0.105-0.184-0.164-0.274-0.033-0.050-0.063-0.095-0.091-0.135-0.094-0.138-0.157-0.232-0.167-0.317l-0.887-0.024zM15.515 9.477c-0.025 0.005-0.044 0.022-0.050 0.039-0.042 0.121-0.115 0.295-0.225 0.433-0.148 0.187-0.165 0.368-0.051 0.553 0 0 0.008 0.005 0.039 0.005 0.027 0 0.066-0.004 0.109-0.008 0.061-0.006 0.138-0.013 0.217-0.013 0.056 0 0.106 0.003 0.153 0.011l0.011-0.028c0.077-0.196 0.124-0.315 0.236-0.355 0.031-0.013 0.042-0.036 0.035-0.073-0.012-0.074-0.014-0.083-0.042-0.136-0.010-0.021-0.030-0.031-0.060-0.031-0.004 0-0.007 0-0.010 0-0.114 0.008-0.186 0.038-0.299 0.121-0.006 0.004-0.013 0.004-0.019 0s-0.008-0.011-0.007-0.018c0.014-0.054 0.040-0.104 0.068-0.158 0.031-0.061 0.064-0.124 0.077-0.192 0.016-0.047-0.007-0.071-0.023-0.082-0-0-0.001-0.001-0.001-0.001-0.012-0.008-0.103-0.061-0.132-0.067-0.009-0.002-0.018-0.002-0.026-0v0zM28.292 10.005c1.33 1.17 2.232 2.541 2.647 4.009l-1.326 0.199c-0.325-1.279-0.962-2.513-1.888-3.642l0.567-0.565zM11.488 10.079c-0.011 0-0.026 0.003-0.037 0.033 0 0-0.002 0.004-0.002 0.004-0.017 0.042-0.045 0.113-0.11 0.268-0.019 0.045-0.045 0.123-0.076 0.213-0.092 0.267-0.23 0.67-0.377 0.856-0.094 0.119-0.239 0.221-0.283 0.25l0.046 0.085c0.129-0.107 0.424-0.215 0.745-0.215 0.067 0 0.133 0.005 0.197 0.014v-0.066c-0.020-0.008-0.061-0.029-0.116-0.078-0.175-0.156-0.055-0.456 0.042-0.696 0.019-0.047 0.037-0.092 0.051-0.132 0.050-0.142 0.108-0.269 0.139-0.338l0.008-0.017c0.026-0.068 0.007-0.079-0.036-0.097l-0.15-0.069c-0.017-0.010-0.031-0.014-0.043-0.014zM16.156 11.034l-0.010 0.15h0.027c0.013-0.056 0.042-0.092 0.118-0.092h0.022v0.529h-0.060v0.030h0.279v-0.030h-0.059v-0.529h0.022c0.076 0 0.104 0.036 0.118 0.092h0.027l-0.010-0.15h-0.029v0.015h-0.415v-0.015h-0.029zM18.446 11.034c-0.199 0-0.355 0.15-0.355 0.341 0 0.177 0.111 0.291 0.282 0.291 0.077 0 0.148-0.024 0.216-0.074l0.019-0.014 0.048 0.073h0.017v-0.28c0-0.027 0.007-0.043 0.021-0.057l-0.006-0.012c-0.011 0.004-0.022 0.008-0.035 0.008h-0.234v0.030h0.113v0.249h-0.022c-0.166 0-0.258-0.103-0.258-0.29 0-0.191 0.092-0.22 0.147-0.22 0.043 0 0.087 0.026 0.087 0.075 0 0.013-0.003 0.026-0.009 0.036l0.015 0.022 0.168-0.108-0.015-0.023-0.029 0.019-0.012-0.008c-0.059-0.040-0.112-0.060-0.156-0.060v0zM16.937 11.043l-0.197 0.068v0.011l0.033-0.011v0.528h-0.035v0.013h0.201v-0.013h-0.037v-0.298l0.004-0.006c0.023-0.031 0.054-0.049 0.085-0.049 0.053 0 0.081 0.030 0.081 0.088v0.264h-0.036v0.013h0.199v-0.013h-0.034v-0.313h-0c0-0.041-0.014-0.109-0.106-0.109-0.063 0-0.102 0.028-0.157 0.075l-0.036 0.031v-0.25l0.035-0.012v-0.017zM19.904 11.043l-0.197 0.068v0.011l0.033-0.011v0.527h-0.035v0.013h0.201v-0.013h-0.037v-0.298l0.004-0.006c0.023-0.031 0.054-0.049 0.085-0.049 0.053 0 0.080 0.030 0.080 0.088v0.264h-0.036v0.013h0.199v-0.013h-0.034v-0.313h-0c0-0.041-0.014-0.109-0.106-0.109-0.063 0-0.102 0.028-0.157 0.075l-0.036 0.031v-0.25l0.035-0.012v-0.017zM21.358 11.075c-0.030 0-0.080 0.028-0.080 0.059 0 0.024 0.014 0.037 0.042 0.037 0.026-0 0.1-0.011 0.1-0.058 0-0.012 0-0.037-0.062-0.037zM19.499 11.112c-0.031 0.062-0.089 0.111-0.16 0.135v0.014h0.046v0.302c0 0.074 0.027 0.103 0.097 0.103 0.049 0 0.094-0.025 0.133-0.052l-0.003-0.005c-0.011 0.005-0.024 0.008-0.037 0.008-0.030 0-0.061-0.021-0.061-0.060v-0.295h0.074l0.006-0.030h-0.080v-0.060c0-0.017 0-0.037 0.003-0.056l-0.018-0.003zM22.555 11.144c-0.045 0-0.051 0.012-0.059 0.034l-0.017 0.054-0.019-0.003c-0.007-0.001-0.014-0.002-0.022-0.004-0.021-0.004-0.044-0.008-0.079-0.008-0.087 0-0.189 0.045-0.189 0.173 0 0.091 0.077 0.136 0.144 0.146l0.019 0.003v0.034l-0.014 0.007c-0.039 0.014-0.088 0.032-0.143 0.043l0.025 0.024c0.011-0.001 0.022-0.002 0.034-0.002 0.022 0 0.045 0.002 0.075 0.005l0.032 0.003v0.040l-0.019 0.004c-0.030 0.004-0.072 0.026-0.072 0.059 0 0.048 0.049 0.073 0.146 0.073 0.045 0 0.172-0.019 0.172-0.106s-0.146-0.102-0.217-0.11l-0.020-0.002-0-0.037 0.029-0.009c0.11-0.028 0.223-0.057 0.223-0.184 0-0.068-0.038-0.1-0.063-0.121-0.015-0.012-0.026-0.022-0.026-0.038 0-0.024 0.017-0.043 0.039-0.043 0.008 0 0.014 0.001 0.020 0.003l0.009-0.039c-0.003-0-0.006-0-0.008-0v0zM18.916 11.2l-0.046 0.124 0.023 0.009c0.024-0.031 0.054-0.068 0.113-0.068 0.052 0 0.085 0.032 0.085 0.084v0.046h-0.152c-0.078 0-0.13 0.060-0.13 0.15 0 0.073 0.052 0.122 0.129 0.122 0.051 0 0.089-0.027 0.12-0.053l0.027-0.023 0.015 0.063h0.15v-0.013h-0.030v-0.287c0-0.091-0.051-0.135-0.154-0.135-0.039 0-0.076 0.007-0.106 0.020l-0.045 0.020 0.017-0.051-0.015-0.005zM20.517 11.217c-0.118 0-0.211 0.097-0.211 0.22 0 0.141 0.080 0.229 0.209 0.229 0.083 0 0.151-0.033 0.206-0.1l-0.007-0.008c-0.030 0.026-0.070 0.040-0.115 0.040-0.066 0-0.114-0.033-0.14-0.097l-0.009-0.021 0.27-0.099c-0.037-0.109-0.105-0.164-0.205-0.164v0zM21.066 11.217c-0.022 0-0.040 0.054-0.048 0.080-0.002 0.006-0.004 0.012-0.005 0.016l-0.005 0.015h-0.038l-0.002-0.022v-0.083l-0.146 0.039v0.008l0.030-0.012v0.38h-0.032v0.013h0.207v-0.013h-0.047v-0.258l0.004-0.005c0.025-0.039 0.062-0.045 0.081-0.045 0.023 0.002 0.044 0.008 0.063 0.014l0.042-0.118-0.014-0.005-0.013 0.021-0.018-0.009c-0.025-0.013-0.037-0.016-0.060-0.016v0zM21.909 11.217c-0.057 0-0.1 0.034-0.146 0.070l-0.036 0.028-0.003-0.043v-0.048l-0.164 0.045v0.010l0.033-0.010v0.37h-0.033v0.013h0.199v-0.013h-0.037v-0.302l0.007-0.007c0.022-0.020 0.051-0.044 0.092-0.044s0.072 0.027 0.072 0.064v0.289h-0.036v0.013h0.197v-0.013h-0.032v-0.309c0-0.076-0.038-0.112-0.115-0.112v0zM17.55 11.217c-0.118 0-0.211 0.096-0.211 0.22 0 0.141 0.080 0.229 0.209 0.229 0.082 0 0.151-0.033 0.207-0.1l-0.007-0.008c-0.030 0.026-0.070 0.040-0.115 0.040-0.066-0-0.114-0.034-0.139-0.097l-0.009-0.021 0.271-0.099c-0.037-0.109-0.106-0.164-0.205-0.164v0zM21.412 11.224l-0.163 0.046v0.011l0.034-0.007v0.365h-0.036v0.013h0.196v-0.013h-0.031v-0.415zM22.352 11.232c0.092 0 0.122 0.161 0.122 0.216 0 0.021 0 0.085-0.071 0.085-0.092-0-0.122-0.161-0.122-0.216 0-0.021 0-0.085 0.071-0.085zM17.521 11.245c0.066 0 0.092 0.080 0.107 0.123l0.007 0.020-0.019 0.009-0.146 0.055-0.006-0.025c-0.001-0.007-0.003-0.013-0.005-0.019-0.005-0.020-0.011-0.043-0.011-0.073 0-0.057 0.028-0.091 0.074-0.091v0zM20.488 11.245c0.066 0 0.093 0.080 0.107 0.123l0.006 0.020-0.019 0.009-0.146 0.055-0.005-0.025c-0.001-0.007-0.003-0.013-0.005-0.019-0.006-0.020-0.012-0.043-0.012-0.073 0-0.057 0.028-0.091 0.074-0.091v0zM19.040 11.406h0.050v0.113c0 0.075-0.040 0.091-0.074 0.091-0.024 0-0.079-0.010-0.079-0.1 0-0.060 0.044-0.103 0.103-0.103zM22.373 11.662l0.018 0.012 0.003 0.002c0.032 0.020 0.065 0.041 0.065 0.095 0 0.036-0.022 0.057-0.058 0.057-0.040 0-0.061-0.036-0.061-0.071 0-0.029 0.007-0.055 0.021-0.076l0.012-0.018zM7.542 12.817l-4.15 4.736h3.088l0.344-0.462h0.352l-0.069 0.462h12.048l0.403-0.867 0.124 0.48 0.1 0.387h4.328l0.344-0.462h0.352l-0.069 0.462h2.786l0.020-0.495 0.147-3.706 0.021-0.536h-2.538l-1.99 2.271 1.053-2.271h-2.666l-0.138 0.3-0.266 0.578-0.207-0.878h-5.81l-0.138 0.299-0.164 0.354c-0.29-0.433-0.861-0.652-1.698-0.652h-2.261l-0.138 0.299-0.742 1.601 0.054-1.364 0.021-0.536h-2.538zM7.626 13.001h2.263l-0.014 0.344-0.091 2.284 1.218-2.629h2.144c0.784 0 1.308 0.198 1.557 0.588 0.056 0.087 0.107 0.2 0.13 0.342l0.431-0.93h5.547l0.060 0.255 0.236 1.002 0.578-1.257h2.26l-1.47 3.17 2.778-3.17h2.263l-0.014 0.344-0.147 3.706-0.013 0.318h-2.395l0.057-0.38 0.012-0.082h-0.658l-0.344 0.462h-4.093l-0.064-0.249-0.252-0.978-0.57 1.226h-7.538l-0.037-0.29-0.012-0.094-0.178 0.384h-3.953l0.069-0.462h-0.658l-0.344 0.462h-2.59l3.828-4.368zM7.776 13.332l-3.247 3.706h1.693l0.344-0.462h1.208l-0.069 0.462h1.693l0.148-3.706h-1.769zM11.214 13.332l-1.718 3.706h1.564l0.55-1.19h0.029l0.15 1.19h1.845l-0.397-1.204c-0.040-0.108-0.112-0.167-0.167-0.221l0.014-0.030c0.084-0.021 0.163-0.043 0.238-0.066 0.037-0.012 0.074-0.024 0.109-0.036 0.247-0.088 0.443-0.199 0.604-0.354 0.023-0.022 0.045-0.045 0.067-0.069 0.043-0.048 0.084-0.099 0.122-0.155 0-0 0-0 0-0 0.019-0.028 0.038-0.057 0.056-0.087 0-0-0-0 0-0 0.036-0.060 0.070-0.125 0.103-0.195 0.014-0.029 0.026-0.058 0.037-0.086 0-0 0-0 0-0 0.125-0.309 0.122-0.55 0.023-0.732-0.018-0.033-0.039-0.064-0.064-0.094-0.036-0.044-0.079-0.084-0.128-0.12 0 0-0 0-0 0-0.033-0.024-0.068-0.046-0.106-0.066-0.095-0.051-0.205-0.091-0.328-0.121-0.098-0.024-0.204-0.041-0.317-0.053s-0.232-0.017-0.356-0.017l-1.932 0zM15.476 13.332l-1.718 3.706h3.006l0.472-1.012h-1.395l0.165-0.364h1.232l0.447-0.963h-1.232l0.168-0.354h1.349l0.466-1.012h-2.96zM19.014 13.332l-1.718 3.706h1.53l0.852-1.946 0.502 1.946h1.53l1.718-3.706h-1.529l-0.865 2.054-0.484-2.054h-1.535zM25.405 13.332l-3.247 3.706h1.693l0.344-0.462h1.208l-0.069 0.462h1.693l0.147-3.706h-1.769zM12.201 14.4h0.087c0.135 0 0.254 0.013 0.307 0.045 0.027 0.016 0.038 0.030 0.042 0.058s-0.002 0.073-0.032 0.139c-0.058 0.124-0.145 0.19-0.253 0.229s-0.237 0.048-0.366 0.048h-0.025l0.239-0.519zM25.672 14.706c-0.031 0.109-0.064 0.217-0.082 0.327v-0.001l-0.108 0.608h-0.488l0.678-0.935zM8.043 14.707c-0.030 0.108-0.064 0.217-0.082 0.327l-0.108 0.608h-0.488l0.678-0.934zM31.099 14.717c0.069 0.4 0.104 0.805 0.102 1.215-0.006 1.022-0.231 2.023-0.667 2.985l-1.005-0.428c0.127-0.419 0.22-0.852 0.275-1.295 0.095-0.763 0.078-1.525-0.045-2.277l1.34-0.201zM14.107 15.499c-0.161 0.121-0.34 0.211-0.537 0.283l0.169 0.511 0.368-0.794zM13.318 18.423c-0.557 0.044-1.096 0.092-1.615 0.143-0.231 0.023-0.456 0.046-0.675 0.070-0.438 0.048-0.853 0.098-1.245 0.151s-0.761 0.109-1.108 0.167c-0.521 0.087-0.991 0.181-1.415 0.281-0.412 0.098-0.779 0.202-1.103 0.313-0.002 0.001-0.004 0.001-0.005 0.002v0c-0.284 0.097-0.536 0.2-0.756 0.309-0.086 0.042-0.167 0.086-0.243 0.13-0.114 0.066-0.218 0.135-0.312 0.205-0.406-0.893-0.982-1.413-1.66-1.732l10.137-0.039zM29.289 19.168l0.919 0.392c-0.592 1.051-1.42 2.007-2.465 2.842l-0.335-0.43c0.819-0.824 1.46-1.768 1.881-2.803zM19.074 19.776c-0.576 0-0.969 0.332-0.969 0.837 0 0.488 0.391 0.82 0.952 0.82 0.298 0 0.562-0.093 0.737-0.305 0.159-0.194 0.178-0.387 0.182-0.614h-0.922v0.317h0.379c-0.019 0.179-0.173 0.27-0.374 0.27-0.306 0-0.472-0.245-0.472-0.486 0-0.237 0.159-0.49 0.464-0.49 0.187 0 0.322 0.099 0.386 0.247l0.441-0.161c-0.154-0.291-0.438-0.435-0.806-0.435zM11.216 19.828v1.554h1.021v-0.342h-0.557v-1.212h-0.464zM16.151 19.828l-0.687 1.554h0.493l0.123-0.27h0.64l0.116 0.27h0.495l-0.673-1.554h-0.507zM20.844 19.828v0.874c0 0.2 0.009 0.398 0.187 0.548 0.149 0.128 0.384 0.173 0.592 0.173s0.443-0.045 0.592-0.173c0.178-0.15 0.187-0.348 0.187-0.548v-0.874h-0.464v0.818c0 0.202-0.017 0.422-0.315 0.422s-0.315-0.221-0.315-0.422v-0.818h-0.464zM13.478 19.828v1.554h1.017v-0.342h-0.552v-0.268h0.524v-0.342h-0.524v-0.26h0.552v-0.342h-1.017zM23.569 19.828v1.554h1.016v-0.342h-0.552v-0.268h0.524v-0.342h-0.524v-0.26h0.552v-0.342h-1.016zM16.4 20.308h0.005l0.19 0.494h-0.386l0.192-0.494zM26.88 22.464l0.288 0.369c-1.955 1.382-4.377 2.241-6.977 2.482 2.661-0.355 4.986-1.373 6.69-2.852z"></path>
</svg>
