<!-- Generated by IcoMoon.io -->
<svg version="1.1" xmlns="http://www.w3.org/2000/svg" width="19" height="32" viewBox="0 0 19 32">
<title>watermark-herospath-3</title>
<path fill="#444" d="M0 22.678v-13.505l9.6-3.691 9.6 3.691v10.871c-2.375 0-4.76-0.065-7.282 0.073 0.43-0.257 0.764-0.577 1.002-0.959 0.313-0.5 0.47-1.070 0.47-1.707 0-0.523-0.118-0.982-0.355-1.378-0.231-0.396-0.544-0.712-0.94-0.948-0.39-0.237-0.825-0.396-1.303-0.479v-0.074c0.539-0.253 0.976-0.511 1.311-0.775 0.341-0.264 0.605-0.572 0.792-0.924 0.187-0.357 0.28-0.77 0.28-1.237 0-0.511-0.143-0.946-0.429-1.303-0.28-0.363-0.682-0.638-1.204-0.825-0.517-0.187-1.114-0.28-1.79-0.28-1.133 0-2.395 0.297-3.786 0.891v1.955h1.485c0.083-0.473 0.212-0.855 0.388-1.147 0.181-0.297 0.385-0.503 0.61-0.619 0.231-0.121 0.481-0.181 0.751-0.181 0.473 0 0.833 0.157 1.081 0.47 0.247 0.308 0.371 0.767 0.371 1.377 0 0.775-0.247 1.369-0.742 1.782-0.495 0.407-1.221 0.63-2.178 0.668v0.94h0.652c0.836 0 1.457 0.19 1.864 0.569 0.412 0.379 0.619 0.957 0.619 1.732 0 1.441-0.583 2.161-1.749 2.161-0.473 0-0.855-0.14-1.147-0.421-0.291-0.286-0.517-0.742-0.676-1.369h-1.485v2.070c0.446 0.204 0.968 0.363 1.567 0.479 0.023 0.004 0.046 0.008 0.068 0.012-2.307 0.385-4.763 1.024-7.445 2.081zM19.2 20.044v6.475l-4.342-0.027c-2.072-0.001-3.481-0.138-4.439-0.869-0.070-0.057-0.155-0.123-0.231-0.195-0.063-0.063-0.14-0.137-0.208-0.216-0.057-0.071-0.117-0.142-0.177-0.226-0.068-0.099-0.137-0.194-0.203-0.311-0.057 0.092-0.127 0.208-0.2 0.307-0.052 0.068-0.114 0.154-0.18 0.228-0.067 0.077-0.136 0.149-0.208 0.217-0.074 0.070-0.151 0.134-0.231 0.195-0.958 0.731-2.367 0.868-4.439 0.869l-4.342 0.027c6.245-3.934 11.717-5.754 19.2-6.475z"></path>
</svg>
