<!-- Generated by IcoMoon.io -->
<svg version="1.1" xmlns="http://www.w3.org/2000/svg" width="19" height="32" viewBox="0 0 19 32">
<title>watermark-herospath-8</title>
<path fill="#444" d="M0 22.678v-13.505l9.6-3.691 9.6 3.691v10.871c-2.244 0-4.498-0.058-6.867 0.052 0.397-0.235 0.718-0.522 0.962-0.864 0.346-0.489 0.52-1.058 0.52-1.707s-0.165-1.207-0.495-1.675c-0.324-0.468-0.806-0.825-1.444-1.072l-0.016-0.107c0.627-0.27 1.094-0.627 1.402-1.072 0.313-0.446 0.47-0.965 0.47-1.559 0-0.896-0.341-1.589-1.023-2.079s-1.691-0.734-3.027-0.734c-0.792 0-1.51 0.127-2.153 0.379s-1.141 0.605-1.493 1.056c-0.346 0.445-0.52 0.949-0.52 1.509 0 1.226 0.608 2.103 1.823 2.631l0.016 0.107c-0.401 0.182-0.745 0.39-1.031 0.627-0.28 0.237-0.509 0.534-0.685 0.891-0.171 0.352-0.256 0.762-0.256 1.229 0 0.638 0.171 1.193 0.512 1.666 0.341 0.467 0.819 0.825 1.435 1.072 0.143 0.056 0.292 0.105 0.447 0.148-2.403 0.378-4.966 1.027-7.778 2.134zM19.2 20.044v6.475l-4.342-0.027c-2.072-0.001-3.481-0.138-4.439-0.869-0.070-0.057-0.155-0.123-0.231-0.195-0.063-0.063-0.14-0.137-0.208-0.216-0.057-0.071-0.117-0.142-0.177-0.226-0.068-0.099-0.137-0.194-0.203-0.311-0.057 0.092-0.127 0.208-0.2 0.307-0.052 0.068-0.114 0.154-0.18 0.228-0.067 0.077-0.136 0.149-0.208 0.217-0.074 0.070-0.151 0.134-0.231 0.195-0.958 0.731-2.367 0.868-4.439 0.869l-4.342 0.027c6.245-3.934 11.717-5.754 19.2-6.475zM7.992 12.105c0-0.643 0.138-1.13 0.412-1.46 0.281-0.33 0.693-0.495 1.237-0.495 0.522 0 0.921 0.182 1.196 0.545 0.281 0.357 0.421 0.877 0.421 1.559 0 0.665-0.135 1.18-0.404 1.543-0.264 0.357-0.663 0.536-1.196 0.536-0.544 0-0.96-0.19-1.245-0.569-0.281-0.385-0.421-0.938-0.421-1.658zM7.893 17.459c0-0.434 0.055-0.817 0.165-1.147s0.292-0.591 0.545-0.784c0.253-0.198 0.586-0.297 0.998-0.297 0.346 0 0.649 0.096 0.907 0.289s0.456 0.468 0.594 0.825c0.137 0.352 0.206 0.77 0.206 1.254 0 0.473-0.069 0.88-0.206 1.221-0.132 0.341-0.324 0.594-0.577 0.759-0.248 0.165-0.55 0.248-0.907 0.248-0.572 0-1.003-0.198-1.295-0.594-0.286-0.396-0.429-0.987-0.429-1.773z"></path>
</svg>
