<!-- Generated by IcoMoon.io -->
<svg version="1.1" xmlns="http://www.w3.org/2000/svg" width="32" height="32" viewBox="0 0 32 32">
<title>watermark-goblinexplosioneers</title>
<path fill="#444" d="M23.39 2.945l-0.778 3.051-2.167-1.276 1.713 2.676-0.123-0.918 0.946 0.756 0.482-1.439 0.403 1.775 1.528-0.885-0.621 1.321 1.226 1.019-1.288-0.185-0.437 1.78-0.431-1.842-0.929 1.075-0.252-0.672-0.968 3.096 1.657-2.391 1.416 3.292 0.095-3.482 3.107 0.078-2.318-1.965 1.366-2.9-2.693 1.573-0.935-3.538zM18.827 7.166l-0.98 0.98c-0.689-0.316-1.455-0.493-2.262-0.493-3 0-5.43 2.43-5.43 5.43s2.43 5.43 5.43 5.43 5.43-2.43 5.43-5.43c0-0.807-0.177-1.573-0.493-2.262l0.98-0.98c0 0-0.278-0.599-0.778-1.209 0.227-0.081 0.474-0.141 0.728-0.162 0.556-0.046 1.118 0.066 1.523 0.358l0.47-0.655c-0.603-0.435-1.352-0.569-2.060-0.51-0.45 0.037-0.886 0.156-1.271 0.341-0.636-0.541-1.288-0.84-1.288-0.84zM18.816 7.726c0.009-0.001 0.019-0.001 0.028 0 0.109-0.005 0.217 0.063 0.26 0.164s0.016 0.226-0.064 0.301l-0.409 0.403c-0.095 0.116-0.294 0.125-0.399 0.018s-0.093-0.306 0.024-0.399l0.403-0.403c0.041-0.044 0.097-0.075 0.157-0.084zM15.155 8.358c0.456-0.012 0.938 0.051 1.433 0.196-2.961 0.058-4.042 0.986-5.363 3.896 0.423-2.551 1.954-4.039 3.93-4.092zM20.355 13.302c-0.206 2.537-2.179 4.719-4.77 4.719-1.547 0-2.924-0.712-3.829-1.825 0.945 0.845 2.194 1.355 3.561 1.355 2.511 0 4.468-1.914 5.039-4.249zM2.049 14.858l-0.157 2.598-1.892-0.952 1.338 1.651-1.304 1.377 1.646-0.565 0.325 1.478 0.14 0.627 0.123-0.633 0.252-1.304 1.293 1.248-0.711-1.64 0.050 0.627-0.795-0.773-0.229 1.159-0.252-1.142-0.885 0.302 0.705-0.745-0.705-0.868 1.148 0.571 0.095-1.573 0.425 1.327 0.526-0.554-0.045 0.509 0.98-1.881-1.344 1.405-0.728-2.251zM29.951 14.858l-0.728 2.251-1.344-1.405 0.98 1.881-0.045-0.509 0.526 0.554 0.425-1.327 0.095 1.573 1.148-0.571-0.705 0.868 0.705 0.745-0.885-0.302-0.252 1.142-0.23-1.159-0.795 0.773 0.051-0.627-0.711 1.64 1.293-1.248 0.252 1.304 0.123 0.633 0.14-0.627 0.325-1.478 1.646 0.565-1.305-1.377 1.338-1.651-1.892 0.952-0.157-2.598zM6.421 16.717c-0.394-0.001-0.955 0.525-1.383 1.304-0.245-0.075-0.537-0.134-0.829-0.112-0.31 0.024-0.485 0.066-0.616 0.101s-0.212 0.062-0.409 0.062c-0.191 0-0.325-0.035-0.409-0.067s-0.101-0.051-0.101-0.051c-0.073-0.059-0.193-0.045-0.252 0.028s-0.045 0.193 0.028 0.252c0 0 0.074 0.059 0.196 0.106s0.302 0.090 0.537 0.090c0.23 0 0.373-0.038 0.504-0.073s0.262-0.073 0.549-0.095c0.204-0.016 0.433 0.030 0.638 0.090-0.425 0.934-0.475 1.811-0.090 2.004 0.025 0.013 0.050 0.027 0.078 0.034l5.889 2.715 4.815-2.217-8.98-4.131c-0.051-0.026-0.108-0.039-0.168-0.039zM25.579 16.717c-0.060 0-0.117 0.014-0.168 0.039l-15.474 7.121c-0.489 0.214-0.885 0.632-1.075 1.131s-0.173 1.071 0.050 1.556 0.651 0.878 1.153 1.058c0.502 0.18 1.075 0.148 1.556-0.084l15.513-7.149c0.028-0.006 0.053-0.021 0.078-0.034 0.385-0.193 0.335-1.070-0.090-2.004 0.205-0.059 0.434-0.105 0.638-0.090 0.287 0.022 0.417 0.060 0.549 0.095s0.274 0.073 0.504 0.073c0.235 0 0.415-0.043 0.537-0.090s0.196-0.106 0.196-0.106c0.073-0.059 0.087-0.179 0.028-0.252s-0.179-0.087-0.252-0.028c0 0-0.018 0.018-0.101 0.051s-0.217 0.067-0.409 0.067c-0.197 0-0.277-0.026-0.409-0.062s-0.306-0.077-0.616-0.101c-0.291-0.022-0.584 0.037-0.829 0.112-0.428-0.78-0.989-1.305-1.383-1.304zM6.237 17.052c0.016-0.002 0.030-0.002 0.045 0 0.272 0.030 0.181 0.712-0.202 1.523s-0.915 1.44-1.187 1.411c-0.272-0.030-0.181-0.707 0.202-1.517 0.006-0.014 0.016-0.026 0.022-0.039 0.185 0.068 0.325 0.134 0.325 0.134 0.083 0.063 0.221 0.031 0.269-0.062s-0.007-0.221-0.106-0.252c0 0-0.127-0.070-0.319-0.146 0.332-0.588 0.716-1.021 0.952-1.052zM25.719 17.052c0.229-0.025 0.642 0.425 0.996 1.052-0.192 0.075-0.319 0.146-0.319 0.146-0.099 0.031-0.153 0.161-0.105 0.253s0.185 0.123 0.267 0.060c0 0 0.14-0.066 0.325-0.134 0.006 0.013 0.016 0.025 0.022 0.039 0.383 0.81 0.473 1.488 0.202 1.517s-0.804-0.6-1.187-1.411c-0.383-0.81-0.473-1.493-0.202-1.523zM21.246 23.502l-4.815 2.217 3.947 1.819c0.481 0.233 1.054 0.264 1.556 0.084s0.93-0.573 1.153-1.058 0.24-1.057 0.050-1.556c-0.19-0.499-0.586-0.917-1.075-1.131l-0.817-0.375z"></path>
</svg>
