<!-- Generated by IcoMoon.io -->
<svg version="1.1" xmlns="http://www.w3.org/2000/svg" width="32" height="32" viewBox="0 0 32 32">
<title>x</title>
<path fill="#444" d="M18.238 29.438v-1.384c1.975-0.219 2.964-0.792 2.964-1.714 0-0.664-0.264-1.329-0.791-1.993l-5.462-6.723-4.314 5.086c-1.079 1.248-1.622 2.281-1.622 3.088 0 1.25 0.989 2.003 2.969 2.262v1.379h-10.519v-1.38c1.332-0.256 2.464-0.736 3.402-1.434 0.646-0.514 1.527-1.416 2.639-2.703l6.487-7.523-7.503-9.095c-0.972-1.175-1.731-1.946-2.268-2.314-0.724-0.514-1.731-0.845-3.025-0.991v-1.433h12.404v1.379c-1.87 0.368-2.803 0.938-2.803 1.711 0 0.516 0.249 1.086 0.753 1.71l4.962 6.014 3.993-4.909c0.718-0.883 1.079-1.655 1.079-2.318 0-1.104-0.884-1.822-2.646-2.154v-1.433h9.873v1.382c-0.863 0.184-1.458 0.35-1.776 0.499-1.079 0.516-2.728 2.045-4.954 4.586-0.358 0.407-1.87 2.265-4.53 5.579l7.969 9.811c1.727 2.132 3.487 3.347 5.285 3.639v1.38h-12.566z"></path>
</svg>
