<!-- Generated by IcoMoon.io -->
<svg version="1.1" xmlns="http://www.w3.org/2000/svg" width="32" height="32" viewBox="0 0 32 32">
<title>y</title>
<path fill="#444" d="M18.156 23.577c0 1.719 0.282 2.928 0.846 3.627s1.518 1.048 2.862 1.048l0.322-0.041v1.532h-12.412v-1.532h0.403c1.344 0.027 2.297-0.309 2.862-1.008s0.846-1.894 0.846-3.586v-5.401l-7.899-11.566c-0.322-0.43-0.604-0.806-0.847-1.128s-0.47-0.577-0.685-0.766c-0.35-0.296-0.719-0.504-1.108-0.625s-0.893-0.222-1.511-0.302v-1.572h12.050v1.531c-1.209 0.108-2.029 0.276-2.458 0.503-0.43 0.228-0.645 0.652-0.645 1.269 0 0.269 0.053 0.538 0.161 0.806s0.255 0.551 0.444 0.846l6.126 8.866 4.473-6.569c0.429-0.591 0.738-1.101 0.927-1.531s0.308-0.832 0.363-1.209c0-0.054 0-0.107 0-0.161s0-0.107 0-0.162c0-0.832-0.228-1.451-0.685-1.853s-1.25-0.658-2.378-0.765v-1.572h9.954v1.531c-0.322 0.054-0.619 0.128-0.886 0.222-0.269 0.094-0.524 0.222-0.766 0.383-0.43 0.242-0.873 0.625-1.33 1.149s-1.007 1.256-1.652 2.197l-7.375 10.478v5.36h-0z"></path>
</svg>
