<!-- Generated by IcoMoon.io -->
<svg version="1.1" xmlns="http://www.w3.org/2000/svg" width="32" height="32" viewBox="0 0 32 32">
<title>z</title>
<path fill="#444" d="M26.679 29.743h-23.173v-1.169l18.378-24.665h-8.181c-1.344 0.027-2.378 0.169-3.104 0.423-0.725 0.256-1.397 0.746-2.015 1.471-0.054 0.054-0.1 0.108-0.141 0.161s-0.088 0.108-0.141 0.161c-0.108 0.162-0.208 0.303-0.303 0.423s-0.181 0.249-0.262 0.383c-0.027 0.081-0.067 0.161-0.121 0.242s-0.108 0.162-0.161 0.242c-0.054 0.161-0.121 0.33-0.201 0.503-0.081 0.175-0.175 0.383-0.282 0.625l-1.451-0.040v-6.246h22.004v1.088l-18.538 24.745h8.020c1.209 0.027 2.169 0 2.882-0.081s1.376-0.254 1.995-0.523c0.081-0.027 0.154-0.054 0.222-0.081s0.127-0.053 0.181-0.081c0.376-0.188 0.739-0.403 1.088-0.645s0.698-0.524 1.048-0.846c0.242-0.242 0.484-0.503 0.725-0.785s0.497-0.598 0.766-0.947l1.048-1.492h1.531l-1.814 7.134z"></path>
</svg>
