<?xml version="1.0" standalone="no"?>
<!DOCTYPE svg PUBLIC "-//W3C//DTD SVG 1.1//EN" "http://www.w3.org/Graphics/SVG/1.1/DTD/svg11.dtd" >
<svg>
<metadata>
Created by FontForge 20090914 at Mon Mar  2 15:19:04 2015
 By www-data
Converted by ALLTYPE
</metadata>
<defs>
<font id="MPlantin" horiz-adv-x="278" >
  <font-face 
    font-family="MPlantin"
    font-weight="5"
    font-stretch="normal"
    units-per-em="1000"
    panose-1="0 0 0 0 0 0 0 0 0 0"
    ascent="800"
    descent="-200"
    x-height="449.998"
    cap-height="682.002"
    bbox="-137 -263 1051 904.004"
    underline-thickness="50"
    underline-position="-55"
    unicode-range="U+0020-U+F002"
  />
<missing-glyph 
 />
    <glyph glyph-name=".notdef" 
 />
    <glyph glyph-name="space" unicode=" " 
 />
    <glyph glyph-name="space" unicode="&#xa0;" 
 />
    <glyph glyph-name="exclam" unicode="!" horiz-adv-x="292" 
d="M85 50c0 16.667 6.16699 31 18.5 43s26.833 18 43.5 18c17.333 0 32 -6 44 -18s18 -26.667 18 -44c0 -16.667 -6 -31 -18 -43s-26.667 -18 -44 -18c-16.667 0 -31.167 6 -43.5 18s-18.5 26.333 -18.5 43v1zM126 694h44.001
c11.333 -0.666992 19.833 -3.83398 25.5 -9.50098s8.5 -14.5 8.5 -26.5v-6l-35 -445c-0.666992 -9.33301 -2 -15.5 -4 -18.5s-5.66699 -4.5 -11 -4.5l-16 1c-4 -0.666992 -6.83301 0.5 -8.5 3.5s-2.83398 8.16699 -3.50098 15.5l-34 445v1v2
c-0.666992 0.666992 -1 1.33398 -1 2.00098v2c0 12.667 2.83301 22 8.5 28s14.5 9 26.5 9v1z" />
    <glyph glyph-name="quotedbl" unicode="&#x22;" horiz-adv-x="408" 
d="M103 392l-26.001 144.999c-4.66699 21.333 -7.66699 36.5 -9 45.5s-2 16.5 -2 22.5v5.5v5.5c0 20 4 35 12 45s19.667 15 35 15s27.5 -4.83301 36.5 -14.5s13.5 -23.167 13.5 -40.5c0 -5.33301 -0.166992 -11.166 -0.5 -17.499s-1.16602 -12.833 -2.49902 -19.5l-9 -48
l-27 -144h-21v0zM281.999 391.999l-25.999 143.001l-10 50c-0.666992 3.33301 -1.16699 7.16602 -1.5 11.499s-0.5 8.83301 -0.5 13.5c0 23.333 4 40.166 12 50.499s20.667 15.5 38 15.5c15.333 0 27.166 -4.83301 35.499 -14.5s12.5 -23.167 12.5 -40.5v-15.5
c0 -6.33301 -0.666992 -13.5 -2 -21.5l-3.5 -29.5c-1 -8.33301 -2.16699 -15.166 -3.5 -20.499l-28 -142h-23v0z" />
    <glyph glyph-name="numbersign" unicode="#" horiz-adv-x="668" 
d="M44 475h159l42 197h59l-42 -197h206l41 197h60l-42 -197h97v-60h-109l-37 -181h146v-60h-158l-41 -196h-60l42 196h-207l-41 -196h-60l41 196h-96v60h109l38 181h-147v60v0zM250 415l-38 -180h207l37 180h-206v0z" />
    <glyph glyph-name="dollar" unicode="$" horiz-adv-x="552" 
d="M220 682l0.000976562 -37.0068c6 0.666992 11.167 1.16699 15.5 1.5s8.16602 0.833008 11.499 1.5h10.5h12.5h12.5h10.5c4 -0.666992 8 -1.16699 12 -1.5s8.66699 -1.16602 14 -2.49902v38h37v-45c29.333 -9.33301 54.833 -22.166 76.5 -38.499s35.5 -33.5 41.5 -51.5
c1.33301 -3.33301 2.33301 -6.66602 3 -9.99902s1 -6.66602 1 -9.99902c0 -10.667 -3.33301 -19.834 -10 -27.501s-14.667 -11.5 -24 -11.5c-12 0 -23.333 4.66699 -34 14s-19.667 22 -27 38c-2 5.33301 -3.66699 9.33301 -5 12s-2 4.33398 -2 5.00098
c-1.33301 4 -3.16602 7.66699 -5.49902 11s-5.16602 6.33301 -8.49902 9l-2.5 2.5c-1 1 -2.16699 1.83301 -3.5 2.5v-225c43.333 -14.667 77.5 -37.667 102.5 -69s37.5 -67.333 37.5 -108c0 -42.667 -12.833 -80.667 -38.5 -114s-59.5 -55.666 -101.5 -66.999v-112h-37v105
c-4.66699 -0.666992 -8.66699 -1.16699 -12 -1.5s-6.66602 -0.5 -9.99902 -0.5c-3.33301 -0.666992 -6.5 -1 -9.5 -1h-10.5h-9.5h-8.5c-6 0.666992 -12.167 1.16699 -18.5 1.5s-13.166 1.16602 -20.499 2.49902v-106h-36v114c-28.667 7.33301 -54 18.833 -76 34.5
s-37.333 32.167 -46 49.5c-2.66699 4.66699 -4.66699 9.33398 -6 14.001s-2 9.33398 -2 14.001c0 12 4.66699 22.667 14 32s20 14 32 14c10 0 18 -2 24 -6s12 -12 18 -24l5 -12c2 -4.66699 4 -10 6 -16c0.666992 -1.33301 1.16699 -2.5 1.5 -3.5s0.5 -2.16699 0.5 -3.5
c3.33301 -7.33301 6.5 -13.666 9.5 -18.999s6.83301 -10 11.5 -14c1.33301 -1.33301 2.66602 -2.5 3.99902 -3.5s2.66602 -2.16699 3.99902 -3.5v267l-3 1c-8.66699 3.33301 -16.5 7 -23.5 11l-19.5 11c-13.333 8.66699 -24.333 17.667 -33 27s-16.334 20.333 -23.001 33
c-6 11.333 -10.5 23.5 -13.5 36.5s-4.5 26.5 -4.5 40.5c0 37.333 10.167 69 30.5 95s50.166 45.667 89.499 59v47h36v0zM220.001 304.993v-266.001c5.33301 -2 10.333 -3.5 15 -4.5s9.33398 -1.83301 14.001 -2.5c6 -1.33301 12.333 -2.16602 19 -2.49902s14 -0.5 22 -0.5h7
c2 0 4 0.333008 6 1c2.66699 0 5.16699 0.166992 7.5 0.5s5.16602 0.5 8.49902 0.5v240l-9 3l-43 14l-44 16l-3 1v0zM356.001 254.992l0.000976562 -214c23.333 10 42.166 25 56.499 45s21.5 41.333 21.5 64c0 23.333 -6 43 -18 59s-32 31 -60 45v1zM220.002 600.992
v-196.999c4.66699 -2.66699 8.66699 -4.66699 12 -6s6.66602 -2.33301 9.99902 -3l1 -1v0c4.66699 -1.33301 9.33398 -2.83301 14.001 -4.5s10.334 -3.83398 17.001 -6.50098l23 -6l22 -8v231c-3.33301 0.666992 -6.5 1.5 -9.5 2.5s-5.83301 1.83301 -8.5 2.5
c-4.66699 0.666992 -9.33398 1.16699 -14.001 1.5s-10.334 0.5 -17.001 0.5h-12.5c-3.66699 0 -7.5 -0.333008 -11.5 -1c-3.33301 -0.666992 -7.16602 -1.5 -11.499 -2.5l-14.5 -3.5v1zM184.002 419.993v170.001c-18.667 -9.33301 -33.167 -21 -43.5 -35
s-15.5 -30.333 -15.5 -49s5 -35.334 15 -50.001s24.667 -27 44 -37v1z" />
    <glyph glyph-name="percent" unicode="%" horiz-adv-x="906" 
d="M249 -22h-53l461 728h53l-461 -728v0zM597 172c2 50.667 16.6689 92 44.002 124s61.666 48 102.999 48c42 0 76.833 -16.833 104.5 -50.5s41.5 -76.167 41.5 -127.5c0 -50.667 -13.833 -92.667 -41.5 -126s-62.5 -50 -104.5 -50c-42.667 0 -77.834 16.167 -105.501 48.5
s-41.5 73.833 -41.5 124.5v9v0zM672.002 174l-0.000976562 -7c0 -52 5.83301 -90.333 17.5 -115s29.5 -37 53.5 -37s42 12 54 36s18 60.333 18 109c0 55.333 -5.83301 95.5 -17.5 120.5s-30.167 37.5 -55.5 37.5c-23.333 0 -40.666 -11.667 -51.999 -35
s-17.333 -60 -18 -110v1zM27.001 491c2.66699 50.667 17.501 92 44.501 124s61.167 48 102.5 48c42 0 76.833 -16.833 104.5 -50.5s41.5 -76.167 41.5 -127.5c0 -50.667 -13.833 -92.834 -41.5 -126.501s-62.5 -50.5 -104.5 -50.5c-42.667 0 -77.834 16.333 -105.501 49
s-41.5 74.334 -41.5 125.001v9v0zM103.002 493l-0.00195312 -8c0 -51.333 5.66699 -89.333 17 -114s29.333 -37 54 -37c24 0 41.833 12 53.5 36s17.5 60.333 17.5 109c0 55.333 -5.66699 95.5 -17 120.5s-29.666 37.5 -54.999 37.5c-23.333 0 -40.666 -11.667 -51.999 -35
s-17.333 -60 -18 -110v1z" />
    <glyph glyph-name="ampersand" unicode="&#x26;" horiz-adv-x="750" 
d="M511 439h208.995v-38c-14 -3.33301 -25.667 -7 -35 -11s-18.333 -10.667 -27 -20c-7.33301 -8.66699 -15 -19.334 -23 -32.001s-17.333 -29 -28 -49l-10 -18l-10 -18l-11.5 -18l-11.5 -18c-5.33301 -8.66699 -10.833 -17.167 -16.5 -25.5s-11.167 -15.833 -16.5 -22.5
l5 -5l31 -38l7.5 -9c2.33301 -2.66699 4.5 -5.33398 6.5 -8.00098c14 -14.667 28.333 -26.5 43 -35.5s31.334 -15.833 50.001 -20.5c16 -3.33301 27.5 -8.16602 34.5 -14.499s10.5 -14.5 10.5 -24.5c0 -8.66699 -3.5 -15 -10.5 -19s-18.167 -6 -33.5 -6h-34
c-18.667 0 -34.667 1.16699 -48 3.5s-26 5.83301 -38 10.5c-5.33301 2.66699 -10.666 5.5 -15.999 8.5s-10.666 6.5 -15.999 10.5c-13.333 9.33301 -24.833 18.833 -34.5 28.5s-19.167 21.5 -28.5 35.5c-20.667 -18.667 -40.167 -34.5 -58.5 -47.5s-36.5 -23.5 -54.5 -31.5
c-16 -6 -32.167 -10.667 -48.5 -14s-33.5 -5 -51.5 -5c-61.333 0 -112 17.167 -152 51.5s-60 78.5 -60 132.5c0 14.667 1.5 28.334 4.5 41.001s8.16699 25.334 15.5 38.001c6.66699 10.667 14.834 21.667 24.501 33s21.5 23.333 35.5 36c6 6 11.333 11 16 15
s9.33398 7.66699 14.001 11c0.666992 1.33301 1.5 2.33301 2.5 3s1.83301 1.33398 2.5 2.00098c6.66699 5.33301 14.334 11 23.001 17l35 24l11 9c-25.333 28 -43.833 52.667 -55.5 74s-17.5 41.666 -17.5 60.999c0 10 2 20.167 6 30.5s9.66699 20.833 17 31.5
c4.66699 6.66699 10.334 13.5 17.001 20.5s14 13.833 22 20.5c5.33301 4.66699 11 9.16699 17 13.5s11.667 8.16602 17 11.499c17.333 11.333 34.333 20 51 26s32 9 46 9c19.333 0 37 -4.66699 53 -14s31.333 -24.333 46 -45c7.33301 -10 13.166 -19.333 17.499 -28
s7.5 -17 9.5 -25c0.666992 -2.66699 1.16699 -5.5 1.5 -8.5s0.5 -6.16699 0.5 -9.5c0 -9.33301 -1.66699 -18.333 -5 -27s-8.33301 -17.334 -15 -26.001c-2.66699 -3.33301 -5.66699 -6.66602 -9 -9.99902s-7 -6.66602 -11 -9.99902l-13 -11l-12 -10
c-2 -1.33301 -3.83301 -2.5 -5.5 -3.5s-3.16699 -2.16699 -4.5 -3.5c-7.33301 -5.33301 -15.5 -10.833 -24.5 -16.5l-33.5 -21.5l3.5 -3.5c1 -1 2.16699 -1.83301 3.5 -2.5l13.5 -13.5c4.33301 -4.33301 8.5 -8.83301 12.5 -13.5c9.33301 -10 18.666 -21 27.999 -33l32 -43
l14.5 -19.5c5 -7 9.83301 -14.167 14.5 -21.5c0.666992 -1.33301 1.5 -2.5 2.5 -3.5s1.83301 -2.16699 2.5 -3.5l25 -36.5c8 -11.667 14.667 -21.834 20 -30.501l11 17c18.667 26.667 32.667 50.334 42 71.001s14 37.334 14 50.001c0 13.333 -5.5 25.166 -16.5 35.499
s-26.167 17.166 -45.5 20.499v39v0zM245.995 373c-28 -20 -50.5 -38.501 -67.5 -55.501s-29.5 -33.833 -37.5 -50.5c-3.33301 -7.33301 -5.83301 -14.833 -7.5 -22.5s-2.5 -15.5 -2.5 -23.5c0 -40.667 18.333 -77.334 55 -110.001s77.334 -49 122.001 -49
c12 0 23.167 1 33.5 3s20.5 5 30.5 9c10 4.66699 20.167 10.5 30.5 17.5s21.5 15.833 33.5 26.5c-3.33301 6 -8 13.833 -14 23.5l-19 30.5c0 0.666992 -0.333008 1.33398 -1 2.00098s-1 1.33398 -1 2.00098c-2.66699 4.66699 -5.33398 9 -8.00098 13l-8 12
c-1.33301 2 -2.5 3.83301 -3.5 5.5s-2.16699 3.16699 -3.5 4.5l-21 30l-22 29c-16 21.333 -31.833 41 -47.5 59s-29.5 32.333 -41.5 43v1zM304.995 459.999c16.667 9.33301 30.8311 18.501 42.498 27.501s20.834 17.833 27.501 26.5c6 7.33301 10.333 14.666 13 21.999
s4 14.666 4 21.999v4c0 1.33301 -0.333008 2.66602 -1 3.99902c-0.666992 8 -3.5 16.333 -8.5 25s-12.167 18 -21.5 28c-4.66699 5.33301 -9 9.83301 -13 13.5s-8 6.5 -12 8.5c-4 2.66699 -8 4.5 -12 5.5s-8.33301 1.5 -13 1.5c-4 0 -8.5 -0.5 -13.5 -1.5
s-9.83301 -2.16699 -14.5 -3.5s-9.5 -3.16602 -14.5 -5.49902s-9.5 -5.16602 -13.5 -8.49902c-11.333 -8 -20.166 -17 -26.499 -27s-9.5 -20.667 -9.5 -32c0 -12 6.83301 -27.333 20.5 -46s32.5 -38 56.5 -58c1.33301 -1.33301 2.83301 -2.5 4.5 -3.5
s3.16699 -2.16699 4.5 -3.5v1z" />
    <glyph glyph-name="quotesingle" unicode="'" horiz-adv-x="180" 
d="M79 392l-27.001 145.001l-9 49c-0.666992 3.33301 -1.16699 7.16602 -1.5 11.499s-0.5 8.83301 -0.5 13.5c0 22.667 3.83301 39.167 11.5 49.5s19.834 15.5 36.501 15.5c15.333 0 27.5 -4.83301 36.5 -14.5s13.5 -23.167 13.5 -40.5
c0 -4.66699 -0.333008 -10.167 -1 -16.5s-1.66699 -12.833 -3 -19.5l-9 -49l-26 -144h-21v0z" />
    <glyph glyph-name="parenleft" unicode="(" horiz-adv-x="385" 
d="M339 696l30.9971 -40l-7 -6l-63.5 -57c-16.333 -15.333 -30.5 -30 -42.5 -44c-4.66699 -6 -9.33398 -12.333 -14.001 -19l-14 -20c-1.33301 -2 -2.66602 -4.16699 -3.99902 -6.5s-2.66602 -4.5 -3.99902 -6.5c-10 -16.667 -18.833 -33.834 -26.5 -51.501
s-14.167 -36.167 -19.5 -55.5c-5.33301 -20.667 -9.66602 -43.167 -12.999 -67.5s-5 -49.166 -5 -74.499c0 -86 18.333 -162.833 55 -230.5s89.334 -122.5 158.001 -164.5l-31 -38c-80 48.667 -140.667 110 -182 184s-62 158.333 -62 253c0 90.667 19.333 171.167 58 241.5
s100.667 137.5 186 201.5v1z" />
    <glyph glyph-name="parenright" unicode=")" horiz-adv-x="385" 
d="M47 -185l-32.001 39.998l8 6c26 22 47 40.667 63 56s29.667 29.666 41 42.999c5.33301 6 10.166 12 14.499 18s8.5 12.333 12.5 19c2 2 3.83301 4.5 5.5 7.5s3.5 5.83301 5.5 8.5c10 16.667 18.833 33.834 26.5 51.501s13.834 35.834 18.501 54.501
c6 21.333 10.5 44.166 13.5 68.499s4.5 48.833 4.5 73.5c0 86.667 -18.167 163.834 -54.5 231.501s-89.166 122.834 -158.499 165.501l32 38c79.333 -49.333 139.666 -110.833 180.999 -184.5s62 -158.167 62 -253.5c0 -90.667 -19.167 -171 -57.5 -241
s-100.166 -137.333 -185.499 -202v0z" />
    <glyph glyph-name="asterisk" unicode="*" horiz-adv-x="500" 
d="M248 424l-131 -114l-22 24l86 143l-162 68l10 28l165 -2l27 158h29l37 -149l158 27l7 -28l-136 -92l82 -153l-21 -24l-129 114v0z" />
    <glyph glyph-name="plus" unicode="+" horiz-adv-x="667" 
d="M67 355h233v234h64v-234h235v-64h-235v-232h-64v232h-233v64v0z" />
    <glyph glyph-name="comma" unicode="," horiz-adv-x="292" 
d="M33 -153l-0.00195312 37.0029c46.667 4.66699 81.834 15.5 105.501 32.5s35.5 40.167 35.5 69.5c0 18.667 -3 32.5 -9 41.5s-16.333 13.833 -31 14.5l-13 1c-17.333 0.666992 -31.166 6 -41.499 16s-15.5 23.333 -15.5 40c0 19.333 6.16699 34.666 18.5 45.999
s27.833 17 46.5 17c29.333 0 54 -14 74 -42s30 -62.667 30 -104c0 -52.667 -17.5 -93.834 -52.5 -123.501s-84.167 -44.834 -147.5 -45.501v0z" />
    <glyph glyph-name="hyphen" unicode="-" horiz-adv-x="365" 
d="M29 199v76h307v-76h-307v0z" />
    <glyph glyph-name="period" unicode="." horiz-adv-x="292" 
d="M84 50c0 16.667 6.16699 31 18.5 43s26.833 18 43.5 18c17.333 0 32 -6 44 -18s18 -26.667 18 -44c0 -16.667 -6 -31 -18 -43s-26.667 -18 -44 -18c-16.667 0 -31.167 6 -43.5 18s-18.5 26.333 -18.5 43v1z" />
    <glyph glyph-name="slash" unicode="/" 
d="M293 695l-239 -709h-69l240 709h68v0z" />
    <glyph glyph-name="zero" unicode="0" horiz-adv-x="552" 
d="M48 306c0 99.333 22.167 183.669 66.5 253.002s98.5 104 162.5 104c65.333 0 119.5 -30.333 162.5 -91s64.5 -137.334 64.5 -230.001c0 -98.667 -22.333 -182.334 -67 -251.001s-99 -103 -163 -103c-63.333 0 -116.833 30.667 -160.5 92s-65.5 136.333 -65.5 225v1z
M144 344.003c1.33301 -62.667 5.50195 -112.834 12.502 -150.501s18.833 -72.5 35.5 -104.5c10.667 -20.667 23.667 -36.667 39 -48s32.333 -17 51 -17c21.333 0 41.166 7.66699 59.499 23s32.5 36.333 42.5 63c9.33301 24.667 15.833 51.334 19.5 80.001
s5.5 63.334 5.5 104.001c0 105.333 -12.333 186.333 -37 243s-60.334 85 -107.001 85c-19.333 0 -37.833 -7 -55.5 -21s-31.167 -32.667 -40.5 -56c-9.33301 -22 -16 -46.333 -20 -73s-6 -62.334 -6 -107.001v-5.5c0 -1.66699 0.333008 -3.5 1 -5.5v-5v-6v1z" />
    <glyph glyph-name="one" unicode="1" horiz-adv-x="552" 
d="M329 664v-531.998c0 -33.333 6.33301 -57.833 19 -73.5s32 -23.5 58 -23.5l14 1v-36h-283v36h19c27.333 -0.666992 47.5 6.66602 60.5 21.999s19.5 39.666 19.5 72.999v351c0 32.667 -5.33301 56.5 -16 71.5s-27.667 22.5 -51 22.5l-29 1v36h9
c23.333 -0.666992 44.333 1.16602 63 5.49902s36.667 11.5 54 21.5c6 3.33301 11.667 6.83301 17 10.5s11 7.83398 17 12.501l29 1v0z" />
    <glyph glyph-name="two" unicode="2" horiz-adv-x="552" 
d="M504 165l-49.0029 -165.001h-406v36l14 14.5l12 13.5l0.5 0.5l1.5 1.5l18.5 20l27.5 28c8.66699 8 17.5 16.667 26.5 26s18.833 19 29.5 29l48.5 48l34.5 36c0.666992 1.33301 1.5 2.5 2.5 3.5l3.5 3.5l14.5 16.5l16.5 18.5c9.33301 10.667 17.666 20.834 24.999 30.501
s14 18.834 20 27.501c8 10.667 14.667 22.167 20 34.5s9.33301 24.833 12 37.5l2 16c0.666992 5.33301 1 10.666 1 15.999c0 36 -11.333 67 -34 93s-50 39 -82 39c-34.667 0 -67 -13 -97 -39s-55.333 -63 -76 -111l-37 16c24 66 56.333 117.167 97 153.5
s86.334 54.5 137.001 54.5c52 0 96.333 -18.167 133 -54.5s55 -80.166 55 -131.499c0 -5.33301 -0.166992 -10.666 -0.5 -15.999s-1.16602 -10.666 -2.49902 -15.999c-3.33301 -18 -8.83301 -35.333 -16.5 -52s-17.167 -32 -28.5 -46
c-8.66699 -10.667 -18.667 -21.334 -30 -32.001s-23.666 -21.667 -36.999 -33l-79 -66c-4.66699 -4.66699 -9.5 -9.16699 -14.5 -13.5l-14.5 -12.5c-20.667 -18 -39.5 -35.333 -56.5 -52s-30.5 -30.334 -40.5 -41.001c-0.666992 -1.33301 -2.16699 -3.33301 -4.5 -6
s-5.16602 -6.33398 -8.49902 -11.001l210 1c28.667 -0.666992 50.5 3.33301 65.5 12s28.833 25.334 41.5 50.001c2 3.33301 3.83301 6.66602 5.5 9.99902s3.16699 7 4.5 11l35 1v0z" />
    <glyph glyph-name="three" unicode="3" horiz-adv-x="552" 
d="M176 305l-16 32.9971l12 7l59 35c13.333 8 24.333 15.333 33 22c1.33301 0.666992 2.66602 1.5 3.99902 2.5s2.66602 2.16699 3.99902 3.5l8.5 6.5l9.5 7.5c19.333 15.333 33.5 30.833 42.5 46.5s13.5 31.834 13.5 48.501c0 23.333 -8.5 43 -25.5 59s-37.833 24 -62.5 24
c-23.333 0 -47.666 -6.66699 -72.999 -20s-51 -32.666 -77 -57.999l-10.5 -11l-11.5 -12l-28 23c0.666992 0.666992 1.5 1.66699 2.5 3s2.16699 2.66602 3.5 3.99902c12 17.333 26.5 34.333 43.5 51s34.5 31.334 52.5 44.001c1.33301 0.666992 2.66602 1.5 3.99902 2.5
s2.66602 1.83301 3.99902 2.5c14 9.33301 29.5 16.833 46.5 22.5s34.5 9.5 52.5 11.5c3.33301 0 6.83301 0.166992 10.5 0.5s7.16699 0.5 10.5 0.5c44 0 80 -11.167 108 -33.5s42 -51.166 42 -86.499c0 -10 -1.16699 -19.5 -3.5 -28.5s-6.16602 -18.167 -11.499 -27.5
c-7.33301 -12.667 -18 -25.667 -32 -39s-32.333 -28 -55 -44l-14 -7l2 -2c4 0 7.66699 0.166992 11 0.5s6.33301 0.5 9 0.5c39.333 0 73 -15.667 101 -47s42 -69 42 -113c0 -67.333 -28.167 -125.666 -84.5 -174.999s-123.166 -74 -200.499 -74
c-4.66699 0 -9.16699 0.166992 -13.5 0.5s-8.83301 0.5 -13.5 0.5c-25.333 2.66699 -49.833 7.66699 -73.5 15s-43.167 16.666 -58.5 27.999l20 30c15.333 -8 29.333 -14.333 42 -19s25 -8.33398 37 -11.001c7.33301 -1.33301 14.5 -2.33301 21.5 -3s14.5 -1 22.5 -1
c57.333 0 106.333 18.333 147 55s61 80.334 61 131.001c0 36 -11 66.167 -33 90.5s-49.333 36.5 -82 36.5c-15.333 0 -31.666 -3.16699 -48.999 -9.5s-35.333 -15.5 -54 -27.5v1z" />
    <glyph glyph-name="four" unicode="4" horiz-adv-x="552" 
d="M406 187l0.000976562 -55c0 -34.667 5.33301 -59.5 16 -74.5s28 -22.5 52 -22.5l20 1v-36h-271v36h21c23.333 -0.666992 40.333 6.5 51 21.5s16 39.5 16 73.5v56h-273v58l287 419h81v-428h8c15.333 -0.666992 27.666 4 36.999 14s17.333 26.333 24 49l34 1l-15 -113h-88
v0zM311.001 236v341h-2l-230 -341h232v0z" />
    <glyph glyph-name="five" unicode="5" horiz-adv-x="552" 
d="M140 652l246.005 -0.000976562c20 -0.666992 33.667 -0.166992 41 1.5s13 4.83398 17 9.50098l34 1l-19 -93h-300l-30 -133l39 13.5c10.667 3.66699 21 6.5 31 8.5c7.33301 1.33301 14.666 2.16602 21.999 2.49902s15.333 0.5 24 0.5c65.333 0 120.166 -22 164.499 -66
s66.5 -98 66.5 -162c0 -71.333 -27 -130.333 -81 -177s-122 -70 -204 -70c-7.33301 0 -14.666 0.166992 -21.999 0.5s-14.666 0.833008 -21.999 1.5c-14.667 2 -29.334 4.33301 -44.001 7s-29.334 6.33398 -44.001 11.001l15 35
c19.333 -5.33301 36.666 -9.16602 51.999 -11.499s29.666 -3.5 42.999 -3.5c58 0 107.667 19 149 57s62 83.333 62 136c0 47.333 -15.5 86.5 -46.5 117.5s-70.5 46.5 -118.5 46.5c-20.667 0 -39.834 -2.83301 -57.501 -8.5s-35.167 -14.834 -52.5 -27.501l-6.5 -4.5
c-2.33301 -1.66699 -4.5 -3.5 -6.5 -5.5l-23 7l71 306v0z" />
    <glyph glyph-name="six" unicode="6" horiz-adv-x="552" 
d="M439 664l0.00195312 -34.9971c-2.66699 -0.666992 -5.33398 -1.16699 -8.00098 -1.5s-5 -0.5 -7 -0.5c-8.66699 -0.666992 -16 -1.5 -22 -2.5s-11.667 -2.16699 -17 -3.5c-4 -0.666992 -8 -1.5 -12 -2.5s-8.33301 -2.16699 -13 -3.5
c-28.667 -8.66699 -55.334 -22.334 -80.001 -41.001s-45.334 -40.334 -62.001 -65.001c-12 -18.667 -22.333 -39.834 -31 -63.501s-14.667 -47.834 -18 -72.501l2 -1c10 9.33301 20 17.833 30 25.5s19.667 14.167 29 19.5c14.667 8.66699 29.5 14.834 44.5 18.501
s30.5 5.5 46.5 5.5c51.333 0 94 -20 128 -60s51 -90.333 51 -151c0 -66.667 -20.167 -123.667 -60.5 -171s-88.5 -71 -144.5 -71c-28 0 -55.167 6.16699 -81.5 18.5s-50.5 29.833 -72.5 52.5c-26 28 -45.167 59.667 -57.5 95s-18.5 76 -18.5 122
c0 45.333 5.83301 86.5 17.5 123.5s30.5 72.833 56.5 107.5c22.667 31.333 48 58 76 80s58.667 39.333 92 52c20.667 7.33301 41.834 13 63.501 17s44.5 6.33301 68.5 7v1zM162.002 303.003c-0.666992 -8 -0.999023 -14.502 -0.999023 -19.502v-13.5v-4.5v-5.5
c0 -66.667 12.667 -122 38 -166s57.333 -66 96 -66c33.333 0 59.833 16.333 79.5 49s29.5 76.334 29.5 131.001s-10.5 98.834 -31.5 132.501s-48.5 50.5 -82.5 50.5c-24.667 0 -47.834 -7.5 -69.501 -22.5s-41.167 -37.167 -58.5 -66.5v1z" />
    <glyph glyph-name="seven" unicode="7" horiz-adv-x="552" 
d="M296 0h-97.999v11c0 28.667 5.16699 62.334 15.5 101.001s24.833 81.334 43.5 128.001c8.66699 21.333 19.667 46 33 74l42 86l10 20c3.33301 6.66699 6.66602 13 9.99902 19l34 65.5c11.333 21 22 39.5 32 55.5l7 12h-227c-32 -0.666992 -56.5 -7.66699 -73.5 -21
s-29.833 -36 -38.5 -68l-37 1l41 180h24c1.33301 -1.33301 2.5 -2.33301 3.5 -3s2.16699 -1.33398 3.5 -2.00098c7.33301 -3.33301 15.5 -5.5 24.5 -6.5s23.167 -1.5 42.5 -1.5l296 1v-52c-3.33301 -6 -6.33301 -11 -9 -15l-8 -12
c-0.666992 -0.666992 -1.33398 -1.5 -2.00098 -2.5s-1 -2.16699 -1 -3.5c-3.33301 -5.33301 -6.5 -11 -9.5 -17l-11.5 -22l-13.5 -27.5l-12.5 -26.5l-20 -48c-6.66699 -16 -13 -33 -19 -51c-4 -10 -7.66699 -20.333 -11 -31s-7 -21.667 -11 -33
c-20 -64 -34.667 -119.833 -44 -167.5s-14.666 -93.834 -15.999 -138.501v-2.5v-2.5v0z" />
    <glyph glyph-name="eight" unicode="8" horiz-adv-x="552" 
d="M200 332l-13.9971 9.00098c-10 4.66699 -19 9.66699 -27 15s-15.333 10.666 -22 15.999c-12.667 9.33301 -23 19 -31 29s-14.667 21.333 -20 34c-4 9.33301 -7 18.666 -9 27.999s-3 19 -3 29c0 47.333 20 87.833 60 121.5s88.333 50.5 145 50.5
c55.333 0 102.166 -15.333 140.499 -46s57.5 -67.667 57.5 -111c0 -30.667 -9.83301 -57.667 -29.5 -81s-50.834 -44 -93.501 -62c47.333 -23.333 82.666 -50.833 105.999 -82.5s35 -67.5 35 -107.5c0 -54.667 -20.333 -99.334 -61 -134.001s-93 -52 -157 -52
c-62 0 -113.833 16.5 -155.5 49.5s-62.5 74.167 -62.5 123.5c0 4 0.166992 8 0.5 12s0.833008 7.66699 1.5 11c2 10 4.83301 19.833 8.5 29.5s8.5 18.834 14.5 27.501c8 12 16.667 22.833 26 32.5s21 18.834 35 27.501c6 4 12.833 8 20.5 12l24.5 13l10 6v0z
M256.003 307.001l-17 7.99805c-32.667 -15.333 -57.834 -35.666 -75.501 -60.999s-26.5 -53.666 -26.5 -84.999c0 -42.667 13.667 -77.5 41 -104.5s63 -40.5 107 -40.5c40.667 0 74 11.167 100 33.5s39 50.833 39 85.5c0 28 -9.16699 53.333 -27.5 76
s-46.166 42.667 -83.499 60l-57 28v0zM299.003 390.999l16 -8.00098c30 13.333 52.5 29.833 67.5 49.5s22.5 42.167 22.5 67.5c0 35.333 -12.5 64.5 -37.5 87.5s-56.833 34.5 -95.5 34.5c-32.667 0 -60.334 -9.5 -83.001 -28.5s-34 -42.5 -34 -70.5
c0 -16.667 4.5 -32.834 13.5 -48.501s21.833 -29.167 38.5 -40.5c2 -1.33301 4.16699 -2.66602 6.5 -3.99902s4.5 -2.66602 6.5 -3.99902c0.666992 -0.666992 1.5 -1.16699 2.5 -1.5s1.83301 -0.833008 2.5 -1.5c6.66699 -4 15.334 -8.33301 26.001 -13l48 -20v1z" />
    <glyph glyph-name="nine" unicode="9" horiz-adv-x="552" 
d="M113 -12l-0.00390625 35.0029c2.66699 -0.666992 5.33398 -0.833984 8.00098 -0.500977s5 0.5 7 0.5c8.66699 0.666992 16 1.5 22 2.5s12 2.16699 18 3.5c3.33301 0.666992 7 1.5 11 2.5s8 2.16699 12 3.5c28.667 9.33301 55.5 23.166 80.5 41.499s45.5 39.833 61.5 64.5
c12.667 19.333 23.334 40.666 32.001 63.999s14.667 47.333 18 72l-2 3c-9.33301 -10 -18.666 -18.667 -27.999 -26s-18.666 -13.666 -27.999 -18.999c-15.333 -8.66699 -30.666 -15.167 -45.999 -19.5s-31.666 -6.5 -48.999 -6.5c-50.667 0 -93 20 -127 60
s-51 90.333 -51 151c0 66.667 20 123.834 60 171.501s88 71.5 144 71.5h5.5h5.5c26 -2 51.667 -9.16699 77 -21.5s48 -29.166 68 -50.499c25.333 -26.667 44.166 -58.167 56.499 -94.5s18.5 -77.5 18.5 -123.5c0 -44.667 -6 -85.334 -18 -122.001s-30.667 -72.667 -56 -108
c-22.667 -31.333 -48 -57.833 -76 -79.5s-58.667 -38.834 -92 -51.501c-20.667 -8 -41.834 -13.833 -63.501 -17.5s-44.5 -5.83398 -68.5 -6.50098v0zM388.996 349.003c0.666992 6.66699 0.999023 12.5 0.999023 17.5v13.5v4.5v5.5c0 66.667 -12.667 122 -38 166
s-57.333 66 -96 66c-33.333 0 -59.666 -16.167 -78.999 -48.5s-29 -76.166 -29 -131.499c0 -54.667 10.5 -98.834 31.5 -132.501s48.5 -50.5 82.5 -50.5c24 0 46.833 7.66699 68.5 23s41.167 37.333 58.5 66v1z" />
    <glyph glyph-name="colon" unicode=":" horiz-adv-x="292" 
d="M84 50c0 16.667 6.16699 31 18.5 43s26.833 18 43.5 18c17.333 0 32 -6 44 -18s18 -26.667 18 -44c0 -16.667 -6 -31 -18 -43s-26.667 -18 -44 -18c-16.667 0 -31.167 6 -43.5 18s-18.5 26.333 -18.5 43v1zM84 399c0 16.667 6.16699 31 18.5 43s26.833 18 43.5 18
c17.333 0 32 -6 44 -18s18 -26.667 18 -44c0 -16.667 -6 -31.167 -18 -43.5s-26.667 -18.5 -44 -18.5c-16.667 0 -31.167 6.16699 -43.5 18.5s-18.5 26.833 -18.5 43.5v1z" />
    <glyph glyph-name="semicolon" unicode=";" horiz-adv-x="292" 
d="M40 -153l-0.00195312 37.0029c46.667 4.66699 81.834 15.5 105.501 32.5s35.5 40.167 35.5 69.5c0 18.667 -3 32.5 -9 41.5s-16.333 13.833 -31 14.5l-13 1c-17.333 0.666992 -31.166 6 -41.499 16s-15.5 23.333 -15.5 40c0 19.333 6.16699 34.666 18.5 45.999
s27.833 17 46.5 17c29.333 0 54 -14 74 -42s30 -62.667 30 -104c0 -52.667 -17.5 -93.834 -52.5 -123.501s-84.167 -44.834 -147.5 -45.501v0zM87.998 399.003c0 16.667 6.16699 31 18.5 43s26.833 18 43.5 18c17.333 0 32 -6 44 -18s18 -26.667 18 -44
c0 -16.667 -6 -31.167 -18 -43.5s-26.667 -18.5 -44 -18.5c-16.667 0 -31.167 6.16699 -43.5 18.5s-18.5 26.833 -18.5 43.5v1z" />
    <glyph glyph-name="less" unicode="&#x3c;" horiz-adv-x="667" 
d="M599 72l-530 223v58l530 223v-70l-444 -182l444 -183v-69v0z" />
    <glyph glyph-name="equal" unicode="=" horiz-adv-x="667" 
d="M68 243h530v-64h-530v64v0zM68 472h530v-65h-530v65v0z" />
    <glyph glyph-name="greater" unicode="&#x3e;" horiz-adv-x="667" 
d="M69 576l529 -224v-57l-529 -223v69l443 182l-443 183v70v0z" />
    <glyph glyph-name="question" unicode="?" horiz-adv-x="385" 
d="M69 50c0 16.667 6.16699 31 18.5 43s26.833 18 43.5 18c17.333 0 32 -6 44 -18s18 -26.667 18 -44c0 -16.667 -6 -31 -18 -43s-26.667 -18 -44 -18c-16.667 0 -31.167 6 -43.5 18s-18.5 26.333 -18.5 43v1zM146 170l-37.002 -0.00878906c0.666992 3.33301 1 6.5 1 9.5
v7.5v3.5v3.5c0 6.66699 -0.166992 13.5 -0.5 20.5s-0.833008 13.833 -1.5 20.5c-0.666992 7.33301 -1.5 14.333 -2.5 21s-2.16699 13.334 -3.5 20.001l-6 30l-0.5 1c-0.333008 0.666992 -0.5 1.33398 -0.5 2.00098v4.5v3.5c0 8 1.66699 13.833 5 17.5
s10.333 7.16699 21 10.5c2.66699 0.666992 5.5 1.33398 8.5 2.00098s6.5 1.33398 10.5 2.00098c6 1.33301 12.333 2.83301 19 4.5s13.334 3.5 20.001 5.5c10.667 3.33301 21.334 7.16602 32.001 11.499s20 8.83301 28 13.5c12.667 6.66699 23.5 16 32.5 28
s14.833 24.667 17.5 38c0.666992 2.66699 1.16699 5.33398 1.5 8.00098s0.5 5.33398 0.5 8.00098c0 7.33301 -1 14.833 -3 22.5s-4.66699 15.834 -8 24.501s-7.83301 17.5 -13.5 26.5s-12.167 17.167 -19.5 24.5c-8 8.66699 -16.333 16.167 -25 22.5s-17.667 11.5 -27 15.5
c-6.66699 2.66699 -13.167 4.83398 -19.5 6.50098s-12.5 2.5 -18.5 2.5c-2.66699 0 -5.33398 -0.166992 -8.00098 -0.5s-5.33398 -0.5 -8.00098 -0.5l-8 -2c-2.66699 -0.666992 -5.33398 -1.66699 -8.00098 -3l-25 -9c-2.66699 -2 -6 -3.33301 -10 -4s-8 -1 -12 -1
c-12.667 0 -23 3.83301 -31 11.5s-12 17.834 -12 30.501c0 18 8 32.5 24 43.5s37.333 16.5 64 16.5c10.667 0 20.834 -1 30.501 -3s18.834 -5 27.501 -9c6.66699 -2.66699 13 -5.83398 19 -9.50098s12.333 -8.16699 19 -13.5c10 -7.33301 19.5 -15.5 28.5 -24.5
s17.5 -18.5 25.5 -28.5l8.5 -11c3 -4 5.83301 -8.33301 8.5 -13c5.33301 -7.33301 10.5 -15.5 15.5 -24.5s9.83301 -18.167 14.5 -27.5c4.66699 -8 8.83398 -16.167 12.501 -24.5s6.83398 -16.166 9.50098 -23.499c3.33301 -9.33301 6 -19.166 8 -29.499s3 -20.833 3 -31.5
c0 -36.667 -10.833 -66.667 -32.5 -90s-58.167 -44 -109.5 -62c-1.33301 -0.666992 -2.5 -1.16699 -3.5 -1.5s-1.83301 -0.5 -2.5 -0.5c-23.333 -9.33301 -38.833 -20.333 -46.5 -33s-11.834 -34 -12.501 -64v1z" />
    <glyph glyph-name="at" unicode="@" horiz-adv-x="921" 
d="M690 468l-56.9971 -194.998l-30 -105c-4.66699 -17.333 -8.16699 -32.5 -10.5 -45.5s-4.16602 -24.167 -5.49902 -33.5v-1c0 -11.333 3.5 -20.666 10.5 -27.999s15.833 -11 26.5 -11c8.66699 0 17.667 1.5 27 4.5s19 7.16699 29 12.5c12 6 23.667 13.667 35 23
s21.666 19.666 30.999 30.999c24 29.333 43.333 63.333 58 102s23.334 78.667 26.001 120c0.666992 4 1 8.16699 1 12.5v12.5c0 88 -29.5 160.167 -88.5 216.5s-134.833 84.5 -227.5 84.5c-117.333 0 -216.5 -45 -297.5 -135s-121.5 -200 -121.5 -330
c0 -114.667 35.5 -208.167 106.5 -280.5s162.833 -108.5 275.5 -108.5c88.667 0 167 23.333 235 70s120.333 113 157 199l28 1c-29.333 -90.667 -82.333 -163.334 -159 -218.001s-164.667 -82 -264 -82c-122.667 0 -224.334 40.833 -305.001 122.5
s-121 184.834 -121 309.501c0 134 44.667 247.167 134 339.5s198.666 138.5 327.999 138.5c104 0 188.167 -31 252.5 -93s96.5 -142.667 96.5 -242c0 -94.667 -26.333 -175.834 -79 -243.501s-116 -101.5 -190 -101.5c-24.667 0 -43.334 5.66699 -56.001 17
s-19 28.333 -19 51v8v7c0.666992 7.33301 1.66699 15 3 23s3.33301 18.333 6 31l-2 3l-27.5 -35c-7 -8.66699 -13.5 -16.334 -19.5 -23.001l-4 -4c-1.33301 -1.33301 -2.66602 -2.33301 -3.99902 -3l-10.5 -10.5c-3.66699 -3.66699 -7.83398 -7.5 -12.501 -11.5
c-6.66699 -6 -13.5 -11.5 -20.5 -16.5l-20.5 -14.5c-12.667 -6.66699 -25 -12 -37 -16s-23.333 -6 -34 -6c-25.333 0 -46.5 10.833 -63.5 32.5s-25.5 48.834 -25.5 81.501c0 18 2.33301 36.833 7 56.5s11 39.5 19 59.5c11.333 26.667 25.166 52.5 41.499 77.5
s34.833 48.167 55.5 69.5c6 6 11.833 11.5 17.5 16.5s11.5 9.83301 17.5 14.5c19.333 15.333 38.5 27.166 57.5 35.499s36.833 12.5 53.5 12.5c22.667 0 41 -5.66699 55 -17s23.333 -28.333 28 -51l2 1l15 54l77 11v0zM518.003 448.002
c-6 -0.666992 -11.998 -1.83105 -17.998 -3.49805s-12 -4.16699 -18 -7.5c-8 -4 -15.833 -9 -23.5 -15s-14.834 -13 -21.501 -21c-14.667 -17.333 -28.667 -36.666 -42 -57.999s-25.333 -43.333 -36 -66c-11.333 -24.667 -20.5 -48.834 -27.5 -72.501
s-10.5 -44.167 -10.5 -61.5c0 -19.333 5.5 -35.833 16.5 -49.5s24.5 -20.5 40.5 -20.5c19.333 0 39.833 7.83301 61.5 23.5s44.167 39.167 67.5 70.5c5.33301 6.66699 9.83301 13 13.5 19l10.5 17c3.33301 6 6.5 12 9.5 18s5.83301 12.667 8.5 20l4 11.5
c1.33301 3.66699 2.66602 7.83398 3.99902 12.501c7.33301 23.333 12.833 44.166 16.5 62.499s5.5 34.166 5.5 47.499c0 21.333 -5.66699 38.666 -17 51.999s-26 20 -44 20v1z" />
    <glyph glyph-name="A" unicode="A" horiz-adv-x="719" 
d="M286 682l108.001 0.00390625l233 -544c8.66699 -20.667 16 -37.334 22 -50.001s12 -22.667 18 -30c6.66699 -8.66699 13.834 -14.334 21.501 -17.001s17.167 -4 28.5 -4v-37h-280v38c27.333 0.666992 48.166 6.66699 62.499 18s21.5 26.666 21.5 45.999v2v2
c-0.666992 5.33301 -1.66699 10.833 -3 16.5s-3.66602 12.5 -6.99902 20.5l-51 123h-265l-35 -94c-1.33301 -4 -2.5 -7.66699 -3.5 -11s-2.16699 -6.66602 -3.5 -9.99902c-1.33301 -5.33301 -2.33301 -10.833 -3 -16.5s-1 -10.834 -1 -15.501
c0 -24.667 7.16699 -43.834 21.5 -57.501s35.5 -21.834 63.5 -24.501v-37h-230v38c1.33301 0 2.83301 0.166992 4.5 0.5s3.16699 0.5 4.5 0.5c5.33301 1.33301 10 2.83301 14 4.5s7.66699 3.83398 11 6.50098c1.33301 0.666992 2.66602 1.5 3.99902 2.5
s2.66602 2.16699 3.99902 3.5c1.33301 0.666992 2.5 1.5 3.5 2.5l3.5 3.5c2.66699 2 5.16699 4.33301 7.5 7s4.5 5.66699 6.5 9c5.33301 7.33301 11 18 17 32l26 62l192 478l-16 32v0zM437.001 320.004l-113 271l-108 -271h221v0z" />
    <glyph glyph-name="B" unicode="B" horiz-adv-x="688" 
d="M34 682l362 0.00195312c22.667 -0.666992 42.667 -2 60 -4s33.666 -5.66699 48.999 -11c33.333 -10.667 60 -29.5 80 -56.5s30 -58.167 30 -93.5c0 -43.333 -16.333 -78 -49 -104s-82.667 -43.667 -150 -53v-1c41.333 -5.33301 74.166 -11.833 98.499 -19.5
s45.833 -18.5 64.5 -32.5c20 -15.333 35.333 -33.833 46 -55.5s16 -45.167 16 -70.5c0 -32.667 -9.16699 -62.834 -27.5 -90.501s-43.5 -49.167 -75.5 -64.5c-5.33301 -2.66699 -10.666 -5.16699 -15.999 -7.5s-10.666 -4.16602 -15.999 -5.49902
c-16 -6 -33 -9.83301 -51 -11.5s-42 -2.5 -72 -2.5l-349 1v38h13c33.333 -0.666992 57 7.66602 71 24.999s21 47 21 89v377c0 41.333 -7 70.666 -21 87.999s-37.667 26 -71 26l-13 1v38v0zM245 335.002l-0.000976562 -174.001c0 -47.333 7.5 -79.333 22.5 -96
s44.167 -25 87.5 -25l35 1c40 -0.666992 71.5 11 94.5 35s34.5 56.333 34.5 97c0 31.333 -8 60 -24 86s-37 45 -63 57c-13.333 6.66699 -28.666 11.334 -45.999 14.001s-39.333 4 -66 4l-75 1v0zM244.999 381.001h71.001c25.333 -0.666992 46.333 -0.166992 63 1.5
s31.334 4.5 44.001 8.5c21.333 7.33301 38.333 20.5 51 39.5s19 41.833 19 68.5v4v4c-0.666992 12.667 -2.83398 25.167 -6.50098 37.5s-8.5 22.833 -14.5 31.5c-8 12.667 -18 23.5 -30 32.5s-25.333 16.167 -40 21.5c-1.33301 0.666992 -2.83301 1.16699 -4.5 1.5
s-3.5 0.833008 -5.5 1.5c-12.667 4 -26.334 6.66699 -41.001 8s-34.667 2 -60 2l-46 1v-263v0z" />
    <glyph glyph-name="C" unicode="C" horiz-adv-x="781" 
d="M716 494l-31.9971 -0.00195312c-22.667 50 -55.334 89.833 -98.001 119.5s-89 44.5 -139 44.5c-78.667 0 -142 -28.333 -190 -85s-72 -131 -72 -223c0 -95.333 25.5 -172.666 76.5 -231.999s117.5 -89 199.5 -89c32.667 0 63 4.83301 91 14.5s51.667 23.5 71 41.5
c15.333 13.333 27.666 29 36.999 47s17.333 40 24 66l37 1l-5 -157c-20 -8.66699 -42.5 -16.5 -67.5 -23.5s-50.167 -12.833 -75.5 -17.5c-23.333 -4 -46 -7.16699 -68 -9.5s-42.333 -3.5 -61 -3.5c-112.667 0 -204.334 32 -275.001 96s-106 147 -106 249
c0 106.667 37 194.334 111 263.001s168.667 103 284 103c37.333 0 75.333 -4 114 -12s78.667 -20 120 -36l24 -157v0z" />
    <glyph glyph-name="D" unicode="D" horiz-adv-x="844" 
d="M29 682l351.002 0.00292969c45.333 -0.666992 81.666 -2.5 108.999 -5.5s52.666 -8.16699 75.999 -15.5c0.666992 0 1.16699 -0.166992 1.5 -0.5s0.833008 -0.5 1.5 -0.5c21.333 -6.66699 42 -15.834 62 -27.501s39 -25.5 57 -41.5c36 -32 63.333 -68.667 82 -110
s28 -86.333 28 -135c0 -78.667 -24.167 -148.667 -72.5 -210s-111.833 -102 -190.5 -122c-1.33301 0 -2.5 -0.166992 -3.5 -0.5s-1.83301 -0.833008 -2.5 -1.5c-20.667 -4.66699 -42.667 -8 -66 -10s-54.333 -3 -93 -3l-340 1v38h19c33.333 -0.666992 57 7.66602 71 24.999
s21 47 21 89v377c0 41.333 -7 70.666 -21 87.999s-37.667 26 -71 26l-19 1v38v0zM246.002 642.003l-0.00390625 -460c0 -23.333 0.333008 -40.166 1 -50.499s2.66699 -19.5 6 -27.5c0 -0.666992 0.166992 -1.5 0.5 -2.5s0.833008 -1.83301 1.5 -2.5
c7.33301 -18 19.5 -32.167 36.5 -42.5s36.833 -15.5 59.5 -15.5l38 1c23.333 -0.666992 43.333 0 60 2s31.334 4.66699 44.001 8c54.667 15.333 98.167 47.333 130.5 96s48.5 106 48.5 172c0 49.333 -8 94.166 -24 134.499s-39.667 75.166 -71 104.499
c-13.333 12.667 -27.666 23.834 -42.999 33.501s-31.666 17.834 -48.999 24.501c-22.667 9.33301 -47.167 15.666 -73.5 18.999s-61.166 5 -104.499 5l-61 1v0z" />
    <glyph glyph-name="E" unicode="E" horiz-adv-x="677" 
d="M26 0v38.001h13c34 -0.666992 58 7.66602 72 24.999s21 47 21 89v377c0 42 -7 71.667 -21 89s-38 26 -72 26l-13 1v37h578v-152h-36c-10 24.667 -21.167 44.834 -33.5 60.501s-26.833 27.167 -43.5 34.5c-13.333 6 -28.333 10 -45 12s-41.334 3 -74.001 3l-134 1v-263
h133c47.333 -0.666992 81 6 101 20s31.333 38.667 34 74l40 1v-241h-40c-6 37.333 -18.667 63.5 -38 78.5s-50.666 22.5 -93.999 22.5l-136 1v-165c0 -34.667 3.5 -60.334 10.5 -77.001s19.833 -29.334 38.5 -38.001c11.333 -5.33301 23.833 -9 37.5 -11s32.5 -3 56.5 -3
c32.667 0 59.5 1.83301 80.5 5.5s40.167 9.83398 57.5 18.501s32.333 19 45 31s24.667 27.667 36 47c2 4 4.16699 8 6.5 12s4.5 8 6.5 12l45 1l-44 -167h-588v0z" />
    <glyph glyph-name="F" unicode="F" horiz-adv-x="656" 
d="M28 682l605.999 0.00195312v-154h-29c-5.33301 10 -10.666 19.333 -15.999 28s-10.666 16.667 -15.999 24c-8.66699 12 -17.667 22 -27 30s-19.333 14.333 -30 19c-2.66699 0.666992 -5 1.5 -7 2.5s-4.33301 1.83301 -7 2.5c-9.33301 2.66699 -21 4.33398 -35 5.00098
s-38 1 -72 1l-150 1v-256h148c45.333 -0.666992 76 4.66602 92 15.999s26.333 35 31 71l40 1v-246h-40c-4.66699 26 -10.834 46 -18.501 60s-18.5 25.333 -32.5 34c-10.667 6 -22 10.5 -34 13.5s-25.667 4.5 -41 4.5l-145 1v-187c0 -42.667 7 -72.667 21 -90
s38.333 -26 73 -26l26 1v-38h-331v38h13c34 -0.666992 58 7.66602 72 24.999s21 47 21 89v377c0 41.333 -7 70.666 -21 87.999s-38 26 -72 26l-19 1v38v0z" />
    <glyph glyph-name="G" unicode="G" horiz-adv-x="833" 
d="M711 655l14.001 -160.998h-41c-26 55.333 -58.167 96.5 -96.5 123.5s-84.166 40.5 -137.499 40.5c-80.667 0 -147.334 -29.5 -200.001 -88.5s-79 -133.5 -79 -223.5s27.667 -165.5 83 -226.5s123.666 -91.5 204.999 -91.5c10 0 20 0.5 30 1.5s20 2.5 30 4.5
c17.333 3.33301 34.833 8.33301 52.5 15s35.834 15 54.501 25v124c0 41.333 -7 70.666 -21 87.999s-38 26 -72 26l-27 1v38h320v-38h-4c-30.667 -0.666992 -52.834 -9.83398 -66.501 -27.501s-20.5 -47.167 -20.5 -88.5v-161l-14 -4c-54.667 -16 -103 -27.333 -145 -34
s-82.333 -10 -121 -10c-122 0 -220.833 31.667 -296.5 95s-113.5 146 -113.5 248c0 104 40.667 191.333 122 262s181.666 106 300.999 106c10.667 0 21 -0.166992 31 -0.5s20 -1.16602 30 -2.49902c27.333 -2.66699 55.333 -7.33398 84 -14.001s61.334 -16 98.001 -28v1z
" />
    <glyph glyph-name="H" unicode="H" horiz-adv-x="854" 
d="M241 323v-169.996c0 -42.667 7 -72.667 21 -90s37.667 -26 71 -26l15 1v-38h-318v38h13c33.333 -0.666992 57 7.66602 71 24.999s21 47 21 89v377c0 41.333 -7 70.666 -21 87.999s-37.667 26 -71 26l-13 1v38h318v-38h-15c-33.333 -0.666992 -57 -9.66699 -71 -27
s-21 -47 -21 -89v-153h369v154c0 41.333 -7 70.666 -21 87.999s-37.667 26 -71 26l-4 1v38h308v-38h-14c-34 -0.666992 -58 -9.66699 -72 -27s-21 -47 -21 -89v-375c0 -42.667 7 -72.667 21 -90s38 -26 72 -26l14 1v-38h-308v38h4c33.333 -0.666992 57 7.66602 71 24.999
s21 47 21 89v171h-369v0z" />
    <glyph glyph-name="I" unicode="I" horiz-adv-x="375" 
d="M27 682l321 0.00195312v-38h-14c-34 -0.666992 -58 -9.66699 -72 -27s-21 -47 -21 -89v-375c0 -42.667 7 -72.667 21 -90s38 -26 72 -26l14 1v-38h-321v38h16c34 -0.666992 58 7.66602 72 24.999s21 47 21 89v377c0 41.333 -7 70.666 -21 87.999s-38 26 -72 26l-16 1v38
v0z" />
    <glyph glyph-name="J" unicode="J" horiz-adv-x="354" 
d="M30 682l324.999 -0.000976562v-38h-17c-34 -0.666992 -58 -9.66699 -72 -27s-21 -47 -21 -89v-356c0 -45.333 -0.333008 -78.333 -1 -99s-2 -39 -4 -55c-0.666992 -5.33301 -1.5 -10.5 -2.5 -15.5s-2.16699 -10.5 -3.5 -16.5
c-2.66699 -17.333 -7.16699 -33.666 -13.5 -48.999s-13.833 -29.666 -22.5 -42.999c-14 -20.667 -32.333 -36.667 -55 -48s-47.667 -17 -75 -17c-30.667 0 -55.334 6.33301 -74.001 19s-28 28.667 -28 48c0 12.667 4.33301 23.667 13 33s19 14 31 14
c11.333 0 21.833 -3.5 31.5 -10.5s18.167 -17.167 25.5 -30.5l4 -6l4 -6c4.66699 -5.33301 9.33398 -9.33301 14.001 -12s10.334 -4 17.001 -4c14 0 23.167 6.5 27.5 19.5s6.5 40.5 6.5 82.5v553c0 41.333 -7 70.666 -21 87.999s-38 26 -72 26l-17 1v38v0z" />
    <glyph glyph-name="K" unicode="K" horiz-adv-x="802" 
d="M31 682l316 0.00195312v-38h-12c-34 -0.666992 -58 -9.66699 -72 -27s-21 -47 -21 -89v-375c0 -42.667 7 -72.667 21 -90s38 -26 72 -26l18 1v-38h-322v38h13c34 -0.666992 58 7.66602 72 24.999s21 47 21 89v377c0 41.333 -7 70.666 -21 87.999s-38 26 -72 26l-13 1v38
v0zM460 682.002l282.004 -0.00488281v-38c-10 -1.33301 -18.5 -2.66602 -25.5 -3.99902s-13.5 -2.66602 -19.5 -3.99902l-10.5 -4l-11.5 -4c-0.666992 0 -1.33398 -0.166992 -2.00098 -0.5s-1.33398 -0.833008 -2.00098 -1.5c-4.66699 -1.33301 -9 -3 -13 -5
s-8 -4.33301 -12 -7c-13.333 -7.33301 -28 -17.666 -44 -30.999s-39 -34 -69 -62l-13.5 -12l-12.5 -12c-4 -4 -8.16699 -7.66699 -12.5 -11s-8.5 -7 -12.5 -11l-45.5 -37.5l-52.5 -42.5l-19 -13c7.33301 -6.66699 13.833 -12.334 19.5 -17.001l16.5 -13
c0.666992 -0.666992 1.33398 -1.16699 2.00098 -1.5s1 -0.833008 1 -1.5l31 -26l42 -38l112 -101c30 -27.333 57 -50.5 81 -69.5s43.667 -33.167 59 -42.5l24.5 -12c8.33301 -4 17.166 -7.66699 26.499 -11c5.33301 -2 9.66602 -3.5 12.999 -4.5s6.33301 -1.83301 9 -2.5
c1.33301 -0.666992 2.83301 -1.16699 4.5 -1.5s3.16699 -0.5 4.5 -0.5s2.33301 -0.166992 3 -0.5s1.66699 -0.5 3 -0.5v-39h-175c-9.33301 6.66699 -17.5 12.834 -24.5 18.501s-13.5 11.167 -19.5 16.5c-1.33301 0.666992 -2.33301 1.33398 -3 2.00098
s-1.33398 1.66699 -2.00098 3c-5.33301 4 -10.833 8.5 -16.5 13.5s-11.834 10.833 -18.501 17.5l-100 96l-104 93l-91 79l-13 12l15 10l72.5 51.5l50.5 38.5c2 1.33301 4 2.83301 6 4.5s3.66699 3.16699 5 4.5c8 6 15.833 12.333 23.5 19l24.5 22l33 32.5
c10 10.333 19 20.833 27 31.5l6 10.5c2 3.66699 3.66699 7.16699 5 10.5c0.666992 3.33301 1.33398 6.5 2.00098 9.5s1 5.83301 1 8.5c0 12.667 -4.83301 22.334 -14.5 29.001s-23.5 10 -41.5 10l-5 1v38v0z" />
    <glyph glyph-name="L" unicode="L" horiz-adv-x="677" 
d="M22 682l331.001 0.00292969v-38h-20c-33.333 -0.666992 -57 -9.66699 -71 -27s-21 -47 -21 -89v-339c0 -33.333 1.83301 -58 5.5 -74s10.834 -29.667 21.501 -41c11.333 -12 25.166 -20.667 41.499 -26s37.166 -8 62.499 -8l72 1c36.667 -0.666992 66 2.16602 88 8.49902
s42.667 17.833 62 34.5c2 2.66699 4.33301 5.16699 7 7.5s5.33398 4.83301 8.00098 7.5c3.33301 3.33301 6.33301 6.66602 9 9.99902s5.33398 6.33301 8.00098 9c2 2 3.66699 4.16699 5 6.5s2.66602 4.5 3.99902 6.5c3.33301 4.66699 6.66602 9.83398 9.99902 15.501
l12 19.5l42 1l-42 -167h-635v37h21c34 -0.666992 57.833 7.66602 71.5 24.999s20.5 47 20.5 89v378c0 41.333 -7 70.666 -21 87.999s-37.667 26 -71 26l-21 1v38v0z" />
    <glyph glyph-name="M" unicode="M" horiz-adv-x="1010" 
d="M100 682l198.996 -0.000976562c1.33301 -15.333 3.16602 -29.5 5.49902 -42.5s5.16602 -25.833 8.49902 -38.5c2.66699 -10.667 5.83398 -21.667 9.50098 -33s7.83398 -23.333 12.501 -36c0 -0.666992 0.166992 -1.5 0.5 -2.5s0.833008 -1.83301 1.5 -2.5
c1.33301 -3.33301 2.5 -6.5 3.5 -9.5s2.16699 -6.16699 3.5 -9.5c6.66699 -17.333 14.667 -35.666 24 -54.999l38 -78l34.5 -69l25.5 -54c0.666992 -1.33301 1.16699 -2.66602 1.5 -3.99902s0.833008 -2.66602 1.5 -3.99902c2.66699 -6 5.5 -12 8.5 -18
s5.83301 -12.333 8.5 -19c4 -8.66699 7 -15.667 9 -21l6 -16c0.666992 -0.666992 1 -1.16699 1 -1.5s0.333008 -0.833008 1 -1.5c0.666992 -3.33301 1.66699 -6.83301 3 -10.5s3 -7.83398 5 -12.501l5 12l4 10c0 0.666992 0.166992 1.33398 0.5 2.00098
s0.833008 1.33398 1.5 2.00098c3.33301 7.33301 7 15 11 23l18 35c3.33301 6.66699 6.66602 13 9.99902 19l10 18c0.666992 2 1.5 4 2.5 6l3.5 7c8.66699 16 17.334 33 26.001 51l29 60l22 48l18 39c17.333 39.333 29.5 71.833 36.5 97.5s10.5 49.167 10.5 70.5v8.5v7.5
c-0.666992 2.66699 -1.16699 5.66699 -1.5 9s-1.16602 7.33301 -2.49902 12l203 1v-38h-4c-22 -0.666992 -40 -7.33398 -54 -20.001s-21 -29 -21 -49c0 -6.66699 0.5 -13.834 1.5 -21.501s1.83301 -16.167 2.5 -25.5l52 -375c5.33301 -41.333 16 -71 32 -89
s39.333 -27 70 -27l4 1v-38h-302v38h3c26.667 -0.666992 47.667 6.5 63 21.5s23 34.833 23 59.5c0 5.33301 -0.166992 10.666 -0.5 15.999s-1.16602 11 -2.49902 17l-48 377h-2c-2 -7.33301 -3.83301 -13.5 -5.5 -18.5s-3.16699 -9.83301 -4.5 -14.5l-2 -6l-2 -6l-6.5 -15
l-7.5 -18c-4.66699 -11.333 -11 -25.833 -19 -43.5l-29 -61.5l-33.5 -70.5c-9.66699 -19.667 -18.167 -36.167 -25.5 -49.5l-32 -62.5c-8 -15 -13 -24.5 -15 -28.5l-11 -26.5l-13 -32.5c-4 -9.33301 -7.16699 -17.333 -9.5 -24l-6.5 -19
c0 -1.33301 -0.166992 -2.5 -0.5 -3.5s-0.833008 -2.16699 -1.5 -3.5l-4 -12.5l-4 -13.5h-47c-0.666992 2 -1.16699 4.33301 -1.5 7s-0.833008 5.33398 -1.5 8.00098c-2 10 -5 20.833 -9 32.5s-10.667 28.167 -20 49.5l-21 49.5l-15 33.5
c-2 4.66699 -7.16699 15.5 -15.5 32.5s-20.166 39.833 -35.499 68.5c-2 3.33301 -3.83301 6.66602 -5.5 9.99902s-3.16699 6.66602 -4.5 9.99902c-24 46.667 -45.5 91.834 -64.5 135.501s-32.833 79.5 -41.5 107.5l-2 1l-54 -354
c-0.666992 -3.33301 -1.16699 -6.66602 -1.5 -9.99902s-0.833008 -6.33301 -1.5 -9c-0.666992 -6.66699 -1.16699 -13 -1.5 -19s-0.5 -11.667 -0.5 -17c0 -32.667 7.5 -57.334 22.5 -74.001s37.167 -25 66.5 -25l4 1v-38h-234v38h3
c27.333 -0.666992 47.833 7.16602 61.5 23.499s23.834 44.166 30.501 83.499l7 46l50 309c2 14 3.5 25.833 4.5 35.5s1.5 18.167 1.5 25.5c0 26.667 -6 46.334 -18 59.001s-31.667 20.334 -59 23.001v39v0z" />
    <glyph glyph-name="N" unicode="N" horiz-adv-x="844" 
d="M4 682l163.001 -0.000976562l511 -518l-8 327c-0.666992 26.667 -3 48.834 -7 66.501s-10 32.5 -18 44.5c-8.66699 13.333 -20.834 23.5 -36.501 30.5s-32.834 10.5 -51.501 10.5l-5 1v38h268v-38h-3c-32.667 -0.666992 -58.167 -13.834 -76.5 -39.501
s-27.5 -61.834 -27.5 -108.501v-5l6 -289c0 -5.33301 0.166992 -10.333 0.5 -15s0.5 -9 0.5 -13c0.666992 -16 1.33398 -29.167 2.00098 -39.5s1.66699 -20.166 3 -29.499c0 -4 0.5 -8.16699 1.5 -12.5s1.83301 -8.83301 2.5 -13.5l9 -45
c1.33301 -7.33301 2.33301 -13.166 3 -17.499s1 -8.16602 1 -11.499c0.666992 -2 1 -4 1 -6v-7h-65c-14 18.667 -27.833 36.167 -41.5 52.5s-26.834 30.833 -39.501 43.5l-414 426l8 -323c0.666992 -34 2.16699 -58.167 4.5 -72.5s6.83301 -26.5 13.5 -36.5
c0.666992 -0.666992 1.16699 -1.33398 1.5 -2.00098s0.833008 -1.33398 1.5 -2.00098c8.66699 -12.667 21.167 -22.667 37.5 -30s33.833 -11 52.5 -11l9 1v-38h-285v38h15c36 -0.666992 62.5 7.83301 79.5 25.5s25.5 44.834 25.5 81.501v46l-5 368l-46 44
c-2.66699 2 -5.16699 4.16699 -7.5 6.5s-4.83301 4.5 -7.5 6.5c-10 7.33301 -20.667 13 -32 17s-25.666 6.66699 -42.999 8l-1 41v0z" />
    <glyph glyph-name="O" unicode="O" horiz-adv-x="813" 
d="M52 328c0 106 33.333 193.332 100 261.999s151.667 103 255 103c101.333 0 185.333 -33.833 252 -101.5s100 -152.5 100 -254.5c0 -98.667 -35.167 -181.5 -105.5 -248.5s-157.833 -100.5 -262.5 -100.5c-96 0 -176.5 32.333 -241.5 97s-97.5 145.334 -97.5 242.001v1z
M172 357.999c5.33301 -99.333 30.6709 -179.166 76.0039 -239.499s102.666 -90.5 171.999 -90.5c66 0 119 25 159 75s60 115.333 60 196c0 47.333 -6.33301 93.5 -19 138.5s-30.334 84.5 -53.001 118.5c-20 30 -46 53.5 -78 70.5s-66 25.5 -102 25.5
c-28.667 0 -55.834 -5.66699 -81.501 -17s-48.5 -28.333 -68.5 -51c-22.667 -24.667 -39.334 -53.334 -50.001 -86.001s-16 -71.667 -16 -117v-12c0 -4 0.333008 -8 1 -12v1z" />
    <glyph glyph-name="P" unicode="P" horiz-adv-x="635" 
d="M241 641l-0.00390625 -488c0 -42.667 7 -72.667 21 -90s37.667 -26 71 -26l22 1v-38h-322v38h10c33.333 -0.666992 57 7.66602 71 24.999s21 47 21 89v378c0 42 -6.83301 71.667 -20.5 89s-37.5 26 -71.5 26l-10 1v36h327c32 -0.666992 57.333 -2 76 -4
s36 -6.33301 52 -13c4.66699 -1.33301 9.33398 -3.16602 14.001 -5.49902l15 -7.5c29.333 -15.333 52 -36 68 -62s24 -55.667 24 -89c0 -58.667 -22.667 -105.667 -68 -141s-105.666 -53 -180.999 -53c-22.667 0 -40 2.5 -52 7.5s-18 12.167 -18 21.5
c0 7.33301 2.5 12.666 7.5 15.999s11.833 5 20.5 5l22 1c1.33301 -1.33301 2.83301 -2 4.5 -2h4.5c40 0 73 13 99 39s39 58.333 39 97v3.5v2.5c-1.33301 22 -6.66602 42.833 -15.999 62.5s-22 35.834 -38 48.501c-13.333 10.667 -29.666 18.5 -48.999 23.5
s-42.333 7.5 -69 7.5l-74 1v0z" />
    <glyph glyph-name="Q" unicode="Q" horiz-adv-x="813" 
d="M441 -78l-131 77.0049l-10.5 2c-3.66699 0.666992 -6.83398 1.66699 -9.50098 3c-18.667 5.33301 -34.667 11.166 -48 17.499s-26.333 13.833 -39 22.5c-8 6 -16.167 12.833 -24.5 20.5l-27.5 26.5c-32.667 33.333 -56.667 69 -72 107s-23 82 -23 132
c0 105.333 33.5 192.166 100.5 260.499s151.833 102.5 254.5 102.5c100.667 0 184.5 -33.833 251.5 -101.5s100.5 -152.167 100.5 -253.5c0 -84.667 -25 -157.334 -75 -218.001s-118.333 -101 -205 -121v-2l51 -22c20.667 -8.66699 43.167 -17.334 67.5 -26.001
s48.833 -16.667 73.5 -24c22.667 -6 44.834 -11.5 66.501 -16.5s42.167 -9.16699 61.5 -12.5v-87l-35 4c-12 1.33301 -24.333 3 -37 5l-57 10c-18.667 3.33301 -35.667 7 -51 11l-20 5.5l-16 4.5c-19.333 6.66699 -40.5 15.667 -63.5 27s-50.5 26.666 -82.5 45.999v0z
M175 392.005c0 -107.333 23.167 -194.669 69.5 -262.002s106.166 -101 179.499 -101c66.667 0 119.834 24.833 159.501 74.5s59.5 115.834 59.5 198.501c0 100.667 -23.833 184.334 -71.5 251.001s-107.5 100 -179.5 100c-63.333 0 -115.333 -24.667 -156 -74
s-61 -112 -61 -188v1z" />
    <glyph glyph-name="R" unicode="R" horiz-adv-x="719" 
d="M243 322l0.000976562 -168.999c0 -42.667 7 -72.667 21 -90s38 -26 72 -26l13 1v-38h-312v38h8c34 -0.666992 58 7.66602 72 24.999s21 47 21 89v377c0 41.333 -7 70.666 -21 87.999s-38 26 -72 26l-8 1v38h294c47.333 -0.666992 84.666 -2.83398 111.999 -6.50098
s52.333 -10.167 75 -19.5c31.333 -12.667 56.166 -32.5 74.499 -59.5s27.5 -56.5 27.5 -88.5c0 -30.667 -8.5 -59.167 -25.5 -85.5s-40.167 -46.5 -69.5 -60.5c-5.33301 -2.66699 -10.333 -5 -15 -7s-9.33398 -3.66699 -14.001 -5c-3.33301 -2 -7 -3.5 -11 -4.5
s-8 -2.16699 -12 -3.5c-5.33301 -1.33301 -11.333 -2.66602 -18 -3.99902s-14.334 -3 -23.001 -5c2 -1.33301 3.5 -2.5 4.5 -3.5l3.5 -3.5l0.5 -0.5l0.5 -0.5c1.33301 -0.666992 2.66602 -1.83398 3.99902 -3.50098s3 -3.5 5 -5.5c4 -5.33301 10.167 -12.833 18.5 -22.5
l30.5 -34.5l89 -101c4 -4.66699 10.333 -11.667 19 -21l34 -35c8 -8 15.5 -15.167 22.5 -21.5s13.167 -12.166 18.5 -17.499c4.66699 -3.33301 9.5 -6.5 14.5 -9.5l16.5 -9.5c2.66699 -1.33301 4.83398 -2.33301 6.50098 -3s3.5 -1.33398 5.5 -2.00098
c2.66699 -0.666992 5.16699 -1.16699 7.5 -1.5s5.5 -0.5 9.5 -0.5v-37h-80c-22.667 0 -42.667 2.66699 -60 8s-32.666 14.333 -45.999 27c-9.33301 8.66699 -20.166 19.834 -32.499 33.501s-26.5 30.5 -42.5 50.5l-87 111c-19.333 23.333 -35.166 41.833 -47.499 55.5
s-21.833 22.834 -28.5 27.501c-3.33301 2.66699 -9 4.66699 -17 6s-17.667 2 -29 2l-29 1v0zM243.001 365.001l54.002 -0.000976562c31.333 -0.666992 54.5 -0.5 69.5 0.5s28.5 3.16699 40.5 6.5l10.5 4l11.5 4c22 9.33301 38.833 23.833 50.5 43.5s17.5 42.834 17.5 69.501
c0 28 -6.5 53 -19.5 75s-31.167 38.667 -54.5 50c-5.33301 2.66699 -10.333 5 -15 7s-9.33398 3.66699 -14.001 5c-12 4 -24.833 6.5 -38.5 7.5s-32.834 1.5 -57.501 1.5l-55 1v-275v0z" />
    <glyph glyph-name="S" unicode="S" horiz-adv-x="594" 
d="M56 36l-4.99902 172h48c8 -55.333 28 -97.833 60 -127.5s73 -44.5 123 -44.5c41.333 0 76.333 10.833 105 32.5s43 47.834 43 78.501c0 18.667 -6 36.834 -18 54.501s-30 34.167 -54 49.5c-12 8.66699 -25.5 17.5 -40.5 26.5l-49.5 29.5
c-39.333 23.333 -70.833 43.166 -94.5 59.499s-42.5 31.833 -56.5 46.5c-5.33301 5.33301 -10.166 10.833 -14.499 16.5s-8.5 11.5 -12.5 17.5c-6.66699 10.667 -11.667 22.334 -15 35.001s-5 25.667 -5 39c0 51.333 21.333 92.833 64 124.5s98.667 47.5 168 47.5
c10 0 19.5 -0.333008 28.5 -1s18.167 -1.66699 27.5 -3c14 -2 28.333 -5 43 -9s31 -9.33301 49 -16c6.66699 -2.66699 12.334 -4.83398 17.001 -6.50098s8.66699 -3.5 12 -5.5c1.33301 -0.666992 2.66602 -1.16699 3.99902 -1.5s2.66602 -0.833008 3.99902 -1.5l11.5 -6
l12.5 -7v-146h-44c-4 49.333 -21.5 88.666 -52.5 117.999s-71.167 44 -120.5 44c-34.667 0 -64.167 -9.16699 -88.5 -27.5s-36.5 -40.5 -36.5 -66.5c0 -18.667 6.16699 -36.5 18.5 -53.5s31.166 -33.5 56.499 -49.5l45 -27l56 -32c33.333 -18.667 60.833 -35.667 82.5 -51
s39.834 -30.333 54.501 -45c8.66699 -8.66699 16.167 -17.334 22.5 -26.001s11.833 -17.667 16.5 -27c5.33301 -10.667 9.33301 -21.834 12 -33.501s4 -24.167 4 -37.5c0 -55.333 -23.5 -100.666 -70.5 -135.999s-107.167 -53 -180.5 -53c-14 0 -29 0.833008 -45 2.5
s-32 3.83398 -48 6.50098c-26.667 4 -52.334 9.5 -77.001 16.5s-44.667 14.5 -60 22.5v1z" />
    <glyph glyph-name="T" unicode="T" horiz-adv-x="760" 
d="M22 682h710.001l15 -162h-36c-10.667 24.667 -22.5 45.334 -35.5 62.001s-27.5 29.667 -43.5 39c-2 1.33301 -4 2.5 -6 3.5s-4 1.83301 -6 2.5c-10.667 5.33301 -22.167 8.83301 -34.5 10.5s-28.5 2.5 -48.5 2.5l-106 1v-488c0 -42.667 7 -72.667 21 -90s38 -26 72 -26
l13 1v-38h-320v38h16c34 -0.666992 58 7.66602 72 24.999s21 47 21 89v489h-109c-30 -0.666992 -53.333 -3.5 -70 -8.5s-31.667 -15.167 -45 -30.5c-2 -2 -4 -4.16699 -6 -6.5s-4 -4.83301 -6 -7.5c-4 -4.66699 -7.33301 -9 -10 -13s-5.33398 -7.66699 -8.00098 -11
c-0.666992 -1.33301 -1.33398 -2.5 -2.00098 -3.5s-1.66699 -2.16699 -3 -3.5l-9 -16c-3.33301 -6 -7.66602 -13.333 -12.999 -22l-34 1l11 162v0z" />
    <glyph glyph-name="U" unicode="U" horiz-adv-x="833" 
d="M21 682l328 -0.000976562v-38h-11c-39.333 -0.666992 -66.166 -9.16699 -80.499 -25.5s-21.5 -46.5 -21.5 -90.5v-268c0 -44.667 3.83301 -78.667 11.5 -102s21.834 -43.666 42.501 -60.999c19.333 -16.667 42 -29.167 68 -37.5s54.667 -12.5 86 -12.5
c39.333 0 73.5 5.83301 102.5 17.5s54.167 29.834 75.5 54.501c9.33301 11.333 17.166 22.833 23.499 34.5s11.166 23.5 14.499 35.5c2 8 3.83301 18 5.5 30s2.83398 24.333 3.50098 37c0.666992 6.66699 1.16699 13.334 1.5 20.001s0.5 13 0.5 19v5l-3 191v45
c-0.666992 35.333 -10 62 -28 80s-45 27 -81 27l-9 1v38h269v-38h-3c-33.333 -0.666992 -58.666 -10.167 -75.999 -28.5s-26 -45.166 -26 -80.499v-44v-195c0 -28 -0.666992 -50.5 -2 -67.5s-3.33301 -33.167 -6 -48.5c-0.666992 -2.66699 -1.33398 -5.5 -2.00098 -8.5
s-1.33398 -5.83301 -2.00098 -8.5c-4 -17.333 -10.167 -33.833 -18.5 -49.5s-18.166 -29.834 -29.499 -42.501c-26.667 -28.667 -58.5 -49.667 -95.5 -63s-82.167 -20 -135.5 -20c-73.333 0 -135 13.5 -185 40.5s-82.333 64.167 -97 111.5
c-0.666992 3.33301 -1.5 6.66602 -2.5 9.99902s-1.83301 6.33301 -2.5 9c-2.66699 11.333 -4.33398 24 -5.00098 38s-1 35 -1 63v269c0 41.333 -7 70.666 -21 87.999s-37.667 26 -71 26l-17 1v38v0z" />
    <glyph glyph-name="V" unicode="V" horiz-adv-x="708" 
d="M1 682l272.998 -0.000976562v-38c-2.66699 -0.666992 -5.16699 -1 -7.5 -1s-4.16602 -0.333008 -5.49902 -1c-23.333 -1.33301 -40.5 -5.83301 -51.5 -13.5s-16.5 -18.167 -16.5 -31.5c0 -7.33301 2.33301 -17.833 7 -31.5s12.334 -31.167 23.001 -52.5l126 -264
c3.33301 -7.33301 7.83301 -17.833 13.5 -31.5l21.5 -52.5c1.33301 -2.66699 2.83301 -6.33398 4.5 -11.001l5.5 -16l2 1l2 6l2 6c0 1.33301 0.333008 2.83301 1 4.5s1.33398 2.83398 2.00098 3.50098c2 5.33301 6.16699 15.833 12.5 31.5l25.5 61.5l72 172
c15.333 35.333 26.666 65 33.999 89s11 42.667 11 56c0 22 -7.16699 39.167 -21.5 51.5s-36.166 19.833 -65.499 22.5v39h235v-38l-6 -2c-20.667 -7.33301 -37.334 -16.666 -50.001 -27.999s-22.667 -26.666 -30 -45.999l-20 -51l-21 -50l-24 -61l-116 -270l-11 -28.5
l-10 -27.5c-4.66699 -14.667 -9 -29.667 -13 -45s-7.66699 -31 -11 -47h-54c-4 18 -9.33301 36.5 -16 55.5s-15.334 39.5 -26.001 61.5l-208 451c-8 17.333 -15.167 31.5 -21.5 42.5s-12.166 19.833 -17.499 26.5c-6.66699 7.33301 -13.5 12.166 -20.5 14.499
s-15.5 3.5 -25.5 3.5l-4 1v38v0z" />
    <glyph glyph-name="W" unicode="W" horiz-adv-x="1000" 
d="M0 682l237.003 -0.00488281v-38c-16.667 -3.33301 -29.667 -10 -39 -20s-14 -22.667 -14 -38v-2.5v-3.5c0.666992 -7.33301 2.33398 -15.166 5.00098 -23.499s7.33398 -19.166 14.001 -32.499l91 -195l15 -35.5l22 -51.5l19 -43c5.33301 -12 9.33301 -21.667 12 -29
l18 -45l4 -11l98 193l-113 246c-6 12.667 -11.667 23.834 -17 33.501s-10.666 18.167 -15.999 25.5c-8.66699 10.667 -17.167 18.334 -25.5 23.001s-17.5 7.33398 -27.5 8.00098v39h233v-38c-14.667 -4 -26 -10.667 -34 -20s-12 -20.333 -12 -33c0 -6 1 -12.833 3 -20.5
s5 -15.5 9 -23.5l61 -122l59 114c2.66699 4 4.66699 8.5 6 13.5l4 15.5c0 2.66699 0.166992 5.16699 0.5 7.5s0.5 4.83301 0.5 7.5c0 17.333 -3.83301 30.666 -11.5 39.999s-19.834 16 -36.501 20v39h182v-38c-9.33301 -3.33301 -17.5 -6.66602 -24.5 -9.99902
s-13.833 -8.66602 -20.5 -15.999s-13.834 -17 -21.501 -29s-16.834 -28 -27.501 -48l-88 -165l87 -176c3.33301 -8.66699 6.33301 -15.667 9 -21s5 -10.666 7 -15.999l1.5 -3c0.333008 -0.666992 0.833008 -1.33398 1.5 -2.00098c1.33301 -4.66699 3 -9.16699 5 -13.5
s4 -9.5 6 -15.5l153 355c8 18 13.833 33.833 17.5 47.5s5.5 25.834 5.5 36.501c0 22.667 -5.33301 40.167 -16 52.5s-26.667 19.833 -48 22.5v39h204v-38c-16.667 -2.66699 -31.834 -10.834 -45.501 -24.501s-26.167 -32.834 -37.5 -57.501l-19 -43l-189 -435
c-1.33301 -3.33301 -2.5 -6.5 -3.5 -9.5s-2.16699 -5.83301 -3.5 -8.5c-6 -14.667 -11.167 -28.834 -15.5 -42.501s-7.5 -25.5 -9.5 -35.5h-46c-0.666992 3.33301 -1.33398 6.16602 -2.00098 8.49902s-1.33398 4.83301 -2.00098 7.5c-1.33301 3.33301 -2.33301 6.33301 -3 9
s-1.66699 5.33398 -3 8.00098c-1.33301 4 -2.83301 7.83301 -4.5 11.5l-5.5 12.5l-105 215l-75 -146c-14.667 -28.667 -26.334 -53.667 -35.001 -75s-14.667 -38.333 -18 -51h-53c-1.33301 8.66699 -5.5 22.834 -12.5 42.501s-15.5 40.5 -25.5 62.5
c0 0.666992 -0.166992 1.5 -0.5 2.5s-0.833008 1.83301 -1.5 2.5l-198 443l-21 48c-6.66699 15.333 -15.167 27.5 -25.5 36.5s-23.166 14.833 -38.499 17.5v39v0z" />
    <glyph glyph-name="X" unicode="X" horiz-adv-x="781" 
d="M436 376l206.993 -246.999c18.667 -22.667 34.834 -40.5 48.501 -53.5s27.167 -22.5 40.5 -28.5c7.33301 -4 14.833 -6.83301 22.5 -8.5s15.834 -2.5 24.501 -2.5v-36h-327v37c26.667 0.666992 46.167 4.5 58.5 11.5s18.5 17.167 18.5 30.5c0 4 -0.5 8 -1.5 12
s-2.16699 8 -3.5 12c-2 4 -4.16699 8 -6.5 12s-5.16602 8 -8.49902 12l-141 171l-111 -127c-14 -16.667 -24.167 -30.667 -30.5 -42s-9.83301 -22.333 -10.5 -33v-2v-2c0 -17.333 6.66699 -31 20 -41s32.333 -15 57 -15v-36h-276v37c3.33301 0 6.33301 0.166992 9 0.5
s5 0.833008 7 1.5c6.66699 0.666992 12.667 1.66699 18 3s10.333 3 15 5l8 4c2.66699 1.33301 5.66699 3 9 5c2 1.33301 4.16699 2.66602 6.5 3.99902s4.5 2.66602 6.5 3.99902c10 6.66699 20.667 15.667 32 27s26.666 27.666 45.999 48.999l167 190l-192 230
c-13.333 15.333 -25 28 -35 38s-20 18.333 -30 25c-10.667 6.66699 -21.667 11.334 -33 14.001s-24.666 4.33398 -39.999 5.00098v40h323v-39c-27.333 -3.33301 -46.333 -8 -57 -14s-16 -15.333 -16 -28v-3.5c0 -1 0.333008 -1.83301 1 -2.5
c0.666992 -5.33301 2.5 -10.833 5.5 -16.5s7.5 -12.167 13.5 -19.5l127 -150l103 123c9.33301 10.667 16.333 20.834 21 30.501s7 18.5 7 26.5c0 16 -5.66699 28.333 -17 37s-28.666 14 -51.999 16v40h258v-39c-6.66699 -2 -12.167 -3.33301 -16.5 -4
s-8.16602 -1.33398 -11.499 -2.00098l-6 -2l-6 -2c-1.33301 -0.666992 -2.5 -1.16699 -3.5 -1.5s-2.16699 -0.833008 -3.5 -1.5c-15.333 -6.66699 -33.166 -19 -53.499 -37s-42.166 -40.667 -65.499 -68l-126 -149v0z" />
    <glyph glyph-name="Y" unicode="Y" horiz-adv-x="719" 
d="M412 286l-0.000976562 -132.999c0 -42.667 7 -72.667 21 -90s37.667 -26 71 -26l8 1v-38h-308v38h10c33.333 -0.666992 57 7.66602 71 24.999s21 47 21 89v134l-196 287l-21 28c-6 8 -11.667 14.333 -17 19c-8.66699 7.33301 -17.834 12.5 -27.501 15.5
s-22.167 5.5 -37.5 7.5v39h299v-38c-30 -2.66699 -50.333 -6.83398 -61 -12.501s-16 -16.167 -16 -31.5c0 -6.66699 1.33301 -13.334 4 -20.001s6.33398 -13.667 11.001 -21l152 -220l111 163c10.667 14.667 18.334 27.334 23.001 38.001s7.66699 20.667 9 30v4v4
c0 20.667 -5.66699 36 -17 46s-31 16.333 -59 19v39h247v-38c-8 -1.33301 -15.333 -3.16602 -22 -5.49902s-13 -5.5 -19 -9.5c-10.667 -6 -21.667 -15.5 -33 -28.5s-25 -31.167 -41 -54.5l-183 -260v0z" />
    <glyph glyph-name="Z" unicode="Z" horiz-adv-x="677" 
d="M644 177l-45.001 -177.004h-575v29l456 612h-203c-33.333 -0.666992 -59 -4.16699 -77 -10.5s-34.667 -18.5 -50 -36.5c-1.33301 -1.33301 -2.5 -2.66602 -3.5 -3.99902s-2.16699 -2.66602 -3.5 -3.99902c-2.66699 -4 -5.16699 -7.5 -7.5 -10.5s-4.5 -6.16699 -6.5 -9.5
c-0.666992 -2 -1.66699 -4 -3 -6l-4 -6c-1.33301 -4 -3 -8.16699 -5 -12.5l-7 -15.5l-36 1v155h546v-27l-460 -614h199c30 -0.666992 53.833 0 71.5 2s34.167 6.33301 49.5 13c2 0.666992 3.83301 1.33398 5.5 2.00098s3.16699 1.33398 4.5 2.00098
c9.33301 4.66699 18.333 10 27 16s17.334 13 26.001 21c6 6 12 12.5 18 19.5s12.333 14.833 19 23.5l26 37h38v0z" />
    <glyph glyph-name="bracketleft" unicode="[" horiz-adv-x="375" 
d="M359 -144v-38.999h-208c-4 10.667 -6.83301 22.167 -8.5 34.5s-2.5 28.166 -2.5 47.499v713c0 18.667 0.833008 34.167 2.5 46.5s4.5 23.833 8.5 34.5l208 1v-39h-43c-37.333 -0.666992 -62 -6 -74 -16s-18 -30.667 -18 -62v-643c0 -32 6 -53 18 -63s36.667 -15 74 -15
h43v0z" />
    <glyph glyph-name="backslash" unicode="\" 
d="M54 695l239 -709h-68l-240 709h69v0z" />
    <glyph glyph-name="bracketright" unicode="]" horiz-adv-x="375" 
d="M16 -144l43 -0.00292969c38 0 62.833 5 74.5 15s17.5 31 17.5 63v644c0 30.667 -5.83301 51 -17.5 61s-36.5 15 -74.5 15l-43 1v39h208c4 -11.333 6.83301 -23.166 8.5 -35.499s2.5 -28.166 2.5 -47.499v-712c0 -19.333 -0.833008 -35.166 -2.5 -47.499
s-4.5 -23.833 -8.5 -34.5h-208v39v0z" />
    <glyph glyph-name="asciicircum" unicode="^" horiz-adv-x="469" 
d="M243 676l208 -350h-45l-171 286l-171 -286h-46l211 350h14v0z" />
    <glyph glyph-name="underscore" unicode="_" horiz-adv-x="500" 
d="M508 -263h-516v41h516v-41v0z" />
    <glyph glyph-name="grave" unicode="`" horiz-adv-x="333" 
d="M58 680h109l51 -169h-17l-143 169v0z" />
    <glyph glyph-name="a" unicode="a" horiz-adv-x="479" 
d="M305 271l0.00195312 45.9941c0 35.333 -7.16699 61 -21.5 77s-37.833 24 -70.5 24c-13.333 0 -26.166 -2.33301 -38.499 -7s-22.5 -11.667 -30.5 -21c-2.66699 -2.66699 -4.66699 -5.66699 -6 -9s-2 -6.66602 -2 -9.99902v-2v-2c0.666992 -2.66699 1.66699 -5.5 3 -8.5
s3.33301 -7.16699 6 -12.5c5.33301 -8.66699 9 -15.334 11 -20.001s3 -8.66699 3 -12c0 -2.66699 -0.666992 -5 -2 -7s-3.33301 -3.66699 -6 -5l-51 -23c-2 -1.33301 -3.66699 -2.16602 -5 -2.49902s-2.33301 -0.5 -3 -0.5h-1.5h-0.5
c-3.33301 1.33301 -6.83301 4.83301 -10.5 10.5s-8.5 15.834 -14.5 30.501c-0.666992 2 -1.5 4.16699 -2.5 6.5s-1.5 4.5 -1.5 6.5c-0.666992 2 -1.16699 4.16699 -1.5 6.5s-0.5 4.5 -0.5 6.5c0 32.667 18 60.334 54 83.001s79.333 34 130 34c36.667 0 67 -5.16699 91 -15.5
s39.667 -25.166 47 -44.499c0.666992 -1.33301 1.16699 -2.66602 1.5 -3.99902s0.5 -2.66602 0.5 -3.99902c2.66699 -8 4.33398 -17 5.00098 -27s1 -26 1 -48v-184c0 -32 1.5 -52.167 4.5 -60.5s9.83301 -12.5 20.5 -12.5c4.66699 0 9.5 1 14.5 3s10.5 4.66699 16.5 8l9 -34
c-10.667 -12.667 -20.834 -22.5 -30.501 -29.5s-19.167 -11.833 -28.5 -14.5c-4 -1.33301 -7.83301 -2.33301 -11.5 -3s-7.5 -1 -11.5 -1c-18.667 0 -33.834 6.16699 -45.501 18.5s-18.834 29.833 -21.501 52.5c-20.667 -18.667 -39.5 -33.334 -56.5 -44.001
s-33.5 -18 -49.5 -22c-6.66699 -1.33301 -13.334 -2.5 -20.001 -3.5s-13.667 -1.5 -21 -1.5c-32.667 0 -59.667 10.167 -81 30.5s-32 45.833 -32 76.5c0 16.667 3.66699 32.167 11 46.5s18 26.833 32 37.5c0.666992 0 1.16699 0.166992 1.5 0.5l1.5 1.5
c6.66699 5.33301 14 10.333 22 15s16.667 9.33398 26 14.001c8 3.33301 16.833 6.83301 26.5 10.5s20.5 7.5 32.5 11.5l107 38v0zM305.002 232.994l-52.999 -19.999c-22 -9.33301 -40.5 -17.5 -55.5 -24.5s-27.167 -13.5 -36.5 -19.5c-10 -7.33301 -17 -15 -21 -23
s-6 -17 -6 -27c0 -18.667 6.66699 -34 20 -46s30.333 -18 51 -18c14.667 0 28.667 2.66699 42 8s26.333 13.666 39 24.999c3.33301 2.66699 6.66602 5.66699 9.99902 9l10 10v126v0z" />
    <glyph glyph-name="b" unicode="b" horiz-adv-x="561" 
d="M162 695l0.000976562 -314.001c12 11.333 23.667 21.5 35 30.5s22.666 16.5 33.999 22.5c15.333 9.33301 31 16 47 20s32.667 6 50 6c55.333 0 101 -21.5 137 -64.5s54 -97.5 54 -163.5c0 -71.333 -23.5 -129.666 -70.5 -174.999s-107.5 -68 -181.5 -68
c-28 0 -56.833 3.83301 -86.5 11.5s-63.5 20.167 -101.5 37.5v545l-71 42v15l143 55h11v0zM162.001 334.999v-127.002c0 -36 0.833008 -61.5 2.5 -76.5s6.16699 -28.167 13.5 -39.5c1.33301 -2 3 -4.33301 5 -7l6 -8c12.667 -16 27.667 -28 45 -36s37.666 -12 60.999 -12
c41.333 0 75 15.5 101 46.5s39 71.167 39 120.5c0 52.667 -14.833 97.834 -44.5 135.501s-65.5 56.5 -107.5 56.5c-22.667 0 -44.667 -4.66699 -66 -14s-39.666 -22.666 -54.999 -39.999v1z" />
    <glyph glyph-name="c" unicode="c" horiz-adv-x="469" 
d="M417 132l23.9961 -14.999c-10.667 -40 -32.5 -71.333 -65.5 -94s-72.5 -34 -118.5 -34c-62.667 0 -113.667 21.5 -153 64.5s-59 98.5 -59 166.5c0 71.333 21.833 129.166 65.5 173.499s100.167 66.5 169.5 66.5c49.333 0 88 -7.83301 116 -23.5s42 -37.834 42 -66.501
c0 -14.667 -3.33301 -26.334 -10 -35.001s-16 -13 -28 -13c-7.33301 0 -13.666 1.5 -18.999 4.5s-10.666 8.5 -15.999 16.5c-2 2.66699 -4 5.83398 -6 9.50098s-4 7.83398 -6 12.501c-9.33301 20 -20.666 34 -33.999 42s-31.666 12 -54.999 12c-42 0 -75.667 -15 -101 -45
s-38 -69.667 -38 -119c0 -52.667 16 -97.167 48 -133.5s71.333 -54.5 118 -54.5c28.667 0 53.5 5.33301 74.5 16s38.167 26.667 51.5 48v1z" />
    <glyph glyph-name="d" unicode="d" horiz-adv-x="573" 
d="M479 695v-567.002c0 -31.333 2.5 -52 7.5 -62s15.5 -15 31.5 -15c3.33301 0 7 0.333008 11 1l12 2c1.33301 0 2.83301 0.166992 4.5 0.5s3.83398 0.833008 6.50098 1.5v-39l-157 -28v75c-17.333 -17.333 -35.833 -31.666 -55.5 -42.999s-39.5 -19.666 -59.5 -24.999
c-8.66699 -2 -17.334 -3.66699 -26.001 -5s-17.334 -2 -26.001 -2c-52.667 0 -97 20.5 -133 61.5s-54 91.833 -54 152.5c0 70 23.833 130.333 71.5 181s104.834 76 171.501 76c15.333 0 32 -1.5 50 -4.5s38.333 -7.83301 61 -14.5v152l-73 43v16l137 43h20v0zM395 112.998
l-0.00195312 133c0 13.333 -0.5 25.666 -1.5 36.999s-2.83301 22.333 -5.5 33c-7.33301 30 -22.666 54.5 -45.999 73.5s-49.666 28.5 -78.999 28.5c-38 0 -70.5 -16 -97.5 -48s-40.5 -70.667 -40.5 -116c0 -56.667 14.667 -104 44 -142s65.333 -57 108 -57
c23.333 0 45.333 4.83301 66 14.5s38 23.834 52 42.501v1z" />
    <glyph glyph-name="e" unicode="e" horiz-adv-x="469" 
d="M437 277l-317.999 -0.00292969c0 -31.333 2.66699 -57.166 8 -77.499s14 -39.5 26 -57.5c0.666992 -1.33301 1.5 -2.66602 2.5 -3.99902s1.83301 -2.66602 2.5 -3.99902c16.667 -22.667 36.167 -39.667 58.5 -51s47.166 -17 74.499 -17c23.333 0 45.333 4.16699 66 12.5
s40.667 20.833 60 37.5l20 -18c-21.333 -35.333 -48 -62.333 -80 -81s-67.333 -28 -106 -28c-60.667 0 -110.5 21.667 -149.5 65s-58.5 98.333 -58.5 165c0 68.667 20.167 126 60.5 172s89.833 69 148.5 69c51.333 0 94.5 -17.333 129.5 -52s53.5 -78.667 55.5 -132v1z
M124.001 312.997h207.998c-4 34.667 -14.5 61.667 -31.5 81s-39.167 29 -66.5 29c-29.333 0 -53.666 -10 -72.999 -30s-31.666 -47 -36.999 -81v1z" />
    <glyph glyph-name="f" unicode="f" horiz-adv-x="311" 
d="M189 406v-274.002c0 -38.667 6.16699 -64.5 18.5 -77.5s36.5 -19.5 72.5 -19.5l13 1v-36h-269v36h14c24 -0.666992 41.333 6.5 52 21.5s16 39.5 16 73.5v275h-82v44h23c23.333 -0.666992 38.166 1.33301 44.499 6s9.83301 15.667 10.5 33c2 32.667 7 60.834 15 84.501
s19 43.834 33 60.501c17.333 20.667 39 36.667 65 48s53.333 17 82 17c32.667 0 59.5 -7.16699 80.5 -21.5s31.5 -32.166 31.5 -53.499c0 -12.667 -4 -22.834 -12 -30.501s-18.667 -11.5 -32 -11.5c-5.33301 0 -10 0.5 -14 1.5s-8 3.16699 -12 6.5
c-3.33301 2 -6.5 4.66699 -9.5 8s-6.5 7.66602 -10.5 12.999c-9.33301 12 -17.166 21.167 -23.499 27.5s-12.5 10.833 -18.5 13.5c-2.66699 1.33301 -5.5 2.33301 -8.5 3s-6.16699 1 -9.5 1c-22 0 -39.167 -9.16699 -51.5 -27.5s-18.5 -44.166 -18.5 -77.499v-101h120v-44
h-120v0z" />
    <glyph glyph-name="g" unicode="g" horiz-adv-x="500" 
d="M498 434l-4.00098 -68c-6.66699 -1.33301 -12 -2.16602 -16 -2.49902s-7.66699 -0.5 -11 -0.5h-3.5h-3.5h-9.5c-3 0 -6.16699 0.333008 -9.5 1c-6 0 -12.167 0.666992 -18.5 2s-13.833 3 -22.5 5c3.33301 -8 6 -15.333 8 -22s3.66699 -13.334 5 -20.001
c0.666992 -4.66699 1.16699 -9.33398 1.5 -14.001s0.5 -9.33398 0.5 -14.001c0 -45.333 -17.667 -83.666 -53 -114.999s-79.333 -47 -132 -47h-4.5h-4.5c-6.66699 0.666992 -13.834 1.66699 -21.501 3s-18.167 3.33301 -31.5 6
c-1.33301 -0.666992 -2.66602 -1.5 -3.99902 -2.5s-2.33301 -1.83301 -3 -2.5c-6.66699 -6 -12 -11 -16 -15s-6.66699 -8 -8 -12c0 -0.666992 -0.166992 -1.5 -0.5 -2.5s-0.5 -2.16699 -0.5 -3.5c0 -12.667 7.83301 -21.167 23.5 -25.5s46.167 -6.5 91.5 -6.5l8 1h18
c26.667 -0.666992 46.667 -1.33398 60 -2.00098s25.333 -2 36 -4c4 -0.666992 8 -1.5 12 -2.5s8.33301 -2.16699 13 -3.5c26.667 -7.33301 47.334 -19.166 62.001 -35.499s22 -35.5 22 -57.5c0 -48 -24.833 -87.667 -74.5 -119s-112.5 -47 -188.5 -47
c-54.667 0 -100.667 8.83301 -138 26.5s-56 39.5 -56 65.5c0 14.667 6.5 30 19.5 46s34.833 35.333 65.5 58c-19.333 8.66699 -33.666 17.667 -42.999 27s-14 19.333 -14 30c0 11.333 6.83301 25.5 20.5 42.5s34.5 36.833 62.5 59.5c-27.333 16 -47.833 35.167 -61.5 57.5
s-20.5 47.833 -20.5 76.5c0 46 16.833 84.667 50.5 116s75.5 47 125.5 47c9.33301 0 20 -0.666992 32 -2s25.333 -3.66602 40 -6.99902l66 -13.5c15.333 -3 29.666 -5.16699 42.999 -6.5c6 -0.666992 12.5 -1 19.5 -1h23.5h11c3.33301 0 6.66602 0.333008 9.99902 1
c3.33301 0 6.83301 0.166992 10.5 0.5s7.83398 0.833008 12.501 1.5v1zM143.999 -3l-8.99902 -9.99805c-10.667 -11.333 -18.667 -20.5 -24 -27.5s-8.66602 -13.833 -9.99902 -20.5c-0.666992 -2 -1.16699 -4 -1.5 -6s-0.5 -4 -0.5 -6c0 -19.333 13 -35.5 39 -48.5
s59.333 -19.5 100 -19.5c7.33301 0 14.666 0.166992 21.999 0.5s14.666 1.16602 21.999 2.49902c17.333 2 34.333 5 51 9s31 8.66699 43 14s21.667 12.666 29 21.999s11 19.333 11 30c0 18.667 -9.5 32.167 -28.5 40.5s-50.5 12.5 -94.5 12.5l-50 -1
c-15.333 0 -31.333 0.666992 -48 2s-33.667 3.33301 -51 6v0zM142 315.002v-10.001c0 -36.667 9.33301 -67 28 -91s42 -36 70 -36s49.667 9.66699 65 29s23 46.333 23 81c0 37.333 -9.5 68.5 -28.5 93.5s-42.5 37.5 -70.5 37.5c-24 0 -44 -9.66699 -60 -29
s-25 -44.666 -27 -75.999v1z" />
    <glyph glyph-name="h" unicode="h" horiz-adv-x="561" 
d="M170 695l-0.000976562 -309.002l25 20.5c6 5 11.667 9.5 17 13.5c1.33301 0.666992 2.5 1.33398 3.5 2.00098s2.16699 1.33398 3.5 2.00098c2 1.33301 3.83301 2.5 5.5 3.5s3.5 2.16699 5.5 3.5c16.667 9.33301 33.834 16.5 51.501 21.5s35.834 7.5 54.501 7.5
c25.333 0 48.333 -5.16699 69 -15.5s36.334 -24.166 47.001 -41.499c0.666992 -1.33301 1.5 -2.83301 2.5 -4.5s1.83301 -3.5 2.5 -5.5c6.66699 -13.333 11 -27.833 13 -43.5s3 -37.834 3 -66.501v-151c0 -34.667 5.33301 -59.5 16 -74.5s28 -22.5 52 -22.5l5 1v-36h-232v36
h8c24 -0.666992 41.333 6.5 52 21.5s16 39.5 16 73.5v146c0 38.667 -8.16699 67.667 -24.5 87s-40.833 29 -73.5 29c-6 0 -12.167 -0.333008 -18.5 -1s-12.5 -1.66699 -18.5 -3c-14.667 -4 -29.334 -9.5 -44.001 -16.5s-28.334 -15.5 -41.001 -25.5v-215
c0 -34.667 5.33301 -59.5 16 -74.5s28 -22.5 52 -22.5l12 1v-36h-239v36h8c24 -0.666992 41.167 6.5 51.5 21.5s15.5 39.5 15.5 73.5v453l-75 43v19l137 49h22v0z" />
    <glyph glyph-name="i" unicode="i" horiz-adv-x="271" 
d="M186 461v-329c0 -33.333 4.66699 -57.833 14 -73.5s24 -23.5 44 -23.5l4 1v-36h-218v36h4c24.667 -0.666992 42.167 6.5 52.5 21.5s15.5 39.5 15.5 73.5v220l-76 40v18l136 52h24v0zM86 641c0 14.667 5.33301 27.166 16 37.499s23.334 15.5 38.001 15.5
c15.333 0 28.166 -5.16699 38.499 -15.5s15.5 -23.166 15.5 -38.499c0 -14.667 -5.16699 -27.5 -15.5 -38.5s-23.166 -16.5 -38.499 -16.5c-14.667 0 -27.334 5.5 -38.001 16.5s-16 23.833 -16 38.5v1z" />
    <glyph glyph-name="j" unicode="j" horiz-adv-x="260" 
d="M194 461l-0.000976562 -397.996c0 -25.333 -0.5 -43.833 -1.5 -55.5s-2.83301 -21.834 -5.5 -30.501c-0.666992 -0.666992 -1 -1.16699 -1 -1.5v-0.5c-4.66699 -12.667 -11.834 -26 -21.501 -40s-22.5 -30 -38.5 -48l-70 -78l-33 22l33 52c4 6.66699 8.16699 14 12.5 22
l12.5 23c4.66699 10 8.83398 19.667 12.501 29s6.83398 18 9.50098 26c2 7.33301 3.66699 14.666 5 21.999s2 14.666 2 21.999v6.5c0 2.33301 0.333008 5.16602 1 8.49902v11.5v14.5v280l-81 44v17l143 52h21v0zM92.999 641.004c0 14 5.33301 26.332 16 36.999
s23.334 16 38.001 16s27.167 -5.16699 37.5 -15.5s15.5 -23.166 15.5 -38.499c0 -14.667 -5.16699 -27.5 -15.5 -38.5s-22.833 -16.5 -37.5 -16.5s-27.334 5.5 -38.001 16.5s-16 23.833 -16 38.5v1z" />
    <glyph glyph-name="k" unicode="k" horiz-adv-x="510" 
d="M179 695v-563.001c0 -34.667 5.33301 -59.5 16 -74.5s28 -22.5 52 -22.5l6 1v-36h-221v36h4c20 -0.666992 35 6.83301 45 22.5s15 39.834 15 72.501v458l-64 35v24l122 47h25v0zM265 261.999l246.999 -220.001v-42h-76c-6 3.33301 -11.333 6.5 -16 9.5
s-9 6.16699 -13 9.5c-1.33301 0.666992 -2.83301 1.66699 -4.5 3s-3.16699 2.66602 -4.5 3.99902c-2.66699 2 -5.16699 4.33301 -7.5 7s-5.16602 5.33398 -8.49902 8.00098l-199 195l95 88c12 10.667 20.667 20 26 28s8 15.667 8 23c0 12.667 -5 22.167 -15 28.5
s-24.667 9.5 -44 9.5l-9 1v36h248v-36c-17.333 -1.33301 -36 -7.16602 -56 -17.499s-41.667 -25.5 -65 -45.5l-106 -89v0z" />
    <glyph glyph-name="l" unicode="l" horiz-adv-x="271" 
d="M179 695v-562.998c0 -33.333 4.83301 -57.833 14.5 -73.5s24.834 -23.5 45.501 -23.5l3 1v-36h-215v36h3c23.333 -0.666992 40.166 6.66602 50.499 21.999s15.5 39.666 15.5 72.999v457l-69 38v22l132 47h20v0z" />
    <glyph glyph-name="m" unicode="m" horiz-adv-x="865" 
d="M179 344l-0.00390625 -212.005c0 -34.667 5.33301 -59.5 16 -74.5s27.667 -22.5 51 -22.5l4 1v-36h-228v36h6c24 -0.666992 41.167 6.5 51.5 21.5s15.5 39.5 15.5 73.5v218l-71 47v15l131 50h23v-76l22 18.5c6 5 11.667 9.5 17 13.5
c1.33301 0.666992 2.33301 1.33398 3 2.00098s1.66699 1.33398 3 2.00098c1.33301 1.33301 2.83301 2.5 4.5 3.5s3.5 2.16699 5.5 3.5c17.333 10.667 35.333 18.667 54 24s38.334 8 59.001 8c33.333 0 59.833 -5.83301 79.5 -17.5s35.167 -31.167 46.5 -58.5
c15.333 14.667 29.833 27 43.5 37s27.167 18 40.5 24c12.667 5.33301 25.334 9.33301 38.001 12s26.334 4 41.001 4c27.333 0 51.5 -4.66699 72.5 -14s36.833 -22.666 47.5 -39.999l5.5 -9.5c1.66699 -3 3.16699 -5.83301 4.5 -8.5c4 -8.66699 6.5 -18.5 7.5 -29.5
s1.5 -28.5 1.5 -52.5v-175c0 -34 5.16699 -58.667 15.5 -74s26.833 -23 49.5 -23l4 1v-36h-229v36h9c23.333 -0.666992 40.333 6.5 51 21.5s16 39.5 16 73.5v160c0 35.333 -7.83301 61.333 -23.5 78s-40.5 25 -74.5 25c-18 0 -36.667 -3.66699 -56 -11
s-39.666 -18.666 -60.999 -33.999v-217c0 -34.667 5.33301 -59.5 16 -74.5s28 -22.5 52 -22.5l3 1v-36h-235v36h14c23.333 -0.666992 40.333 6.5 51 21.5s16 39.5 16 73.5v161c0 36.667 -7 62.667 -21 78s-37.333 23 -70 23c-16.667 0 -32 -1.83301 -46 -5.5
s-28 -9.83398 -42 -18.501c-5.33301 -3.33301 -10.833 -7.16602 -16.5 -11.499s-11.5 -9.16602 -17.5 -14.499v1z" />
    <glyph glyph-name="n" unicode="n" horiz-adv-x="573" 
d="M176 335l-0.00195312 -203.003c0 -34.667 5.33301 -59.5 16 -74.5s27.667 -22.5 51 -22.5l14 1v-36h-239v36h7c23.333 -0.666992 40.333 6.5 51 21.5s16 39.5 16 73.5v222l-68 38v23l134 47h18v-85l22.5 23c6.33301 6.66699 12.5 12.334 18.5 17.001
c3.33301 2.66699 7 5.33398 11 8.00098s8.33301 5.33398 13 8.00098c0.666992 0 1.5 0.333008 2.5 1s2.16699 1.33398 3.5 2.00098c10.667 6 22.167 10.833 34.5 14.5s24.833 6.5 37.5 8.5c4.66699 0.666992 9.33398 1.16699 14.001 1.5s9.33398 0.5 14.001 0.5
c21.333 0 41.5 -4 60.5 -12s34.167 -18.667 45.5 -32l1.5 -1.5l1.5 -1.5c11.333 -14.667 18.833 -31.334 22.5 -50.001s5.5 -48 5.5 -88v-143c0 -34.667 5.33301 -59.5 16 -74.5s27.667 -22.5 51 -22.5l5 1v-36h-236v36h13c23.333 -0.666992 40.333 6.5 51 21.5
s16 39.5 16 73.5v135c0 43.333 -7.5 75.333 -22.5 96s-38.5 31 -70.5 31h-5.5h-5.5c-18.667 -2 -37.667 -7.5 -57 -16.5s-40.333 -23.167 -63 -42.5v1z" />
    <glyph glyph-name="o" unicode="o" horiz-adv-x="542" 
d="M43 229c0 64.667 21.668 119.333 65.001 164s96.333 67 159 67c68 0 123.833 -21.667 167.5 -65s65.5 -99 65.5 -167s-21.667 -124.833 -65 -170.5s-97 -68.5 -161 -68.5c-62.667 0 -116.834 23.667 -162.501 71s-68.5 103.333 -68.5 168v1zM261.001 423.999h-4.99805
c-38 -0.666992 -67.167 -14.334 -87.5 -41.001s-30.5 -65.334 -30.5 -116.001c0 -12.667 0.666992 -25.5 2 -38.5s3.33301 -26.167 6 -39.5c11.333 -52.667 29.166 -93.167 53.499 -121.5s53.166 -42.5 86.499 -42.5c37.333 0 67.333 13 90 39s34 60.667 34 104
c0 5.33301 -0.166992 11 -0.5 17s-0.5 11.667 -0.5 17c-2.66699 26.667 -7.5 52.834 -14.5 78.501s-16.167 49.5 -27.5 71.5c-12 23.333 -26.667 40.833 -44 52.5s-38 17.834 -62 18.501v1z" />
    <glyph glyph-name="p" unicode="p" horiz-adv-x="561" 
d="M169 18l-0.000976562 -78c0 -33.333 5.33301 -57.5 16 -72.5s28 -22.5 52 -22.5h18v-36h-243v36h6c24 0 41.333 7.5 52 22.5s16 39.167 16 72.5v412l-71 41v17l129 51h25v-75l14.5 12.5l14.5 12.5c20.667 16.667 41.834 29 63.501 37s45.167 12 70.5 12
c54.667 0 99.167 -19.833 133.5 -59.5s51.5 -90.834 51.5 -153.501c0 -71.333 -22.5 -132.166 -67.5 -182.499s-99.5 -75.5 -163.5 -75.5c-6.66699 0 -13.167 0.333008 -19.5 1l-19.5 2c-13.333 2.66699 -26.5 6 -39.5 10s-25.833 9 -38.5 15v1zM168.999 345
l0.00292969 -149c0 -26.667 0.666992 -46.5 2 -59.5s4.66602 -24.833 9.99902 -35.5c1.33301 -2.66699 3 -5.5 5 -8.5s4 -6.16699 6 -9.5c10 -16.667 24.167 -29.667 42.5 -39s38.166 -14 59.499 -14c43.333 0 77.166 15 101.499 45s36.5 71.333 36.5 124
c0 56.667 -13.333 102.667 -40 138s-61.667 53 -105 53c-9.33301 0 -19 -1 -29 -3s-20 -5 -30 -9s-20 -8.83301 -30 -14.5s-19.667 -12.167 -29 -19.5v1z" />
    <glyph glyph-name="q" unicode="q" horiz-adv-x="561" 
d="M395 -60v126.001c-22.667 -20 -42.834 -35.667 -60.501 -47s-34.5 -19 -50.5 -23c-8.66699 -2.66699 -17 -4.5 -25 -5.5s-16.667 -1.5 -26 -1.5c-57.333 0 -104 19.833 -140 59.5s-54 91.834 -54 156.501c0 75.333 22.5 136.666 67.5 183.999s102.833 71 173.5 71
c29.333 0 57.333 -3.5 84 -10.5s52.334 -17.5 77.001 -31.5v36c0 1.33301 0.5 2.66602 1.5 3.99902s2.83301 2 5.5 2l24 1c2.66699 -0.666992 4.5 -1.66699 5.5 -3s1.5 -3 1.5 -5v-513c0 -33.333 5.16699 -57.666 15.5 -72.999s26.833 -23 49.5 -23h4v-35h-236v35h16
c24 0 41.167 7.66699 51.5 23s15.5 39.666 15.5 72.999v0zM395 111.001l-0.00195312 148.002c0 50.667 -11.833 90.667 -35.5 120s-56.167 44 -97.5 44c-42.667 0 -77.167 -15.333 -103.5 -46s-39.5 -70.667 -39.5 -120c0 -55.333 15 -101.833 45 -139.5
s67.333 -56.5 112 -56.5c5.33301 0 10.5 0.166992 15.5 0.5s10.167 1.16602 15.5 2.49902c12.667 2.66699 25.834 7.66699 39.501 15s29.834 17.666 48.501 30.999v1z" />
    <glyph glyph-name="r" unicode="r" horiz-adv-x="375" 
d="M181 308l0.00683594 -176.002c0 -38 5.83301 -63.667 17.5 -77s34.167 -20 67.5 -20l16 1v-36h-260v36h8c23.333 -0.666992 40.333 6.5 51 21.5s16 39.5 16 73.5v216l-75 40v17l138 57h21v-99h2l10 19c8 10.667 15.5 20.167 22.5 28.5s13.833 15.5 20.5 21.5
c10 8.66699 20.167 14.834 30.5 18.501s21.833 5.5 34.5 5.5c12 0 23.333 -2.33301 34 -7s20.334 -11.667 29.001 -21c4 -4 7.16699 -7.66699 9.5 -11s3.83301 -6.66602 4.5 -9.99902c0.666992 -1.33301 1 -2.5 1 -3.5v-3.5c0 -4 -1 -9.16699 -3 -15.5
s-4.66699 -12.833 -8 -19.5c-1.33301 -3.33301 -2.83301 -6.33301 -4.5 -9s-3.16699 -5.33398 -4.5 -8.00098c-2.66699 -4 -5.83398 -7.16699 -9.50098 -9.5s-7.83398 -3.5 -12.501 -3.5c-2 0 -3.83301 0.166992 -5.5 0.5s-3.5 0.833008 -5.5 1.5
c-4 1.33301 -8.33301 4 -13 8s-10 9.33301 -16 16c-2.66699 3.33301 -5.33398 6.33301 -8.00098 9s-5.33398 4.66699 -8.00098 6c-2.66699 2 -5.66699 3.33301 -9 4s-7 1 -11 1c-2.66699 0 -5.33398 -0.166992 -8.00098 -0.5s-5.33398 -1.16602 -8.00098 -2.49902
c-8.66699 -3.33301 -17.834 -10.333 -27.501 -21s-21.834 -27 -36.501 -49v1z" />
    <glyph glyph-name="s" unicode="s" horiz-adv-x="396" 
d="M329 418l-0.000976562 -108.001h-31c-7.33301 38.667 -19.5 67.167 -36.5 85.5s-39.167 27.5 -66.5 27.5c-23.333 0 -41.833 -5.83301 -55.5 -17.5s-20.5 -27.834 -20.5 -48.501c0 -8 1 -15.167 3 -21.5s6 -12.5 12 -18.5c8 -8 20.833 -16.667 38.5 -26
s41.834 -21 72.501 -35c16 -7.33301 29.5 -13.833 40.5 -19.5s20.167 -11.167 27.5 -16.5c9.33301 -6.66699 16.666 -13.5 21.999 -20.5s10 -15.167 14 -24.5c4 -8.66699 7 -17.667 9 -27s3 -18.666 3 -27.999c0 -40.667 -13.667 -72.667 -41 -96s-64.666 -35 -111.999 -35
c-7.33301 0 -14.666 0.333008 -21.999 1l-22 2c-18.667 2.66699 -37 6.33398 -55 11.001s-33.667 10.334 -47 17.001v127h33c4.66699 -39.333 16.167 -69.5 34.5 -90.5s42.5 -31.5 72.5 -31.5c26 0 47.5 6.66699 64.5 20s25.5 30.333 25.5 51
c0 11.333 -2.33301 21.333 -7 30s-12.667 17.334 -24 26.001c-6.66699 4.66699 -14.667 9.66699 -24 15s-20.333 10.666 -33 15.999c-26 11.333 -46.833 21.166 -62.5 29.499s-28.834 16.5 -39.501 24.5c-5.33301 3.33301 -10 6.83301 -14 10.5l-12 11.5
c-8.66699 10 -15.667 21.667 -21 35s-8 27.333 -8 42c0 36.667 13.667 66.5 41 89.5s62.333 34.5 105 34.5c27.333 0 52 -3.5 74 -10.5s42.667 -17.833 62 -32.5v1z" />
    <glyph glyph-name="t" unicode="t" horiz-adv-x="333" 
d="M178 400v-279.005c0 -31.333 4.16699 -51.166 12.5 -59.499s27.166 -12.5 56.499 -12.5h20.5c5.66699 0 11.167 0.333008 16.5 1c4.66699 0.666992 9.83398 1.33398 15.501 2.00098s12.5 1.33398 20.5 2.00098v-48l-12 -2l-60 -10
c-8.66699 -1.33301 -17.834 -2.5 -27.501 -3.5s-19.5 -1.5 -29.5 -1.5c-34 0 -58.667 6.83301 -74 20.5s-23 35.834 -23 66.501l1 30v294h-76v27c6.66699 2 13.667 4.83301 21 8.5s14.333 7.83398 21 12.501c15.333 10 30.333 22 45 36s27.334 29 38.001 45l34 1v-80h136
v-50h-136v0z" />
    <glyph glyph-name="u" unicode="u" horiz-adv-x="573" 
d="M480 450l-0.000976562 -326.999c0 -31.333 2.16699 -51.333 6.5 -60s14.166 -13 29.499 -13c3.33301 0 6.66602 0.166992 9.99902 0.5s7 0.833008 11 1.5l12 4v-39l-152 -28v77c-16.667 -15.333 -32.667 -28.166 -48 -38.499s-30.666 -18.833 -45.999 -25.5
c-12 -4 -24.167 -7.16699 -36.5 -9.5s-24.833 -3.5 -37.5 -3.5c-29.333 0 -54.5 5.33301 -75.5 16s-36.167 26.334 -45.5 47.001c-4 9.33301 -7.16699 18.666 -9.5 27.999s-3.83301 18.666 -4.5 27.999v46v153c0 38.667 -4.66699 64.167 -14 76.5s-28.666 18.5 -57.999 18.5
l-8 1v36l164 11v-254c0 -52 6.5 -87.833 19.5 -107.5s36.5 -29.5 70.5 -29.5c8.66699 0 16.834 0.5 24.501 1.5s15.5 2.83301 23.5 5.5c12.667 3.33301 25.5 8.66602 38.5 15.999s27.167 17 42.5 29v196c0 38.667 -4.66699 64.167 -14 76.5s-29 18.5 -59 18.5l-14 1v36
l170 11v0z" />
    <glyph glyph-name="v" unicode="v" horiz-adv-x="479" 
d="M247 -11l-32 0.000976562l-153 374c-2 3.33301 -3.66699 6.83301 -5 10.5s-3 6.83398 -5 9.50098c-5.33301 10.667 -11.5 17.834 -18.5 21.501s-17.5 6.5 -31.5 8.5v37h210v-36l-12 -1c-18.667 -2.66699 -31.834 -6.66699 -39.501 -12s-11.5 -14 -11.5 -26
c0 -2.66699 0.333008 -5.66699 1 -9s1.33398 -7 2.00098 -11c0.666992 -1.33301 1.33398 -2.83301 2.00098 -4.5s1.33398 -3.5 2.00098 -5.5l102 -240l96 219c3.33301 6 5.66602 12.167 6.99902 18.5s2 12.166 2 17.499c0 17.333 -4.83301 30.166 -14.5 38.499
s-25.5 13.166 -47.5 14.499v37h176v-36c-12 -2.66699 -21.667 -6 -29 -10s-14 -10.333 -20 -19c-3.33301 -5.33301 -6.83301 -11.5 -10.5 -18.5s-7.83398 -15.5 -12.501 -25.5l-158 -352v0z" />
    <glyph glyph-name="w" unicode="w" horiz-adv-x="729" 
d="M371 274l-126.002 -284.998h-34l-145 360c-4 9.33301 -7.66699 17.5 -11 24.5s-6.66602 12.833 -9.99902 17.5c-4 6.66699 -8.5 11.5 -13.5 14.5s-11.167 5.5 -18.5 7.5v37h183v-36c-16 -1.33301 -28.167 -5.16602 -36.5 -11.499s-12.5 -15.166 -12.5 -26.499
c0 -2.66699 0.333008 -5.83398 1 -9.50098l2 -11.5c0.666992 -3.33301 1.5 -6.5 2.5 -9.5s1.83301 -5.83301 2.5 -8.5l98 -233l100 221l-15 37c-7.33301 18.667 -15.666 31.834 -24.999 39.501s-22.333 11.5 -39 11.5l-8 1v36h218v-36
c-22 -3.33301 -37.333 -7.83301 -46 -13.5s-13 -14.834 -13 -27.501c0 -4 0.333008 -8.16699 1 -12.5s1.66699 -8.83301 3 -13.5c0.666992 -3.33301 1.5 -6.33301 2.5 -9s2.16699 -5.33398 3.5 -8.00098l87 -219l92 219c1.33301 2 2.33301 4.66699 3 8l2 10
c0.666992 3.33301 1.16699 6.66602 1.5 9.99902s0.5 6.33301 0.5 9c0 15.333 -5 26.666 -15 33.999s-24.667 11.333 -44 12v37h164v-36c-15.333 -3.33301 -27 -8 -35 -14s-14.667 -15.667 -20 -29l-12 -30l-146 -352h-32l-110 285v0z" />
    <glyph glyph-name="x" unicode="x" horiz-adv-x="500" 
d="M290 246l141.006 -162.004c10.667 -12.667 19.167 -22.167 25.5 -28.5s12.166 -11.166 17.499 -14.499c3.33301 -1.33301 6.5 -2.5 9.5 -3.5s6.16699 -1.83301 9.5 -2.5v-35h-223v36c19.333 2.66699 33.166 6.5 41.499 11.5s12.5 11.833 12.5 20.5
c0 4.66699 -1.66699 10 -5 16s-8 12.333 -14 19l-73 84l-55 -59c-10 -11.333 -17.5 -21.666 -22.5 -30.999s-7.5 -17.666 -7.5 -24.999c0 -10.667 5 -19.5 15 -26.5s22.333 -10.5 37 -10.5l4 1v-36h-192v36c6 0.666992 11.667 2 17 4s10.333 4.33301 15 7
c8.66699 4.66699 17.167 10.834 25.5 18.501s17.833 17.167 28.5 28.5l111 121l-141 167l-14 14c-4 4 -8 7 -12 9c-4 2.66699 -8.33301 4.66699 -13 6s-10.334 2 -17.001 2v37h207v-36c-2 -1.33301 -3.5 -2 -4.5 -2h-3.5c-12.667 -2.66699 -21.5 -5.66699 -26.5 -9
s-7.5 -7.66602 -7.5 -12.999c0 -2 0.333008 -4.5 1 -7.5s1.66699 -5.83301 3 -8.5s2.66602 -5 3.99902 -7l4 -6l74 -86l65 72c4.66699 4.66699 8.16699 9.66699 10.5 15s3.5 10.666 3.5 15.999c0 11.333 -4 20 -12 26s-20 9 -36 9v37h184v-36
c-0.666992 -0.666992 -1.33398 -1.16699 -2.00098 -1.5s-1.33398 -0.5 -2.00098 -0.5c-7.33301 -1.33301 -13.833 -3 -19.5 -5s-11.167 -4.33301 -16.5 -7c-9.33301 -5.33301 -19.5 -13.5 -30.5 -24.5s-25.833 -27.167 -44.5 -48.5l-72 -81v0z" />
    <glyph glyph-name="y" unicode="y" horiz-adv-x="479" 
d="M233 -5l-159.997 359.998c-2 4 -3.83301 7.83301 -5.5 11.5s-3.5 7.16699 -5.5 10.5c-7.33301 13.333 -15 22.666 -23 27.999s-17.667 8 -29 8l-8 1v36h218v-36c-20.667 -1.33301 -35.834 -5 -45.501 -11s-14.5 -15 -14.5 -27c0 -4.66699 0.833008 -10 2.5 -16
s4.16699 -13 7.5 -21l104 -237l86 219c3.33301 6.66699 5.66602 13.334 6.99902 20.001s2 12.667 2 18c0 16.667 -5.33301 29.5 -16 38.5s-26.667 14.167 -48 15.5v37h173v-36c-16 -3.33301 -29.167 -10.166 -39.5 -20.499s-19.5 -26.166 -27.5 -47.499l-15 -39l-154 -391
c-14.667 -36.667 -32.667 -63.834 -54 -81.501s-47.333 -26.5 -78 -26.5c-23.333 0 -42.333 5.33301 -57 16s-22 24.667 -22 42c0 11.333 4.16699 21 12.5 29s18.166 12 29.499 12c2.66699 0 5 -0.166992 7 -0.5s4.33301 -0.833008 7 -1.5
c3.33301 -1.33301 6.66602 -3 9.99902 -5s7 -4.66699 11 -8c4.66699 -4 8.5 -7.16699 11.5 -9.5s6.16699 -4.16602 9.5 -5.49902c2 -0.666992 4.33301 -1.16699 7 -1.5s5.66699 -0.5 9 -0.5c16 0 29.833 6.33301 41.5 19s22.834 33.667 33.501 63l13 38v0z" />
    <glyph glyph-name="z" unicode="z" horiz-adv-x="436" 
d="M401 0l-382.999 0.00292969v16l293 399h-105c-30 -0.666992 -55.167 -6.33398 -75.5 -17.001s-39.833 -29 -58.5 -55l-28 1v123h22c1.33301 -2 2.5 -3.5 3.5 -4.5s2.16699 -1.83301 3.5 -2.5c6 -4.66699 13 -7.66699 21 -9s22 -2 42 -2l256 1
c9.33301 -0.666992 15.166 -1.66699 17.499 -3s3.5 -5.33301 3.5 -12v-20l-282 -380h70c38 -0.666992 70.167 3.16602 96.5 11.499s45.5 20.5 57.5 36.5l7 9l6 8c0.666992 1.33301 1.5 2.66602 2.5 3.99902s1.83301 3 2.5 5c2 3.33301 4 7.5 6 12.5l8 19.5l36 1l-22 -142v0z
" />
    <glyph glyph-name="braceleft" unicode="{" horiz-adv-x="480" 
d="M103 230l0.00585938 18.998c33.333 4.66699 60.166 16.667 80.499 36s30.5 41.333 30.5 66c0 8 -1 18.167 -3 30.5s-5 26.5 -9 42.5c-3.33301 15.333 -6 29.666 -8 42.999s-3 25.333 -3 36c0 48 17.5 90.167 52.5 126.5s78.833 57.833 131.5 64.5v-18
c-35.333 -7.33301 -63 -21.166 -83 -41.499s-30 -45.833 -30 -76.5c0 -10 0.833008 -21 2.5 -33s3.83398 -25.333 6.50098 -40c3.33301 -16.667 5.83301 -32 7.5 -46s2.5 -26 2.5 -36c0 -20.667 -4.33301 -40.5 -13 -59.5s-21.667 -36.5 -39 -52.5l-9.5 -9.5
c-3 -3 -6.16699 -5.5 -9.5 -7.5c-6 -4.66699 -12.167 -9 -18.5 -13s-13.5 -7.66699 -21.5 -11c-4 -1.33301 -8.16699 -2.83301 -12.5 -4.5l-14.5 -5.5c45.333 -18 79.833 -41.167 103.5 -69.5s35.5 -60.166 35.5 -95.499c0 -6.66699 -0.666992 -15.667 -2 -27s-3 -23 -5 -35
c-0.666992 -3.33301 -1.33398 -6.5 -2.00098 -9.5s-1.33398 -6.16699 -2.00098 -9.5c-2.66699 -14.667 -4.83398 -28 -6.50098 -40s-2.5 -22.667 -2.5 -32c0 -30 9.66699 -55.333 29 -76s47.333 -35.667 84 -45v-17c-52.667 7.33301 -96.334 28.833 -131.001 64.5
s-52 77.5 -52 125.5c0 10.667 0.833008 22.334 2.5 35.001s4.16699 26 7.5 40c3.33301 15.333 6.16602 29.833 8.49902 43.5s3.5 23.834 3.5 30.501c0 27.333 -9.83301 50.166 -29.5 68.499s-46.834 30.833 -81.501 37.5v1z" />
    <glyph glyph-name="bar" unicode="|" horiz-adv-x="527" 
d="M231 814h65v-831h-65v831v0z" />
    <glyph glyph-name="braceright" unicode="}" horiz-adv-x="480" 
d="M377 249l-0.00292969 -18.9961c-33.333 -6.66699 -60.166 -19.334 -80.499 -38.001s-30.5 -40.667 -30.5 -66c0 -8.66699 1 -19 3 -31s5 -26.333 9 -43c3.33301 -14.667 6 -28.5 8 -41.5s3 -24.833 3 -35.5c0 -48 -17.5 -90.167 -52.5 -126.5
s-78.833 -57.833 -131.5 -64.5v19c35.333 6.66699 63 20.167 83 40.5s30 45.833 30 76.5c0 10 -0.666992 21 -2 33s-3.66602 25.333 -6.99902 40c-3.33301 16.667 -5.83301 31.667 -7.5 45s-2.5 25.333 -2.5 36c0 20.667 4.33301 40.5 13 59.5s21.667 36.5 39 52.5
c3.33301 3.33301 6.5 6.33301 9.5 9s6.16699 5.33398 9.5 8.00098c5.33301 4 10.833 7.66699 16.5 11s11.834 6.66602 18.501 9.99902l15 6.5c5.33301 2.33301 11 4.5 17 6.5c-44.667 18 -79 41.167 -103 69.5s-36 60.166 -36 95.499c0 6.66699 0.666992 15.667 2 27
s3 23 5 35l2 10l2 10c3.33301 14.667 5.66602 28 6.99902 40s2 22.667 2 32c0 30 -9.66699 55.333 -29 76s-47.333 35.334 -84 44.001v19c53.333 -8 97.166 -30 131.499 -66s51.5 -77.667 51.5 -125c0 -10.667 -0.833008 -22.5 -2.5 -35.5s-4.16699 -26.5 -7.5 -40.5
c-3.33301 -15.333 -6.16602 -29.833 -8.49902 -43.5s-3.5 -23.834 -3.5 -30.501c0 -26.667 9.83301 -49.334 29.5 -68.001s46.834 -31.334 81.501 -38.001v1z" />
    <glyph glyph-name="asciitilde" unicode="~" horiz-adv-x="469" 
d="M436 516l21.002 0.00195312c-0.666992 -41.333 -12.334 -75.5 -35.001 -102.5s-50.334 -40.5 -83.001 -40.5h-3.5h-3.5c-16.667 0.666992 -34.5 4.5 -53.5 11.5s-43.833 18.833 -74.5 35.5c-23.333 13.333 -42 22.666 -56 27.999s-26.667 8 -38 8
c-20.667 0 -38.5 -7.66699 -53.5 -23s-23.5 -35.333 -25.5 -60l-19 1c0 38.667 11.833 71.834 35.5 99.501s52.167 41.5 85.5 41.5h9.5c3 0 5.83301 -0.333008 8.5 -1c14 -2 29 -6.33301 45 -13s37 -17.334 63 -32.001c23.333 -12.667 42.333 -21.667 57 -27s28 -8 40 -8
c22 0 40.167 7.16699 54.5 21.5s22.833 34.166 25.5 59.499v1z" />
    <glyph glyph-name="endash" unicode="&#xa1;" horiz-adv-x="292" 
d="M168 -193l-44.001 0.000976562c-11.333 0 -19.833 2.83301 -25.5 8.5s-8.5 14.167 -8.5 25.5v8l35 444c0.666992 8.66699 2 14.334 4 17.001s5.66699 4 11 4l16 1c4 -0.666992 6.83301 -2.33398 8.5 -5.00098s2.83398 -7.66699 3.50098 -15l34 -443v-2
c0 -0.666992 0.333008 -1.66699 1 -3v-2v-2c0 -12.667 -2.83301 -21.834 -8.5 -27.501s-14.5 -8.5 -26.5 -8.5v0zM84.999 451.001c0 16.667 6.16699 30.833 18.5 42.5s26.833 17.5 43.5 17.5c17.333 0 32 -5.83301 44 -17.5s18 -26.167 18 -43.5s-6 -32 -18 -44
s-26.667 -18 -44 -18c-16.667 0 -31.167 6.16699 -43.5 18.5s-18.5 26.833 -18.5 43.5v1z" />
    <glyph glyph-name="cent" unicode="&#xa2;" horiz-adv-x="552" 
d="M156 -115l45.9961 129.004c-36.667 20 -65 48.167 -85 84.5s-30 77.166 -30 122.499v5.5v5.5c2 39.333 12.667 77.166 32 113.499s44.333 64.166 75 83.499c18 11.333 37.333 19.666 58 24.999s44.334 8 71.001 8h8c2.66699 0 5.33398 -0.333008 8.00098 -1
c2 0 4.33301 -0.166992 7 -0.5s5.33398 -0.5 8.00098 -0.5l3 1l49 139h39l-51 -144c27.333 -6 48.333 -16.5 63 -31.5s22 -34.167 22 -57.5c0 -12.667 -3.16699 -23 -9.5 -31s-15.166 -12 -26.499 -12c-8 0 -14.5 1.16699 -19.5 3.5s-9.83301 6.5 -14.5 12.5
c-2.66699 3.33301 -5.33398 7.5 -8.00098 12.5s-5.33398 10.833 -8.00098 17.5c-1.33301 3.33301 -2.5 6 -3.5 8s-2.16699 4 -3.5 6c-0.666992 1.33301 -1.5 2.5 -2.5 3.5s-1.83301 2.16699 -2.5 3.5l-3 3l-4 4l-109 -314c5.33301 -2.66699 10.333 -4.83398 15 -6.50098
s9.33398 -3.16699 14.001 -4.5c6 -2 12.5 -3.33301 19.5 -4s14.5 -1 22.5 -1c27.333 0 51.833 5.66699 73.5 17s38.167 27 49.5 47l23 -14c-9.33301 -39.333 -30.833 -70.666 -64.5 -93.999s-73.167 -35 -118.5 -35c-7.33301 0 -13.666 0.166992 -18.999 0.5
s-10.333 0.833008 -15 1.5l-14 4c-4.66699 1.33301 -10 3 -16 5l-40 -115h-39v0zM232.996 104.004l107.999 312.001c-3.33301 0 -6.16602 0.166992 -8.49902 0.5s-4.83301 0.833008 -7.5 1.5c-2.66699 0 -5.5 0.166992 -8.5 0.5s-6.83301 0.5 -11.5 0.5
c-41.333 0 -74.666 -14.667 -99.999 -44s-38 -68.333 -38 -117c0 -30.667 5.66699 -59.334 17 -86.001s27.666 -49.667 48.999 -69v1z" />
    <glyph glyph-name="sterling" unicode="&#xa3;" horiz-adv-x="677" 
d="M387 114l-130.001 -0.00488281l-10.5 -33c-3 -9.33301 -6.16699 -18 -9.5 -26c-1.33301 -4 -2.83301 -8 -4.5 -12s-3.5 -8 -5.5 -12l-13 -27c-4.66699 -9.33301 -10.334 -20 -17.001 -32c12.667 4 23.334 7 32.001 9s17 3.33301 25 4h6.5h6.5
c8.66699 0 16.834 -0.5 24.501 -1.5s15.167 -2.5 22.5 -4.5c13.333 -4 27.333 -10.667 42 -20s32.667 -22.666 54 -39.999c18.667 -15.333 34.167 -26 46.5 -32s23.833 -9.33301 34.5 -10h2h2c13.333 0 24.666 3.33301 33.999 10s14 15 14 25c0 5.33301 -1.16699 11 -3.5 17
s-6.16602 12.667 -11.499 20c-4 5.33301 -7.16699 9.83301 -9.5 13.5l-5.5 8.5c-1.33301 2.66699 -2.5 5.66699 -3.5 9s-1.5 7 -1.5 11c0 12.667 4.66699 23.834 14 33.501s20.333 14.5 33 14.5c14.667 0 27 -6 37 -18s15 -26.667 15 -44
c0 -44.667 -15.667 -83.667 -47 -117s-68 -50 -110 -50c-5.33301 0 -10.5 0.333008 -15.5 1l-14.5 2c-14 4 -28.833 11 -44.5 21s-35.167 24.667 -58.5 44c-14.667 12 -27.167 21.5 -37.5 28.5s-20.5 12.167 -30.5 15.5c-6.66699 2 -13.167 3.5 -19.5 4.5
s-13.5 1.5 -21.5 1.5h-7c-2 0 -4 -0.333008 -6 -1c-3.33301 0 -6.5 -0.333008 -9.5 -1s-6.5 -1.33398 -10.5 -2.00098l-6 -11c-18.667 -35.333 -35.834 -61.5 -51.501 -78.5s-30.5 -25.5 -44.5 -25.5c-10.667 0 -19.834 4.33301 -27.501 13s-11.5 18.667 -11.5 30
c0 16.667 7.33301 33.334 22 50.001s36.667 33.334 66 50.001l5 20l35 121l6 21h-122l8 41h126l9 31l32 117l22 76c6.66699 22 13.334 41.667 20.001 59l15.5 39.5c5 12.333 10.5 24.166 16.5 35.499c1.33301 2 2.5 3.83301 3.5 5.5s1.83301 3.5 2.5 5.5
c8.66699 16.667 18 32.5 28 47.5s20.667 29.167 32 42.5c23.333 26.667 49.5 46.667 78.5 60s60.833 20 95.5 20s63.5 -6.33301 86.5 -19s34.5 -28.667 34.5 -48c0 -14 -3.66699 -25.833 -11 -35.5s-16 -14.5 -26 -14.5h-2h-2
c-7.33301 0.666992 -14.5 3.33398 -21.5 8.00098s-15.833 12 -26.5 22c-8 7.33301 -15.5 13.5 -22.5 18.5s-13.833 9.16699 -20.5 12.5c-6 2 -12 3.66699 -18 5s-12.333 2 -19 2c-18.667 0 -35.5 -5.83301 -50.5 -17.5s-28.5 -29.167 -40.5 -52.5l-9 -18
c-2.66699 -5.33301 -5.33398 -11 -8.00098 -17c-2 -4 -3.83301 -8.33301 -5.5 -13s-3.16699 -9.66699 -4.5 -15c-5.33301 -13.333 -10.666 -30.333 -15.999 -51l-21 -85c-4 -17.333 -9.66699 -39.166 -17 -65.499l-26 -93.5c-2.66699 -10.667 -5.16699 -20 -7.5 -28
s-4.5 -14.667 -6.5 -20c-0.666992 -2 -1.16699 -4.16699 -1.5 -6.5s-1.16602 -5.16602 -2.49902 -8.49902l127 1l-11 -41v0z" />
    <glyph glyph-name="Idieresis" unicode="&#xa4;" horiz-adv-x="667" 
d="M95 518l42.999 44.002l63 -63c10 7.33301 19.333 13.666 28 18.999s17 9.66602 25 12.999c10.667 4.66699 22.167 7.83398 34.5 9.50098s27.166 2.5 44.499 2.5c16.667 0 31 -0.833008 43 -2.5s23.667 -4.83398 35 -9.50098c8 -3.33301 16.5 -7.66602 25.5 -12.999
s18.833 -12 29.5 -20l62 64l43 -44l-62 -62l20.5 -33c5.66699 -9.33301 10.167 -18.333 13.5 -27c4 -11.333 6.83301 -22.833 8.5 -34.5s2.5 -25.5 2.5 -41.5c0 -17.333 -1 -32.166 -3 -44.499s-5.33301 -24.166 -10 -35.499c-4 -7.33301 -8.5 -15 -13.5 -23
s-11.167 -16.667 -18.5 -26l62 -62l-43 -43l-62 62c-12 -9.33301 -22.667 -16.666 -32 -21.999s-18.666 -10 -27.999 -14c-10.667 -4 -21.834 -6.66699 -33.501 -8s-25.167 -2 -40.5 -2c-17.333 0 -32.166 1 -44.499 3s-24.166 5.33301 -35.499 10
c-8 3.33301 -16 7.66602 -24 12.999s-17 11.666 -27 18.999l-62 -61l-44 43l63 63c-9.33301 14 -16.833 26.5 -22.5 37.5s-10.167 21.5 -13.5 31.5s-5.5 20 -6.5 30s-1.5 21.667 -1.5 35c0 14.667 0.666992 27.5 2 38.5s4 21.5 8 31.5
c3.33301 9.33301 7.83301 18.666 13.5 27.999s12.5 19.666 20.5 30.999l-63 63v0zM174.999 323.002c0 -44 15.5 -81.666 46.5 -112.999s68.167 -47 111.5 -47c44 0 81.5 15.667 112.5 47s46.5 68.666 46.5 111.999c0 44 -15.333 81.5 -46 112.5s-67.667 46.5 -111 46.5
c-44 0 -81.667 -15.5 -113 -46.5s-47 -68.5 -47 -112.5v1z" />
    <glyph glyph-name="ae" unicode="&#xa5;" horiz-adv-x="663" 
d="M379 272l215.001 -0.000976562v-40h-215v-79c0 -42.667 6.33301 -72.667 19 -90s34.334 -26 65.001 -26l6 1v-38h-277v38h9c30.667 -0.666992 52.167 7.66602 64.5 24.999s18.5 47 18.5 89v80h-216v40h216v14l-65 105h-151v39h127l-87 143
c-6.66699 10.667 -12.667 19.834 -18 27.501s-10.666 13.834 -15.999 18.501c-8 8 -16.333 13.5 -25 16.5s-20.334 5.5 -35.001 7.5v39h270v-38c-26.667 -2.66699 -44.834 -6.83398 -54.501 -12.501s-14.5 -16.167 -14.5 -31.5c0 -6.66699 1 -13.334 3 -20.001
s5.33301 -13.667 10 -21l80 -129h113l44 72c9.33301 14.667 16.166 27.334 20.499 38.001s7.16602 20.667 8.49902 30v4v4c0 20.667 -5.16699 36 -15.5 46s-27.833 16.333 -52.5 19v39h222v-38c-7.33301 -1.33301 -14 -3.16602 -20 -5.49902s-11.667 -5.5 -17 -9.5
c-9.33301 -6.66699 -19.166 -16.5 -29.499 -29.5s-22.833 -30.833 -37.5 -53.5l-73 -116h123v-39h-148l-67 -105v-14v0zM333.001 390.999l32 -52l32 52h-64v0z" />
    <glyph glyph-name="brokenbar" unicode="&#xa6;" 
 />
    <glyph glyph-name="section" unicode="&#xa7;" horiz-adv-x="427" 
d="M43 478c6 66 28.498 118.501 67.498 157.501s88.833 58.5 149.5 58.5c33.333 0 61 -6.66699 83 -20s33 -30.333 33 -51c0 -11.333 -4.33301 -21 -13 -29s-19 -12 -31 -12c-2.66699 0 -5.16699 0.166992 -7.5 0.5s-4.83301 0.833008 -7.5 1.5
c-4.66699 1.33301 -9.66699 3.66602 -15 6.99902s-11.333 7.66602 -18 12.999c-19.333 15.333 -34.333 26.5 -45 33.5s-20.667 10.833 -30 11.5c-1.33301 0.666992 -2.83301 1 -4.5 1h-4.5c-14.667 0 -26.667 -5 -36 -15s-14 -23 -14 -39s5.83301 -35.833 17.5 -59.5
s34.5 -62.167 68.5 -115.5c30 -46 52.167 -80.833 66.5 -104.5s25.833 -45.167 34.5 -64.5l5.5 -13l5.5 -13c0.666992 -1.33301 1.16699 -2.66602 1.5 -3.99902s0.833008 -2.66602 1.5 -3.99902c6 -14.667 11.333 -29.834 16 -45.501s8.66699 -31.167 12 -46.5
c2.66699 -16 4.83398 -31.667 6.50098 -47s2.5 -30.666 2.5 -45.999c0 -70.667 -18.667 -126 -56 -166s-89.333 -60 -156 -60c-36.667 0 -66.167 6.33301 -88.5 19s-33.5 29.334 -33.5 50.001c0 12 4.83301 22 14.5 30s21.5 12 35.5 12c4 0 7.66699 -0.333008 11 -1
s6.66602 -1.66699 9.99902 -3c4.66699 -2 9.66699 -5 15 -9s11.333 -9 18 -15c9.33301 -9.33301 18 -16.833 26 -22.5s15.667 -9.83398 23 -12.501c4 -1.33301 7.83301 -2.33301 11.5 -3s7.5 -1 11.5 -1c14.667 0 26.834 5.33301 36.501 16s14.5 23.667 14.5 39
c0 12.667 -3.16699 26.5 -9.5 41.5s-16.166 32.833 -29.499 53.5l-24.5 36.5l-27.5 40.5l-34 49.5l-24 36.5l-2.5 5c-1 2 -2.16699 3.66699 -3.5 5l-6 10.5l-6 11.5c-9.33301 17.333 -17.833 34.166 -25.5 50.499s-14.5 32.833 -20.5 49.5
c-8 23.333 -14.333 48.833 -19 76.5s-7 56.167 -7 85.5v4.5c0 1.66699 0.333008 3.16699 1 4.5v4.5v5.5v1zM247.998 302.001l-61 99.999c-22 36 -39.333 68.167 -52 96.5s-20.667 53.166 -24 74.499l-2 1c-4 -9.33301 -7.5 -20.666 -10.5 -33.999s-5.5 -27.333 -7.5 -42
c-0.666992 -6 -1.16699 -12 -1.5 -18s-0.5 -11.667 -0.5 -17c0 -20 2.33301 -42 7 -66s11.334 -48.667 20.001 -74l2 -6l2 -6l5.5 -14.5c1.66699 -4.33301 3.5 -8.83301 5.5 -13.5c1.33301 -4 2.83301 -8 4.5 -12s3.5 -8 5.5 -12c7.33301 -14.667 16.5 -31 27.5 -49
s27.167 -42.333 48.5 -73c23.333 -34.667 42.166 -64.334 56.499 -89.001s25.833 -48 34.5 -70c2.66699 -6 4.83398 -11.5 6.50098 -16.5s2.83398 -9.83301 3.50098 -14.5c1.33301 -5.33301 2.16602 -10.666 2.49902 -15.999s0.5 -11.333 0.5 -18h2
c4 11.333 7.33301 21.333 10 30s4.66699 17 6 25c1.33301 6.66699 2.16602 13.5 2.49902 20.5s0.5 14.5 0.5 22.5c0 13.333 -0.5 26.5 -1.5 39.5s-2.83301 25.833 -5.5 38.5c-2 12 -4.5 23.833 -7.5 35.5s-6.5 23.5 -10.5 35.5c-7.33301 22 -16.5 44.333 -27.5 67
s-24.833 47.334 -41.5 74.001v1z" />
    <glyph glyph-name="dieresis" unicode="&#xa8;" horiz-adv-x="332" 
d="M80 622c14.667 -0.666992 27.167 -6.16699 37.5 -16.5s15.5 -22.833 15.5 -37.5s-5.16699 -27.167 -15.5 -37.5s-22.833 -15.5 -37.5 -15.5s-27.167 5.16699 -37.5 15.5s-15.5 22.833 -15.5 37.5s5.16699 27.167 15.5 37.5s22.833 15.5 37.5 15.5v1zM252 622
c15.333 -0.666992 28 -6.16699 38 -16.5s15 -22.833 15 -37.5s-5 -27.167 -15 -37.5s-22.667 -15.5 -38 -15.5c-14.667 0 -27.167 5.16699 -37.5 15.5s-15.5 22.833 -15.5 37.5s5.16699 27.167 15.5 37.5s22.833 15.5 37.5 15.5v1z" />
    <glyph glyph-name="copyright" unicode="&#xa9;" horiz-adv-x="760" 
d="M380 677c95.333 -0.666992 176.833 -34.833 244.5 -102.5s101.5 -149.167 101.5 -244.5s-33.833 -176.666 -101.5 -243.999s-149.167 -101 -244.5 -101s-176.833 33.667 -244.5 101s-101.5 148.666 -101.5 243.999s33.833 176.833 101.5 244.5s149.167 101.5 244.5 101.5
v1zM380 647.001c-87.333 -0.666992 -161.833 -31.833 -223.5 -93.5s-92.5 -136.167 -92.5 -223.5s30.833 -161.833 92.5 -223.5s136.167 -92.5 223.5 -92.5s161.833 30.833 223.5 92.5s92.5 136.167 92.5 223.5s-30.833 161.833 -92.5 223.5s-136.167 92.5 -223.5 92.5v1z
M551 554.002l10.0029 -136.999h-19c-11.333 37.333 -29.5 65.666 -54.5 84.999s-56.167 29 -93.5 29c-48 0 -86.167 -17 -114.5 -51s-42.5 -80.333 -42.5 -139c0 -64.667 14.167 -114.334 42.5 -149.001s68.166 -52 119.499 -52c32 0 60.667 6.5 86 19.5
s47.333 32.833 66 59.5l18 -9c-22.667 -33.333 -49.334 -58.333 -80.001 -75s-66.334 -25 -107.001 -25c-64 0 -117.667 20.833 -161 62.5s-65 93.167 -65 154.5c0 64.667 23.333 118.5 70 161.5s104.667 64.5 174 64.5h14.5c4.33301 0 8.5 -0.333008 12.5 -1
c8 -1.33301 16.5 -3.16602 25.5 -5.49902s21.5 -6.16602 37.5 -11.499c4 -1.33301 7.16699 -2.33301 9.5 -3s4.5 -1 6.5 -1h0.5h1.5c4.66699 0 8.5 1 11.5 3s6.16699 5.66699 9.5 11c0 1.33301 0.333008 2.66602 1 3.99902l2 4l19 1v0z" />
    <glyph glyph-name="ellipsis" unicode="&#xaa;" horiz-adv-x="313" 
d="M199 550l0.00292969 27.998c0 20.667 -4.66699 35.834 -14 45.501s-24.666 14.5 -45.999 14.5c-8.66699 0 -16.834 -1.5 -24.501 -4.5s-14.167 -7.16699 -19.5 -12.5c-2 -1.33301 -3.5 -3 -4.5 -5s-1.5 -4.33301 -1.5 -7c0 -1.33301 0.333008 -3 1 -5
s2.33398 -5 5.00098 -9c3.33301 -5.33301 5.66602 -9.5 6.99902 -12.5s2 -5.16699 2 -6.5s-0.5 -2.66602 -1.5 -3.99902s-2.16699 -2.66602 -3.5 -3.99902l-33 -13c-0.666992 -1.33301 -1.5 -2 -2.5 -2h-3.5c-2 0 -4.5 2 -7.5 6s-6.16699 10 -9.5 18
c-0.666992 3.33301 -1.5 6.16602 -2.5 8.49902s-1.5 4.83301 -1.5 7.5c0 19.333 11.667 35.833 35 49.5s51.666 20.5 84.999 20.5c37.333 0 62.333 -5.83301 75 -17.5s19 -34.167 19 -67.5v-111c0 -18.667 1.16699 -30.667 3.5 -36s6.83301 -8 13.5 -8
c3.33301 0 6.5 0.5 9.5 1.5s6.5 2.83301 10.5 5.5l6 -20c-9.33301 -10.667 -18.333 -18.334 -27 -23.001s-17.334 -7 -26.001 -7c-12 0 -21.833 3.83301 -29.5 11.5s-12.5 18.167 -14.5 31.5c-12.667 -10.667 -24.334 -19.167 -35.001 -25.5s-21 -10.833 -31 -13.5
c-4.66699 -1.33301 -9.5 -2.33301 -14.5 -3s-10.167 -1 -15.5 -1c-20.667 0 -38 6 -52 18s-21 27.333 -21 46s7.66699 34.334 23 47.001s41 24.667 77 36l69 23v0zM199.003 527.998l-34 -13l-37 -15.5c-10 -4.33301 -18 -8.5 -24 -12.5s-10.333 -8.33301 -13 -13
s-4 -10 -4 -16c0 -10.667 4.5 -19.667 13.5 -27s19.833 -11 32.5 -11c8 0 15.667 1 23 3s14.333 5.33301 21 10c4 2.66699 7.83301 5.5 11.5 8.5s7.16699 6.16699 10.5 9.5v77v0z" />
    <glyph glyph-name="ydieresis" unicode="&#xab;" horiz-adv-x="344" 
d="M113 253l91 -223h-25l-148 223l148 225h25l-91 -225v0zM255 253l52 -179h-23l-101 179l101 175h23l-52 -175v0z" />
    <glyph glyph-name="emdash" unicode="&#xac;" 
 />
    <glyph glyph-name="uni00AD" unicode="&#xad;" horiz-adv-x="500" 
 />
    <glyph glyph-name="registered" unicode="&#xae;" horiz-adv-x="760" 
d="M380 677c95.333 -0.666992 176.833 -34.833 244.5 -102.5s101.5 -149.167 101.5 -244.5s-33.833 -176.666 -101.5 -243.999s-149.167 -101 -244.5 -101s-176.833 33.667 -244.5 101s-101.5 148.666 -101.5 243.999s33.833 176.833 101.5 244.5s149.167 101.5 244.5 101.5
v1zM380 647.001c-87.333 -0.666992 -161.833 -31.833 -223.5 -93.5s-92.5 -136.167 -92.5 -223.5s30.833 -161.833 92.5 -223.5s136.167 -92.5 223.5 -92.5s161.833 30.833 223.5 92.5s92.5 136.167 92.5 223.5s-30.833 161.833 -92.5 223.5s-136.167 92.5 -223.5 92.5v1z
M188 544.002h188.999c43.333 -0.666992 78.333 -11 105 -31s40 -46.333 40 -79c0 -27.333 -8.83301 -50 -26.5 -68s-45.167 -31.667 -82.5 -41l103 -144c5.33301 -8.66699 10.333 -15.667 15 -21s9 -9.66602 13 -12.999c4.66699 -3.33301 9.5 -5.83301 14.5 -7.5
s10.5 -2.5 16.5 -2.5v-16h-90l-144 198h-37v-115v-36c0 -11.333 4.5 -19.333 13.5 -24s23.833 -7 44.5 -7v-16h-179v17c22.667 -0.666992 36.834 2.66602 42.501 9.99902s8.5 26 8.5 56v257c0 28.667 -2.5 46.5 -7.5 53.5s-17.833 10.833 -38.5 11.5v18v0zM303.999 340.002
l15 0.000976562c39.333 -0.666992 69.833 6.83301 91.5 22.5s32.5 37.5 32.5 65.5c0 27.333 -9.16699 49.666 -27.5 66.999s-41.833 26 -70.5 26h-8c-2.66699 0 -5 -0.333008 -7 -1c-4 0 -7.83301 -0.5 -11.5 -1.5s-8.5 -2.5 -14.5 -4.5v-174v0z" />
    <glyph glyph-name="glyph263" unicode="&#xaf;" 
 />
    <glyph glyph-name="glyph264" unicode="&#xb0;" 
 />
    <glyph glyph-name="mu" unicode="&#xb1;" horiz-adv-x="667" 
d="M68 42h531v-64h-531v64v0zM68 437h233v234h64v-234h234v-64h-234v-233h-64v233h-233v64v0z" />
    <glyph glyph-name="uni00B2" unicode="&#xb2;" 
 />
    <glyph glyph-name="uni00B3" unicode="&#xb3;" 
 />
    <glyph glyph-name="acute" unicode="&#xb4;" horiz-adv-x="333" 
d="M275 680l-143 -169h-17l51 169h109v0z" />
    <glyph glyph-name="oslash" unicode="&#xb5;" horiz-adv-x="500" 
d="M58 447l79.9951 0.000976562v-260v-32c0.666992 -37.333 6.66699 -65 18 -83s28.666 -27 51.999 -27c6.66699 0 13 0.666992 19 2s12.333 3 19 5c12.667 5.33301 25.334 12.833 38.001 22.5s25.334 21.834 38.001 36.501v336h81v-319l-1 -23v-4
c0 -19.333 3.16699 -34.666 9.5 -45.999s14.833 -17 25.5 -17c10 0 18.333 5.16699 25 15.5s11.334 25.166 14.001 44.499l20 1c-2.66699 -37.333 -12.167 -65.5 -28.5 -84.5s-39.166 -28.5 -68.499 -28.5c-23.333 0 -41.166 7.33301 -53.499 22s-20.166 38 -23.499 70
c-10.667 -13.333 -20.334 -24.333 -29.001 -33s-16.667 -16 -24 -22c-6.66699 -5.33301 -13.667 -10 -21 -14s-15.333 -7.33301 -24 -10c-0.666992 -0.666992 -1.5 -1.16699 -2.5 -1.5s-2.16699 -0.833008 -3.5 -1.5c-7.33301 -3.33301 -15 -5.83301 -23 -7.5
s-16.667 -2.5 -26 -2.5c-14.667 0 -27.167 2.33301 -37.5 7s-20.166 12.667 -29.499 24c-0.666992 1.33301 -1.66699 2.83301 -3 4.5s-2.66602 3.5 -3.99902 5.5l-2 1v-22v-10v-9c0.666992 -12 2.16699 -25 4.5 -39s6.16602 -33.667 11.499 -59
c2.66699 -10 4.5 -19.167 5.5 -27.5s1.5 -15.833 1.5 -22.5c0 -15.333 -4.33301 -28.333 -13 -39s-19.667 -16 -33 -16c-12.667 0 -23 5 -31 15s-12 23 -12 39c0 7.33301 0.666992 15.166 2 23.499s3 17.166 5 26.499l15 61c2 6 3.66699 16 5 30s2.33301 28.333 3 43
c0 6.66699 0.166992 13.167 0.5 19.5s0.5 12.5 0.5 18.5v9v24v354v0z" />
    <glyph glyph-name="paragraph" unicode="&#xb6;" horiz-adv-x="453" 
d="M392 635l-0.00195312 -851h-35v851h-91v-851h-36v510h-14c-54 2 -96.5 10.167 -127.5 24.5s-54.5 36.5 -70.5 66.5c-7.33301 14 -12.666 28.667 -15.999 44s-5 31.333 -5 48c0 57.333 19.333 102.333 58 135s92.334 49 161.001 49l241 1v-27h-65v0z" />
    <glyph glyph-name="glyph265" unicode="&#xb7;" 
 />
    <glyph glyph-name="bullet" unicode="&#xb8;" horiz-adv-x="333" 
d="M175 -12l13 0.000976562c25.333 -6.66699 43.333 -15.167 54 -25.5s16 -24.5 16 -42.5c0 -26.667 -11.833 -49 -35.5 -67s-53.167 -27 -88.5 -27h-7h-7c-5.33301 0.666992 -11.5 1.66699 -18.5 3l-26.5 5l4 16c8 -1.33301 14.333 -2.5 19 -3.5s9 -1.5 13 -1.5h2.5h2.5
c17.333 0 32.333 5.16699 45 15.5s19 23.166 19 38.499s-5.83301 27.5 -17.5 36.5s-29.167 14.833 -52.5 17.5l65 35v0z" />
    <glyph glyph-name="uni00B9" unicode="&#xb9;" 
 />
    <glyph glyph-name="Agrave" unicode="&#xba;" horiz-adv-x="354" 
d="M29 528c0 36.667 14.332 68.332 42.999 94.999s62.667 40 102 40c44.667 0 81 -13 109 -39s42 -59.667 42 -101c0 -40.667 -14 -74.667 -42 -102s-62.667 -41 -104 -41s-76.666 14.333 -105.999 43s-44 63.334 -44 104.001v1zM168.999 640.998
c-26 -0.666992 -45.6699 -8.83008 -59.0029 -24.4971s-20 -38.834 -20 -69.501c0 -41.333 9.33301 -75.833 28 -103.5s41.334 -41.5 68.001 -41.5c23.333 0 42.833 8 58.5 24s23.5 36 23.5 60c0 5.33301 -0.166992 10.666 -0.5 15.999s-1.16602 10.666 -2.49902 15.999
c-2.66699 19.333 -7.66699 38 -15 56s-16 32.333 -26 43c-6.66699 7.33301 -14.667 13 -24 17s-19.666 6 -30.999 6v1z" />
    <glyph glyph-name="Ydieresis" unicode="&#xbb;" horiz-adv-x="344" 
d="M236 253l-91 225h25l147 -225l-147 -223h-25l91 223v0zM94 253l-52 175h23l100 -175l-100 -179h-23l52 179v0z" />
    <glyph glyph-name="onequarter" unicode="&#xbc;" 
 />
    <glyph glyph-name="glyph243" unicode="&#xbd;" horiz-adv-x="906" 
d="M229 -22h-53l461 728h53l-461 -728v0zM848 91l-30.999 -90.998h-251v22l3 3l6 6c4.66699 3.33301 10 7.83301 16 13.5s13.333 12.167 22 19.5l19 16l14 12c25.333 21.333 45.333 39.166 60 53.499s27 27.833 37 40.5c4 5.33301 7.33301 11 10 17s4.66699 12 6 18
c0.666992 2.66699 1.16699 5.16699 1.5 7.5s0.5 4.83301 0.5 7.5c0 17.333 -6.16699 32.333 -18.5 45s-27.5 19 -45.5 19s-35.333 -6.33301 -52 -19s-30.334 -29.667 -41.001 -51l-3 -5l-1 -2l-32 11l2 3c14 34 33.5 60.333 58.5 79s53.167 28 84.5 28
c32 0 59.333 -9.5 82 -28.5s34 -42.167 34 -69.5c0 -8 -1.16699 -16 -3.5 -24s-5.83301 -15.667 -10.5 -23c-5.33301 -9.33301 -12.666 -18.5 -21.999 -27.5s-21 -18.5 -35 -28.5c-14 -10.667 -24.833 -18.667 -32.5 -24s-12.167 -8.66602 -13.5 -9.99902l-39 -29l-35 -30
l113 -2h3c15.333 -0.666992 27.166 1.66602 35.499 6.99902s15.833 14.666 22.5 27.999l3 7l1 1h32v0zM197.001 664.002l-0.00195312 -274.999c0 -16 3.16699 -27.667 9.5 -35s16.5 -11 30.5 -11l14 1v-25h-179v25h17c14.667 -0.666992 25.334 2.5 32.001 9.5
s10 18.5 10 34.5v180c0 16 -2.66699 27.333 -8 34s-14 10 -26 10l-23 1v25h6h6c3.33301 -0.666992 6.5 -0.833984 9.5 -0.500977s5.83301 0.5 8.5 0.5c13.333 1.33301 25.833 4 37.5 8s19.834 8.33301 24.501 13c1.33301 1.33301 2.5 2.33301 3.5 3s1.83301 1 2.5 1l25 1v0z
" />
    <glyph glyph-name="threequarters" unicode="&#xbe;" 
 />
    <glyph glyph-name="oe" unicode="&#xbf;" horiz-adv-x="385" 
d="M256 330l36.002 -0.000976562v-24c0 -7.33301 0.166992 -14.333 0.5 -21s0.833008 -13.667 1.5 -21c0.666992 -6.66699 1.5 -13.5 2.5 -20.5s2.16699 -13.833 3.5 -20.5l6 -28v-4.5c0 -1 0.333008 -2.16699 1 -3.5v-2.5v-3.5c0 -8 -2 -14 -6 -18s-13 -7.33301 -27 -10
c-2 -0.666992 -4 -1.16699 -6 -1.5s-4.33301 -0.833008 -7 -1.5c-6 -1.33301 -12.167 -2.83301 -18.5 -4.5s-12.5 -3.5 -18.5 -5.5c-9.33301 -2.66699 -18.5 -5.83398 -27.5 -9.50098s-17.5 -7.5 -25.5 -11.5l-4 -2l-4 -2c-12.667 -6.66699 -23.5 -16 -32.5 -28
s-14.833 -24.667 -17.5 -38c-0.666992 -2.66699 -1.16699 -5.33398 -1.5 -8.00098s-0.5 -5.33398 -0.5 -8.00098c0 -7.33301 1 -15.166 3 -23.499s5 -16.833 9 -25.5c4 -8 8.66699 -16.333 14 -25s11.333 -16.667 18 -24c8 -8.66699 16.333 -16.167 25 -22.5
s17.667 -11.5 27 -15.5c6.66699 -2.66699 13.167 -4.66699 19.5 -6s12.5 -2 18.5 -2c5.33301 0 10.666 0.5 15.999 1.5s10.333 2.5 15 4.5l26 10c3.33301 0.666992 6.83301 1.5 10.5 2.5s7.5 1.5 11.5 1.5c13.333 0 23.833 -3.83301 31.5 -11.5s11.5 -17.834 11.5 -30.501
c0 -18 -8 -32.5 -24 -43.5s-37.333 -16.5 -64 -16.5c-10.667 0 -20.834 1 -30.501 3s-18.834 5 -27.501 9c-6 2.66699 -12.167 5.83398 -18.5 9.50098s-12.833 7.83398 -19.5 12.501c-10.667 8.66699 -20.5 17.334 -29.5 26.001s-17.167 17.667 -24.5 27
c-0.666992 1.33301 -1.5 2.5 -2.5 3.5s-1.83301 2.16699 -2.5 3.5c-7.33301 9.33301 -14.333 19.5 -21 30.5s-13 22.167 -19 33.5c-4.66699 8.66699 -9.16699 17.5 -13.5 26.5s-7.83301 17.5 -10.5 25.5c-3.33301 10 -6 20.167 -8 30.5s-3 20.833 -3 31.5
c0 36.667 11 66.667 33 90s58.333 44 109 62c25.333 9.33301 42.333 20.333 51 33s13.334 34.334 14.001 65.001v1zM209.002 450.999c0 16.667 6.16699 30.833 18.5 42.5s26.833 17.5 43.5 17.5c17.333 0 32 -5.83301 44 -17.5s18 -26.167 18 -43.5s-6 -32 -18 -44
s-26.667 -18 -44 -18c-16.667 0 -31.167 6.16699 -43.5 18.5s-18.5 26.833 -18.5 43.5v1z" />
    <glyph glyph-name="currency" unicode="&#xc0;" horiz-adv-x="719" 
d="M286 682l108.001 0.00390625l233 -544c8.66699 -20.667 16 -37.334 22 -50.001s12 -22.667 18 -30c6.66699 -8.66699 13.834 -14.334 21.501 -17.001s17.167 -4 28.5 -4v-37h-280v38c27.333 0.666992 48.166 6.66699 62.499 18s21.5 26.666 21.5 45.999v2v2
c-0.666992 5.33301 -1.66699 10.833 -3 16.5s-3.66602 12.5 -6.99902 20.5l-51 123h-265l-35 -94c-1.33301 -4 -2.5 -7.66699 -3.5 -11s-2.16699 -6.66602 -3.5 -9.99902c-1.33301 -5.33301 -2.33301 -10.833 -3 -16.5s-1 -10.834 -1 -15.501
c0 -24.667 7.16699 -43.834 21.5 -57.501s35.5 -21.834 63.5 -24.501v-37h-230v38c1.33301 0 2.83301 0.166992 4.5 0.5s3.16699 0.5 4.5 0.5c5.33301 1.33301 10 2.83301 14 4.5s7.66699 3.83398 11 6.50098c1.33301 0.666992 2.66602 1.5 3.99902 2.5
s2.66602 2.16699 3.99902 3.5c1.33301 0.666992 2.5 1.5 3.5 2.5l3.5 3.5c2.66699 2 5.16699 4.33301 7.5 7s4.5 5.66699 6.5 9c5.33301 7.33301 11 18 17 32l26 62l192 478l-16 32v0zM437.001 320.004l-113 271l-108 -271h221v0zM251.001 895.004h109l51 -169h-17l-143 169
v0z" />
    <glyph glyph-name="breve" unicode="&#xc1;" horiz-adv-x="719" 
d="M286 682l108.001 0.00390625l233 -544c8.66699 -20.667 16 -37.334 22 -50.001s12 -22.667 18 -30c6.66699 -8.66699 13.834 -14.334 21.501 -17.001s17.167 -4 28.5 -4v-37h-280v38c27.333 0.666992 48.166 6.66699 62.499 18s21.5 26.666 21.5 45.999v2v2
c-0.666992 5.33301 -1.66699 10.833 -3 16.5s-3.66602 12.5 -6.99902 20.5l-51 123h-265l-35 -94c-1.33301 -4 -2.5 -7.66699 -3.5 -11s-2.16699 -6.66602 -3.5 -9.99902c-1.33301 -5.33301 -2.33301 -10.833 -3 -16.5s-1 -10.834 -1 -15.501
c0 -24.667 7.16699 -43.834 21.5 -57.501s35.5 -21.834 63.5 -24.501v-37h-230v38c1.33301 0 2.83301 0.166992 4.5 0.5s3.16699 0.5 4.5 0.5c5.33301 1.33301 10 2.83301 14 4.5s7.66699 3.83398 11 6.50098c1.33301 0.666992 2.66602 1.5 3.99902 2.5
s2.66602 2.16699 3.99902 3.5c1.33301 0.666992 2.5 1.5 3.5 2.5l3.5 3.5c2.66699 2 5.16699 4.33301 7.5 7s4.5 5.66699 6.5 9c5.33301 7.33301 11 18 17 32l26 62l192 478l-16 32v0zM437.001 320.004l-113 271l-108 -271h221v0zM468.001 895.004l-143 -169h-17l51 169h109
v0z" />
    <glyph glyph-name="tilde" unicode="&#xc2;" horiz-adv-x="719" 
d="M286 682l108.001 0.00390625l233 -544c8.66699 -20.667 16 -37.334 22 -50.001s12 -22.667 18 -30c6.66699 -8.66699 13.834 -14.334 21.501 -17.001s17.167 -4 28.5 -4v-37h-280v38c27.333 0.666992 48.166 6.66699 62.499 18s21.5 26.666 21.5 45.999v2v2
c-0.666992 5.33301 -1.66699 10.833 -3 16.5s-3.66602 12.5 -6.99902 20.5l-51 123h-265l-35 -94c-1.33301 -4 -2.5 -7.66699 -3.5 -11s-2.16699 -6.66602 -3.5 -9.99902c-1.33301 -5.33301 -2.33301 -10.833 -3 -16.5s-1 -10.834 -1 -15.501
c0 -24.667 7.16699 -43.834 21.5 -57.501s35.5 -21.834 63.5 -24.501v-37h-230v38c1.33301 0 2.83301 0.166992 4.5 0.5s3.16699 0.5 4.5 0.5c5.33301 1.33301 10 2.83301 14 4.5s7.66699 3.83398 11 6.50098c1.33301 0.666992 2.66602 1.5 3.99902 2.5
s2.66602 2.16699 3.99902 3.5c1.33301 0.666992 2.5 1.5 3.5 2.5l3.5 3.5c2.66699 2 5.16699 4.33301 7.5 7s4.5 5.66699 6.5 9c5.33301 7.33301 11 18 17 32l26 62l192 478l-16 32v0zM437.001 320.004l-113 271l-108 -271h221v0zM314.001 883.004h90l93 -161h-15l-133 103
l-112 -103h-15l92 161v0z" />
    <glyph glyph-name="guilsinglleft" unicode="&#xc3;" horiz-adv-x="719" 
d="M286 682l108.001 0.00390625l233 -544c8.66699 -20.667 16 -37.334 22 -50.001s12 -22.667 18 -30c6.66699 -8.66699 13.834 -14.334 21.501 -17.001s17.167 -4 28.5 -4v-37h-280v38c27.333 0.666992 48.166 6.66699 62.499 18s21.5 26.666 21.5 45.999v2v2
c-0.666992 5.33301 -1.66699 10.833 -3 16.5s-3.66602 12.5 -6.99902 20.5l-51 123h-265l-35 -94c-1.33301 -4 -2.5 -7.66699 -3.5 -11s-2.16699 -6.66602 -3.5 -9.99902c-1.33301 -5.33301 -2.33301 -10.833 -3 -16.5s-1 -10.834 -1 -15.501
c0 -24.667 7.16699 -43.834 21.5 -57.501s35.5 -21.834 63.5 -24.501v-37h-230v38c1.33301 0 2.83301 0.166992 4.5 0.5s3.16699 0.5 4.5 0.5c5.33301 1.33301 10 2.83301 14 4.5s7.66699 3.83398 11 6.50098c1.33301 0.666992 2.66602 1.5 3.99902 2.5
s2.66602 2.16699 3.99902 3.5c1.33301 0.666992 2.5 1.5 3.5 2.5l3.5 3.5c2.66699 2 5.16699 4.33301 7.5 7s4.5 5.66699 6.5 9c5.33301 7.33301 11 18 17 32l26 62l192 478l-16 32v0zM437.001 320.004l-113 271l-108 -271h221v0zM219.001 719.004h-16.0029
c1.33301 40 10 71 26 93s38.333 33 67 33c2.66699 0 5.33398 -0.166992 8.00098 -0.5s5.33398 -0.5 8.00098 -0.5c10.667 -2 22 -5.83301 34 -11.5s27.333 -14.834 46 -27.501c15.333 -10.667 27.833 -18 37.5 -22s17.834 -6 24.501 -6c13.333 0 23.333 5 30 15
s12 27.667 16 53l15 1c0.666992 -2 1 -3.83301 1 -5.5v-4.5c0 -34.667 -8.83301 -63.334 -26.5 -86.001s-40.167 -34 -67.5 -34c-12.667 0 -26.834 3.33301 -42.501 10s-33.167 16.334 -52.5 29.001c-15.333 10.667 -26.833 18 -34.5 22s-14.5 6.33301 -20.5 7
c-1.33301 0.666992 -2.66602 1 -3.99902 1h-4c-11.333 0 -20.333 -4 -27 -12s-11.667 -21.333 -15 -40c-0.666992 -2 -1.16699 -4.16699 -1.5 -6.5s-0.833008 -5.16602 -1.5 -8.49902v1z" />
    <glyph glyph-name="Adieresis" unicode="&#xc4;" horiz-adv-x="719" 
d="M286 682l108.001 0.00390625l233 -544c8.66699 -20.667 16 -37.334 22 -50.001s12 -22.667 18 -30c6.66699 -8.66699 13.834 -14.334 21.501 -17.001s17.167 -4 28.5 -4v-37h-280v38c27.333 0.666992 48.166 6.66699 62.499 18s21.5 26.666 21.5 45.999v2v2
c-0.666992 5.33301 -1.66699 10.833 -3 16.5s-3.66602 12.5 -6.99902 20.5l-51 123h-265l-35 -94c-1.33301 -4 -2.5 -7.66699 -3.5 -11s-2.16699 -6.66602 -3.5 -9.99902c-1.33301 -5.33301 -2.33301 -10.833 -3 -16.5s-1 -10.834 -1 -15.501
c0 -24.667 7.16699 -43.834 21.5 -57.501s35.5 -21.834 63.5 -24.501v-37h-230v38c1.33301 0 2.83301 0.166992 4.5 0.5s3.16699 0.5 4.5 0.5c5.33301 1.33301 10 2.83301 14 4.5s7.66699 3.83398 11 6.50098c1.33301 0.666992 2.66602 1.5 3.99902 2.5
s2.66602 2.16699 3.99902 3.5c1.33301 0.666992 2.5 1.5 3.5 2.5l3.5 3.5c2.66699 2 5.16699 4.33301 7.5 7s4.5 5.66699 6.5 9c5.33301 7.33301 11 18 17 32l26 62l192 478l-16 32v0zM437.001 320.004l-113 271l-108 -271h221v0zM274.001 837.004
c14.667 -0.666992 27.167 -6.16699 37.5 -16.5s15.5 -22.833 15.5 -37.5s-5.16699 -27.167 -15.5 -37.5s-22.833 -15.5 -37.5 -15.5s-27.167 5.16699 -37.5 15.5s-15.5 22.833 -15.5 37.5s5.16699 27.167 15.5 37.5s22.833 15.5 37.5 15.5v1zM446.001 837.004
c15.333 -0.666992 28 -6.16699 38 -16.5s15 -22.833 15 -37.5s-5 -27.167 -15 -37.5s-22.667 -15.5 -38 -15.5c-14.667 0 -27.167 5.16699 -37.5 15.5s-15.5 22.833 -15.5 37.5s5.16699 27.167 15.5 37.5s22.833 15.5 37.5 15.5v1z" />
    <glyph glyph-name="Aring" unicode="&#xc5;" horiz-adv-x="719" 
d="M286 682l108.001 0.00390625l233 -544c8.66699 -20.667 16 -37.334 22 -50.001s12 -22.667 18 -30c6.66699 -8.66699 13.834 -14.334 21.501 -17.001s17.167 -4 28.5 -4v-37h-280v38c27.333 0.666992 48.166 6.66699 62.499 18s21.5 26.666 21.5 45.999v2v2
c-0.666992 5.33301 -1.66699 10.833 -3 16.5s-3.66602 12.5 -6.99902 20.5l-51 123h-265l-35 -94c-1.33301 -4 -2.5 -7.66699 -3.5 -11s-2.16699 -6.66602 -3.5 -9.99902c-1.33301 -5.33301 -2.33301 -10.833 -3 -16.5s-1 -10.834 -1 -15.501
c0 -24.667 7.16699 -43.834 21.5 -57.501s35.5 -21.834 63.5 -24.501v-37h-230v38c1.33301 0 2.83301 0.166992 4.5 0.5s3.16699 0.5 4.5 0.5c5.33301 1.33301 10 2.83301 14 4.5s7.66699 3.83398 11 6.50098c1.33301 0.666992 2.66602 1.5 3.99902 2.5
s2.66602 2.16699 3.99902 3.5c1.33301 0.666992 2.5 1.5 3.5 2.5l3.5 3.5c2.66699 2 5.16699 4.33301 7.5 7s4.5 5.66699 6.5 9c5.33301 7.33301 11 18 17 32l26 62l192 478l-16 32v0zM437.001 320.004l-113 271l-108 -271h221v0zM359.001 904.004
c26 -0.666992 48.167 -10.167 66.5 -28.5s27.5 -40.166 27.5 -65.499c0 -26 -9.16699 -48.167 -27.5 -66.5s-40.5 -27.5 -66.5 -27.5c-25.333 0 -47.166 9.16699 -65.499 27.5s-27.5 40.5 -27.5 66.5c0 25.333 9.16699 47.166 27.5 65.499s40.166 27.5 65.499 27.5v1z
M360.001 870.004c-16.667 -0.666992 -30.834 -6.66699 -42.501 -18s-17.5 -25.333 -17.5 -42s5.83301 -30.834 17.5 -42.501s25.834 -17.5 42.501 -17.5c16 0 29.833 5.83301 41.5 17.5s17.5 25.834 17.5 42.501s-5.83301 30.667 -17.5 42s-25.5 17 -41.5 17v1z" />
    <glyph glyph-name="Oslash" unicode="&#xc6;" horiz-adv-x="1000" 
d="M528 332l58.9971 -183.998c4 -12.667 7.66699 -23.5 11 -32.5l9 -24.5c9.33301 -20 20.333 -32.333 33 -37s33.667 -7 63 -7l47 1c19.333 -0.666992 34.333 -0.333984 45 0.999023s20.667 4.33301 30 9l7 4.5c2.66699 1.66699 5.33398 3.5 8.00098 5.5
c4.66699 3.33301 9 6.66602 13 9.99902s8 7 12 11c6 5.33301 12.167 11.833 18.5 19.5s13.5 17.167 21.5 28.5l26 38h38l-37 -175h-532v38h11c25.333 -0.666992 44.166 4.5 56.499 15.5s18.5 27.167 18.5 48.5c0 6 -0.666992 12.333 -2 19s-3.66602 15 -6.99902 25l-60 186
h-207l-59 -129l-4 -10c-1.33301 -3.33301 -2.66602 -6.33301 -3.99902 -9c-4.66699 -12 -8.16699 -24 -10.5 -36s-3.5 -22.667 -3.5 -32c0 -24.667 7.33301 -43.5 22 -56.5s38 -20.5 70 -22.5v-37h-239v38c18.667 2 34.5 8.83301 47.5 20.5s25.167 30.5 36.5 56.5l24 53
l174 378c4.66699 9.33301 8 18.166 10 26.499s3 15.833 3 22.5c0 15.333 -5.66699 26.833 -17 34.5s-28 11.834 -50 12.501v40h592l48 -152h-35l-10 11c-23.333 24.667 -41 42.834 -53 54.501s-22.667 20.167 -32 25.5c-3.33301 2 -6.66602 3.66699 -9.99902 5l-10 4
c-0.666992 0.666992 -1.16699 1 -1.5 1h-0.5c-8.66699 3.33301 -18.5 5.66602 -29.5 6.99902s-26.167 2 -45.5 2l-198 1l89 -269h145c36.667 -0.666992 61.667 3.5 75 12.5s20 25.5 20 49.5v5v5c-0.666992 3.33301 -1.16699 7.16602 -1.5 11.499
s-1.16602 9.83301 -2.49902 16.5l38 1l81 -237h-41l-15 22.5c-4.66699 7 -9.66699 13.167 -15 18.5c-7.33301 9.33301 -15 17.333 -23 24s-16.667 12 -26 16c-3.33301 2 -6.33301 3.5 -9 4.5s-5.33398 2.16699 -8.00098 3.5c-7.33301 2.66699 -16 4.33398 -26 5.00098
s-26 1 -48 1l-130 1v0zM404.997 372.002l-72 225l-103 -225h175v0z" />
    <glyph glyph-name="Ccedilla" unicode="&#xc7;" horiz-adv-x="781" 
d="M399 -12l13 0.000976562c25.333 -6.66699 43.333 -15.167 54 -25.5s16 -24.5 16 -42.5c0 -26.667 -11.833 -49 -35.5 -67s-53.167 -27 -88.5 -27h-7h-7c-5.33301 0.666992 -11.5 1.66699 -18.5 3l-26.5 5l4 16c8 -1.33301 14.333 -2.5 19 -3.5s9 -1.5 13 -1.5h2.5h2.5
c17.333 0 32.333 5.16699 45 15.5s19 23.166 19 38.499s-5.83301 27.5 -17.5 36.5s-29.167 14.833 -52.5 17.5l65 35v0zM716 494.001l-31.9971 -0.00195312c-22.667 50 -55.334 89.833 -98.001 119.5s-89 44.5 -139 44.5c-78.667 0 -142 -28.333 -190 -85s-72 -131 -72 -223
c0 -95.333 25.5 -172.666 76.5 -231.999s117.5 -89 199.5 -89c32.667 0 63 4.83301 91 14.5s51.667 23.5 71 41.5c15.333 13.333 27.666 29 36.999 47s17.333 40 24 66l37 1l-5 -157c-20 -8.66699 -42.5 -16.5 -67.5 -23.5s-50.167 -12.833 -75.5 -17.5
c-23.333 -4 -46 -7.16699 -68 -9.5s-42.333 -3.5 -61 -3.5c-112.667 0 -204.334 32 -275.001 96s-106 147 -106 249c0 106.667 37 194.334 111 263.001s168.667 103 284 103c37.333 0 75.333 -4 114 -12s78.667 -20 120 -36l24 -157v0z" />
    <glyph glyph-name="ring" unicode="&#xc8;" horiz-adv-x="677" 
d="M26 0v38.001h13c34 -0.666992 58 7.66602 72 24.999s21 47 21 89v377c0 42 -7 71.667 -21 89s-38 26 -72 26l-13 1v37h578v-152h-36c-10 24.667 -21.167 44.834 -33.5 60.501s-26.833 27.167 -43.5 34.5c-13.333 6 -28.333 10 -45 12s-41.334 3 -74.001 3l-134 1v-263
h133c47.333 -0.666992 81 6 101 20s31.333 38.667 34 74l40 1v-241h-40c-6 37.333 -18.667 63.5 -38 78.5s-50.666 22.5 -93.999 22.5l-136 1v-165c0 -34.667 3.5 -60.334 10.5 -77.001s19.833 -29.334 38.5 -38.001c11.333 -5.33301 23.833 -9 37.5 -11s32.5 -3 56.5 -3
c32.667 0 59.5 1.83301 80.5 5.5s40.167 9.83398 57.5 18.501s32.333 19 45 31s24.667 27.667 36 47c2 4 4.16699 8 6.5 12s4.5 8 6.5 12l45 1l-44 -167h-588v0zM230 895.001h109l51 -169h-17l-143 169v0z" />
    <glyph glyph-name="Eacute" unicode="&#xc9;" horiz-adv-x="677" 
d="M26 0v38.001h13c34 -0.666992 58 7.66602 72 24.999s21 47 21 89v377c0 42 -7 71.667 -21 89s-38 26 -72 26l-13 1v37h578v-152h-36c-10 24.667 -21.167 44.834 -33.5 60.501s-26.833 27.167 -43.5 34.5c-13.333 6 -28.333 10 -45 12s-41.334 3 -74.001 3l-134 1v-263
h133c47.333 -0.666992 81 6 101 20s31.333 38.667 34 74l40 1v-241h-40c-6 37.333 -18.667 63.5 -38 78.5s-50.666 22.5 -93.999 22.5l-136 1v-165c0 -34.667 3.5 -60.334 10.5 -77.001s19.833 -29.334 38.5 -38.001c11.333 -5.33301 23.833 -9 37.5 -11s32.5 -3 56.5 -3
c32.667 0 59.5 1.83301 80.5 5.5s40.167 9.83398 57.5 18.501s32.333 19 45 31s24.667 27.667 36 47c2 4 4.16699 8 6.5 12s4.5 8 6.5 12l45 1l-44 -167h-588v0zM447 895.001l-143 -169h-17l51 169h109v0z" />
    <glyph glyph-name="macron" unicode="&#xca;" horiz-adv-x="677" 
d="M26 0v38.001h13c34 -0.666992 58 7.66602 72 24.999s21 47 21 89v377c0 42 -7 71.667 -21 89s-38 26 -72 26l-13 1v37h578v-152h-36c-10 24.667 -21.167 44.834 -33.5 60.501s-26.833 27.167 -43.5 34.5c-13.333 6 -28.333 10 -45 12s-41.334 3 -74.001 3l-134 1v-263
h133c47.333 -0.666992 81 6 101 20s31.333 38.667 34 74l40 1v-241h-40c-6 37.333 -18.667 63.5 -38 78.5s-50.666 22.5 -93.999 22.5l-136 1v-165c0 -34.667 3.5 -60.334 10.5 -77.001s19.833 -29.334 38.5 -38.001c11.333 -5.33301 23.833 -9 37.5 -11s32.5 -3 56.5 -3
c32.667 0 59.5 1.83301 80.5 5.5s40.167 9.83398 57.5 18.501s32.333 19 45 31s24.667 27.667 36 47c2 4 4.16699 8 6.5 12s4.5 8 6.5 12l45 1l-44 -167h-588v0zM293 883.001h90l93 -161h-15l-133 103l-112 -103h-15l92 161v0z" />
    <glyph glyph-name="dotaccent" unicode="&#xcb;" horiz-adv-x="677" 
d="M26 0v38.001h13c34 -0.666992 58 7.66602 72 24.999s21 47 21 89v377c0 42 -7 71.667 -21 89s-38 26 -72 26l-13 1v37h578v-152h-36c-10 24.667 -21.167 44.834 -33.5 60.501s-26.833 27.167 -43.5 34.5c-13.333 6 -28.333 10 -45 12s-41.334 3 -74.001 3l-134 1v-263
h133c47.333 -0.666992 81 6 101 20s31.333 38.667 34 74l40 1v-241h-40c-6 37.333 -18.667 63.5 -38 78.5s-50.666 22.5 -93.999 22.5l-136 1v-165c0 -34.667 3.5 -60.334 10.5 -77.001s19.833 -29.334 38.5 -38.001c11.333 -5.33301 23.833 -9 37.5 -11s32.5 -3 56.5 -3
c32.667 0 59.5 1.83301 80.5 5.5s40.167 9.83398 57.5 18.501s32.333 19 45 31s24.667 27.667 36 47c2 4 4.16699 8 6.5 12s4.5 8 6.5 12l45 1l-44 -167h-588v0zM253 837.001c14.667 -0.666992 27.167 -6.16699 37.5 -16.5s15.5 -22.833 15.5 -37.5
s-5.16699 -27.167 -15.5 -37.5s-22.833 -15.5 -37.5 -15.5s-27.167 5.16699 -37.5 15.5s-15.5 22.833 -15.5 37.5s5.16699 27.167 15.5 37.5s22.833 15.5 37.5 15.5v1zM425 837.001c15.333 -0.666992 28 -6.16699 38 -16.5s15 -22.833 15 -37.5s-5 -27.167 -15 -37.5
s-22.667 -15.5 -38 -15.5c-14.667 0 -27.167 5.16699 -37.5 15.5s-15.5 22.833 -15.5 37.5s5.16699 27.167 15.5 37.5s22.833 15.5 37.5 15.5v1z" />
    <glyph glyph-name="caron" unicode="&#xcc;" horiz-adv-x="375" 
d="M27 682l321 0.00195312v-38h-14c-34 -0.666992 -58 -9.66699 -72 -27s-21 -47 -21 -89v-375c0 -42.667 7 -72.667 21 -90s38 -26 72 -26l14 1v-38h-321v38h16c34 -0.666992 58 7.66602 72 24.999s21 47 21 89v377c0 41.333 -7 70.666 -21 87.999s-38 26 -72 26l-16 1v38
v0zM79 895.002h109l51 -169h-17l-143 169v0z" />
    <glyph glyph-name="cedilla" unicode="&#xcd;" horiz-adv-x="375" 
d="M27 682l321 0.00195312v-38h-14c-34 -0.666992 -58 -9.66699 -72 -27s-21 -47 -21 -89v-375c0 -42.667 7 -72.667 21 -90s38 -26 72 -26l14 1v-38h-321v38h16c34 -0.666992 58 7.66602 72 24.999s21 47 21 89v377c0 41.333 -7 70.666 -21 87.999s-38 26 -72 26l-16 1v38
v0zM296 895.002l-143 -169h-17l51 169h109v0z" />
    <glyph glyph-name="hungarumlaut" unicode="&#xce;" horiz-adv-x="375" 
d="M27 682l321 0.00195312v-38h-14c-34 -0.666992 -58 -9.66699 -72 -27s-21 -47 -21 -89v-375c0 -42.667 7 -72.667 21 -90s38 -26 72 -26l14 1v-38h-321v38h16c34 -0.666992 58 7.66602 72 24.999s21 47 21 89v377c0 41.333 -7 70.666 -21 87.999s-38 26 -72 26l-16 1v38
v0zM142 883.002h90l93 -161h-15l-133 103l-112 -103h-15l92 161v0z" />
    <glyph glyph-name="ogonek" unicode="&#xcf;" horiz-adv-x="375" 
d="M27 682l321 0.00195312v-38h-14c-34 -0.666992 -58 -9.66699 -72 -27s-21 -47 -21 -89v-375c0 -42.667 7 -72.667 21 -90s38 -26 72 -26l14 1v-38h-321v38h16c34 -0.666992 58 7.66602 72 24.999s21 47 21 89v377c0 41.333 -7 70.666 -21 87.999s-38 26 -72 26l-16 1v38
v0zM102 837.002c14.667 -0.666992 27.167 -6.16699 37.5 -16.5s15.5 -22.833 15.5 -37.5s-5.16699 -27.167 -15.5 -37.5s-22.833 -15.5 -37.5 -15.5s-27.167 5.16699 -37.5 15.5s-15.5 22.833 -15.5 37.5s5.16699 27.167 15.5 37.5s22.833 15.5 37.5 15.5v1zM274 837.002
c15.333 -0.666992 28 -6.16699 38 -16.5s15 -22.833 15 -37.5s-5 -27.167 -15 -37.5s-22.667 -15.5 -38 -15.5c-14.667 0 -27.167 5.16699 -37.5 15.5s-15.5 22.833 -15.5 37.5s5.16699 27.167 15.5 37.5s22.833 15.5 37.5 15.5v1z" />
    <glyph glyph-name="glyph232" unicode="&#xd0;" horiz-adv-x="844" 
d="M140 334l-110.998 0.00292969v44h111v151c0 41.333 -7 70.666 -21 87.999s-37.667 26 -71 26l-19 1v38h351c45.333 -0.666992 81.666 -2.5 108.999 -5.5s52.666 -8.16699 75.999 -15.5c0.666992 0 1.16699 -0.166992 1.5 -0.5s0.833008 -0.5 1.5 -0.5
c21.333 -6.66699 42 -15.834 62 -27.501s39 -25.5 57 -41.5c36 -32 63.333 -68.667 82 -110s28 -86.333 28 -135c0 -78.667 -24.167 -148.667 -72.5 -210s-111.833 -102 -190.5 -122c-1.33301 -0.666992 -2.83301 -1.16699 -4.5 -1.5s-3.16699 -0.5 -4.5 -0.5
c-20 -4.66699 -41.333 -8 -64 -10s-53 -3 -91 -3l-341 1v38h19c33.333 -0.666992 57 7.66602 71 24.999s21 47 21 89v182v0zM246.002 334.003l-0.00390625 -152c0 -23.333 0.333008 -40.166 1 -50.499s2.66699 -19.5 6 -27.5c0 -0.666992 0.166992 -1.5 0.5 -2.5
s0.833008 -1.83301 1.5 -2.5c7.33301 -18 19.5 -32.167 36.5 -42.5s36.833 -15.5 59.5 -15.5l38 1c23.333 -0.666992 43.333 0 60 2s31.334 4.66699 44.001 8c54.667 15.333 98.167 47.333 130.5 96s48.5 106 48.5 172c0 49.333 -8 94.166 -24 134.499
s-39.667 75.166 -71 104.499c-13.333 12.667 -27.666 23.834 -42.999 33.501s-31.666 17.834 -48.999 24.501c-22.667 9.33301 -47.167 15.666 -73.5 18.999s-61.166 5 -104.499 5l-61 1v-264h212v-44h-212v0z" />
    <glyph glyph-name="Ntilde" unicode="&#xd1;" horiz-adv-x="844" 
d="M4 682l163.001 -0.000976562l511 -518l-8 327c-0.666992 26.667 -3 48.834 -7 66.501s-10 32.5 -18 44.5c-8.66699 13.333 -20.834 23.5 -36.501 30.5s-32.834 10.5 -51.501 10.5l-5 1v38h268v-38h-3c-32.667 -0.666992 -58.167 -13.834 -76.5 -39.501
s-27.5 -61.834 -27.5 -108.501v-5l6 -289c0 -5.33301 0.166992 -10.333 0.5 -15s0.5 -9 0.5 -13c0.666992 -16 1.33398 -29.167 2.00098 -39.5s1.66699 -20.166 3 -29.499c0 -4 0.5 -8.16699 1.5 -12.5s1.83301 -8.83301 2.5 -13.5l9 -45
c1.33301 -7.33301 2.33301 -13.166 3 -17.499s1 -8.16602 1 -11.499c0.666992 -2 1 -4 1 -6v-7h-65c-14 18.667 -27.833 36.167 -41.5 52.5s-26.834 30.833 -39.501 43.5l-414 426l8 -323c0.666992 -34 2.16699 -58.167 4.5 -72.5s6.83301 -26.5 13.5 -36.5
c0.666992 -0.666992 1.16699 -1.33398 1.5 -2.00098s0.833008 -1.33398 1.5 -2.00098c8.66699 -12.667 21.167 -22.667 37.5 -30s33.833 -11 52.5 -11l9 1v-38h-285v38h15c36 -0.666992 62.5 7.83301 79.5 25.5s25.5 44.834 25.5 81.501v46l-5 368l-46 44
c-2.66699 2 -5.16699 4.16699 -7.5 6.5s-4.83301 4.5 -7.5 6.5c-10 7.33301 -20.667 13 -32 17s-25.666 6.66699 -42.999 8l-1 41v0zM282.001 718.999h-16.0029c1.33301 40 10 71 26 93s38.333 33 67 33c2.66699 0 5.33398 -0.166992 8.00098 -0.5
s5.33398 -0.5 8.00098 -0.5c10.667 -2 22 -5.83301 34 -11.5s27.333 -14.834 46 -27.501c15.333 -10.667 27.833 -18 37.5 -22s17.834 -6 24.501 -6c13.333 0 23.333 5 30 15s12 27.667 16 53l15 1c0.666992 -2 1 -3.83301 1 -5.5v-4.5
c0 -34.667 -8.83301 -63.334 -26.5 -86.001s-40.167 -34 -67.5 -34c-12.667 0 -26.834 3.33301 -42.501 10s-33.167 16.334 -52.5 29.001c-15.333 10.667 -26.833 18 -34.5 22s-14.5 6.33301 -20.5 7c-1.33301 0.666992 -2.66602 1 -3.99902 1h-4
c-11.333 0 -20.333 -4 -27 -12s-11.667 -21.333 -15 -40c-0.666992 -2 -1.16699 -4.16699 -1.5 -6.5s-0.833008 -5.16602 -1.5 -8.49902v1z" />
    <glyph glyph-name="scaron" unicode="&#xd2;" 
 />
    <glyph glyph-name="Lslash" unicode="&#xd3;" horiz-adv-x="813" 
d="M52 328c0 106 33.333 193.332 100 261.999s151.667 103 255 103c101.333 0 185.333 -33.833 252 -101.5s100 -152.5 100 -254.5c0 -98.667 -35.167 -181.5 -105.5 -248.5s-157.833 -100.5 -262.5 -100.5c-96 0 -176.5 32.333 -241.5 97s-97.5 145.334 -97.5 242.001v1z
M172 357.999c5.33301 -99.333 30.6709 -179.166 76.0039 -239.499s102.666 -90.5 171.999 -90.5c66 0 119 25 159 75s60 115.333 60 196c0 47.333 -6.33301 93.5 -19 138.5s-30.334 84.5 -53.001 118.5c-20 30 -46 53.5 -78 70.5s-66 25.5 -102 25.5
c-28.667 0 -55.834 -5.66699 -81.501 -17s-48.5 -28.333 -68.5 -51c-22.667 -24.667 -39.334 -53.334 -50.001 -86.001s-16 -71.667 -16 -117v-12c0 -4 0.333008 -8 1 -12v1zM515.005 894.999l-143 -169h-17l51 169h109v0z" />
    <glyph glyph-name="lslash" unicode="&#xd4;" horiz-adv-x="813" 
d="M52 328c0 106 33.333 193.332 100 261.999s151.667 103 255 103c101.333 0 185.333 -33.833 252 -101.5s100 -152.5 100 -254.5c0 -98.667 -35.167 -181.5 -105.5 -248.5s-157.833 -100.5 -262.5 -100.5c-96 0 -176.5 32.333 -241.5 97s-97.5 145.334 -97.5 242.001v1z
M172 357.999c5.33301 -99.333 30.6709 -179.166 76.0039 -239.499s102.666 -90.5 171.999 -90.5c66 0 119 25 159 75s60 115.333 60 196c0 47.333 -6.33301 93.5 -19 138.5s-30.334 84.5 -53.001 118.5c-20 30 -46 53.5 -78 70.5s-66 25.5 -102 25.5
c-28.667 0 -55.834 -5.66699 -81.501 -17s-48.5 -28.333 -68.5 -51c-22.667 -24.667 -39.334 -53.334 -50.001 -86.001s-16 -71.667 -16 -117v-12c0 -4 0.333008 -8 1 -12v1zM361.005 882.999h90l93 -161h-15l-133 103l-112 -103h-15l92 161v0z" />
    <glyph glyph-name="guilsinglright" unicode="&#xd5;" horiz-adv-x="813" 
d="M52 328c0 106 33.333 193.332 100 261.999s151.667 103 255 103c101.333 0 185.333 -33.833 252 -101.5s100 -152.5 100 -254.5c0 -98.667 -35.167 -181.5 -105.5 -248.5s-157.833 -100.5 -262.5 -100.5c-96 0 -176.5 32.333 -241.5 97s-97.5 145.334 -97.5 242.001v1z
M172 357.999c5.33301 -99.333 30.6709 -179.166 76.0039 -239.499s102.666 -90.5 171.999 -90.5c66 0 119 25 159 75s60 115.333 60 196c0 47.333 -6.33301 93.5 -19 138.5s-30.334 84.5 -53.001 118.5c-20 30 -46 53.5 -78 70.5s-66 25.5 -102 25.5
c-28.667 0 -55.834 -5.66699 -81.501 -17s-48.5 -28.333 -68.5 -51c-22.667 -24.667 -39.334 -53.334 -50.001 -86.001s-16 -71.667 -16 -117v-12c0 -4 0.333008 -8 1 -12v1zM266.005 718.999h-16.0029c1.33301 40 10 71 26 93s38.333 33 67 33
c2.66699 0 5.33398 -0.166992 8.00098 -0.5s5.33398 -0.5 8.00098 -0.5c10.667 -2 22 -5.83301 34 -11.5s27.333 -14.834 46 -27.501c15.333 -10.667 27.833 -18 37.5 -22s17.834 -6 24.501 -6c13.333 0 23.333 5 30 15s12 27.667 16 53l15 1c0.666992 -2 1 -3.83301 1 -5.5
v-4.5c0 -34.667 -8.83301 -63.334 -26.5 -86.001s-40.167 -34 -67.5 -34c-12.667 0 -26.834 3.33301 -42.501 10s-33.167 16.334 -52.5 29.001c-15.333 10.667 -26.833 18 -34.5 22s-14.5 6.33301 -20.5 7c-1.33301 0.666992 -2.66602 1 -3.99902 1h-4
c-11.333 0 -20.333 -4 -27 -12s-11.667 -21.333 -15 -40c-0.666992 -2 -1.16699 -4.16699 -1.5 -6.5s-0.833008 -5.16602 -1.5 -8.49902v1z" />
    <glyph glyph-name="Odieresis" unicode="&#xd6;" horiz-adv-x="813" 
d="M52 328c0 106 33.333 193.332 100 261.999s151.667 103 255 103c101.333 0 185.333 -33.833 252 -101.5s100 -152.5 100 -254.5c0 -98.667 -35.167 -181.5 -105.5 -248.5s-157.833 -100.5 -262.5 -100.5c-96 0 -176.5 32.333 -241.5 97s-97.5 145.334 -97.5 242.001v1z
M172 357.999c5.33301 -99.333 30.6709 -179.166 76.0039 -239.499s102.666 -90.5 171.999 -90.5c66 0 119 25 159 75s60 115.333 60 196c0 47.333 -6.33301 93.5 -19 138.5s-30.334 84.5 -53.001 118.5c-20 30 -46 53.5 -78 70.5s-66 25.5 -102 25.5
c-28.667 0 -55.834 -5.66699 -81.501 -17s-48.5 -28.333 -68.5 -51c-22.667 -24.667 -39.334 -53.334 -50.001 -86.001s-16 -71.667 -16 -117v-12c0 -4 0.333008 -8 1 -12v1zM321.005 836.999c14.667 -0.666992 27.167 -6.16699 37.5 -16.5s15.5 -22.833 15.5 -37.5
s-5.16699 -27.167 -15.5 -37.5s-22.833 -15.5 -37.5 -15.5s-27.167 5.16699 -37.5 15.5s-15.5 22.833 -15.5 37.5s5.16699 27.167 15.5 37.5s22.833 15.5 37.5 15.5v1zM493.005 836.999c15.333 -0.666992 28 -6.16699 38 -16.5s15 -22.833 15 -37.5s-5 -27.167 -15 -37.5
s-22.667 -15.5 -38 -15.5c-14.667 0 -27.167 5.16699 -37.5 15.5s-15.5 22.833 -15.5 37.5s5.16699 27.167 15.5 37.5s22.833 15.5 37.5 15.5v1z" />
    <glyph glyph-name="multiply" unicode="&#xd7;" 
 />
    <glyph glyph-name="plusminus" unicode="&#xd8;" horiz-adv-x="813" 
d="M614 631l64 77.999l34 -29l-64 -76c35.333 -34.667 62.833 -75 82.5 -121s29.5 -94.333 29.5 -145c0 -100 -35.333 -183.333 -106 -250s-158.667 -100 -264 -100c-38.667 0 -74 5.16699 -106 15.5s-62.333 26.166 -91 47.499l-3 2l-68 -82l-31 28l67 81
c-36.667 34.667 -63.334 71.834 -80.001 111.501s-25 85.834 -25 138.501c0 105.333 33.5 192.166 100.5 260.499s151.833 102.5 254.5 102.5c39.333 0 75.833 -5.16699 109.5 -15.5s65.834 -26.166 96.501 -47.499v1zM585 527.999l-339 -406.999
c22 -30 48.167 -53 78.5 -69s62.5 -24 96.5 -24c65.333 0 118 25 158 75s60 115.667 60 197c0 9.33301 -0.333008 18.666 -1 27.999l-2 28c-3.33301 30.667 -9.33301 60.667 -18 90s-19 55.333 -31 78l-2 4v0zM223 158l338 408.002
c-20.667 26.667 -46.334 47.834 -77.001 63.501s-62.667 23.5 -96 23.5c-29.333 0 -56.833 -5.83301 -82.5 -17.5s-48.5 -28.834 -68.5 -51.501c-22.667 -24.667 -39.167 -53.334 -49.5 -86.001s-15.5 -71.334 -15.5 -116.001v-12c0 -4 0.333008 -8.33301 1 -13
c1.33301 -36.667 6.33301 -72.667 15 -108s20.334 -66 35.001 -92v1z" />
    <glyph glyph-name="Thorn" unicode="&#xd9;" horiz-adv-x="833" 
d="M21 682l328 -0.000976562v-38h-11c-39.333 -0.666992 -66.166 -9.16699 -80.499 -25.5s-21.5 -46.5 -21.5 -90.5v-268c0 -44.667 3.83301 -78.667 11.5 -102s21.834 -43.666 42.501 -60.999c19.333 -16.667 42 -29.167 68 -37.5s54.667 -12.5 86 -12.5
c39.333 0 73.5 5.83301 102.5 17.5s54.167 29.834 75.5 54.501c9.33301 11.333 17.166 22.833 23.499 34.5s11.166 23.5 14.499 35.5c2 8 3.83301 18 5.5 30s2.83398 24.333 3.50098 37c0.666992 6.66699 1.16699 13.334 1.5 20.001s0.5 13 0.5 19v5l-3 191v45
c-0.666992 35.333 -10 62 -28 80s-45 27 -81 27l-9 1v38h269v-38h-3c-33.333 -0.666992 -58.666 -10.167 -75.999 -28.5s-26 -45.166 -26 -80.499v-44v-195c0 -28 -0.666992 -50.5 -2 -67.5s-3.33301 -33.167 -6 -48.5c-0.666992 -2.66699 -1.33398 -5.5 -2.00098 -8.5
s-1.33398 -5.83301 -2.00098 -8.5c-4 -17.333 -10.167 -33.833 -18.5 -49.5s-18.166 -29.834 -29.499 -42.501c-26.667 -28.667 -58.5 -49.667 -95.5 -63s-82.167 -20 -135.5 -20c-73.333 0 -135 13.5 -185 40.5s-82.333 64.167 -97 111.5
c-0.666992 3.33301 -1.5 6.66602 -2.5 9.99902s-1.83301 6.33301 -2.5 9c-2.66699 11.333 -4.33398 24 -5.00098 38s-1 35 -1 63v269c0 41.333 -7 70.666 -21 87.999s-37.667 26 -71 26l-17 1v38v0zM308 894.999h109l51 -169h-17l-143 169v0z" />
    <glyph glyph-name="Eth" unicode="&#xda;" horiz-adv-x="833" 
d="M21 682l328 -0.000976562v-38h-11c-39.333 -0.666992 -66.166 -9.16699 -80.499 -25.5s-21.5 -46.5 -21.5 -90.5v-268c0 -44.667 3.83301 -78.667 11.5 -102s21.834 -43.666 42.501 -60.999c19.333 -16.667 42 -29.167 68 -37.5s54.667 -12.5 86 -12.5
c39.333 0 73.5 5.83301 102.5 17.5s54.167 29.834 75.5 54.501c9.33301 11.333 17.166 22.833 23.499 34.5s11.166 23.5 14.499 35.5c2 8 3.83301 18 5.5 30s2.83398 24.333 3.50098 37c0.666992 6.66699 1.16699 13.334 1.5 20.001s0.5 13 0.5 19v5l-3 191v45
c-0.666992 35.333 -10 62 -28 80s-45 27 -81 27l-9 1v38h269v-38h-3c-33.333 -0.666992 -58.666 -10.167 -75.999 -28.5s-26 -45.166 -26 -80.499v-44v-195c0 -28 -0.666992 -50.5 -2 -67.5s-3.33301 -33.167 -6 -48.5c-0.666992 -2.66699 -1.33398 -5.5 -2.00098 -8.5
s-1.33398 -5.83301 -2.00098 -8.5c-4 -17.333 -10.167 -33.833 -18.5 -49.5s-18.166 -29.834 -29.499 -42.501c-26.667 -28.667 -58.5 -49.667 -95.5 -63s-82.167 -20 -135.5 -20c-73.333 0 -135 13.5 -185 40.5s-82.333 64.167 -97 111.5
c-0.666992 3.33301 -1.5 6.66602 -2.5 9.99902s-1.83301 6.33301 -2.5 9c-2.66699 11.333 -4.33398 24 -5.00098 38s-1 35 -1 63v269c0 41.333 -7 70.666 -21 87.999s-37.667 26 -71 26l-17 1v38v0zM525 894.999l-143 -169h-17l51 169h109v0z" />
    <glyph glyph-name="eth" unicode="&#xdb;" horiz-adv-x="833" 
d="M21 682l328 -0.000976562v-38h-11c-39.333 -0.666992 -66.166 -9.16699 -80.499 -25.5s-21.5 -46.5 -21.5 -90.5v-268c0 -44.667 3.83301 -78.667 11.5 -102s21.834 -43.666 42.501 -60.999c19.333 -16.667 42 -29.167 68 -37.5s54.667 -12.5 86 -12.5
c39.333 0 73.5 5.83301 102.5 17.5s54.167 29.834 75.5 54.501c9.33301 11.333 17.166 22.833 23.499 34.5s11.166 23.5 14.499 35.5c2 8 3.83301 18 5.5 30s2.83398 24.333 3.50098 37c0.666992 6.66699 1.16699 13.334 1.5 20.001s0.5 13 0.5 19v5l-3 191v45
c-0.666992 35.333 -10 62 -28 80s-45 27 -81 27l-9 1v38h269v-38h-3c-33.333 -0.666992 -58.666 -10.167 -75.999 -28.5s-26 -45.166 -26 -80.499v-44v-195c0 -28 -0.666992 -50.5 -2 -67.5s-3.33301 -33.167 -6 -48.5c-0.666992 -2.66699 -1.33398 -5.5 -2.00098 -8.5
s-1.33398 -5.83301 -2.00098 -8.5c-4 -17.333 -10.167 -33.833 -18.5 -49.5s-18.166 -29.834 -29.499 -42.501c-26.667 -28.667 -58.5 -49.667 -95.5 -63s-82.167 -20 -135.5 -20c-73.333 0 -135 13.5 -185 40.5s-82.333 64.167 -97 111.5
c-0.666992 3.33301 -1.5 6.66602 -2.5 9.99902s-1.83301 6.33301 -2.5 9c-2.66699 11.333 -4.33398 24 -5.00098 38s-1 35 -1 63v269c0 41.333 -7 70.666 -21 87.999s-37.667 26 -71 26l-17 1v38v0zM371 882.999h90l93 -161h-15l-133 103l-112 -103h-15l92 161v0z" />
    <glyph glyph-name="Udieresis" unicode="&#xdc;" horiz-adv-x="833" 
d="M21 682l328 -0.000976562v-38h-11c-39.333 -0.666992 -66.166 -9.16699 -80.499 -25.5s-21.5 -46.5 -21.5 -90.5v-268c0 -44.667 3.83301 -78.667 11.5 -102s21.834 -43.666 42.501 -60.999c19.333 -16.667 42 -29.167 68 -37.5s54.667 -12.5 86 -12.5
c39.333 0 73.5 5.83301 102.5 17.5s54.167 29.834 75.5 54.501c9.33301 11.333 17.166 22.833 23.499 34.5s11.166 23.5 14.499 35.5c2 8 3.83301 18 5.5 30s2.83398 24.333 3.50098 37c0.666992 6.66699 1.16699 13.334 1.5 20.001s0.5 13 0.5 19v5l-3 191v45
c-0.666992 35.333 -10 62 -28 80s-45 27 -81 27l-9 1v38h269v-38h-3c-33.333 -0.666992 -58.666 -10.167 -75.999 -28.5s-26 -45.166 -26 -80.499v-44v-195c0 -28 -0.666992 -50.5 -2 -67.5s-3.33301 -33.167 -6 -48.5c-0.666992 -2.66699 -1.33398 -5.5 -2.00098 -8.5
s-1.33398 -5.83301 -2.00098 -8.5c-4 -17.333 -10.167 -33.833 -18.5 -49.5s-18.166 -29.834 -29.499 -42.501c-26.667 -28.667 -58.5 -49.667 -95.5 -63s-82.167 -20 -135.5 -20c-73.333 0 -135 13.5 -185 40.5s-82.333 64.167 -97 111.5
c-0.666992 3.33301 -1.5 6.66602 -2.5 9.99902s-1.83301 6.33301 -2.5 9c-2.66699 11.333 -4.33398 24 -5.00098 38s-1 35 -1 63v269c0 41.333 -7 70.666 -21 87.999s-37.667 26 -71 26l-17 1v38v0zM331 836.999c14.667 -0.666992 27.167 -6.16699 37.5 -16.5
s15.5 -22.833 15.5 -37.5s-5.16699 -27.167 -15.5 -37.5s-22.833 -15.5 -37.5 -15.5s-27.167 5.16699 -37.5 15.5s-15.5 22.833 -15.5 37.5s5.16699 27.167 15.5 37.5s22.833 15.5 37.5 15.5v1zM503 836.999c15.333 -0.666992 28 -6.16699 38 -16.5s15 -22.833 15 -37.5
s-5 -27.167 -15 -37.5s-22.667 -15.5 -38 -15.5c-14.667 0 -27.167 5.16699 -37.5 15.5s-15.5 22.833 -15.5 37.5s5.16699 27.167 15.5 37.5s22.833 15.5 37.5 15.5v1z" />
    <glyph glyph-name="Yacute" unicode="&#xdd;" 
 />
    <glyph glyph-name="glyph236" unicode="&#xde;" horiz-adv-x="635" 
d="M33 682l309.999 0.000976562v-38h-10c-30.667 -0.666992 -53.667 -9 -69 -25s-23 -40.333 -23 -73v-17h63c60 -0.666992 104 -2.5 132 -5.5s52.667 -9.5 74 -19.5c2 -1.33301 3.83301 -2.33301 5.5 -3s3.5 -1.66699 5.5 -3c27.333 -13.333 48.833 -33.666 64.5 -60.999
s23.5 -57.333 23.5 -90c0 -58 -22.833 -104.833 -68.5 -140.5s-105.834 -53.5 -180.501 -53.5c-22.667 0 -40 2.5 -52 7.5s-18 12.167 -18 21.5c0 7.33301 2.5 12.666 7.5 15.999s11.833 5 20.5 5l22 1h9c40 -0.666992 73 11.833 99 37.5s39 57.834 39 96.501v5.5v5.5
c-2 20.667 -7.66699 40.667 -17 60s-21.666 34.666 -36.999 45.999c-13.333 11.333 -29.666 19.5 -48.999 24.5s-42.333 7.5 -69 7.5l-74 1v-335c0 -42.667 7 -72.667 21 -90s37.667 -26 71 -26l22 1v-38h-322v38h10c33.333 -0.666992 57 7.66602 71 24.999s21 47 21 89v378
c0 41.333 -6.83301 70.5 -20.5 87.5s-37.5 25.5 -71.5 25.5l-10 1v38v0z" />
    <glyph glyph-name="germandbls" unicode="&#xdf;" horiz-adv-x="573" 
d="M98 396h-76.001v26c0 8.66699 2 14.667 6 18s12.333 6 25 8c14 2.66699 24 7.33398 30 14.001s11.333 19.334 16 38.001l12 45c7.33301 28.667 20.833 55.167 40.5 79.5s41.834 42.166 66.501 53.499c12.667 5.33301 26.834 9.5 42.501 12.5s32.167 4.5 49.5 4.5
c55.333 0 100.833 -13.5 136.5 -40.5s53.5 -61.833 53.5 -104.5c0 -32.667 -11.167 -59.834 -33.5 -81.501s-58.5 -41.167 -108.5 -58.5v-1c2.66699 -1.33301 5.33398 -2.16602 8.00098 -2.49902s5.33398 -0.833008 8.00098 -1.5c15.333 -3.33301 28 -6.83301 38 -10.5
s19.667 -8.5 29 -14.5c3.33301 -2 6.66602 -4.33301 9.99902 -7l10 -8c19.333 -16 35.333 -37.333 48 -64s20 -54.334 22 -83.001c0.666992 -2.66699 1 -5.5 1 -8.5v-8.5c0 -4.66699 -0.166992 -9.33398 -0.5 -14.001s-0.833008 -9.33398 -1.5 -14.001
c-4 -31.333 -13.667 -61.333 -29 -90s-34 -51 -56 -67c-6.66699 -4.66699 -15 -8.83398 -25 -12.501s-20.333 -6.16699 -31 -7.5c-4 -1.33301 -8.33301 -2.16602 -13 -2.49902s-9 -0.5 -13 -0.5c-25.333 0 -46.166 6 -62.499 18s-24.5 28 -24.5 48c0 12 4 22 12 30
s17.667 12 29 12s19.833 -3.33301 25.5 -10s9.16699 -17 10.5 -31c1.33301 -12 4.66602 -20.833 9.99902 -26.5s13.333 -8.5 24 -8.5c18 0 33.167 12 45.5 36s18.5 53.333 18.5 88c0 42.667 -9.5 83.167 -28.5 121.5s-44.167 66.5 -75.5 84.5
c-2.66699 2 -5.33398 3.66699 -8.00098 5l-8 4c-4 2 -8 3.66699 -12 5s-8.33301 2.66602 -13 3.99902c-4 1.33301 -8.16699 2.5 -12.5 3.5l-15.5 3.5v42c43.333 7.33301 75.666 21.5 96.999 42.5s32 48.167 32 81.5c0 30 -11 55.5 -33 76.5s-49 31.5 -81 31.5
c-22 0 -41.833 -5.66699 -59.5 -17s-30.167 -26.666 -37.5 -45.999c-1.33301 -2.66699 -2.5 -5.5 -3.5 -8.5s-1.83301 -5.83301 -2.5 -8.5c-3.33301 -11.333 -5.66602 -23.666 -6.99902 -36.999s-2 -31.666 -2 -54.999v-350c0 -32 4.66699 -56.167 14 -72.5
s22.666 -24.5 39.999 -24.5l3 1v-36h-216v38h4c24 -0.666992 42 8.5 54 27.5s18 47.833 18 86.5v244v0z" />
    <glyph glyph-name="agrave" unicode="&#xe0;" horiz-adv-x="479" 
d="M305 271l0.00195312 45.9941c0 35.333 -7.16699 61 -21.5 77s-37.833 24 -70.5 24c-13.333 0 -26.166 -2.33301 -38.499 -7s-22.5 -11.667 -30.5 -21c-2.66699 -2.66699 -4.66699 -5.66699 -6 -9s-2 -6.66602 -2 -9.99902v-2v-2c0.666992 -2.66699 1.66699 -5.5 3 -8.5
s3.33301 -7.16699 6 -12.5c5.33301 -8.66699 9 -15.334 11 -20.001s3 -8.66699 3 -12c0 -2.66699 -0.666992 -5 -2 -7s-3.33301 -3.66699 -6 -5l-51 -23c-2 -1.33301 -3.66699 -2.16602 -5 -2.49902s-2.33301 -0.5 -3 -0.5h-1.5h-0.5
c-3.33301 1.33301 -6.83301 4.83301 -10.5 10.5s-8.5 15.834 -14.5 30.501c-0.666992 2 -1.5 4.16699 -2.5 6.5s-1.5 4.5 -1.5 6.5c-0.666992 2 -1.16699 4.16699 -1.5 6.5s-0.5 4.5 -0.5 6.5c0 32.667 18 60.334 54 83.001s79.333 34 130 34c36.667 0 67 -5.16699 91 -15.5
s39.667 -25.166 47 -44.499c0.666992 -1.33301 1.16699 -2.66602 1.5 -3.99902s0.5 -2.66602 0.5 -3.99902c2.66699 -8 4.33398 -17 5.00098 -27s1 -26 1 -48v-184c0 -32 1.5 -52.167 4.5 -60.5s9.83301 -12.5 20.5 -12.5c4.66699 0 9.5 1 14.5 3s10.5 4.66699 16.5 8l9 -34
c-10.667 -12.667 -20.834 -22.5 -30.501 -29.5s-19.167 -11.833 -28.5 -14.5c-4 -1.33301 -7.83301 -2.33301 -11.5 -3s-7.5 -1 -11.5 -1c-18.667 0 -33.834 6.16699 -45.501 18.5s-18.834 29.833 -21.501 52.5c-20.667 -18.667 -39.5 -33.334 -56.5 -44.001
s-33.5 -18 -49.5 -22c-6.66699 -1.33301 -13.334 -2.5 -20.001 -3.5s-13.667 -1.5 -21 -1.5c-32.667 0 -59.667 10.167 -81 30.5s-32 45.833 -32 76.5c0 16.667 3.66699 32.167 11 46.5s18 26.833 32 37.5c0.666992 0 1.16699 0.166992 1.5 0.5l1.5 1.5
c6.66699 5.33301 14 10.333 22 15s16.667 9.33398 26 14.001c8 3.33301 16.833 6.83301 26.5 10.5s20.5 7.5 32.5 11.5l107 38v0zM305.002 232.994l-52.999 -19.999c-22 -9.33301 -40.5 -17.5 -55.5 -24.5s-27.167 -13.5 -36.5 -19.5c-10 -7.33301 -17 -15 -21 -23
s-6 -17 -6 -27c0 -18.667 6.66699 -34 20 -46s30.333 -18 51 -18c14.667 0 28.667 2.66699 42 8s26.333 13.666 39 24.999c3.33301 2.66699 6.66602 5.66699 9.99902 9l10 10v126v0zM131.003 679.995h109l51 -169h-17l-143 169v0z" />
    <glyph glyph-name="aacute" unicode="&#xe1;" horiz-adv-x="479" 
d="M305 271l0.00195312 45.9941c0 35.333 -7.16699 61 -21.5 77s-37.833 24 -70.5 24c-13.333 0 -26.166 -2.33301 -38.499 -7s-22.5 -11.667 -30.5 -21c-2.66699 -2.66699 -4.66699 -5.66699 -6 -9s-2 -6.66602 -2 -9.99902v-2v-2c0.666992 -2.66699 1.66699 -5.5 3 -8.5
s3.33301 -7.16699 6 -12.5c5.33301 -8.66699 9 -15.334 11 -20.001s3 -8.66699 3 -12c0 -2.66699 -0.666992 -5 -2 -7s-3.33301 -3.66699 -6 -5l-51 -23c-2 -1.33301 -3.66699 -2.16602 -5 -2.49902s-2.33301 -0.5 -3 -0.5h-1.5h-0.5
c-3.33301 1.33301 -6.83301 4.83301 -10.5 10.5s-8.5 15.834 -14.5 30.501c-0.666992 2 -1.5 4.16699 -2.5 6.5s-1.5 4.5 -1.5 6.5c-0.666992 2 -1.16699 4.16699 -1.5 6.5s-0.5 4.5 -0.5 6.5c0 32.667 18 60.334 54 83.001s79.333 34 130 34c36.667 0 67 -5.16699 91 -15.5
s39.667 -25.166 47 -44.499c0.666992 -1.33301 1.16699 -2.66602 1.5 -3.99902s0.5 -2.66602 0.5 -3.99902c2.66699 -8 4.33398 -17 5.00098 -27s1 -26 1 -48v-184c0 -32 1.5 -52.167 4.5 -60.5s9.83301 -12.5 20.5 -12.5c4.66699 0 9.5 1 14.5 3s10.5 4.66699 16.5 8l9 -34
c-10.667 -12.667 -20.834 -22.5 -30.501 -29.5s-19.167 -11.833 -28.5 -14.5c-4 -1.33301 -7.83301 -2.33301 -11.5 -3s-7.5 -1 -11.5 -1c-18.667 0 -33.834 6.16699 -45.501 18.5s-18.834 29.833 -21.501 52.5c-20.667 -18.667 -39.5 -33.334 -56.5 -44.001
s-33.5 -18 -49.5 -22c-6.66699 -1.33301 -13.334 -2.5 -20.001 -3.5s-13.667 -1.5 -21 -1.5c-32.667 0 -59.667 10.167 -81 30.5s-32 45.833 -32 76.5c0 16.667 3.66699 32.167 11 46.5s18 26.833 32 37.5c0.666992 0 1.16699 0.166992 1.5 0.5l1.5 1.5
c6.66699 5.33301 14 10.333 22 15s16.667 9.33398 26 14.001c8 3.33301 16.833 6.83301 26.5 10.5s20.5 7.5 32.5 11.5l107 38v0zM305.002 232.994l-52.999 -19.999c-22 -9.33301 -40.5 -17.5 -55.5 -24.5s-27.167 -13.5 -36.5 -19.5c-10 -7.33301 -17 -15 -21 -23
s-6 -17 -6 -27c0 -18.667 6.66699 -34 20 -46s30.333 -18 51 -18c14.667 0 28.667 2.66699 42 8s26.333 13.666 39 24.999c3.33301 2.66699 6.66602 5.66699 9.99902 9l10 10v126v0zM348.003 679.995l-143 -169h-17l51 169h109v0z" />
    <glyph glyph-name="acircumflex" unicode="&#xe2;" horiz-adv-x="479" 
d="M305 271l0.00195312 45.9941c0 35.333 -7.16699 61 -21.5 77s-37.833 24 -70.5 24c-13.333 0 -26.166 -2.33301 -38.499 -7s-22.5 -11.667 -30.5 -21c-2.66699 -2.66699 -4.66699 -5.66699 -6 -9s-2 -6.66602 -2 -9.99902v-2v-2c0.666992 -2.66699 1.66699 -5.5 3 -8.5
s3.33301 -7.16699 6 -12.5c5.33301 -8.66699 9 -15.334 11 -20.001s3 -8.66699 3 -12c0 -2.66699 -0.666992 -5 -2 -7s-3.33301 -3.66699 -6 -5l-51 -23c-2 -1.33301 -3.66699 -2.16602 -5 -2.49902s-2.33301 -0.5 -3 -0.5h-1.5h-0.5
c-3.33301 1.33301 -6.83301 4.83301 -10.5 10.5s-8.5 15.834 -14.5 30.501c-0.666992 2 -1.5 4.16699 -2.5 6.5s-1.5 4.5 -1.5 6.5c-0.666992 2 -1.16699 4.16699 -1.5 6.5s-0.5 4.5 -0.5 6.5c0 32.667 18 60.334 54 83.001s79.333 34 130 34c36.667 0 67 -5.16699 91 -15.5
s39.667 -25.166 47 -44.499c0.666992 -1.33301 1.16699 -2.66602 1.5 -3.99902s0.5 -2.66602 0.5 -3.99902c2.66699 -8 4.33398 -17 5.00098 -27s1 -26 1 -48v-184c0 -32 1.5 -52.167 4.5 -60.5s9.83301 -12.5 20.5 -12.5c4.66699 0 9.5 1 14.5 3s10.5 4.66699 16.5 8l9 -34
c-10.667 -12.667 -20.834 -22.5 -30.501 -29.5s-19.167 -11.833 -28.5 -14.5c-4 -1.33301 -7.83301 -2.33301 -11.5 -3s-7.5 -1 -11.5 -1c-18.667 0 -33.834 6.16699 -45.501 18.5s-18.834 29.833 -21.501 52.5c-20.667 -18.667 -39.5 -33.334 -56.5 -44.001
s-33.5 -18 -49.5 -22c-6.66699 -1.33301 -13.334 -2.5 -20.001 -3.5s-13.667 -1.5 -21 -1.5c-32.667 0 -59.667 10.167 -81 30.5s-32 45.833 -32 76.5c0 16.667 3.66699 32.167 11 46.5s18 26.833 32 37.5c0.666992 0 1.16699 0.166992 1.5 0.5l1.5 1.5
c6.66699 5.33301 14 10.333 22 15s16.667 9.33398 26 14.001c8 3.33301 16.833 6.83301 26.5 10.5s20.5 7.5 32.5 11.5l107 38v0zM305.002 232.994l-52.999 -19.999c-22 -9.33301 -40.5 -17.5 -55.5 -24.5s-27.167 -13.5 -36.5 -19.5c-10 -7.33301 -17 -15 -21 -23
s-6 -17 -6 -27c0 -18.667 6.66699 -34 20 -46s30.333 -18 51 -18c14.667 0 28.667 2.66699 42 8s26.333 13.666 39 24.999c3.33301 2.66699 6.66602 5.66699 9.99902 9l10 10v126v0zM194.003 667.995h90l93 -161h-15l-133 103l-112 -103h-15l92 161v0z" />
    <glyph glyph-name="atilde" unicode="&#xe3;" horiz-adv-x="479" 
d="M305 271l0.00195312 45.9941c0 35.333 -7.16699 61 -21.5 77s-37.833 24 -70.5 24c-13.333 0 -26.166 -2.33301 -38.499 -7s-22.5 -11.667 -30.5 -21c-2.66699 -2.66699 -4.66699 -5.66699 -6 -9s-2 -6.66602 -2 -9.99902v-2v-2c0.666992 -2.66699 1.66699 -5.5 3 -8.5
s3.33301 -7.16699 6 -12.5c5.33301 -8.66699 9 -15.334 11 -20.001s3 -8.66699 3 -12c0 -2.66699 -0.666992 -5 -2 -7s-3.33301 -3.66699 -6 -5l-51 -23c-2 -1.33301 -3.66699 -2.16602 -5 -2.49902s-2.33301 -0.5 -3 -0.5h-1.5h-0.5
c-3.33301 1.33301 -6.83301 4.83301 -10.5 10.5s-8.5 15.834 -14.5 30.501c-0.666992 2 -1.5 4.16699 -2.5 6.5s-1.5 4.5 -1.5 6.5c-0.666992 2 -1.16699 4.16699 -1.5 6.5s-0.5 4.5 -0.5 6.5c0 32.667 18 60.334 54 83.001s79.333 34 130 34c36.667 0 67 -5.16699 91 -15.5
s39.667 -25.166 47 -44.499c0.666992 -1.33301 1.16699 -2.66602 1.5 -3.99902s0.5 -2.66602 0.5 -3.99902c2.66699 -8 4.33398 -17 5.00098 -27s1 -26 1 -48v-184c0 -32 1.5 -52.167 4.5 -60.5s9.83301 -12.5 20.5 -12.5c4.66699 0 9.5 1 14.5 3s10.5 4.66699 16.5 8l9 -34
c-10.667 -12.667 -20.834 -22.5 -30.501 -29.5s-19.167 -11.833 -28.5 -14.5c-4 -1.33301 -7.83301 -2.33301 -11.5 -3s-7.5 -1 -11.5 -1c-18.667 0 -33.834 6.16699 -45.501 18.5s-18.834 29.833 -21.501 52.5c-20.667 -18.667 -39.5 -33.334 -56.5 -44.001
s-33.5 -18 -49.5 -22c-6.66699 -1.33301 -13.334 -2.5 -20.001 -3.5s-13.667 -1.5 -21 -1.5c-32.667 0 -59.667 10.167 -81 30.5s-32 45.833 -32 76.5c0 16.667 3.66699 32.167 11 46.5s18 26.833 32 37.5c0.666992 0 1.16699 0.166992 1.5 0.5l1.5 1.5
c6.66699 5.33301 14 10.333 22 15s16.667 9.33398 26 14.001c8 3.33301 16.833 6.83301 26.5 10.5s20.5 7.5 32.5 11.5l107 38v0zM305.002 232.994l-52.999 -19.999c-22 -9.33301 -40.5 -17.5 -55.5 -24.5s-27.167 -13.5 -36.5 -19.5c-10 -7.33301 -17 -15 -21 -23
s-6 -17 -6 -27c0 -18.667 6.66699 -34 20 -46s30.333 -18 51 -18c14.667 0 28.667 2.66699 42 8s26.333 13.666 39 24.999c3.33301 2.66699 6.66602 5.66699 9.99902 9l10 10v126v0zM99.0029 503.995h-16.0029c1.33301 40 10 71 26 93s38.333 33 67 33
c2.66699 0 5.33398 -0.166992 8.00098 -0.5s5.33398 -0.5 8.00098 -0.5c10.667 -2 22 -5.83301 34 -11.5s27.333 -14.834 46 -27.501c15.333 -10.667 27.833 -18 37.5 -22s17.834 -6 24.501 -6c13.333 0 23.333 5 30 15s12 27.667 16 53l15 1c0.666992 -2 1 -3.83301 1 -5.5
v-4.5c0 -34.667 -8.83301 -63.334 -26.5 -86.001s-40.167 -34 -67.5 -34c-12.667 0 -26.834 3.33301 -42.501 10s-33.167 16.334 -52.5 29.001c-15.333 10.667 -26.833 18 -34.5 22s-14.5 6.33301 -20.5 7c-1.33301 0.666992 -2.66602 1 -3.99902 1h-4
c-11.333 0 -20.333 -4 -27 -12s-11.667 -21.333 -15 -40c-0.666992 -2 -1.16699 -4.16699 -1.5 -6.5s-0.833008 -5.16602 -1.5 -8.49902v1z" />
    <glyph glyph-name="adieresis" unicode="&#xe4;" horiz-adv-x="479" 
d="M305 271l0.00195312 45.9941c0 35.333 -7.16699 61 -21.5 77s-37.833 24 -70.5 24c-13.333 0 -26.166 -2.33301 -38.499 -7s-22.5 -11.667 -30.5 -21c-2.66699 -2.66699 -4.66699 -5.66699 -6 -9s-2 -6.66602 -2 -9.99902v-2v-2c0.666992 -2.66699 1.66699 -5.5 3 -8.5
s3.33301 -7.16699 6 -12.5c5.33301 -8.66699 9 -15.334 11 -20.001s3 -8.66699 3 -12c0 -2.66699 -0.666992 -5 -2 -7s-3.33301 -3.66699 -6 -5l-51 -23c-2 -1.33301 -3.66699 -2.16602 -5 -2.49902s-2.33301 -0.5 -3 -0.5h-1.5h-0.5
c-3.33301 1.33301 -6.83301 4.83301 -10.5 10.5s-8.5 15.834 -14.5 30.501c-0.666992 2 -1.5 4.16699 -2.5 6.5s-1.5 4.5 -1.5 6.5c-0.666992 2 -1.16699 4.16699 -1.5 6.5s-0.5 4.5 -0.5 6.5c0 32.667 18 60.334 54 83.001s79.333 34 130 34c36.667 0 67 -5.16699 91 -15.5
s39.667 -25.166 47 -44.499c0.666992 -1.33301 1.16699 -2.66602 1.5 -3.99902s0.5 -2.66602 0.5 -3.99902c2.66699 -8 4.33398 -17 5.00098 -27s1 -26 1 -48v-184c0 -32 1.5 -52.167 4.5 -60.5s9.83301 -12.5 20.5 -12.5c4.66699 0 9.5 1 14.5 3s10.5 4.66699 16.5 8l9 -34
c-10.667 -12.667 -20.834 -22.5 -30.501 -29.5s-19.167 -11.833 -28.5 -14.5c-4 -1.33301 -7.83301 -2.33301 -11.5 -3s-7.5 -1 -11.5 -1c-18.667 0 -33.834 6.16699 -45.501 18.5s-18.834 29.833 -21.501 52.5c-20.667 -18.667 -39.5 -33.334 -56.5 -44.001
s-33.5 -18 -49.5 -22c-6.66699 -1.33301 -13.334 -2.5 -20.001 -3.5s-13.667 -1.5 -21 -1.5c-32.667 0 -59.667 10.167 -81 30.5s-32 45.833 -32 76.5c0 16.667 3.66699 32.167 11 46.5s18 26.833 32 37.5c0.666992 0 1.16699 0.166992 1.5 0.5l1.5 1.5
c6.66699 5.33301 14 10.333 22 15s16.667 9.33398 26 14.001c8 3.33301 16.833 6.83301 26.5 10.5s20.5 7.5 32.5 11.5l107 38v0zM305.002 232.994l-52.999 -19.999c-22 -9.33301 -40.5 -17.5 -55.5 -24.5s-27.167 -13.5 -36.5 -19.5c-10 -7.33301 -17 -15 -21 -23
s-6 -17 -6 -27c0 -18.667 6.66699 -34 20 -46s30.333 -18 51 -18c14.667 0 28.667 2.66699 42 8s26.333 13.666 39 24.999c3.33301 2.66699 6.66602 5.66699 9.99902 9l10 10v126v0zM154.003 621.995c14.667 -0.666992 27.167 -6.16699 37.5 -16.5s15.5 -22.833 15.5 -37.5
s-5.16699 -27.167 -15.5 -37.5s-22.833 -15.5 -37.5 -15.5s-27.167 5.16699 -37.5 15.5s-15.5 22.833 -15.5 37.5s5.16699 27.167 15.5 37.5s22.833 15.5 37.5 15.5v1zM326.003 621.995c15.333 -0.666992 28 -6.16699 38 -16.5s15 -22.833 15 -37.5s-5 -27.167 -15 -37.5
s-22.667 -15.5 -38 -15.5c-14.667 0 -27.167 5.16699 -37.5 15.5s-15.5 22.833 -15.5 37.5s5.16699 27.167 15.5 37.5s22.833 15.5 37.5 15.5v1z" />
    <glyph glyph-name="aring" unicode="&#xe5;" horiz-adv-x="479" 
d="M305 271l0.00195312 45.9941c0 35.333 -7.16699 61 -21.5 77s-37.833 24 -70.5 24c-13.333 0 -26.166 -2.33301 -38.499 -7s-22.5 -11.667 -30.5 -21c-2.66699 -2.66699 -4.66699 -5.66699 -6 -9s-2 -6.66602 -2 -9.99902v-2v-2c0.666992 -2.66699 1.66699 -5.5 3 -8.5
s3.33301 -7.16699 6 -12.5c5.33301 -8.66699 9 -15.334 11 -20.001s3 -8.66699 3 -12c0 -2.66699 -0.666992 -5 -2 -7s-3.33301 -3.66699 -6 -5l-51 -23c-2 -1.33301 -3.66699 -2.16602 -5 -2.49902s-2.33301 -0.5 -3 -0.5h-1.5h-0.5
c-3.33301 1.33301 -6.83301 4.83301 -10.5 10.5s-8.5 15.834 -14.5 30.501c-0.666992 2 -1.5 4.16699 -2.5 6.5s-1.5 4.5 -1.5 6.5c-0.666992 2 -1.16699 4.16699 -1.5 6.5s-0.5 4.5 -0.5 6.5c0 32.667 18 60.334 54 83.001s79.333 34 130 34c36.667 0 67 -5.16699 91 -15.5
s39.667 -25.166 47 -44.499c0.666992 -1.33301 1.16699 -2.66602 1.5 -3.99902s0.5 -2.66602 0.5 -3.99902c2.66699 -8 4.33398 -17 5.00098 -27s1 -26 1 -48v-184c0 -32 1.5 -52.167 4.5 -60.5s9.83301 -12.5 20.5 -12.5c4.66699 0 9.5 1 14.5 3s10.5 4.66699 16.5 8l9 -34
c-10.667 -12.667 -20.834 -22.5 -30.501 -29.5s-19.167 -11.833 -28.5 -14.5c-4 -1.33301 -7.83301 -2.33301 -11.5 -3s-7.5 -1 -11.5 -1c-18.667 0 -33.834 6.16699 -45.501 18.5s-18.834 29.833 -21.501 52.5c-20.667 -18.667 -39.5 -33.334 -56.5 -44.001
s-33.5 -18 -49.5 -22c-6.66699 -1.33301 -13.334 -2.5 -20.001 -3.5s-13.667 -1.5 -21 -1.5c-32.667 0 -59.667 10.167 -81 30.5s-32 45.833 -32 76.5c0 16.667 3.66699 32.167 11 46.5s18 26.833 32 37.5c0.666992 0 1.16699 0.166992 1.5 0.5l1.5 1.5
c6.66699 5.33301 14 10.333 22 15s16.667 9.33398 26 14.001c8 3.33301 16.833 6.83301 26.5 10.5s20.5 7.5 32.5 11.5l107 38v0zM305.002 232.994l-52.999 -19.999c-22 -9.33301 -40.5 -17.5 -55.5 -24.5s-27.167 -13.5 -36.5 -19.5c-10 -7.33301 -17 -15 -21 -23
s-6 -17 -6 -27c0 -18.667 6.66699 -34 20 -46s30.333 -18 51 -18c14.667 0 28.667 2.66699 42 8s26.333 13.666 39 24.999c3.33301 2.66699 6.66602 5.66699 9.99902 9l10 10v126v0zM239.003 688.995c26 -0.666992 48.167 -10.167 66.5 -28.5s27.5 -40.166 27.5 -65.499
c0 -26 -9.16699 -48.167 -27.5 -66.5s-40.5 -27.5 -66.5 -27.5c-25.333 0 -47.166 9.16699 -65.499 27.5s-27.5 40.5 -27.5 66.5c0 25.333 9.16699 47.166 27.5 65.499s40.166 27.5 65.499 27.5v1zM240.003 654.995c-16.667 -0.666992 -30.834 -6.66699 -42.501 -18
s-17.5 -25.333 -17.5 -42s5.83301 -30.834 17.5 -42.501s25.834 -17.5 42.501 -17.5c16 0 29.833 5.83301 41.5 17.5s17.5 25.834 17.5 42.501s-5.83301 30.667 -17.5 42s-25.5 17 -41.5 17v1z" />
    <glyph glyph-name="Otilde" unicode="&#xe6;" horiz-adv-x="686" 
d="M384 242l0.000976562 -21.002c0 -51.333 10.5 -88.833 31.5 -112.5s53.833 -35.5 98.5 -35.5c29.333 0 55 4.66699 77 14s41 23.333 57 42l21 -19c-12 -22 -24.833 -41 -38.5 -57s-28.167 -28.333 -43.5 -37c-10.667 -6.66699 -23 -12 -37 -16s-28.333 -7 -43 -9
c-4.66699 -0.666992 -9.5 -1.16699 -14.5 -1.5s-9.83301 -0.5 -14.5 -0.5c-32.667 0 -62.334 6.83301 -89.001 20.5s-50 34.5 -70 62.5c-14.667 -14 -29.167 -26.167 -43.5 -36.5s-28.5 -19.166 -42.5 -26.499c-14.667 -6.66699 -29.167 -11.667 -43.5 -15
s-28.833 -5 -43.5 -5c-33.333 0 -60.166 9.33301 -80.499 28s-30.5 44 -30.5 76c0 19.333 5 37.833 15 55.5s23.667 31.834 41 42.501c20 13.333 47.5 25.666 82.5 36.999s74.833 21.333 119.5 30l6 2v37c0 40.667 -6.16699 71 -18.5 91s-31.833 30 -58.5 30
c-24.667 0 -45.834 -5.16699 -63.501 -15.5s-26.5 -22.5 -26.5 -36.5c0 -2.66699 0.666992 -6.16699 2 -10.5s3 -8.5 5 -12.5c1.33301 -2.66699 2.66602 -5 3.99902 -7l4 -6c2.66699 -3.33301 4.5 -5.83301 5.5 -7.5s1.83301 -3.5 2.5 -5.5v-0.5v-1.5
c0 -2.66699 -1 -5.5 -3 -8.5s-4.33301 -5.16699 -7 -6.5l-38 -19c-2.66699 -2 -5.16699 -3.33301 -7.5 -4s-4.83301 -1 -7.5 -1c-10 0 -19 7.5 -27 22.5s-12 31.833 -12 50.5c0 30.667 19.833 56.834 59.5 78.501s86.834 32.5 141.501 32.5c29.333 0 53.333 -4.66699 72 -14
s33.334 -24.666 44.001 -45.999c14.667 19.333 32.667 34.166 54 44.499s45.666 15.5 72.999 15.5c45.333 0 82.5 -14.5 111.5 -43.5s44.833 -67.833 47.5 -116.5l-272 -58v0zM299.001 107.998l0.00292969 116.997c-2.66699 -1.33301 -5.16699 -2.16602 -7.5 -2.49902
s-4.5 -0.833008 -6.5 -1.5c-2.66699 0 -5.33398 -0.333008 -8.00098 -1l-8 -2c-6 -1.33301 -12.333 -3.16602 -19 -5.49902s-15.334 -5.16602 -26.001 -8.49902c-38 -12 -64.667 -24.667 -80 -38s-23 -30.333 -23 -51c0 -16.667 6.66699 -30.834 20 -42.501
s29.666 -17.5 48.999 -17.5c4 0 7.83301 0.166992 11.5 0.5s7.16699 0.833008 10.5 1.5c15.333 2.66699 30.333 8.33398 45 17.001s28.667 19.667 42 33v1zM384.004 277.995l177.999 39c-7.33301 34.667 -18.166 60.167 -32.499 76.5s-33.5 24.5 -57.5 24.5
c-30.667 0 -53 -10 -67 -30s-21 -52.667 -21 -98v-12v0z" />
    <glyph glyph-name="ccedilla" unicode="&#xe7;" horiz-adv-x="469" 
d="M243 -12l13 0.000976562c25.333 -6.66699 43.333 -15.167 54 -25.5s16 -24.5 16 -42.5c0 -26.667 -11.833 -49 -35.5 -67s-53.167 -27 -88.5 -27h-7h-7c-5.33301 0.666992 -11.5 1.66699 -18.5 3l-26.5 5l4 16c8 -1.33301 14.333 -2.5 19 -3.5s9 -1.5 13 -1.5h2.5h2.5
c17.333 0 32.333 5.16699 45 15.5s19 23.166 19 38.499s-5.83301 27.5 -17.5 36.5s-29.167 14.833 -52.5 17.5l65 35v0zM417 132.001l23.9961 -14.999c-10.667 -40 -32.5 -71.333 -65.5 -94s-72.5 -34 -118.5 -34c-62.667 0 -113.667 21.5 -153 64.5s-59 98.5 -59 166.5
c0 71.333 21.833 129.166 65.5 173.499s100.167 66.5 169.5 66.5c49.333 0 88 -7.83301 116 -23.5s42 -37.834 42 -66.501c0 -14.667 -3.33301 -26.334 -10 -35.001s-16 -13 -28 -13c-7.33301 0 -13.666 1.5 -18.999 4.5s-10.666 8.5 -15.999 16.5
c-2 2.66699 -4 5.83398 -6 9.50098s-4 7.83398 -6 12.501c-9.33301 20 -20.666 34 -33.999 42s-31.666 12 -54.999 12c-42 0 -75.667 -15 -101 -45s-38 -69.667 -38 -119c0 -52.667 16 -97.167 48 -133.5s71.333 -54.5 118 -54.5c28.667 0 53.5 5.33301 74.5 16
s38.167 26.667 51.5 48v1z" />
    <glyph glyph-name="egrave" unicode="&#xe8;" horiz-adv-x="469" 
d="M437 277l-317.999 -0.00292969c0 -31.333 2.66699 -57.166 8 -77.499s14 -39.5 26 -57.5c0.666992 -1.33301 1.5 -2.66602 2.5 -3.99902s1.83301 -2.66602 2.5 -3.99902c16.667 -22.667 36.167 -39.667 58.5 -51s47.166 -17 74.499 -17c23.333 0 45.333 4.16699 66 12.5
s40.667 20.833 60 37.5l20 -18c-21.333 -35.333 -48 -62.333 -80 -81s-67.333 -28 -106 -28c-60.667 0 -110.5 21.667 -149.5 65s-58.5 98.333 -58.5 165c0 68.667 20.167 126 60.5 172s89.833 69 148.5 69c51.333 0 94.5 -17.333 129.5 -52s53.5 -78.667 55.5 -132v1z
M124.001 312.997h207.998c-4 34.667 -14.5 61.667 -31.5 81s-39.167 29 -66.5 29c-29.333 0 -53.666 -10 -72.999 -30s-31.666 -47 -36.999 -81v1zM125.999 679.997h109l51 -169h-17l-143 169v0z" />
    <glyph glyph-name="eacute" unicode="&#xe9;" horiz-adv-x="469" 
d="M437 277l-317.999 -0.00292969c0 -31.333 2.66699 -57.166 8 -77.499s14 -39.5 26 -57.5c0.666992 -1.33301 1.5 -2.66602 2.5 -3.99902s1.83301 -2.66602 2.5 -3.99902c16.667 -22.667 36.167 -39.667 58.5 -51s47.166 -17 74.499 -17c23.333 0 45.333 4.16699 66 12.5
s40.667 20.833 60 37.5l20 -18c-21.333 -35.333 -48 -62.333 -80 -81s-67.333 -28 -106 -28c-60.667 0 -110.5 21.667 -149.5 65s-58.5 98.333 -58.5 165c0 68.667 20.167 126 60.5 172s89.833 69 148.5 69c51.333 0 94.5 -17.333 129.5 -52s53.5 -78.667 55.5 -132v1z
M124.001 312.997h207.998c-4 34.667 -14.5 61.667 -31.5 81s-39.167 29 -66.5 29c-29.333 0 -53.666 -10 -72.999 -30s-31.666 -47 -36.999 -81v1zM342.999 679.997l-143 -169h-17l51 169h109v0z" />
    <glyph glyph-name="ecircumflex" unicode="&#xea;" horiz-adv-x="469" 
d="M437 277l-317.999 -0.00292969c0 -31.333 2.66699 -57.166 8 -77.499s14 -39.5 26 -57.5c0.666992 -1.33301 1.5 -2.66602 2.5 -3.99902s1.83301 -2.66602 2.5 -3.99902c16.667 -22.667 36.167 -39.667 58.5 -51s47.166 -17 74.499 -17c23.333 0 45.333 4.16699 66 12.5
s40.667 20.833 60 37.5l20 -18c-21.333 -35.333 -48 -62.333 -80 -81s-67.333 -28 -106 -28c-60.667 0 -110.5 21.667 -149.5 65s-58.5 98.333 -58.5 165c0 68.667 20.167 126 60.5 172s89.833 69 148.5 69c51.333 0 94.5 -17.333 129.5 -52s53.5 -78.667 55.5 -132v1z
M124.001 312.997h207.998c-4 34.667 -14.5 61.667 -31.5 81s-39.167 29 -66.5 29c-29.333 0 -53.666 -10 -72.999 -30s-31.666 -47 -36.999 -81v1zM188.999 667.997h90l93 -161h-15l-133 103l-112 -103h-15l92 161v0z" />
    <glyph glyph-name="edieresis" unicode="&#xeb;" horiz-adv-x="469" 
d="M437 277l-317.999 -0.00292969c0 -31.333 2.66699 -57.166 8 -77.499s14 -39.5 26 -57.5c0.666992 -1.33301 1.5 -2.66602 2.5 -3.99902s1.83301 -2.66602 2.5 -3.99902c16.667 -22.667 36.167 -39.667 58.5 -51s47.166 -17 74.499 -17c23.333 0 45.333 4.16699 66 12.5
s40.667 20.833 60 37.5l20 -18c-21.333 -35.333 -48 -62.333 -80 -81s-67.333 -28 -106 -28c-60.667 0 -110.5 21.667 -149.5 65s-58.5 98.333 -58.5 165c0 68.667 20.167 126 60.5 172s89.833 69 148.5 69c51.333 0 94.5 -17.333 129.5 -52s53.5 -78.667 55.5 -132v1z
M124.001 312.997h207.998c-4 34.667 -14.5 61.667 -31.5 81s-39.167 29 -66.5 29c-29.333 0 -53.666 -10 -72.999 -30s-31.666 -47 -36.999 -81v1zM148.999 621.997c14.667 -0.666992 27.167 -6.16699 37.5 -16.5s15.5 -22.833 15.5 -37.5s-5.16699 -27.167 -15.5 -37.5
s-22.833 -15.5 -37.5 -15.5s-27.167 5.16699 -37.5 15.5s-15.5 22.833 -15.5 37.5s5.16699 27.167 15.5 37.5s22.833 15.5 37.5 15.5v1zM320.999 621.997c15.333 -0.666992 28 -6.16699 38 -16.5s15 -22.833 15 -37.5s-5 -27.167 -15 -37.5s-22.667 -15.5 -38 -15.5
c-14.667 0 -27.167 5.16699 -37.5 15.5s-15.5 22.833 -15.5 37.5s5.16699 27.167 15.5 37.5s22.833 15.5 37.5 15.5v1z" />
    <glyph glyph-name="igrave" unicode="&#xec;" horiz-adv-x="271" 
d="M186 461v-329c0 -32.667 4.83301 -57 14.5 -73s24.167 -24 43.5 -24l4 1v-36h-222v36h9c23.333 -0.666992 40.333 6.5 51 21.5s16 39.5 16 73.5v220l-76 40v18l136 52h24v0zM27 680h109l51 -169h-17l-143 169v0z" />
    <glyph glyph-name="iacute" unicode="&#xed;" horiz-adv-x="271" 
d="M186 461v-329c0 -32.667 4.83301 -57 14.5 -73s24.167 -24 43.5 -24l4 1v-36h-222v36h9c23.333 -0.666992 40.333 6.5 51 21.5s16 39.5 16 73.5v220l-76 40v18l136 52h24v0zM244 680l-143 -169h-17l51 169h109v0z" />
    <glyph glyph-name="icircumflex" unicode="&#xee;" horiz-adv-x="271" 
d="M186 461v-329c0 -32.667 4.83301 -57 14.5 -73s24.167 -24 43.5 -24l4 1v-36h-222v36h9c23.333 -0.666992 40.333 6.5 51 21.5s16 39.5 16 73.5v220l-76 40v18l136 52h24v0zM90 668h90l93 -161h-15l-133 103l-112 -103h-15l92 161v0z" />
    <glyph glyph-name="idieresis" unicode="&#xef;" horiz-adv-x="271" 
d="M186 461v-329c0 -32.667 4.83301 -57 14.5 -73s24.167 -24 43.5 -24l4 1v-36h-222v36h9c23.333 -0.666992 40.333 6.5 51 21.5s16 39.5 16 73.5v220l-76 40v18l136 52h24v0zM50 622c14.667 -0.666992 27.167 -6.16699 37.5 -16.5s15.5 -22.833 15.5 -37.5
s-5.16699 -27.167 -15.5 -37.5s-22.833 -15.5 -37.5 -15.5s-27 5.16699 -37 15.5s-15 22.833 -15 37.5s5 27.167 15 37.5s22.333 15.5 37 15.5v1zM222 622c15.333 -0.666992 28 -6.16699 38 -16.5s15 -22.833 15 -37.5s-5 -27.167 -15 -37.5s-22.667 -15.5 -38 -15.5
c-14.667 0 -27.167 5.16699 -37.5 15.5s-15.5 22.833 -15.5 37.5s5.16699 27.167 15.5 37.5s22.833 15.5 37.5 15.5v1z" />
    <glyph glyph-name="glyph233" unicode="&#xf0;" horiz-adv-x="514" 
d="M247 633l87.0029 58.001l18 -25l-77 -52c53.333 -35.333 98.333 -84 135 -146s58.334 -127 65.001 -195c0.666992 -6.66699 1.16699 -13.334 1.5 -20.001s0.5 -13.334 0.5 -20.001c0 -68 -22 -125.5 -66 -172.5s-97.667 -70.5 -161 -70.5
c-62.667 0 -116.667 23.167 -162 69.5s-68 101.833 -68 166.5s21.167 119.5 63.5 164.5s93.833 67.5 154.5 67.5c6.66699 0 12.667 -0.166992 18 -0.5s10.666 -1.16602 15.999 -2.49902c7.33301 -1.33301 15.166 -3.83301 23.499 -7.5s18.166 -8.5 29.499 -14.5l2 3
c-5.33301 8.66699 -9.83301 16.334 -13.5 23.001s-7.5 13 -11.5 19c-1.33301 2.66699 -2.83301 5.16699 -4.5 7.5s-3.5 4.5 -5.5 6.5l-8 10l-9 11c-2.66699 3.33301 -5.33398 6.33301 -8.00098 9s-5 5.33398 -7 8.00098c-2 1.33301 -3.83301 2.83301 -5.5 4.5l-4.5 4.5
l-17 14.5c-6 5 -13.667 10.833 -23 17.5l-123 -82l-17 26l115 77l-10 6l-40 23l-44 21l-11 6l39 43l13 -5l22 -9c6.66699 -2.66699 13 -5 19 -7c3.33301 -1.33301 6.83301 -2.83301 10.5 -4.5s7.16699 -3.5 10.5 -5.5c6.66699 -2.66699 13.5 -5.83398 20.5 -9.50098
s14.5 -7.83398 22.5 -12.501l10 -5v0zM386.003 163.001l-0.000976562 13c0 8.66699 -0.333008 18 -1 28s-2 20.333 -4 31c-3.33301 22 -8.16602 43.333 -14.499 64s-13.833 38.667 -22.5 54c-12.667 23.333 -28 41 -46 53s-38.667 18 -62 18
c-38 0 -67.833 -12.833 -89.5 -38.5s-32.5 -61.167 -32.5 -106.5c0 -76.667 13.5 -138.167 40.5 -184.5s62.833 -69.5 107.5 -69.5c35.333 0 64.5 12.667 87.5 38s35.167 58.333 36.5 99v1z" />
    <glyph glyph-name="ntilde" unicode="&#xf1;" horiz-adv-x="573" 
d="M176 335l-0.00195312 -203.003c0 -34.667 5.33301 -59.5 16 -74.5s27.667 -22.5 51 -22.5l14 1v-36h-239v36h7c23.333 -0.666992 40.333 6.5 51 21.5s16 39.5 16 73.5v222l-68 38v23l134 47h18v-85l22.5 23c6.33301 6.66699 12.5 12.334 18.5 17.001
c3.33301 2.66699 7 5.33398 11 8.00098s8.33301 5.33398 13 8.00098c0.666992 0 1.5 0.333008 2.5 1s2.16699 1.33398 3.5 2.00098c10.667 6 22.167 10.833 34.5 14.5s24.833 6.5 37.5 8.5c4.66699 0.666992 9.33398 1.16699 14.001 1.5s9.33398 0.5 14.001 0.5
c21.333 0 41.5 -4 60.5 -12s34.167 -18.667 45.5 -32l1.5 -1.5l1.5 -1.5c11.333 -14.667 18.833 -31.334 22.5 -50.001s5.5 -48 5.5 -88v-143c0 -34.667 5.33301 -59.5 16 -74.5s27.667 -22.5 51 -22.5l5 1v-36h-236v36h13c23.333 -0.666992 40.333 6.5 51 21.5
s16 39.5 16 73.5v135c0 43.333 -7.5 75.333 -22.5 96s-38.5 31 -70.5 31h-5.5h-5.5c-18.667 -2 -37.667 -7.5 -57 -16.5s-40.333 -23.167 -63 -42.5v1zM145.998 503.997h-16.0029c1.33301 40 10 71 26 93s38.333 33 67 33c2.66699 0 5.33398 -0.166992 8.00098 -0.5
s5.33398 -0.5 8.00098 -0.5c10.667 -2 22 -5.83301 34 -11.5s27.333 -14.834 46 -27.501c15.333 -10.667 27.833 -18 37.5 -22s17.834 -6 24.501 -6c13.333 0 23.333 5 30 15s12 27.667 16 53l15 1c0.666992 -2 1 -3.83301 1 -5.5v-4.5
c0 -34.667 -8.83301 -63.334 -26.5 -86.001s-40.167 -34 -67.5 -34c-12.667 0 -26.834 3.33301 -42.501 10s-33.167 16.334 -52.5 29.001c-15.333 10.667 -26.833 18 -34.5 22s-14.5 6.33301 -20.5 7c-1.33301 0.666992 -2.66602 1 -3.99902 1h-4
c-11.333 0 -20.333 -4 -27 -12s-11.667 -21.333 -15 -40c-0.666992 -2 -1.16699 -4.16699 -1.5 -6.5s-0.833008 -5.16602 -1.5 -8.49902v1z" />
    <glyph glyph-name="ograve" unicode="&#xf2;" horiz-adv-x="542" 
d="M43 229c0 64.667 21.668 119.333 65.001 164s96.333 67 159 67c68 0 123.833 -21.667 167.5 -65s65.5 -99 65.5 -167s-21.667 -124.833 -65 -170.5s-97 -68.5 -161 -68.5c-62.667 0 -116.834 23.667 -162.501 71s-68.5 103.333 -68.5 168v1zM261.001 423.999h-4.99805
c-38 -0.666992 -67.167 -14.334 -87.5 -41.001s-30.5 -65.334 -30.5 -116.001c0 -12.667 0.666992 -25.5 2 -38.5s3.33301 -26.167 6 -39.5c11.333 -52.667 29.166 -93.167 53.499 -121.5s53.166 -42.5 86.499 -42.5c37.333 0 67.333 13 90 39s34 60.667 34 104
c0 5.33301 -0.166992 11 -0.5 17s-0.5 11.667 -0.5 17c-2.66699 26.667 -7.5 52.834 -14.5 78.501s-16.167 49.5 -27.5 71.5c-12 23.333 -26.667 40.833 -44 52.5s-38 17.834 -62 18.501v1zM163.003 679.999h109l51 -169h-17l-143 169v0z" />
    <glyph glyph-name="oacute" unicode="&#xf3;" horiz-adv-x="542" 
d="M43 229c0 64.667 21.668 119.333 65.001 164s96.333 67 159 67c68 0 123.833 -21.667 167.5 -65s65.5 -99 65.5 -167s-21.667 -124.833 -65 -170.5s-97 -68.5 -161 -68.5c-62.667 0 -116.834 23.667 -162.501 71s-68.5 103.333 -68.5 168v1zM261.001 423.999h-4.99805
c-38 -0.666992 -67.167 -14.334 -87.5 -41.001s-30.5 -65.334 -30.5 -116.001c0 -12.667 0.666992 -25.5 2 -38.5s3.33301 -26.167 6 -39.5c11.333 -52.667 29.166 -93.167 53.499 -121.5s53.166 -42.5 86.499 -42.5c37.333 0 67.333 13 90 39s34 60.667 34 104
c0 5.33301 -0.166992 11 -0.5 17s-0.5 11.667 -0.5 17c-2.66699 26.667 -7.5 52.834 -14.5 78.501s-16.167 49.5 -27.5 71.5c-12 23.333 -26.667 40.833 -44 52.5s-38 17.834 -62 18.501v1zM380.003 679.999l-143 -169h-17l51 169h109v0z" />
    <glyph glyph-name="ocircumflex" unicode="&#xf4;" horiz-adv-x="542" 
d="M43 229c0 64.667 21.668 119.333 65.001 164s96.333 67 159 67c68 0 123.833 -21.667 167.5 -65s65.5 -99 65.5 -167s-21.667 -124.833 -65 -170.5s-97 -68.5 -161 -68.5c-62.667 0 -116.834 23.667 -162.501 71s-68.5 103.333 -68.5 168v1zM261.001 423.999h-4.99805
c-38 -0.666992 -67.167 -14.334 -87.5 -41.001s-30.5 -65.334 -30.5 -116.001c0 -12.667 0.666992 -25.5 2 -38.5s3.33301 -26.167 6 -39.5c11.333 -52.667 29.166 -93.167 53.499 -121.5s53.166 -42.5 86.499 -42.5c37.333 0 67.333 13 90 39s34 60.667 34 104
c0 5.33301 -0.166992 11 -0.5 17s-0.5 11.667 -0.5 17c-2.66699 26.667 -7.5 52.834 -14.5 78.501s-16.167 49.5 -27.5 71.5c-12 23.333 -26.667 40.833 -44 52.5s-38 17.834 -62 18.501v1zM226.003 667.999h90l93 -161h-15l-133 103l-112 -103h-15l92 161v0z" />
    <glyph glyph-name="otilde" unicode="&#xf5;" horiz-adv-x="542" 
d="M43 229c0 64.667 21.668 119.333 65.001 164s96.333 67 159 67c68 0 123.833 -21.667 167.5 -65s65.5 -99 65.5 -167s-21.667 -124.833 -65 -170.5s-97 -68.5 -161 -68.5c-62.667 0 -116.834 23.667 -162.501 71s-68.5 103.333 -68.5 168v1zM261.001 423.999h-4.99805
c-38 -0.666992 -67.167 -14.334 -87.5 -41.001s-30.5 -65.334 -30.5 -116.001c0 -12.667 0.666992 -25.5 2 -38.5s3.33301 -26.167 6 -39.5c11.333 -52.667 29.166 -93.167 53.499 -121.5s53.166 -42.5 86.499 -42.5c37.333 0 67.333 13 90 39s34 60.667 34 104
c0 5.33301 -0.166992 11 -0.5 17s-0.5 11.667 -0.5 17c-2.66699 26.667 -7.5 52.834 -14.5 78.501s-16.167 49.5 -27.5 71.5c-12 23.333 -26.667 40.833 -44 52.5s-38 17.834 -62 18.501v1zM131.003 503.999h-16.0029c1.33301 40 10 71 26 93s38.333 33 67 33
c2.66699 0 5.33398 -0.166992 8.00098 -0.5s5.33398 -0.5 8.00098 -0.5c10.667 -2 22 -5.83301 34 -11.5s27.333 -14.834 46 -27.501c15.333 -10.667 27.833 -18 37.5 -22s17.834 -6 24.501 -6c13.333 0 23.333 5 30 15s12 27.667 16 53l15 1c0.666992 -2 1 -3.83301 1 -5.5
v-4.5c0 -34.667 -8.83301 -63.334 -26.5 -86.001s-40.167 -34 -67.5 -34c-12.667 0 -26.834 3.33301 -42.501 10s-33.167 16.334 -52.5 29.001c-15.333 10.667 -26.833 18 -34.5 22s-14.5 6.33301 -20.5 7c-1.33301 0.666992 -2.66602 1 -3.99902 1h-4
c-11.333 0 -20.333 -4 -27 -12s-11.667 -21.333 -15 -40c-0.666992 -2 -1.16699 -4.16699 -1.5 -6.5s-0.833008 -5.16602 -1.5 -8.49902v1z" />
    <glyph glyph-name="odieresis" unicode="&#xf6;" horiz-adv-x="542" 
d="M43 229c0 64.667 21.668 119.333 65.001 164s96.333 67 159 67c68 0 123.833 -21.667 167.5 -65s65.5 -99 65.5 -167s-21.667 -124.833 -65 -170.5s-97 -68.5 -161 -68.5c-62.667 0 -116.834 23.667 -162.501 71s-68.5 103.333 -68.5 168v1zM261.001 423.999h-4.99805
c-38 -0.666992 -67.167 -14.334 -87.5 -41.001s-30.5 -65.334 -30.5 -116.001c0 -12.667 0.666992 -25.5 2 -38.5s3.33301 -26.167 6 -39.5c11.333 -52.667 29.166 -93.167 53.499 -121.5s53.166 -42.5 86.499 -42.5c37.333 0 67.333 13 90 39s34 60.667 34 104
c0 5.33301 -0.166992 11 -0.5 17s-0.5 11.667 -0.5 17c-2.66699 26.667 -7.5 52.834 -14.5 78.501s-16.167 49.5 -27.5 71.5c-12 23.333 -26.667 40.833 -44 52.5s-38 17.834 -62 18.501v1zM185.003 621.999c14.667 -0.666992 27.167 -6.16699 37.5 -16.5
s15.5 -22.833 15.5 -37.5s-5.16699 -27.167 -15.5 -37.5s-22.833 -15.5 -37.5 -15.5s-27.167 5.16699 -37.5 15.5s-15.5 22.833 -15.5 37.5s5.16699 27.167 15.5 37.5s22.833 15.5 37.5 15.5v1zM357.003 621.999c15.333 -0.666992 28 -6.16699 38 -16.5s15 -22.833 15 -37.5
s-5 -27.167 -15 -37.5s-22.667 -15.5 -38 -15.5c-14.667 0 -27.167 5.16699 -37.5 15.5s-15.5 22.833 -15.5 37.5s5.16699 27.167 15.5 37.5s22.833 15.5 37.5 15.5v1z" />
    <glyph glyph-name="Aacute" unicode="&#xf7;" 
 />
    <glyph glyph-name="OE" unicode="&#xf8;" horiz-adv-x="542" 
d="M64 14l43.002 50.998c-20.667 24 -36.5 49.833 -47.5 77.5s-16.5 56.834 -16.5 87.501c0 64 21.667 118.333 65 163s96 67 158 67c26.667 0 52.167 -3.66699 76.5 -11s46.833 -18.333 67.5 -33l39 46l29 -24l-39 -46c19.333 -21.333 34.166 -46 44.499 -74
s15.5 -58.333 15.5 -91c0 -67.333 -21.5 -123.833 -64.5 -169.5s-96.5 -68.5 -160.5 -68.5c-26 0 -50.333 3.83301 -73 11.5s-44.334 19.834 -65.001 36.501l-42 -47l-30 24v0zM380.002 322.998l-198.001 -229.999l2 -3c14 -22.667 28.833 -39.167 44.5 -49.5
s33.167 -15.5 52.5 -15.5c37.333 0 68.333 13.5 93 40.5s37 60.833 37 101.5c0 10.667 -0.5 21.667 -1.5 33s-2.5 22.666 -4.5 33.999c-2.66699 16 -6.16699 31.5 -10.5 46.5s-9.16602 28.833 -14.499 41.5v1zM163.001 129.999l199 231.002
c-12.667 20.667 -27.667 36.167 -45 46.5s-37.333 15.5 -60 15.5c-38 0 -67.333 -12.833 -88 -38.5s-31 -62.834 -31 -111.501c0 -26.667 2.16699 -52.334 6.5 -77.001s10.5 -47 18.5 -67v1z" />
    <glyph glyph-name="ugrave" unicode="&#xf9;" horiz-adv-x="573" 
d="M480 450l-0.000976562 -326.999c0 -31.333 2.16699 -51.333 6.5 -60s14.166 -13 29.499 -13c3.33301 0 6.66602 0.166992 9.99902 0.5s7 0.833008 11 1.5l12 4v-39l-152 -28v77c-16.667 -15.333 -32.667 -28.166 -48 -38.499s-30.666 -18.833 -45.999 -25.5
c-12 -4 -24.167 -7.16699 -36.5 -9.5s-24.833 -3.5 -37.5 -3.5c-29.333 0 -54.5 5.33301 -75.5 16s-36.167 26.334 -45.5 47.001c-4 9.33301 -7.16699 18.666 -9.5 27.999s-3.83301 18.666 -4.5 27.999v46v153c0 38.667 -4.66699 64.167 -14 76.5s-28.666 18.5 -57.999 18.5
l-8 1v36l164 11v-254c0 -52 6.5 -87.833 19.5 -107.5s36.5 -29.5 70.5 -29.5c8.66699 0 16.834 0.5 24.501 1.5s15.5 2.83301 23.5 5.5c12.667 3.33301 25.5 8.66602 38.5 15.999s27.167 17 42.5 29v196c0 38.667 -4.66699 64.167 -14 76.5s-29 18.5 -59 18.5l-14 1v36
l170 11v0zM177.999 680.001h109l51 -169h-17l-143 169v0z" />
    <glyph glyph-name="uacute" unicode="&#xfa;" horiz-adv-x="573" 
d="M480 450l-0.000976562 -326.999c0 -31.333 2.16699 -51.333 6.5 -60s14.166 -13 29.499 -13c3.33301 0 6.66602 0.166992 9.99902 0.5s7 0.833008 11 1.5l12 4v-39l-152 -28v77c-16.667 -15.333 -32.667 -28.166 -48 -38.499s-30.666 -18.833 -45.999 -25.5
c-12 -4 -24.167 -7.16699 -36.5 -9.5s-24.833 -3.5 -37.5 -3.5c-29.333 0 -54.5 5.33301 -75.5 16s-36.167 26.334 -45.5 47.001c-4 9.33301 -7.16699 18.666 -9.5 27.999s-3.83301 18.666 -4.5 27.999v46v153c0 38.667 -4.66699 64.167 -14 76.5s-28.666 18.5 -57.999 18.5
l-8 1v36l164 11v-254c0 -52 6.5 -87.833 19.5 -107.5s36.5 -29.5 70.5 -29.5c8.66699 0 16.834 0.5 24.501 1.5s15.5 2.83301 23.5 5.5c12.667 3.33301 25.5 8.66602 38.5 15.999s27.167 17 42.5 29v196c0 38.667 -4.66699 64.167 -14 76.5s-29 18.5 -59 18.5l-14 1v36
l170 11v0zM394.999 680.001l-143 -169h-17l51 169h109v0z" />
    <glyph glyph-name="ucircumflex" unicode="&#xfb;" horiz-adv-x="573" 
d="M480 450l-0.000976562 -326.999c0 -31.333 2.16699 -51.333 6.5 -60s14.166 -13 29.499 -13c3.33301 0 6.66602 0.166992 9.99902 0.5s7 0.833008 11 1.5l12 4v-39l-152 -28v77c-16.667 -15.333 -32.667 -28.166 -48 -38.499s-30.666 -18.833 -45.999 -25.5
c-12 -4 -24.167 -7.16699 -36.5 -9.5s-24.833 -3.5 -37.5 -3.5c-29.333 0 -54.5 5.33301 -75.5 16s-36.167 26.334 -45.5 47.001c-4 9.33301 -7.16699 18.666 -9.5 27.999s-3.83301 18.666 -4.5 27.999v46v153c0 38.667 -4.66699 64.167 -14 76.5s-28.666 18.5 -57.999 18.5
l-8 1v36l164 11v-254c0 -52 6.5 -87.833 19.5 -107.5s36.5 -29.5 70.5 -29.5c8.66699 0 16.834 0.5 24.501 1.5s15.5 2.83301 23.5 5.5c12.667 3.33301 25.5 8.66602 38.5 15.999s27.167 17 42.5 29v196c0 38.667 -4.66699 64.167 -14 76.5s-29 18.5 -59 18.5l-14 1v36
l170 11v0zM240.999 668.001h90l93 -161h-15l-133 103l-112 -103h-15l92 161v0z" />
    <glyph glyph-name="udieresis" unicode="&#xfc;" horiz-adv-x="573" 
d="M480 450l-0.000976562 -326.999c0 -31.333 2.16699 -51.333 6.5 -60s14.166 -13 29.499 -13c3.33301 0 6.66602 0.166992 9.99902 0.5s7 0.833008 11 1.5l12 4v-39l-152 -28v77c-16.667 -15.333 -32.667 -28.166 -48 -38.499s-30.666 -18.833 -45.999 -25.5
c-12 -4 -24.167 -7.16699 -36.5 -9.5s-24.833 -3.5 -37.5 -3.5c-29.333 0 -54.5 5.33301 -75.5 16s-36.167 26.334 -45.5 47.001c-4 9.33301 -7.16699 18.666 -9.5 27.999s-3.83301 18.666 -4.5 27.999v46v153c0 38.667 -4.66699 64.167 -14 76.5s-28.666 18.5 -57.999 18.5
l-8 1v36l164 11v-254c0 -52 6.5 -87.833 19.5 -107.5s36.5 -29.5 70.5 -29.5c8.66699 0 16.834 0.5 24.501 1.5s15.5 2.83301 23.5 5.5c12.667 3.33301 25.5 8.66602 38.5 15.999s27.167 17 42.5 29v196c0 38.667 -4.66699 64.167 -14 76.5s-29 18.5 -59 18.5l-14 1v36
l170 11v0zM200.999 622.001c14.667 -0.666992 27.167 -6.16699 37.5 -16.5s15.5 -22.833 15.5 -37.5s-5.16699 -27.167 -15.5 -37.5s-22.833 -15.5 -37.5 -15.5s-27.167 5.16699 -37.5 15.5s-15.5 22.833 -15.5 37.5s5.16699 27.167 15.5 37.5s22.833 15.5 37.5 15.5v1z
M372.999 622.001c15.333 -0.666992 28 -6.16699 38 -16.5s15 -22.833 15 -37.5s-5 -27.167 -15 -37.5s-22.667 -15.5 -38 -15.5c-14.667 0 -27.167 5.16699 -37.5 15.5s-15.5 22.833 -15.5 37.5s5.16699 27.167 15.5 37.5s22.833 15.5 37.5 15.5v1z" />
    <glyph glyph-name="yacute" unicode="&#xfd;" 
 />
    <glyph glyph-name="glyph237" unicode="&#xfe;" horiz-adv-x="561" 
d="M169 41l-0.000976562 -101.001c0 -33.333 5.33301 -57.5 16 -72.5s28 -22.5 52 -22.5h18v-36h-243v36h6c24 0 41.333 7.5 52 22.5s16 39.167 16 72.5v649l-71 41v17l129 51h25v-288l14.5 12.5l14.5 12.5c20.667 16.667 41.834 28.834 63.501 36.501
s45.167 11.5 70.5 11.5c54.667 0 99.167 -19.667 133.5 -59s51.5 -90.333 51.5 -153c0 -71.333 -22.5 -132.333 -67.5 -183s-99.5 -76 -163.5 -76c-6.66699 0 -13.167 0.333008 -19.5 1l-19.5 2c-13.333 2 -26.5 5.16699 -39.5 9.5s-25.833 9.5 -38.5 15.5v1z
M168.999 368.999l0.00292969 -150c0 -26 0.666992 -45.667 2 -59s4.66602 -25.333 9.99902 -36c2 -2.66699 3.83301 -5.5 5.5 -8.5l5.5 -9.5c10 -16.667 24.167 -29.667 42.5 -39s38.166 -14 59.499 -14c43.333 0 77.166 15.167 101.499 45.5s36.5 71.833 36.5 124.5
c0 56.667 -13.333 102.667 -40 138s-61.667 53 -105 53c-9.33301 0 -19 -1 -29 -3s-20 -5 -30 -9s-20 -8.83301 -30 -14.5s-19.667 -12.167 -29 -19.5v1z" />
    <glyph glyph-name="Egrave" unicode="&#xff;" horiz-adv-x="479" 
d="M233 -5l-159.997 359.998c-2 4 -3.83301 7.83301 -5.5 11.5s-3.5 7.16699 -5.5 10.5c-7.33301 13.333 -15 22.666 -23 27.999s-17.667 8 -29 8l-8 1v36h218v-36c-20.667 -1.33301 -35.834 -5 -45.501 -11s-14.5 -15 -14.5 -27c0 -4.66699 0.833008 -10 2.5 -16
s4.16699 -13 7.5 -21l104 -237l86 219c3.33301 6.66699 5.66602 13.334 6.99902 20.001s2 12.667 2 18c0 16.667 -5.33301 29.5 -16 38.5s-26.667 14.167 -48 15.5v37h173v-36c-16 -3.33301 -29.167 -10.166 -39.5 -20.499s-19.5 -26.166 -27.5 -47.499l-15 -39l-154 -391
c-14.667 -36.667 -32.667 -63.834 -54 -81.501s-47.333 -26.5 -78 -26.5c-23.333 0 -42.333 5.33301 -57 16s-22 24.667 -22 42c0 11.333 4.16699 21 12.5 29s18.166 12 29.499 12c2.66699 0 5 -0.166992 7 -0.5s4.33301 -0.833008 7 -1.5
c3.33301 -1.33301 6.66602 -3 9.99902 -5s7 -4.66699 11 -8c4.66699 -4 8.5 -7.16699 11.5 -9.5s6.16699 -4.16602 9.5 -5.49902c2 -0.666992 4.33301 -1.16699 7 -1.5s5.66699 -0.5 9 -0.5c16 0 29.833 6.33301 41.5 19s22.834 33.667 33.501 63l13 38v0zM154.003 621.998
c14.667 -0.666992 27.167 -6.16699 37.5 -16.5s15.5 -22.833 15.5 -37.5s-5.16699 -27.167 -15.5 -37.5s-22.833 -15.5 -37.5 -15.5s-27.167 5.16699 -37.5 15.5s-15.5 22.833 -15.5 37.5s5.16699 27.167 15.5 37.5s22.833 15.5 37.5 15.5v1zM326.003 621.998
c15.333 -0.666992 28 -6.16699 38 -16.5s15 -22.833 15 -37.5s-5 -27.167 -15 -37.5s-22.667 -15.5 -38 -15.5c-14.667 0 -27.167 5.16699 -37.5 15.5s-15.5 22.833 -15.5 37.5s5.16699 27.167 15.5 37.5s22.833 15.5 37.5 15.5v1z" />
    <glyph glyph-name="Abreve" unicode="&#x102;" 
 />
    <glyph glyph-name="abreve" unicode="&#x103;" 
 />
    <glyph glyph-name="Aogonek" unicode="&#x104;" 
 />
    <glyph glyph-name="aogonek" unicode="&#x105;" 
 />
    <glyph glyph-name="Cacute" unicode="&#x106;" 
 />
    <glyph glyph-name="cacute" unicode="&#x107;" 
 />
    <glyph glyph-name="Ccaron" unicode="&#x10c;" 
 />
    <glyph glyph-name="ccaron" unicode="&#x10d;" 
 />
    <glyph glyph-name="Dcaron" unicode="&#x10e;" 
 />
    <glyph glyph-name="dcaron" unicode="&#x10f;" 
 />
    <glyph glyph-name="Dcroat" unicode="&#x110;" 
 />
    <glyph glyph-name="dcroat" unicode="&#x111;" 
 />
    <glyph glyph-name="Eogonek" unicode="&#x118;" 
 />
    <glyph glyph-name="eogonek" unicode="&#x119;" 
 />
    <glyph glyph-name="Ecaron" unicode="&#x11a;" 
 />
    <glyph glyph-name="ecaron" unicode="&#x11b;" 
 />
    <glyph glyph-name="Gbreve" unicode="&#x11e;" 
 />
    <glyph glyph-name="gbreve" unicode="&#x11f;" 
 />
    <glyph glyph-name="Idotaccent" unicode="&#x130;" 
 />
    <glyph glyph-name="thorn" unicode="&#x131;" horiz-adv-x="271" 
d="M186 461v-329c0 -32.667 4.83301 -57 14.5 -73s24.167 -24 43.5 -24l4 1v-36h-222v36h9c23.333 -0.666992 40.333 6.5 51 21.5s16 39.5 16 73.5v220l-76 40v18l136 52h24v0z" />
    <glyph glyph-name="Lacute" unicode="&#x139;" 
 />
    <glyph glyph-name="lacute" unicode="&#x13a;" 
 />
    <glyph glyph-name="Lcaron" unicode="&#x13d;" 
 />
    <glyph glyph-name="lcaron" unicode="&#x13e;" 
 />
    <glyph glyph-name="Ldot" unicode="&#x13f;" 
 />
    <glyph glyph-name="ldot" unicode="&#x140;" 
 />
    <glyph glyph-name="glyph225" unicode="&#x141;" horiz-adv-x="677" 
d="M241 434l132.001 103.003v-88l-132 -103v-157c0 -33.333 1.83301 -58 5.5 -74s10.834 -29.667 21.501 -41c11.333 -12 25.166 -20.667 41.499 -26s37.166 -8 62.499 -8l72 1c36.667 -0.666992 66 2.16602 88 8.49902s42.667 17.833 62 34.5
c2 2.66699 4.33301 5.16699 7 7.5s5.33398 4.83301 8.00098 7.5c3.33301 3.33301 6.33301 6.66602 9 9.99902s5.33398 6.33301 8.00098 9c2 2 3.66699 4.16699 5 6.5s2.66602 4.5 3.99902 6.5c3.33301 4.66699 6.66602 9.83398 9.99902 15.501l12 19.5l42 1l-42 -167h-635
v37h21c34 -0.666992 57.833 7.66602 71.5 24.999s20.5 47 20.5 89v113l-105 -82v88l105 82v177c0 41.333 -7 70.666 -21 87.999s-37.667 26 -71 26l-21 1v38h331v-38h-20c-33.333 -0.666992 -57 -9.66699 -71 -27s-21 -47 -21 -89v-94v0z" />
    <glyph glyph-name="glyph226" unicode="&#x142;" horiz-adv-x="271" 
d="M180 405l84.001 79.002v-80l-84 -79v-193c0 -33.333 4.66699 -57.833 14 -73.5s24.333 -23.5 45 -23.5l3 1v-36h-215v36h3c23.333 -0.666992 40.166 6.66602 50.499 21.999s15.5 39.666 15.5 72.999v116l-89 -83v79l89 83v262l-69 38v22l132 47h21v-290v0z" />
    <glyph glyph-name="Nacute" unicode="&#x143;" 
 />
    <glyph glyph-name="nacute" unicode="&#x144;" 
 />
    <glyph glyph-name="Ncaron" unicode="&#x147;" 
 />
    <glyph glyph-name="ncaron" unicode="&#x148;" 
 />
    <glyph glyph-name="Ohungarumlaut" unicode="&#x150;" 
 />
    <glyph glyph-name="ohungarumlaut" unicode="&#x151;" 
 />
    <glyph glyph-name="fi" unicode="&#x152;" horiz-adv-x="1031" 
d="M680 379l75.0029 -0.00195312c38 -0.666992 64.167 5.83301 78.5 19.5s22.833 39.5 25.5 77.5l46 1v-246h-46c-6 40.667 -16.5 68.167 -31.5 82.5s-41.167 21.5 -78.5 21.5l-67 1v-3c0 -61.333 -12.5 -115.166 -37.5 -161.499s-65.167 -89.5 -120.5 -129.5v-1h238
c30 -0.666992 53.5 1 70.5 5s32.5 11.667 46.5 23c3.33301 2.66699 6.66602 5.5 9.99902 8.5s6.66602 6.16699 9.99902 9.5l19.5 22c6.33301 7.33301 12.166 15 17.499 23c1.33301 1.33301 3.83301 5 7.5 11s8.83398 13.333 15.501 22l6 9h41l-34 -174h-564
c-40.667 0 -73.5 1.66699 -98.5 5s-48.5 9.33301 -70.5 18c-3.33301 1.33301 -6.5 2.83301 -9.5 4.5s-6.16699 3.16699 -9.5 4.5c-14.667 7.33301 -29 16.5 -43 27.5s-27.667 23.167 -41 36.5c-30.667 33.333 -53.5 70.666 -68.5 111.999s-22.5 87 -22.5 137
c0 69.333 15.5 130.5 46.5 183.5s74.833 92.833 131.5 119.5c0.666992 0.666992 1.5 1.16699 2.5 1.5s1.83301 0.5 2.5 0.5c24 11.333 49.167 19.333 75.5 24s58.166 7 95.499 7l556 1l6 -156h-37l-4 9c-8.66699 16.667 -16.167 30.5 -22.5 41.5s-12.5 20.167 -18.5 27.5
c-6 6.66699 -12 11.834 -18 15.501s-13 6.83398 -21 9.50098c-12 4 -25.833 6.83301 -41.5 8.5s-35.167 2.5 -58.5 2.5l-221 1v-2c46 -24.667 82.833 -59.167 110.5 -103.5s44.5 -95.833 50.5 -154.5v-2v0zM166.003 380.998c0 -20 1.00098 -39.501 3.00098 -58.501
s5.33301 -37.833 10 -56.5c2 -10 4.5 -19.667 7.5 -29s6.16699 -18.666 9.5 -27.999c19.333 -54.667 44.333 -96 75 -124s65.667 -42 105 -42c53.333 0 97 25.667 131 77s51 116.666 51 195.999c0 91.333 -19.5 168.333 -58.5 231s-87.167 94 -144.5 94
c-22.667 0 -44.334 -4.66699 -65.001 -14s-39.667 -22.666 -57 -39.999c-22.667 -23.333 -39.5 -51.833 -50.5 -85.5s-16.5 -74.167 -16.5 -121.5v1z" />
    <glyph glyph-name="fl" unicode="&#x153;" horiz-adv-x="760" 
d="M723 279l-283 0.00195312c1.33301 -38 5.16602 -69.5 11.499 -94.5s15.833 -45.5 28.5 -61.5c10.667 -14 24.834 -25.833 42.501 -35.5s35.834 -15.834 54.501 -18.501c3.33301 0 6.66602 -0.166992 9.99902 -0.5s6.66602 -0.5 9.99902 -0.5c23.333 0 44.666 5 63.999 15
s36.333 24.667 51 44l21 -13c-15.333 -38 -38.666 -68.333 -69.999 -91s-65.333 -34 -102 -34c-30 0 -58.333 6.33301 -85 19s-50 30.667 -70 54c-22.667 -24 -47.667 -42.167 -75 -54.5s-56 -18.5 -86 -18.5c-57.333 0 -105.833 22.333 -145.5 67s-59.5 100 -59.5 166
c0 67.333 20.333 123.666 61 168.999s91 68 151 68c31.333 0 59.333 -5.5 84 -16.5s48 -28.833 70 -53.5c19.333 25.333 39.833 43.333 61.5 54s48.834 16 81.501 16c51.333 0 91.5 -15 120.5 -45s46.833 -75.333 53.5 -136v1zM132 263.002
c0 -35.333 3.00098 -69.333 9.00098 -102s14 -59.334 24 -80.001c9.33301 -18.667 21.666 -32.667 36.999 -42s33 -14 53 -14c15.333 0 29.333 2.83301 42 8.5s23.667 14.5 33 26.5c11.333 13.333 19.333 29.333 24 48s7 43.334 7 74.001c0 76 -10.667 135.167 -32 177.5
s-51.333 63.5 -90 63.5c-34.667 0 -61.167 -13.833 -79.5 -41.5s-27.5 -67.5 -27.5 -119.5v1zM441.001 315.002l182 0.000976562c-5.33301 37.333 -15.5 64.666 -30.5 81.999s-36.5 26 -64.5 26c-25.333 0 -45.333 -9.33301 -60 -28s-23.667 -45.667 -27 -81v1z" />
    <glyph glyph-name="Racute" unicode="&#x154;" 
 />
    <glyph glyph-name="racute" unicode="&#x155;" 
 />
    <glyph glyph-name="Rcaron" unicode="&#x158;" 
 />
    <glyph glyph-name="rcaron" unicode="&#x159;" 
 />
    <glyph glyph-name="Sacute" unicode="&#x15a;" 
 />
    <glyph glyph-name="sacute" unicode="&#x15b;" 
 />
    <glyph glyph-name="Scedilla" unicode="&#x15e;" 
 />
    <glyph glyph-name="scedilla" unicode="&#x15f;" 
 />
    <glyph glyph-name="glyph227" unicode="&#x160;" horiz-adv-x="594" 
d="M56 36l-4.99902 172h48c8 -55.333 28 -97.833 60 -127.5s73 -44.5 123 -44.5c41.333 0 76.333 10.833 105 32.5s43 47.834 43 78.501c0 18.667 -6 36.834 -18 54.501s-30 34.167 -54 49.5c-12 8.66699 -25.5 17.5 -40.5 26.5l-49.5 29.5
c-39.333 23.333 -70.833 43.166 -94.5 59.499s-42.5 31.833 -56.5 46.5c-5.33301 5.33301 -10.166 10.833 -14.499 16.5s-8.5 11.5 -12.5 17.5c-6.66699 10.667 -11.667 22.334 -15 35.001s-5 25.667 -5 39c0 51.333 21.333 92.833 64 124.5s98.667 47.5 168 47.5
c10 0 19.5 -0.333008 28.5 -1s18.167 -1.66699 27.5 -3c14 -2 28.333 -5 43 -9s31 -9.33301 49 -16c6.66699 -2.66699 12.334 -4.83398 17.001 -6.50098s8.66699 -3.5 12 -5.5c1.33301 -0.666992 2.66602 -1.16699 3.99902 -1.5s2.66602 -0.833008 3.99902 -1.5l11.5 -6
l12.5 -7v-146h-44c-4 49.333 -21.5 88.666 -52.5 117.999s-71.167 44 -120.5 44c-34.667 0 -64.167 -9.16699 -88.5 -27.5s-36.5 -40.5 -36.5 -66.5c0 -18.667 6.16699 -36.5 18.5 -53.5s31.166 -33.5 56.499 -49.5l45 -27l56 -32c33.333 -18.667 60.833 -35.667 82.5 -51
s39.834 -30.333 54.501 -45c8.66699 -8.66699 16.167 -17.334 22.5 -26.001s11.833 -17.667 16.5 -27c5.33301 -10.667 9.33301 -21.834 12 -33.501s4 -24.167 4 -37.5c0 -55.333 -23.5 -100.666 -70.5 -135.999s-107.167 -53 -180.5 -53c-14 0 -29 0.833008 -45 2.5
s-32 3.83398 -48 6.50098c-26.667 4 -52.334 9.5 -77.001 16.5s-44.667 14.5 -60 22.5v1zM343.001 731h-90l-93 161h15l133 -104l112 104h15l-92 -161v0z" />
    <glyph glyph-name="glyph228" unicode="&#x161;" horiz-adv-x="396" 
d="M329 418l-0.000976562 -108.001h-31c-7.33301 38.667 -19.5 67.167 -36.5 85.5s-39.167 27.5 -66.5 27.5c-23.333 0 -41.833 -5.83301 -55.5 -17.5s-20.5 -27.834 -20.5 -48.501c0 -8 1 -15.167 3 -21.5s6 -12.5 12 -18.5c8 -8 20.833 -16.667 38.5 -26
s41.834 -21 72.501 -35c16 -7.33301 29.5 -13.833 40.5 -19.5s20.167 -11.167 27.5 -16.5c9.33301 -6.66699 16.666 -13.5 21.999 -20.5s10 -15.167 14 -24.5c4 -8.66699 7 -17.667 9 -27s3 -18.666 3 -27.999c0 -40.667 -13.667 -72.667 -41 -96s-64.666 -35 -111.999 -35
c-7.33301 0 -14.666 0.333008 -21.999 1l-22 2c-18.667 2.66699 -37 6.33398 -55 11.001s-33.667 10.334 -47 17.001v127h33c4.66699 -39.333 16.167 -69.5 34.5 -90.5s42.5 -31.5 72.5 -31.5c26 0 47.5 6.66699 64.5 20s25.5 30.333 25.5 51
c0 11.333 -2.33301 21.333 -7 30s-12.667 17.334 -24 26.001c-6.66699 4.66699 -14.667 9.66699 -24 15s-20.333 10.666 -33 15.999c-26 11.333 -46.833 21.166 -62.5 29.499s-28.834 16.5 -39.501 24.5c-5.33301 3.33301 -10 6.83301 -14 10.5l-12 11.5
c-8.66699 10 -15.667 21.667 -21 35s-8 27.333 -8 42c0 36.667 13.667 66.5 41 89.5s62.333 34.5 105 34.5c27.333 0 52 -3.5 74 -10.5s42.667 -17.833 62 -32.5v1zM243.999 515.999h-90l-93 161h15l133 -104l112 104h15l-92 -161v0z" />
    <glyph glyph-name="Tcommaaccent" unicode="&#x162;" 
 />
    <glyph glyph-name="tcommaaccent" unicode="&#x163;" 
 />
    <glyph glyph-name="Tcaron" unicode="&#x164;" 
 />
    <glyph glyph-name="tcaron" unicode="&#x165;" 
 />
    <glyph glyph-name="Uring" unicode="&#x16e;" 
 />
    <glyph glyph-name="uring" unicode="&#x16f;" 
 />
    <glyph glyph-name="Uhungarumlaut" unicode="&#x170;" 
 />
    <glyph glyph-name="uhungarumlaut" unicode="&#x171;" 
 />
    <glyph glyph-name="Iacute" unicode="&#x178;" horiz-adv-x="719" 
d="M412 286l-0.000976562 -132.999c0 -42.667 7 -72.667 21 -90s37.667 -26 71 -26l8 1v-38h-308v38h10c33.333 -0.666992 57 7.66602 71 24.999s21 47 21 89v134l-196 287l-21 28c-6 8 -11.667 14.333 -17 19c-8.66699 7.33301 -17.834 12.5 -27.501 15.5
s-22.167 5.5 -37.5 7.5v39h299v-38c-30 -2.66699 -50.333 -6.83398 -61 -12.501s-16 -16.167 -16 -31.5c0 -6.66699 1.33301 -13.334 4 -20.001s6.33398 -13.667 11.001 -21l152 -220l111 163c10.667 14.667 18.334 27.334 23.001 38.001s7.66699 20.667 9 30v4v4
c0 20.667 -5.66699 36 -17 46s-31 16.333 -59 19v39h247v-38c-8 -1.33301 -15.333 -3.16602 -22 -5.49902s-13 -5.5 -19 -9.5c-10.667 -6 -21.667 -15.5 -33 -28.5s-25 -31.167 -41 -54.5l-183 -260v0zM273.999 837.001c14.667 -0.666992 27.167 -6.16699 37.5 -16.5
s15.5 -22.833 15.5 -37.5s-5.16699 -27.167 -15.5 -37.5s-22.833 -15.5 -37.5 -15.5s-27.167 5.16699 -37.5 15.5s-15.5 22.833 -15.5 37.5s5.16699 27.167 15.5 37.5s22.833 15.5 37.5 15.5v1zM445.999 837.001c15.333 -0.666992 28 -6.16699 38 -16.5s15 -22.833 15 -37.5
s-5 -27.167 -15 -37.5s-22.667 -15.5 -38 -15.5c-14.667 0 -27.167 5.16699 -37.5 15.5s-15.5 22.833 -15.5 37.5s5.16699 27.167 15.5 37.5s22.833 15.5 37.5 15.5v1z" />
    <glyph glyph-name="Zacute" unicode="&#x179;" 
 />
    <glyph glyph-name="zacute" unicode="&#x17a;" 
 />
    <glyph glyph-name="Zdotaccent" unicode="&#x17b;" 
 />
    <glyph glyph-name="zdotaccent" unicode="&#x17c;" 
 />
    <glyph glyph-name="Zcaron" unicode="&#x17d;" 
 />
    <glyph glyph-name="zcaron" unicode="&#x17e;" 
 />
    <glyph glyph-name="quotedblright" unicode="&#x192;" horiz-adv-x="579" 
d="M527 450l-9.99902 -43.998h-111l-62 -228l-8 -34c-4 -16 -8.66699 -33.167 -14 -51.5l-17 -56.5c-2 -7.33301 -4.16699 -14.5 -6.5 -21.5l-6.5 -19.5l-8 -24.5c-2.66699 -8.33301 -5.33398 -16.166 -8.00098 -23.499c-4.66699 -13.333 -9.5 -25.833 -14.5 -37.5
s-10.167 -21.834 -15.5 -30.501c-8.66699 -14 -19.334 -26.333 -32.001 -37s-26 -18.667 -40 -24c-5.33301 -2.66699 -10.666 -4.5 -15.999 -5.5s-10.666 -1.5 -15.999 -1.5c-18 0 -33 4.66699 -45 14s-18 21 -18 35c0 8.66699 2.5 15.5 7.5 20.5s11.833 7.5 20.5 7.5
c4 0 7.5 -0.333008 10.5 -1s6.16699 -2.33398 9.5 -5.00098c2.66699 -2 5.33398 -5 8.00098 -9s5.66699 -9.33301 9 -16c3.33301 -5.33301 6.5 -9.5 9.5 -12.5s6.5 -4.5 10.5 -4.5c8 0 14.667 2.66699 20 8s10.333 16 15 32c2.66699 10.667 5.66699 23.667 9 39s7 34 11 56
c2 11.333 4.33301 23.666 7 36.999s5.66699 27.333 9 42c0.666992 3.33301 1.5 7 2.5 11s1.83301 8 2.5 12l11.5 50.5c3.66699 15.667 6.83398 28.5 9.50098 38.5c1.33301 3.33301 2.16602 6.16602 2.49902 8.49902s0.833008 4.16602 1.5 5.49902l56 226h-103l9 44h104
l12 54c16 68.667 36 119.334 60 152.001s53.333 49 88 49c19.333 0 36 -5 50 -15s21 -21.667 21 -35c0 -8.66699 -2.83301 -16 -8.5 -22s-12.834 -9 -21.501 -9c-6 0 -11.5 2.33301 -16.5 7s-9.16699 10.334 -12.5 17.001l-5 16c-1.33301 2.66699 -3.5 5 -6.5 7
s-6.5 3.33301 -10.5 4h-1h-2c-10.667 0 -19.334 -5.83301 -26.001 -17.5s-11 -29.5 -13 -53.5l-4 -37l-8 -60l-10 -45l-2 -12h112v0z" />
    <glyph glyph-name="uni02BA" unicode="&#x2ba;" horiz-adv-x="333" 
d="M70 680h92l-108 -169h-16l32 169v0zM223 680h91l-106 -169h-17l32 169v0z" />
    <glyph glyph-name="arrowright" unicode="&#x2c6;" horiz-adv-x="333" 
d="M26 504h-16.0029c1.33301 40 10 71 26 93s38.333 33 67 33c2.66699 0 5.33398 -0.166992 8.00098 -0.5s5.33398 -0.5 8.00098 -0.5c10.667 -2 22 -5.83301 34 -11.5s27.333 -14.834 46 -27.501c15.333 -10.667 27.833 -18 37.5 -22s17.834 -6 24.501 -6
c13.333 0 23.333 5 30 15s12 27.667 16 53l15 1c0.666992 -2 1 -3.83301 1 -5.5v-4.5c0 -34.667 -8.83301 -63.334 -26.5 -86.001s-40.167 -34 -67.5 -34c-12.667 0 -26.834 3.33301 -42.501 10s-33.167 16.334 -52.5 29.001c-15.333 10.667 -26.833 18 -34.5 22
s-14.5 6.33301 -20.5 7c-1.33301 0.666992 -2.66602 1 -3.99902 1h-4c-11.333 0 -20.333 -4 -27 -12s-11.667 -21.333 -15 -40c-0.666992 -2 -1.16699 -4.16699 -1.5 -6.5s-0.833008 -5.16602 -1.5 -8.49902v1z" />
    <glyph glyph-name="glyph224" unicode="&#x2c7;" horiz-adv-x="333" 
d="M212 516h-90l-93 161h15l133 -104l112 104h15l-92 -161v0z" />
    <glyph glyph-name="house" unicode="&#x2c9;" horiz-adv-x="333" 
d="M11 597h311v-63h-311v63v0z" />
    <glyph glyph-name="endash" unicode="&#x2d8;" horiz-adv-x="333" 
d="M27 652l15 -0.000976562c12 -22.667 27.667 -39 47 -49s45.333 -15 78 -15c33.333 0 60.333 5.33301 81 16s34.667 26.334 42 47.001l16 1c-2.66699 -40.667 -17.167 -73.667 -43.5 -99s-58.5 -38 -96.5 -38c-37.333 0 -69 12.5 -95 37.5s-40.667 57.833 -44 98.5v1z" />
    <glyph glyph-name="sfthyphen" unicode="&#x2d9;" horiz-adv-x="333" 
d="M166 618c15.333 -0.666992 28.166 -6.16699 38.499 -16.5s15.5 -22.833 15.5 -37.5s-5.16699 -27.167 -15.5 -37.5s-23.166 -15.5 -38.499 -15.5c-14.667 0 -27.167 5.16699 -37.5 15.5s-15.5 22.833 -15.5 37.5s5.16699 27.167 15.5 37.5s22.833 15.5 37.5 15.5v1z" />
    <glyph glyph-name="filledbox" unicode="&#x2da;" horiz-adv-x="333" 
d="M166 689c26 -0.666992 48.167 -10.167 66.5 -28.5s27.5 -40.166 27.5 -65.499c0 -26 -9.16699 -48.167 -27.5 -66.5s-40.5 -27.5 -66.5 -27.5c-25.333 0 -47.166 9.16699 -65.499 27.5s-27.5 40.5 -27.5 66.5c0 25.333 9.16699 47.166 27.5 65.499
s40.166 27.5 65.499 27.5v1zM167 655c-16.667 -0.666992 -30.834 -6.66699 -42.501 -18s-17.5 -25.333 -17.5 -42s5.83301 -30.834 17.5 -42.501s25.834 -17.5 42.501 -17.5c16 0 29.833 5.83301 41.5 17.5s17.5 25.834 17.5 42.501s-5.83301 30.667 -17.5 42
s-25.5 17 -41.5 17v1z" />
    <glyph glyph-name="glyph223" unicode="&#x2db;" horiz-adv-x="333" 
d="M111 8l26.001 -0.00292969c-2.66699 -5.33301 -5 -10.333 -7 -15s-3.33301 -9 -4 -13c-0.666992 -3.33301 -1.16699 -6.66602 -1.5 -9.99902s-0.5 -7 -0.5 -11c0 -27.333 9.83301 -50 29.5 -68s44.5 -27 74.5 -27c4 0 8 0.166992 12 0.5s7.66699 0.833008 11 1.5
c6 0.666992 12 1.83398 18 3.50098s12 3.5 18 5.5l10 -15c-18.667 -10 -33.834 -17.667 -45.501 -23s-22.834 -9 -33.501 -11c-5.33301 -1.33301 -10.666 -2.16602 -15.999 -2.49902s-11.333 -0.5 -18 -0.5c-33.333 0 -60.333 8.33301 -81 25s-31 38.667 -31 66v4v4
c1.33301 16 5.33301 31.667 12 47s15.667 28 27 38v1z" />
    <glyph glyph-name="onehalf" unicode="&#x2dc;" horiz-adv-x="333" 
d="M121 668h90l93 -161h-15l-133 103l-112 -103h-15l92 161v0z" />
    <glyph glyph-name="Gamma" unicode="&#x393;" 
 />
    <glyph glyph-name="Theta" unicode="&#x398;" 
 />
    <glyph glyph-name="exclamdown" unicode="&#x3a3;" 
 />
    <glyph glyph-name="Phi" unicode="&#x3a6;" 
 />
    <glyph glyph-name="Atilde" unicode="&#x3a9;" 
 />
    <glyph glyph-name="alpha" unicode="&#x3b1;" 
 />
    <glyph glyph-name="delta" unicode="&#x3b4;" 
 />
    <glyph glyph-name="epsilon" unicode="&#x3b5;" 
 />
    <glyph glyph-name="guillemotleft" unicode="&#x3c0;" 
 />
    <glyph glyph-name="sigma" unicode="&#x3c3;" 
 />
    <glyph glyph-name="tau" unicode="&#x3c4;" 
 />
    <glyph glyph-name="phi" unicode="&#x3c6;" 
 />
    <glyph glyph-name="glyph259" unicode="&#x2013;" horiz-adv-x="500" 
d="M-6 273h512v-46h-512v46v0z" />
    <glyph glyph-name="periodcentered" unicode="&#x2014;" horiz-adv-x="1000" 
d="M-6 273h1012v-46h-1012v46v0z" />
    <glyph glyph-name="underscoredbl" unicode="&#x2017;" 
 />
    <glyph glyph-name="Acircumflex" unicode="&#x2018;" horiz-adv-x="292" 
d="M231 694l15.001 -33c-5.33301 -2.66699 -10.333 -4.83398 -15 -6.50098s-9.33398 -3.5 -14.001 -5.5c-28.667 -12.667 -49 -25.834 -61 -39.501s-18 -30.5 -18 -50.5c0 -10.667 2.66699 -19 8 -25s12.666 -9 21.999 -9l4 1h5c20.667 -0.666992 36.334 -5.5 47.001 -14.5
s16 -22.167 16 -39.5s-5.5 -31.166 -16.5 -41.499s-25.833 -15.5 -44.5 -15.5c-28.667 0 -52 10.833 -70 32.5s-27 48.834 -27 81.501c0 28.667 7.66699 55.5 23 80.5s36.333 44.5 63 58.5l11 5.5l9 4.5c2 0.666992 3.83301 1.5 5.5 2.5s3.5 1.83301 5.5 2.5l14 4.5l18 5.5
v1z" />
    <glyph glyph-name="Ecircumflex" unicode="&#x2019;" horiz-adv-x="292" 
d="M87 416l-13.999 33.002c6.66699 2 13.167 4.33301 19.5 7s12.166 5 17.499 7c26 12.667 44.333 25.5 55 38.5s16 28.833 16 47.5c0 11.333 -2.66699 19.833 -8 25.5s-12.666 8.5 -21.999 8.5h-2h-2h-2.5h-2.5c-20.667 0 -36.334 4.66699 -47.001 14s-16 22.333 -16 39
c0 17.333 5.5 31.166 16.5 41.499s25.833 15.5 44.5 15.5c28 0 51.167 -10.667 69.5 -32s27.5 -48.666 27.5 -81.999c0 -28 -7.66699 -54.5 -23 -79.5s-36.333 -44.833 -63 -59.5c-4 -2 -7.5 -3.83301 -10.5 -5.5s-6.16699 -3.16699 -9.5 -4.5
c-1.33301 -0.666992 -2.83301 -1.33398 -4.5 -2.00098s-3.5 -1.33398 -5.5 -2.00098l-14.5 -5c-5.66699 -2 -12.167 -4 -19.5 -6v1z" />
    <glyph glyph-name="Ugrave" unicode="&#x201a;" 
 />
    <glyph glyph-name="quotedblbase" unicode="&#x201c;" horiz-adv-x="510" 
d="M228 694l15.001 -33.001c-5.33301 -2.66699 -10.333 -4.83398 -15 -6.50098s-9.33398 -3.5 -14.001 -5.5c-29.333 -12.667 -49.833 -25.834 -61.5 -39.501s-17.5 -30.5 -17.5 -50.5c0 -10.667 2.5 -19 7.5 -25s12.5 -9 22.5 -9l4 1h5c20 -0.666992 35.5 -5.5 46.5 -14.5
s16.5 -22.167 16.5 -39.5s-5.5 -31.166 -16.5 -41.499s-26.167 -15.5 -45.5 -15.5c-28 0 -51.167 10.833 -69.5 32.5s-27.5 48.834 -27.5 81.501c0 28.667 7.83301 55.5 23.5 80.5s36.5 44.5 62.5 58.5c4 2 7.5 3.83301 10.5 5.5s6.16699 3.16699 9.5 4.5
c2 0.666992 3.83301 1.33398 5.5 2.00098s3.5 1.66699 5.5 3c4.66699 1.33301 9.5 2.83301 14.5 4.5s11.167 3.5 18.5 5.5v1zM452.001 693.999l14.001 -33.001c-5.33301 -2.66699 -10.333 -4.83398 -15 -6.50098s-9.33398 -3.5 -14.001 -5.5
c-28.667 -12.667 -48.834 -25.834 -60.501 -39.501s-17.5 -30.5 -17.5 -50.5c0 -10.667 2.5 -19 7.5 -25s12.167 -9 21.5 -9l4 1h5c20.667 -0.666992 36.334 -5.5 47.001 -14.5s16 -22.167 16 -39.5s-5.5 -31.166 -16.5 -41.499s-25.833 -15.5 -44.5 -15.5
c-28 0 -51.167 10.833 -69.5 32.5s-27.5 48.834 -27.5 81.501c0 28.667 7.66699 55.5 23 80.5s36.333 44.5 63 58.5c4 2 7.5 3.83301 10.5 5.5s6.16699 3.16699 9.5 4.5c2 0.666992 3.83301 1.33398 5.5 2.00098s3.5 1.66699 5.5 3c4.66699 1.33301 9.5 2.83301 14.5 4.5
s11.167 3.5 18.5 5.5v1z" />
    <glyph glyph-name="perthousand" unicode="&#x201d;" horiz-adv-x="510" 
d="M83 416l-14.999 33.002c6.66699 2 13.167 4.33301 19.5 7s12.166 5 17.499 7c26 12.667 44.333 25.5 55 38.5s16 28.833 16 47.5c0 11.333 -2.66699 19.833 -8 25.5s-12.666 8.5 -21.999 8.5h-0.5h-1.5h-1.5h-0.5h-1.5h-0.5h-1.5h-1.5
c-20.667 0 -36.334 4.66699 -47.001 14s-16 22.333 -16 39c0 17.333 5.5 31.166 16.5 41.499s25.833 15.5 44.5 15.5c28.667 0 52.167 -10.667 70.5 -32s27.5 -48.666 27.5 -81.999c0 -28 -7.83301 -54.5 -23.5 -79.5s-36.834 -44.833 -63.501 -59.5l-11 -5.5l-9 -4.5
c-2 -0.666992 -3.66699 -1.33398 -5 -2.00098s-3 -1.33398 -5 -2.00098c-4 -1.33301 -8.66699 -3 -14 -5s-11.666 -4 -18.999 -6v1zM307.001 416.002l-15 33.002c6.66699 2 13.167 4.33301 19.5 7s12.166 5 17.499 7c26 12.667 44.333 25.5 55 38.5s16 28.833 16 47.5
c0 11.333 -2.66699 19.833 -8 25.5s-12.666 8.5 -21.999 8.5h-2h-2h-2.5h-2.5c-20.667 0 -36.334 4.66699 -47.001 14s-16 22.333 -16 39c0 17.333 5.5 31.166 16.5 41.499s25.833 15.5 44.5 15.5c28.667 0 52 -10.667 70 -32s27 -48.666 27 -81.999
c0 -28 -7.66699 -54.5 -23 -79.5s-36.333 -44.833 -63 -59.5l-11 -5.5l-9 -4.5c-2 -0.666992 -3.66699 -1.33398 -5 -2.00098s-3 -1.33398 -5 -2.00098c-4 -1.33301 -8.66699 -3 -14 -5s-11.666 -4 -18.999 -6v1z" />
    <glyph glyph-name="dotlessi" unicode="&#x201e;" horiz-adv-x="510" 
d="M77 -114l-14.998 31.999l19.5 8c6.33301 2.66699 12.166 5 17.499 7c26 12.667 44.333 25.5 55 38.5s16 28.5 16 46.5c0 11.333 -2.66699 19.833 -8 25.5s-12.666 8.5 -21.999 8.5h-0.5h-1.5h-1.5h-0.5h-1.5h-0.5h-1.5h-1.5c-20.667 0 -36.334 4.66699 -47.001 14
s-16 22.666 -16 39.999s5.5 31 16.5 41s25.833 15 44.5 15c28.667 0 52.167 -10.667 70.5 -32s27.5 -48.666 27.5 -81.999c0 -28 -7.83301 -54.333 -23.5 -79s-36.834 -44 -63.501 -58l-11 -5.5l-9 -4.5l-7 -3.5c-2 -1 -4.33301 -1.83301 -7 -2.5
c-4 -1.33301 -8.33301 -2.66602 -13 -3.99902s-10 -3 -16 -5v0zM301.002 -114.001l-14.999 31.999l19.5 8c6.33301 2.66699 12.166 5 17.499 7c26 12.667 44.333 25.5 55 38.5s16 28.5 16 46.5c0 11.333 -2.66699 19.833 -8 25.5s-12.666 8.5 -21.999 8.5h-0.5h-1.5h-1.5
h-0.5h-1.5h-0.5h-1.5h-1.5c-20.667 0 -36.334 4.66699 -47.001 14s-16 22.666 -16 39.999s5.5 31 16.5 41s25.833 15 44.5 15c28.667 0 52 -10.667 70 -32s27 -48.666 27 -81.999c0 -28 -7.66699 -54.333 -23 -79s-36.333 -44 -63 -58l-11 -5.5l-9 -4.5l-7 -3.5
c-2 -1 -4.33301 -1.83301 -7 -2.5c-4 -1.33301 -8.33301 -2.66602 -13 -3.99902s-10 -3 -16 -5v0z" />
    <glyph glyph-name="dagger" unicode="&#x2020;" horiz-adv-x="521" 
d="M236 379l-170 -32.0039c-2.66699 -1.33301 -5.5 -2.16602 -8.5 -2.49902s-6.16699 -0.5 -9.5 -0.5c-8.66699 0 -14.667 3.83301 -18 11.5s-5 22.834 -5 45.501c0 16.667 2.66699 28.834 8 36.501s13.333 11.5 24 11.5h5.5c2.33301 0 5.5 -0.666992 9.5 -2l164 -28
l-28 234v10c0 12 4 20.833 12 26.5s20.667 8.5 38 8.5c18.667 0 32 -2.66699 40 -8s12 -14.666 12 -27.999v-2.5v-2.5c0 -0.666992 -0.166992 -1.5 -0.5 -2.5s-0.5 -1.83301 -0.5 -2.5l-27 -233l163 29c4 0.666992 7.33301 1 10 1h6c12 0 20.333 -4 25 -12s7 -22.333 7 -43
c0 -18 -2 -30.833 -6 -38.5s-10.667 -11.5 -20 -11.5c-2 0 -4.33301 0.166992 -7 0.5s-5.66699 0.833008 -9 1.5l-169 33l34 -530v-3c0 -0.666992 0.333008 -1.66699 1 -3v-2.5v-2.5c0 -11.333 -2.5 -19 -7.5 -23s-14.167 -6 -27.5 -6h-46c-12.667 0 -21.667 2 -27 6
s-8 11.667 -8 23v11l35 530v0z" />
    <glyph glyph-name="Uacute" unicode="&#x2021;" horiz-adv-x="500" 
d="M285 254l-18 -169.002l143 34c2 0 4 0.166992 6 0.5s4 0.5 6 0.5c14.667 0 25.167 -4.33301 31.5 -13s9.5 -22.667 9.5 -42c0 -20 -2.5 -33.833 -7.5 -41.5s-13.833 -11.5 -26.5 -11.5h-4.5c-1.66699 0 -3.16699 0.333008 -4.5 1l-153 32l34 -186v-3.5
c0 -1 0.333008 -2.16699 1 -3.5v-3v-3c0 -14.667 -3.33301 -24.667 -10 -30s-18.667 -8 -36 -8c-21.333 0 -36.5 2.16699 -45.5 6.5s-13.5 12.166 -13.5 23.499c0 0.666992 0.166992 2.33398 0.5 5.00098s0.833008 6 1.5 10l29 192l-151 -32
c-0.666992 -0.666992 -1.33398 -1 -2.00098 -1h-2c-1.33301 -0.666992 -2.33301 -1 -3 -1h-2c-12.667 0 -21.5 4.16699 -26.5 12.5s-7.5 23.5 -7.5 45.5c0 19.333 2.33301 32.833 7 40.5s12.334 11.5 23.001 11.5c2 0 4 -0.166992 6 -0.5s4.33301 -0.833008 7 -1.5l151 -34
l-18 169l18 169l-151 -35c-2 -1.33301 -4 -2 -6 -2h-6c-11.333 0 -19.5 3.33301 -24.5 10s-7.5 17.667 -7.5 33c0 25.333 2.5 42.5 7.5 51.5s14.167 13.5 27.5 13.5h4.5c1.66699 0 3.16699 -0.333008 4.5 -1l151 -30l-29 192c-0.666992 0.666992 -1 1.83398 -1 3.50098v4.5
c0 13.333 3.5 22.5 10.5 27.5s18.833 7.5 35.5 7.5c23.333 0 38.833 -2.16699 46.5 -6.5s11.5 -13.166 11.5 -26.499v-8c0 -2.66699 -0.333008 -5.66699 -1 -9l-34 -185l153 31h4.5h4.5c12 0 20.667 -3.83301 26 -11.5s8 -20.167 8 -37.5c0 -21.333 -3 -36.5 -9 -45.5
s-16.667 -13.5 -32 -13.5h-2.5c-1 0 -2.16699 0.333008 -3.5 1h-2.5h-3.5l-143 36l18 -169v0z" />
    <glyph glyph-name="glyph262" unicode="&#x2022;" horiz-adv-x="350" 
d="M175 453c34 -0.666992 62.833 -13 86.5 -37s35.5 -52.667 35.5 -86c0 -34 -11.833 -63 -35.5 -87s-52.5 -36 -86.5 -36s-63 12 -87 36s-36 53 -36 87c0 33.333 12 62 36 86s53 36 87 36v1z" />
    <glyph glyph-name="fraction" unicode="&#x2026;" horiz-adv-x="1000" 
d="M105 50c0 16.667 6.16699 31 18.5 43s26.833 18 43.5 18c17.333 0 32 -6 44 -18s18 -26.667 18 -44c0 -16.667 -6 -31 -18 -43s-26.667 -18 -44 -18c-16.667 0 -31.167 6 -43.5 18s-18.5 26.333 -18.5 43v1zM438 50c0 16.667 6.16699 31 18.5 43s26.833 18 43.5 18
c17.333 0 32 -6 44 -18s18 -26.667 18 -44c0 -16.667 -6 -31 -18 -43s-26.667 -18 -44 -18c-16.667 0 -31.167 6 -43.5 18s-18.5 26.333 -18.5 43v1zM771 50c0 16.667 6.16699 31 18.5 43s26.833 18 43.5 18c17.333 0 32 -6 44 -18s18 -26.667 18 -44
c0 -16.667 -6 -31 -18 -43s-26.667 -18 -44 -18c-16.667 0 -31.167 6 -43.5 18s-18.5 26.333 -18.5 43v1z" />
    </font>
</defs>
</svg>
